G75*
%MOIN*%
%OFA0B0*%
%FSLAX25Y25*%
%IPPOS*%
%LPD*%
%AMOC8*
5,1,8,0,0,1.08239X$1,22.5*
%
%ADD10C,0.01100*%
%ADD11C,0.00500*%
%ADD12C,0.00400*%
D10*
X0194809Y0058876D02*
X0198745Y0062813D01*
X0198745Y0063797D01*
X0197761Y0064781D01*
X0195793Y0064781D01*
X0194809Y0063797D01*
X0194809Y0058876D02*
X0198745Y0058876D01*
X0201254Y0059860D02*
X0202238Y0058876D01*
X0204207Y0058876D01*
X0205191Y0059860D01*
X0205191Y0063797D01*
X0201254Y0059860D01*
X0201254Y0063797D01*
X0202238Y0064781D01*
X0204207Y0064781D01*
X0205191Y0063797D01*
X0207700Y0062813D02*
X0209668Y0064781D01*
X0209668Y0058876D01*
X0207700Y0058876D02*
X0211636Y0058876D01*
X0214145Y0059860D02*
X0215129Y0058876D01*
X0217098Y0058876D01*
X0218082Y0059860D01*
X0218082Y0061829D01*
X0217098Y0062813D01*
X0216113Y0062813D01*
X0214145Y0061829D01*
X0214145Y0064781D01*
X0218082Y0064781D01*
X0220591Y0063797D02*
X0221575Y0064781D01*
X0223543Y0064781D01*
X0224527Y0063797D01*
X0220591Y0059860D01*
X0221575Y0058876D01*
X0223543Y0058876D01*
X0224527Y0059860D01*
X0224527Y0063797D01*
X0227036Y0064781D02*
X0230973Y0064781D01*
X0230973Y0063797D01*
X0227036Y0059860D01*
X0227036Y0058876D01*
X0233482Y0058876D02*
X0237418Y0062813D01*
X0237418Y0063797D01*
X0236434Y0064781D01*
X0234466Y0064781D01*
X0233482Y0063797D01*
X0233482Y0058876D02*
X0237418Y0058876D01*
X0239927Y0059860D02*
X0243864Y0063797D01*
X0243864Y0059860D01*
X0242880Y0058876D01*
X0240911Y0058876D01*
X0239927Y0059860D01*
X0239927Y0063797D01*
X0240911Y0064781D01*
X0242880Y0064781D01*
X0243864Y0063797D01*
X0252818Y0064781D02*
X0252818Y0058876D01*
X0256755Y0058876D01*
X0259264Y0058876D02*
X0261232Y0058876D01*
X0260248Y0058876D02*
X0260248Y0062813D01*
X0259264Y0062813D01*
X0260248Y0064781D02*
X0260248Y0065765D01*
X0263561Y0061829D02*
X0263561Y0059860D01*
X0264545Y0058876D01*
X0267497Y0058876D01*
X0270006Y0059860D02*
X0270990Y0058876D01*
X0272959Y0058876D01*
X0273943Y0060844D02*
X0270006Y0060844D01*
X0270006Y0059860D02*
X0270006Y0061829D01*
X0270990Y0062813D01*
X0272959Y0062813D01*
X0273943Y0061829D01*
X0273943Y0060844D01*
X0276452Y0058876D02*
X0276452Y0062813D01*
X0279404Y0062813D01*
X0280388Y0061829D01*
X0280388Y0058876D01*
X0282897Y0058876D02*
X0285850Y0058876D01*
X0286834Y0059860D01*
X0285850Y0060844D01*
X0283881Y0060844D01*
X0282897Y0061829D01*
X0283881Y0062813D01*
X0286834Y0062813D01*
X0289343Y0061829D02*
X0290327Y0062813D01*
X0292295Y0062813D01*
X0293279Y0061829D01*
X0293279Y0060844D01*
X0289343Y0060844D01*
X0289343Y0059860D02*
X0289343Y0061829D01*
X0289343Y0059860D02*
X0290327Y0058876D01*
X0292295Y0058876D01*
X0295788Y0059860D02*
X0295788Y0061829D01*
X0296772Y0062813D01*
X0299725Y0062813D01*
X0299725Y0064781D02*
X0299725Y0058876D01*
X0296772Y0058876D01*
X0295788Y0059860D01*
X0308679Y0059860D02*
X0309663Y0058876D01*
X0312616Y0058876D01*
X0312616Y0062813D01*
X0315125Y0062813D02*
X0318077Y0062813D01*
X0319061Y0061829D01*
X0319061Y0058876D01*
X0321570Y0059860D02*
X0322554Y0058876D01*
X0325507Y0058876D01*
X0325507Y0064781D01*
X0325507Y0062813D02*
X0322554Y0062813D01*
X0321570Y0061829D01*
X0321570Y0059860D01*
X0328016Y0059860D02*
X0329000Y0058876D01*
X0330968Y0058876D01*
X0331952Y0060844D02*
X0328016Y0060844D01*
X0328016Y0059860D02*
X0328016Y0061829D01*
X0329000Y0062813D01*
X0330968Y0062813D01*
X0331952Y0061829D01*
X0331952Y0060844D01*
X0334461Y0060844D02*
X0336429Y0062813D01*
X0337414Y0062813D01*
X0334461Y0062813D02*
X0334461Y0058876D01*
X0346278Y0059860D02*
X0347262Y0058876D01*
X0349230Y0058876D01*
X0350214Y0059860D01*
X0352723Y0058876D02*
X0356660Y0058876D01*
X0359169Y0058876D02*
X0359169Y0064781D01*
X0362121Y0064781D01*
X0363105Y0063797D01*
X0363105Y0061829D01*
X0362121Y0060844D01*
X0359169Y0060844D01*
X0361137Y0060844D02*
X0363105Y0058876D01*
X0365614Y0058876D02*
X0365614Y0064781D01*
X0369551Y0058876D01*
X0369551Y0064781D01*
X0378505Y0063797D02*
X0378505Y0059860D01*
X0379489Y0058876D01*
X0381458Y0058876D01*
X0382442Y0059860D01*
X0382442Y0063797D01*
X0381458Y0064781D01*
X0379489Y0064781D01*
X0378505Y0063797D01*
X0384951Y0064781D02*
X0384951Y0058876D01*
X0384951Y0061829D02*
X0388887Y0061829D01*
X0388887Y0064781D02*
X0388887Y0058876D01*
X0391396Y0058876D02*
X0395333Y0058876D01*
X0391396Y0058876D02*
X0391396Y0064781D01*
X0404287Y0062813D02*
X0406256Y0058876D01*
X0408224Y0062813D01*
X0410733Y0059860D02*
X0411717Y0059860D01*
X0411717Y0058876D01*
X0410733Y0058876D01*
X0410733Y0059860D01*
X0413956Y0058876D02*
X0417892Y0058876D01*
X0415924Y0058876D02*
X0415924Y0064781D01*
X0413956Y0062813D01*
X0420401Y0059860D02*
X0420401Y0058876D01*
X0421385Y0058876D01*
X0421385Y0059860D01*
X0420401Y0059860D01*
X0423624Y0058876D02*
X0427560Y0062813D01*
X0427560Y0063797D01*
X0426576Y0064781D01*
X0424608Y0064781D01*
X0423624Y0063797D01*
X0423624Y0058876D02*
X0427560Y0058876D01*
X0356660Y0064781D02*
X0352723Y0064781D01*
X0352723Y0058876D01*
X0352723Y0061829D02*
X0354692Y0061829D01*
X0350214Y0063797D02*
X0349230Y0064781D01*
X0347262Y0064781D01*
X0346278Y0063797D01*
X0346278Y0059860D01*
X0315125Y0058876D02*
X0315125Y0062813D01*
X0308679Y0062813D02*
X0308679Y0059860D01*
X0267497Y0062813D02*
X0264545Y0062813D01*
X0263561Y0061829D01*
X0220591Y0059860D02*
X0220591Y0063797D01*
X0083264Y0186827D02*
X0082280Y0185843D01*
X0083264Y0186827D02*
X0083264Y0188795D01*
X0082280Y0189780D01*
X0081296Y0189780D01*
X0080312Y0188795D01*
X0080312Y0186827D01*
X0079327Y0185843D01*
X0078343Y0185843D01*
X0077359Y0186827D01*
X0077359Y0188795D01*
X0078343Y0189780D01*
X0080312Y0192288D02*
X0079327Y0193273D01*
X0079327Y0195241D01*
X0080312Y0196225D01*
X0081296Y0196225D01*
X0081296Y0192288D01*
X0082280Y0192288D02*
X0080312Y0192288D01*
X0082280Y0192288D02*
X0083264Y0193273D01*
X0083264Y0195241D01*
X0083264Y0198734D02*
X0079327Y0198734D01*
X0079327Y0201686D01*
X0080312Y0202671D01*
X0083264Y0202671D01*
X0083264Y0205179D02*
X0083264Y0208132D01*
X0082280Y0209116D01*
X0081296Y0208132D01*
X0081296Y0206164D01*
X0080312Y0205179D01*
X0079327Y0206164D01*
X0079327Y0209116D01*
X0080312Y0211625D02*
X0082280Y0211625D01*
X0083264Y0212609D01*
X0083264Y0214577D01*
X0082280Y0215562D01*
X0080312Y0215562D01*
X0079327Y0214577D01*
X0079327Y0212609D01*
X0080312Y0211625D01*
X0081296Y0218070D02*
X0079327Y0220039D01*
X0079327Y0221023D01*
X0079327Y0218070D02*
X0083264Y0218070D01*
X0083264Y0229887D02*
X0083264Y0232840D01*
X0082280Y0233824D01*
X0080312Y0233824D01*
X0079327Y0232840D01*
X0079327Y0229887D01*
X0077359Y0229887D02*
X0083264Y0229887D01*
X0082280Y0236333D02*
X0083264Y0237317D01*
X0083264Y0239285D01*
X0082280Y0240269D01*
X0080312Y0240269D01*
X0079327Y0239285D01*
X0079327Y0237317D01*
X0080312Y0236333D01*
X0082280Y0236333D01*
X0082280Y0242778D02*
X0081296Y0243762D01*
X0081296Y0246715D01*
X0080312Y0246715D02*
X0083264Y0246715D01*
X0083264Y0243762D01*
X0082280Y0242778D01*
X0079327Y0243762D02*
X0079327Y0245731D01*
X0080312Y0246715D01*
X0081296Y0249224D02*
X0079327Y0251192D01*
X0079327Y0252176D01*
X0080312Y0254595D02*
X0079327Y0255579D01*
X0079327Y0258532D01*
X0077359Y0258532D02*
X0083264Y0258532D01*
X0083264Y0255579D01*
X0082280Y0254595D01*
X0080312Y0254595D01*
X0079327Y0249224D02*
X0083264Y0249224D01*
X0082280Y0267486D02*
X0078343Y0271423D01*
X0082280Y0271423D01*
X0083264Y0270438D01*
X0083264Y0268470D01*
X0082280Y0267486D01*
X0078343Y0267486D01*
X0077359Y0268470D01*
X0077359Y0270438D01*
X0078343Y0271423D01*
X0078343Y0273931D02*
X0077359Y0274916D01*
X0077359Y0276884D01*
X0078343Y0277868D01*
X0082280Y0273931D01*
X0083264Y0274916D01*
X0083264Y0276884D01*
X0082280Y0277868D01*
X0078343Y0277868D01*
X0078343Y0280377D02*
X0077359Y0281361D01*
X0077359Y0283329D01*
X0078343Y0284314D01*
X0079327Y0284314D01*
X0080312Y0283329D01*
X0081296Y0284314D01*
X0082280Y0284314D01*
X0083264Y0283329D01*
X0083264Y0281361D01*
X0082280Y0280377D01*
X0080312Y0282345D02*
X0080312Y0283329D01*
X0082280Y0273931D02*
X0078343Y0273931D01*
X0286374Y0425530D02*
X0286374Y0431435D01*
X0288343Y0429466D01*
X0290311Y0431435D01*
X0290311Y0425530D01*
X0292820Y0425530D02*
X0294788Y0425530D01*
X0293804Y0425530D02*
X0293804Y0429466D01*
X0292820Y0429466D01*
X0293804Y0431435D02*
X0293804Y0432419D01*
X0297117Y0429466D02*
X0297117Y0425530D01*
X0297117Y0427498D02*
X0299085Y0429466D01*
X0300069Y0429466D01*
X0302488Y0429466D02*
X0303472Y0429466D01*
X0303472Y0425530D01*
X0302488Y0425530D02*
X0304456Y0425530D01*
X0306785Y0426514D02*
X0307769Y0427498D01*
X0310722Y0427498D01*
X0310722Y0428482D02*
X0310722Y0425530D01*
X0307769Y0425530D01*
X0306785Y0426514D01*
X0307769Y0429466D02*
X0309737Y0429466D01*
X0310722Y0428482D01*
X0313230Y0429466D02*
X0313230Y0425530D01*
X0315199Y0425530D02*
X0315199Y0428482D01*
X0316183Y0429466D01*
X0317167Y0428482D01*
X0317167Y0425530D01*
X0315199Y0428482D02*
X0314215Y0429466D01*
X0313230Y0429466D01*
X0303472Y0431435D02*
X0303472Y0432419D01*
D11*
X0294170Y0375052D02*
X0283540Y0375052D01*
X0283540Y0366194D01*
X0294170Y0366194D01*
X0294170Y0375052D01*
X0294170Y0366194D02*
X0294170Y0362454D01*
X0283540Y0362454D01*
X0283540Y0366194D01*
X0258737Y0366194D02*
X0258737Y0362454D01*
X0248107Y0362454D01*
X0248107Y0366194D01*
X0258737Y0366194D01*
X0258737Y0375052D01*
X0248107Y0375052D01*
X0248107Y0366194D01*
X0223304Y0366194D02*
X0223304Y0362454D01*
X0212674Y0362454D01*
X0212674Y0366194D01*
X0223304Y0366194D01*
X0223304Y0375052D01*
X0212674Y0375052D01*
X0212674Y0366194D01*
X0187871Y0366194D02*
X0187871Y0362454D01*
X0177241Y0362454D01*
X0177241Y0366194D01*
X0187871Y0366194D01*
X0187871Y0375052D01*
X0177241Y0375052D01*
X0177241Y0366194D01*
X0152438Y0366194D02*
X0152438Y0362454D01*
X0141808Y0362454D01*
X0141808Y0366194D01*
X0152438Y0366194D01*
X0152438Y0375052D01*
X0141808Y0375052D01*
X0141808Y0366194D01*
X0141808Y0339619D02*
X0141808Y0330761D01*
X0152438Y0330761D01*
X0152438Y0339619D01*
X0141808Y0339619D01*
X0141808Y0330761D02*
X0141808Y0327020D01*
X0152438Y0327020D01*
X0152438Y0330761D01*
X0177241Y0330761D02*
X0177241Y0327020D01*
X0187871Y0327020D01*
X0187871Y0330761D01*
X0177241Y0330761D01*
X0177241Y0339619D01*
X0187871Y0339619D01*
X0187871Y0330761D01*
X0212674Y0330761D02*
X0212674Y0327020D01*
X0223304Y0327020D01*
X0223304Y0330761D01*
X0212674Y0330761D01*
X0212674Y0339619D01*
X0223304Y0339619D01*
X0223304Y0330761D01*
X0248107Y0330761D02*
X0248107Y0327020D01*
X0258737Y0327020D01*
X0258737Y0330761D01*
X0248107Y0330761D01*
X0248107Y0339619D01*
X0258737Y0339619D01*
X0258737Y0330761D01*
X0283540Y0330761D02*
X0283540Y0327020D01*
X0294170Y0327020D01*
X0294170Y0330761D01*
X0283540Y0330761D01*
X0283540Y0339619D01*
X0294170Y0339619D01*
X0294170Y0330761D01*
X0318973Y0330761D02*
X0318973Y0327020D01*
X0329603Y0327020D01*
X0329603Y0330761D01*
X0318973Y0330761D01*
X0318973Y0339619D01*
X0329603Y0339619D01*
X0329603Y0330761D01*
X0354406Y0330761D02*
X0354406Y0327020D01*
X0365036Y0327020D01*
X0365036Y0330761D01*
X0354406Y0330761D01*
X0354406Y0339619D01*
X0365036Y0339619D01*
X0365036Y0330761D01*
X0389839Y0330761D02*
X0389839Y0327020D01*
X0400469Y0327020D01*
X0400469Y0330761D01*
X0389839Y0330761D01*
X0389839Y0339619D01*
X0400469Y0339619D01*
X0400469Y0330761D01*
X0425272Y0330761D02*
X0425272Y0327020D01*
X0435902Y0327020D01*
X0435902Y0330761D01*
X0425272Y0330761D01*
X0425272Y0339619D01*
X0435902Y0339619D01*
X0435902Y0330761D01*
X0460706Y0330761D02*
X0460706Y0327020D01*
X0471335Y0327020D01*
X0471335Y0330761D01*
X0460706Y0330761D01*
X0460706Y0339619D01*
X0471335Y0339619D01*
X0471335Y0330761D01*
X0496139Y0330761D02*
X0496139Y0327020D01*
X0506769Y0327020D01*
X0506769Y0330761D01*
X0496139Y0330761D01*
X0496139Y0339619D01*
X0506769Y0339619D01*
X0506769Y0330761D01*
X0531572Y0330761D02*
X0531572Y0327020D01*
X0542202Y0327020D01*
X0542202Y0330761D01*
X0531572Y0330761D01*
X0531572Y0339619D01*
X0542202Y0339619D01*
X0542202Y0330761D01*
X0542202Y0304186D02*
X0531572Y0304186D01*
X0531572Y0295328D01*
X0542202Y0295328D01*
X0542202Y0304186D01*
X0542202Y0295328D02*
X0542202Y0291587D01*
X0531572Y0291587D01*
X0531572Y0295328D01*
X0506769Y0295328D02*
X0506769Y0291587D01*
X0496139Y0291587D01*
X0496139Y0295328D01*
X0506769Y0295328D01*
X0506769Y0304186D01*
X0496139Y0304186D01*
X0496139Y0295328D01*
X0471335Y0295328D02*
X0471335Y0291587D01*
X0460706Y0291587D01*
X0460706Y0295328D01*
X0471335Y0295328D01*
X0471335Y0304186D01*
X0460706Y0304186D01*
X0460706Y0295328D01*
X0435902Y0295328D02*
X0435902Y0291587D01*
X0425272Y0291587D01*
X0425272Y0295328D01*
X0435902Y0295328D01*
X0435902Y0304186D01*
X0425272Y0304186D01*
X0425272Y0295328D01*
X0400469Y0295328D02*
X0400469Y0291587D01*
X0389839Y0291587D01*
X0389839Y0295328D01*
X0400469Y0295328D01*
X0400469Y0304186D01*
X0389839Y0304186D01*
X0389839Y0295328D01*
X0365036Y0295328D02*
X0365036Y0291587D01*
X0354406Y0291587D01*
X0354406Y0295328D01*
X0365036Y0295328D01*
X0365036Y0304186D01*
X0354406Y0304186D01*
X0354406Y0295328D01*
X0329603Y0295328D02*
X0329603Y0291587D01*
X0318973Y0291587D01*
X0318973Y0295328D01*
X0329603Y0295328D01*
X0329603Y0304186D01*
X0318973Y0304186D01*
X0318973Y0295328D01*
X0294170Y0295328D02*
X0294170Y0291587D01*
X0283540Y0291587D01*
X0283540Y0295328D01*
X0294170Y0295328D01*
X0294170Y0304186D01*
X0283540Y0304186D01*
X0283540Y0295328D01*
X0258737Y0295328D02*
X0258737Y0291587D01*
X0248107Y0291587D01*
X0248107Y0295328D01*
X0258737Y0295328D01*
X0258737Y0304186D01*
X0248107Y0304186D01*
X0248107Y0295328D01*
X0223304Y0295328D02*
X0223304Y0291587D01*
X0212674Y0291587D01*
X0212674Y0295328D01*
X0223304Y0295328D01*
X0223304Y0304186D01*
X0212674Y0304186D01*
X0212674Y0295328D01*
X0187871Y0295328D02*
X0187871Y0291587D01*
X0177241Y0291587D01*
X0177241Y0295328D01*
X0187871Y0295328D01*
X0187871Y0304186D01*
X0177241Y0304186D01*
X0177241Y0295328D01*
X0152438Y0295328D02*
X0152438Y0291587D01*
X0141808Y0291587D01*
X0141808Y0295328D01*
X0152438Y0295328D01*
X0152438Y0304186D01*
X0141808Y0304186D01*
X0141808Y0295328D01*
X0141808Y0268753D02*
X0141808Y0259894D01*
X0152438Y0259894D01*
X0152438Y0268753D01*
X0141808Y0268753D01*
X0141808Y0259894D02*
X0141808Y0256154D01*
X0152438Y0256154D01*
X0152438Y0259894D01*
X0177241Y0259894D02*
X0187871Y0259894D01*
X0187871Y0268753D01*
X0177241Y0268753D01*
X0177241Y0259894D01*
X0177241Y0256154D01*
X0187871Y0256154D01*
X0187871Y0259894D01*
X0212674Y0259894D02*
X0223304Y0259894D01*
X0223304Y0268753D01*
X0212674Y0268753D01*
X0212674Y0259894D01*
X0212674Y0256154D01*
X0223304Y0256154D01*
X0223304Y0259894D01*
X0248107Y0259894D02*
X0258737Y0259894D01*
X0258737Y0268753D01*
X0248107Y0268753D01*
X0248107Y0259894D01*
X0248107Y0256154D01*
X0258737Y0256154D01*
X0258737Y0259894D01*
X0283540Y0259894D02*
X0294170Y0259894D01*
X0294170Y0268753D01*
X0283540Y0268753D01*
X0283540Y0259894D01*
X0283540Y0256154D01*
X0294170Y0256154D01*
X0294170Y0259894D01*
X0318973Y0259894D02*
X0329603Y0259894D01*
X0329603Y0268753D01*
X0318973Y0268753D01*
X0318973Y0259894D01*
X0318973Y0256154D01*
X0329603Y0256154D01*
X0329603Y0259894D01*
X0354406Y0259894D02*
X0365036Y0259894D01*
X0365036Y0268753D01*
X0354406Y0268753D01*
X0354406Y0259894D01*
X0354406Y0256154D01*
X0365036Y0256154D01*
X0365036Y0259894D01*
X0389839Y0259894D02*
X0400469Y0259894D01*
X0400469Y0268753D01*
X0389839Y0268753D01*
X0389839Y0259894D01*
X0389839Y0256154D01*
X0400469Y0256154D01*
X0400469Y0259894D01*
X0425272Y0259894D02*
X0435902Y0259894D01*
X0435902Y0268753D01*
X0425272Y0268753D01*
X0425272Y0259894D01*
X0425272Y0256154D01*
X0435902Y0256154D01*
X0435902Y0259894D01*
X0460706Y0259894D02*
X0471335Y0259894D01*
X0471335Y0268753D01*
X0460706Y0268753D01*
X0460706Y0259894D01*
X0460706Y0256154D01*
X0471335Y0256154D01*
X0471335Y0259894D01*
X0496139Y0259894D02*
X0506769Y0259894D01*
X0506769Y0268753D01*
X0496139Y0268753D01*
X0496139Y0259894D01*
X0496139Y0256154D01*
X0506769Y0256154D01*
X0506769Y0259894D01*
X0531572Y0259894D02*
X0542202Y0259894D01*
X0542202Y0268753D01*
X0531572Y0268753D01*
X0531572Y0259894D01*
X0531572Y0256154D01*
X0542202Y0256154D01*
X0542202Y0259894D01*
X0542202Y0233320D02*
X0531572Y0233320D01*
X0531572Y0224461D01*
X0542202Y0224461D01*
X0542202Y0233320D01*
X0542202Y0224461D02*
X0542202Y0220721D01*
X0531572Y0220721D01*
X0531572Y0224461D01*
X0506769Y0224461D02*
X0506769Y0220721D01*
X0496139Y0220721D01*
X0496139Y0224461D01*
X0506769Y0224461D01*
X0506769Y0233320D01*
X0496139Y0233320D01*
X0496139Y0224461D01*
X0471335Y0224461D02*
X0471335Y0220721D01*
X0460706Y0220721D01*
X0460706Y0224461D01*
X0471335Y0224461D01*
X0471335Y0233320D01*
X0460706Y0233320D01*
X0460706Y0224461D01*
X0435902Y0224461D02*
X0435902Y0220721D01*
X0425272Y0220721D01*
X0425272Y0224461D01*
X0435902Y0224461D01*
X0435902Y0233320D01*
X0425272Y0233320D01*
X0425272Y0224461D01*
X0400469Y0224461D02*
X0400469Y0220721D01*
X0389839Y0220721D01*
X0389839Y0224461D01*
X0400469Y0224461D01*
X0400469Y0233320D01*
X0389839Y0233320D01*
X0389839Y0224461D01*
X0365036Y0224461D02*
X0365036Y0220721D01*
X0354406Y0220721D01*
X0354406Y0224461D01*
X0365036Y0224461D01*
X0365036Y0233320D01*
X0354406Y0233320D01*
X0354406Y0224461D01*
X0329603Y0224461D02*
X0329603Y0220721D01*
X0318973Y0220721D01*
X0318973Y0224461D01*
X0329603Y0224461D01*
X0329603Y0233320D01*
X0318973Y0233320D01*
X0318973Y0224461D01*
X0294170Y0224461D02*
X0294170Y0220721D01*
X0283540Y0220721D01*
X0283540Y0224461D01*
X0294170Y0224461D01*
X0294170Y0233320D01*
X0283540Y0233320D01*
X0283540Y0224461D01*
X0258737Y0224461D02*
X0258737Y0220721D01*
X0248107Y0220721D01*
X0248107Y0224461D01*
X0258737Y0224461D01*
X0258737Y0233320D01*
X0248107Y0233320D01*
X0248107Y0224461D01*
X0223304Y0224461D02*
X0223304Y0220721D01*
X0212674Y0220721D01*
X0212674Y0224461D01*
X0223304Y0224461D01*
X0223304Y0233320D01*
X0212674Y0233320D01*
X0212674Y0224461D01*
X0187871Y0224461D02*
X0187871Y0220721D01*
X0177241Y0220721D01*
X0177241Y0224461D01*
X0187871Y0224461D01*
X0187871Y0233320D01*
X0177241Y0233320D01*
X0177241Y0224461D01*
X0152438Y0224461D02*
X0152438Y0220721D01*
X0141808Y0220721D01*
X0141808Y0224461D01*
X0152438Y0224461D01*
X0152438Y0233320D01*
X0141808Y0233320D01*
X0141808Y0224461D01*
X0141808Y0197887D02*
X0141808Y0189028D01*
X0152438Y0189028D01*
X0152438Y0197887D01*
X0141808Y0197887D01*
X0141808Y0189028D02*
X0141808Y0185288D01*
X0152438Y0185288D01*
X0152438Y0189028D01*
X0177241Y0189028D02*
X0177241Y0185288D01*
X0187871Y0185288D01*
X0187871Y0189028D01*
X0177241Y0189028D01*
X0177241Y0197887D01*
X0187871Y0197887D01*
X0187871Y0189028D01*
X0212674Y0189028D02*
X0212674Y0185288D01*
X0223304Y0185288D01*
X0223304Y0189028D01*
X0212674Y0189028D01*
X0212674Y0197887D01*
X0223304Y0197887D01*
X0223304Y0189028D01*
X0248107Y0189028D02*
X0248107Y0185288D01*
X0258737Y0185288D01*
X0258737Y0189028D01*
X0248107Y0189028D01*
X0248107Y0197887D01*
X0258737Y0197887D01*
X0258737Y0189028D01*
X0283540Y0189028D02*
X0283540Y0185288D01*
X0294170Y0185288D01*
X0294170Y0189028D01*
X0283540Y0189028D01*
X0283540Y0197887D01*
X0294170Y0197887D01*
X0294170Y0189028D01*
X0318973Y0189028D02*
X0318973Y0185288D01*
X0329603Y0185288D01*
X0329603Y0189028D01*
X0318973Y0189028D01*
X0318973Y0197887D01*
X0329603Y0197887D01*
X0329603Y0189028D01*
X0354406Y0189028D02*
X0354406Y0185288D01*
X0365036Y0185288D01*
X0365036Y0189028D01*
X0354406Y0189028D01*
X0354406Y0197887D01*
X0365036Y0197887D01*
X0365036Y0189028D01*
X0389839Y0189028D02*
X0389839Y0185288D01*
X0400469Y0185288D01*
X0400469Y0189028D01*
X0389839Y0189028D01*
X0389839Y0197887D01*
X0400469Y0197887D01*
X0400469Y0189028D01*
X0425272Y0189028D02*
X0425272Y0185288D01*
X0435902Y0185288D01*
X0435902Y0189028D01*
X0425272Y0189028D01*
X0425272Y0197887D01*
X0435902Y0197887D01*
X0435902Y0189028D01*
X0460706Y0189028D02*
X0460706Y0185288D01*
X0471335Y0185288D01*
X0471335Y0189028D01*
X0460706Y0189028D01*
X0460706Y0197887D01*
X0471335Y0197887D01*
X0471335Y0189028D01*
X0496139Y0189028D02*
X0496139Y0185288D01*
X0506769Y0185288D01*
X0506769Y0189028D01*
X0496139Y0189028D01*
X0496139Y0197887D01*
X0506769Y0197887D01*
X0506769Y0189028D01*
X0531572Y0189028D02*
X0531572Y0185288D01*
X0542202Y0185288D01*
X0542202Y0189028D01*
X0531572Y0189028D01*
X0531572Y0197887D01*
X0542202Y0197887D01*
X0542202Y0189028D01*
X0542202Y0162454D02*
X0531572Y0162454D01*
X0531572Y0153595D01*
X0542202Y0153595D01*
X0542202Y0162454D01*
X0542202Y0153595D02*
X0542202Y0149855D01*
X0531572Y0149855D01*
X0531572Y0153595D01*
X0506769Y0153595D02*
X0506769Y0149855D01*
X0496139Y0149855D01*
X0496139Y0153595D01*
X0506769Y0153595D01*
X0506769Y0162454D01*
X0496139Y0162454D01*
X0496139Y0153595D01*
X0471335Y0153595D02*
X0471335Y0149855D01*
X0460706Y0149855D01*
X0460706Y0153595D01*
X0471335Y0153595D01*
X0471335Y0162454D01*
X0460706Y0162454D01*
X0460706Y0153595D01*
X0435902Y0153595D02*
X0435902Y0149855D01*
X0425272Y0149855D01*
X0425272Y0153595D01*
X0435902Y0153595D01*
X0435902Y0162454D01*
X0425272Y0162454D01*
X0425272Y0153595D01*
X0400469Y0153595D02*
X0400469Y0149855D01*
X0389839Y0149855D01*
X0389839Y0153595D01*
X0400469Y0153595D01*
X0400469Y0162454D01*
X0389839Y0162454D01*
X0389839Y0153595D01*
X0365036Y0153595D02*
X0365036Y0149855D01*
X0354406Y0149855D01*
X0354406Y0153595D01*
X0365036Y0153595D01*
X0365036Y0162454D01*
X0354406Y0162454D01*
X0354406Y0153595D01*
X0329603Y0153595D02*
X0329603Y0149855D01*
X0318973Y0149855D01*
X0318973Y0153595D01*
X0329603Y0153595D01*
X0329603Y0162454D01*
X0318973Y0162454D01*
X0318973Y0153595D01*
X0294170Y0153595D02*
X0294170Y0149855D01*
X0283540Y0149855D01*
X0283540Y0153595D01*
X0294170Y0153595D01*
X0294170Y0162454D01*
X0283540Y0162454D01*
X0283540Y0153595D01*
X0258737Y0153595D02*
X0258737Y0149855D01*
X0248107Y0149855D01*
X0248107Y0153595D01*
X0258737Y0153595D01*
X0258737Y0162454D01*
X0248107Y0162454D01*
X0248107Y0153595D01*
X0223304Y0153595D02*
X0223304Y0149855D01*
X0212674Y0149855D01*
X0212674Y0153595D01*
X0223304Y0153595D01*
X0223304Y0162454D01*
X0212674Y0162454D01*
X0212674Y0153595D01*
X0187871Y0153595D02*
X0187871Y0149855D01*
X0177241Y0149855D01*
X0177241Y0153595D01*
X0187871Y0153595D01*
X0187871Y0162454D01*
X0177241Y0162454D01*
X0177241Y0153595D01*
X0152438Y0153595D02*
X0152438Y0149855D01*
X0141808Y0149855D01*
X0141808Y0153595D01*
X0152438Y0153595D01*
X0152438Y0162454D01*
X0141808Y0162454D01*
X0141808Y0153595D01*
X0141808Y0127020D02*
X0141808Y0118162D01*
X0152438Y0118162D01*
X0152438Y0127020D01*
X0141808Y0127020D01*
X0141808Y0118162D02*
X0141808Y0114422D01*
X0152438Y0114422D01*
X0152438Y0118162D01*
X0177241Y0118162D02*
X0187871Y0118162D01*
X0187871Y0127020D01*
X0177241Y0127020D01*
X0177241Y0118162D01*
X0177241Y0114422D01*
X0187871Y0114422D01*
X0187871Y0118162D01*
X0212674Y0118162D02*
X0223304Y0118162D01*
X0223304Y0127020D01*
X0212674Y0127020D01*
X0212674Y0118162D01*
X0212674Y0114422D01*
X0223304Y0114422D01*
X0223304Y0118162D01*
X0248107Y0118162D02*
X0258737Y0118162D01*
X0258737Y0127020D01*
X0248107Y0127020D01*
X0248107Y0118162D01*
X0248107Y0114422D01*
X0258737Y0114422D01*
X0258737Y0118162D01*
X0283540Y0118162D02*
X0294170Y0118162D01*
X0294170Y0127020D01*
X0283540Y0127020D01*
X0283540Y0118162D01*
X0283540Y0114422D01*
X0294170Y0114422D01*
X0294170Y0118162D01*
X0318973Y0118162D02*
X0329603Y0118162D01*
X0329603Y0127020D01*
X0318973Y0127020D01*
X0318973Y0118162D01*
X0318973Y0114422D01*
X0329603Y0114422D01*
X0329603Y0118162D01*
X0354406Y0118162D02*
X0365036Y0118162D01*
X0365036Y0127020D01*
X0354406Y0127020D01*
X0354406Y0118162D01*
X0354406Y0114422D01*
X0365036Y0114422D01*
X0365036Y0118162D01*
X0389839Y0118162D02*
X0400469Y0118162D01*
X0400469Y0127020D01*
X0389839Y0127020D01*
X0389839Y0118162D01*
X0389839Y0114422D01*
X0400469Y0114422D01*
X0400469Y0118162D01*
X0425272Y0118162D02*
X0435902Y0118162D01*
X0435902Y0127020D01*
X0425272Y0127020D01*
X0425272Y0118162D01*
X0425272Y0114422D01*
X0435902Y0114422D01*
X0435902Y0118162D01*
X0460706Y0118162D02*
X0471335Y0118162D01*
X0471335Y0127020D01*
X0460706Y0127020D01*
X0460706Y0118162D01*
X0460706Y0114422D01*
X0471335Y0114422D01*
X0471335Y0118162D01*
X0496139Y0118162D02*
X0506769Y0118162D01*
X0506769Y0127020D01*
X0496139Y0127020D01*
X0496139Y0118162D01*
X0496139Y0114422D01*
X0506769Y0114422D01*
X0506769Y0118162D01*
X0531572Y0118162D02*
X0542202Y0118162D01*
X0542202Y0127020D01*
X0531572Y0127020D01*
X0531572Y0118162D01*
X0531572Y0114422D01*
X0542202Y0114422D01*
X0542202Y0118162D01*
X0585194Y0282769D02*
X0602123Y0282769D01*
X0602123Y0319776D01*
X0585194Y0319776D01*
X0585194Y0330013D02*
X0602123Y0330013D01*
X0602123Y0367020D01*
X0585194Y0367020D01*
X0542202Y0366194D02*
X0542202Y0362454D01*
X0531572Y0362454D01*
X0531572Y0366194D01*
X0542202Y0366194D01*
X0542202Y0375052D01*
X0531572Y0375052D01*
X0531572Y0366194D01*
X0506769Y0366194D02*
X0506769Y0362454D01*
X0496139Y0362454D01*
X0496139Y0366194D01*
X0506769Y0366194D01*
X0506769Y0375052D01*
X0496139Y0375052D01*
X0496139Y0366194D01*
X0471335Y0366194D02*
X0471335Y0362454D01*
X0460706Y0362454D01*
X0460706Y0366194D01*
X0471335Y0366194D01*
X0471335Y0375052D01*
X0460706Y0375052D01*
X0460706Y0366194D01*
X0435902Y0366194D02*
X0435902Y0362454D01*
X0425272Y0362454D01*
X0425272Y0366194D01*
X0435902Y0366194D01*
X0435902Y0375052D01*
X0425272Y0375052D01*
X0425272Y0366194D01*
X0400469Y0366194D02*
X0400469Y0362454D01*
X0389839Y0362454D01*
X0389839Y0366194D01*
X0400469Y0366194D01*
X0400469Y0375052D01*
X0389839Y0375052D01*
X0389839Y0366194D01*
X0365036Y0366194D02*
X0365036Y0362454D01*
X0354406Y0362454D01*
X0354406Y0366194D01*
X0365036Y0366194D01*
X0365036Y0375052D01*
X0354406Y0375052D01*
X0354406Y0366194D01*
X0329603Y0366194D02*
X0329603Y0362454D01*
X0318973Y0362454D01*
X0318973Y0366194D01*
X0329603Y0366194D01*
X0329603Y0375052D01*
X0318973Y0375052D01*
X0318973Y0366194D01*
D12*
X0157004Y0114807D02*
X0157004Y0112506D01*
X0161608Y0112506D01*
X0160073Y0112506D02*
X0160073Y0114807D01*
X0159306Y0115575D01*
X0157771Y0115575D01*
X0157004Y0114807D01*
X0157004Y0117109D02*
X0161608Y0117109D01*
X0159306Y0117109D02*
X0159306Y0120179D01*
X0157004Y0120179D02*
X0161608Y0120179D01*
X0161608Y0121713D02*
X0161608Y0124015D01*
X0160841Y0124783D01*
X0157771Y0124783D01*
X0157004Y0124015D01*
X0157004Y0121713D01*
X0161608Y0121713D01*
X0160841Y0126317D02*
X0160073Y0126317D01*
X0159306Y0127085D01*
X0159306Y0128619D01*
X0160073Y0129387D01*
X0160841Y0129387D01*
X0161608Y0128619D01*
X0161608Y0127085D01*
X0160841Y0126317D01*
X0159306Y0127085D02*
X0158539Y0126317D01*
X0157771Y0126317D01*
X0157004Y0127085D01*
X0157004Y0128619D01*
X0157771Y0129387D01*
X0158539Y0129387D01*
X0159306Y0128619D01*
X0160073Y0147939D02*
X0160073Y0150241D01*
X0159306Y0151008D01*
X0157771Y0151008D01*
X0157004Y0150241D01*
X0157004Y0147939D01*
X0161608Y0147939D01*
X0161608Y0152543D02*
X0157004Y0152543D01*
X0159306Y0152543D02*
X0159306Y0155612D01*
X0157004Y0155612D02*
X0161608Y0155612D01*
X0161608Y0157146D02*
X0161608Y0159448D01*
X0160841Y0160216D01*
X0157771Y0160216D01*
X0157004Y0159448D01*
X0157004Y0157146D01*
X0161608Y0157146D01*
X0161608Y0161750D02*
X0160841Y0161750D01*
X0157771Y0164820D01*
X0157004Y0164820D01*
X0157004Y0161750D01*
X0157004Y0183372D02*
X0157004Y0185674D01*
X0157771Y0186441D01*
X0159306Y0186441D01*
X0160073Y0185674D01*
X0160073Y0183372D01*
X0161608Y0183372D02*
X0157004Y0183372D01*
X0157004Y0187976D02*
X0161608Y0187976D01*
X0159306Y0187976D02*
X0159306Y0191045D01*
X0157004Y0191045D02*
X0161608Y0191045D01*
X0161608Y0192580D02*
X0157004Y0192580D01*
X0157004Y0194881D01*
X0157771Y0195649D01*
X0160841Y0195649D01*
X0161608Y0194881D01*
X0161608Y0192580D01*
X0160841Y0197183D02*
X0161608Y0197951D01*
X0161608Y0199485D01*
X0160841Y0200253D01*
X0160073Y0200253D01*
X0159306Y0199485D01*
X0159306Y0197183D01*
X0160841Y0197183D01*
X0159306Y0197183D02*
X0157771Y0198718D01*
X0157004Y0200253D01*
X0157004Y0218805D02*
X0157004Y0221107D01*
X0157771Y0221874D01*
X0159306Y0221874D01*
X0160073Y0221107D01*
X0160073Y0218805D01*
X0161608Y0218805D02*
X0157004Y0218805D01*
X0157004Y0223409D02*
X0161608Y0223409D01*
X0159306Y0223409D02*
X0159306Y0226478D01*
X0157004Y0226478D02*
X0161608Y0226478D01*
X0161608Y0228013D02*
X0161608Y0230315D01*
X0160841Y0231082D01*
X0157771Y0231082D01*
X0157004Y0230315D01*
X0157004Y0228013D01*
X0161608Y0228013D01*
X0160841Y0232617D02*
X0161608Y0233384D01*
X0161608Y0234918D01*
X0160841Y0235686D01*
X0159306Y0235686D01*
X0158539Y0234918D01*
X0158539Y0234151D01*
X0159306Y0232617D01*
X0157004Y0232617D01*
X0157004Y0235686D01*
X0157004Y0254238D02*
X0157004Y0256540D01*
X0157771Y0257307D01*
X0159306Y0257307D01*
X0160073Y0256540D01*
X0160073Y0254238D01*
X0161608Y0254238D02*
X0157004Y0254238D01*
X0157004Y0258842D02*
X0161608Y0258842D01*
X0159306Y0258842D02*
X0159306Y0261911D01*
X0157004Y0261911D02*
X0161608Y0261911D01*
X0161608Y0263446D02*
X0161608Y0265748D01*
X0160841Y0266515D01*
X0157771Y0266515D01*
X0157004Y0265748D01*
X0157004Y0263446D01*
X0161608Y0263446D01*
X0159306Y0268050D02*
X0159306Y0271119D01*
X0161608Y0270352D02*
X0157004Y0270352D01*
X0159306Y0268050D01*
X0160073Y0289671D02*
X0160073Y0291973D01*
X0159306Y0292740D01*
X0157771Y0292740D01*
X0157004Y0291973D01*
X0157004Y0289671D01*
X0161608Y0289671D01*
X0161608Y0294275D02*
X0157004Y0294275D01*
X0159306Y0294275D02*
X0159306Y0297344D01*
X0157004Y0297344D02*
X0161608Y0297344D01*
X0161608Y0298879D02*
X0161608Y0301181D01*
X0160841Y0301948D01*
X0157771Y0301948D01*
X0157004Y0301181D01*
X0157004Y0298879D01*
X0161608Y0298879D01*
X0160841Y0303483D02*
X0161608Y0304250D01*
X0161608Y0305785D01*
X0160841Y0306552D01*
X0160073Y0306552D01*
X0159306Y0305785D01*
X0159306Y0305017D01*
X0159306Y0305785D02*
X0158539Y0306552D01*
X0157771Y0306552D01*
X0157004Y0305785D01*
X0157004Y0304250D01*
X0157771Y0303483D01*
X0157004Y0325104D02*
X0157004Y0327406D01*
X0157771Y0328173D01*
X0159306Y0328173D01*
X0160073Y0327406D01*
X0160073Y0325104D01*
X0161608Y0325104D02*
X0157004Y0325104D01*
X0157004Y0329708D02*
X0161608Y0329708D01*
X0159306Y0329708D02*
X0159306Y0332777D01*
X0157004Y0332777D02*
X0161608Y0332777D01*
X0161608Y0334312D02*
X0157004Y0334312D01*
X0157004Y0336614D01*
X0157771Y0337381D01*
X0160841Y0337381D01*
X0161608Y0336614D01*
X0161608Y0334312D01*
X0161608Y0338916D02*
X0158539Y0341985D01*
X0157771Y0341985D01*
X0157004Y0341218D01*
X0157004Y0339683D01*
X0157771Y0338916D01*
X0161608Y0338916D02*
X0161608Y0341985D01*
X0161608Y0360537D02*
X0157004Y0360537D01*
X0157004Y0362839D01*
X0157771Y0363606D01*
X0159306Y0363606D01*
X0160073Y0362839D01*
X0160073Y0360537D01*
X0159306Y0365141D02*
X0159306Y0368210D01*
X0157004Y0368210D02*
X0161608Y0368210D01*
X0161608Y0369745D02*
X0157004Y0369745D01*
X0157004Y0372047D01*
X0157771Y0372814D01*
X0160841Y0372814D01*
X0161608Y0372047D01*
X0161608Y0369745D01*
X0161608Y0374349D02*
X0161608Y0377418D01*
X0161608Y0375883D02*
X0157004Y0375883D01*
X0158539Y0374349D01*
X0157004Y0365141D02*
X0161608Y0365141D01*
X0192437Y0365141D02*
X0197041Y0365141D01*
X0194739Y0365141D02*
X0194739Y0368210D01*
X0192437Y0368210D02*
X0197041Y0368210D01*
X0197041Y0369745D02*
X0192437Y0369745D01*
X0192437Y0372047D01*
X0193204Y0372814D01*
X0196274Y0372814D01*
X0197041Y0372047D01*
X0197041Y0369745D01*
X0196274Y0374349D02*
X0197041Y0375116D01*
X0197041Y0376651D01*
X0196274Y0377418D01*
X0193204Y0377418D01*
X0192437Y0376651D01*
X0192437Y0375116D01*
X0193204Y0374349D01*
X0193972Y0374349D01*
X0194739Y0375116D01*
X0194739Y0377418D01*
X0194739Y0363606D02*
X0195506Y0362839D01*
X0195506Y0360537D01*
X0197041Y0360537D02*
X0192437Y0360537D01*
X0192437Y0362839D01*
X0193204Y0363606D01*
X0194739Y0363606D01*
X0193204Y0341985D02*
X0196274Y0338916D01*
X0197041Y0339683D01*
X0197041Y0341218D01*
X0196274Y0341985D01*
X0193204Y0341985D01*
X0192437Y0341218D01*
X0192437Y0339683D01*
X0193204Y0338916D01*
X0196274Y0338916D01*
X0197041Y0337381D02*
X0197041Y0334312D01*
X0197041Y0335846D02*
X0192437Y0335846D01*
X0193972Y0334312D01*
X0193204Y0332777D02*
X0192437Y0332010D01*
X0192437Y0329708D01*
X0197041Y0329708D01*
X0197041Y0332010D01*
X0196274Y0332777D01*
X0193204Y0332777D01*
X0192437Y0328173D02*
X0197041Y0328173D01*
X0194739Y0328173D02*
X0194739Y0325104D01*
X0194739Y0323569D02*
X0195506Y0322802D01*
X0195506Y0320500D01*
X0197041Y0320500D02*
X0192437Y0320500D01*
X0192437Y0322802D01*
X0193204Y0323569D01*
X0194739Y0323569D01*
X0197041Y0325104D02*
X0192437Y0325104D01*
X0197041Y0306552D02*
X0197041Y0303483D01*
X0197041Y0305017D02*
X0192437Y0305017D01*
X0193972Y0303483D01*
X0197041Y0301948D02*
X0197041Y0298879D01*
X0197041Y0300413D02*
X0192437Y0300413D01*
X0193972Y0298879D01*
X0193204Y0297344D02*
X0192437Y0296577D01*
X0192437Y0294275D01*
X0197041Y0294275D01*
X0197041Y0296577D01*
X0196274Y0297344D01*
X0193204Y0297344D01*
X0192437Y0292740D02*
X0197041Y0292740D01*
X0194739Y0292740D02*
X0194739Y0289671D01*
X0194739Y0288136D02*
X0195506Y0287369D01*
X0195506Y0285067D01*
X0197041Y0285067D02*
X0192437Y0285067D01*
X0192437Y0287369D01*
X0193204Y0288136D01*
X0194739Y0288136D01*
X0197041Y0289671D02*
X0192437Y0289671D01*
X0193204Y0271119D02*
X0192437Y0270352D01*
X0192437Y0268817D01*
X0193204Y0268050D01*
X0193204Y0271119D02*
X0193972Y0271119D01*
X0197041Y0268050D01*
X0197041Y0271119D01*
X0197041Y0266515D02*
X0197041Y0263446D01*
X0197041Y0264980D02*
X0192437Y0264980D01*
X0193972Y0263446D01*
X0193204Y0261911D02*
X0192437Y0261144D01*
X0192437Y0258842D01*
X0197041Y0258842D01*
X0197041Y0261144D01*
X0196274Y0261911D01*
X0193204Y0261911D01*
X0192437Y0257307D02*
X0197041Y0257307D01*
X0194739Y0257307D02*
X0194739Y0254238D01*
X0194739Y0252703D02*
X0195506Y0251936D01*
X0195506Y0249634D01*
X0197041Y0249634D02*
X0192437Y0249634D01*
X0192437Y0251936D01*
X0193204Y0252703D01*
X0194739Y0252703D01*
X0197041Y0254238D02*
X0192437Y0254238D01*
X0193204Y0235686D02*
X0193972Y0235686D01*
X0194739Y0234918D01*
X0195506Y0235686D01*
X0196274Y0235686D01*
X0197041Y0234918D01*
X0197041Y0233384D01*
X0196274Y0232616D01*
X0197041Y0231082D02*
X0197041Y0228013D01*
X0197041Y0229547D02*
X0192437Y0229547D01*
X0193972Y0228013D01*
X0193204Y0226478D02*
X0192437Y0225711D01*
X0192437Y0223409D01*
X0197041Y0223409D01*
X0197041Y0225711D01*
X0196274Y0226478D01*
X0193204Y0226478D01*
X0192437Y0221874D02*
X0197041Y0221874D01*
X0194739Y0221874D02*
X0194739Y0218805D01*
X0194739Y0217270D02*
X0195506Y0216503D01*
X0195506Y0214201D01*
X0197041Y0214201D02*
X0192437Y0214201D01*
X0192437Y0216503D01*
X0193204Y0217270D01*
X0194739Y0217270D01*
X0197041Y0218805D02*
X0192437Y0218805D01*
X0193204Y0232616D02*
X0192437Y0233384D01*
X0192437Y0234918D01*
X0193204Y0235686D01*
X0194739Y0234918D02*
X0194739Y0234151D01*
X0227870Y0234151D02*
X0229405Y0232616D01*
X0229405Y0231082D02*
X0228637Y0231082D01*
X0227870Y0230315D01*
X0227870Y0228780D01*
X0228637Y0228013D01*
X0228637Y0226478D02*
X0227870Y0225711D01*
X0227870Y0223409D01*
X0232474Y0223409D01*
X0232474Y0225711D01*
X0231707Y0226478D01*
X0228637Y0226478D01*
X0232474Y0228013D02*
X0229405Y0231082D01*
X0232474Y0231082D02*
X0232474Y0228013D01*
X0232474Y0232616D02*
X0232474Y0235686D01*
X0232474Y0234151D02*
X0227870Y0234151D01*
X0227870Y0221874D02*
X0232474Y0221874D01*
X0230172Y0221874D02*
X0230172Y0218805D01*
X0230172Y0217270D02*
X0230939Y0216503D01*
X0230939Y0214201D01*
X0232474Y0214201D02*
X0227870Y0214201D01*
X0227870Y0216503D01*
X0228637Y0217270D01*
X0230172Y0217270D01*
X0232474Y0218805D02*
X0227870Y0218805D01*
X0228637Y0200253D02*
X0227870Y0199485D01*
X0227870Y0197951D01*
X0228637Y0197183D01*
X0228637Y0195649D02*
X0227870Y0194881D01*
X0227870Y0193347D01*
X0228637Y0192580D01*
X0228637Y0191045D02*
X0227870Y0190278D01*
X0227870Y0187976D01*
X0232474Y0187976D01*
X0232474Y0190278D01*
X0231707Y0191045D01*
X0228637Y0191045D01*
X0232474Y0192580D02*
X0229405Y0195649D01*
X0228637Y0195649D01*
X0232474Y0195649D02*
X0232474Y0192580D01*
X0232474Y0197183D02*
X0229405Y0200253D01*
X0228637Y0200253D01*
X0232474Y0200253D02*
X0232474Y0197183D01*
X0232474Y0186441D02*
X0227870Y0186441D01*
X0230172Y0186441D02*
X0230172Y0183372D01*
X0230172Y0181837D02*
X0230939Y0181070D01*
X0230939Y0178768D01*
X0232474Y0178768D02*
X0227870Y0178768D01*
X0227870Y0181070D01*
X0228637Y0181837D01*
X0230172Y0181837D01*
X0232474Y0183372D02*
X0227870Y0183372D01*
X0228637Y0164820D02*
X0229405Y0164820D01*
X0230172Y0164052D01*
X0230939Y0164820D01*
X0231707Y0164820D01*
X0232474Y0164052D01*
X0232474Y0162518D01*
X0231707Y0161750D01*
X0232474Y0160216D02*
X0232474Y0157146D01*
X0229405Y0160216D01*
X0228637Y0160216D01*
X0227870Y0159448D01*
X0227870Y0157914D01*
X0228637Y0157146D01*
X0228637Y0155612D02*
X0227870Y0154844D01*
X0227870Y0152543D01*
X0232474Y0152543D01*
X0232474Y0154844D01*
X0231707Y0155612D01*
X0228637Y0155612D01*
X0227870Y0151008D02*
X0232474Y0151008D01*
X0230172Y0151008D02*
X0230172Y0147939D01*
X0230172Y0146404D02*
X0230939Y0145637D01*
X0230939Y0143335D01*
X0232474Y0143335D02*
X0227870Y0143335D01*
X0227870Y0145637D01*
X0228637Y0146404D01*
X0230172Y0146404D01*
X0232474Y0147939D02*
X0227870Y0147939D01*
X0228637Y0161750D02*
X0227870Y0162518D01*
X0227870Y0164052D01*
X0228637Y0164820D01*
X0230172Y0164052D02*
X0230172Y0163285D01*
X0197041Y0162518D02*
X0196274Y0161750D01*
X0197041Y0162518D02*
X0197041Y0164052D01*
X0196274Y0164820D01*
X0194739Y0164820D01*
X0193972Y0164052D01*
X0193972Y0163285D01*
X0194739Y0161750D01*
X0192437Y0161750D01*
X0192437Y0164820D01*
X0197041Y0160216D02*
X0197041Y0157146D01*
X0197041Y0158681D02*
X0192437Y0158681D01*
X0193972Y0157146D01*
X0193204Y0155612D02*
X0192437Y0154844D01*
X0192437Y0152543D01*
X0197041Y0152543D01*
X0197041Y0154844D01*
X0196274Y0155612D01*
X0193204Y0155612D01*
X0192437Y0151008D02*
X0197041Y0151008D01*
X0194739Y0151008D02*
X0194739Y0147939D01*
X0194739Y0146404D02*
X0195506Y0145637D01*
X0195506Y0143335D01*
X0197041Y0143335D02*
X0192437Y0143335D01*
X0192437Y0145637D01*
X0193204Y0146404D01*
X0194739Y0146404D01*
X0197041Y0147939D02*
X0192437Y0147939D01*
X0192437Y0129387D02*
X0193204Y0127852D01*
X0194739Y0126317D01*
X0194739Y0128619D01*
X0195506Y0129387D01*
X0196274Y0129387D01*
X0197041Y0128619D01*
X0197041Y0127085D01*
X0196274Y0126317D01*
X0194739Y0126317D01*
X0197041Y0124783D02*
X0197041Y0121713D01*
X0197041Y0123248D02*
X0192437Y0123248D01*
X0193972Y0121713D01*
X0193204Y0120179D02*
X0192437Y0119411D01*
X0192437Y0117109D01*
X0197041Y0117109D01*
X0197041Y0119411D01*
X0196274Y0120179D01*
X0193204Y0120179D01*
X0192437Y0115575D02*
X0197041Y0115575D01*
X0194739Y0115575D02*
X0194739Y0112506D01*
X0194739Y0110971D02*
X0195506Y0110204D01*
X0195506Y0107902D01*
X0197041Y0107902D02*
X0192437Y0107902D01*
X0192437Y0110204D01*
X0193204Y0110971D01*
X0194739Y0110971D01*
X0197041Y0112506D02*
X0192437Y0112506D01*
X0227870Y0112506D02*
X0232474Y0112506D01*
X0230172Y0112506D02*
X0230172Y0115575D01*
X0227870Y0115575D02*
X0232474Y0115575D01*
X0232474Y0117109D02*
X0232474Y0119411D01*
X0231707Y0120179D01*
X0228637Y0120179D01*
X0227870Y0119411D01*
X0227870Y0117109D01*
X0232474Y0117109D01*
X0232474Y0121713D02*
X0229405Y0124783D01*
X0228637Y0124783D01*
X0227870Y0124015D01*
X0227870Y0122481D01*
X0228637Y0121713D01*
X0232474Y0121713D02*
X0232474Y0124783D01*
X0230172Y0126317D02*
X0230172Y0129387D01*
X0227870Y0128619D02*
X0230172Y0126317D01*
X0232474Y0128619D02*
X0227870Y0128619D01*
X0228637Y0110971D02*
X0230172Y0110971D01*
X0230939Y0110204D01*
X0230939Y0107902D01*
X0232474Y0107902D02*
X0227870Y0107902D01*
X0227870Y0110204D01*
X0228637Y0110971D01*
X0263303Y0110204D02*
X0263303Y0107902D01*
X0267907Y0107902D01*
X0266372Y0107902D02*
X0266372Y0110204D01*
X0265605Y0110971D01*
X0264070Y0110971D01*
X0263303Y0110204D01*
X0263303Y0112506D02*
X0267907Y0112506D01*
X0265605Y0112506D02*
X0265605Y0115575D01*
X0263303Y0115575D02*
X0267907Y0115575D01*
X0267907Y0117109D02*
X0267907Y0119411D01*
X0267140Y0120179D01*
X0264070Y0120179D01*
X0263303Y0119411D01*
X0263303Y0117109D01*
X0267907Y0117109D01*
X0267140Y0121713D02*
X0267907Y0122481D01*
X0267907Y0124015D01*
X0267140Y0124783D01*
X0266372Y0124783D01*
X0265605Y0124015D01*
X0265605Y0123248D01*
X0265605Y0124015D02*
X0264838Y0124783D01*
X0264070Y0124783D01*
X0263303Y0124015D01*
X0263303Y0122481D01*
X0264070Y0121713D01*
X0264070Y0126317D02*
X0263303Y0127085D01*
X0263303Y0128619D01*
X0264070Y0129387D01*
X0264838Y0129387D01*
X0267907Y0126317D01*
X0267907Y0129387D01*
X0267907Y0143335D02*
X0263303Y0143335D01*
X0263303Y0145637D01*
X0264070Y0146404D01*
X0265605Y0146404D01*
X0266372Y0145637D01*
X0266372Y0143335D01*
X0265605Y0147939D02*
X0265605Y0151008D01*
X0263303Y0151008D02*
X0267907Y0151008D01*
X0267907Y0152543D02*
X0267907Y0154844D01*
X0267140Y0155612D01*
X0264070Y0155612D01*
X0263303Y0154844D01*
X0263303Y0152543D01*
X0267907Y0152543D01*
X0267907Y0147939D02*
X0263303Y0147939D01*
X0264070Y0157146D02*
X0263303Y0157914D01*
X0263303Y0159448D01*
X0264070Y0160216D01*
X0264838Y0160216D01*
X0265605Y0159448D01*
X0266372Y0160216D01*
X0267140Y0160216D01*
X0267907Y0159448D01*
X0267907Y0157914D01*
X0267140Y0157146D01*
X0265605Y0158681D02*
X0265605Y0159448D01*
X0264838Y0161750D02*
X0263303Y0163285D01*
X0267907Y0163285D01*
X0267907Y0161750D02*
X0267907Y0164820D01*
X0267907Y0178768D02*
X0263303Y0178768D01*
X0263303Y0181070D01*
X0264070Y0181837D01*
X0265605Y0181837D01*
X0266372Y0181070D01*
X0266372Y0178768D01*
X0265605Y0183372D02*
X0265605Y0186441D01*
X0263303Y0186441D02*
X0267907Y0186441D01*
X0267907Y0187976D02*
X0263303Y0187976D01*
X0263303Y0190278D01*
X0264070Y0191045D01*
X0267140Y0191045D01*
X0267907Y0190278D01*
X0267907Y0187976D01*
X0267907Y0183372D02*
X0263303Y0183372D01*
X0264070Y0192580D02*
X0263303Y0193347D01*
X0263303Y0194881D01*
X0264070Y0195649D01*
X0264838Y0195649D01*
X0265605Y0194881D01*
X0266372Y0195649D01*
X0267140Y0195649D01*
X0267907Y0194881D01*
X0267907Y0193347D01*
X0267140Y0192580D01*
X0265605Y0194114D02*
X0265605Y0194881D01*
X0264070Y0197183D02*
X0263303Y0197951D01*
X0263303Y0199485D01*
X0264070Y0200253D01*
X0267140Y0197183D01*
X0267907Y0197951D01*
X0267907Y0199485D01*
X0267140Y0200253D01*
X0264070Y0200253D01*
X0264070Y0197183D02*
X0267140Y0197183D01*
X0267907Y0214201D02*
X0263303Y0214201D01*
X0263303Y0216503D01*
X0264070Y0217270D01*
X0265605Y0217270D01*
X0266372Y0216503D01*
X0266372Y0214201D01*
X0265605Y0218805D02*
X0265605Y0221874D01*
X0263303Y0221874D02*
X0267907Y0221874D01*
X0267907Y0223409D02*
X0267907Y0225711D01*
X0267140Y0226478D01*
X0264070Y0226478D01*
X0263303Y0225711D01*
X0263303Y0223409D01*
X0267907Y0223409D01*
X0267907Y0228013D02*
X0264838Y0231082D01*
X0264070Y0231082D01*
X0263303Y0230315D01*
X0263303Y0228780D01*
X0264070Y0228013D01*
X0267907Y0228013D02*
X0267907Y0231082D01*
X0267140Y0232616D02*
X0267907Y0233384D01*
X0267907Y0234918D01*
X0267140Y0235686D01*
X0264070Y0235686D01*
X0263303Y0234918D01*
X0263303Y0233384D01*
X0264070Y0232616D01*
X0264838Y0232616D01*
X0265605Y0233384D01*
X0265605Y0235686D01*
X0266372Y0249634D02*
X0266372Y0251936D01*
X0265605Y0252703D01*
X0264070Y0252703D01*
X0263303Y0251936D01*
X0263303Y0249634D01*
X0267907Y0249634D01*
X0267907Y0254238D02*
X0263303Y0254238D01*
X0265605Y0254238D02*
X0265605Y0257307D01*
X0263303Y0257307D02*
X0267907Y0257307D01*
X0267907Y0258842D02*
X0267907Y0261144D01*
X0267140Y0261911D01*
X0264070Y0261911D01*
X0263303Y0261144D01*
X0263303Y0258842D01*
X0267907Y0258842D01*
X0267907Y0263446D02*
X0264838Y0266515D01*
X0264070Y0266515D01*
X0263303Y0265748D01*
X0263303Y0264213D01*
X0264070Y0263446D01*
X0267907Y0263446D02*
X0267907Y0266515D01*
X0267140Y0268050D02*
X0266372Y0268050D01*
X0265605Y0268817D01*
X0265605Y0270352D01*
X0266372Y0271119D01*
X0267140Y0271119D01*
X0267907Y0270352D01*
X0267907Y0268817D01*
X0267140Y0268050D01*
X0265605Y0268817D02*
X0264838Y0268050D01*
X0264070Y0268050D01*
X0263303Y0268817D01*
X0263303Y0270352D01*
X0264070Y0271119D01*
X0264838Y0271119D01*
X0265605Y0270352D01*
X0266372Y0285067D02*
X0266372Y0287369D01*
X0265605Y0288136D01*
X0264070Y0288136D01*
X0263303Y0287369D01*
X0263303Y0285067D01*
X0267907Y0285067D01*
X0267907Y0289671D02*
X0263303Y0289671D01*
X0265605Y0289671D02*
X0265605Y0292740D01*
X0263303Y0292740D02*
X0267907Y0292740D01*
X0267907Y0294275D02*
X0267907Y0296577D01*
X0267140Y0297344D01*
X0264070Y0297344D01*
X0263303Y0296577D01*
X0263303Y0294275D01*
X0267907Y0294275D01*
X0267907Y0298879D02*
X0264838Y0301948D01*
X0264070Y0301948D01*
X0263303Y0301181D01*
X0263303Y0299646D01*
X0264070Y0298879D01*
X0267907Y0298879D02*
X0267907Y0301948D01*
X0267907Y0303483D02*
X0267140Y0303483D01*
X0264070Y0306552D01*
X0263303Y0306552D01*
X0263303Y0303483D01*
X0263303Y0320500D02*
X0263303Y0322802D01*
X0264070Y0323569D01*
X0265605Y0323569D01*
X0266372Y0322802D01*
X0266372Y0320500D01*
X0267907Y0320500D02*
X0263303Y0320500D01*
X0263303Y0325104D02*
X0267907Y0325104D01*
X0265605Y0325104D02*
X0265605Y0328173D01*
X0263303Y0328173D02*
X0267907Y0328173D01*
X0267907Y0329708D02*
X0263303Y0329708D01*
X0263303Y0332010D01*
X0264070Y0332777D01*
X0267140Y0332777D01*
X0267907Y0332010D01*
X0267907Y0329708D01*
X0267907Y0334312D02*
X0264838Y0337381D01*
X0264070Y0337381D01*
X0263303Y0336614D01*
X0263303Y0335079D01*
X0264070Y0334312D01*
X0267907Y0334312D02*
X0267907Y0337381D01*
X0267140Y0338916D02*
X0265605Y0338916D01*
X0265605Y0341218D01*
X0266372Y0341985D01*
X0267140Y0341985D01*
X0267907Y0341218D01*
X0267907Y0339683D01*
X0267140Y0338916D01*
X0265605Y0338916D02*
X0264070Y0340450D01*
X0263303Y0341985D01*
X0263303Y0355933D02*
X0263303Y0358235D01*
X0264070Y0359002D01*
X0265605Y0359002D01*
X0266372Y0358235D01*
X0266372Y0355933D01*
X0267907Y0355933D02*
X0263303Y0355933D01*
X0263303Y0360537D02*
X0267907Y0360537D01*
X0265605Y0360537D02*
X0265605Y0363606D01*
X0263303Y0363606D02*
X0267907Y0363606D01*
X0267907Y0365141D02*
X0267907Y0367443D01*
X0267140Y0368210D01*
X0264070Y0368210D01*
X0263303Y0367443D01*
X0263303Y0365141D01*
X0267907Y0365141D01*
X0267907Y0369745D02*
X0264838Y0372814D01*
X0264070Y0372814D01*
X0263303Y0372047D01*
X0263303Y0370512D01*
X0264070Y0369745D01*
X0267907Y0369745D02*
X0267907Y0372814D01*
X0267140Y0374349D02*
X0267907Y0375116D01*
X0267907Y0376651D01*
X0267140Y0377418D01*
X0265605Y0377418D01*
X0264838Y0376651D01*
X0264838Y0375883D01*
X0265605Y0374349D01*
X0263303Y0374349D01*
X0263303Y0377418D01*
X0232474Y0374349D02*
X0231707Y0374349D01*
X0228637Y0377418D01*
X0227870Y0377418D01*
X0227870Y0374349D01*
X0227870Y0371279D02*
X0232474Y0371279D01*
X0232474Y0369745D02*
X0232474Y0372814D01*
X0229405Y0369745D02*
X0227870Y0371279D01*
X0228637Y0368210D02*
X0227870Y0367443D01*
X0227870Y0365141D01*
X0232474Y0365141D01*
X0232474Y0367443D01*
X0231707Y0368210D01*
X0228637Y0368210D01*
X0227870Y0363606D02*
X0232474Y0363606D01*
X0230172Y0363606D02*
X0230172Y0360537D01*
X0230172Y0359002D02*
X0230939Y0358235D01*
X0230939Y0355933D01*
X0232474Y0355933D02*
X0227870Y0355933D01*
X0227870Y0358235D01*
X0228637Y0359002D01*
X0230172Y0359002D01*
X0232474Y0360537D02*
X0227870Y0360537D01*
X0228637Y0341985D02*
X0229405Y0341985D01*
X0230172Y0341218D01*
X0230172Y0339683D01*
X0229405Y0338916D01*
X0228637Y0338916D01*
X0227870Y0339683D01*
X0227870Y0341218D01*
X0228637Y0341985D01*
X0230172Y0341218D02*
X0230939Y0341985D01*
X0231707Y0341985D01*
X0232474Y0341218D01*
X0232474Y0339683D01*
X0231707Y0338916D01*
X0230939Y0338916D01*
X0230172Y0339683D01*
X0232474Y0337381D02*
X0232474Y0334312D01*
X0232474Y0335846D02*
X0227870Y0335846D01*
X0229405Y0334312D01*
X0228637Y0332777D02*
X0227870Y0332010D01*
X0227870Y0329708D01*
X0232474Y0329708D01*
X0232474Y0332010D01*
X0231707Y0332777D01*
X0228637Y0332777D01*
X0227870Y0328173D02*
X0232474Y0328173D01*
X0230172Y0328173D02*
X0230172Y0325104D01*
X0230172Y0323569D02*
X0230939Y0322802D01*
X0230939Y0320500D01*
X0232474Y0320500D02*
X0227870Y0320500D01*
X0227870Y0322802D01*
X0228637Y0323569D01*
X0230172Y0323569D01*
X0232474Y0325104D02*
X0227870Y0325104D01*
X0228637Y0306552D02*
X0227870Y0305785D01*
X0227870Y0304250D01*
X0228637Y0303483D01*
X0229405Y0303483D01*
X0230172Y0304250D01*
X0230172Y0306552D01*
X0231707Y0306552D02*
X0228637Y0306552D01*
X0231707Y0306552D02*
X0232474Y0305785D01*
X0232474Y0304250D01*
X0231707Y0303483D01*
X0232474Y0301948D02*
X0232474Y0298879D01*
X0232474Y0300413D02*
X0227870Y0300413D01*
X0229405Y0298879D01*
X0228637Y0297344D02*
X0227870Y0296577D01*
X0227870Y0294275D01*
X0232474Y0294275D01*
X0232474Y0296577D01*
X0231707Y0297344D01*
X0228637Y0297344D01*
X0227870Y0292740D02*
X0232474Y0292740D01*
X0230172Y0292740D02*
X0230172Y0289671D01*
X0230172Y0288136D02*
X0230939Y0287369D01*
X0230939Y0285067D01*
X0232474Y0285067D02*
X0227870Y0285067D01*
X0227870Y0287369D01*
X0228637Y0288136D01*
X0230172Y0288136D01*
X0232474Y0289671D02*
X0227870Y0289671D01*
X0228637Y0271119D02*
X0231707Y0268050D01*
X0232474Y0268817D01*
X0232474Y0270352D01*
X0231707Y0271119D01*
X0228637Y0271119D01*
X0227870Y0270352D01*
X0227870Y0268817D01*
X0228637Y0268050D01*
X0231707Y0268050D01*
X0232474Y0266515D02*
X0232474Y0263446D01*
X0229405Y0266515D01*
X0228637Y0266515D01*
X0227870Y0265748D01*
X0227870Y0264213D01*
X0228637Y0263446D01*
X0228637Y0261911D02*
X0227870Y0261144D01*
X0227870Y0258842D01*
X0232474Y0258842D01*
X0232474Y0261144D01*
X0231707Y0261911D01*
X0228637Y0261911D01*
X0227870Y0257307D02*
X0232474Y0257307D01*
X0230172Y0257307D02*
X0230172Y0254238D01*
X0230172Y0252703D02*
X0230939Y0251936D01*
X0230939Y0249634D01*
X0232474Y0249634D02*
X0227870Y0249634D01*
X0227870Y0251936D01*
X0228637Y0252703D01*
X0230172Y0252703D01*
X0232474Y0254238D02*
X0227870Y0254238D01*
X0263303Y0218805D02*
X0267907Y0218805D01*
X0298736Y0218805D02*
X0303340Y0218805D01*
X0301038Y0218805D02*
X0301038Y0221874D01*
X0298736Y0221874D02*
X0303340Y0221874D01*
X0303340Y0223409D02*
X0303340Y0225711D01*
X0302573Y0226478D01*
X0299504Y0226478D01*
X0298736Y0225711D01*
X0298736Y0223409D01*
X0303340Y0223409D01*
X0302573Y0228013D02*
X0303340Y0228780D01*
X0303340Y0230315D01*
X0302573Y0231082D01*
X0301806Y0231082D01*
X0301038Y0230315D01*
X0301038Y0229547D01*
X0301038Y0230315D02*
X0300271Y0231082D01*
X0299504Y0231082D01*
X0298736Y0230315D01*
X0298736Y0228780D01*
X0299504Y0228013D01*
X0298736Y0232616D02*
X0298736Y0235686D01*
X0299504Y0235686D01*
X0302573Y0232616D01*
X0303340Y0232616D01*
X0301038Y0217270D02*
X0301806Y0216503D01*
X0301806Y0214201D01*
X0303340Y0214201D02*
X0298736Y0214201D01*
X0298736Y0216503D01*
X0299504Y0217270D01*
X0301038Y0217270D01*
X0300271Y0200253D02*
X0301038Y0199485D01*
X0301038Y0197951D01*
X0300271Y0197183D01*
X0299504Y0197183D01*
X0298736Y0197951D01*
X0298736Y0199485D01*
X0299504Y0200253D01*
X0300271Y0200253D01*
X0301038Y0199485D02*
X0301806Y0200253D01*
X0302573Y0200253D01*
X0303340Y0199485D01*
X0303340Y0197951D01*
X0302573Y0197183D01*
X0301806Y0197183D01*
X0301038Y0197951D01*
X0300271Y0195649D02*
X0301038Y0194881D01*
X0301806Y0195649D01*
X0302573Y0195649D01*
X0303340Y0194881D01*
X0303340Y0193347D01*
X0302573Y0192580D01*
X0302573Y0191045D02*
X0299504Y0191045D01*
X0298736Y0190278D01*
X0298736Y0187976D01*
X0303340Y0187976D01*
X0303340Y0190278D01*
X0302573Y0191045D01*
X0301038Y0194114D02*
X0301038Y0194881D01*
X0300271Y0195649D02*
X0299504Y0195649D01*
X0298736Y0194881D01*
X0298736Y0193347D01*
X0299504Y0192580D01*
X0298736Y0186441D02*
X0303340Y0186441D01*
X0301038Y0186441D02*
X0301038Y0183372D01*
X0301038Y0181837D02*
X0301806Y0181070D01*
X0301806Y0178768D01*
X0303340Y0178768D02*
X0298736Y0178768D01*
X0298736Y0181070D01*
X0299504Y0181837D01*
X0301038Y0181837D01*
X0303340Y0183372D02*
X0298736Y0183372D01*
X0299504Y0164820D02*
X0298736Y0164052D01*
X0298736Y0162518D01*
X0299504Y0161750D01*
X0300271Y0161750D01*
X0301038Y0162518D01*
X0301038Y0164820D01*
X0299504Y0164820D02*
X0302573Y0164820D01*
X0303340Y0164052D01*
X0303340Y0162518D01*
X0302573Y0161750D01*
X0302573Y0160216D02*
X0303340Y0159448D01*
X0303340Y0157914D01*
X0302573Y0157146D01*
X0302573Y0155612D02*
X0299504Y0155612D01*
X0298736Y0154844D01*
X0298736Y0152543D01*
X0303340Y0152543D01*
X0303340Y0154844D01*
X0302573Y0155612D01*
X0301038Y0158681D02*
X0301038Y0159448D01*
X0301806Y0160216D01*
X0302573Y0160216D01*
X0301038Y0159448D02*
X0300271Y0160216D01*
X0299504Y0160216D01*
X0298736Y0159448D01*
X0298736Y0157914D01*
X0299504Y0157146D01*
X0298736Y0151008D02*
X0303340Y0151008D01*
X0301038Y0151008D02*
X0301038Y0147939D01*
X0301038Y0146404D02*
X0301806Y0145637D01*
X0301806Y0143335D01*
X0303340Y0143335D02*
X0298736Y0143335D01*
X0298736Y0145637D01*
X0299504Y0146404D01*
X0301038Y0146404D01*
X0303340Y0147939D02*
X0298736Y0147939D01*
X0299504Y0129387D02*
X0302573Y0126317D01*
X0303340Y0127085D01*
X0303340Y0128619D01*
X0302573Y0129387D01*
X0299504Y0129387D01*
X0298736Y0128619D01*
X0298736Y0127085D01*
X0299504Y0126317D01*
X0302573Y0126317D01*
X0301038Y0124783D02*
X0301038Y0121713D01*
X0298736Y0124015D01*
X0303340Y0124015D01*
X0302573Y0120179D02*
X0299504Y0120179D01*
X0298736Y0119411D01*
X0298736Y0117109D01*
X0303340Y0117109D01*
X0303340Y0119411D01*
X0302573Y0120179D01*
X0303340Y0115575D02*
X0298736Y0115575D01*
X0301038Y0115575D02*
X0301038Y0112506D01*
X0301038Y0110971D02*
X0301806Y0110204D01*
X0301806Y0107902D01*
X0303340Y0107902D02*
X0298736Y0107902D01*
X0298736Y0110204D01*
X0299504Y0110971D01*
X0301038Y0110971D01*
X0303340Y0112506D02*
X0298736Y0112506D01*
X0334169Y0112506D02*
X0338773Y0112506D01*
X0336471Y0112506D02*
X0336471Y0115575D01*
X0334169Y0115575D02*
X0338773Y0115575D01*
X0338773Y0117109D02*
X0338773Y0119411D01*
X0338006Y0120179D01*
X0334937Y0120179D01*
X0334169Y0119411D01*
X0334169Y0117109D01*
X0338773Y0117109D01*
X0336471Y0121713D02*
X0336471Y0124783D01*
X0335704Y0126317D02*
X0334937Y0126317D01*
X0334169Y0127085D01*
X0334169Y0128619D01*
X0334937Y0129387D01*
X0335704Y0129387D01*
X0336471Y0128619D01*
X0336471Y0127085D01*
X0335704Y0126317D01*
X0336471Y0127085D02*
X0337239Y0126317D01*
X0338006Y0126317D01*
X0338773Y0127085D01*
X0338773Y0128619D01*
X0338006Y0129387D01*
X0337239Y0129387D01*
X0336471Y0128619D01*
X0334169Y0124015D02*
X0336471Y0121713D01*
X0338773Y0124015D02*
X0334169Y0124015D01*
X0334937Y0110971D02*
X0336471Y0110971D01*
X0337239Y0110204D01*
X0337239Y0107902D01*
X0338773Y0107902D02*
X0334169Y0107902D01*
X0334169Y0110204D01*
X0334937Y0110971D01*
X0369602Y0110204D02*
X0369602Y0107902D01*
X0374206Y0107902D01*
X0372672Y0107902D02*
X0372672Y0110204D01*
X0371904Y0110971D01*
X0370370Y0110971D01*
X0369602Y0110204D01*
X0369602Y0112506D02*
X0374206Y0112506D01*
X0371904Y0112506D02*
X0371904Y0115575D01*
X0369602Y0115575D02*
X0374206Y0115575D01*
X0374206Y0117109D02*
X0374206Y0119411D01*
X0373439Y0120179D01*
X0370370Y0120179D01*
X0369602Y0119411D01*
X0369602Y0117109D01*
X0374206Y0117109D01*
X0373439Y0121713D02*
X0374206Y0122481D01*
X0374206Y0124015D01*
X0373439Y0124783D01*
X0371904Y0124783D01*
X0371137Y0124015D01*
X0371137Y0123248D01*
X0371904Y0121713D01*
X0369602Y0121713D01*
X0369602Y0124783D01*
X0371904Y0126317D02*
X0371904Y0128619D01*
X0372672Y0129387D01*
X0373439Y0129387D01*
X0374206Y0128619D01*
X0374206Y0127085D01*
X0373439Y0126317D01*
X0371904Y0126317D01*
X0370370Y0127852D01*
X0369602Y0129387D01*
X0369602Y0143335D02*
X0369602Y0145637D01*
X0370370Y0146404D01*
X0371904Y0146404D01*
X0372672Y0145637D01*
X0372672Y0143335D01*
X0374206Y0143335D02*
X0369602Y0143335D01*
X0369602Y0147939D02*
X0374206Y0147939D01*
X0371904Y0147939D02*
X0371904Y0151008D01*
X0369602Y0151008D02*
X0374206Y0151008D01*
X0374206Y0152543D02*
X0374206Y0154844D01*
X0373439Y0155612D01*
X0370370Y0155612D01*
X0369602Y0154844D01*
X0369602Y0152543D01*
X0374206Y0152543D01*
X0373439Y0157146D02*
X0374206Y0157914D01*
X0374206Y0159448D01*
X0373439Y0160216D01*
X0371904Y0160216D01*
X0371137Y0159448D01*
X0371137Y0158681D01*
X0371904Y0157146D01*
X0369602Y0157146D01*
X0369602Y0160216D01*
X0369602Y0161750D02*
X0371904Y0161750D01*
X0371137Y0163285D01*
X0371137Y0164052D01*
X0371904Y0164820D01*
X0373439Y0164820D01*
X0374206Y0164052D01*
X0374206Y0162518D01*
X0373439Y0161750D01*
X0369602Y0161750D02*
X0369602Y0164820D01*
X0369602Y0178768D02*
X0369602Y0181070D01*
X0370370Y0181837D01*
X0371904Y0181837D01*
X0372672Y0181070D01*
X0372672Y0178768D01*
X0374206Y0178768D02*
X0369602Y0178768D01*
X0369602Y0183372D02*
X0374206Y0183372D01*
X0371904Y0183372D02*
X0371904Y0186441D01*
X0369602Y0186441D02*
X0374206Y0186441D01*
X0374206Y0187976D02*
X0369602Y0187976D01*
X0369602Y0190278D01*
X0370370Y0191045D01*
X0373439Y0191045D01*
X0374206Y0190278D01*
X0374206Y0187976D01*
X0373439Y0192580D02*
X0374206Y0193347D01*
X0374206Y0194881D01*
X0373439Y0195649D01*
X0371904Y0195649D01*
X0371137Y0194881D01*
X0371137Y0194114D01*
X0371904Y0192580D01*
X0369602Y0192580D01*
X0369602Y0195649D01*
X0371904Y0197183D02*
X0371904Y0200253D01*
X0369602Y0199485D02*
X0371904Y0197183D01*
X0374206Y0199485D02*
X0369602Y0199485D01*
X0369602Y0214201D02*
X0369602Y0216503D01*
X0370370Y0217270D01*
X0371904Y0217270D01*
X0372672Y0216503D01*
X0372672Y0214201D01*
X0374206Y0214201D02*
X0369602Y0214201D01*
X0369602Y0218805D02*
X0374206Y0218805D01*
X0371904Y0218805D02*
X0371904Y0221874D01*
X0369602Y0221874D02*
X0374206Y0221874D01*
X0374206Y0223409D02*
X0374206Y0225711D01*
X0373439Y0226478D01*
X0370370Y0226478D01*
X0369602Y0225711D01*
X0369602Y0223409D01*
X0374206Y0223409D01*
X0373439Y0228013D02*
X0374206Y0228780D01*
X0374206Y0230315D01*
X0373439Y0231082D01*
X0371904Y0231082D01*
X0371137Y0230315D01*
X0371137Y0229547D01*
X0371904Y0228013D01*
X0369602Y0228013D01*
X0369602Y0231082D01*
X0370370Y0232616D02*
X0369602Y0233384D01*
X0369602Y0234918D01*
X0370370Y0235686D01*
X0371137Y0235686D01*
X0371904Y0234918D01*
X0372672Y0235686D01*
X0373439Y0235686D01*
X0374206Y0234918D01*
X0374206Y0233384D01*
X0373439Y0232616D01*
X0371904Y0234151D02*
X0371904Y0234918D01*
X0372672Y0249634D02*
X0372672Y0251936D01*
X0371904Y0252703D01*
X0370370Y0252703D01*
X0369602Y0251936D01*
X0369602Y0249634D01*
X0374206Y0249634D01*
X0374206Y0254238D02*
X0369602Y0254238D01*
X0371904Y0254238D02*
X0371904Y0257307D01*
X0369602Y0257307D02*
X0374206Y0257307D01*
X0374206Y0258842D02*
X0374206Y0261144D01*
X0373439Y0261911D01*
X0370370Y0261911D01*
X0369602Y0261144D01*
X0369602Y0258842D01*
X0374206Y0258842D01*
X0373439Y0263446D02*
X0374206Y0264213D01*
X0374206Y0265748D01*
X0373439Y0266515D01*
X0371904Y0266515D01*
X0371137Y0265748D01*
X0371137Y0264980D01*
X0371904Y0263446D01*
X0369602Y0263446D01*
X0369602Y0266515D01*
X0370370Y0268050D02*
X0369602Y0268817D01*
X0369602Y0270352D01*
X0370370Y0271119D01*
X0371137Y0271119D01*
X0374206Y0268050D01*
X0374206Y0271119D01*
X0374206Y0285067D02*
X0369602Y0285067D01*
X0369602Y0287369D01*
X0370370Y0288136D01*
X0371904Y0288136D01*
X0372672Y0287369D01*
X0372672Y0285067D01*
X0371904Y0289671D02*
X0371904Y0292740D01*
X0369602Y0292740D02*
X0374206Y0292740D01*
X0374206Y0294275D02*
X0374206Y0296577D01*
X0373439Y0297344D01*
X0370370Y0297344D01*
X0369602Y0296577D01*
X0369602Y0294275D01*
X0374206Y0294275D01*
X0374206Y0289671D02*
X0369602Y0289671D01*
X0369602Y0298879D02*
X0371904Y0298879D01*
X0371137Y0300413D01*
X0371137Y0301181D01*
X0371904Y0301948D01*
X0373439Y0301948D01*
X0374206Y0301181D01*
X0374206Y0299646D01*
X0373439Y0298879D01*
X0369602Y0298879D02*
X0369602Y0301948D01*
X0371137Y0303483D02*
X0369602Y0305017D01*
X0374206Y0305017D01*
X0374206Y0303483D02*
X0374206Y0306552D01*
X0374206Y0320500D02*
X0369602Y0320500D01*
X0369602Y0322802D01*
X0370370Y0323569D01*
X0371904Y0323569D01*
X0372672Y0322802D01*
X0372672Y0320500D01*
X0371904Y0325104D02*
X0371904Y0328173D01*
X0369602Y0328173D02*
X0374206Y0328173D01*
X0374206Y0329708D02*
X0369602Y0329708D01*
X0369602Y0332010D01*
X0370370Y0332777D01*
X0373439Y0332777D01*
X0374206Y0332010D01*
X0374206Y0329708D01*
X0374206Y0325104D02*
X0369602Y0325104D01*
X0369602Y0334312D02*
X0371904Y0334312D01*
X0371137Y0335846D01*
X0371137Y0336614D01*
X0371904Y0337381D01*
X0373439Y0337381D01*
X0374206Y0336614D01*
X0374206Y0335079D01*
X0373439Y0334312D01*
X0369602Y0334312D02*
X0369602Y0337381D01*
X0370370Y0338916D02*
X0369602Y0339683D01*
X0369602Y0341218D01*
X0370370Y0341985D01*
X0373439Y0338916D01*
X0374206Y0339683D01*
X0374206Y0341218D01*
X0373439Y0341985D01*
X0370370Y0341985D01*
X0370370Y0338916D02*
X0373439Y0338916D01*
X0374206Y0355933D02*
X0369602Y0355933D01*
X0369602Y0358235D01*
X0370370Y0359002D01*
X0371904Y0359002D01*
X0372672Y0358235D01*
X0372672Y0355933D01*
X0371904Y0360537D02*
X0371904Y0363606D01*
X0369602Y0363606D02*
X0374206Y0363606D01*
X0374206Y0365141D02*
X0374206Y0367443D01*
X0373439Y0368210D01*
X0370370Y0368210D01*
X0369602Y0367443D01*
X0369602Y0365141D01*
X0374206Y0365141D01*
X0374206Y0360537D02*
X0369602Y0360537D01*
X0371904Y0369745D02*
X0371904Y0372814D01*
X0371137Y0374349D02*
X0371904Y0375116D01*
X0371904Y0377418D01*
X0370370Y0377418D02*
X0369602Y0376651D01*
X0369602Y0375116D01*
X0370370Y0374349D01*
X0371137Y0374349D01*
X0373439Y0374349D02*
X0374206Y0375116D01*
X0374206Y0376651D01*
X0373439Y0377418D01*
X0370370Y0377418D01*
X0369602Y0372047D02*
X0371904Y0369745D01*
X0374206Y0372047D02*
X0369602Y0372047D01*
X0338773Y0372047D02*
X0334169Y0372047D01*
X0336471Y0369745D01*
X0336471Y0372814D01*
X0335704Y0374349D02*
X0334169Y0375883D01*
X0338773Y0375883D01*
X0338773Y0374349D02*
X0338773Y0377418D01*
X0338006Y0368210D02*
X0334937Y0368210D01*
X0334169Y0367443D01*
X0334169Y0365141D01*
X0338773Y0365141D01*
X0338773Y0367443D01*
X0338006Y0368210D01*
X0338773Y0363606D02*
X0334169Y0363606D01*
X0336471Y0363606D02*
X0336471Y0360537D01*
X0336471Y0359002D02*
X0337239Y0358235D01*
X0337239Y0355933D01*
X0338773Y0355933D02*
X0334169Y0355933D01*
X0334169Y0358235D01*
X0334937Y0359002D01*
X0336471Y0359002D01*
X0338773Y0360537D02*
X0334169Y0360537D01*
X0334937Y0341985D02*
X0334169Y0341218D01*
X0334169Y0339683D01*
X0334937Y0338916D01*
X0336471Y0337381D02*
X0336471Y0334312D01*
X0334169Y0336614D01*
X0338773Y0336614D01*
X0338773Y0338916D02*
X0335704Y0341985D01*
X0334937Y0341985D01*
X0338773Y0341985D02*
X0338773Y0338916D01*
X0338006Y0332777D02*
X0334937Y0332777D01*
X0334169Y0332010D01*
X0334169Y0329708D01*
X0338773Y0329708D01*
X0338773Y0332010D01*
X0338006Y0332777D01*
X0338773Y0328173D02*
X0334169Y0328173D01*
X0336471Y0328173D02*
X0336471Y0325104D01*
X0336471Y0323569D02*
X0337239Y0322802D01*
X0337239Y0320500D01*
X0338773Y0320500D02*
X0334169Y0320500D01*
X0334169Y0322802D01*
X0334937Y0323569D01*
X0336471Y0323569D01*
X0338773Y0325104D02*
X0334169Y0325104D01*
X0334937Y0306552D02*
X0335704Y0306552D01*
X0336471Y0305785D01*
X0337239Y0306552D01*
X0338006Y0306552D01*
X0338773Y0305785D01*
X0338773Y0304250D01*
X0338006Y0303483D01*
X0336471Y0305017D02*
X0336471Y0305785D01*
X0334937Y0306552D02*
X0334169Y0305785D01*
X0334169Y0304250D01*
X0334937Y0303483D01*
X0336471Y0301948D02*
X0336471Y0298879D01*
X0334169Y0301181D01*
X0338773Y0301181D01*
X0338006Y0297344D02*
X0334937Y0297344D01*
X0334169Y0296577D01*
X0334169Y0294275D01*
X0338773Y0294275D01*
X0338773Y0296577D01*
X0338006Y0297344D01*
X0338773Y0292740D02*
X0334169Y0292740D01*
X0336471Y0292740D02*
X0336471Y0289671D01*
X0336471Y0288136D02*
X0337239Y0287369D01*
X0337239Y0285067D01*
X0338773Y0285067D02*
X0334169Y0285067D01*
X0334169Y0287369D01*
X0334937Y0288136D01*
X0336471Y0288136D01*
X0338773Y0289671D02*
X0334169Y0289671D01*
X0336471Y0271119D02*
X0336471Y0268050D01*
X0334169Y0270352D01*
X0338773Y0270352D01*
X0336471Y0266515D02*
X0336471Y0263446D01*
X0334169Y0265748D01*
X0338773Y0265748D01*
X0338006Y0261911D02*
X0334937Y0261911D01*
X0334169Y0261144D01*
X0334169Y0258842D01*
X0338773Y0258842D01*
X0338773Y0261144D01*
X0338006Y0261911D01*
X0338773Y0257307D02*
X0334169Y0257307D01*
X0336471Y0257307D02*
X0336471Y0254238D01*
X0336471Y0252703D02*
X0337239Y0251936D01*
X0337239Y0249634D01*
X0338773Y0249634D02*
X0334169Y0249634D01*
X0334169Y0251936D01*
X0334937Y0252703D01*
X0336471Y0252703D01*
X0338773Y0254238D02*
X0334169Y0254238D01*
X0334169Y0235686D02*
X0334169Y0232616D01*
X0336471Y0232616D01*
X0335704Y0234151D01*
X0335704Y0234918D01*
X0336471Y0235686D01*
X0338006Y0235686D01*
X0338773Y0234918D01*
X0338773Y0233384D01*
X0338006Y0232616D01*
X0336471Y0231082D02*
X0336471Y0228013D01*
X0334169Y0230315D01*
X0338773Y0230315D01*
X0338006Y0226478D02*
X0334937Y0226478D01*
X0334169Y0225711D01*
X0334169Y0223409D01*
X0338773Y0223409D01*
X0338773Y0225711D01*
X0338006Y0226478D01*
X0338773Y0221874D02*
X0334169Y0221874D01*
X0336471Y0221874D02*
X0336471Y0218805D01*
X0336471Y0217270D02*
X0337239Y0216503D01*
X0337239Y0214201D01*
X0338773Y0214201D02*
X0334169Y0214201D01*
X0334169Y0216503D01*
X0334937Y0217270D01*
X0336471Y0217270D01*
X0338773Y0218805D02*
X0334169Y0218805D01*
X0334169Y0200253D02*
X0334937Y0198718D01*
X0336471Y0197183D01*
X0336471Y0199485D01*
X0337239Y0200253D01*
X0338006Y0200253D01*
X0338773Y0199485D01*
X0338773Y0197951D01*
X0338006Y0197183D01*
X0336471Y0197183D01*
X0336471Y0195649D02*
X0336471Y0192580D01*
X0334169Y0194881D01*
X0338773Y0194881D01*
X0338006Y0191045D02*
X0334937Y0191045D01*
X0334169Y0190278D01*
X0334169Y0187976D01*
X0338773Y0187976D01*
X0338773Y0190278D01*
X0338006Y0191045D01*
X0338773Y0186441D02*
X0334169Y0186441D01*
X0336471Y0186441D02*
X0336471Y0183372D01*
X0336471Y0181837D02*
X0337239Y0181070D01*
X0337239Y0178768D01*
X0338773Y0178768D02*
X0334169Y0178768D01*
X0334169Y0181070D01*
X0334937Y0181837D01*
X0336471Y0181837D01*
X0338773Y0183372D02*
X0334169Y0183372D01*
X0334169Y0164820D02*
X0334937Y0164820D01*
X0338006Y0161750D01*
X0338773Y0161750D01*
X0338773Y0159448D02*
X0334169Y0159448D01*
X0336471Y0157146D01*
X0336471Y0160216D01*
X0334169Y0161750D02*
X0334169Y0164820D01*
X0334937Y0155612D02*
X0334169Y0154844D01*
X0334169Y0152543D01*
X0338773Y0152543D01*
X0338773Y0154844D01*
X0338006Y0155612D01*
X0334937Y0155612D01*
X0334169Y0151008D02*
X0338773Y0151008D01*
X0336471Y0151008D02*
X0336471Y0147939D01*
X0336471Y0146404D02*
X0337239Y0145637D01*
X0337239Y0143335D01*
X0338773Y0143335D02*
X0334169Y0143335D01*
X0334169Y0145637D01*
X0334937Y0146404D01*
X0336471Y0146404D01*
X0338773Y0147939D02*
X0334169Y0147939D01*
X0405035Y0147939D02*
X0409639Y0147939D01*
X0407337Y0147939D02*
X0407337Y0151008D01*
X0405035Y0151008D02*
X0409639Y0151008D01*
X0409639Y0152543D02*
X0409639Y0154844D01*
X0408872Y0155612D01*
X0405803Y0155612D01*
X0405035Y0154844D01*
X0405035Y0152543D01*
X0409639Y0152543D01*
X0408872Y0157146D02*
X0407337Y0157146D01*
X0407337Y0159448D01*
X0408105Y0160216D01*
X0408872Y0160216D01*
X0409639Y0159448D01*
X0409639Y0157914D01*
X0408872Y0157146D01*
X0407337Y0157146D02*
X0405803Y0158681D01*
X0405035Y0160216D01*
X0405803Y0161750D02*
X0405035Y0162518D01*
X0405035Y0164052D01*
X0405803Y0164820D01*
X0406570Y0164820D01*
X0407337Y0164052D01*
X0408105Y0164820D01*
X0408872Y0164820D01*
X0409639Y0164052D01*
X0409639Y0162518D01*
X0408872Y0161750D01*
X0407337Y0163285D02*
X0407337Y0164052D01*
X0407337Y0146404D02*
X0408105Y0145637D01*
X0408105Y0143335D01*
X0409639Y0143335D02*
X0405035Y0143335D01*
X0405035Y0145637D01*
X0405803Y0146404D01*
X0407337Y0146404D01*
X0407337Y0129387D02*
X0407337Y0126317D01*
X0405035Y0128619D01*
X0409639Y0128619D01*
X0408872Y0124783D02*
X0408105Y0124783D01*
X0407337Y0124015D01*
X0407337Y0121713D01*
X0408872Y0121713D01*
X0409639Y0122481D01*
X0409639Y0124015D01*
X0408872Y0124783D01*
X0405803Y0123248D02*
X0407337Y0121713D01*
X0405803Y0120179D02*
X0405035Y0119411D01*
X0405035Y0117109D01*
X0409639Y0117109D01*
X0409639Y0119411D01*
X0408872Y0120179D01*
X0405803Y0120179D01*
X0405803Y0123248D02*
X0405035Y0124783D01*
X0405035Y0115575D02*
X0409639Y0115575D01*
X0407337Y0115575D02*
X0407337Y0112506D01*
X0407337Y0110971D02*
X0408105Y0110204D01*
X0408105Y0107902D01*
X0409639Y0107902D02*
X0405035Y0107902D01*
X0405035Y0110204D01*
X0405803Y0110971D01*
X0407337Y0110971D01*
X0409639Y0112506D02*
X0405035Y0112506D01*
X0440469Y0112506D02*
X0445072Y0112506D01*
X0442770Y0112506D02*
X0442770Y0115575D01*
X0440469Y0115575D02*
X0445072Y0115575D01*
X0445072Y0117109D02*
X0445072Y0119411D01*
X0444305Y0120179D01*
X0441236Y0120179D01*
X0440469Y0119411D01*
X0440469Y0117109D01*
X0445072Y0117109D01*
X0445072Y0121713D02*
X0444305Y0121713D01*
X0441236Y0124783D01*
X0440469Y0124783D01*
X0440469Y0121713D01*
X0441236Y0126317D02*
X0440469Y0127085D01*
X0440469Y0128619D01*
X0441236Y0129387D01*
X0442003Y0129387D01*
X0445072Y0126317D01*
X0445072Y0129387D01*
X0445072Y0143335D02*
X0440469Y0143335D01*
X0440469Y0145637D01*
X0441236Y0146404D01*
X0442770Y0146404D01*
X0443538Y0145637D01*
X0443538Y0143335D01*
X0442770Y0147939D02*
X0442770Y0151008D01*
X0440469Y0151008D02*
X0445072Y0151008D01*
X0445072Y0152543D02*
X0445072Y0154844D01*
X0444305Y0155612D01*
X0441236Y0155612D01*
X0440469Y0154844D01*
X0440469Y0152543D01*
X0445072Y0152543D01*
X0445072Y0157146D02*
X0444305Y0157146D01*
X0441236Y0160216D01*
X0440469Y0160216D01*
X0440469Y0157146D01*
X0442003Y0161750D02*
X0440469Y0163285D01*
X0445072Y0163285D01*
X0445072Y0161750D02*
X0445072Y0164820D01*
X0445072Y0178768D02*
X0440469Y0178768D01*
X0440469Y0181070D01*
X0441236Y0181837D01*
X0442770Y0181837D01*
X0443538Y0181070D01*
X0443538Y0178768D01*
X0442770Y0183372D02*
X0442770Y0186441D01*
X0440469Y0186441D02*
X0445072Y0186441D01*
X0445072Y0187976D02*
X0440469Y0187976D01*
X0440469Y0190278D01*
X0441236Y0191045D01*
X0444305Y0191045D01*
X0445072Y0190278D01*
X0445072Y0187976D01*
X0445072Y0192580D02*
X0444305Y0192580D01*
X0441236Y0195649D01*
X0440469Y0195649D01*
X0440469Y0192580D01*
X0441236Y0197183D02*
X0440469Y0197951D01*
X0440469Y0199485D01*
X0441236Y0200253D01*
X0444305Y0197183D01*
X0445072Y0197951D01*
X0445072Y0199485D01*
X0444305Y0200253D01*
X0441236Y0200253D01*
X0441236Y0197183D02*
X0444305Y0197183D01*
X0445072Y0183372D02*
X0440469Y0183372D01*
X0409639Y0183372D02*
X0405035Y0183372D01*
X0405803Y0181837D02*
X0407337Y0181837D01*
X0408105Y0181070D01*
X0408105Y0178768D01*
X0409639Y0178768D02*
X0405035Y0178768D01*
X0405035Y0181070D01*
X0405803Y0181837D01*
X0407337Y0183372D02*
X0407337Y0186441D01*
X0405035Y0186441D02*
X0409639Y0186441D01*
X0409639Y0187976D02*
X0405035Y0187976D01*
X0405035Y0190278D01*
X0405803Y0191045D01*
X0408872Y0191045D01*
X0409639Y0190278D01*
X0409639Y0187976D01*
X0408872Y0192580D02*
X0407337Y0192580D01*
X0407337Y0194881D01*
X0408105Y0195649D01*
X0408872Y0195649D01*
X0409639Y0194881D01*
X0409639Y0193347D01*
X0408872Y0192580D01*
X0407337Y0192580D02*
X0405803Y0194114D01*
X0405035Y0195649D01*
X0405803Y0197183D02*
X0405035Y0197951D01*
X0405035Y0199485D01*
X0405803Y0200253D01*
X0406570Y0200253D01*
X0409639Y0197183D01*
X0409639Y0200253D01*
X0409639Y0214201D02*
X0405035Y0214201D01*
X0405035Y0216503D01*
X0405803Y0217270D01*
X0407337Y0217270D01*
X0408105Y0216503D01*
X0408105Y0214201D01*
X0407337Y0218805D02*
X0407337Y0221874D01*
X0405035Y0221874D02*
X0409639Y0221874D01*
X0409639Y0223409D02*
X0409639Y0225711D01*
X0408872Y0226478D01*
X0405803Y0226478D01*
X0405035Y0225711D01*
X0405035Y0223409D01*
X0409639Y0223409D01*
X0409639Y0218805D02*
X0405035Y0218805D01*
X0407337Y0228013D02*
X0407337Y0230315D01*
X0408105Y0231082D01*
X0408872Y0231082D01*
X0409639Y0230315D01*
X0409639Y0228780D01*
X0408872Y0228013D01*
X0407337Y0228013D01*
X0405803Y0229547D01*
X0405035Y0231082D01*
X0406570Y0232616D02*
X0405035Y0234151D01*
X0409639Y0234151D01*
X0409639Y0232616D02*
X0409639Y0235686D01*
X0409639Y0249634D02*
X0405035Y0249634D01*
X0405035Y0251936D01*
X0405803Y0252703D01*
X0407337Y0252703D01*
X0408105Y0251936D01*
X0408105Y0249634D01*
X0407337Y0254238D02*
X0407337Y0257307D01*
X0405035Y0257307D02*
X0409639Y0257307D01*
X0409639Y0258842D02*
X0409639Y0261144D01*
X0408872Y0261911D01*
X0405803Y0261911D01*
X0405035Y0261144D01*
X0405035Y0258842D01*
X0409639Y0258842D01*
X0409639Y0254238D02*
X0405035Y0254238D01*
X0407337Y0263446D02*
X0407337Y0265748D01*
X0408105Y0266515D01*
X0408872Y0266515D01*
X0409639Y0265748D01*
X0409639Y0264213D01*
X0408872Y0263446D01*
X0407337Y0263446D01*
X0405803Y0264980D01*
X0405035Y0266515D01*
X0405803Y0268050D02*
X0405035Y0268817D01*
X0405035Y0270352D01*
X0405803Y0271119D01*
X0408872Y0268050D01*
X0409639Y0268817D01*
X0409639Y0270352D01*
X0408872Y0271119D01*
X0405803Y0271119D01*
X0405803Y0268050D02*
X0408872Y0268050D01*
X0409639Y0285067D02*
X0405035Y0285067D01*
X0405035Y0287369D01*
X0405803Y0288136D01*
X0407337Y0288136D01*
X0408105Y0287369D01*
X0408105Y0285067D01*
X0407337Y0289671D02*
X0407337Y0292740D01*
X0405035Y0292740D02*
X0409639Y0292740D01*
X0409639Y0294275D02*
X0409639Y0296577D01*
X0408872Y0297344D01*
X0405803Y0297344D01*
X0405035Y0296577D01*
X0405035Y0294275D01*
X0409639Y0294275D01*
X0409639Y0289671D02*
X0405035Y0289671D01*
X0405035Y0298879D02*
X0407337Y0298879D01*
X0406570Y0300413D01*
X0406570Y0301181D01*
X0407337Y0301948D01*
X0408872Y0301948D01*
X0409639Y0301181D01*
X0409639Y0299646D01*
X0408872Y0298879D01*
X0405035Y0298879D02*
X0405035Y0301948D01*
X0405803Y0303483D02*
X0406570Y0303483D01*
X0407337Y0304250D01*
X0407337Y0306552D01*
X0405803Y0306552D02*
X0405035Y0305785D01*
X0405035Y0304250D01*
X0405803Y0303483D01*
X0405803Y0306552D02*
X0408872Y0306552D01*
X0409639Y0305785D01*
X0409639Y0304250D01*
X0408872Y0303483D01*
X0409639Y0320500D02*
X0405035Y0320500D01*
X0405035Y0322802D01*
X0405803Y0323569D01*
X0407337Y0323569D01*
X0408105Y0322802D01*
X0408105Y0320500D01*
X0407337Y0325104D02*
X0407337Y0328173D01*
X0405035Y0328173D02*
X0409639Y0328173D01*
X0409639Y0329708D02*
X0405035Y0329708D01*
X0405035Y0332010D01*
X0405803Y0332777D01*
X0408872Y0332777D01*
X0409639Y0332010D01*
X0409639Y0329708D01*
X0409639Y0325104D02*
X0405035Y0325104D01*
X0405035Y0334312D02*
X0407337Y0334312D01*
X0406570Y0335846D01*
X0406570Y0336614D01*
X0407337Y0337381D01*
X0408872Y0337381D01*
X0409639Y0336614D01*
X0409639Y0335079D01*
X0408872Y0334312D01*
X0405035Y0334312D02*
X0405035Y0337381D01*
X0405803Y0338916D02*
X0406570Y0338916D01*
X0407337Y0339683D01*
X0407337Y0341218D01*
X0408105Y0341985D01*
X0408872Y0341985D01*
X0409639Y0341218D01*
X0409639Y0339683D01*
X0408872Y0338916D01*
X0408105Y0338916D01*
X0407337Y0339683D01*
X0407337Y0341218D02*
X0406570Y0341985D01*
X0405803Y0341985D01*
X0405035Y0341218D01*
X0405035Y0339683D01*
X0405803Y0338916D01*
X0405035Y0355933D02*
X0405035Y0358235D01*
X0405803Y0359002D01*
X0407337Y0359002D01*
X0408105Y0358235D01*
X0408105Y0355933D01*
X0409639Y0355933D02*
X0405035Y0355933D01*
X0405035Y0360537D02*
X0409639Y0360537D01*
X0407337Y0360537D02*
X0407337Y0363606D01*
X0405035Y0363606D02*
X0409639Y0363606D01*
X0409639Y0365141D02*
X0409639Y0367443D01*
X0408872Y0368210D01*
X0405803Y0368210D01*
X0405035Y0367443D01*
X0405035Y0365141D01*
X0409639Y0365141D01*
X0408872Y0369745D02*
X0409639Y0370512D01*
X0409639Y0372047D01*
X0408872Y0372814D01*
X0407337Y0372814D01*
X0406570Y0372047D01*
X0406570Y0371279D01*
X0407337Y0369745D01*
X0405035Y0369745D01*
X0405035Y0372814D01*
X0405035Y0374349D02*
X0405035Y0377418D01*
X0405803Y0377418D01*
X0408872Y0374349D01*
X0409639Y0374349D01*
X0440469Y0374349D02*
X0442770Y0374349D01*
X0442003Y0375883D01*
X0442003Y0376651D01*
X0442770Y0377418D01*
X0444305Y0377418D01*
X0445072Y0376651D01*
X0445072Y0375116D01*
X0444305Y0374349D01*
X0444305Y0372814D02*
X0443538Y0372814D01*
X0442770Y0372047D01*
X0442770Y0369745D01*
X0444305Y0369745D01*
X0445072Y0370512D01*
X0445072Y0372047D01*
X0444305Y0372814D01*
X0441236Y0371279D02*
X0442770Y0369745D01*
X0441236Y0371279D02*
X0440469Y0372814D01*
X0440469Y0374349D02*
X0440469Y0377418D01*
X0441236Y0368210D02*
X0440469Y0367443D01*
X0440469Y0365141D01*
X0445072Y0365141D01*
X0445072Y0367443D01*
X0444305Y0368210D01*
X0441236Y0368210D01*
X0440469Y0363606D02*
X0445072Y0363606D01*
X0442770Y0363606D02*
X0442770Y0360537D01*
X0442770Y0359002D02*
X0443538Y0358235D01*
X0443538Y0355933D01*
X0445072Y0355933D02*
X0440469Y0355933D01*
X0440469Y0358235D01*
X0441236Y0359002D01*
X0442770Y0359002D01*
X0445072Y0360537D02*
X0440469Y0360537D01*
X0440469Y0341985D02*
X0441236Y0340450D01*
X0442770Y0338916D01*
X0442770Y0341218D01*
X0443538Y0341985D01*
X0444305Y0341985D01*
X0445072Y0341218D01*
X0445072Y0339683D01*
X0444305Y0338916D01*
X0442770Y0338916D01*
X0443538Y0337381D02*
X0442770Y0336614D01*
X0442770Y0334312D01*
X0444305Y0334312D01*
X0445072Y0335079D01*
X0445072Y0336614D01*
X0444305Y0337381D01*
X0443538Y0337381D01*
X0441236Y0335846D02*
X0442770Y0334312D01*
X0441236Y0335846D02*
X0440469Y0337381D01*
X0441236Y0332777D02*
X0440469Y0332010D01*
X0440469Y0329708D01*
X0445072Y0329708D01*
X0445072Y0332010D01*
X0444305Y0332777D01*
X0441236Y0332777D01*
X0440469Y0328173D02*
X0445072Y0328173D01*
X0442770Y0328173D02*
X0442770Y0325104D01*
X0442770Y0323569D02*
X0441236Y0323569D01*
X0440469Y0322802D01*
X0440469Y0320500D01*
X0445072Y0320500D01*
X0443538Y0320500D02*
X0443538Y0322802D01*
X0442770Y0323569D01*
X0445072Y0325104D02*
X0440469Y0325104D01*
X0440469Y0306552D02*
X0441236Y0306552D01*
X0444305Y0303483D01*
X0445072Y0303483D01*
X0444305Y0301948D02*
X0443538Y0301948D01*
X0442770Y0301181D01*
X0442770Y0298879D01*
X0444305Y0298879D01*
X0445072Y0299646D01*
X0445072Y0301181D01*
X0444305Y0301948D01*
X0441236Y0300413D02*
X0442770Y0298879D01*
X0441236Y0300413D02*
X0440469Y0301948D01*
X0440469Y0303483D02*
X0440469Y0306552D01*
X0441236Y0297344D02*
X0440469Y0296577D01*
X0440469Y0294275D01*
X0445072Y0294275D01*
X0445072Y0296577D01*
X0444305Y0297344D01*
X0441236Y0297344D01*
X0440469Y0292740D02*
X0445072Y0292740D01*
X0442770Y0292740D02*
X0442770Y0289671D01*
X0442770Y0288136D02*
X0443538Y0287369D01*
X0443538Y0285067D01*
X0445072Y0285067D02*
X0440469Y0285067D01*
X0440469Y0287369D01*
X0441236Y0288136D01*
X0442770Y0288136D01*
X0445072Y0289671D02*
X0440469Y0289671D01*
X0441236Y0271119D02*
X0442003Y0271119D01*
X0442770Y0270352D01*
X0442770Y0268817D01*
X0442003Y0268050D01*
X0441236Y0268050D01*
X0440469Y0268817D01*
X0440469Y0270352D01*
X0441236Y0271119D01*
X0442770Y0270352D02*
X0443538Y0271119D01*
X0444305Y0271119D01*
X0445072Y0270352D01*
X0445072Y0268817D01*
X0444305Y0268050D01*
X0443538Y0268050D01*
X0442770Y0268817D01*
X0443538Y0266515D02*
X0442770Y0265748D01*
X0442770Y0263446D01*
X0444305Y0263446D01*
X0445072Y0264213D01*
X0445072Y0265748D01*
X0444305Y0266515D01*
X0443538Y0266515D01*
X0441236Y0264980D02*
X0442770Y0263446D01*
X0441236Y0264980D02*
X0440469Y0266515D01*
X0441236Y0261911D02*
X0440469Y0261144D01*
X0440469Y0258842D01*
X0445072Y0258842D01*
X0445072Y0261144D01*
X0444305Y0261911D01*
X0441236Y0261911D01*
X0440469Y0257307D02*
X0445072Y0257307D01*
X0442770Y0257307D02*
X0442770Y0254238D01*
X0442770Y0252703D02*
X0443538Y0251936D01*
X0443538Y0249634D01*
X0445072Y0249634D02*
X0440469Y0249634D01*
X0440469Y0251936D01*
X0441236Y0252703D01*
X0442770Y0252703D01*
X0445072Y0254238D02*
X0440469Y0254238D01*
X0441236Y0235686D02*
X0440469Y0234918D01*
X0440469Y0233384D01*
X0441236Y0232616D01*
X0442003Y0232616D01*
X0442770Y0233384D01*
X0442770Y0235686D01*
X0441236Y0235686D02*
X0444305Y0235686D01*
X0445072Y0234918D01*
X0445072Y0233384D01*
X0444305Y0232616D01*
X0444305Y0231082D02*
X0443538Y0231082D01*
X0442770Y0230315D01*
X0442770Y0228013D01*
X0444305Y0228013D01*
X0445072Y0228780D01*
X0445072Y0230315D01*
X0444305Y0231082D01*
X0441236Y0229547D02*
X0442770Y0228013D01*
X0441236Y0229547D02*
X0440469Y0231082D01*
X0441236Y0226478D02*
X0440469Y0225711D01*
X0440469Y0223409D01*
X0445072Y0223409D01*
X0445072Y0225711D01*
X0444305Y0226478D01*
X0441236Y0226478D01*
X0440469Y0221874D02*
X0445072Y0221874D01*
X0442770Y0221874D02*
X0442770Y0218805D01*
X0442770Y0217270D02*
X0443538Y0216503D01*
X0443538Y0214201D01*
X0445072Y0214201D02*
X0440469Y0214201D01*
X0440469Y0216503D01*
X0441236Y0217270D01*
X0442770Y0217270D01*
X0445072Y0218805D02*
X0440469Y0218805D01*
X0475902Y0218805D02*
X0480506Y0218805D01*
X0478204Y0218805D02*
X0478204Y0221874D01*
X0475902Y0221874D02*
X0480506Y0221874D01*
X0480506Y0223409D02*
X0480506Y0225711D01*
X0479738Y0226478D01*
X0476669Y0226478D01*
X0475902Y0225711D01*
X0475902Y0223409D01*
X0480506Y0223409D01*
X0480506Y0228013D02*
X0479738Y0228013D01*
X0476669Y0231082D01*
X0475902Y0231082D01*
X0475902Y0228013D01*
X0475902Y0232616D02*
X0475902Y0235686D01*
X0476669Y0235686D01*
X0479738Y0232616D01*
X0480506Y0232616D01*
X0478204Y0217270D02*
X0476669Y0217270D01*
X0475902Y0216503D01*
X0475902Y0214201D01*
X0480506Y0214201D01*
X0478971Y0214201D02*
X0478971Y0216503D01*
X0478204Y0217270D01*
X0478971Y0200253D02*
X0479738Y0200253D01*
X0480506Y0199485D01*
X0480506Y0197951D01*
X0479738Y0197183D01*
X0478971Y0197183D01*
X0478204Y0197951D01*
X0478204Y0199485D01*
X0478971Y0200253D01*
X0478204Y0199485D02*
X0477436Y0200253D01*
X0476669Y0200253D01*
X0475902Y0199485D01*
X0475902Y0197951D01*
X0476669Y0197183D01*
X0477436Y0197183D01*
X0478204Y0197951D01*
X0476669Y0195649D02*
X0479738Y0192580D01*
X0480506Y0192580D01*
X0479738Y0191045D02*
X0476669Y0191045D01*
X0475902Y0190278D01*
X0475902Y0187976D01*
X0480506Y0187976D01*
X0480506Y0190278D01*
X0479738Y0191045D01*
X0475902Y0192580D02*
X0475902Y0195649D01*
X0476669Y0195649D01*
X0475902Y0186441D02*
X0480506Y0186441D01*
X0478204Y0186441D02*
X0478204Y0183372D01*
X0478204Y0181837D02*
X0476669Y0181837D01*
X0475902Y0181070D01*
X0475902Y0178768D01*
X0480506Y0178768D01*
X0478971Y0178768D02*
X0478971Y0181070D01*
X0478204Y0181837D01*
X0480506Y0183372D02*
X0475902Y0183372D01*
X0476669Y0164820D02*
X0475902Y0164052D01*
X0475902Y0162518D01*
X0476669Y0161750D01*
X0477436Y0161750D01*
X0478204Y0162518D01*
X0478204Y0164820D01*
X0479738Y0164820D02*
X0476669Y0164820D01*
X0479738Y0164820D02*
X0480506Y0164052D01*
X0480506Y0162518D01*
X0479738Y0161750D01*
X0476669Y0160216D02*
X0479738Y0157146D01*
X0480506Y0157146D01*
X0479738Y0155612D02*
X0476669Y0155612D01*
X0475902Y0154844D01*
X0475902Y0152543D01*
X0480506Y0152543D01*
X0480506Y0154844D01*
X0479738Y0155612D01*
X0475902Y0157146D02*
X0475902Y0160216D01*
X0476669Y0160216D01*
X0475902Y0151008D02*
X0480506Y0151008D01*
X0478204Y0151008D02*
X0478204Y0147939D01*
X0478204Y0146404D02*
X0478971Y0145637D01*
X0478971Y0143335D01*
X0480506Y0143335D02*
X0475902Y0143335D01*
X0475902Y0145637D01*
X0476669Y0146404D01*
X0478204Y0146404D01*
X0480506Y0147939D02*
X0475902Y0147939D01*
X0476669Y0129387D02*
X0479738Y0126317D01*
X0480506Y0127085D01*
X0480506Y0128619D01*
X0479738Y0129387D01*
X0476669Y0129387D01*
X0475902Y0128619D01*
X0475902Y0127085D01*
X0476669Y0126317D01*
X0479738Y0126317D01*
X0479738Y0124783D02*
X0480506Y0124015D01*
X0480506Y0122481D01*
X0479738Y0121713D01*
X0478971Y0121713D01*
X0478204Y0122481D01*
X0478204Y0124015D01*
X0478971Y0124783D01*
X0479738Y0124783D01*
X0478204Y0124015D02*
X0477436Y0124783D01*
X0476669Y0124783D01*
X0475902Y0124015D01*
X0475902Y0122481D01*
X0476669Y0121713D01*
X0477436Y0121713D01*
X0478204Y0122481D01*
X0479738Y0120179D02*
X0476669Y0120179D01*
X0475902Y0119411D01*
X0475902Y0117109D01*
X0480506Y0117109D01*
X0480506Y0119411D01*
X0479738Y0120179D01*
X0480506Y0115575D02*
X0475902Y0115575D01*
X0478204Y0115575D02*
X0478204Y0112506D01*
X0478204Y0110971D02*
X0478971Y0110204D01*
X0478971Y0107902D01*
X0480506Y0107902D02*
X0475902Y0107902D01*
X0475902Y0110204D01*
X0476669Y0110971D01*
X0478204Y0110971D01*
X0480506Y0112506D02*
X0475902Y0112506D01*
X0445072Y0107902D02*
X0440469Y0107902D01*
X0440469Y0110204D01*
X0441236Y0110971D01*
X0442770Y0110971D01*
X0443538Y0110204D01*
X0443538Y0107902D01*
X0445072Y0147939D02*
X0440469Y0147939D01*
X0511335Y0147939D02*
X0515939Y0147939D01*
X0513637Y0147939D02*
X0513637Y0151008D01*
X0511335Y0151008D02*
X0515939Y0151008D01*
X0515939Y0152543D02*
X0515939Y0154844D01*
X0515171Y0155612D01*
X0512102Y0155612D01*
X0511335Y0154844D01*
X0511335Y0152543D01*
X0515939Y0152543D01*
X0515171Y0157146D02*
X0514404Y0157146D01*
X0513637Y0157914D01*
X0513637Y0159448D01*
X0514404Y0160216D01*
X0515171Y0160216D01*
X0515939Y0159448D01*
X0515939Y0157914D01*
X0515171Y0157146D01*
X0513637Y0157914D02*
X0512869Y0157146D01*
X0512102Y0157146D01*
X0511335Y0157914D01*
X0511335Y0159448D01*
X0512102Y0160216D01*
X0512869Y0160216D01*
X0513637Y0159448D01*
X0515171Y0161750D02*
X0515939Y0161750D01*
X0515171Y0161750D02*
X0512102Y0164820D01*
X0511335Y0164820D01*
X0511335Y0161750D01*
X0512102Y0146404D02*
X0513637Y0146404D01*
X0514404Y0145637D01*
X0514404Y0143335D01*
X0515939Y0143335D02*
X0511335Y0143335D01*
X0511335Y0145637D01*
X0512102Y0146404D01*
X0512102Y0129387D02*
X0512869Y0129387D01*
X0513637Y0128619D01*
X0513637Y0127085D01*
X0512869Y0126317D01*
X0512102Y0126317D01*
X0511335Y0127085D01*
X0511335Y0128619D01*
X0512102Y0129387D01*
X0513637Y0128619D02*
X0514404Y0129387D01*
X0515171Y0129387D01*
X0515939Y0128619D01*
X0515939Y0127085D01*
X0515171Y0126317D01*
X0514404Y0126317D01*
X0513637Y0127085D01*
X0514404Y0124783D02*
X0515171Y0124783D01*
X0515939Y0124015D01*
X0515939Y0122481D01*
X0515171Y0121713D01*
X0514404Y0121713D01*
X0513637Y0122481D01*
X0513637Y0124015D01*
X0514404Y0124783D01*
X0513637Y0124015D02*
X0512869Y0124783D01*
X0512102Y0124783D01*
X0511335Y0124015D01*
X0511335Y0122481D01*
X0512102Y0121713D01*
X0512869Y0121713D01*
X0513637Y0122481D01*
X0515171Y0120179D02*
X0512102Y0120179D01*
X0511335Y0119411D01*
X0511335Y0117109D01*
X0515939Y0117109D01*
X0515939Y0119411D01*
X0515171Y0120179D01*
X0515939Y0115575D02*
X0511335Y0115575D01*
X0513637Y0115575D02*
X0513637Y0112506D01*
X0513637Y0110971D02*
X0514404Y0110204D01*
X0514404Y0107902D01*
X0515939Y0107902D02*
X0511335Y0107902D01*
X0511335Y0110204D01*
X0512102Y0110971D01*
X0513637Y0110971D01*
X0515939Y0112506D02*
X0511335Y0112506D01*
X0546768Y0112506D02*
X0551372Y0112506D01*
X0549070Y0112506D02*
X0549070Y0115575D01*
X0546768Y0115575D02*
X0551372Y0115575D01*
X0551372Y0117109D02*
X0551372Y0119411D01*
X0550604Y0120179D01*
X0547535Y0120179D01*
X0546768Y0119411D01*
X0546768Y0117109D01*
X0551372Y0117109D01*
X0550604Y0121713D02*
X0551372Y0122481D01*
X0551372Y0124015D01*
X0550604Y0124783D01*
X0547535Y0124783D01*
X0546768Y0124015D01*
X0546768Y0122481D01*
X0547535Y0121713D01*
X0548302Y0121713D01*
X0549070Y0122481D01*
X0549070Y0124783D01*
X0549070Y0126317D02*
X0549070Y0128619D01*
X0549837Y0129387D01*
X0550604Y0129387D01*
X0551372Y0128619D01*
X0551372Y0127085D01*
X0550604Y0126317D01*
X0549070Y0126317D01*
X0547535Y0127852D01*
X0546768Y0129387D01*
X0546768Y0143335D02*
X0546768Y0145637D01*
X0547535Y0146404D01*
X0549070Y0146404D01*
X0549837Y0145637D01*
X0549837Y0143335D01*
X0551372Y0143335D02*
X0546768Y0143335D01*
X0546768Y0147939D02*
X0551372Y0147939D01*
X0549070Y0147939D02*
X0549070Y0151008D01*
X0546768Y0151008D02*
X0551372Y0151008D01*
X0551372Y0152543D02*
X0551372Y0154844D01*
X0550604Y0155612D01*
X0547535Y0155612D01*
X0546768Y0154844D01*
X0546768Y0152543D01*
X0551372Y0152543D01*
X0550604Y0157146D02*
X0551372Y0157914D01*
X0551372Y0159448D01*
X0550604Y0160216D01*
X0547535Y0160216D01*
X0546768Y0159448D01*
X0546768Y0157914D01*
X0547535Y0157146D01*
X0548302Y0157146D01*
X0549070Y0157914D01*
X0549070Y0160216D01*
X0549070Y0161750D02*
X0548302Y0163285D01*
X0548302Y0164052D01*
X0549070Y0164820D01*
X0550604Y0164820D01*
X0551372Y0164052D01*
X0551372Y0162518D01*
X0550604Y0161750D01*
X0549070Y0161750D02*
X0546768Y0161750D01*
X0546768Y0164820D01*
X0546768Y0178768D02*
X0546768Y0181070D01*
X0547535Y0181837D01*
X0549070Y0181837D01*
X0549837Y0181070D01*
X0549837Y0178768D01*
X0551372Y0178768D02*
X0546768Y0178768D01*
X0546768Y0183372D02*
X0551372Y0183372D01*
X0549070Y0183372D02*
X0549070Y0186441D01*
X0546768Y0186441D02*
X0551372Y0186441D01*
X0551372Y0187976D02*
X0546768Y0187976D01*
X0546768Y0190278D01*
X0547535Y0191045D01*
X0550604Y0191045D01*
X0551372Y0190278D01*
X0551372Y0187976D01*
X0550604Y0192580D02*
X0551372Y0193347D01*
X0551372Y0194881D01*
X0550604Y0195649D01*
X0547535Y0195649D01*
X0546768Y0194881D01*
X0546768Y0193347D01*
X0547535Y0192580D01*
X0548302Y0192580D01*
X0549070Y0193347D01*
X0549070Y0195649D01*
X0549070Y0197183D02*
X0546768Y0199485D01*
X0551372Y0199485D01*
X0549070Y0200253D02*
X0549070Y0197183D01*
X0549837Y0214201D02*
X0549837Y0216503D01*
X0549070Y0217270D01*
X0547535Y0217270D01*
X0546768Y0216503D01*
X0546768Y0214201D01*
X0551372Y0214201D01*
X0551372Y0218805D02*
X0546768Y0218805D01*
X0549070Y0218805D02*
X0549070Y0221874D01*
X0546768Y0221874D02*
X0551372Y0221874D01*
X0551372Y0223409D02*
X0551372Y0225711D01*
X0550604Y0226478D01*
X0547535Y0226478D01*
X0546768Y0225711D01*
X0546768Y0223409D01*
X0551372Y0223409D01*
X0550604Y0228013D02*
X0551372Y0228780D01*
X0551372Y0230315D01*
X0550604Y0231082D01*
X0547535Y0231082D01*
X0546768Y0230315D01*
X0546768Y0228780D01*
X0547535Y0228013D01*
X0548302Y0228013D01*
X0549070Y0228780D01*
X0549070Y0231082D01*
X0550604Y0232616D02*
X0551372Y0233384D01*
X0551372Y0234918D01*
X0550604Y0235686D01*
X0549837Y0235686D01*
X0549070Y0234918D01*
X0549070Y0234151D01*
X0549070Y0234918D02*
X0548302Y0235686D01*
X0547535Y0235686D01*
X0546768Y0234918D01*
X0546768Y0233384D01*
X0547535Y0232616D01*
X0546768Y0249634D02*
X0546768Y0251936D01*
X0547535Y0252703D01*
X0549070Y0252703D01*
X0549837Y0251936D01*
X0549837Y0249634D01*
X0551372Y0249634D02*
X0546768Y0249634D01*
X0546768Y0254238D02*
X0551372Y0254238D01*
X0549070Y0254238D02*
X0549070Y0257307D01*
X0546768Y0257307D02*
X0551372Y0257307D01*
X0551372Y0258842D02*
X0551372Y0261144D01*
X0550604Y0261911D01*
X0547535Y0261911D01*
X0546768Y0261144D01*
X0546768Y0258842D01*
X0551372Y0258842D01*
X0550604Y0263446D02*
X0551372Y0264213D01*
X0551372Y0265748D01*
X0550604Y0266515D01*
X0547535Y0266515D01*
X0546768Y0265748D01*
X0546768Y0264213D01*
X0547535Y0263446D01*
X0548302Y0263446D01*
X0549070Y0264213D01*
X0549070Y0266515D01*
X0547535Y0268050D02*
X0546768Y0268817D01*
X0546768Y0270352D01*
X0547535Y0271119D01*
X0548302Y0271119D01*
X0551372Y0268050D01*
X0551372Y0271119D01*
X0551372Y0285067D02*
X0546768Y0285067D01*
X0546768Y0287369D01*
X0547535Y0288136D01*
X0549070Y0288136D01*
X0549837Y0287369D01*
X0549837Y0285067D01*
X0549070Y0289671D02*
X0549070Y0292740D01*
X0546768Y0292740D02*
X0551372Y0292740D01*
X0551372Y0294275D02*
X0551372Y0296577D01*
X0550604Y0297344D01*
X0547535Y0297344D01*
X0546768Y0296577D01*
X0546768Y0294275D01*
X0551372Y0294275D01*
X0551372Y0289671D02*
X0546768Y0289671D01*
X0547535Y0298879D02*
X0548302Y0298879D01*
X0549070Y0299646D01*
X0549070Y0301948D01*
X0550604Y0301948D02*
X0547535Y0301948D01*
X0546768Y0301181D01*
X0546768Y0299646D01*
X0547535Y0298879D01*
X0550604Y0298879D02*
X0551372Y0299646D01*
X0551372Y0301181D01*
X0550604Y0301948D01*
X0551372Y0303483D02*
X0551372Y0306552D01*
X0551372Y0305017D02*
X0546768Y0305017D01*
X0548302Y0303483D01*
X0573224Y0296843D02*
X0573224Y0295308D01*
X0573992Y0294541D01*
X0573224Y0293006D02*
X0573224Y0291472D01*
X0573224Y0292239D02*
X0577061Y0292239D01*
X0577828Y0291472D01*
X0577828Y0290704D01*
X0577061Y0289937D01*
X0577828Y0294541D02*
X0574759Y0297610D01*
X0573992Y0297610D01*
X0573224Y0296843D01*
X0577828Y0297610D02*
X0577828Y0294541D01*
X0551372Y0320500D02*
X0546768Y0320500D01*
X0546768Y0322802D01*
X0547535Y0323569D01*
X0549070Y0323569D01*
X0549837Y0322802D01*
X0549837Y0320500D01*
X0549070Y0325104D02*
X0549070Y0328173D01*
X0546768Y0328173D02*
X0551372Y0328173D01*
X0551372Y0329708D02*
X0546768Y0329708D01*
X0546768Y0332010D01*
X0547535Y0332777D01*
X0550604Y0332777D01*
X0551372Y0332010D01*
X0551372Y0329708D01*
X0551372Y0325104D02*
X0546768Y0325104D01*
X0547535Y0334312D02*
X0548302Y0334312D01*
X0549070Y0335079D01*
X0549070Y0337381D01*
X0550604Y0337381D02*
X0547535Y0337381D01*
X0546768Y0336614D01*
X0546768Y0335079D01*
X0547535Y0334312D01*
X0550604Y0334312D02*
X0551372Y0335079D01*
X0551372Y0336614D01*
X0550604Y0337381D01*
X0550604Y0338916D02*
X0547535Y0341985D01*
X0550604Y0341985D01*
X0551372Y0341218D01*
X0551372Y0339683D01*
X0550604Y0338916D01*
X0547535Y0338916D01*
X0546768Y0339683D01*
X0546768Y0341218D01*
X0547535Y0341985D01*
X0546768Y0355933D02*
X0546768Y0358235D01*
X0547535Y0359002D01*
X0549070Y0359002D01*
X0549837Y0358235D01*
X0549837Y0355933D01*
X0551372Y0355933D02*
X0546768Y0355933D01*
X0546768Y0360537D02*
X0551372Y0360537D01*
X0549070Y0360537D02*
X0549070Y0363606D01*
X0546768Y0363606D02*
X0551372Y0363606D01*
X0551372Y0365141D02*
X0551372Y0367443D01*
X0550604Y0368210D01*
X0547535Y0368210D01*
X0546768Y0367443D01*
X0546768Y0365141D01*
X0551372Y0365141D01*
X0550604Y0369745D02*
X0549837Y0369745D01*
X0549070Y0370512D01*
X0549070Y0372047D01*
X0549837Y0372814D01*
X0550604Y0372814D01*
X0551372Y0372047D01*
X0551372Y0370512D01*
X0550604Y0369745D01*
X0549070Y0370512D02*
X0548302Y0369745D01*
X0547535Y0369745D01*
X0546768Y0370512D01*
X0546768Y0372047D01*
X0547535Y0372814D01*
X0548302Y0372814D01*
X0549070Y0372047D01*
X0548302Y0374349D02*
X0547535Y0374349D01*
X0546768Y0375116D01*
X0546768Y0376651D01*
X0547535Y0377418D01*
X0550604Y0377418D01*
X0551372Y0376651D01*
X0551372Y0375116D01*
X0550604Y0374349D01*
X0549070Y0375116D02*
X0549070Y0377418D01*
X0549070Y0375116D02*
X0548302Y0374349D01*
X0515939Y0374349D02*
X0515939Y0377418D01*
X0515939Y0375883D02*
X0511335Y0375883D01*
X0512869Y0374349D01*
X0512869Y0372814D02*
X0513637Y0372047D01*
X0513637Y0370512D01*
X0512869Y0369745D01*
X0512102Y0369745D01*
X0511335Y0370512D01*
X0511335Y0372047D01*
X0512102Y0372814D01*
X0512869Y0372814D01*
X0513637Y0372047D02*
X0514404Y0372814D01*
X0515171Y0372814D01*
X0515939Y0372047D01*
X0515939Y0370512D01*
X0515171Y0369745D01*
X0514404Y0369745D01*
X0513637Y0370512D01*
X0515171Y0368210D02*
X0512102Y0368210D01*
X0511335Y0367443D01*
X0511335Y0365141D01*
X0515939Y0365141D01*
X0515939Y0367443D01*
X0515171Y0368210D01*
X0515939Y0363606D02*
X0511335Y0363606D01*
X0513637Y0363606D02*
X0513637Y0360537D01*
X0513637Y0359002D02*
X0514404Y0358235D01*
X0514404Y0355933D01*
X0515939Y0355933D02*
X0511335Y0355933D01*
X0511335Y0358235D01*
X0512102Y0359002D01*
X0513637Y0359002D01*
X0515939Y0360537D02*
X0511335Y0360537D01*
X0512102Y0341985D02*
X0511335Y0341218D01*
X0511335Y0339683D01*
X0512102Y0338916D01*
X0512102Y0337381D02*
X0512869Y0337381D01*
X0513637Y0336614D01*
X0513637Y0335079D01*
X0512869Y0334312D01*
X0512102Y0334312D01*
X0511335Y0335079D01*
X0511335Y0336614D01*
X0512102Y0337381D01*
X0513637Y0336614D02*
X0514404Y0337381D01*
X0515171Y0337381D01*
X0515939Y0336614D01*
X0515939Y0335079D01*
X0515171Y0334312D01*
X0514404Y0334312D01*
X0513637Y0335079D01*
X0515171Y0332777D02*
X0512102Y0332777D01*
X0511335Y0332010D01*
X0511335Y0329708D01*
X0515939Y0329708D01*
X0515939Y0332010D01*
X0515171Y0332777D01*
X0515939Y0328173D02*
X0511335Y0328173D01*
X0513637Y0328173D02*
X0513637Y0325104D01*
X0513637Y0323569D02*
X0512102Y0323569D01*
X0511335Y0322802D01*
X0511335Y0320500D01*
X0515939Y0320500D01*
X0514404Y0320500D02*
X0514404Y0322802D01*
X0513637Y0323569D01*
X0515939Y0325104D02*
X0511335Y0325104D01*
X0515939Y0338916D02*
X0512869Y0341985D01*
X0512102Y0341985D01*
X0515939Y0341985D02*
X0515939Y0338916D01*
X0480506Y0341218D02*
X0475902Y0341218D01*
X0478204Y0338916D01*
X0478204Y0341985D01*
X0476669Y0337381D02*
X0479738Y0334312D01*
X0480506Y0334312D01*
X0479738Y0332777D02*
X0476669Y0332777D01*
X0475902Y0332010D01*
X0475902Y0329708D01*
X0480506Y0329708D01*
X0480506Y0332010D01*
X0479738Y0332777D01*
X0475902Y0334312D02*
X0475902Y0337381D01*
X0476669Y0337381D01*
X0475902Y0328173D02*
X0480506Y0328173D01*
X0478204Y0328173D02*
X0478204Y0325104D01*
X0478204Y0323569D02*
X0476669Y0323569D01*
X0475902Y0322802D01*
X0475902Y0320500D01*
X0480506Y0320500D01*
X0478971Y0320500D02*
X0478971Y0322802D01*
X0478204Y0323569D01*
X0480506Y0325104D02*
X0475902Y0325104D01*
X0475902Y0306552D02*
X0475902Y0303483D01*
X0478204Y0303483D01*
X0477436Y0305017D01*
X0477436Y0305785D01*
X0478204Y0306552D01*
X0479738Y0306552D01*
X0480506Y0305785D01*
X0480506Y0304250D01*
X0479738Y0303483D01*
X0476669Y0301948D02*
X0479738Y0298879D01*
X0480506Y0298879D01*
X0479738Y0297344D02*
X0476669Y0297344D01*
X0475902Y0296577D01*
X0475902Y0294275D01*
X0480506Y0294275D01*
X0480506Y0296577D01*
X0479738Y0297344D01*
X0475902Y0298879D02*
X0475902Y0301948D01*
X0476669Y0301948D01*
X0475902Y0292740D02*
X0480506Y0292740D01*
X0478204Y0292740D02*
X0478204Y0289671D01*
X0478204Y0288136D02*
X0478971Y0287369D01*
X0478971Y0285067D01*
X0480506Y0285067D02*
X0475902Y0285067D01*
X0475902Y0287369D01*
X0476669Y0288136D01*
X0478204Y0288136D01*
X0480506Y0289671D02*
X0475902Y0289671D01*
X0475902Y0271119D02*
X0476669Y0269584D01*
X0478204Y0268050D01*
X0478204Y0270352D01*
X0478971Y0271119D01*
X0479738Y0271119D01*
X0480506Y0270352D01*
X0480506Y0268817D01*
X0479738Y0268050D01*
X0478204Y0268050D01*
X0476669Y0266515D02*
X0479738Y0263446D01*
X0480506Y0263446D01*
X0479738Y0261911D02*
X0476669Y0261911D01*
X0475902Y0261144D01*
X0475902Y0258842D01*
X0480506Y0258842D01*
X0480506Y0261144D01*
X0479738Y0261911D01*
X0475902Y0263446D02*
X0475902Y0266515D01*
X0476669Y0266515D01*
X0475902Y0257307D02*
X0480506Y0257307D01*
X0478204Y0257307D02*
X0478204Y0254238D01*
X0478204Y0252703D02*
X0478971Y0251936D01*
X0478971Y0249634D01*
X0480506Y0249634D02*
X0475902Y0249634D01*
X0475902Y0251936D01*
X0476669Y0252703D01*
X0478204Y0252703D01*
X0480506Y0254238D02*
X0475902Y0254238D01*
X0511335Y0254238D02*
X0515939Y0254238D01*
X0513637Y0254238D02*
X0513637Y0257307D01*
X0511335Y0257307D02*
X0515939Y0257307D01*
X0515939Y0258842D02*
X0515939Y0261144D01*
X0515171Y0261911D01*
X0512102Y0261911D01*
X0511335Y0261144D01*
X0511335Y0258842D01*
X0515939Y0258842D01*
X0515171Y0263446D02*
X0514404Y0263446D01*
X0513637Y0264213D01*
X0513637Y0265748D01*
X0514404Y0266515D01*
X0515171Y0266515D01*
X0515939Y0265748D01*
X0515939Y0264213D01*
X0515171Y0263446D01*
X0513637Y0264213D02*
X0512869Y0263446D01*
X0512102Y0263446D01*
X0511335Y0264213D01*
X0511335Y0265748D01*
X0512102Y0266515D01*
X0512869Y0266515D01*
X0513637Y0265748D01*
X0513637Y0268050D02*
X0513637Y0271119D01*
X0515939Y0270352D02*
X0511335Y0270352D01*
X0513637Y0268050D01*
X0513637Y0252703D02*
X0512102Y0252703D01*
X0511335Y0251936D01*
X0511335Y0249634D01*
X0515939Y0249634D01*
X0514404Y0249634D02*
X0514404Y0251936D01*
X0513637Y0252703D01*
X0513637Y0235686D02*
X0512869Y0234918D01*
X0512869Y0234151D01*
X0513637Y0232616D01*
X0511335Y0232616D01*
X0511335Y0235686D01*
X0513637Y0235686D02*
X0515171Y0235686D01*
X0515939Y0234918D01*
X0515939Y0233384D01*
X0515171Y0232616D01*
X0515171Y0231082D02*
X0515939Y0230315D01*
X0515939Y0228780D01*
X0515171Y0228013D01*
X0514404Y0228013D01*
X0513637Y0228780D01*
X0513637Y0230315D01*
X0514404Y0231082D01*
X0515171Y0231082D01*
X0513637Y0230315D02*
X0512869Y0231082D01*
X0512102Y0231082D01*
X0511335Y0230315D01*
X0511335Y0228780D01*
X0512102Y0228013D01*
X0512869Y0228013D01*
X0513637Y0228780D01*
X0515171Y0226478D02*
X0512102Y0226478D01*
X0511335Y0225711D01*
X0511335Y0223409D01*
X0515939Y0223409D01*
X0515939Y0225711D01*
X0515171Y0226478D01*
X0515939Y0221874D02*
X0511335Y0221874D01*
X0513637Y0221874D02*
X0513637Y0218805D01*
X0513637Y0217270D02*
X0514404Y0216503D01*
X0514404Y0214201D01*
X0515939Y0214201D02*
X0511335Y0214201D01*
X0511335Y0216503D01*
X0512102Y0217270D01*
X0513637Y0217270D01*
X0515939Y0218805D02*
X0511335Y0218805D01*
X0511335Y0200253D02*
X0512102Y0198718D01*
X0513637Y0197183D01*
X0513637Y0199485D01*
X0514404Y0200253D01*
X0515171Y0200253D01*
X0515939Y0199485D01*
X0515939Y0197951D01*
X0515171Y0197183D01*
X0513637Y0197183D01*
X0514404Y0195649D02*
X0515171Y0195649D01*
X0515939Y0194881D01*
X0515939Y0193347D01*
X0515171Y0192580D01*
X0514404Y0192580D01*
X0513637Y0193347D01*
X0513637Y0194881D01*
X0514404Y0195649D01*
X0513637Y0194881D02*
X0512869Y0195649D01*
X0512102Y0195649D01*
X0511335Y0194881D01*
X0511335Y0193347D01*
X0512102Y0192580D01*
X0512869Y0192580D01*
X0513637Y0193347D01*
X0515171Y0191045D02*
X0512102Y0191045D01*
X0511335Y0190278D01*
X0511335Y0187976D01*
X0515939Y0187976D01*
X0515939Y0190278D01*
X0515171Y0191045D01*
X0515939Y0186441D02*
X0511335Y0186441D01*
X0513637Y0186441D02*
X0513637Y0183372D01*
X0513637Y0181837D02*
X0512102Y0181837D01*
X0511335Y0181070D01*
X0511335Y0178768D01*
X0515939Y0178768D01*
X0514404Y0178768D02*
X0514404Y0181070D01*
X0513637Y0181837D01*
X0515939Y0183372D02*
X0511335Y0183372D01*
X0547535Y0110971D02*
X0549070Y0110971D01*
X0549837Y0110204D01*
X0549837Y0107902D01*
X0551372Y0107902D02*
X0546768Y0107902D01*
X0546768Y0110204D01*
X0547535Y0110971D01*
X0303340Y0249634D02*
X0298736Y0249634D01*
X0298736Y0251936D01*
X0299504Y0252703D01*
X0301038Y0252703D01*
X0301806Y0251936D01*
X0301806Y0249634D01*
X0301038Y0254238D02*
X0301038Y0257307D01*
X0298736Y0257307D02*
X0303340Y0257307D01*
X0303340Y0258842D02*
X0303340Y0261144D01*
X0302573Y0261911D01*
X0299504Y0261911D01*
X0298736Y0261144D01*
X0298736Y0258842D01*
X0303340Y0258842D01*
X0303340Y0254238D02*
X0298736Y0254238D01*
X0299504Y0263446D02*
X0298736Y0264213D01*
X0298736Y0265748D01*
X0299504Y0266515D01*
X0300271Y0266515D01*
X0301038Y0265748D01*
X0301806Y0266515D01*
X0302573Y0266515D01*
X0303340Y0265748D01*
X0303340Y0264213D01*
X0302573Y0263446D01*
X0301038Y0264980D02*
X0301038Y0265748D01*
X0301038Y0268050D02*
X0301038Y0270352D01*
X0301806Y0271119D01*
X0302573Y0271119D01*
X0303340Y0270352D01*
X0303340Y0268817D01*
X0302573Y0268050D01*
X0301038Y0268050D01*
X0299504Y0269584D01*
X0298736Y0271119D01*
X0298736Y0285067D02*
X0298736Y0287369D01*
X0299504Y0288136D01*
X0301038Y0288136D01*
X0301806Y0287369D01*
X0301806Y0285067D01*
X0303340Y0285067D02*
X0298736Y0285067D01*
X0298736Y0289671D02*
X0303340Y0289671D01*
X0301038Y0289671D02*
X0301038Y0292740D01*
X0298736Y0292740D02*
X0303340Y0292740D01*
X0303340Y0294275D02*
X0303340Y0296577D01*
X0302573Y0297344D01*
X0299504Y0297344D01*
X0298736Y0296577D01*
X0298736Y0294275D01*
X0303340Y0294275D01*
X0302573Y0298879D02*
X0303340Y0299646D01*
X0303340Y0301181D01*
X0302573Y0301948D01*
X0301806Y0301948D01*
X0301038Y0301181D01*
X0301038Y0300413D01*
X0301038Y0301181D02*
X0300271Y0301948D01*
X0299504Y0301948D01*
X0298736Y0301181D01*
X0298736Y0299646D01*
X0299504Y0298879D01*
X0298736Y0303483D02*
X0301038Y0303483D01*
X0300271Y0305017D01*
X0300271Y0305785D01*
X0301038Y0306552D01*
X0302573Y0306552D01*
X0303340Y0305785D01*
X0303340Y0304250D01*
X0302573Y0303483D01*
X0298736Y0303483D02*
X0298736Y0306552D01*
X0298736Y0320500D02*
X0298736Y0322802D01*
X0299504Y0323569D01*
X0301038Y0323569D01*
X0301806Y0322802D01*
X0301806Y0320500D01*
X0303340Y0320500D02*
X0298736Y0320500D01*
X0298736Y0325104D02*
X0303340Y0325104D01*
X0301038Y0325104D02*
X0301038Y0328173D01*
X0298736Y0328173D02*
X0303340Y0328173D01*
X0303340Y0329708D02*
X0298736Y0329708D01*
X0298736Y0332010D01*
X0299504Y0332777D01*
X0302573Y0332777D01*
X0303340Y0332010D01*
X0303340Y0329708D01*
X0302573Y0334312D02*
X0303340Y0335079D01*
X0303340Y0336614D01*
X0302573Y0337381D01*
X0301806Y0337381D01*
X0301038Y0336614D01*
X0301038Y0335846D01*
X0301038Y0336614D02*
X0300271Y0337381D01*
X0299504Y0337381D01*
X0298736Y0336614D01*
X0298736Y0335079D01*
X0299504Y0334312D01*
X0301038Y0338916D02*
X0301038Y0341985D01*
X0298736Y0341218D02*
X0301038Y0338916D01*
X0303340Y0341218D02*
X0298736Y0341218D01*
X0298736Y0355933D02*
X0298736Y0358235D01*
X0299504Y0359002D01*
X0301038Y0359002D01*
X0301806Y0358235D01*
X0301806Y0355933D01*
X0303340Y0355933D02*
X0298736Y0355933D01*
X0298736Y0360537D02*
X0303340Y0360537D01*
X0301038Y0360537D02*
X0301038Y0363606D01*
X0298736Y0363606D02*
X0303340Y0363606D01*
X0303340Y0365141D02*
X0303340Y0367443D01*
X0302573Y0368210D01*
X0299504Y0368210D01*
X0298736Y0367443D01*
X0298736Y0365141D01*
X0303340Y0365141D01*
X0302573Y0369745D02*
X0303340Y0370512D01*
X0303340Y0372047D01*
X0302573Y0372814D01*
X0301806Y0372814D01*
X0301038Y0372047D01*
X0301038Y0371279D01*
X0301038Y0372047D02*
X0300271Y0372814D01*
X0299504Y0372814D01*
X0298736Y0372047D01*
X0298736Y0370512D01*
X0299504Y0369745D01*
X0299504Y0374349D02*
X0298736Y0375116D01*
X0298736Y0376651D01*
X0299504Y0377418D01*
X0300271Y0377418D01*
X0301038Y0376651D01*
X0301806Y0377418D01*
X0302573Y0377418D01*
X0303340Y0376651D01*
X0303340Y0375116D01*
X0302573Y0374349D01*
X0301038Y0375883D02*
X0301038Y0376651D01*
X0475902Y0376651D02*
X0476669Y0377418D01*
X0477436Y0377418D01*
X0478204Y0376651D01*
X0478971Y0377418D01*
X0479738Y0377418D01*
X0480506Y0376651D01*
X0480506Y0375116D01*
X0479738Y0374349D01*
X0478204Y0375883D02*
X0478204Y0376651D01*
X0475902Y0376651D02*
X0475902Y0375116D01*
X0476669Y0374349D01*
X0476669Y0372814D02*
X0479738Y0369745D01*
X0480506Y0369745D01*
X0479738Y0368210D02*
X0476669Y0368210D01*
X0475902Y0367443D01*
X0475902Y0365141D01*
X0480506Y0365141D01*
X0480506Y0367443D01*
X0479738Y0368210D01*
X0475902Y0369745D02*
X0475902Y0372814D01*
X0476669Y0372814D01*
X0475902Y0363606D02*
X0480506Y0363606D01*
X0478204Y0363606D02*
X0478204Y0360537D01*
X0478204Y0359002D02*
X0478971Y0358235D01*
X0478971Y0355933D01*
X0480506Y0355933D02*
X0475902Y0355933D01*
X0475902Y0358235D01*
X0476669Y0359002D01*
X0478204Y0359002D01*
X0480506Y0360537D02*
X0475902Y0360537D01*
X0512102Y0306552D02*
X0512869Y0306552D01*
X0513637Y0305785D01*
X0514404Y0306552D01*
X0515171Y0306552D01*
X0515939Y0305785D01*
X0515939Y0304250D01*
X0515171Y0303483D01*
X0515171Y0301948D02*
X0515939Y0301181D01*
X0515939Y0299646D01*
X0515171Y0298879D01*
X0514404Y0298879D01*
X0513637Y0299646D01*
X0513637Y0301181D01*
X0514404Y0301948D01*
X0515171Y0301948D01*
X0513637Y0301181D02*
X0512869Y0301948D01*
X0512102Y0301948D01*
X0511335Y0301181D01*
X0511335Y0299646D01*
X0512102Y0298879D01*
X0512869Y0298879D01*
X0513637Y0299646D01*
X0515171Y0297344D02*
X0512102Y0297344D01*
X0511335Y0296577D01*
X0511335Y0294275D01*
X0515939Y0294275D01*
X0515939Y0296577D01*
X0515171Y0297344D01*
X0515939Y0292740D02*
X0511335Y0292740D01*
X0513637Y0292740D02*
X0513637Y0289671D01*
X0513637Y0288136D02*
X0514404Y0287369D01*
X0514404Y0285067D01*
X0515939Y0285067D02*
X0511335Y0285067D01*
X0511335Y0287369D01*
X0512102Y0288136D01*
X0513637Y0288136D01*
X0515939Y0289671D02*
X0511335Y0289671D01*
X0512102Y0303483D02*
X0511335Y0304250D01*
X0511335Y0305785D01*
X0512102Y0306552D01*
X0513637Y0305785D02*
X0513637Y0305017D01*
X0573224Y0338716D02*
X0573224Y0340250D01*
X0573224Y0339483D02*
X0577061Y0339483D01*
X0577828Y0338716D01*
X0577828Y0337948D01*
X0577061Y0337181D01*
X0577828Y0341785D02*
X0577828Y0344854D01*
X0577828Y0343320D02*
X0573224Y0343320D01*
X0574759Y0341785D01*
X0197041Y0199485D02*
X0192437Y0199485D01*
X0194739Y0197183D01*
X0194739Y0200253D01*
X0197041Y0195649D02*
X0197041Y0192580D01*
X0197041Y0194114D02*
X0192437Y0194114D01*
X0193972Y0192580D01*
X0193204Y0191045D02*
X0192437Y0190278D01*
X0192437Y0187976D01*
X0197041Y0187976D01*
X0197041Y0190278D01*
X0196274Y0191045D01*
X0193204Y0191045D01*
X0192437Y0186441D02*
X0197041Y0186441D01*
X0194739Y0186441D02*
X0194739Y0183372D01*
X0194739Y0181837D02*
X0195506Y0181070D01*
X0195506Y0178768D01*
X0197041Y0178768D02*
X0192437Y0178768D01*
X0192437Y0181070D01*
X0193204Y0181837D01*
X0194739Y0181837D01*
X0197041Y0183372D02*
X0192437Y0183372D01*
M02*
