G75*
%MOIN*%
%OFA0B0*%
%FSLAX25Y25*%
%IPPOS*%
%LPD*%
%AMOC8*
5,1,8,0,0,1.08239X$1,22.5*
%
%ADD10C,0.01100*%
%ADD11C,0.00800*%
%ADD12C,0.00400*%
%ADD13C,0.00500*%
D10*
X0194809Y0058876D02*
X0198745Y0062813D01*
X0198745Y0063797D01*
X0197761Y0064781D01*
X0195793Y0064781D01*
X0194809Y0063797D01*
X0194809Y0058876D02*
X0198745Y0058876D01*
X0201254Y0059860D02*
X0202238Y0058876D01*
X0204207Y0058876D01*
X0205191Y0059860D01*
X0205191Y0063797D01*
X0201254Y0059860D01*
X0201254Y0063797D01*
X0202238Y0064781D01*
X0204207Y0064781D01*
X0205191Y0063797D01*
X0207700Y0062813D02*
X0209668Y0064781D01*
X0209668Y0058876D01*
X0207700Y0058876D02*
X0211636Y0058876D01*
X0214145Y0059860D02*
X0215129Y0058876D01*
X0217098Y0058876D01*
X0218082Y0059860D01*
X0218082Y0061829D01*
X0217098Y0062813D01*
X0216113Y0062813D01*
X0214145Y0061829D01*
X0214145Y0064781D01*
X0218082Y0064781D01*
X0220591Y0063797D02*
X0221575Y0064781D01*
X0223543Y0064781D01*
X0224527Y0063797D01*
X0220591Y0059860D01*
X0221575Y0058876D01*
X0223543Y0058876D01*
X0224527Y0059860D01*
X0224527Y0063797D01*
X0227036Y0064781D02*
X0230973Y0064781D01*
X0230973Y0063797D01*
X0227036Y0059860D01*
X0227036Y0058876D01*
X0233482Y0058876D02*
X0237418Y0062813D01*
X0237418Y0063797D01*
X0236434Y0064781D01*
X0234466Y0064781D01*
X0233482Y0063797D01*
X0233482Y0058876D02*
X0237418Y0058876D01*
X0239927Y0059860D02*
X0243864Y0063797D01*
X0243864Y0059860D01*
X0242880Y0058876D01*
X0240911Y0058876D01*
X0239927Y0059860D01*
X0239927Y0063797D01*
X0240911Y0064781D01*
X0242880Y0064781D01*
X0243864Y0063797D01*
X0252818Y0064781D02*
X0252818Y0058876D01*
X0256755Y0058876D01*
X0259264Y0058876D02*
X0261232Y0058876D01*
X0260248Y0058876D02*
X0260248Y0062813D01*
X0259264Y0062813D01*
X0260248Y0064781D02*
X0260248Y0065765D01*
X0263561Y0061829D02*
X0263561Y0059860D01*
X0264545Y0058876D01*
X0267497Y0058876D01*
X0270006Y0059860D02*
X0270990Y0058876D01*
X0272959Y0058876D01*
X0273943Y0060844D02*
X0270006Y0060844D01*
X0270006Y0059860D02*
X0270006Y0061829D01*
X0270990Y0062813D01*
X0272959Y0062813D01*
X0273943Y0061829D01*
X0273943Y0060844D01*
X0276452Y0058876D02*
X0276452Y0062813D01*
X0279404Y0062813D01*
X0280388Y0061829D01*
X0280388Y0058876D01*
X0282897Y0058876D02*
X0285850Y0058876D01*
X0286834Y0059860D01*
X0285850Y0060844D01*
X0283881Y0060844D01*
X0282897Y0061829D01*
X0283881Y0062813D01*
X0286834Y0062813D01*
X0289343Y0061829D02*
X0290327Y0062813D01*
X0292295Y0062813D01*
X0293279Y0061829D01*
X0293279Y0060844D01*
X0289343Y0060844D01*
X0289343Y0059860D02*
X0289343Y0061829D01*
X0289343Y0059860D02*
X0290327Y0058876D01*
X0292295Y0058876D01*
X0295788Y0059860D02*
X0295788Y0061829D01*
X0296772Y0062813D01*
X0299725Y0062813D01*
X0299725Y0064781D02*
X0299725Y0058876D01*
X0296772Y0058876D01*
X0295788Y0059860D01*
X0308679Y0059860D02*
X0309663Y0058876D01*
X0312616Y0058876D01*
X0312616Y0062813D01*
X0315125Y0062813D02*
X0318077Y0062813D01*
X0319061Y0061829D01*
X0319061Y0058876D01*
X0321570Y0059860D02*
X0322554Y0058876D01*
X0325507Y0058876D01*
X0325507Y0064781D01*
X0325507Y0062813D02*
X0322554Y0062813D01*
X0321570Y0061829D01*
X0321570Y0059860D01*
X0328016Y0059860D02*
X0329000Y0058876D01*
X0330968Y0058876D01*
X0331952Y0060844D02*
X0328016Y0060844D01*
X0328016Y0059860D02*
X0328016Y0061829D01*
X0329000Y0062813D01*
X0330968Y0062813D01*
X0331952Y0061829D01*
X0331952Y0060844D01*
X0334461Y0060844D02*
X0336429Y0062813D01*
X0337414Y0062813D01*
X0334461Y0062813D02*
X0334461Y0058876D01*
X0346278Y0059860D02*
X0347262Y0058876D01*
X0349230Y0058876D01*
X0350214Y0059860D01*
X0352723Y0058876D02*
X0356660Y0058876D01*
X0359169Y0058876D02*
X0359169Y0064781D01*
X0362121Y0064781D01*
X0363105Y0063797D01*
X0363105Y0061829D01*
X0362121Y0060844D01*
X0359169Y0060844D01*
X0361137Y0060844D02*
X0363105Y0058876D01*
X0365614Y0058876D02*
X0365614Y0064781D01*
X0369551Y0058876D01*
X0369551Y0064781D01*
X0378505Y0063797D02*
X0378505Y0059860D01*
X0379489Y0058876D01*
X0381458Y0058876D01*
X0382442Y0059860D01*
X0382442Y0063797D01*
X0381458Y0064781D01*
X0379489Y0064781D01*
X0378505Y0063797D01*
X0384951Y0064781D02*
X0384951Y0058876D01*
X0384951Y0061829D02*
X0388887Y0061829D01*
X0388887Y0064781D02*
X0388887Y0058876D01*
X0391396Y0058876D02*
X0395333Y0058876D01*
X0391396Y0058876D02*
X0391396Y0064781D01*
X0404287Y0062813D02*
X0406256Y0058876D01*
X0408224Y0062813D01*
X0410733Y0059860D02*
X0411717Y0059860D01*
X0411717Y0058876D01*
X0410733Y0058876D01*
X0410733Y0059860D01*
X0413956Y0058876D02*
X0417892Y0058876D01*
X0415924Y0058876D02*
X0415924Y0064781D01*
X0413956Y0062813D01*
X0420401Y0059860D02*
X0420401Y0058876D01*
X0421385Y0058876D01*
X0421385Y0059860D01*
X0420401Y0059860D01*
X0423624Y0058876D02*
X0427560Y0062813D01*
X0427560Y0063797D01*
X0426576Y0064781D01*
X0424608Y0064781D01*
X0423624Y0063797D01*
X0423624Y0058876D02*
X0427560Y0058876D01*
X0356660Y0064781D02*
X0352723Y0064781D01*
X0352723Y0058876D01*
X0352723Y0061829D02*
X0354692Y0061829D01*
X0350214Y0063797D02*
X0349230Y0064781D01*
X0347262Y0064781D01*
X0346278Y0063797D01*
X0346278Y0059860D01*
X0315125Y0058876D02*
X0315125Y0062813D01*
X0308679Y0062813D02*
X0308679Y0059860D01*
X0267497Y0062813D02*
X0264545Y0062813D01*
X0263561Y0061829D01*
X0220591Y0059860D02*
X0220591Y0063797D01*
X0083264Y0186827D02*
X0082280Y0185843D01*
X0083264Y0186827D02*
X0083264Y0188795D01*
X0082280Y0189780D01*
X0081296Y0189780D01*
X0080312Y0188795D01*
X0080312Y0186827D01*
X0079327Y0185843D01*
X0078343Y0185843D01*
X0077359Y0186827D01*
X0077359Y0188795D01*
X0078343Y0189780D01*
X0080312Y0192288D02*
X0079327Y0193273D01*
X0079327Y0195241D01*
X0080312Y0196225D01*
X0081296Y0196225D01*
X0081296Y0192288D01*
X0082280Y0192288D02*
X0080312Y0192288D01*
X0082280Y0192288D02*
X0083264Y0193273D01*
X0083264Y0195241D01*
X0083264Y0198734D02*
X0079327Y0198734D01*
X0079327Y0201686D01*
X0080312Y0202671D01*
X0083264Y0202671D01*
X0083264Y0205179D02*
X0083264Y0208132D01*
X0082280Y0209116D01*
X0081296Y0208132D01*
X0081296Y0206164D01*
X0080312Y0205179D01*
X0079327Y0206164D01*
X0079327Y0209116D01*
X0080312Y0211625D02*
X0082280Y0211625D01*
X0083264Y0212609D01*
X0083264Y0214577D01*
X0082280Y0215562D01*
X0080312Y0215562D01*
X0079327Y0214577D01*
X0079327Y0212609D01*
X0080312Y0211625D01*
X0081296Y0218070D02*
X0079327Y0220039D01*
X0079327Y0221023D01*
X0079327Y0218070D02*
X0083264Y0218070D01*
X0083264Y0229887D02*
X0083264Y0232840D01*
X0082280Y0233824D01*
X0080312Y0233824D01*
X0079327Y0232840D01*
X0079327Y0229887D01*
X0077359Y0229887D02*
X0083264Y0229887D01*
X0082280Y0236333D02*
X0083264Y0237317D01*
X0083264Y0239285D01*
X0082280Y0240269D01*
X0080312Y0240269D01*
X0079327Y0239285D01*
X0079327Y0237317D01*
X0080312Y0236333D01*
X0082280Y0236333D01*
X0082280Y0242778D02*
X0081296Y0243762D01*
X0081296Y0246715D01*
X0080312Y0246715D02*
X0083264Y0246715D01*
X0083264Y0243762D01*
X0082280Y0242778D01*
X0079327Y0243762D02*
X0079327Y0245731D01*
X0080312Y0246715D01*
X0081296Y0249224D02*
X0079327Y0251192D01*
X0079327Y0252176D01*
X0080312Y0254595D02*
X0079327Y0255579D01*
X0079327Y0258532D01*
X0077359Y0258532D02*
X0083264Y0258532D01*
X0083264Y0255579D01*
X0082280Y0254595D01*
X0080312Y0254595D01*
X0079327Y0249224D02*
X0083264Y0249224D01*
X0082280Y0267486D02*
X0078343Y0271423D01*
X0082280Y0271423D01*
X0083264Y0270438D01*
X0083264Y0268470D01*
X0082280Y0267486D01*
X0078343Y0267486D01*
X0077359Y0268470D01*
X0077359Y0270438D01*
X0078343Y0271423D01*
X0078343Y0273931D02*
X0077359Y0274916D01*
X0077359Y0276884D01*
X0078343Y0277868D01*
X0082280Y0273931D01*
X0083264Y0274916D01*
X0083264Y0276884D01*
X0082280Y0277868D01*
X0078343Y0277868D01*
X0078343Y0280377D02*
X0077359Y0281361D01*
X0077359Y0283329D01*
X0078343Y0284314D01*
X0079327Y0284314D01*
X0083264Y0280377D01*
X0083264Y0284314D01*
X0082280Y0273931D02*
X0078343Y0273931D01*
X0286374Y0425530D02*
X0286374Y0431435D01*
X0288343Y0429466D01*
X0290311Y0431435D01*
X0290311Y0425530D01*
X0292820Y0425530D02*
X0294788Y0425530D01*
X0293804Y0425530D02*
X0293804Y0429466D01*
X0292820Y0429466D01*
X0293804Y0431435D02*
X0293804Y0432419D01*
X0297117Y0429466D02*
X0297117Y0425530D01*
X0297117Y0427498D02*
X0299085Y0429466D01*
X0300069Y0429466D01*
X0302488Y0429466D02*
X0303472Y0429466D01*
X0303472Y0425530D01*
X0302488Y0425530D02*
X0304456Y0425530D01*
X0306785Y0426514D02*
X0307769Y0427498D01*
X0310722Y0427498D01*
X0310722Y0428482D02*
X0310722Y0425530D01*
X0307769Y0425530D01*
X0306785Y0426514D01*
X0307769Y0429466D02*
X0309737Y0429466D01*
X0310722Y0428482D01*
X0313230Y0429466D02*
X0313230Y0425530D01*
X0315199Y0425530D02*
X0315199Y0428482D01*
X0316183Y0429466D01*
X0317167Y0428482D01*
X0317167Y0425530D01*
X0315199Y0428482D02*
X0314215Y0429466D01*
X0313230Y0429466D01*
X0303472Y0431435D02*
X0303472Y0432419D01*
D11*
X0601169Y0372058D02*
X0601169Y0332058D01*
X0607176Y0332058D01*
X0609078Y0332058D01*
X0624813Y0332058D01*
X0626752Y0332058D01*
X0626752Y0372058D01*
X0629429Y0372058D01*
X0631878Y0372058D01*
X0633059Y0372058D01*
X0633059Y0332058D01*
X0631878Y0332058D01*
X0631878Y0372058D01*
X0629429Y0372058D02*
X0629429Y0332058D01*
X0630213Y0332058D01*
X0631878Y0332058D01*
X0630803Y0330849D02*
X0630213Y0331551D01*
X0630213Y0332058D01*
X0629429Y0332058D02*
X0628583Y0332058D01*
X0626752Y0332058D01*
X0627992Y0330849D02*
X0628583Y0331551D01*
X0628583Y0332058D01*
X0627992Y0330849D02*
X0627992Y0329814D01*
X0630803Y0329814D01*
X0630803Y0330849D01*
X0609477Y0342058D02*
X0609479Y0342243D01*
X0609486Y0342428D01*
X0609497Y0342613D01*
X0609513Y0342797D01*
X0609534Y0342981D01*
X0609559Y0343164D01*
X0609588Y0343347D01*
X0609622Y0343529D01*
X0609660Y0343710D01*
X0609703Y0343890D01*
X0609750Y0344069D01*
X0609802Y0344246D01*
X0609858Y0344423D01*
X0609918Y0344598D01*
X0609982Y0344771D01*
X0610051Y0344943D01*
X0610124Y0345113D01*
X0610201Y0345281D01*
X0610282Y0345448D01*
X0610367Y0345612D01*
X0610456Y0345774D01*
X0610550Y0345934D01*
X0610647Y0346091D01*
X0610748Y0346246D01*
X0610852Y0346399D01*
X0610961Y0346549D01*
X0611073Y0346696D01*
X0611188Y0346841D01*
X0611307Y0346982D01*
X0611430Y0347121D01*
X0611556Y0347256D01*
X0611685Y0347389D01*
X0611818Y0347518D01*
X0611953Y0347644D01*
X0612092Y0347767D01*
X0612233Y0347886D01*
X0612378Y0348001D01*
X0612525Y0348113D01*
X0612675Y0348222D01*
X0612828Y0348326D01*
X0612983Y0348427D01*
X0613140Y0348524D01*
X0613300Y0348618D01*
X0613462Y0348707D01*
X0613626Y0348792D01*
X0613793Y0348873D01*
X0613961Y0348950D01*
X0614131Y0349023D01*
X0614303Y0349092D01*
X0614476Y0349156D01*
X0614651Y0349216D01*
X0614828Y0349272D01*
X0615005Y0349324D01*
X0615184Y0349371D01*
X0615364Y0349414D01*
X0615545Y0349452D01*
X0615727Y0349486D01*
X0615910Y0349515D01*
X0616093Y0349540D01*
X0616277Y0349561D01*
X0616461Y0349577D01*
X0616646Y0349588D01*
X0616831Y0349595D01*
X0617016Y0349597D01*
X0617201Y0349595D01*
X0617386Y0349588D01*
X0617571Y0349577D01*
X0617755Y0349561D01*
X0617939Y0349540D01*
X0618122Y0349515D01*
X0618305Y0349486D01*
X0618487Y0349452D01*
X0618668Y0349414D01*
X0618848Y0349371D01*
X0619027Y0349324D01*
X0619204Y0349272D01*
X0619381Y0349216D01*
X0619556Y0349156D01*
X0619729Y0349092D01*
X0619901Y0349023D01*
X0620071Y0348950D01*
X0620239Y0348873D01*
X0620406Y0348792D01*
X0620570Y0348707D01*
X0620732Y0348618D01*
X0620892Y0348524D01*
X0621049Y0348427D01*
X0621204Y0348326D01*
X0621357Y0348222D01*
X0621507Y0348113D01*
X0621654Y0348001D01*
X0621799Y0347886D01*
X0621940Y0347767D01*
X0622079Y0347644D01*
X0622214Y0347518D01*
X0622347Y0347389D01*
X0622476Y0347256D01*
X0622602Y0347121D01*
X0622725Y0346982D01*
X0622844Y0346841D01*
X0622959Y0346696D01*
X0623071Y0346549D01*
X0623180Y0346399D01*
X0623284Y0346246D01*
X0623385Y0346091D01*
X0623482Y0345934D01*
X0623576Y0345774D01*
X0623665Y0345612D01*
X0623750Y0345448D01*
X0623831Y0345281D01*
X0623908Y0345113D01*
X0623981Y0344943D01*
X0624050Y0344771D01*
X0624114Y0344598D01*
X0624174Y0344423D01*
X0624230Y0344246D01*
X0624282Y0344069D01*
X0624329Y0343890D01*
X0624372Y0343710D01*
X0624410Y0343529D01*
X0624444Y0343347D01*
X0624473Y0343164D01*
X0624498Y0342981D01*
X0624519Y0342797D01*
X0624535Y0342613D01*
X0624546Y0342428D01*
X0624553Y0342243D01*
X0624555Y0342058D01*
X0624553Y0341873D01*
X0624546Y0341688D01*
X0624535Y0341503D01*
X0624519Y0341319D01*
X0624498Y0341135D01*
X0624473Y0340952D01*
X0624444Y0340769D01*
X0624410Y0340587D01*
X0624372Y0340406D01*
X0624329Y0340226D01*
X0624282Y0340047D01*
X0624230Y0339870D01*
X0624174Y0339693D01*
X0624114Y0339518D01*
X0624050Y0339345D01*
X0623981Y0339173D01*
X0623908Y0339003D01*
X0623831Y0338835D01*
X0623750Y0338668D01*
X0623665Y0338504D01*
X0623576Y0338342D01*
X0623482Y0338182D01*
X0623385Y0338025D01*
X0623284Y0337870D01*
X0623180Y0337717D01*
X0623071Y0337567D01*
X0622959Y0337420D01*
X0622844Y0337275D01*
X0622725Y0337134D01*
X0622602Y0336995D01*
X0622476Y0336860D01*
X0622347Y0336727D01*
X0622214Y0336598D01*
X0622079Y0336472D01*
X0621940Y0336349D01*
X0621799Y0336230D01*
X0621654Y0336115D01*
X0621507Y0336003D01*
X0621357Y0335894D01*
X0621204Y0335790D01*
X0621049Y0335689D01*
X0620892Y0335592D01*
X0620732Y0335498D01*
X0620570Y0335409D01*
X0620406Y0335324D01*
X0620239Y0335243D01*
X0620071Y0335166D01*
X0619901Y0335093D01*
X0619729Y0335024D01*
X0619556Y0334960D01*
X0619381Y0334900D01*
X0619204Y0334844D01*
X0619027Y0334792D01*
X0618848Y0334745D01*
X0618668Y0334702D01*
X0618487Y0334664D01*
X0618305Y0334630D01*
X0618122Y0334601D01*
X0617939Y0334576D01*
X0617755Y0334555D01*
X0617571Y0334539D01*
X0617386Y0334528D01*
X0617201Y0334521D01*
X0617016Y0334519D01*
X0616831Y0334521D01*
X0616646Y0334528D01*
X0616461Y0334539D01*
X0616277Y0334555D01*
X0616093Y0334576D01*
X0615910Y0334601D01*
X0615727Y0334630D01*
X0615545Y0334664D01*
X0615364Y0334702D01*
X0615184Y0334745D01*
X0615005Y0334792D01*
X0614828Y0334844D01*
X0614651Y0334900D01*
X0614476Y0334960D01*
X0614303Y0335024D01*
X0614131Y0335093D01*
X0613961Y0335166D01*
X0613793Y0335243D01*
X0613626Y0335324D01*
X0613462Y0335409D01*
X0613300Y0335498D01*
X0613140Y0335592D01*
X0612983Y0335689D01*
X0612828Y0335790D01*
X0612675Y0335894D01*
X0612525Y0336003D01*
X0612378Y0336115D01*
X0612233Y0336230D01*
X0612092Y0336349D01*
X0611953Y0336472D01*
X0611818Y0336598D01*
X0611685Y0336727D01*
X0611556Y0336860D01*
X0611430Y0336995D01*
X0611307Y0337134D01*
X0611188Y0337275D01*
X0611073Y0337420D01*
X0610961Y0337567D01*
X0610852Y0337717D01*
X0610748Y0337870D01*
X0610647Y0338025D01*
X0610550Y0338182D01*
X0610456Y0338342D01*
X0610367Y0338504D01*
X0610282Y0338668D01*
X0610201Y0338835D01*
X0610124Y0339003D01*
X0610051Y0339173D01*
X0609982Y0339345D01*
X0609918Y0339518D01*
X0609858Y0339693D01*
X0609802Y0339870D01*
X0609750Y0340047D01*
X0609703Y0340226D01*
X0609660Y0340406D01*
X0609622Y0340587D01*
X0609588Y0340769D01*
X0609559Y0340952D01*
X0609534Y0341135D01*
X0609513Y0341319D01*
X0609497Y0341503D01*
X0609486Y0341688D01*
X0609479Y0341873D01*
X0609477Y0342058D01*
X0607176Y0332058D02*
X0607176Y0372058D01*
X0601169Y0372058D01*
X0607176Y0372058D02*
X0609078Y0372058D01*
X0624813Y0372058D01*
X0626752Y0372058D01*
X0609477Y0362058D02*
X0609479Y0362243D01*
X0609486Y0362428D01*
X0609497Y0362613D01*
X0609513Y0362797D01*
X0609534Y0362981D01*
X0609559Y0363164D01*
X0609588Y0363347D01*
X0609622Y0363529D01*
X0609660Y0363710D01*
X0609703Y0363890D01*
X0609750Y0364069D01*
X0609802Y0364246D01*
X0609858Y0364423D01*
X0609918Y0364598D01*
X0609982Y0364771D01*
X0610051Y0364943D01*
X0610124Y0365113D01*
X0610201Y0365281D01*
X0610282Y0365448D01*
X0610367Y0365612D01*
X0610456Y0365774D01*
X0610550Y0365934D01*
X0610647Y0366091D01*
X0610748Y0366246D01*
X0610852Y0366399D01*
X0610961Y0366549D01*
X0611073Y0366696D01*
X0611188Y0366841D01*
X0611307Y0366982D01*
X0611430Y0367121D01*
X0611556Y0367256D01*
X0611685Y0367389D01*
X0611818Y0367518D01*
X0611953Y0367644D01*
X0612092Y0367767D01*
X0612233Y0367886D01*
X0612378Y0368001D01*
X0612525Y0368113D01*
X0612675Y0368222D01*
X0612828Y0368326D01*
X0612983Y0368427D01*
X0613140Y0368524D01*
X0613300Y0368618D01*
X0613462Y0368707D01*
X0613626Y0368792D01*
X0613793Y0368873D01*
X0613961Y0368950D01*
X0614131Y0369023D01*
X0614303Y0369092D01*
X0614476Y0369156D01*
X0614651Y0369216D01*
X0614828Y0369272D01*
X0615005Y0369324D01*
X0615184Y0369371D01*
X0615364Y0369414D01*
X0615545Y0369452D01*
X0615727Y0369486D01*
X0615910Y0369515D01*
X0616093Y0369540D01*
X0616277Y0369561D01*
X0616461Y0369577D01*
X0616646Y0369588D01*
X0616831Y0369595D01*
X0617016Y0369597D01*
X0617201Y0369595D01*
X0617386Y0369588D01*
X0617571Y0369577D01*
X0617755Y0369561D01*
X0617939Y0369540D01*
X0618122Y0369515D01*
X0618305Y0369486D01*
X0618487Y0369452D01*
X0618668Y0369414D01*
X0618848Y0369371D01*
X0619027Y0369324D01*
X0619204Y0369272D01*
X0619381Y0369216D01*
X0619556Y0369156D01*
X0619729Y0369092D01*
X0619901Y0369023D01*
X0620071Y0368950D01*
X0620239Y0368873D01*
X0620406Y0368792D01*
X0620570Y0368707D01*
X0620732Y0368618D01*
X0620892Y0368524D01*
X0621049Y0368427D01*
X0621204Y0368326D01*
X0621357Y0368222D01*
X0621507Y0368113D01*
X0621654Y0368001D01*
X0621799Y0367886D01*
X0621940Y0367767D01*
X0622079Y0367644D01*
X0622214Y0367518D01*
X0622347Y0367389D01*
X0622476Y0367256D01*
X0622602Y0367121D01*
X0622725Y0366982D01*
X0622844Y0366841D01*
X0622959Y0366696D01*
X0623071Y0366549D01*
X0623180Y0366399D01*
X0623284Y0366246D01*
X0623385Y0366091D01*
X0623482Y0365934D01*
X0623576Y0365774D01*
X0623665Y0365612D01*
X0623750Y0365448D01*
X0623831Y0365281D01*
X0623908Y0365113D01*
X0623981Y0364943D01*
X0624050Y0364771D01*
X0624114Y0364598D01*
X0624174Y0364423D01*
X0624230Y0364246D01*
X0624282Y0364069D01*
X0624329Y0363890D01*
X0624372Y0363710D01*
X0624410Y0363529D01*
X0624444Y0363347D01*
X0624473Y0363164D01*
X0624498Y0362981D01*
X0624519Y0362797D01*
X0624535Y0362613D01*
X0624546Y0362428D01*
X0624553Y0362243D01*
X0624555Y0362058D01*
X0624553Y0361873D01*
X0624546Y0361688D01*
X0624535Y0361503D01*
X0624519Y0361319D01*
X0624498Y0361135D01*
X0624473Y0360952D01*
X0624444Y0360769D01*
X0624410Y0360587D01*
X0624372Y0360406D01*
X0624329Y0360226D01*
X0624282Y0360047D01*
X0624230Y0359870D01*
X0624174Y0359693D01*
X0624114Y0359518D01*
X0624050Y0359345D01*
X0623981Y0359173D01*
X0623908Y0359003D01*
X0623831Y0358835D01*
X0623750Y0358668D01*
X0623665Y0358504D01*
X0623576Y0358342D01*
X0623482Y0358182D01*
X0623385Y0358025D01*
X0623284Y0357870D01*
X0623180Y0357717D01*
X0623071Y0357567D01*
X0622959Y0357420D01*
X0622844Y0357275D01*
X0622725Y0357134D01*
X0622602Y0356995D01*
X0622476Y0356860D01*
X0622347Y0356727D01*
X0622214Y0356598D01*
X0622079Y0356472D01*
X0621940Y0356349D01*
X0621799Y0356230D01*
X0621654Y0356115D01*
X0621507Y0356003D01*
X0621357Y0355894D01*
X0621204Y0355790D01*
X0621049Y0355689D01*
X0620892Y0355592D01*
X0620732Y0355498D01*
X0620570Y0355409D01*
X0620406Y0355324D01*
X0620239Y0355243D01*
X0620071Y0355166D01*
X0619901Y0355093D01*
X0619729Y0355024D01*
X0619556Y0354960D01*
X0619381Y0354900D01*
X0619204Y0354844D01*
X0619027Y0354792D01*
X0618848Y0354745D01*
X0618668Y0354702D01*
X0618487Y0354664D01*
X0618305Y0354630D01*
X0618122Y0354601D01*
X0617939Y0354576D01*
X0617755Y0354555D01*
X0617571Y0354539D01*
X0617386Y0354528D01*
X0617201Y0354521D01*
X0617016Y0354519D01*
X0616831Y0354521D01*
X0616646Y0354528D01*
X0616461Y0354539D01*
X0616277Y0354555D01*
X0616093Y0354576D01*
X0615910Y0354601D01*
X0615727Y0354630D01*
X0615545Y0354664D01*
X0615364Y0354702D01*
X0615184Y0354745D01*
X0615005Y0354792D01*
X0614828Y0354844D01*
X0614651Y0354900D01*
X0614476Y0354960D01*
X0614303Y0355024D01*
X0614131Y0355093D01*
X0613961Y0355166D01*
X0613793Y0355243D01*
X0613626Y0355324D01*
X0613462Y0355409D01*
X0613300Y0355498D01*
X0613140Y0355592D01*
X0612983Y0355689D01*
X0612828Y0355790D01*
X0612675Y0355894D01*
X0612525Y0356003D01*
X0612378Y0356115D01*
X0612233Y0356230D01*
X0612092Y0356349D01*
X0611953Y0356472D01*
X0611818Y0356598D01*
X0611685Y0356727D01*
X0611556Y0356860D01*
X0611430Y0356995D01*
X0611307Y0357134D01*
X0611188Y0357275D01*
X0611073Y0357420D01*
X0610961Y0357567D01*
X0610852Y0357717D01*
X0610748Y0357870D01*
X0610647Y0358025D01*
X0610550Y0358182D01*
X0610456Y0358342D01*
X0610367Y0358504D01*
X0610282Y0358668D01*
X0610201Y0358835D01*
X0610124Y0359003D01*
X0610051Y0359173D01*
X0609982Y0359345D01*
X0609918Y0359518D01*
X0609858Y0359693D01*
X0609802Y0359870D01*
X0609750Y0360047D01*
X0609703Y0360226D01*
X0609660Y0360406D01*
X0609622Y0360587D01*
X0609588Y0360769D01*
X0609559Y0360952D01*
X0609534Y0361135D01*
X0609513Y0361319D01*
X0609497Y0361503D01*
X0609486Y0361688D01*
X0609479Y0361873D01*
X0609477Y0362058D01*
X0609026Y0306519D02*
X0607124Y0306519D01*
X0601117Y0306519D01*
X0601117Y0106519D01*
X0607124Y0106519D01*
X0609026Y0106519D01*
X0624761Y0106519D01*
X0626700Y0106519D01*
X0626700Y0306519D01*
X0629377Y0306519D01*
X0631826Y0306519D01*
X0633007Y0306519D01*
X0633007Y0106519D01*
X0631826Y0106519D01*
X0631826Y0306519D01*
X0629377Y0306519D02*
X0629377Y0106519D01*
X0630161Y0106519D01*
X0631826Y0106519D01*
X0630751Y0105310D02*
X0630161Y0106012D01*
X0630161Y0106519D01*
X0629377Y0106519D02*
X0628531Y0106519D01*
X0626700Y0106519D01*
X0627940Y0105310D02*
X0628531Y0106012D01*
X0628531Y0106519D01*
X0627940Y0105310D02*
X0627940Y0104274D01*
X0630751Y0104274D01*
X0630751Y0105310D01*
X0609425Y0116519D02*
X0609427Y0116704D01*
X0609434Y0116889D01*
X0609445Y0117074D01*
X0609461Y0117258D01*
X0609482Y0117442D01*
X0609507Y0117625D01*
X0609536Y0117808D01*
X0609570Y0117990D01*
X0609608Y0118171D01*
X0609651Y0118351D01*
X0609698Y0118530D01*
X0609750Y0118707D01*
X0609806Y0118884D01*
X0609866Y0119059D01*
X0609930Y0119232D01*
X0609999Y0119404D01*
X0610072Y0119574D01*
X0610149Y0119742D01*
X0610230Y0119909D01*
X0610315Y0120073D01*
X0610404Y0120235D01*
X0610498Y0120395D01*
X0610595Y0120552D01*
X0610696Y0120707D01*
X0610800Y0120860D01*
X0610909Y0121010D01*
X0611021Y0121157D01*
X0611136Y0121302D01*
X0611255Y0121443D01*
X0611378Y0121582D01*
X0611504Y0121717D01*
X0611633Y0121850D01*
X0611766Y0121979D01*
X0611901Y0122105D01*
X0612040Y0122228D01*
X0612181Y0122347D01*
X0612326Y0122462D01*
X0612473Y0122574D01*
X0612623Y0122683D01*
X0612776Y0122787D01*
X0612931Y0122888D01*
X0613088Y0122985D01*
X0613248Y0123079D01*
X0613410Y0123168D01*
X0613574Y0123253D01*
X0613741Y0123334D01*
X0613909Y0123411D01*
X0614079Y0123484D01*
X0614251Y0123553D01*
X0614424Y0123617D01*
X0614599Y0123677D01*
X0614776Y0123733D01*
X0614953Y0123785D01*
X0615132Y0123832D01*
X0615312Y0123875D01*
X0615493Y0123913D01*
X0615675Y0123947D01*
X0615858Y0123976D01*
X0616041Y0124001D01*
X0616225Y0124022D01*
X0616409Y0124038D01*
X0616594Y0124049D01*
X0616779Y0124056D01*
X0616964Y0124058D01*
X0617149Y0124056D01*
X0617334Y0124049D01*
X0617519Y0124038D01*
X0617703Y0124022D01*
X0617887Y0124001D01*
X0618070Y0123976D01*
X0618253Y0123947D01*
X0618435Y0123913D01*
X0618616Y0123875D01*
X0618796Y0123832D01*
X0618975Y0123785D01*
X0619152Y0123733D01*
X0619329Y0123677D01*
X0619504Y0123617D01*
X0619677Y0123553D01*
X0619849Y0123484D01*
X0620019Y0123411D01*
X0620187Y0123334D01*
X0620354Y0123253D01*
X0620518Y0123168D01*
X0620680Y0123079D01*
X0620840Y0122985D01*
X0620997Y0122888D01*
X0621152Y0122787D01*
X0621305Y0122683D01*
X0621455Y0122574D01*
X0621602Y0122462D01*
X0621747Y0122347D01*
X0621888Y0122228D01*
X0622027Y0122105D01*
X0622162Y0121979D01*
X0622295Y0121850D01*
X0622424Y0121717D01*
X0622550Y0121582D01*
X0622673Y0121443D01*
X0622792Y0121302D01*
X0622907Y0121157D01*
X0623019Y0121010D01*
X0623128Y0120860D01*
X0623232Y0120707D01*
X0623333Y0120552D01*
X0623430Y0120395D01*
X0623524Y0120235D01*
X0623613Y0120073D01*
X0623698Y0119909D01*
X0623779Y0119742D01*
X0623856Y0119574D01*
X0623929Y0119404D01*
X0623998Y0119232D01*
X0624062Y0119059D01*
X0624122Y0118884D01*
X0624178Y0118707D01*
X0624230Y0118530D01*
X0624277Y0118351D01*
X0624320Y0118171D01*
X0624358Y0117990D01*
X0624392Y0117808D01*
X0624421Y0117625D01*
X0624446Y0117442D01*
X0624467Y0117258D01*
X0624483Y0117074D01*
X0624494Y0116889D01*
X0624501Y0116704D01*
X0624503Y0116519D01*
X0624501Y0116334D01*
X0624494Y0116149D01*
X0624483Y0115964D01*
X0624467Y0115780D01*
X0624446Y0115596D01*
X0624421Y0115413D01*
X0624392Y0115230D01*
X0624358Y0115048D01*
X0624320Y0114867D01*
X0624277Y0114687D01*
X0624230Y0114508D01*
X0624178Y0114331D01*
X0624122Y0114154D01*
X0624062Y0113979D01*
X0623998Y0113806D01*
X0623929Y0113634D01*
X0623856Y0113464D01*
X0623779Y0113296D01*
X0623698Y0113129D01*
X0623613Y0112965D01*
X0623524Y0112803D01*
X0623430Y0112643D01*
X0623333Y0112486D01*
X0623232Y0112331D01*
X0623128Y0112178D01*
X0623019Y0112028D01*
X0622907Y0111881D01*
X0622792Y0111736D01*
X0622673Y0111595D01*
X0622550Y0111456D01*
X0622424Y0111321D01*
X0622295Y0111188D01*
X0622162Y0111059D01*
X0622027Y0110933D01*
X0621888Y0110810D01*
X0621747Y0110691D01*
X0621602Y0110576D01*
X0621455Y0110464D01*
X0621305Y0110355D01*
X0621152Y0110251D01*
X0620997Y0110150D01*
X0620840Y0110053D01*
X0620680Y0109959D01*
X0620518Y0109870D01*
X0620354Y0109785D01*
X0620187Y0109704D01*
X0620019Y0109627D01*
X0619849Y0109554D01*
X0619677Y0109485D01*
X0619504Y0109421D01*
X0619329Y0109361D01*
X0619152Y0109305D01*
X0618975Y0109253D01*
X0618796Y0109206D01*
X0618616Y0109163D01*
X0618435Y0109125D01*
X0618253Y0109091D01*
X0618070Y0109062D01*
X0617887Y0109037D01*
X0617703Y0109016D01*
X0617519Y0109000D01*
X0617334Y0108989D01*
X0617149Y0108982D01*
X0616964Y0108980D01*
X0616779Y0108982D01*
X0616594Y0108989D01*
X0616409Y0109000D01*
X0616225Y0109016D01*
X0616041Y0109037D01*
X0615858Y0109062D01*
X0615675Y0109091D01*
X0615493Y0109125D01*
X0615312Y0109163D01*
X0615132Y0109206D01*
X0614953Y0109253D01*
X0614776Y0109305D01*
X0614599Y0109361D01*
X0614424Y0109421D01*
X0614251Y0109485D01*
X0614079Y0109554D01*
X0613909Y0109627D01*
X0613741Y0109704D01*
X0613574Y0109785D01*
X0613410Y0109870D01*
X0613248Y0109959D01*
X0613088Y0110053D01*
X0612931Y0110150D01*
X0612776Y0110251D01*
X0612623Y0110355D01*
X0612473Y0110464D01*
X0612326Y0110576D01*
X0612181Y0110691D01*
X0612040Y0110810D01*
X0611901Y0110933D01*
X0611766Y0111059D01*
X0611633Y0111188D01*
X0611504Y0111321D01*
X0611378Y0111456D01*
X0611255Y0111595D01*
X0611136Y0111736D01*
X0611021Y0111881D01*
X0610909Y0112028D01*
X0610800Y0112178D01*
X0610696Y0112331D01*
X0610595Y0112486D01*
X0610498Y0112643D01*
X0610404Y0112803D01*
X0610315Y0112965D01*
X0610230Y0113129D01*
X0610149Y0113296D01*
X0610072Y0113464D01*
X0609999Y0113634D01*
X0609930Y0113806D01*
X0609866Y0113979D01*
X0609806Y0114154D01*
X0609750Y0114331D01*
X0609698Y0114508D01*
X0609651Y0114687D01*
X0609608Y0114867D01*
X0609570Y0115048D01*
X0609536Y0115230D01*
X0609507Y0115413D01*
X0609482Y0115596D01*
X0609461Y0115780D01*
X0609445Y0115964D01*
X0609434Y0116149D01*
X0609427Y0116334D01*
X0609425Y0116519D01*
X0607124Y0106519D02*
X0607124Y0306519D01*
X0609026Y0306519D02*
X0624761Y0306519D01*
X0626700Y0306519D01*
X0609425Y0296519D02*
X0609427Y0296704D01*
X0609434Y0296889D01*
X0609445Y0297074D01*
X0609461Y0297258D01*
X0609482Y0297442D01*
X0609507Y0297625D01*
X0609536Y0297808D01*
X0609570Y0297990D01*
X0609608Y0298171D01*
X0609651Y0298351D01*
X0609698Y0298530D01*
X0609750Y0298707D01*
X0609806Y0298884D01*
X0609866Y0299059D01*
X0609930Y0299232D01*
X0609999Y0299404D01*
X0610072Y0299574D01*
X0610149Y0299742D01*
X0610230Y0299909D01*
X0610315Y0300073D01*
X0610404Y0300235D01*
X0610498Y0300395D01*
X0610595Y0300552D01*
X0610696Y0300707D01*
X0610800Y0300860D01*
X0610909Y0301010D01*
X0611021Y0301157D01*
X0611136Y0301302D01*
X0611255Y0301443D01*
X0611378Y0301582D01*
X0611504Y0301717D01*
X0611633Y0301850D01*
X0611766Y0301979D01*
X0611901Y0302105D01*
X0612040Y0302228D01*
X0612181Y0302347D01*
X0612326Y0302462D01*
X0612473Y0302574D01*
X0612623Y0302683D01*
X0612776Y0302787D01*
X0612931Y0302888D01*
X0613088Y0302985D01*
X0613248Y0303079D01*
X0613410Y0303168D01*
X0613574Y0303253D01*
X0613741Y0303334D01*
X0613909Y0303411D01*
X0614079Y0303484D01*
X0614251Y0303553D01*
X0614424Y0303617D01*
X0614599Y0303677D01*
X0614776Y0303733D01*
X0614953Y0303785D01*
X0615132Y0303832D01*
X0615312Y0303875D01*
X0615493Y0303913D01*
X0615675Y0303947D01*
X0615858Y0303976D01*
X0616041Y0304001D01*
X0616225Y0304022D01*
X0616409Y0304038D01*
X0616594Y0304049D01*
X0616779Y0304056D01*
X0616964Y0304058D01*
X0617149Y0304056D01*
X0617334Y0304049D01*
X0617519Y0304038D01*
X0617703Y0304022D01*
X0617887Y0304001D01*
X0618070Y0303976D01*
X0618253Y0303947D01*
X0618435Y0303913D01*
X0618616Y0303875D01*
X0618796Y0303832D01*
X0618975Y0303785D01*
X0619152Y0303733D01*
X0619329Y0303677D01*
X0619504Y0303617D01*
X0619677Y0303553D01*
X0619849Y0303484D01*
X0620019Y0303411D01*
X0620187Y0303334D01*
X0620354Y0303253D01*
X0620518Y0303168D01*
X0620680Y0303079D01*
X0620840Y0302985D01*
X0620997Y0302888D01*
X0621152Y0302787D01*
X0621305Y0302683D01*
X0621455Y0302574D01*
X0621602Y0302462D01*
X0621747Y0302347D01*
X0621888Y0302228D01*
X0622027Y0302105D01*
X0622162Y0301979D01*
X0622295Y0301850D01*
X0622424Y0301717D01*
X0622550Y0301582D01*
X0622673Y0301443D01*
X0622792Y0301302D01*
X0622907Y0301157D01*
X0623019Y0301010D01*
X0623128Y0300860D01*
X0623232Y0300707D01*
X0623333Y0300552D01*
X0623430Y0300395D01*
X0623524Y0300235D01*
X0623613Y0300073D01*
X0623698Y0299909D01*
X0623779Y0299742D01*
X0623856Y0299574D01*
X0623929Y0299404D01*
X0623998Y0299232D01*
X0624062Y0299059D01*
X0624122Y0298884D01*
X0624178Y0298707D01*
X0624230Y0298530D01*
X0624277Y0298351D01*
X0624320Y0298171D01*
X0624358Y0297990D01*
X0624392Y0297808D01*
X0624421Y0297625D01*
X0624446Y0297442D01*
X0624467Y0297258D01*
X0624483Y0297074D01*
X0624494Y0296889D01*
X0624501Y0296704D01*
X0624503Y0296519D01*
X0624501Y0296334D01*
X0624494Y0296149D01*
X0624483Y0295964D01*
X0624467Y0295780D01*
X0624446Y0295596D01*
X0624421Y0295413D01*
X0624392Y0295230D01*
X0624358Y0295048D01*
X0624320Y0294867D01*
X0624277Y0294687D01*
X0624230Y0294508D01*
X0624178Y0294331D01*
X0624122Y0294154D01*
X0624062Y0293979D01*
X0623998Y0293806D01*
X0623929Y0293634D01*
X0623856Y0293464D01*
X0623779Y0293296D01*
X0623698Y0293129D01*
X0623613Y0292965D01*
X0623524Y0292803D01*
X0623430Y0292643D01*
X0623333Y0292486D01*
X0623232Y0292331D01*
X0623128Y0292178D01*
X0623019Y0292028D01*
X0622907Y0291881D01*
X0622792Y0291736D01*
X0622673Y0291595D01*
X0622550Y0291456D01*
X0622424Y0291321D01*
X0622295Y0291188D01*
X0622162Y0291059D01*
X0622027Y0290933D01*
X0621888Y0290810D01*
X0621747Y0290691D01*
X0621602Y0290576D01*
X0621455Y0290464D01*
X0621305Y0290355D01*
X0621152Y0290251D01*
X0620997Y0290150D01*
X0620840Y0290053D01*
X0620680Y0289959D01*
X0620518Y0289870D01*
X0620354Y0289785D01*
X0620187Y0289704D01*
X0620019Y0289627D01*
X0619849Y0289554D01*
X0619677Y0289485D01*
X0619504Y0289421D01*
X0619329Y0289361D01*
X0619152Y0289305D01*
X0618975Y0289253D01*
X0618796Y0289206D01*
X0618616Y0289163D01*
X0618435Y0289125D01*
X0618253Y0289091D01*
X0618070Y0289062D01*
X0617887Y0289037D01*
X0617703Y0289016D01*
X0617519Y0289000D01*
X0617334Y0288989D01*
X0617149Y0288982D01*
X0616964Y0288980D01*
X0616779Y0288982D01*
X0616594Y0288989D01*
X0616409Y0289000D01*
X0616225Y0289016D01*
X0616041Y0289037D01*
X0615858Y0289062D01*
X0615675Y0289091D01*
X0615493Y0289125D01*
X0615312Y0289163D01*
X0615132Y0289206D01*
X0614953Y0289253D01*
X0614776Y0289305D01*
X0614599Y0289361D01*
X0614424Y0289421D01*
X0614251Y0289485D01*
X0614079Y0289554D01*
X0613909Y0289627D01*
X0613741Y0289704D01*
X0613574Y0289785D01*
X0613410Y0289870D01*
X0613248Y0289959D01*
X0613088Y0290053D01*
X0612931Y0290150D01*
X0612776Y0290251D01*
X0612623Y0290355D01*
X0612473Y0290464D01*
X0612326Y0290576D01*
X0612181Y0290691D01*
X0612040Y0290810D01*
X0611901Y0290933D01*
X0611766Y0291059D01*
X0611633Y0291188D01*
X0611504Y0291321D01*
X0611378Y0291456D01*
X0611255Y0291595D01*
X0611136Y0291736D01*
X0611021Y0291881D01*
X0610909Y0292028D01*
X0610800Y0292178D01*
X0610696Y0292331D01*
X0610595Y0292486D01*
X0610498Y0292643D01*
X0610404Y0292803D01*
X0610315Y0292965D01*
X0610230Y0293129D01*
X0610149Y0293296D01*
X0610072Y0293464D01*
X0609999Y0293634D01*
X0609930Y0293806D01*
X0609866Y0293979D01*
X0609806Y0294154D01*
X0609750Y0294331D01*
X0609698Y0294508D01*
X0609651Y0294687D01*
X0609608Y0294867D01*
X0609570Y0295048D01*
X0609536Y0295230D01*
X0609507Y0295413D01*
X0609482Y0295596D01*
X0609461Y0295780D01*
X0609445Y0295964D01*
X0609434Y0296149D01*
X0609427Y0296334D01*
X0609425Y0296519D01*
X0609425Y0276519D02*
X0609427Y0276704D01*
X0609434Y0276889D01*
X0609445Y0277074D01*
X0609461Y0277258D01*
X0609482Y0277442D01*
X0609507Y0277625D01*
X0609536Y0277808D01*
X0609570Y0277990D01*
X0609608Y0278171D01*
X0609651Y0278351D01*
X0609698Y0278530D01*
X0609750Y0278707D01*
X0609806Y0278884D01*
X0609866Y0279059D01*
X0609930Y0279232D01*
X0609999Y0279404D01*
X0610072Y0279574D01*
X0610149Y0279742D01*
X0610230Y0279909D01*
X0610315Y0280073D01*
X0610404Y0280235D01*
X0610498Y0280395D01*
X0610595Y0280552D01*
X0610696Y0280707D01*
X0610800Y0280860D01*
X0610909Y0281010D01*
X0611021Y0281157D01*
X0611136Y0281302D01*
X0611255Y0281443D01*
X0611378Y0281582D01*
X0611504Y0281717D01*
X0611633Y0281850D01*
X0611766Y0281979D01*
X0611901Y0282105D01*
X0612040Y0282228D01*
X0612181Y0282347D01*
X0612326Y0282462D01*
X0612473Y0282574D01*
X0612623Y0282683D01*
X0612776Y0282787D01*
X0612931Y0282888D01*
X0613088Y0282985D01*
X0613248Y0283079D01*
X0613410Y0283168D01*
X0613574Y0283253D01*
X0613741Y0283334D01*
X0613909Y0283411D01*
X0614079Y0283484D01*
X0614251Y0283553D01*
X0614424Y0283617D01*
X0614599Y0283677D01*
X0614776Y0283733D01*
X0614953Y0283785D01*
X0615132Y0283832D01*
X0615312Y0283875D01*
X0615493Y0283913D01*
X0615675Y0283947D01*
X0615858Y0283976D01*
X0616041Y0284001D01*
X0616225Y0284022D01*
X0616409Y0284038D01*
X0616594Y0284049D01*
X0616779Y0284056D01*
X0616964Y0284058D01*
X0617149Y0284056D01*
X0617334Y0284049D01*
X0617519Y0284038D01*
X0617703Y0284022D01*
X0617887Y0284001D01*
X0618070Y0283976D01*
X0618253Y0283947D01*
X0618435Y0283913D01*
X0618616Y0283875D01*
X0618796Y0283832D01*
X0618975Y0283785D01*
X0619152Y0283733D01*
X0619329Y0283677D01*
X0619504Y0283617D01*
X0619677Y0283553D01*
X0619849Y0283484D01*
X0620019Y0283411D01*
X0620187Y0283334D01*
X0620354Y0283253D01*
X0620518Y0283168D01*
X0620680Y0283079D01*
X0620840Y0282985D01*
X0620997Y0282888D01*
X0621152Y0282787D01*
X0621305Y0282683D01*
X0621455Y0282574D01*
X0621602Y0282462D01*
X0621747Y0282347D01*
X0621888Y0282228D01*
X0622027Y0282105D01*
X0622162Y0281979D01*
X0622295Y0281850D01*
X0622424Y0281717D01*
X0622550Y0281582D01*
X0622673Y0281443D01*
X0622792Y0281302D01*
X0622907Y0281157D01*
X0623019Y0281010D01*
X0623128Y0280860D01*
X0623232Y0280707D01*
X0623333Y0280552D01*
X0623430Y0280395D01*
X0623524Y0280235D01*
X0623613Y0280073D01*
X0623698Y0279909D01*
X0623779Y0279742D01*
X0623856Y0279574D01*
X0623929Y0279404D01*
X0623998Y0279232D01*
X0624062Y0279059D01*
X0624122Y0278884D01*
X0624178Y0278707D01*
X0624230Y0278530D01*
X0624277Y0278351D01*
X0624320Y0278171D01*
X0624358Y0277990D01*
X0624392Y0277808D01*
X0624421Y0277625D01*
X0624446Y0277442D01*
X0624467Y0277258D01*
X0624483Y0277074D01*
X0624494Y0276889D01*
X0624501Y0276704D01*
X0624503Y0276519D01*
X0624501Y0276334D01*
X0624494Y0276149D01*
X0624483Y0275964D01*
X0624467Y0275780D01*
X0624446Y0275596D01*
X0624421Y0275413D01*
X0624392Y0275230D01*
X0624358Y0275048D01*
X0624320Y0274867D01*
X0624277Y0274687D01*
X0624230Y0274508D01*
X0624178Y0274331D01*
X0624122Y0274154D01*
X0624062Y0273979D01*
X0623998Y0273806D01*
X0623929Y0273634D01*
X0623856Y0273464D01*
X0623779Y0273296D01*
X0623698Y0273129D01*
X0623613Y0272965D01*
X0623524Y0272803D01*
X0623430Y0272643D01*
X0623333Y0272486D01*
X0623232Y0272331D01*
X0623128Y0272178D01*
X0623019Y0272028D01*
X0622907Y0271881D01*
X0622792Y0271736D01*
X0622673Y0271595D01*
X0622550Y0271456D01*
X0622424Y0271321D01*
X0622295Y0271188D01*
X0622162Y0271059D01*
X0622027Y0270933D01*
X0621888Y0270810D01*
X0621747Y0270691D01*
X0621602Y0270576D01*
X0621455Y0270464D01*
X0621305Y0270355D01*
X0621152Y0270251D01*
X0620997Y0270150D01*
X0620840Y0270053D01*
X0620680Y0269959D01*
X0620518Y0269870D01*
X0620354Y0269785D01*
X0620187Y0269704D01*
X0620019Y0269627D01*
X0619849Y0269554D01*
X0619677Y0269485D01*
X0619504Y0269421D01*
X0619329Y0269361D01*
X0619152Y0269305D01*
X0618975Y0269253D01*
X0618796Y0269206D01*
X0618616Y0269163D01*
X0618435Y0269125D01*
X0618253Y0269091D01*
X0618070Y0269062D01*
X0617887Y0269037D01*
X0617703Y0269016D01*
X0617519Y0269000D01*
X0617334Y0268989D01*
X0617149Y0268982D01*
X0616964Y0268980D01*
X0616779Y0268982D01*
X0616594Y0268989D01*
X0616409Y0269000D01*
X0616225Y0269016D01*
X0616041Y0269037D01*
X0615858Y0269062D01*
X0615675Y0269091D01*
X0615493Y0269125D01*
X0615312Y0269163D01*
X0615132Y0269206D01*
X0614953Y0269253D01*
X0614776Y0269305D01*
X0614599Y0269361D01*
X0614424Y0269421D01*
X0614251Y0269485D01*
X0614079Y0269554D01*
X0613909Y0269627D01*
X0613741Y0269704D01*
X0613574Y0269785D01*
X0613410Y0269870D01*
X0613248Y0269959D01*
X0613088Y0270053D01*
X0612931Y0270150D01*
X0612776Y0270251D01*
X0612623Y0270355D01*
X0612473Y0270464D01*
X0612326Y0270576D01*
X0612181Y0270691D01*
X0612040Y0270810D01*
X0611901Y0270933D01*
X0611766Y0271059D01*
X0611633Y0271188D01*
X0611504Y0271321D01*
X0611378Y0271456D01*
X0611255Y0271595D01*
X0611136Y0271736D01*
X0611021Y0271881D01*
X0610909Y0272028D01*
X0610800Y0272178D01*
X0610696Y0272331D01*
X0610595Y0272486D01*
X0610498Y0272643D01*
X0610404Y0272803D01*
X0610315Y0272965D01*
X0610230Y0273129D01*
X0610149Y0273296D01*
X0610072Y0273464D01*
X0609999Y0273634D01*
X0609930Y0273806D01*
X0609866Y0273979D01*
X0609806Y0274154D01*
X0609750Y0274331D01*
X0609698Y0274508D01*
X0609651Y0274687D01*
X0609608Y0274867D01*
X0609570Y0275048D01*
X0609536Y0275230D01*
X0609507Y0275413D01*
X0609482Y0275596D01*
X0609461Y0275780D01*
X0609445Y0275964D01*
X0609434Y0276149D01*
X0609427Y0276334D01*
X0609425Y0276519D01*
X0609425Y0256519D02*
X0609427Y0256704D01*
X0609434Y0256889D01*
X0609445Y0257074D01*
X0609461Y0257258D01*
X0609482Y0257442D01*
X0609507Y0257625D01*
X0609536Y0257808D01*
X0609570Y0257990D01*
X0609608Y0258171D01*
X0609651Y0258351D01*
X0609698Y0258530D01*
X0609750Y0258707D01*
X0609806Y0258884D01*
X0609866Y0259059D01*
X0609930Y0259232D01*
X0609999Y0259404D01*
X0610072Y0259574D01*
X0610149Y0259742D01*
X0610230Y0259909D01*
X0610315Y0260073D01*
X0610404Y0260235D01*
X0610498Y0260395D01*
X0610595Y0260552D01*
X0610696Y0260707D01*
X0610800Y0260860D01*
X0610909Y0261010D01*
X0611021Y0261157D01*
X0611136Y0261302D01*
X0611255Y0261443D01*
X0611378Y0261582D01*
X0611504Y0261717D01*
X0611633Y0261850D01*
X0611766Y0261979D01*
X0611901Y0262105D01*
X0612040Y0262228D01*
X0612181Y0262347D01*
X0612326Y0262462D01*
X0612473Y0262574D01*
X0612623Y0262683D01*
X0612776Y0262787D01*
X0612931Y0262888D01*
X0613088Y0262985D01*
X0613248Y0263079D01*
X0613410Y0263168D01*
X0613574Y0263253D01*
X0613741Y0263334D01*
X0613909Y0263411D01*
X0614079Y0263484D01*
X0614251Y0263553D01*
X0614424Y0263617D01*
X0614599Y0263677D01*
X0614776Y0263733D01*
X0614953Y0263785D01*
X0615132Y0263832D01*
X0615312Y0263875D01*
X0615493Y0263913D01*
X0615675Y0263947D01*
X0615858Y0263976D01*
X0616041Y0264001D01*
X0616225Y0264022D01*
X0616409Y0264038D01*
X0616594Y0264049D01*
X0616779Y0264056D01*
X0616964Y0264058D01*
X0617149Y0264056D01*
X0617334Y0264049D01*
X0617519Y0264038D01*
X0617703Y0264022D01*
X0617887Y0264001D01*
X0618070Y0263976D01*
X0618253Y0263947D01*
X0618435Y0263913D01*
X0618616Y0263875D01*
X0618796Y0263832D01*
X0618975Y0263785D01*
X0619152Y0263733D01*
X0619329Y0263677D01*
X0619504Y0263617D01*
X0619677Y0263553D01*
X0619849Y0263484D01*
X0620019Y0263411D01*
X0620187Y0263334D01*
X0620354Y0263253D01*
X0620518Y0263168D01*
X0620680Y0263079D01*
X0620840Y0262985D01*
X0620997Y0262888D01*
X0621152Y0262787D01*
X0621305Y0262683D01*
X0621455Y0262574D01*
X0621602Y0262462D01*
X0621747Y0262347D01*
X0621888Y0262228D01*
X0622027Y0262105D01*
X0622162Y0261979D01*
X0622295Y0261850D01*
X0622424Y0261717D01*
X0622550Y0261582D01*
X0622673Y0261443D01*
X0622792Y0261302D01*
X0622907Y0261157D01*
X0623019Y0261010D01*
X0623128Y0260860D01*
X0623232Y0260707D01*
X0623333Y0260552D01*
X0623430Y0260395D01*
X0623524Y0260235D01*
X0623613Y0260073D01*
X0623698Y0259909D01*
X0623779Y0259742D01*
X0623856Y0259574D01*
X0623929Y0259404D01*
X0623998Y0259232D01*
X0624062Y0259059D01*
X0624122Y0258884D01*
X0624178Y0258707D01*
X0624230Y0258530D01*
X0624277Y0258351D01*
X0624320Y0258171D01*
X0624358Y0257990D01*
X0624392Y0257808D01*
X0624421Y0257625D01*
X0624446Y0257442D01*
X0624467Y0257258D01*
X0624483Y0257074D01*
X0624494Y0256889D01*
X0624501Y0256704D01*
X0624503Y0256519D01*
X0624501Y0256334D01*
X0624494Y0256149D01*
X0624483Y0255964D01*
X0624467Y0255780D01*
X0624446Y0255596D01*
X0624421Y0255413D01*
X0624392Y0255230D01*
X0624358Y0255048D01*
X0624320Y0254867D01*
X0624277Y0254687D01*
X0624230Y0254508D01*
X0624178Y0254331D01*
X0624122Y0254154D01*
X0624062Y0253979D01*
X0623998Y0253806D01*
X0623929Y0253634D01*
X0623856Y0253464D01*
X0623779Y0253296D01*
X0623698Y0253129D01*
X0623613Y0252965D01*
X0623524Y0252803D01*
X0623430Y0252643D01*
X0623333Y0252486D01*
X0623232Y0252331D01*
X0623128Y0252178D01*
X0623019Y0252028D01*
X0622907Y0251881D01*
X0622792Y0251736D01*
X0622673Y0251595D01*
X0622550Y0251456D01*
X0622424Y0251321D01*
X0622295Y0251188D01*
X0622162Y0251059D01*
X0622027Y0250933D01*
X0621888Y0250810D01*
X0621747Y0250691D01*
X0621602Y0250576D01*
X0621455Y0250464D01*
X0621305Y0250355D01*
X0621152Y0250251D01*
X0620997Y0250150D01*
X0620840Y0250053D01*
X0620680Y0249959D01*
X0620518Y0249870D01*
X0620354Y0249785D01*
X0620187Y0249704D01*
X0620019Y0249627D01*
X0619849Y0249554D01*
X0619677Y0249485D01*
X0619504Y0249421D01*
X0619329Y0249361D01*
X0619152Y0249305D01*
X0618975Y0249253D01*
X0618796Y0249206D01*
X0618616Y0249163D01*
X0618435Y0249125D01*
X0618253Y0249091D01*
X0618070Y0249062D01*
X0617887Y0249037D01*
X0617703Y0249016D01*
X0617519Y0249000D01*
X0617334Y0248989D01*
X0617149Y0248982D01*
X0616964Y0248980D01*
X0616779Y0248982D01*
X0616594Y0248989D01*
X0616409Y0249000D01*
X0616225Y0249016D01*
X0616041Y0249037D01*
X0615858Y0249062D01*
X0615675Y0249091D01*
X0615493Y0249125D01*
X0615312Y0249163D01*
X0615132Y0249206D01*
X0614953Y0249253D01*
X0614776Y0249305D01*
X0614599Y0249361D01*
X0614424Y0249421D01*
X0614251Y0249485D01*
X0614079Y0249554D01*
X0613909Y0249627D01*
X0613741Y0249704D01*
X0613574Y0249785D01*
X0613410Y0249870D01*
X0613248Y0249959D01*
X0613088Y0250053D01*
X0612931Y0250150D01*
X0612776Y0250251D01*
X0612623Y0250355D01*
X0612473Y0250464D01*
X0612326Y0250576D01*
X0612181Y0250691D01*
X0612040Y0250810D01*
X0611901Y0250933D01*
X0611766Y0251059D01*
X0611633Y0251188D01*
X0611504Y0251321D01*
X0611378Y0251456D01*
X0611255Y0251595D01*
X0611136Y0251736D01*
X0611021Y0251881D01*
X0610909Y0252028D01*
X0610800Y0252178D01*
X0610696Y0252331D01*
X0610595Y0252486D01*
X0610498Y0252643D01*
X0610404Y0252803D01*
X0610315Y0252965D01*
X0610230Y0253129D01*
X0610149Y0253296D01*
X0610072Y0253464D01*
X0609999Y0253634D01*
X0609930Y0253806D01*
X0609866Y0253979D01*
X0609806Y0254154D01*
X0609750Y0254331D01*
X0609698Y0254508D01*
X0609651Y0254687D01*
X0609608Y0254867D01*
X0609570Y0255048D01*
X0609536Y0255230D01*
X0609507Y0255413D01*
X0609482Y0255596D01*
X0609461Y0255780D01*
X0609445Y0255964D01*
X0609434Y0256149D01*
X0609427Y0256334D01*
X0609425Y0256519D01*
X0609425Y0236519D02*
X0609427Y0236704D01*
X0609434Y0236889D01*
X0609445Y0237074D01*
X0609461Y0237258D01*
X0609482Y0237442D01*
X0609507Y0237625D01*
X0609536Y0237808D01*
X0609570Y0237990D01*
X0609608Y0238171D01*
X0609651Y0238351D01*
X0609698Y0238530D01*
X0609750Y0238707D01*
X0609806Y0238884D01*
X0609866Y0239059D01*
X0609930Y0239232D01*
X0609999Y0239404D01*
X0610072Y0239574D01*
X0610149Y0239742D01*
X0610230Y0239909D01*
X0610315Y0240073D01*
X0610404Y0240235D01*
X0610498Y0240395D01*
X0610595Y0240552D01*
X0610696Y0240707D01*
X0610800Y0240860D01*
X0610909Y0241010D01*
X0611021Y0241157D01*
X0611136Y0241302D01*
X0611255Y0241443D01*
X0611378Y0241582D01*
X0611504Y0241717D01*
X0611633Y0241850D01*
X0611766Y0241979D01*
X0611901Y0242105D01*
X0612040Y0242228D01*
X0612181Y0242347D01*
X0612326Y0242462D01*
X0612473Y0242574D01*
X0612623Y0242683D01*
X0612776Y0242787D01*
X0612931Y0242888D01*
X0613088Y0242985D01*
X0613248Y0243079D01*
X0613410Y0243168D01*
X0613574Y0243253D01*
X0613741Y0243334D01*
X0613909Y0243411D01*
X0614079Y0243484D01*
X0614251Y0243553D01*
X0614424Y0243617D01*
X0614599Y0243677D01*
X0614776Y0243733D01*
X0614953Y0243785D01*
X0615132Y0243832D01*
X0615312Y0243875D01*
X0615493Y0243913D01*
X0615675Y0243947D01*
X0615858Y0243976D01*
X0616041Y0244001D01*
X0616225Y0244022D01*
X0616409Y0244038D01*
X0616594Y0244049D01*
X0616779Y0244056D01*
X0616964Y0244058D01*
X0617149Y0244056D01*
X0617334Y0244049D01*
X0617519Y0244038D01*
X0617703Y0244022D01*
X0617887Y0244001D01*
X0618070Y0243976D01*
X0618253Y0243947D01*
X0618435Y0243913D01*
X0618616Y0243875D01*
X0618796Y0243832D01*
X0618975Y0243785D01*
X0619152Y0243733D01*
X0619329Y0243677D01*
X0619504Y0243617D01*
X0619677Y0243553D01*
X0619849Y0243484D01*
X0620019Y0243411D01*
X0620187Y0243334D01*
X0620354Y0243253D01*
X0620518Y0243168D01*
X0620680Y0243079D01*
X0620840Y0242985D01*
X0620997Y0242888D01*
X0621152Y0242787D01*
X0621305Y0242683D01*
X0621455Y0242574D01*
X0621602Y0242462D01*
X0621747Y0242347D01*
X0621888Y0242228D01*
X0622027Y0242105D01*
X0622162Y0241979D01*
X0622295Y0241850D01*
X0622424Y0241717D01*
X0622550Y0241582D01*
X0622673Y0241443D01*
X0622792Y0241302D01*
X0622907Y0241157D01*
X0623019Y0241010D01*
X0623128Y0240860D01*
X0623232Y0240707D01*
X0623333Y0240552D01*
X0623430Y0240395D01*
X0623524Y0240235D01*
X0623613Y0240073D01*
X0623698Y0239909D01*
X0623779Y0239742D01*
X0623856Y0239574D01*
X0623929Y0239404D01*
X0623998Y0239232D01*
X0624062Y0239059D01*
X0624122Y0238884D01*
X0624178Y0238707D01*
X0624230Y0238530D01*
X0624277Y0238351D01*
X0624320Y0238171D01*
X0624358Y0237990D01*
X0624392Y0237808D01*
X0624421Y0237625D01*
X0624446Y0237442D01*
X0624467Y0237258D01*
X0624483Y0237074D01*
X0624494Y0236889D01*
X0624501Y0236704D01*
X0624503Y0236519D01*
X0624501Y0236334D01*
X0624494Y0236149D01*
X0624483Y0235964D01*
X0624467Y0235780D01*
X0624446Y0235596D01*
X0624421Y0235413D01*
X0624392Y0235230D01*
X0624358Y0235048D01*
X0624320Y0234867D01*
X0624277Y0234687D01*
X0624230Y0234508D01*
X0624178Y0234331D01*
X0624122Y0234154D01*
X0624062Y0233979D01*
X0623998Y0233806D01*
X0623929Y0233634D01*
X0623856Y0233464D01*
X0623779Y0233296D01*
X0623698Y0233129D01*
X0623613Y0232965D01*
X0623524Y0232803D01*
X0623430Y0232643D01*
X0623333Y0232486D01*
X0623232Y0232331D01*
X0623128Y0232178D01*
X0623019Y0232028D01*
X0622907Y0231881D01*
X0622792Y0231736D01*
X0622673Y0231595D01*
X0622550Y0231456D01*
X0622424Y0231321D01*
X0622295Y0231188D01*
X0622162Y0231059D01*
X0622027Y0230933D01*
X0621888Y0230810D01*
X0621747Y0230691D01*
X0621602Y0230576D01*
X0621455Y0230464D01*
X0621305Y0230355D01*
X0621152Y0230251D01*
X0620997Y0230150D01*
X0620840Y0230053D01*
X0620680Y0229959D01*
X0620518Y0229870D01*
X0620354Y0229785D01*
X0620187Y0229704D01*
X0620019Y0229627D01*
X0619849Y0229554D01*
X0619677Y0229485D01*
X0619504Y0229421D01*
X0619329Y0229361D01*
X0619152Y0229305D01*
X0618975Y0229253D01*
X0618796Y0229206D01*
X0618616Y0229163D01*
X0618435Y0229125D01*
X0618253Y0229091D01*
X0618070Y0229062D01*
X0617887Y0229037D01*
X0617703Y0229016D01*
X0617519Y0229000D01*
X0617334Y0228989D01*
X0617149Y0228982D01*
X0616964Y0228980D01*
X0616779Y0228982D01*
X0616594Y0228989D01*
X0616409Y0229000D01*
X0616225Y0229016D01*
X0616041Y0229037D01*
X0615858Y0229062D01*
X0615675Y0229091D01*
X0615493Y0229125D01*
X0615312Y0229163D01*
X0615132Y0229206D01*
X0614953Y0229253D01*
X0614776Y0229305D01*
X0614599Y0229361D01*
X0614424Y0229421D01*
X0614251Y0229485D01*
X0614079Y0229554D01*
X0613909Y0229627D01*
X0613741Y0229704D01*
X0613574Y0229785D01*
X0613410Y0229870D01*
X0613248Y0229959D01*
X0613088Y0230053D01*
X0612931Y0230150D01*
X0612776Y0230251D01*
X0612623Y0230355D01*
X0612473Y0230464D01*
X0612326Y0230576D01*
X0612181Y0230691D01*
X0612040Y0230810D01*
X0611901Y0230933D01*
X0611766Y0231059D01*
X0611633Y0231188D01*
X0611504Y0231321D01*
X0611378Y0231456D01*
X0611255Y0231595D01*
X0611136Y0231736D01*
X0611021Y0231881D01*
X0610909Y0232028D01*
X0610800Y0232178D01*
X0610696Y0232331D01*
X0610595Y0232486D01*
X0610498Y0232643D01*
X0610404Y0232803D01*
X0610315Y0232965D01*
X0610230Y0233129D01*
X0610149Y0233296D01*
X0610072Y0233464D01*
X0609999Y0233634D01*
X0609930Y0233806D01*
X0609866Y0233979D01*
X0609806Y0234154D01*
X0609750Y0234331D01*
X0609698Y0234508D01*
X0609651Y0234687D01*
X0609608Y0234867D01*
X0609570Y0235048D01*
X0609536Y0235230D01*
X0609507Y0235413D01*
X0609482Y0235596D01*
X0609461Y0235780D01*
X0609445Y0235964D01*
X0609434Y0236149D01*
X0609427Y0236334D01*
X0609425Y0236519D01*
X0609425Y0216519D02*
X0609427Y0216704D01*
X0609434Y0216889D01*
X0609445Y0217074D01*
X0609461Y0217258D01*
X0609482Y0217442D01*
X0609507Y0217625D01*
X0609536Y0217808D01*
X0609570Y0217990D01*
X0609608Y0218171D01*
X0609651Y0218351D01*
X0609698Y0218530D01*
X0609750Y0218707D01*
X0609806Y0218884D01*
X0609866Y0219059D01*
X0609930Y0219232D01*
X0609999Y0219404D01*
X0610072Y0219574D01*
X0610149Y0219742D01*
X0610230Y0219909D01*
X0610315Y0220073D01*
X0610404Y0220235D01*
X0610498Y0220395D01*
X0610595Y0220552D01*
X0610696Y0220707D01*
X0610800Y0220860D01*
X0610909Y0221010D01*
X0611021Y0221157D01*
X0611136Y0221302D01*
X0611255Y0221443D01*
X0611378Y0221582D01*
X0611504Y0221717D01*
X0611633Y0221850D01*
X0611766Y0221979D01*
X0611901Y0222105D01*
X0612040Y0222228D01*
X0612181Y0222347D01*
X0612326Y0222462D01*
X0612473Y0222574D01*
X0612623Y0222683D01*
X0612776Y0222787D01*
X0612931Y0222888D01*
X0613088Y0222985D01*
X0613248Y0223079D01*
X0613410Y0223168D01*
X0613574Y0223253D01*
X0613741Y0223334D01*
X0613909Y0223411D01*
X0614079Y0223484D01*
X0614251Y0223553D01*
X0614424Y0223617D01*
X0614599Y0223677D01*
X0614776Y0223733D01*
X0614953Y0223785D01*
X0615132Y0223832D01*
X0615312Y0223875D01*
X0615493Y0223913D01*
X0615675Y0223947D01*
X0615858Y0223976D01*
X0616041Y0224001D01*
X0616225Y0224022D01*
X0616409Y0224038D01*
X0616594Y0224049D01*
X0616779Y0224056D01*
X0616964Y0224058D01*
X0617149Y0224056D01*
X0617334Y0224049D01*
X0617519Y0224038D01*
X0617703Y0224022D01*
X0617887Y0224001D01*
X0618070Y0223976D01*
X0618253Y0223947D01*
X0618435Y0223913D01*
X0618616Y0223875D01*
X0618796Y0223832D01*
X0618975Y0223785D01*
X0619152Y0223733D01*
X0619329Y0223677D01*
X0619504Y0223617D01*
X0619677Y0223553D01*
X0619849Y0223484D01*
X0620019Y0223411D01*
X0620187Y0223334D01*
X0620354Y0223253D01*
X0620518Y0223168D01*
X0620680Y0223079D01*
X0620840Y0222985D01*
X0620997Y0222888D01*
X0621152Y0222787D01*
X0621305Y0222683D01*
X0621455Y0222574D01*
X0621602Y0222462D01*
X0621747Y0222347D01*
X0621888Y0222228D01*
X0622027Y0222105D01*
X0622162Y0221979D01*
X0622295Y0221850D01*
X0622424Y0221717D01*
X0622550Y0221582D01*
X0622673Y0221443D01*
X0622792Y0221302D01*
X0622907Y0221157D01*
X0623019Y0221010D01*
X0623128Y0220860D01*
X0623232Y0220707D01*
X0623333Y0220552D01*
X0623430Y0220395D01*
X0623524Y0220235D01*
X0623613Y0220073D01*
X0623698Y0219909D01*
X0623779Y0219742D01*
X0623856Y0219574D01*
X0623929Y0219404D01*
X0623998Y0219232D01*
X0624062Y0219059D01*
X0624122Y0218884D01*
X0624178Y0218707D01*
X0624230Y0218530D01*
X0624277Y0218351D01*
X0624320Y0218171D01*
X0624358Y0217990D01*
X0624392Y0217808D01*
X0624421Y0217625D01*
X0624446Y0217442D01*
X0624467Y0217258D01*
X0624483Y0217074D01*
X0624494Y0216889D01*
X0624501Y0216704D01*
X0624503Y0216519D01*
X0624501Y0216334D01*
X0624494Y0216149D01*
X0624483Y0215964D01*
X0624467Y0215780D01*
X0624446Y0215596D01*
X0624421Y0215413D01*
X0624392Y0215230D01*
X0624358Y0215048D01*
X0624320Y0214867D01*
X0624277Y0214687D01*
X0624230Y0214508D01*
X0624178Y0214331D01*
X0624122Y0214154D01*
X0624062Y0213979D01*
X0623998Y0213806D01*
X0623929Y0213634D01*
X0623856Y0213464D01*
X0623779Y0213296D01*
X0623698Y0213129D01*
X0623613Y0212965D01*
X0623524Y0212803D01*
X0623430Y0212643D01*
X0623333Y0212486D01*
X0623232Y0212331D01*
X0623128Y0212178D01*
X0623019Y0212028D01*
X0622907Y0211881D01*
X0622792Y0211736D01*
X0622673Y0211595D01*
X0622550Y0211456D01*
X0622424Y0211321D01*
X0622295Y0211188D01*
X0622162Y0211059D01*
X0622027Y0210933D01*
X0621888Y0210810D01*
X0621747Y0210691D01*
X0621602Y0210576D01*
X0621455Y0210464D01*
X0621305Y0210355D01*
X0621152Y0210251D01*
X0620997Y0210150D01*
X0620840Y0210053D01*
X0620680Y0209959D01*
X0620518Y0209870D01*
X0620354Y0209785D01*
X0620187Y0209704D01*
X0620019Y0209627D01*
X0619849Y0209554D01*
X0619677Y0209485D01*
X0619504Y0209421D01*
X0619329Y0209361D01*
X0619152Y0209305D01*
X0618975Y0209253D01*
X0618796Y0209206D01*
X0618616Y0209163D01*
X0618435Y0209125D01*
X0618253Y0209091D01*
X0618070Y0209062D01*
X0617887Y0209037D01*
X0617703Y0209016D01*
X0617519Y0209000D01*
X0617334Y0208989D01*
X0617149Y0208982D01*
X0616964Y0208980D01*
X0616779Y0208982D01*
X0616594Y0208989D01*
X0616409Y0209000D01*
X0616225Y0209016D01*
X0616041Y0209037D01*
X0615858Y0209062D01*
X0615675Y0209091D01*
X0615493Y0209125D01*
X0615312Y0209163D01*
X0615132Y0209206D01*
X0614953Y0209253D01*
X0614776Y0209305D01*
X0614599Y0209361D01*
X0614424Y0209421D01*
X0614251Y0209485D01*
X0614079Y0209554D01*
X0613909Y0209627D01*
X0613741Y0209704D01*
X0613574Y0209785D01*
X0613410Y0209870D01*
X0613248Y0209959D01*
X0613088Y0210053D01*
X0612931Y0210150D01*
X0612776Y0210251D01*
X0612623Y0210355D01*
X0612473Y0210464D01*
X0612326Y0210576D01*
X0612181Y0210691D01*
X0612040Y0210810D01*
X0611901Y0210933D01*
X0611766Y0211059D01*
X0611633Y0211188D01*
X0611504Y0211321D01*
X0611378Y0211456D01*
X0611255Y0211595D01*
X0611136Y0211736D01*
X0611021Y0211881D01*
X0610909Y0212028D01*
X0610800Y0212178D01*
X0610696Y0212331D01*
X0610595Y0212486D01*
X0610498Y0212643D01*
X0610404Y0212803D01*
X0610315Y0212965D01*
X0610230Y0213129D01*
X0610149Y0213296D01*
X0610072Y0213464D01*
X0609999Y0213634D01*
X0609930Y0213806D01*
X0609866Y0213979D01*
X0609806Y0214154D01*
X0609750Y0214331D01*
X0609698Y0214508D01*
X0609651Y0214687D01*
X0609608Y0214867D01*
X0609570Y0215048D01*
X0609536Y0215230D01*
X0609507Y0215413D01*
X0609482Y0215596D01*
X0609461Y0215780D01*
X0609445Y0215964D01*
X0609434Y0216149D01*
X0609427Y0216334D01*
X0609425Y0216519D01*
X0609425Y0196519D02*
X0609427Y0196704D01*
X0609434Y0196889D01*
X0609445Y0197074D01*
X0609461Y0197258D01*
X0609482Y0197442D01*
X0609507Y0197625D01*
X0609536Y0197808D01*
X0609570Y0197990D01*
X0609608Y0198171D01*
X0609651Y0198351D01*
X0609698Y0198530D01*
X0609750Y0198707D01*
X0609806Y0198884D01*
X0609866Y0199059D01*
X0609930Y0199232D01*
X0609999Y0199404D01*
X0610072Y0199574D01*
X0610149Y0199742D01*
X0610230Y0199909D01*
X0610315Y0200073D01*
X0610404Y0200235D01*
X0610498Y0200395D01*
X0610595Y0200552D01*
X0610696Y0200707D01*
X0610800Y0200860D01*
X0610909Y0201010D01*
X0611021Y0201157D01*
X0611136Y0201302D01*
X0611255Y0201443D01*
X0611378Y0201582D01*
X0611504Y0201717D01*
X0611633Y0201850D01*
X0611766Y0201979D01*
X0611901Y0202105D01*
X0612040Y0202228D01*
X0612181Y0202347D01*
X0612326Y0202462D01*
X0612473Y0202574D01*
X0612623Y0202683D01*
X0612776Y0202787D01*
X0612931Y0202888D01*
X0613088Y0202985D01*
X0613248Y0203079D01*
X0613410Y0203168D01*
X0613574Y0203253D01*
X0613741Y0203334D01*
X0613909Y0203411D01*
X0614079Y0203484D01*
X0614251Y0203553D01*
X0614424Y0203617D01*
X0614599Y0203677D01*
X0614776Y0203733D01*
X0614953Y0203785D01*
X0615132Y0203832D01*
X0615312Y0203875D01*
X0615493Y0203913D01*
X0615675Y0203947D01*
X0615858Y0203976D01*
X0616041Y0204001D01*
X0616225Y0204022D01*
X0616409Y0204038D01*
X0616594Y0204049D01*
X0616779Y0204056D01*
X0616964Y0204058D01*
X0617149Y0204056D01*
X0617334Y0204049D01*
X0617519Y0204038D01*
X0617703Y0204022D01*
X0617887Y0204001D01*
X0618070Y0203976D01*
X0618253Y0203947D01*
X0618435Y0203913D01*
X0618616Y0203875D01*
X0618796Y0203832D01*
X0618975Y0203785D01*
X0619152Y0203733D01*
X0619329Y0203677D01*
X0619504Y0203617D01*
X0619677Y0203553D01*
X0619849Y0203484D01*
X0620019Y0203411D01*
X0620187Y0203334D01*
X0620354Y0203253D01*
X0620518Y0203168D01*
X0620680Y0203079D01*
X0620840Y0202985D01*
X0620997Y0202888D01*
X0621152Y0202787D01*
X0621305Y0202683D01*
X0621455Y0202574D01*
X0621602Y0202462D01*
X0621747Y0202347D01*
X0621888Y0202228D01*
X0622027Y0202105D01*
X0622162Y0201979D01*
X0622295Y0201850D01*
X0622424Y0201717D01*
X0622550Y0201582D01*
X0622673Y0201443D01*
X0622792Y0201302D01*
X0622907Y0201157D01*
X0623019Y0201010D01*
X0623128Y0200860D01*
X0623232Y0200707D01*
X0623333Y0200552D01*
X0623430Y0200395D01*
X0623524Y0200235D01*
X0623613Y0200073D01*
X0623698Y0199909D01*
X0623779Y0199742D01*
X0623856Y0199574D01*
X0623929Y0199404D01*
X0623998Y0199232D01*
X0624062Y0199059D01*
X0624122Y0198884D01*
X0624178Y0198707D01*
X0624230Y0198530D01*
X0624277Y0198351D01*
X0624320Y0198171D01*
X0624358Y0197990D01*
X0624392Y0197808D01*
X0624421Y0197625D01*
X0624446Y0197442D01*
X0624467Y0197258D01*
X0624483Y0197074D01*
X0624494Y0196889D01*
X0624501Y0196704D01*
X0624503Y0196519D01*
X0624501Y0196334D01*
X0624494Y0196149D01*
X0624483Y0195964D01*
X0624467Y0195780D01*
X0624446Y0195596D01*
X0624421Y0195413D01*
X0624392Y0195230D01*
X0624358Y0195048D01*
X0624320Y0194867D01*
X0624277Y0194687D01*
X0624230Y0194508D01*
X0624178Y0194331D01*
X0624122Y0194154D01*
X0624062Y0193979D01*
X0623998Y0193806D01*
X0623929Y0193634D01*
X0623856Y0193464D01*
X0623779Y0193296D01*
X0623698Y0193129D01*
X0623613Y0192965D01*
X0623524Y0192803D01*
X0623430Y0192643D01*
X0623333Y0192486D01*
X0623232Y0192331D01*
X0623128Y0192178D01*
X0623019Y0192028D01*
X0622907Y0191881D01*
X0622792Y0191736D01*
X0622673Y0191595D01*
X0622550Y0191456D01*
X0622424Y0191321D01*
X0622295Y0191188D01*
X0622162Y0191059D01*
X0622027Y0190933D01*
X0621888Y0190810D01*
X0621747Y0190691D01*
X0621602Y0190576D01*
X0621455Y0190464D01*
X0621305Y0190355D01*
X0621152Y0190251D01*
X0620997Y0190150D01*
X0620840Y0190053D01*
X0620680Y0189959D01*
X0620518Y0189870D01*
X0620354Y0189785D01*
X0620187Y0189704D01*
X0620019Y0189627D01*
X0619849Y0189554D01*
X0619677Y0189485D01*
X0619504Y0189421D01*
X0619329Y0189361D01*
X0619152Y0189305D01*
X0618975Y0189253D01*
X0618796Y0189206D01*
X0618616Y0189163D01*
X0618435Y0189125D01*
X0618253Y0189091D01*
X0618070Y0189062D01*
X0617887Y0189037D01*
X0617703Y0189016D01*
X0617519Y0189000D01*
X0617334Y0188989D01*
X0617149Y0188982D01*
X0616964Y0188980D01*
X0616779Y0188982D01*
X0616594Y0188989D01*
X0616409Y0189000D01*
X0616225Y0189016D01*
X0616041Y0189037D01*
X0615858Y0189062D01*
X0615675Y0189091D01*
X0615493Y0189125D01*
X0615312Y0189163D01*
X0615132Y0189206D01*
X0614953Y0189253D01*
X0614776Y0189305D01*
X0614599Y0189361D01*
X0614424Y0189421D01*
X0614251Y0189485D01*
X0614079Y0189554D01*
X0613909Y0189627D01*
X0613741Y0189704D01*
X0613574Y0189785D01*
X0613410Y0189870D01*
X0613248Y0189959D01*
X0613088Y0190053D01*
X0612931Y0190150D01*
X0612776Y0190251D01*
X0612623Y0190355D01*
X0612473Y0190464D01*
X0612326Y0190576D01*
X0612181Y0190691D01*
X0612040Y0190810D01*
X0611901Y0190933D01*
X0611766Y0191059D01*
X0611633Y0191188D01*
X0611504Y0191321D01*
X0611378Y0191456D01*
X0611255Y0191595D01*
X0611136Y0191736D01*
X0611021Y0191881D01*
X0610909Y0192028D01*
X0610800Y0192178D01*
X0610696Y0192331D01*
X0610595Y0192486D01*
X0610498Y0192643D01*
X0610404Y0192803D01*
X0610315Y0192965D01*
X0610230Y0193129D01*
X0610149Y0193296D01*
X0610072Y0193464D01*
X0609999Y0193634D01*
X0609930Y0193806D01*
X0609866Y0193979D01*
X0609806Y0194154D01*
X0609750Y0194331D01*
X0609698Y0194508D01*
X0609651Y0194687D01*
X0609608Y0194867D01*
X0609570Y0195048D01*
X0609536Y0195230D01*
X0609507Y0195413D01*
X0609482Y0195596D01*
X0609461Y0195780D01*
X0609445Y0195964D01*
X0609434Y0196149D01*
X0609427Y0196334D01*
X0609425Y0196519D01*
X0609425Y0176519D02*
X0609427Y0176704D01*
X0609434Y0176889D01*
X0609445Y0177074D01*
X0609461Y0177258D01*
X0609482Y0177442D01*
X0609507Y0177625D01*
X0609536Y0177808D01*
X0609570Y0177990D01*
X0609608Y0178171D01*
X0609651Y0178351D01*
X0609698Y0178530D01*
X0609750Y0178707D01*
X0609806Y0178884D01*
X0609866Y0179059D01*
X0609930Y0179232D01*
X0609999Y0179404D01*
X0610072Y0179574D01*
X0610149Y0179742D01*
X0610230Y0179909D01*
X0610315Y0180073D01*
X0610404Y0180235D01*
X0610498Y0180395D01*
X0610595Y0180552D01*
X0610696Y0180707D01*
X0610800Y0180860D01*
X0610909Y0181010D01*
X0611021Y0181157D01*
X0611136Y0181302D01*
X0611255Y0181443D01*
X0611378Y0181582D01*
X0611504Y0181717D01*
X0611633Y0181850D01*
X0611766Y0181979D01*
X0611901Y0182105D01*
X0612040Y0182228D01*
X0612181Y0182347D01*
X0612326Y0182462D01*
X0612473Y0182574D01*
X0612623Y0182683D01*
X0612776Y0182787D01*
X0612931Y0182888D01*
X0613088Y0182985D01*
X0613248Y0183079D01*
X0613410Y0183168D01*
X0613574Y0183253D01*
X0613741Y0183334D01*
X0613909Y0183411D01*
X0614079Y0183484D01*
X0614251Y0183553D01*
X0614424Y0183617D01*
X0614599Y0183677D01*
X0614776Y0183733D01*
X0614953Y0183785D01*
X0615132Y0183832D01*
X0615312Y0183875D01*
X0615493Y0183913D01*
X0615675Y0183947D01*
X0615858Y0183976D01*
X0616041Y0184001D01*
X0616225Y0184022D01*
X0616409Y0184038D01*
X0616594Y0184049D01*
X0616779Y0184056D01*
X0616964Y0184058D01*
X0617149Y0184056D01*
X0617334Y0184049D01*
X0617519Y0184038D01*
X0617703Y0184022D01*
X0617887Y0184001D01*
X0618070Y0183976D01*
X0618253Y0183947D01*
X0618435Y0183913D01*
X0618616Y0183875D01*
X0618796Y0183832D01*
X0618975Y0183785D01*
X0619152Y0183733D01*
X0619329Y0183677D01*
X0619504Y0183617D01*
X0619677Y0183553D01*
X0619849Y0183484D01*
X0620019Y0183411D01*
X0620187Y0183334D01*
X0620354Y0183253D01*
X0620518Y0183168D01*
X0620680Y0183079D01*
X0620840Y0182985D01*
X0620997Y0182888D01*
X0621152Y0182787D01*
X0621305Y0182683D01*
X0621455Y0182574D01*
X0621602Y0182462D01*
X0621747Y0182347D01*
X0621888Y0182228D01*
X0622027Y0182105D01*
X0622162Y0181979D01*
X0622295Y0181850D01*
X0622424Y0181717D01*
X0622550Y0181582D01*
X0622673Y0181443D01*
X0622792Y0181302D01*
X0622907Y0181157D01*
X0623019Y0181010D01*
X0623128Y0180860D01*
X0623232Y0180707D01*
X0623333Y0180552D01*
X0623430Y0180395D01*
X0623524Y0180235D01*
X0623613Y0180073D01*
X0623698Y0179909D01*
X0623779Y0179742D01*
X0623856Y0179574D01*
X0623929Y0179404D01*
X0623998Y0179232D01*
X0624062Y0179059D01*
X0624122Y0178884D01*
X0624178Y0178707D01*
X0624230Y0178530D01*
X0624277Y0178351D01*
X0624320Y0178171D01*
X0624358Y0177990D01*
X0624392Y0177808D01*
X0624421Y0177625D01*
X0624446Y0177442D01*
X0624467Y0177258D01*
X0624483Y0177074D01*
X0624494Y0176889D01*
X0624501Y0176704D01*
X0624503Y0176519D01*
X0624501Y0176334D01*
X0624494Y0176149D01*
X0624483Y0175964D01*
X0624467Y0175780D01*
X0624446Y0175596D01*
X0624421Y0175413D01*
X0624392Y0175230D01*
X0624358Y0175048D01*
X0624320Y0174867D01*
X0624277Y0174687D01*
X0624230Y0174508D01*
X0624178Y0174331D01*
X0624122Y0174154D01*
X0624062Y0173979D01*
X0623998Y0173806D01*
X0623929Y0173634D01*
X0623856Y0173464D01*
X0623779Y0173296D01*
X0623698Y0173129D01*
X0623613Y0172965D01*
X0623524Y0172803D01*
X0623430Y0172643D01*
X0623333Y0172486D01*
X0623232Y0172331D01*
X0623128Y0172178D01*
X0623019Y0172028D01*
X0622907Y0171881D01*
X0622792Y0171736D01*
X0622673Y0171595D01*
X0622550Y0171456D01*
X0622424Y0171321D01*
X0622295Y0171188D01*
X0622162Y0171059D01*
X0622027Y0170933D01*
X0621888Y0170810D01*
X0621747Y0170691D01*
X0621602Y0170576D01*
X0621455Y0170464D01*
X0621305Y0170355D01*
X0621152Y0170251D01*
X0620997Y0170150D01*
X0620840Y0170053D01*
X0620680Y0169959D01*
X0620518Y0169870D01*
X0620354Y0169785D01*
X0620187Y0169704D01*
X0620019Y0169627D01*
X0619849Y0169554D01*
X0619677Y0169485D01*
X0619504Y0169421D01*
X0619329Y0169361D01*
X0619152Y0169305D01*
X0618975Y0169253D01*
X0618796Y0169206D01*
X0618616Y0169163D01*
X0618435Y0169125D01*
X0618253Y0169091D01*
X0618070Y0169062D01*
X0617887Y0169037D01*
X0617703Y0169016D01*
X0617519Y0169000D01*
X0617334Y0168989D01*
X0617149Y0168982D01*
X0616964Y0168980D01*
X0616779Y0168982D01*
X0616594Y0168989D01*
X0616409Y0169000D01*
X0616225Y0169016D01*
X0616041Y0169037D01*
X0615858Y0169062D01*
X0615675Y0169091D01*
X0615493Y0169125D01*
X0615312Y0169163D01*
X0615132Y0169206D01*
X0614953Y0169253D01*
X0614776Y0169305D01*
X0614599Y0169361D01*
X0614424Y0169421D01*
X0614251Y0169485D01*
X0614079Y0169554D01*
X0613909Y0169627D01*
X0613741Y0169704D01*
X0613574Y0169785D01*
X0613410Y0169870D01*
X0613248Y0169959D01*
X0613088Y0170053D01*
X0612931Y0170150D01*
X0612776Y0170251D01*
X0612623Y0170355D01*
X0612473Y0170464D01*
X0612326Y0170576D01*
X0612181Y0170691D01*
X0612040Y0170810D01*
X0611901Y0170933D01*
X0611766Y0171059D01*
X0611633Y0171188D01*
X0611504Y0171321D01*
X0611378Y0171456D01*
X0611255Y0171595D01*
X0611136Y0171736D01*
X0611021Y0171881D01*
X0610909Y0172028D01*
X0610800Y0172178D01*
X0610696Y0172331D01*
X0610595Y0172486D01*
X0610498Y0172643D01*
X0610404Y0172803D01*
X0610315Y0172965D01*
X0610230Y0173129D01*
X0610149Y0173296D01*
X0610072Y0173464D01*
X0609999Y0173634D01*
X0609930Y0173806D01*
X0609866Y0173979D01*
X0609806Y0174154D01*
X0609750Y0174331D01*
X0609698Y0174508D01*
X0609651Y0174687D01*
X0609608Y0174867D01*
X0609570Y0175048D01*
X0609536Y0175230D01*
X0609507Y0175413D01*
X0609482Y0175596D01*
X0609461Y0175780D01*
X0609445Y0175964D01*
X0609434Y0176149D01*
X0609427Y0176334D01*
X0609425Y0176519D01*
X0609425Y0156519D02*
X0609427Y0156704D01*
X0609434Y0156889D01*
X0609445Y0157074D01*
X0609461Y0157258D01*
X0609482Y0157442D01*
X0609507Y0157625D01*
X0609536Y0157808D01*
X0609570Y0157990D01*
X0609608Y0158171D01*
X0609651Y0158351D01*
X0609698Y0158530D01*
X0609750Y0158707D01*
X0609806Y0158884D01*
X0609866Y0159059D01*
X0609930Y0159232D01*
X0609999Y0159404D01*
X0610072Y0159574D01*
X0610149Y0159742D01*
X0610230Y0159909D01*
X0610315Y0160073D01*
X0610404Y0160235D01*
X0610498Y0160395D01*
X0610595Y0160552D01*
X0610696Y0160707D01*
X0610800Y0160860D01*
X0610909Y0161010D01*
X0611021Y0161157D01*
X0611136Y0161302D01*
X0611255Y0161443D01*
X0611378Y0161582D01*
X0611504Y0161717D01*
X0611633Y0161850D01*
X0611766Y0161979D01*
X0611901Y0162105D01*
X0612040Y0162228D01*
X0612181Y0162347D01*
X0612326Y0162462D01*
X0612473Y0162574D01*
X0612623Y0162683D01*
X0612776Y0162787D01*
X0612931Y0162888D01*
X0613088Y0162985D01*
X0613248Y0163079D01*
X0613410Y0163168D01*
X0613574Y0163253D01*
X0613741Y0163334D01*
X0613909Y0163411D01*
X0614079Y0163484D01*
X0614251Y0163553D01*
X0614424Y0163617D01*
X0614599Y0163677D01*
X0614776Y0163733D01*
X0614953Y0163785D01*
X0615132Y0163832D01*
X0615312Y0163875D01*
X0615493Y0163913D01*
X0615675Y0163947D01*
X0615858Y0163976D01*
X0616041Y0164001D01*
X0616225Y0164022D01*
X0616409Y0164038D01*
X0616594Y0164049D01*
X0616779Y0164056D01*
X0616964Y0164058D01*
X0617149Y0164056D01*
X0617334Y0164049D01*
X0617519Y0164038D01*
X0617703Y0164022D01*
X0617887Y0164001D01*
X0618070Y0163976D01*
X0618253Y0163947D01*
X0618435Y0163913D01*
X0618616Y0163875D01*
X0618796Y0163832D01*
X0618975Y0163785D01*
X0619152Y0163733D01*
X0619329Y0163677D01*
X0619504Y0163617D01*
X0619677Y0163553D01*
X0619849Y0163484D01*
X0620019Y0163411D01*
X0620187Y0163334D01*
X0620354Y0163253D01*
X0620518Y0163168D01*
X0620680Y0163079D01*
X0620840Y0162985D01*
X0620997Y0162888D01*
X0621152Y0162787D01*
X0621305Y0162683D01*
X0621455Y0162574D01*
X0621602Y0162462D01*
X0621747Y0162347D01*
X0621888Y0162228D01*
X0622027Y0162105D01*
X0622162Y0161979D01*
X0622295Y0161850D01*
X0622424Y0161717D01*
X0622550Y0161582D01*
X0622673Y0161443D01*
X0622792Y0161302D01*
X0622907Y0161157D01*
X0623019Y0161010D01*
X0623128Y0160860D01*
X0623232Y0160707D01*
X0623333Y0160552D01*
X0623430Y0160395D01*
X0623524Y0160235D01*
X0623613Y0160073D01*
X0623698Y0159909D01*
X0623779Y0159742D01*
X0623856Y0159574D01*
X0623929Y0159404D01*
X0623998Y0159232D01*
X0624062Y0159059D01*
X0624122Y0158884D01*
X0624178Y0158707D01*
X0624230Y0158530D01*
X0624277Y0158351D01*
X0624320Y0158171D01*
X0624358Y0157990D01*
X0624392Y0157808D01*
X0624421Y0157625D01*
X0624446Y0157442D01*
X0624467Y0157258D01*
X0624483Y0157074D01*
X0624494Y0156889D01*
X0624501Y0156704D01*
X0624503Y0156519D01*
X0624501Y0156334D01*
X0624494Y0156149D01*
X0624483Y0155964D01*
X0624467Y0155780D01*
X0624446Y0155596D01*
X0624421Y0155413D01*
X0624392Y0155230D01*
X0624358Y0155048D01*
X0624320Y0154867D01*
X0624277Y0154687D01*
X0624230Y0154508D01*
X0624178Y0154331D01*
X0624122Y0154154D01*
X0624062Y0153979D01*
X0623998Y0153806D01*
X0623929Y0153634D01*
X0623856Y0153464D01*
X0623779Y0153296D01*
X0623698Y0153129D01*
X0623613Y0152965D01*
X0623524Y0152803D01*
X0623430Y0152643D01*
X0623333Y0152486D01*
X0623232Y0152331D01*
X0623128Y0152178D01*
X0623019Y0152028D01*
X0622907Y0151881D01*
X0622792Y0151736D01*
X0622673Y0151595D01*
X0622550Y0151456D01*
X0622424Y0151321D01*
X0622295Y0151188D01*
X0622162Y0151059D01*
X0622027Y0150933D01*
X0621888Y0150810D01*
X0621747Y0150691D01*
X0621602Y0150576D01*
X0621455Y0150464D01*
X0621305Y0150355D01*
X0621152Y0150251D01*
X0620997Y0150150D01*
X0620840Y0150053D01*
X0620680Y0149959D01*
X0620518Y0149870D01*
X0620354Y0149785D01*
X0620187Y0149704D01*
X0620019Y0149627D01*
X0619849Y0149554D01*
X0619677Y0149485D01*
X0619504Y0149421D01*
X0619329Y0149361D01*
X0619152Y0149305D01*
X0618975Y0149253D01*
X0618796Y0149206D01*
X0618616Y0149163D01*
X0618435Y0149125D01*
X0618253Y0149091D01*
X0618070Y0149062D01*
X0617887Y0149037D01*
X0617703Y0149016D01*
X0617519Y0149000D01*
X0617334Y0148989D01*
X0617149Y0148982D01*
X0616964Y0148980D01*
X0616779Y0148982D01*
X0616594Y0148989D01*
X0616409Y0149000D01*
X0616225Y0149016D01*
X0616041Y0149037D01*
X0615858Y0149062D01*
X0615675Y0149091D01*
X0615493Y0149125D01*
X0615312Y0149163D01*
X0615132Y0149206D01*
X0614953Y0149253D01*
X0614776Y0149305D01*
X0614599Y0149361D01*
X0614424Y0149421D01*
X0614251Y0149485D01*
X0614079Y0149554D01*
X0613909Y0149627D01*
X0613741Y0149704D01*
X0613574Y0149785D01*
X0613410Y0149870D01*
X0613248Y0149959D01*
X0613088Y0150053D01*
X0612931Y0150150D01*
X0612776Y0150251D01*
X0612623Y0150355D01*
X0612473Y0150464D01*
X0612326Y0150576D01*
X0612181Y0150691D01*
X0612040Y0150810D01*
X0611901Y0150933D01*
X0611766Y0151059D01*
X0611633Y0151188D01*
X0611504Y0151321D01*
X0611378Y0151456D01*
X0611255Y0151595D01*
X0611136Y0151736D01*
X0611021Y0151881D01*
X0610909Y0152028D01*
X0610800Y0152178D01*
X0610696Y0152331D01*
X0610595Y0152486D01*
X0610498Y0152643D01*
X0610404Y0152803D01*
X0610315Y0152965D01*
X0610230Y0153129D01*
X0610149Y0153296D01*
X0610072Y0153464D01*
X0609999Y0153634D01*
X0609930Y0153806D01*
X0609866Y0153979D01*
X0609806Y0154154D01*
X0609750Y0154331D01*
X0609698Y0154508D01*
X0609651Y0154687D01*
X0609608Y0154867D01*
X0609570Y0155048D01*
X0609536Y0155230D01*
X0609507Y0155413D01*
X0609482Y0155596D01*
X0609461Y0155780D01*
X0609445Y0155964D01*
X0609434Y0156149D01*
X0609427Y0156334D01*
X0609425Y0156519D01*
X0609425Y0136519D02*
X0609427Y0136704D01*
X0609434Y0136889D01*
X0609445Y0137074D01*
X0609461Y0137258D01*
X0609482Y0137442D01*
X0609507Y0137625D01*
X0609536Y0137808D01*
X0609570Y0137990D01*
X0609608Y0138171D01*
X0609651Y0138351D01*
X0609698Y0138530D01*
X0609750Y0138707D01*
X0609806Y0138884D01*
X0609866Y0139059D01*
X0609930Y0139232D01*
X0609999Y0139404D01*
X0610072Y0139574D01*
X0610149Y0139742D01*
X0610230Y0139909D01*
X0610315Y0140073D01*
X0610404Y0140235D01*
X0610498Y0140395D01*
X0610595Y0140552D01*
X0610696Y0140707D01*
X0610800Y0140860D01*
X0610909Y0141010D01*
X0611021Y0141157D01*
X0611136Y0141302D01*
X0611255Y0141443D01*
X0611378Y0141582D01*
X0611504Y0141717D01*
X0611633Y0141850D01*
X0611766Y0141979D01*
X0611901Y0142105D01*
X0612040Y0142228D01*
X0612181Y0142347D01*
X0612326Y0142462D01*
X0612473Y0142574D01*
X0612623Y0142683D01*
X0612776Y0142787D01*
X0612931Y0142888D01*
X0613088Y0142985D01*
X0613248Y0143079D01*
X0613410Y0143168D01*
X0613574Y0143253D01*
X0613741Y0143334D01*
X0613909Y0143411D01*
X0614079Y0143484D01*
X0614251Y0143553D01*
X0614424Y0143617D01*
X0614599Y0143677D01*
X0614776Y0143733D01*
X0614953Y0143785D01*
X0615132Y0143832D01*
X0615312Y0143875D01*
X0615493Y0143913D01*
X0615675Y0143947D01*
X0615858Y0143976D01*
X0616041Y0144001D01*
X0616225Y0144022D01*
X0616409Y0144038D01*
X0616594Y0144049D01*
X0616779Y0144056D01*
X0616964Y0144058D01*
X0617149Y0144056D01*
X0617334Y0144049D01*
X0617519Y0144038D01*
X0617703Y0144022D01*
X0617887Y0144001D01*
X0618070Y0143976D01*
X0618253Y0143947D01*
X0618435Y0143913D01*
X0618616Y0143875D01*
X0618796Y0143832D01*
X0618975Y0143785D01*
X0619152Y0143733D01*
X0619329Y0143677D01*
X0619504Y0143617D01*
X0619677Y0143553D01*
X0619849Y0143484D01*
X0620019Y0143411D01*
X0620187Y0143334D01*
X0620354Y0143253D01*
X0620518Y0143168D01*
X0620680Y0143079D01*
X0620840Y0142985D01*
X0620997Y0142888D01*
X0621152Y0142787D01*
X0621305Y0142683D01*
X0621455Y0142574D01*
X0621602Y0142462D01*
X0621747Y0142347D01*
X0621888Y0142228D01*
X0622027Y0142105D01*
X0622162Y0141979D01*
X0622295Y0141850D01*
X0622424Y0141717D01*
X0622550Y0141582D01*
X0622673Y0141443D01*
X0622792Y0141302D01*
X0622907Y0141157D01*
X0623019Y0141010D01*
X0623128Y0140860D01*
X0623232Y0140707D01*
X0623333Y0140552D01*
X0623430Y0140395D01*
X0623524Y0140235D01*
X0623613Y0140073D01*
X0623698Y0139909D01*
X0623779Y0139742D01*
X0623856Y0139574D01*
X0623929Y0139404D01*
X0623998Y0139232D01*
X0624062Y0139059D01*
X0624122Y0138884D01*
X0624178Y0138707D01*
X0624230Y0138530D01*
X0624277Y0138351D01*
X0624320Y0138171D01*
X0624358Y0137990D01*
X0624392Y0137808D01*
X0624421Y0137625D01*
X0624446Y0137442D01*
X0624467Y0137258D01*
X0624483Y0137074D01*
X0624494Y0136889D01*
X0624501Y0136704D01*
X0624503Y0136519D01*
X0624501Y0136334D01*
X0624494Y0136149D01*
X0624483Y0135964D01*
X0624467Y0135780D01*
X0624446Y0135596D01*
X0624421Y0135413D01*
X0624392Y0135230D01*
X0624358Y0135048D01*
X0624320Y0134867D01*
X0624277Y0134687D01*
X0624230Y0134508D01*
X0624178Y0134331D01*
X0624122Y0134154D01*
X0624062Y0133979D01*
X0623998Y0133806D01*
X0623929Y0133634D01*
X0623856Y0133464D01*
X0623779Y0133296D01*
X0623698Y0133129D01*
X0623613Y0132965D01*
X0623524Y0132803D01*
X0623430Y0132643D01*
X0623333Y0132486D01*
X0623232Y0132331D01*
X0623128Y0132178D01*
X0623019Y0132028D01*
X0622907Y0131881D01*
X0622792Y0131736D01*
X0622673Y0131595D01*
X0622550Y0131456D01*
X0622424Y0131321D01*
X0622295Y0131188D01*
X0622162Y0131059D01*
X0622027Y0130933D01*
X0621888Y0130810D01*
X0621747Y0130691D01*
X0621602Y0130576D01*
X0621455Y0130464D01*
X0621305Y0130355D01*
X0621152Y0130251D01*
X0620997Y0130150D01*
X0620840Y0130053D01*
X0620680Y0129959D01*
X0620518Y0129870D01*
X0620354Y0129785D01*
X0620187Y0129704D01*
X0620019Y0129627D01*
X0619849Y0129554D01*
X0619677Y0129485D01*
X0619504Y0129421D01*
X0619329Y0129361D01*
X0619152Y0129305D01*
X0618975Y0129253D01*
X0618796Y0129206D01*
X0618616Y0129163D01*
X0618435Y0129125D01*
X0618253Y0129091D01*
X0618070Y0129062D01*
X0617887Y0129037D01*
X0617703Y0129016D01*
X0617519Y0129000D01*
X0617334Y0128989D01*
X0617149Y0128982D01*
X0616964Y0128980D01*
X0616779Y0128982D01*
X0616594Y0128989D01*
X0616409Y0129000D01*
X0616225Y0129016D01*
X0616041Y0129037D01*
X0615858Y0129062D01*
X0615675Y0129091D01*
X0615493Y0129125D01*
X0615312Y0129163D01*
X0615132Y0129206D01*
X0614953Y0129253D01*
X0614776Y0129305D01*
X0614599Y0129361D01*
X0614424Y0129421D01*
X0614251Y0129485D01*
X0614079Y0129554D01*
X0613909Y0129627D01*
X0613741Y0129704D01*
X0613574Y0129785D01*
X0613410Y0129870D01*
X0613248Y0129959D01*
X0613088Y0130053D01*
X0612931Y0130150D01*
X0612776Y0130251D01*
X0612623Y0130355D01*
X0612473Y0130464D01*
X0612326Y0130576D01*
X0612181Y0130691D01*
X0612040Y0130810D01*
X0611901Y0130933D01*
X0611766Y0131059D01*
X0611633Y0131188D01*
X0611504Y0131321D01*
X0611378Y0131456D01*
X0611255Y0131595D01*
X0611136Y0131736D01*
X0611021Y0131881D01*
X0610909Y0132028D01*
X0610800Y0132178D01*
X0610696Y0132331D01*
X0610595Y0132486D01*
X0610498Y0132643D01*
X0610404Y0132803D01*
X0610315Y0132965D01*
X0610230Y0133129D01*
X0610149Y0133296D01*
X0610072Y0133464D01*
X0609999Y0133634D01*
X0609930Y0133806D01*
X0609866Y0133979D01*
X0609806Y0134154D01*
X0609750Y0134331D01*
X0609698Y0134508D01*
X0609651Y0134687D01*
X0609608Y0134867D01*
X0609570Y0135048D01*
X0609536Y0135230D01*
X0609507Y0135413D01*
X0609482Y0135596D01*
X0609461Y0135780D01*
X0609445Y0135964D01*
X0609434Y0136149D01*
X0609427Y0136334D01*
X0609425Y0136519D01*
D12*
X0157004Y0114807D02*
X0157004Y0112506D01*
X0161608Y0112506D01*
X0160073Y0112506D02*
X0160073Y0114807D01*
X0159306Y0115575D01*
X0157771Y0115575D01*
X0157004Y0114807D01*
X0157004Y0117109D02*
X0161608Y0117109D01*
X0159306Y0117109D02*
X0159306Y0120179D01*
X0157004Y0120179D02*
X0161608Y0120179D01*
X0161608Y0121713D02*
X0161608Y0124015D01*
X0160841Y0124783D01*
X0157771Y0124783D01*
X0157004Y0124015D01*
X0157004Y0121713D01*
X0161608Y0121713D01*
X0160841Y0126317D02*
X0160073Y0126317D01*
X0159306Y0127085D01*
X0159306Y0128619D01*
X0160073Y0129387D01*
X0160841Y0129387D01*
X0161608Y0128619D01*
X0161608Y0127085D01*
X0160841Y0126317D01*
X0159306Y0127085D02*
X0158539Y0126317D01*
X0157771Y0126317D01*
X0157004Y0127085D01*
X0157004Y0128619D01*
X0157771Y0129387D01*
X0158539Y0129387D01*
X0159306Y0128619D01*
X0160073Y0147939D02*
X0160073Y0150241D01*
X0159306Y0151008D01*
X0157771Y0151008D01*
X0157004Y0150241D01*
X0157004Y0147939D01*
X0161608Y0147939D01*
X0161608Y0152543D02*
X0157004Y0152543D01*
X0159306Y0152543D02*
X0159306Y0155612D01*
X0157004Y0155612D02*
X0161608Y0155612D01*
X0161608Y0157146D02*
X0161608Y0159448D01*
X0160841Y0160216D01*
X0157771Y0160216D01*
X0157004Y0159448D01*
X0157004Y0157146D01*
X0161608Y0157146D01*
X0161608Y0161750D02*
X0160841Y0161750D01*
X0157771Y0164820D01*
X0157004Y0164820D01*
X0157004Y0161750D01*
X0157004Y0183372D02*
X0157004Y0185674D01*
X0157771Y0186441D01*
X0159306Y0186441D01*
X0160073Y0185674D01*
X0160073Y0183372D01*
X0161608Y0183372D02*
X0157004Y0183372D01*
X0157004Y0187976D02*
X0161608Y0187976D01*
X0159306Y0187976D02*
X0159306Y0191045D01*
X0157004Y0191045D02*
X0161608Y0191045D01*
X0161608Y0192580D02*
X0157004Y0192580D01*
X0157004Y0194881D01*
X0157771Y0195649D01*
X0160841Y0195649D01*
X0161608Y0194881D01*
X0161608Y0192580D01*
X0160841Y0197183D02*
X0161608Y0197951D01*
X0161608Y0199485D01*
X0160841Y0200253D01*
X0160073Y0200253D01*
X0159306Y0199485D01*
X0159306Y0197183D01*
X0160841Y0197183D01*
X0159306Y0197183D02*
X0157771Y0198718D01*
X0157004Y0200253D01*
X0157004Y0218805D02*
X0157004Y0221107D01*
X0157771Y0221874D01*
X0159306Y0221874D01*
X0160073Y0221107D01*
X0160073Y0218805D01*
X0161608Y0218805D02*
X0157004Y0218805D01*
X0157004Y0223409D02*
X0161608Y0223409D01*
X0159306Y0223409D02*
X0159306Y0226478D01*
X0157004Y0226478D02*
X0161608Y0226478D01*
X0161608Y0228013D02*
X0161608Y0230315D01*
X0160841Y0231082D01*
X0157771Y0231082D01*
X0157004Y0230315D01*
X0157004Y0228013D01*
X0161608Y0228013D01*
X0160841Y0232617D02*
X0161608Y0233384D01*
X0161608Y0234918D01*
X0160841Y0235686D01*
X0159306Y0235686D01*
X0158539Y0234918D01*
X0158539Y0234151D01*
X0159306Y0232617D01*
X0157004Y0232617D01*
X0157004Y0235686D01*
X0157004Y0254238D02*
X0157004Y0256540D01*
X0157771Y0257307D01*
X0159306Y0257307D01*
X0160073Y0256540D01*
X0160073Y0254238D01*
X0161608Y0254238D02*
X0157004Y0254238D01*
X0157004Y0258842D02*
X0161608Y0258842D01*
X0159306Y0258842D02*
X0159306Y0261911D01*
X0157004Y0261911D02*
X0161608Y0261911D01*
X0161608Y0263446D02*
X0161608Y0265748D01*
X0160841Y0266515D01*
X0157771Y0266515D01*
X0157004Y0265748D01*
X0157004Y0263446D01*
X0161608Y0263446D01*
X0159306Y0268050D02*
X0159306Y0271119D01*
X0161608Y0270352D02*
X0157004Y0270352D01*
X0159306Y0268050D01*
X0160073Y0289671D02*
X0160073Y0291973D01*
X0159306Y0292740D01*
X0157771Y0292740D01*
X0157004Y0291973D01*
X0157004Y0289671D01*
X0161608Y0289671D01*
X0161608Y0294275D02*
X0157004Y0294275D01*
X0159306Y0294275D02*
X0159306Y0297344D01*
X0157004Y0297344D02*
X0161608Y0297344D01*
X0161608Y0298879D02*
X0161608Y0301181D01*
X0160841Y0301948D01*
X0157771Y0301948D01*
X0157004Y0301181D01*
X0157004Y0298879D01*
X0161608Y0298879D01*
X0160841Y0303483D02*
X0161608Y0304250D01*
X0161608Y0305785D01*
X0160841Y0306552D01*
X0160073Y0306552D01*
X0159306Y0305785D01*
X0159306Y0305017D01*
X0159306Y0305785D02*
X0158539Y0306552D01*
X0157771Y0306552D01*
X0157004Y0305785D01*
X0157004Y0304250D01*
X0157771Y0303483D01*
X0157004Y0325104D02*
X0157004Y0327406D01*
X0157771Y0328173D01*
X0159306Y0328173D01*
X0160073Y0327406D01*
X0160073Y0325104D01*
X0161608Y0325104D02*
X0157004Y0325104D01*
X0157004Y0329708D02*
X0161608Y0329708D01*
X0159306Y0329708D02*
X0159306Y0332777D01*
X0157004Y0332777D02*
X0161608Y0332777D01*
X0161608Y0334312D02*
X0157004Y0334312D01*
X0157004Y0336614D01*
X0157771Y0337381D01*
X0160841Y0337381D01*
X0161608Y0336614D01*
X0161608Y0334312D01*
X0161608Y0338916D02*
X0158539Y0341985D01*
X0157771Y0341985D01*
X0157004Y0341218D01*
X0157004Y0339683D01*
X0157771Y0338916D01*
X0161608Y0338916D02*
X0161608Y0341985D01*
X0161608Y0360537D02*
X0157004Y0360537D01*
X0157004Y0362839D01*
X0157771Y0363606D01*
X0159306Y0363606D01*
X0160073Y0362839D01*
X0160073Y0360537D01*
X0159306Y0365141D02*
X0159306Y0368210D01*
X0157004Y0368210D02*
X0161608Y0368210D01*
X0161608Y0369745D02*
X0157004Y0369745D01*
X0157004Y0372047D01*
X0157771Y0372814D01*
X0160841Y0372814D01*
X0161608Y0372047D01*
X0161608Y0369745D01*
X0161608Y0374349D02*
X0161608Y0377418D01*
X0161608Y0375883D02*
X0157004Y0375883D01*
X0158539Y0374349D01*
X0157004Y0365141D02*
X0161608Y0365141D01*
X0192437Y0365141D02*
X0197041Y0365141D01*
X0194739Y0365141D02*
X0194739Y0368210D01*
X0192437Y0368210D02*
X0197041Y0368210D01*
X0197041Y0369745D02*
X0192437Y0369745D01*
X0192437Y0372047D01*
X0193204Y0372814D01*
X0196274Y0372814D01*
X0197041Y0372047D01*
X0197041Y0369745D01*
X0196274Y0374349D02*
X0197041Y0375116D01*
X0197041Y0376651D01*
X0196274Y0377418D01*
X0193204Y0377418D01*
X0192437Y0376651D01*
X0192437Y0375116D01*
X0193204Y0374349D01*
X0193972Y0374349D01*
X0194739Y0375116D01*
X0194739Y0377418D01*
X0194739Y0363606D02*
X0195506Y0362839D01*
X0195506Y0360537D01*
X0197041Y0360537D02*
X0192437Y0360537D01*
X0192437Y0362839D01*
X0193204Y0363606D01*
X0194739Y0363606D01*
X0193204Y0341985D02*
X0196274Y0338916D01*
X0197041Y0339683D01*
X0197041Y0341218D01*
X0196274Y0341985D01*
X0193204Y0341985D01*
X0192437Y0341218D01*
X0192437Y0339683D01*
X0193204Y0338916D01*
X0196274Y0338916D01*
X0197041Y0337381D02*
X0197041Y0334312D01*
X0197041Y0335846D02*
X0192437Y0335846D01*
X0193972Y0334312D01*
X0193204Y0332777D02*
X0192437Y0332010D01*
X0192437Y0329708D01*
X0197041Y0329708D01*
X0197041Y0332010D01*
X0196274Y0332777D01*
X0193204Y0332777D01*
X0192437Y0328173D02*
X0197041Y0328173D01*
X0194739Y0328173D02*
X0194739Y0325104D01*
X0194739Y0323569D02*
X0195506Y0322802D01*
X0195506Y0320500D01*
X0197041Y0320500D02*
X0192437Y0320500D01*
X0192437Y0322802D01*
X0193204Y0323569D01*
X0194739Y0323569D01*
X0197041Y0325104D02*
X0192437Y0325104D01*
X0197041Y0306552D02*
X0197041Y0303483D01*
X0197041Y0305017D02*
X0192437Y0305017D01*
X0193972Y0303483D01*
X0197041Y0301948D02*
X0197041Y0298879D01*
X0197041Y0300413D02*
X0192437Y0300413D01*
X0193972Y0298879D01*
X0193204Y0297344D02*
X0192437Y0296577D01*
X0192437Y0294275D01*
X0197041Y0294275D01*
X0197041Y0296577D01*
X0196274Y0297344D01*
X0193204Y0297344D01*
X0192437Y0292740D02*
X0197041Y0292740D01*
X0194739Y0292740D02*
X0194739Y0289671D01*
X0194739Y0288136D02*
X0195506Y0287369D01*
X0195506Y0285067D01*
X0197041Y0285067D02*
X0192437Y0285067D01*
X0192437Y0287369D01*
X0193204Y0288136D01*
X0194739Y0288136D01*
X0197041Y0289671D02*
X0192437Y0289671D01*
X0193204Y0271119D02*
X0192437Y0270352D01*
X0192437Y0268817D01*
X0193204Y0268050D01*
X0193204Y0271119D02*
X0193972Y0271119D01*
X0197041Y0268050D01*
X0197041Y0271119D01*
X0197041Y0266515D02*
X0197041Y0263446D01*
X0197041Y0264980D02*
X0192437Y0264980D01*
X0193972Y0263446D01*
X0193204Y0261911D02*
X0192437Y0261144D01*
X0192437Y0258842D01*
X0197041Y0258842D01*
X0197041Y0261144D01*
X0196274Y0261911D01*
X0193204Y0261911D01*
X0192437Y0257307D02*
X0197041Y0257307D01*
X0194739Y0257307D02*
X0194739Y0254238D01*
X0194739Y0252703D02*
X0195506Y0251936D01*
X0195506Y0249634D01*
X0197041Y0249634D02*
X0192437Y0249634D01*
X0192437Y0251936D01*
X0193204Y0252703D01*
X0194739Y0252703D01*
X0197041Y0254238D02*
X0192437Y0254238D01*
X0193204Y0235686D02*
X0193972Y0235686D01*
X0194739Y0234918D01*
X0195506Y0235686D01*
X0196274Y0235686D01*
X0197041Y0234918D01*
X0197041Y0233384D01*
X0196274Y0232616D01*
X0197041Y0231082D02*
X0197041Y0228013D01*
X0197041Y0229547D02*
X0192437Y0229547D01*
X0193972Y0228013D01*
X0193204Y0226478D02*
X0192437Y0225711D01*
X0192437Y0223409D01*
X0197041Y0223409D01*
X0197041Y0225711D01*
X0196274Y0226478D01*
X0193204Y0226478D01*
X0192437Y0221874D02*
X0197041Y0221874D01*
X0194739Y0221874D02*
X0194739Y0218805D01*
X0194739Y0217270D02*
X0195506Y0216503D01*
X0195506Y0214201D01*
X0197041Y0214201D02*
X0192437Y0214201D01*
X0192437Y0216503D01*
X0193204Y0217270D01*
X0194739Y0217270D01*
X0197041Y0218805D02*
X0192437Y0218805D01*
X0193204Y0232616D02*
X0192437Y0233384D01*
X0192437Y0234918D01*
X0193204Y0235686D01*
X0194739Y0234918D02*
X0194739Y0234151D01*
X0227870Y0234151D02*
X0229405Y0232616D01*
X0229405Y0231082D02*
X0228637Y0231082D01*
X0227870Y0230315D01*
X0227870Y0228780D01*
X0228637Y0228013D01*
X0228637Y0226478D02*
X0227870Y0225711D01*
X0227870Y0223409D01*
X0232474Y0223409D01*
X0232474Y0225711D01*
X0231707Y0226478D01*
X0228637Y0226478D01*
X0232474Y0228013D02*
X0229405Y0231082D01*
X0232474Y0231082D02*
X0232474Y0228013D01*
X0232474Y0232616D02*
X0232474Y0235686D01*
X0232474Y0234151D02*
X0227870Y0234151D01*
X0227870Y0221874D02*
X0232474Y0221874D01*
X0230172Y0221874D02*
X0230172Y0218805D01*
X0230172Y0217270D02*
X0230939Y0216503D01*
X0230939Y0214201D01*
X0232474Y0214201D02*
X0227870Y0214201D01*
X0227870Y0216503D01*
X0228637Y0217270D01*
X0230172Y0217270D01*
X0232474Y0218805D02*
X0227870Y0218805D01*
X0228637Y0200253D02*
X0227870Y0199485D01*
X0227870Y0197951D01*
X0228637Y0197183D01*
X0228637Y0195649D02*
X0227870Y0194881D01*
X0227870Y0193347D01*
X0228637Y0192580D01*
X0228637Y0191045D02*
X0227870Y0190278D01*
X0227870Y0187976D01*
X0232474Y0187976D01*
X0232474Y0190278D01*
X0231707Y0191045D01*
X0228637Y0191045D01*
X0232474Y0192580D02*
X0229405Y0195649D01*
X0228637Y0195649D01*
X0232474Y0195649D02*
X0232474Y0192580D01*
X0232474Y0197183D02*
X0229405Y0200253D01*
X0228637Y0200253D01*
X0232474Y0200253D02*
X0232474Y0197183D01*
X0232474Y0186441D02*
X0227870Y0186441D01*
X0230172Y0186441D02*
X0230172Y0183372D01*
X0230172Y0181837D02*
X0230939Y0181070D01*
X0230939Y0178768D01*
X0232474Y0178768D02*
X0227870Y0178768D01*
X0227870Y0181070D01*
X0228637Y0181837D01*
X0230172Y0181837D01*
X0232474Y0183372D02*
X0227870Y0183372D01*
X0228637Y0164820D02*
X0229405Y0164820D01*
X0230172Y0164052D01*
X0230939Y0164820D01*
X0231707Y0164820D01*
X0232474Y0164052D01*
X0232474Y0162518D01*
X0231707Y0161750D01*
X0232474Y0160216D02*
X0232474Y0157146D01*
X0229405Y0160216D01*
X0228637Y0160216D01*
X0227870Y0159448D01*
X0227870Y0157914D01*
X0228637Y0157146D01*
X0228637Y0155612D02*
X0227870Y0154844D01*
X0227870Y0152543D01*
X0232474Y0152543D01*
X0232474Y0154844D01*
X0231707Y0155612D01*
X0228637Y0155612D01*
X0227870Y0151008D02*
X0232474Y0151008D01*
X0230172Y0151008D02*
X0230172Y0147939D01*
X0230172Y0146404D02*
X0230939Y0145637D01*
X0230939Y0143335D01*
X0232474Y0143335D02*
X0227870Y0143335D01*
X0227870Y0145637D01*
X0228637Y0146404D01*
X0230172Y0146404D01*
X0232474Y0147939D02*
X0227870Y0147939D01*
X0228637Y0161750D02*
X0227870Y0162518D01*
X0227870Y0164052D01*
X0228637Y0164820D01*
X0230172Y0164052D02*
X0230172Y0163285D01*
X0197041Y0162518D02*
X0196274Y0161750D01*
X0197041Y0162518D02*
X0197041Y0164052D01*
X0196274Y0164820D01*
X0194739Y0164820D01*
X0193972Y0164052D01*
X0193972Y0163285D01*
X0194739Y0161750D01*
X0192437Y0161750D01*
X0192437Y0164820D01*
X0197041Y0160216D02*
X0197041Y0157146D01*
X0197041Y0158681D02*
X0192437Y0158681D01*
X0193972Y0157146D01*
X0193204Y0155612D02*
X0192437Y0154844D01*
X0192437Y0152543D01*
X0197041Y0152543D01*
X0197041Y0154844D01*
X0196274Y0155612D01*
X0193204Y0155612D01*
X0192437Y0151008D02*
X0197041Y0151008D01*
X0194739Y0151008D02*
X0194739Y0147939D01*
X0194739Y0146404D02*
X0195506Y0145637D01*
X0195506Y0143335D01*
X0197041Y0143335D02*
X0192437Y0143335D01*
X0192437Y0145637D01*
X0193204Y0146404D01*
X0194739Y0146404D01*
X0197041Y0147939D02*
X0192437Y0147939D01*
X0192437Y0129387D02*
X0193204Y0127852D01*
X0194739Y0126317D01*
X0194739Y0128619D01*
X0195506Y0129387D01*
X0196274Y0129387D01*
X0197041Y0128619D01*
X0197041Y0127085D01*
X0196274Y0126317D01*
X0194739Y0126317D01*
X0197041Y0124783D02*
X0197041Y0121713D01*
X0197041Y0123248D02*
X0192437Y0123248D01*
X0193972Y0121713D01*
X0193204Y0120179D02*
X0192437Y0119411D01*
X0192437Y0117109D01*
X0197041Y0117109D01*
X0197041Y0119411D01*
X0196274Y0120179D01*
X0193204Y0120179D01*
X0192437Y0115575D02*
X0197041Y0115575D01*
X0194739Y0115575D02*
X0194739Y0112506D01*
X0194739Y0110971D02*
X0195506Y0110204D01*
X0195506Y0107902D01*
X0197041Y0107902D02*
X0192437Y0107902D01*
X0192437Y0110204D01*
X0193204Y0110971D01*
X0194739Y0110971D01*
X0197041Y0112506D02*
X0192437Y0112506D01*
X0227870Y0112506D02*
X0232474Y0112506D01*
X0230172Y0112506D02*
X0230172Y0115575D01*
X0227870Y0115575D02*
X0232474Y0115575D01*
X0232474Y0117109D02*
X0232474Y0119411D01*
X0231707Y0120179D01*
X0228637Y0120179D01*
X0227870Y0119411D01*
X0227870Y0117109D01*
X0232474Y0117109D01*
X0232474Y0121713D02*
X0229405Y0124783D01*
X0228637Y0124783D01*
X0227870Y0124015D01*
X0227870Y0122481D01*
X0228637Y0121713D01*
X0232474Y0121713D02*
X0232474Y0124783D01*
X0230172Y0126317D02*
X0230172Y0129387D01*
X0227870Y0128619D02*
X0230172Y0126317D01*
X0232474Y0128619D02*
X0227870Y0128619D01*
X0228637Y0110971D02*
X0230172Y0110971D01*
X0230939Y0110204D01*
X0230939Y0107902D01*
X0232474Y0107902D02*
X0227870Y0107902D01*
X0227870Y0110204D01*
X0228637Y0110971D01*
X0263303Y0110204D02*
X0263303Y0107902D01*
X0267907Y0107902D01*
X0266372Y0107902D02*
X0266372Y0110204D01*
X0265605Y0110971D01*
X0264070Y0110971D01*
X0263303Y0110204D01*
X0263303Y0112506D02*
X0267907Y0112506D01*
X0265605Y0112506D02*
X0265605Y0115575D01*
X0263303Y0115575D02*
X0267907Y0115575D01*
X0267907Y0117109D02*
X0267907Y0119411D01*
X0267140Y0120179D01*
X0264070Y0120179D01*
X0263303Y0119411D01*
X0263303Y0117109D01*
X0267907Y0117109D01*
X0267140Y0121713D02*
X0267907Y0122481D01*
X0267907Y0124015D01*
X0267140Y0124783D01*
X0266372Y0124783D01*
X0265605Y0124015D01*
X0265605Y0123248D01*
X0265605Y0124015D02*
X0264838Y0124783D01*
X0264070Y0124783D01*
X0263303Y0124015D01*
X0263303Y0122481D01*
X0264070Y0121713D01*
X0264070Y0126317D02*
X0263303Y0127085D01*
X0263303Y0128619D01*
X0264070Y0129387D01*
X0264838Y0129387D01*
X0267907Y0126317D01*
X0267907Y0129387D01*
X0267907Y0143335D02*
X0263303Y0143335D01*
X0263303Y0145637D01*
X0264070Y0146404D01*
X0265605Y0146404D01*
X0266372Y0145637D01*
X0266372Y0143335D01*
X0265605Y0147939D02*
X0265605Y0151008D01*
X0263303Y0151008D02*
X0267907Y0151008D01*
X0267907Y0152543D02*
X0267907Y0154844D01*
X0267140Y0155612D01*
X0264070Y0155612D01*
X0263303Y0154844D01*
X0263303Y0152543D01*
X0267907Y0152543D01*
X0267907Y0147939D02*
X0263303Y0147939D01*
X0264070Y0157146D02*
X0263303Y0157914D01*
X0263303Y0159448D01*
X0264070Y0160216D01*
X0264838Y0160216D01*
X0265605Y0159448D01*
X0266372Y0160216D01*
X0267140Y0160216D01*
X0267907Y0159448D01*
X0267907Y0157914D01*
X0267140Y0157146D01*
X0265605Y0158681D02*
X0265605Y0159448D01*
X0264838Y0161750D02*
X0263303Y0163285D01*
X0267907Y0163285D01*
X0267907Y0161750D02*
X0267907Y0164820D01*
X0267907Y0178768D02*
X0263303Y0178768D01*
X0263303Y0181070D01*
X0264070Y0181837D01*
X0265605Y0181837D01*
X0266372Y0181070D01*
X0266372Y0178768D01*
X0265605Y0183372D02*
X0265605Y0186441D01*
X0263303Y0186441D02*
X0267907Y0186441D01*
X0267907Y0187976D02*
X0263303Y0187976D01*
X0263303Y0190278D01*
X0264070Y0191045D01*
X0267140Y0191045D01*
X0267907Y0190278D01*
X0267907Y0187976D01*
X0267907Y0183372D02*
X0263303Y0183372D01*
X0264070Y0192580D02*
X0263303Y0193347D01*
X0263303Y0194881D01*
X0264070Y0195649D01*
X0264838Y0195649D01*
X0265605Y0194881D01*
X0266372Y0195649D01*
X0267140Y0195649D01*
X0267907Y0194881D01*
X0267907Y0193347D01*
X0267140Y0192580D01*
X0265605Y0194114D02*
X0265605Y0194881D01*
X0264070Y0197183D02*
X0263303Y0197951D01*
X0263303Y0199485D01*
X0264070Y0200253D01*
X0267140Y0197183D01*
X0267907Y0197951D01*
X0267907Y0199485D01*
X0267140Y0200253D01*
X0264070Y0200253D01*
X0264070Y0197183D02*
X0267140Y0197183D01*
X0267907Y0214201D02*
X0263303Y0214201D01*
X0263303Y0216503D01*
X0264070Y0217270D01*
X0265605Y0217270D01*
X0266372Y0216503D01*
X0266372Y0214201D01*
X0265605Y0218805D02*
X0265605Y0221874D01*
X0263303Y0221874D02*
X0267907Y0221874D01*
X0267907Y0223409D02*
X0267907Y0225711D01*
X0267140Y0226478D01*
X0264070Y0226478D01*
X0263303Y0225711D01*
X0263303Y0223409D01*
X0267907Y0223409D01*
X0267907Y0228013D02*
X0264838Y0231082D01*
X0264070Y0231082D01*
X0263303Y0230315D01*
X0263303Y0228780D01*
X0264070Y0228013D01*
X0267907Y0228013D02*
X0267907Y0231082D01*
X0267140Y0232616D02*
X0267907Y0233384D01*
X0267907Y0234918D01*
X0267140Y0235686D01*
X0264070Y0235686D01*
X0263303Y0234918D01*
X0263303Y0233384D01*
X0264070Y0232616D01*
X0264838Y0232616D01*
X0265605Y0233384D01*
X0265605Y0235686D01*
X0266372Y0249634D02*
X0266372Y0251936D01*
X0265605Y0252703D01*
X0264070Y0252703D01*
X0263303Y0251936D01*
X0263303Y0249634D01*
X0267907Y0249634D01*
X0267907Y0254238D02*
X0263303Y0254238D01*
X0265605Y0254238D02*
X0265605Y0257307D01*
X0263303Y0257307D02*
X0267907Y0257307D01*
X0267907Y0258842D02*
X0267907Y0261144D01*
X0267140Y0261911D01*
X0264070Y0261911D01*
X0263303Y0261144D01*
X0263303Y0258842D01*
X0267907Y0258842D01*
X0267907Y0263446D02*
X0264838Y0266515D01*
X0264070Y0266515D01*
X0263303Y0265748D01*
X0263303Y0264213D01*
X0264070Y0263446D01*
X0267907Y0263446D02*
X0267907Y0266515D01*
X0267140Y0268050D02*
X0266372Y0268050D01*
X0265605Y0268817D01*
X0265605Y0270352D01*
X0266372Y0271119D01*
X0267140Y0271119D01*
X0267907Y0270352D01*
X0267907Y0268817D01*
X0267140Y0268050D01*
X0265605Y0268817D02*
X0264838Y0268050D01*
X0264070Y0268050D01*
X0263303Y0268817D01*
X0263303Y0270352D01*
X0264070Y0271119D01*
X0264838Y0271119D01*
X0265605Y0270352D01*
X0266372Y0285067D02*
X0266372Y0287369D01*
X0265605Y0288136D01*
X0264070Y0288136D01*
X0263303Y0287369D01*
X0263303Y0285067D01*
X0267907Y0285067D01*
X0267907Y0289671D02*
X0263303Y0289671D01*
X0265605Y0289671D02*
X0265605Y0292740D01*
X0263303Y0292740D02*
X0267907Y0292740D01*
X0267907Y0294275D02*
X0267907Y0296577D01*
X0267140Y0297344D01*
X0264070Y0297344D01*
X0263303Y0296577D01*
X0263303Y0294275D01*
X0267907Y0294275D01*
X0267907Y0298879D02*
X0264838Y0301948D01*
X0264070Y0301948D01*
X0263303Y0301181D01*
X0263303Y0299646D01*
X0264070Y0298879D01*
X0267907Y0298879D02*
X0267907Y0301948D01*
X0267907Y0303483D02*
X0267140Y0303483D01*
X0264070Y0306552D01*
X0263303Y0306552D01*
X0263303Y0303483D01*
X0263303Y0320500D02*
X0263303Y0322802D01*
X0264070Y0323569D01*
X0265605Y0323569D01*
X0266372Y0322802D01*
X0266372Y0320500D01*
X0267907Y0320500D02*
X0263303Y0320500D01*
X0263303Y0325104D02*
X0267907Y0325104D01*
X0265605Y0325104D02*
X0265605Y0328173D01*
X0263303Y0328173D02*
X0267907Y0328173D01*
X0267907Y0329708D02*
X0263303Y0329708D01*
X0263303Y0332010D01*
X0264070Y0332777D01*
X0267140Y0332777D01*
X0267907Y0332010D01*
X0267907Y0329708D01*
X0267907Y0334312D02*
X0264838Y0337381D01*
X0264070Y0337381D01*
X0263303Y0336614D01*
X0263303Y0335079D01*
X0264070Y0334312D01*
X0267907Y0334312D02*
X0267907Y0337381D01*
X0267140Y0338916D02*
X0265605Y0338916D01*
X0265605Y0341218D01*
X0266372Y0341985D01*
X0267140Y0341985D01*
X0267907Y0341218D01*
X0267907Y0339683D01*
X0267140Y0338916D01*
X0265605Y0338916D02*
X0264070Y0340450D01*
X0263303Y0341985D01*
X0263303Y0355933D02*
X0263303Y0358235D01*
X0264070Y0359002D01*
X0265605Y0359002D01*
X0266372Y0358235D01*
X0266372Y0355933D01*
X0267907Y0355933D02*
X0263303Y0355933D01*
X0263303Y0360537D02*
X0267907Y0360537D01*
X0265605Y0360537D02*
X0265605Y0363606D01*
X0263303Y0363606D02*
X0267907Y0363606D01*
X0267907Y0365141D02*
X0267907Y0367443D01*
X0267140Y0368210D01*
X0264070Y0368210D01*
X0263303Y0367443D01*
X0263303Y0365141D01*
X0267907Y0365141D01*
X0267907Y0369745D02*
X0264838Y0372814D01*
X0264070Y0372814D01*
X0263303Y0372047D01*
X0263303Y0370512D01*
X0264070Y0369745D01*
X0267907Y0369745D02*
X0267907Y0372814D01*
X0267140Y0374349D02*
X0267907Y0375116D01*
X0267907Y0376651D01*
X0267140Y0377418D01*
X0265605Y0377418D01*
X0264838Y0376651D01*
X0264838Y0375883D01*
X0265605Y0374349D01*
X0263303Y0374349D01*
X0263303Y0377418D01*
X0232474Y0374349D02*
X0231707Y0374349D01*
X0228637Y0377418D01*
X0227870Y0377418D01*
X0227870Y0374349D01*
X0227870Y0371279D02*
X0232474Y0371279D01*
X0232474Y0369745D02*
X0232474Y0372814D01*
X0229405Y0369745D02*
X0227870Y0371279D01*
X0228637Y0368210D02*
X0227870Y0367443D01*
X0227870Y0365141D01*
X0232474Y0365141D01*
X0232474Y0367443D01*
X0231707Y0368210D01*
X0228637Y0368210D01*
X0227870Y0363606D02*
X0232474Y0363606D01*
X0230172Y0363606D02*
X0230172Y0360537D01*
X0230172Y0359002D02*
X0230939Y0358235D01*
X0230939Y0355933D01*
X0232474Y0355933D02*
X0227870Y0355933D01*
X0227870Y0358235D01*
X0228637Y0359002D01*
X0230172Y0359002D01*
X0232474Y0360537D02*
X0227870Y0360537D01*
X0228637Y0341985D02*
X0229405Y0341985D01*
X0230172Y0341218D01*
X0230172Y0339683D01*
X0229405Y0338916D01*
X0228637Y0338916D01*
X0227870Y0339683D01*
X0227870Y0341218D01*
X0228637Y0341985D01*
X0230172Y0341218D02*
X0230939Y0341985D01*
X0231707Y0341985D01*
X0232474Y0341218D01*
X0232474Y0339683D01*
X0231707Y0338916D01*
X0230939Y0338916D01*
X0230172Y0339683D01*
X0232474Y0337381D02*
X0232474Y0334312D01*
X0232474Y0335846D02*
X0227870Y0335846D01*
X0229405Y0334312D01*
X0228637Y0332777D02*
X0227870Y0332010D01*
X0227870Y0329708D01*
X0232474Y0329708D01*
X0232474Y0332010D01*
X0231707Y0332777D01*
X0228637Y0332777D01*
X0227870Y0328173D02*
X0232474Y0328173D01*
X0230172Y0328173D02*
X0230172Y0325104D01*
X0230172Y0323569D02*
X0230939Y0322802D01*
X0230939Y0320500D01*
X0232474Y0320500D02*
X0227870Y0320500D01*
X0227870Y0322802D01*
X0228637Y0323569D01*
X0230172Y0323569D01*
X0232474Y0325104D02*
X0227870Y0325104D01*
X0228637Y0306552D02*
X0227870Y0305785D01*
X0227870Y0304250D01*
X0228637Y0303483D01*
X0229405Y0303483D01*
X0230172Y0304250D01*
X0230172Y0306552D01*
X0231707Y0306552D02*
X0228637Y0306552D01*
X0231707Y0306552D02*
X0232474Y0305785D01*
X0232474Y0304250D01*
X0231707Y0303483D01*
X0232474Y0301948D02*
X0232474Y0298879D01*
X0232474Y0300413D02*
X0227870Y0300413D01*
X0229405Y0298879D01*
X0228637Y0297344D02*
X0227870Y0296577D01*
X0227870Y0294275D01*
X0232474Y0294275D01*
X0232474Y0296577D01*
X0231707Y0297344D01*
X0228637Y0297344D01*
X0227870Y0292740D02*
X0232474Y0292740D01*
X0230172Y0292740D02*
X0230172Y0289671D01*
X0230172Y0288136D02*
X0230939Y0287369D01*
X0230939Y0285067D01*
X0232474Y0285067D02*
X0227870Y0285067D01*
X0227870Y0287369D01*
X0228637Y0288136D01*
X0230172Y0288136D01*
X0232474Y0289671D02*
X0227870Y0289671D01*
X0228637Y0271119D02*
X0231707Y0268050D01*
X0232474Y0268817D01*
X0232474Y0270352D01*
X0231707Y0271119D01*
X0228637Y0271119D01*
X0227870Y0270352D01*
X0227870Y0268817D01*
X0228637Y0268050D01*
X0231707Y0268050D01*
X0232474Y0266515D02*
X0232474Y0263446D01*
X0229405Y0266515D01*
X0228637Y0266515D01*
X0227870Y0265748D01*
X0227870Y0264213D01*
X0228637Y0263446D01*
X0228637Y0261911D02*
X0227870Y0261144D01*
X0227870Y0258842D01*
X0232474Y0258842D01*
X0232474Y0261144D01*
X0231707Y0261911D01*
X0228637Y0261911D01*
X0227870Y0257307D02*
X0232474Y0257307D01*
X0230172Y0257307D02*
X0230172Y0254238D01*
X0230172Y0252703D02*
X0230939Y0251936D01*
X0230939Y0249634D01*
X0232474Y0249634D02*
X0227870Y0249634D01*
X0227870Y0251936D01*
X0228637Y0252703D01*
X0230172Y0252703D01*
X0232474Y0254238D02*
X0227870Y0254238D01*
X0263303Y0218805D02*
X0267907Y0218805D01*
X0298736Y0218805D02*
X0303340Y0218805D01*
X0301038Y0218805D02*
X0301038Y0221874D01*
X0298736Y0221874D02*
X0303340Y0221874D01*
X0303340Y0223409D02*
X0303340Y0225711D01*
X0302573Y0226478D01*
X0299504Y0226478D01*
X0298736Y0225711D01*
X0298736Y0223409D01*
X0303340Y0223409D01*
X0302573Y0228013D02*
X0303340Y0228780D01*
X0303340Y0230315D01*
X0302573Y0231082D01*
X0301806Y0231082D01*
X0301038Y0230315D01*
X0301038Y0229547D01*
X0301038Y0230315D02*
X0300271Y0231082D01*
X0299504Y0231082D01*
X0298736Y0230315D01*
X0298736Y0228780D01*
X0299504Y0228013D01*
X0298736Y0232616D02*
X0298736Y0235686D01*
X0299504Y0235686D01*
X0302573Y0232616D01*
X0303340Y0232616D01*
X0301038Y0217270D02*
X0301806Y0216503D01*
X0301806Y0214201D01*
X0303340Y0214201D02*
X0298736Y0214201D01*
X0298736Y0216503D01*
X0299504Y0217270D01*
X0301038Y0217270D01*
X0300271Y0200253D02*
X0301038Y0199485D01*
X0301038Y0197951D01*
X0300271Y0197183D01*
X0299504Y0197183D01*
X0298736Y0197951D01*
X0298736Y0199485D01*
X0299504Y0200253D01*
X0300271Y0200253D01*
X0301038Y0199485D02*
X0301806Y0200253D01*
X0302573Y0200253D01*
X0303340Y0199485D01*
X0303340Y0197951D01*
X0302573Y0197183D01*
X0301806Y0197183D01*
X0301038Y0197951D01*
X0300271Y0195649D02*
X0301038Y0194881D01*
X0301806Y0195649D01*
X0302573Y0195649D01*
X0303340Y0194881D01*
X0303340Y0193347D01*
X0302573Y0192580D01*
X0302573Y0191045D02*
X0299504Y0191045D01*
X0298736Y0190278D01*
X0298736Y0187976D01*
X0303340Y0187976D01*
X0303340Y0190278D01*
X0302573Y0191045D01*
X0301038Y0194114D02*
X0301038Y0194881D01*
X0300271Y0195649D02*
X0299504Y0195649D01*
X0298736Y0194881D01*
X0298736Y0193347D01*
X0299504Y0192580D01*
X0298736Y0186441D02*
X0303340Y0186441D01*
X0301038Y0186441D02*
X0301038Y0183372D01*
X0301038Y0181837D02*
X0301806Y0181070D01*
X0301806Y0178768D01*
X0303340Y0178768D02*
X0298736Y0178768D01*
X0298736Y0181070D01*
X0299504Y0181837D01*
X0301038Y0181837D01*
X0303340Y0183372D02*
X0298736Y0183372D01*
X0299504Y0164820D02*
X0298736Y0164052D01*
X0298736Y0162518D01*
X0299504Y0161750D01*
X0300271Y0161750D01*
X0301038Y0162518D01*
X0301038Y0164820D01*
X0299504Y0164820D02*
X0302573Y0164820D01*
X0303340Y0164052D01*
X0303340Y0162518D01*
X0302573Y0161750D01*
X0302573Y0160216D02*
X0303340Y0159448D01*
X0303340Y0157914D01*
X0302573Y0157146D01*
X0302573Y0155612D02*
X0299504Y0155612D01*
X0298736Y0154844D01*
X0298736Y0152543D01*
X0303340Y0152543D01*
X0303340Y0154844D01*
X0302573Y0155612D01*
X0301038Y0158681D02*
X0301038Y0159448D01*
X0301806Y0160216D01*
X0302573Y0160216D01*
X0301038Y0159448D02*
X0300271Y0160216D01*
X0299504Y0160216D01*
X0298736Y0159448D01*
X0298736Y0157914D01*
X0299504Y0157146D01*
X0298736Y0151008D02*
X0303340Y0151008D01*
X0301038Y0151008D02*
X0301038Y0147939D01*
X0301038Y0146404D02*
X0301806Y0145637D01*
X0301806Y0143335D01*
X0303340Y0143335D02*
X0298736Y0143335D01*
X0298736Y0145637D01*
X0299504Y0146404D01*
X0301038Y0146404D01*
X0303340Y0147939D02*
X0298736Y0147939D01*
X0299504Y0129387D02*
X0302573Y0126317D01*
X0303340Y0127085D01*
X0303340Y0128619D01*
X0302573Y0129387D01*
X0299504Y0129387D01*
X0298736Y0128619D01*
X0298736Y0127085D01*
X0299504Y0126317D01*
X0302573Y0126317D01*
X0301038Y0124783D02*
X0301038Y0121713D01*
X0298736Y0124015D01*
X0303340Y0124015D01*
X0302573Y0120179D02*
X0299504Y0120179D01*
X0298736Y0119411D01*
X0298736Y0117109D01*
X0303340Y0117109D01*
X0303340Y0119411D01*
X0302573Y0120179D01*
X0303340Y0115575D02*
X0298736Y0115575D01*
X0301038Y0115575D02*
X0301038Y0112506D01*
X0301038Y0110971D02*
X0301806Y0110204D01*
X0301806Y0107902D01*
X0303340Y0107902D02*
X0298736Y0107902D01*
X0298736Y0110204D01*
X0299504Y0110971D01*
X0301038Y0110971D01*
X0303340Y0112506D02*
X0298736Y0112506D01*
X0334169Y0112506D02*
X0338773Y0112506D01*
X0336471Y0112506D02*
X0336471Y0115575D01*
X0334169Y0115575D02*
X0338773Y0115575D01*
X0338773Y0117109D02*
X0338773Y0119411D01*
X0338006Y0120179D01*
X0334937Y0120179D01*
X0334169Y0119411D01*
X0334169Y0117109D01*
X0338773Y0117109D01*
X0336471Y0121713D02*
X0336471Y0124783D01*
X0335704Y0126317D02*
X0334937Y0126317D01*
X0334169Y0127085D01*
X0334169Y0128619D01*
X0334937Y0129387D01*
X0335704Y0129387D01*
X0336471Y0128619D01*
X0336471Y0127085D01*
X0335704Y0126317D01*
X0336471Y0127085D02*
X0337239Y0126317D01*
X0338006Y0126317D01*
X0338773Y0127085D01*
X0338773Y0128619D01*
X0338006Y0129387D01*
X0337239Y0129387D01*
X0336471Y0128619D01*
X0334169Y0124015D02*
X0336471Y0121713D01*
X0338773Y0124015D02*
X0334169Y0124015D01*
X0334937Y0110971D02*
X0336471Y0110971D01*
X0337239Y0110204D01*
X0337239Y0107902D01*
X0338773Y0107902D02*
X0334169Y0107902D01*
X0334169Y0110204D01*
X0334937Y0110971D01*
X0369602Y0110204D02*
X0369602Y0107902D01*
X0374206Y0107902D01*
X0372672Y0107902D02*
X0372672Y0110204D01*
X0371904Y0110971D01*
X0370370Y0110971D01*
X0369602Y0110204D01*
X0369602Y0112506D02*
X0374206Y0112506D01*
X0371904Y0112506D02*
X0371904Y0115575D01*
X0369602Y0115575D02*
X0374206Y0115575D01*
X0374206Y0117109D02*
X0374206Y0119411D01*
X0373439Y0120179D01*
X0370370Y0120179D01*
X0369602Y0119411D01*
X0369602Y0117109D01*
X0374206Y0117109D01*
X0373439Y0121713D02*
X0374206Y0122481D01*
X0374206Y0124015D01*
X0373439Y0124783D01*
X0371904Y0124783D01*
X0371137Y0124015D01*
X0371137Y0123248D01*
X0371904Y0121713D01*
X0369602Y0121713D01*
X0369602Y0124783D01*
X0371904Y0126317D02*
X0371904Y0128619D01*
X0372672Y0129387D01*
X0373439Y0129387D01*
X0374206Y0128619D01*
X0374206Y0127085D01*
X0373439Y0126317D01*
X0371904Y0126317D01*
X0370370Y0127852D01*
X0369602Y0129387D01*
X0369602Y0143335D02*
X0369602Y0145637D01*
X0370370Y0146404D01*
X0371904Y0146404D01*
X0372672Y0145637D01*
X0372672Y0143335D01*
X0374206Y0143335D02*
X0369602Y0143335D01*
X0369602Y0147939D02*
X0374206Y0147939D01*
X0371904Y0147939D02*
X0371904Y0151008D01*
X0369602Y0151008D02*
X0374206Y0151008D01*
X0374206Y0152543D02*
X0374206Y0154844D01*
X0373439Y0155612D01*
X0370370Y0155612D01*
X0369602Y0154844D01*
X0369602Y0152543D01*
X0374206Y0152543D01*
X0373439Y0157146D02*
X0374206Y0157914D01*
X0374206Y0159448D01*
X0373439Y0160216D01*
X0371904Y0160216D01*
X0371137Y0159448D01*
X0371137Y0158681D01*
X0371904Y0157146D01*
X0369602Y0157146D01*
X0369602Y0160216D01*
X0369602Y0161750D02*
X0371904Y0161750D01*
X0371137Y0163285D01*
X0371137Y0164052D01*
X0371904Y0164820D01*
X0373439Y0164820D01*
X0374206Y0164052D01*
X0374206Y0162518D01*
X0373439Y0161750D01*
X0369602Y0161750D02*
X0369602Y0164820D01*
X0369602Y0178768D02*
X0369602Y0181070D01*
X0370370Y0181837D01*
X0371904Y0181837D01*
X0372672Y0181070D01*
X0372672Y0178768D01*
X0374206Y0178768D02*
X0369602Y0178768D01*
X0369602Y0183372D02*
X0374206Y0183372D01*
X0371904Y0183372D02*
X0371904Y0186441D01*
X0369602Y0186441D02*
X0374206Y0186441D01*
X0374206Y0187976D02*
X0369602Y0187976D01*
X0369602Y0190278D01*
X0370370Y0191045D01*
X0373439Y0191045D01*
X0374206Y0190278D01*
X0374206Y0187976D01*
X0373439Y0192580D02*
X0374206Y0193347D01*
X0374206Y0194881D01*
X0373439Y0195649D01*
X0371904Y0195649D01*
X0371137Y0194881D01*
X0371137Y0194114D01*
X0371904Y0192580D01*
X0369602Y0192580D01*
X0369602Y0195649D01*
X0371904Y0197183D02*
X0371904Y0200253D01*
X0369602Y0199485D02*
X0371904Y0197183D01*
X0374206Y0199485D02*
X0369602Y0199485D01*
X0369602Y0214201D02*
X0369602Y0216503D01*
X0370370Y0217270D01*
X0371904Y0217270D01*
X0372672Y0216503D01*
X0372672Y0214201D01*
X0374206Y0214201D02*
X0369602Y0214201D01*
X0369602Y0218805D02*
X0374206Y0218805D01*
X0371904Y0218805D02*
X0371904Y0221874D01*
X0369602Y0221874D02*
X0374206Y0221874D01*
X0374206Y0223409D02*
X0374206Y0225711D01*
X0373439Y0226478D01*
X0370370Y0226478D01*
X0369602Y0225711D01*
X0369602Y0223409D01*
X0374206Y0223409D01*
X0373439Y0228013D02*
X0374206Y0228780D01*
X0374206Y0230315D01*
X0373439Y0231082D01*
X0371904Y0231082D01*
X0371137Y0230315D01*
X0371137Y0229547D01*
X0371904Y0228013D01*
X0369602Y0228013D01*
X0369602Y0231082D01*
X0370370Y0232616D02*
X0369602Y0233384D01*
X0369602Y0234918D01*
X0370370Y0235686D01*
X0371137Y0235686D01*
X0371904Y0234918D01*
X0372672Y0235686D01*
X0373439Y0235686D01*
X0374206Y0234918D01*
X0374206Y0233384D01*
X0373439Y0232616D01*
X0371904Y0234151D02*
X0371904Y0234918D01*
X0372672Y0249634D02*
X0372672Y0251936D01*
X0371904Y0252703D01*
X0370370Y0252703D01*
X0369602Y0251936D01*
X0369602Y0249634D01*
X0374206Y0249634D01*
X0374206Y0254238D02*
X0369602Y0254238D01*
X0371904Y0254238D02*
X0371904Y0257307D01*
X0369602Y0257307D02*
X0374206Y0257307D01*
X0374206Y0258842D02*
X0374206Y0261144D01*
X0373439Y0261911D01*
X0370370Y0261911D01*
X0369602Y0261144D01*
X0369602Y0258842D01*
X0374206Y0258842D01*
X0373439Y0263446D02*
X0374206Y0264213D01*
X0374206Y0265748D01*
X0373439Y0266515D01*
X0371904Y0266515D01*
X0371137Y0265748D01*
X0371137Y0264980D01*
X0371904Y0263446D01*
X0369602Y0263446D01*
X0369602Y0266515D01*
X0370370Y0268050D02*
X0369602Y0268817D01*
X0369602Y0270352D01*
X0370370Y0271119D01*
X0371137Y0271119D01*
X0374206Y0268050D01*
X0374206Y0271119D01*
X0374206Y0285067D02*
X0369602Y0285067D01*
X0369602Y0287369D01*
X0370370Y0288136D01*
X0371904Y0288136D01*
X0372672Y0287369D01*
X0372672Y0285067D01*
X0371904Y0289671D02*
X0371904Y0292740D01*
X0369602Y0292740D02*
X0374206Y0292740D01*
X0374206Y0294275D02*
X0374206Y0296577D01*
X0373439Y0297344D01*
X0370370Y0297344D01*
X0369602Y0296577D01*
X0369602Y0294275D01*
X0374206Y0294275D01*
X0374206Y0289671D02*
X0369602Y0289671D01*
X0369602Y0298879D02*
X0371904Y0298879D01*
X0371137Y0300413D01*
X0371137Y0301181D01*
X0371904Y0301948D01*
X0373439Y0301948D01*
X0374206Y0301181D01*
X0374206Y0299646D01*
X0373439Y0298879D01*
X0369602Y0298879D02*
X0369602Y0301948D01*
X0371137Y0303483D02*
X0369602Y0305017D01*
X0374206Y0305017D01*
X0374206Y0303483D02*
X0374206Y0306552D01*
X0374206Y0320500D02*
X0369602Y0320500D01*
X0369602Y0322802D01*
X0370370Y0323569D01*
X0371904Y0323569D01*
X0372672Y0322802D01*
X0372672Y0320500D01*
X0371904Y0325104D02*
X0371904Y0328173D01*
X0369602Y0328173D02*
X0374206Y0328173D01*
X0374206Y0329708D02*
X0369602Y0329708D01*
X0369602Y0332010D01*
X0370370Y0332777D01*
X0373439Y0332777D01*
X0374206Y0332010D01*
X0374206Y0329708D01*
X0374206Y0325104D02*
X0369602Y0325104D01*
X0369602Y0334312D02*
X0371904Y0334312D01*
X0371137Y0335846D01*
X0371137Y0336614D01*
X0371904Y0337381D01*
X0373439Y0337381D01*
X0374206Y0336614D01*
X0374206Y0335079D01*
X0373439Y0334312D01*
X0369602Y0334312D02*
X0369602Y0337381D01*
X0370370Y0338916D02*
X0369602Y0339683D01*
X0369602Y0341218D01*
X0370370Y0341985D01*
X0373439Y0338916D01*
X0374206Y0339683D01*
X0374206Y0341218D01*
X0373439Y0341985D01*
X0370370Y0341985D01*
X0370370Y0338916D02*
X0373439Y0338916D01*
X0374206Y0355933D02*
X0369602Y0355933D01*
X0369602Y0358235D01*
X0370370Y0359002D01*
X0371904Y0359002D01*
X0372672Y0358235D01*
X0372672Y0355933D01*
X0371904Y0360537D02*
X0371904Y0363606D01*
X0369602Y0363606D02*
X0374206Y0363606D01*
X0374206Y0365141D02*
X0374206Y0367443D01*
X0373439Y0368210D01*
X0370370Y0368210D01*
X0369602Y0367443D01*
X0369602Y0365141D01*
X0374206Y0365141D01*
X0374206Y0360537D02*
X0369602Y0360537D01*
X0371904Y0369745D02*
X0371904Y0372814D01*
X0371137Y0374349D02*
X0371904Y0375116D01*
X0371904Y0377418D01*
X0370370Y0377418D02*
X0369602Y0376651D01*
X0369602Y0375116D01*
X0370370Y0374349D01*
X0371137Y0374349D01*
X0373439Y0374349D02*
X0374206Y0375116D01*
X0374206Y0376651D01*
X0373439Y0377418D01*
X0370370Y0377418D01*
X0369602Y0372047D02*
X0371904Y0369745D01*
X0374206Y0372047D02*
X0369602Y0372047D01*
X0338773Y0372047D02*
X0334169Y0372047D01*
X0336471Y0369745D01*
X0336471Y0372814D01*
X0335704Y0374349D02*
X0334169Y0375883D01*
X0338773Y0375883D01*
X0338773Y0374349D02*
X0338773Y0377418D01*
X0338006Y0368210D02*
X0334937Y0368210D01*
X0334169Y0367443D01*
X0334169Y0365141D01*
X0338773Y0365141D01*
X0338773Y0367443D01*
X0338006Y0368210D01*
X0338773Y0363606D02*
X0334169Y0363606D01*
X0336471Y0363606D02*
X0336471Y0360537D01*
X0336471Y0359002D02*
X0337239Y0358235D01*
X0337239Y0355933D01*
X0338773Y0355933D02*
X0334169Y0355933D01*
X0334169Y0358235D01*
X0334937Y0359002D01*
X0336471Y0359002D01*
X0338773Y0360537D02*
X0334169Y0360537D01*
X0334937Y0341985D02*
X0334169Y0341218D01*
X0334169Y0339683D01*
X0334937Y0338916D01*
X0336471Y0337381D02*
X0336471Y0334312D01*
X0334169Y0336614D01*
X0338773Y0336614D01*
X0338773Y0338916D02*
X0335704Y0341985D01*
X0334937Y0341985D01*
X0338773Y0341985D02*
X0338773Y0338916D01*
X0338006Y0332777D02*
X0334937Y0332777D01*
X0334169Y0332010D01*
X0334169Y0329708D01*
X0338773Y0329708D01*
X0338773Y0332010D01*
X0338006Y0332777D01*
X0338773Y0328173D02*
X0334169Y0328173D01*
X0336471Y0328173D02*
X0336471Y0325104D01*
X0336471Y0323569D02*
X0337239Y0322802D01*
X0337239Y0320500D01*
X0338773Y0320500D02*
X0334169Y0320500D01*
X0334169Y0322802D01*
X0334937Y0323569D01*
X0336471Y0323569D01*
X0338773Y0325104D02*
X0334169Y0325104D01*
X0334937Y0306552D02*
X0335704Y0306552D01*
X0336471Y0305785D01*
X0337239Y0306552D01*
X0338006Y0306552D01*
X0338773Y0305785D01*
X0338773Y0304250D01*
X0338006Y0303483D01*
X0336471Y0305017D02*
X0336471Y0305785D01*
X0334937Y0306552D02*
X0334169Y0305785D01*
X0334169Y0304250D01*
X0334937Y0303483D01*
X0336471Y0301948D02*
X0336471Y0298879D01*
X0334169Y0301181D01*
X0338773Y0301181D01*
X0338006Y0297344D02*
X0334937Y0297344D01*
X0334169Y0296577D01*
X0334169Y0294275D01*
X0338773Y0294275D01*
X0338773Y0296577D01*
X0338006Y0297344D01*
X0338773Y0292740D02*
X0334169Y0292740D01*
X0336471Y0292740D02*
X0336471Y0289671D01*
X0336471Y0288136D02*
X0337239Y0287369D01*
X0337239Y0285067D01*
X0338773Y0285067D02*
X0334169Y0285067D01*
X0334169Y0287369D01*
X0334937Y0288136D01*
X0336471Y0288136D01*
X0338773Y0289671D02*
X0334169Y0289671D01*
X0336471Y0271119D02*
X0336471Y0268050D01*
X0334169Y0270352D01*
X0338773Y0270352D01*
X0336471Y0266515D02*
X0336471Y0263446D01*
X0334169Y0265748D01*
X0338773Y0265748D01*
X0338006Y0261911D02*
X0334937Y0261911D01*
X0334169Y0261144D01*
X0334169Y0258842D01*
X0338773Y0258842D01*
X0338773Y0261144D01*
X0338006Y0261911D01*
X0338773Y0257307D02*
X0334169Y0257307D01*
X0336471Y0257307D02*
X0336471Y0254238D01*
X0336471Y0252703D02*
X0337239Y0251936D01*
X0337239Y0249634D01*
X0338773Y0249634D02*
X0334169Y0249634D01*
X0334169Y0251936D01*
X0334937Y0252703D01*
X0336471Y0252703D01*
X0338773Y0254238D02*
X0334169Y0254238D01*
X0334169Y0235686D02*
X0334169Y0232616D01*
X0336471Y0232616D01*
X0335704Y0234151D01*
X0335704Y0234918D01*
X0336471Y0235686D01*
X0338006Y0235686D01*
X0338773Y0234918D01*
X0338773Y0233384D01*
X0338006Y0232616D01*
X0336471Y0231082D02*
X0336471Y0228013D01*
X0334169Y0230315D01*
X0338773Y0230315D01*
X0338006Y0226478D02*
X0334937Y0226478D01*
X0334169Y0225711D01*
X0334169Y0223409D01*
X0338773Y0223409D01*
X0338773Y0225711D01*
X0338006Y0226478D01*
X0338773Y0221874D02*
X0334169Y0221874D01*
X0336471Y0221874D02*
X0336471Y0218805D01*
X0336471Y0217270D02*
X0337239Y0216503D01*
X0337239Y0214201D01*
X0338773Y0214201D02*
X0334169Y0214201D01*
X0334169Y0216503D01*
X0334937Y0217270D01*
X0336471Y0217270D01*
X0338773Y0218805D02*
X0334169Y0218805D01*
X0334169Y0200253D02*
X0334937Y0198718D01*
X0336471Y0197183D01*
X0336471Y0199485D01*
X0337239Y0200253D01*
X0338006Y0200253D01*
X0338773Y0199485D01*
X0338773Y0197951D01*
X0338006Y0197183D01*
X0336471Y0197183D01*
X0336471Y0195649D02*
X0336471Y0192580D01*
X0334169Y0194881D01*
X0338773Y0194881D01*
X0338006Y0191045D02*
X0334937Y0191045D01*
X0334169Y0190278D01*
X0334169Y0187976D01*
X0338773Y0187976D01*
X0338773Y0190278D01*
X0338006Y0191045D01*
X0338773Y0186441D02*
X0334169Y0186441D01*
X0336471Y0186441D02*
X0336471Y0183372D01*
X0336471Y0181837D02*
X0337239Y0181070D01*
X0337239Y0178768D01*
X0338773Y0178768D02*
X0334169Y0178768D01*
X0334169Y0181070D01*
X0334937Y0181837D01*
X0336471Y0181837D01*
X0338773Y0183372D02*
X0334169Y0183372D01*
X0334169Y0164820D02*
X0334937Y0164820D01*
X0338006Y0161750D01*
X0338773Y0161750D01*
X0338773Y0159448D02*
X0334169Y0159448D01*
X0336471Y0157146D01*
X0336471Y0160216D01*
X0334169Y0161750D02*
X0334169Y0164820D01*
X0334937Y0155612D02*
X0334169Y0154844D01*
X0334169Y0152543D01*
X0338773Y0152543D01*
X0338773Y0154844D01*
X0338006Y0155612D01*
X0334937Y0155612D01*
X0334169Y0151008D02*
X0338773Y0151008D01*
X0336471Y0151008D02*
X0336471Y0147939D01*
X0336471Y0146404D02*
X0337239Y0145637D01*
X0337239Y0143335D01*
X0338773Y0143335D02*
X0334169Y0143335D01*
X0334169Y0145637D01*
X0334937Y0146404D01*
X0336471Y0146404D01*
X0338773Y0147939D02*
X0334169Y0147939D01*
X0405035Y0147939D02*
X0409639Y0147939D01*
X0407337Y0147939D02*
X0407337Y0151008D01*
X0405035Y0151008D02*
X0409639Y0151008D01*
X0409639Y0152543D02*
X0409639Y0154844D01*
X0408872Y0155612D01*
X0405803Y0155612D01*
X0405035Y0154844D01*
X0405035Y0152543D01*
X0409639Y0152543D01*
X0408872Y0157146D02*
X0407337Y0157146D01*
X0407337Y0159448D01*
X0408105Y0160216D01*
X0408872Y0160216D01*
X0409639Y0159448D01*
X0409639Y0157914D01*
X0408872Y0157146D01*
X0407337Y0157146D02*
X0405803Y0158681D01*
X0405035Y0160216D01*
X0405803Y0161750D02*
X0405035Y0162518D01*
X0405035Y0164052D01*
X0405803Y0164820D01*
X0406570Y0164820D01*
X0407337Y0164052D01*
X0408105Y0164820D01*
X0408872Y0164820D01*
X0409639Y0164052D01*
X0409639Y0162518D01*
X0408872Y0161750D01*
X0407337Y0163285D02*
X0407337Y0164052D01*
X0407337Y0146404D02*
X0408105Y0145637D01*
X0408105Y0143335D01*
X0409639Y0143335D02*
X0405035Y0143335D01*
X0405035Y0145637D01*
X0405803Y0146404D01*
X0407337Y0146404D01*
X0407337Y0129387D02*
X0407337Y0126317D01*
X0405035Y0128619D01*
X0409639Y0128619D01*
X0408872Y0124783D02*
X0408105Y0124783D01*
X0407337Y0124015D01*
X0407337Y0121713D01*
X0408872Y0121713D01*
X0409639Y0122481D01*
X0409639Y0124015D01*
X0408872Y0124783D01*
X0405803Y0123248D02*
X0407337Y0121713D01*
X0405803Y0120179D02*
X0405035Y0119411D01*
X0405035Y0117109D01*
X0409639Y0117109D01*
X0409639Y0119411D01*
X0408872Y0120179D01*
X0405803Y0120179D01*
X0405803Y0123248D02*
X0405035Y0124783D01*
X0405035Y0115575D02*
X0409639Y0115575D01*
X0407337Y0115575D02*
X0407337Y0112506D01*
X0407337Y0110971D02*
X0408105Y0110204D01*
X0408105Y0107902D01*
X0409639Y0107902D02*
X0405035Y0107902D01*
X0405035Y0110204D01*
X0405803Y0110971D01*
X0407337Y0110971D01*
X0409639Y0112506D02*
X0405035Y0112506D01*
X0440469Y0112506D02*
X0445072Y0112506D01*
X0442770Y0112506D02*
X0442770Y0115575D01*
X0440469Y0115575D02*
X0445072Y0115575D01*
X0445072Y0117109D02*
X0445072Y0119411D01*
X0444305Y0120179D01*
X0441236Y0120179D01*
X0440469Y0119411D01*
X0440469Y0117109D01*
X0445072Y0117109D01*
X0445072Y0121713D02*
X0444305Y0121713D01*
X0441236Y0124783D01*
X0440469Y0124783D01*
X0440469Y0121713D01*
X0441236Y0126317D02*
X0440469Y0127085D01*
X0440469Y0128619D01*
X0441236Y0129387D01*
X0442003Y0129387D01*
X0445072Y0126317D01*
X0445072Y0129387D01*
X0445072Y0143335D02*
X0440469Y0143335D01*
X0440469Y0145637D01*
X0441236Y0146404D01*
X0442770Y0146404D01*
X0443538Y0145637D01*
X0443538Y0143335D01*
X0442770Y0147939D02*
X0442770Y0151008D01*
X0440469Y0151008D02*
X0445072Y0151008D01*
X0445072Y0152543D02*
X0445072Y0154844D01*
X0444305Y0155612D01*
X0441236Y0155612D01*
X0440469Y0154844D01*
X0440469Y0152543D01*
X0445072Y0152543D01*
X0445072Y0157146D02*
X0444305Y0157146D01*
X0441236Y0160216D01*
X0440469Y0160216D01*
X0440469Y0157146D01*
X0442003Y0161750D02*
X0440469Y0163285D01*
X0445072Y0163285D01*
X0445072Y0161750D02*
X0445072Y0164820D01*
X0445072Y0178768D02*
X0440469Y0178768D01*
X0440469Y0181070D01*
X0441236Y0181837D01*
X0442770Y0181837D01*
X0443538Y0181070D01*
X0443538Y0178768D01*
X0442770Y0183372D02*
X0442770Y0186441D01*
X0440469Y0186441D02*
X0445072Y0186441D01*
X0445072Y0187976D02*
X0440469Y0187976D01*
X0440469Y0190278D01*
X0441236Y0191045D01*
X0444305Y0191045D01*
X0445072Y0190278D01*
X0445072Y0187976D01*
X0445072Y0192580D02*
X0444305Y0192580D01*
X0441236Y0195649D01*
X0440469Y0195649D01*
X0440469Y0192580D01*
X0441236Y0197183D02*
X0440469Y0197951D01*
X0440469Y0199485D01*
X0441236Y0200253D01*
X0444305Y0197183D01*
X0445072Y0197951D01*
X0445072Y0199485D01*
X0444305Y0200253D01*
X0441236Y0200253D01*
X0441236Y0197183D02*
X0444305Y0197183D01*
X0445072Y0183372D02*
X0440469Y0183372D01*
X0409639Y0183372D02*
X0405035Y0183372D01*
X0405803Y0181837D02*
X0407337Y0181837D01*
X0408105Y0181070D01*
X0408105Y0178768D01*
X0409639Y0178768D02*
X0405035Y0178768D01*
X0405035Y0181070D01*
X0405803Y0181837D01*
X0407337Y0183372D02*
X0407337Y0186441D01*
X0405035Y0186441D02*
X0409639Y0186441D01*
X0409639Y0187976D02*
X0405035Y0187976D01*
X0405035Y0190278D01*
X0405803Y0191045D01*
X0408872Y0191045D01*
X0409639Y0190278D01*
X0409639Y0187976D01*
X0408872Y0192580D02*
X0407337Y0192580D01*
X0407337Y0194881D01*
X0408105Y0195649D01*
X0408872Y0195649D01*
X0409639Y0194881D01*
X0409639Y0193347D01*
X0408872Y0192580D01*
X0407337Y0192580D02*
X0405803Y0194114D01*
X0405035Y0195649D01*
X0405803Y0197183D02*
X0405035Y0197951D01*
X0405035Y0199485D01*
X0405803Y0200253D01*
X0406570Y0200253D01*
X0409639Y0197183D01*
X0409639Y0200253D01*
X0409639Y0214201D02*
X0405035Y0214201D01*
X0405035Y0216503D01*
X0405803Y0217270D01*
X0407337Y0217270D01*
X0408105Y0216503D01*
X0408105Y0214201D01*
X0407337Y0218805D02*
X0407337Y0221874D01*
X0405035Y0221874D02*
X0409639Y0221874D01*
X0409639Y0223409D02*
X0409639Y0225711D01*
X0408872Y0226478D01*
X0405803Y0226478D01*
X0405035Y0225711D01*
X0405035Y0223409D01*
X0409639Y0223409D01*
X0409639Y0218805D02*
X0405035Y0218805D01*
X0407337Y0228013D02*
X0407337Y0230315D01*
X0408105Y0231082D01*
X0408872Y0231082D01*
X0409639Y0230315D01*
X0409639Y0228780D01*
X0408872Y0228013D01*
X0407337Y0228013D01*
X0405803Y0229547D01*
X0405035Y0231082D01*
X0406570Y0232616D02*
X0405035Y0234151D01*
X0409639Y0234151D01*
X0409639Y0232616D02*
X0409639Y0235686D01*
X0409639Y0249634D02*
X0405035Y0249634D01*
X0405035Y0251936D01*
X0405803Y0252703D01*
X0407337Y0252703D01*
X0408105Y0251936D01*
X0408105Y0249634D01*
X0407337Y0254238D02*
X0407337Y0257307D01*
X0405035Y0257307D02*
X0409639Y0257307D01*
X0409639Y0258842D02*
X0409639Y0261144D01*
X0408872Y0261911D01*
X0405803Y0261911D01*
X0405035Y0261144D01*
X0405035Y0258842D01*
X0409639Y0258842D01*
X0409639Y0254238D02*
X0405035Y0254238D01*
X0407337Y0263446D02*
X0407337Y0265748D01*
X0408105Y0266515D01*
X0408872Y0266515D01*
X0409639Y0265748D01*
X0409639Y0264213D01*
X0408872Y0263446D01*
X0407337Y0263446D01*
X0405803Y0264980D01*
X0405035Y0266515D01*
X0405803Y0268050D02*
X0405035Y0268817D01*
X0405035Y0270352D01*
X0405803Y0271119D01*
X0408872Y0268050D01*
X0409639Y0268817D01*
X0409639Y0270352D01*
X0408872Y0271119D01*
X0405803Y0271119D01*
X0405803Y0268050D02*
X0408872Y0268050D01*
X0409639Y0285067D02*
X0405035Y0285067D01*
X0405035Y0287369D01*
X0405803Y0288136D01*
X0407337Y0288136D01*
X0408105Y0287369D01*
X0408105Y0285067D01*
X0407337Y0289671D02*
X0407337Y0292740D01*
X0405035Y0292740D02*
X0409639Y0292740D01*
X0409639Y0294275D02*
X0409639Y0296577D01*
X0408872Y0297344D01*
X0405803Y0297344D01*
X0405035Y0296577D01*
X0405035Y0294275D01*
X0409639Y0294275D01*
X0409639Y0289671D02*
X0405035Y0289671D01*
X0405035Y0298879D02*
X0407337Y0298879D01*
X0406570Y0300413D01*
X0406570Y0301181D01*
X0407337Y0301948D01*
X0408872Y0301948D01*
X0409639Y0301181D01*
X0409639Y0299646D01*
X0408872Y0298879D01*
X0405035Y0298879D02*
X0405035Y0301948D01*
X0405803Y0303483D02*
X0406570Y0303483D01*
X0407337Y0304250D01*
X0407337Y0306552D01*
X0405803Y0306552D02*
X0405035Y0305785D01*
X0405035Y0304250D01*
X0405803Y0303483D01*
X0405803Y0306552D02*
X0408872Y0306552D01*
X0409639Y0305785D01*
X0409639Y0304250D01*
X0408872Y0303483D01*
X0409639Y0320500D02*
X0405035Y0320500D01*
X0405035Y0322802D01*
X0405803Y0323569D01*
X0407337Y0323569D01*
X0408105Y0322802D01*
X0408105Y0320500D01*
X0407337Y0325104D02*
X0407337Y0328173D01*
X0405035Y0328173D02*
X0409639Y0328173D01*
X0409639Y0329708D02*
X0405035Y0329708D01*
X0405035Y0332010D01*
X0405803Y0332777D01*
X0408872Y0332777D01*
X0409639Y0332010D01*
X0409639Y0329708D01*
X0409639Y0325104D02*
X0405035Y0325104D01*
X0405035Y0334312D02*
X0407337Y0334312D01*
X0406570Y0335846D01*
X0406570Y0336614D01*
X0407337Y0337381D01*
X0408872Y0337381D01*
X0409639Y0336614D01*
X0409639Y0335079D01*
X0408872Y0334312D01*
X0405035Y0334312D02*
X0405035Y0337381D01*
X0405803Y0338916D02*
X0406570Y0338916D01*
X0407337Y0339683D01*
X0407337Y0341218D01*
X0408105Y0341985D01*
X0408872Y0341985D01*
X0409639Y0341218D01*
X0409639Y0339683D01*
X0408872Y0338916D01*
X0408105Y0338916D01*
X0407337Y0339683D01*
X0407337Y0341218D02*
X0406570Y0341985D01*
X0405803Y0341985D01*
X0405035Y0341218D01*
X0405035Y0339683D01*
X0405803Y0338916D01*
X0405035Y0355933D02*
X0405035Y0358235D01*
X0405803Y0359002D01*
X0407337Y0359002D01*
X0408105Y0358235D01*
X0408105Y0355933D01*
X0409639Y0355933D02*
X0405035Y0355933D01*
X0405035Y0360537D02*
X0409639Y0360537D01*
X0407337Y0360537D02*
X0407337Y0363606D01*
X0405035Y0363606D02*
X0409639Y0363606D01*
X0409639Y0365141D02*
X0409639Y0367443D01*
X0408872Y0368210D01*
X0405803Y0368210D01*
X0405035Y0367443D01*
X0405035Y0365141D01*
X0409639Y0365141D01*
X0408872Y0369745D02*
X0409639Y0370512D01*
X0409639Y0372047D01*
X0408872Y0372814D01*
X0407337Y0372814D01*
X0406570Y0372047D01*
X0406570Y0371279D01*
X0407337Y0369745D01*
X0405035Y0369745D01*
X0405035Y0372814D01*
X0405035Y0374349D02*
X0405035Y0377418D01*
X0405803Y0377418D01*
X0408872Y0374349D01*
X0409639Y0374349D01*
X0440469Y0374349D02*
X0442770Y0374349D01*
X0442003Y0375883D01*
X0442003Y0376651D01*
X0442770Y0377418D01*
X0444305Y0377418D01*
X0445072Y0376651D01*
X0445072Y0375116D01*
X0444305Y0374349D01*
X0444305Y0372814D02*
X0443538Y0372814D01*
X0442770Y0372047D01*
X0442770Y0369745D01*
X0444305Y0369745D01*
X0445072Y0370512D01*
X0445072Y0372047D01*
X0444305Y0372814D01*
X0441236Y0371279D02*
X0442770Y0369745D01*
X0441236Y0371279D02*
X0440469Y0372814D01*
X0440469Y0374349D02*
X0440469Y0377418D01*
X0441236Y0368210D02*
X0440469Y0367443D01*
X0440469Y0365141D01*
X0445072Y0365141D01*
X0445072Y0367443D01*
X0444305Y0368210D01*
X0441236Y0368210D01*
X0440469Y0363606D02*
X0445072Y0363606D01*
X0442770Y0363606D02*
X0442770Y0360537D01*
X0442770Y0359002D02*
X0443538Y0358235D01*
X0443538Y0355933D01*
X0445072Y0355933D02*
X0440469Y0355933D01*
X0440469Y0358235D01*
X0441236Y0359002D01*
X0442770Y0359002D01*
X0445072Y0360537D02*
X0440469Y0360537D01*
X0440469Y0341985D02*
X0441236Y0340450D01*
X0442770Y0338916D01*
X0442770Y0341218D01*
X0443538Y0341985D01*
X0444305Y0341985D01*
X0445072Y0341218D01*
X0445072Y0339683D01*
X0444305Y0338916D01*
X0442770Y0338916D01*
X0443538Y0337381D02*
X0442770Y0336614D01*
X0442770Y0334312D01*
X0444305Y0334312D01*
X0445072Y0335079D01*
X0445072Y0336614D01*
X0444305Y0337381D01*
X0443538Y0337381D01*
X0441236Y0335846D02*
X0442770Y0334312D01*
X0441236Y0335846D02*
X0440469Y0337381D01*
X0441236Y0332777D02*
X0440469Y0332010D01*
X0440469Y0329708D01*
X0445072Y0329708D01*
X0445072Y0332010D01*
X0444305Y0332777D01*
X0441236Y0332777D01*
X0440469Y0328173D02*
X0445072Y0328173D01*
X0442770Y0328173D02*
X0442770Y0325104D01*
X0442770Y0323569D02*
X0441236Y0323569D01*
X0440469Y0322802D01*
X0440469Y0320500D01*
X0445072Y0320500D01*
X0443538Y0320500D02*
X0443538Y0322802D01*
X0442770Y0323569D01*
X0445072Y0325104D02*
X0440469Y0325104D01*
X0440469Y0306552D02*
X0441236Y0306552D01*
X0444305Y0303483D01*
X0445072Y0303483D01*
X0444305Y0301948D02*
X0443538Y0301948D01*
X0442770Y0301181D01*
X0442770Y0298879D01*
X0444305Y0298879D01*
X0445072Y0299646D01*
X0445072Y0301181D01*
X0444305Y0301948D01*
X0441236Y0300413D02*
X0442770Y0298879D01*
X0441236Y0300413D02*
X0440469Y0301948D01*
X0440469Y0303483D02*
X0440469Y0306552D01*
X0441236Y0297344D02*
X0440469Y0296577D01*
X0440469Y0294275D01*
X0445072Y0294275D01*
X0445072Y0296577D01*
X0444305Y0297344D01*
X0441236Y0297344D01*
X0440469Y0292740D02*
X0445072Y0292740D01*
X0442770Y0292740D02*
X0442770Y0289671D01*
X0442770Y0288136D02*
X0443538Y0287369D01*
X0443538Y0285067D01*
X0445072Y0285067D02*
X0440469Y0285067D01*
X0440469Y0287369D01*
X0441236Y0288136D01*
X0442770Y0288136D01*
X0445072Y0289671D02*
X0440469Y0289671D01*
X0441236Y0271119D02*
X0442003Y0271119D01*
X0442770Y0270352D01*
X0442770Y0268817D01*
X0442003Y0268050D01*
X0441236Y0268050D01*
X0440469Y0268817D01*
X0440469Y0270352D01*
X0441236Y0271119D01*
X0442770Y0270352D02*
X0443538Y0271119D01*
X0444305Y0271119D01*
X0445072Y0270352D01*
X0445072Y0268817D01*
X0444305Y0268050D01*
X0443538Y0268050D01*
X0442770Y0268817D01*
X0443538Y0266515D02*
X0442770Y0265748D01*
X0442770Y0263446D01*
X0444305Y0263446D01*
X0445072Y0264213D01*
X0445072Y0265748D01*
X0444305Y0266515D01*
X0443538Y0266515D01*
X0441236Y0264980D02*
X0442770Y0263446D01*
X0441236Y0264980D02*
X0440469Y0266515D01*
X0441236Y0261911D02*
X0440469Y0261144D01*
X0440469Y0258842D01*
X0445072Y0258842D01*
X0445072Y0261144D01*
X0444305Y0261911D01*
X0441236Y0261911D01*
X0440469Y0257307D02*
X0445072Y0257307D01*
X0442770Y0257307D02*
X0442770Y0254238D01*
X0442770Y0252703D02*
X0443538Y0251936D01*
X0443538Y0249634D01*
X0445072Y0249634D02*
X0440469Y0249634D01*
X0440469Y0251936D01*
X0441236Y0252703D01*
X0442770Y0252703D01*
X0445072Y0254238D02*
X0440469Y0254238D01*
X0441236Y0235686D02*
X0440469Y0234918D01*
X0440469Y0233384D01*
X0441236Y0232616D01*
X0442003Y0232616D01*
X0442770Y0233384D01*
X0442770Y0235686D01*
X0441236Y0235686D02*
X0444305Y0235686D01*
X0445072Y0234918D01*
X0445072Y0233384D01*
X0444305Y0232616D01*
X0444305Y0231082D02*
X0443538Y0231082D01*
X0442770Y0230315D01*
X0442770Y0228013D01*
X0444305Y0228013D01*
X0445072Y0228780D01*
X0445072Y0230315D01*
X0444305Y0231082D01*
X0441236Y0229547D02*
X0442770Y0228013D01*
X0441236Y0229547D02*
X0440469Y0231082D01*
X0441236Y0226478D02*
X0440469Y0225711D01*
X0440469Y0223409D01*
X0445072Y0223409D01*
X0445072Y0225711D01*
X0444305Y0226478D01*
X0441236Y0226478D01*
X0440469Y0221874D02*
X0445072Y0221874D01*
X0442770Y0221874D02*
X0442770Y0218805D01*
X0442770Y0217270D02*
X0443538Y0216503D01*
X0443538Y0214201D01*
X0445072Y0214201D02*
X0440469Y0214201D01*
X0440469Y0216503D01*
X0441236Y0217270D01*
X0442770Y0217270D01*
X0445072Y0218805D02*
X0440469Y0218805D01*
X0475902Y0218805D02*
X0480506Y0218805D01*
X0478204Y0218805D02*
X0478204Y0221874D01*
X0475902Y0221874D02*
X0480506Y0221874D01*
X0480506Y0223409D02*
X0480506Y0225711D01*
X0479738Y0226478D01*
X0476669Y0226478D01*
X0475902Y0225711D01*
X0475902Y0223409D01*
X0480506Y0223409D01*
X0480506Y0228013D02*
X0479738Y0228013D01*
X0476669Y0231082D01*
X0475902Y0231082D01*
X0475902Y0228013D01*
X0475902Y0232616D02*
X0475902Y0235686D01*
X0476669Y0235686D01*
X0479738Y0232616D01*
X0480506Y0232616D01*
X0478204Y0217270D02*
X0476669Y0217270D01*
X0475902Y0216503D01*
X0475902Y0214201D01*
X0480506Y0214201D01*
X0478971Y0214201D02*
X0478971Y0216503D01*
X0478204Y0217270D01*
X0478971Y0200253D02*
X0479738Y0200253D01*
X0480506Y0199485D01*
X0480506Y0197951D01*
X0479738Y0197183D01*
X0478971Y0197183D01*
X0478204Y0197951D01*
X0478204Y0199485D01*
X0478971Y0200253D01*
X0478204Y0199485D02*
X0477436Y0200253D01*
X0476669Y0200253D01*
X0475902Y0199485D01*
X0475902Y0197951D01*
X0476669Y0197183D01*
X0477436Y0197183D01*
X0478204Y0197951D01*
X0476669Y0195649D02*
X0479738Y0192580D01*
X0480506Y0192580D01*
X0479738Y0191045D02*
X0476669Y0191045D01*
X0475902Y0190278D01*
X0475902Y0187976D01*
X0480506Y0187976D01*
X0480506Y0190278D01*
X0479738Y0191045D01*
X0475902Y0192580D02*
X0475902Y0195649D01*
X0476669Y0195649D01*
X0475902Y0186441D02*
X0480506Y0186441D01*
X0478204Y0186441D02*
X0478204Y0183372D01*
X0478204Y0181837D02*
X0476669Y0181837D01*
X0475902Y0181070D01*
X0475902Y0178768D01*
X0480506Y0178768D01*
X0478971Y0178768D02*
X0478971Y0181070D01*
X0478204Y0181837D01*
X0480506Y0183372D02*
X0475902Y0183372D01*
X0476669Y0164820D02*
X0475902Y0164052D01*
X0475902Y0162518D01*
X0476669Y0161750D01*
X0477436Y0161750D01*
X0478204Y0162518D01*
X0478204Y0164820D01*
X0479738Y0164820D02*
X0476669Y0164820D01*
X0479738Y0164820D02*
X0480506Y0164052D01*
X0480506Y0162518D01*
X0479738Y0161750D01*
X0476669Y0160216D02*
X0479738Y0157146D01*
X0480506Y0157146D01*
X0479738Y0155612D02*
X0476669Y0155612D01*
X0475902Y0154844D01*
X0475902Y0152543D01*
X0480506Y0152543D01*
X0480506Y0154844D01*
X0479738Y0155612D01*
X0475902Y0157146D02*
X0475902Y0160216D01*
X0476669Y0160216D01*
X0475902Y0151008D02*
X0480506Y0151008D01*
X0478204Y0151008D02*
X0478204Y0147939D01*
X0478204Y0146404D02*
X0478971Y0145637D01*
X0478971Y0143335D01*
X0480506Y0143335D02*
X0475902Y0143335D01*
X0475902Y0145637D01*
X0476669Y0146404D01*
X0478204Y0146404D01*
X0480506Y0147939D02*
X0475902Y0147939D01*
X0476669Y0129387D02*
X0479738Y0126317D01*
X0480506Y0127085D01*
X0480506Y0128619D01*
X0479738Y0129387D01*
X0476669Y0129387D01*
X0475902Y0128619D01*
X0475902Y0127085D01*
X0476669Y0126317D01*
X0479738Y0126317D01*
X0479738Y0124783D02*
X0480506Y0124015D01*
X0480506Y0122481D01*
X0479738Y0121713D01*
X0478971Y0121713D01*
X0478204Y0122481D01*
X0478204Y0124015D01*
X0478971Y0124783D01*
X0479738Y0124783D01*
X0478204Y0124015D02*
X0477436Y0124783D01*
X0476669Y0124783D01*
X0475902Y0124015D01*
X0475902Y0122481D01*
X0476669Y0121713D01*
X0477436Y0121713D01*
X0478204Y0122481D01*
X0479738Y0120179D02*
X0476669Y0120179D01*
X0475902Y0119411D01*
X0475902Y0117109D01*
X0480506Y0117109D01*
X0480506Y0119411D01*
X0479738Y0120179D01*
X0480506Y0115575D02*
X0475902Y0115575D01*
X0478204Y0115575D02*
X0478204Y0112506D01*
X0478204Y0110971D02*
X0478971Y0110204D01*
X0478971Y0107902D01*
X0480506Y0107902D02*
X0475902Y0107902D01*
X0475902Y0110204D01*
X0476669Y0110971D01*
X0478204Y0110971D01*
X0480506Y0112506D02*
X0475902Y0112506D01*
X0445072Y0107902D02*
X0440469Y0107902D01*
X0440469Y0110204D01*
X0441236Y0110971D01*
X0442770Y0110971D01*
X0443538Y0110204D01*
X0443538Y0107902D01*
X0445072Y0147939D02*
X0440469Y0147939D01*
X0511335Y0147939D02*
X0515939Y0147939D01*
X0513637Y0147939D02*
X0513637Y0151008D01*
X0511335Y0151008D02*
X0515939Y0151008D01*
X0515939Y0152543D02*
X0515939Y0154844D01*
X0515171Y0155612D01*
X0512102Y0155612D01*
X0511335Y0154844D01*
X0511335Y0152543D01*
X0515939Y0152543D01*
X0515171Y0157146D02*
X0514404Y0157146D01*
X0513637Y0157914D01*
X0513637Y0159448D01*
X0514404Y0160216D01*
X0515171Y0160216D01*
X0515939Y0159448D01*
X0515939Y0157914D01*
X0515171Y0157146D01*
X0513637Y0157914D02*
X0512869Y0157146D01*
X0512102Y0157146D01*
X0511335Y0157914D01*
X0511335Y0159448D01*
X0512102Y0160216D01*
X0512869Y0160216D01*
X0513637Y0159448D01*
X0515171Y0161750D02*
X0515939Y0161750D01*
X0515171Y0161750D02*
X0512102Y0164820D01*
X0511335Y0164820D01*
X0511335Y0161750D01*
X0512102Y0146404D02*
X0513637Y0146404D01*
X0514404Y0145637D01*
X0514404Y0143335D01*
X0515939Y0143335D02*
X0511335Y0143335D01*
X0511335Y0145637D01*
X0512102Y0146404D01*
X0512102Y0129387D02*
X0512869Y0129387D01*
X0513637Y0128619D01*
X0513637Y0127085D01*
X0512869Y0126317D01*
X0512102Y0126317D01*
X0511335Y0127085D01*
X0511335Y0128619D01*
X0512102Y0129387D01*
X0513637Y0128619D02*
X0514404Y0129387D01*
X0515171Y0129387D01*
X0515939Y0128619D01*
X0515939Y0127085D01*
X0515171Y0126317D01*
X0514404Y0126317D01*
X0513637Y0127085D01*
X0514404Y0124783D02*
X0515171Y0124783D01*
X0515939Y0124015D01*
X0515939Y0122481D01*
X0515171Y0121713D01*
X0514404Y0121713D01*
X0513637Y0122481D01*
X0513637Y0124015D01*
X0514404Y0124783D01*
X0513637Y0124015D02*
X0512869Y0124783D01*
X0512102Y0124783D01*
X0511335Y0124015D01*
X0511335Y0122481D01*
X0512102Y0121713D01*
X0512869Y0121713D01*
X0513637Y0122481D01*
X0515171Y0120179D02*
X0512102Y0120179D01*
X0511335Y0119411D01*
X0511335Y0117109D01*
X0515939Y0117109D01*
X0515939Y0119411D01*
X0515171Y0120179D01*
X0515939Y0115575D02*
X0511335Y0115575D01*
X0513637Y0115575D02*
X0513637Y0112506D01*
X0513637Y0110971D02*
X0514404Y0110204D01*
X0514404Y0107902D01*
X0515939Y0107902D02*
X0511335Y0107902D01*
X0511335Y0110204D01*
X0512102Y0110971D01*
X0513637Y0110971D01*
X0515939Y0112506D02*
X0511335Y0112506D01*
X0546768Y0112506D02*
X0551372Y0112506D01*
X0549070Y0112506D02*
X0549070Y0115575D01*
X0546768Y0115575D02*
X0551372Y0115575D01*
X0551372Y0117109D02*
X0551372Y0119411D01*
X0550604Y0120179D01*
X0547535Y0120179D01*
X0546768Y0119411D01*
X0546768Y0117109D01*
X0551372Y0117109D01*
X0550604Y0121713D02*
X0551372Y0122481D01*
X0551372Y0124015D01*
X0550604Y0124783D01*
X0547535Y0124783D01*
X0546768Y0124015D01*
X0546768Y0122481D01*
X0547535Y0121713D01*
X0548302Y0121713D01*
X0549070Y0122481D01*
X0549070Y0124783D01*
X0549070Y0126317D02*
X0549070Y0128619D01*
X0549837Y0129387D01*
X0550604Y0129387D01*
X0551372Y0128619D01*
X0551372Y0127085D01*
X0550604Y0126317D01*
X0549070Y0126317D01*
X0547535Y0127852D01*
X0546768Y0129387D01*
X0546768Y0143335D02*
X0546768Y0145637D01*
X0547535Y0146404D01*
X0549070Y0146404D01*
X0549837Y0145637D01*
X0549837Y0143335D01*
X0551372Y0143335D02*
X0546768Y0143335D01*
X0546768Y0147939D02*
X0551372Y0147939D01*
X0549070Y0147939D02*
X0549070Y0151008D01*
X0546768Y0151008D02*
X0551372Y0151008D01*
X0551372Y0152543D02*
X0551372Y0154844D01*
X0550604Y0155612D01*
X0547535Y0155612D01*
X0546768Y0154844D01*
X0546768Y0152543D01*
X0551372Y0152543D01*
X0550604Y0157146D02*
X0551372Y0157914D01*
X0551372Y0159448D01*
X0550604Y0160216D01*
X0547535Y0160216D01*
X0546768Y0159448D01*
X0546768Y0157914D01*
X0547535Y0157146D01*
X0548302Y0157146D01*
X0549070Y0157914D01*
X0549070Y0160216D01*
X0549070Y0161750D02*
X0548302Y0163285D01*
X0548302Y0164052D01*
X0549070Y0164820D01*
X0550604Y0164820D01*
X0551372Y0164052D01*
X0551372Y0162518D01*
X0550604Y0161750D01*
X0549070Y0161750D02*
X0546768Y0161750D01*
X0546768Y0164820D01*
X0546768Y0178768D02*
X0546768Y0181070D01*
X0547535Y0181837D01*
X0549070Y0181837D01*
X0549837Y0181070D01*
X0549837Y0178768D01*
X0551372Y0178768D02*
X0546768Y0178768D01*
X0546768Y0183372D02*
X0551372Y0183372D01*
X0549070Y0183372D02*
X0549070Y0186441D01*
X0546768Y0186441D02*
X0551372Y0186441D01*
X0551372Y0187976D02*
X0546768Y0187976D01*
X0546768Y0190278D01*
X0547535Y0191045D01*
X0550604Y0191045D01*
X0551372Y0190278D01*
X0551372Y0187976D01*
X0550604Y0192580D02*
X0551372Y0193347D01*
X0551372Y0194881D01*
X0550604Y0195649D01*
X0547535Y0195649D01*
X0546768Y0194881D01*
X0546768Y0193347D01*
X0547535Y0192580D01*
X0548302Y0192580D01*
X0549070Y0193347D01*
X0549070Y0195649D01*
X0549070Y0197183D02*
X0546768Y0199485D01*
X0551372Y0199485D01*
X0549070Y0200253D02*
X0549070Y0197183D01*
X0549837Y0214201D02*
X0549837Y0216503D01*
X0549070Y0217270D01*
X0547535Y0217270D01*
X0546768Y0216503D01*
X0546768Y0214201D01*
X0551372Y0214201D01*
X0551372Y0218805D02*
X0546768Y0218805D01*
X0549070Y0218805D02*
X0549070Y0221874D01*
X0546768Y0221874D02*
X0551372Y0221874D01*
X0551372Y0223409D02*
X0551372Y0225711D01*
X0550604Y0226478D01*
X0547535Y0226478D01*
X0546768Y0225711D01*
X0546768Y0223409D01*
X0551372Y0223409D01*
X0550604Y0228013D02*
X0551372Y0228780D01*
X0551372Y0230315D01*
X0550604Y0231082D01*
X0547535Y0231082D01*
X0546768Y0230315D01*
X0546768Y0228780D01*
X0547535Y0228013D01*
X0548302Y0228013D01*
X0549070Y0228780D01*
X0549070Y0231082D01*
X0550604Y0232616D02*
X0551372Y0233384D01*
X0551372Y0234918D01*
X0550604Y0235686D01*
X0549837Y0235686D01*
X0549070Y0234918D01*
X0549070Y0234151D01*
X0549070Y0234918D02*
X0548302Y0235686D01*
X0547535Y0235686D01*
X0546768Y0234918D01*
X0546768Y0233384D01*
X0547535Y0232616D01*
X0546768Y0249634D02*
X0546768Y0251936D01*
X0547535Y0252703D01*
X0549070Y0252703D01*
X0549837Y0251936D01*
X0549837Y0249634D01*
X0551372Y0249634D02*
X0546768Y0249634D01*
X0546768Y0254238D02*
X0551372Y0254238D01*
X0549070Y0254238D02*
X0549070Y0257307D01*
X0546768Y0257307D02*
X0551372Y0257307D01*
X0551372Y0258842D02*
X0551372Y0261144D01*
X0550604Y0261911D01*
X0547535Y0261911D01*
X0546768Y0261144D01*
X0546768Y0258842D01*
X0551372Y0258842D01*
X0550604Y0263446D02*
X0551372Y0264213D01*
X0551372Y0265748D01*
X0550604Y0266515D01*
X0547535Y0266515D01*
X0546768Y0265748D01*
X0546768Y0264213D01*
X0547535Y0263446D01*
X0548302Y0263446D01*
X0549070Y0264213D01*
X0549070Y0266515D01*
X0547535Y0268050D02*
X0546768Y0268817D01*
X0546768Y0270352D01*
X0547535Y0271119D01*
X0548302Y0271119D01*
X0551372Y0268050D01*
X0551372Y0271119D01*
X0551372Y0285067D02*
X0546768Y0285067D01*
X0546768Y0287369D01*
X0547535Y0288136D01*
X0549070Y0288136D01*
X0549837Y0287369D01*
X0549837Y0285067D01*
X0549070Y0289671D02*
X0549070Y0292740D01*
X0546768Y0292740D02*
X0551372Y0292740D01*
X0551372Y0294275D02*
X0551372Y0296577D01*
X0550604Y0297344D01*
X0547535Y0297344D01*
X0546768Y0296577D01*
X0546768Y0294275D01*
X0551372Y0294275D01*
X0551372Y0289671D02*
X0546768Y0289671D01*
X0547535Y0298879D02*
X0548302Y0298879D01*
X0549070Y0299646D01*
X0549070Y0301948D01*
X0550604Y0301948D02*
X0547535Y0301948D01*
X0546768Y0301181D01*
X0546768Y0299646D01*
X0547535Y0298879D01*
X0550604Y0298879D02*
X0551372Y0299646D01*
X0551372Y0301181D01*
X0550604Y0301948D01*
X0551372Y0303483D02*
X0551372Y0306552D01*
X0551372Y0305017D02*
X0546768Y0305017D01*
X0548302Y0303483D01*
X0546768Y0320500D02*
X0546768Y0322802D01*
X0547535Y0323569D01*
X0549070Y0323569D01*
X0549837Y0322802D01*
X0549837Y0320500D01*
X0551372Y0320500D02*
X0546768Y0320500D01*
X0546768Y0325104D02*
X0551372Y0325104D01*
X0549070Y0325104D02*
X0549070Y0328173D01*
X0546768Y0328173D02*
X0551372Y0328173D01*
X0551372Y0329708D02*
X0546768Y0329708D01*
X0546768Y0332010D01*
X0547535Y0332777D01*
X0550604Y0332777D01*
X0551372Y0332010D01*
X0551372Y0329708D01*
X0550604Y0334312D02*
X0551372Y0335079D01*
X0551372Y0336614D01*
X0550604Y0337381D01*
X0547535Y0337381D01*
X0546768Y0336614D01*
X0546768Y0335079D01*
X0547535Y0334312D01*
X0548302Y0334312D01*
X0549070Y0335079D01*
X0549070Y0337381D01*
X0550604Y0338916D02*
X0547535Y0341985D01*
X0550604Y0341985D01*
X0551372Y0341218D01*
X0551372Y0339683D01*
X0550604Y0338916D01*
X0547535Y0338916D01*
X0546768Y0339683D01*
X0546768Y0341218D01*
X0547535Y0341985D01*
X0546768Y0355933D02*
X0546768Y0358235D01*
X0547535Y0359002D01*
X0549070Y0359002D01*
X0549837Y0358235D01*
X0549837Y0355933D01*
X0551372Y0355933D02*
X0546768Y0355933D01*
X0546768Y0360537D02*
X0551372Y0360537D01*
X0549070Y0360537D02*
X0549070Y0363606D01*
X0546768Y0363606D02*
X0551372Y0363606D01*
X0551372Y0365141D02*
X0551372Y0367443D01*
X0550604Y0368210D01*
X0547535Y0368210D01*
X0546768Y0367443D01*
X0546768Y0365141D01*
X0551372Y0365141D01*
X0550604Y0369745D02*
X0549837Y0369745D01*
X0549070Y0370512D01*
X0549070Y0372047D01*
X0549837Y0372814D01*
X0550604Y0372814D01*
X0551372Y0372047D01*
X0551372Y0370512D01*
X0550604Y0369745D01*
X0549070Y0370512D02*
X0548302Y0369745D01*
X0547535Y0369745D01*
X0546768Y0370512D01*
X0546768Y0372047D01*
X0547535Y0372814D01*
X0548302Y0372814D01*
X0549070Y0372047D01*
X0548302Y0374349D02*
X0547535Y0374349D01*
X0546768Y0375116D01*
X0546768Y0376651D01*
X0547535Y0377418D01*
X0550604Y0377418D01*
X0551372Y0376651D01*
X0551372Y0375116D01*
X0550604Y0374349D01*
X0549070Y0375116D02*
X0549070Y0377418D01*
X0549070Y0375116D02*
X0548302Y0374349D01*
X0515939Y0374349D02*
X0515939Y0377418D01*
X0515939Y0375883D02*
X0511335Y0375883D01*
X0512869Y0374349D01*
X0512869Y0372814D02*
X0513637Y0372047D01*
X0513637Y0370512D01*
X0512869Y0369745D01*
X0512102Y0369745D01*
X0511335Y0370512D01*
X0511335Y0372047D01*
X0512102Y0372814D01*
X0512869Y0372814D01*
X0513637Y0372047D02*
X0514404Y0372814D01*
X0515171Y0372814D01*
X0515939Y0372047D01*
X0515939Y0370512D01*
X0515171Y0369745D01*
X0514404Y0369745D01*
X0513637Y0370512D01*
X0515171Y0368210D02*
X0512102Y0368210D01*
X0511335Y0367443D01*
X0511335Y0365141D01*
X0515939Y0365141D01*
X0515939Y0367443D01*
X0515171Y0368210D01*
X0515939Y0363606D02*
X0511335Y0363606D01*
X0513637Y0363606D02*
X0513637Y0360537D01*
X0513637Y0359002D02*
X0514404Y0358235D01*
X0514404Y0355933D01*
X0515939Y0355933D02*
X0511335Y0355933D01*
X0511335Y0358235D01*
X0512102Y0359002D01*
X0513637Y0359002D01*
X0515939Y0360537D02*
X0511335Y0360537D01*
X0512102Y0341985D02*
X0511335Y0341218D01*
X0511335Y0339683D01*
X0512102Y0338916D01*
X0512102Y0337381D02*
X0512869Y0337381D01*
X0513637Y0336614D01*
X0513637Y0335079D01*
X0512869Y0334312D01*
X0512102Y0334312D01*
X0511335Y0335079D01*
X0511335Y0336614D01*
X0512102Y0337381D01*
X0513637Y0336614D02*
X0514404Y0337381D01*
X0515171Y0337381D01*
X0515939Y0336614D01*
X0515939Y0335079D01*
X0515171Y0334312D01*
X0514404Y0334312D01*
X0513637Y0335079D01*
X0515171Y0332777D02*
X0512102Y0332777D01*
X0511335Y0332010D01*
X0511335Y0329708D01*
X0515939Y0329708D01*
X0515939Y0332010D01*
X0515171Y0332777D01*
X0515939Y0328173D02*
X0511335Y0328173D01*
X0513637Y0328173D02*
X0513637Y0325104D01*
X0513637Y0323569D02*
X0512102Y0323569D01*
X0511335Y0322802D01*
X0511335Y0320500D01*
X0515939Y0320500D01*
X0514404Y0320500D02*
X0514404Y0322802D01*
X0513637Y0323569D01*
X0515939Y0325104D02*
X0511335Y0325104D01*
X0515939Y0338916D02*
X0512869Y0341985D01*
X0512102Y0341985D01*
X0515939Y0341985D02*
X0515939Y0338916D01*
X0480506Y0341218D02*
X0475902Y0341218D01*
X0478204Y0338916D01*
X0478204Y0341985D01*
X0476669Y0337381D02*
X0479738Y0334312D01*
X0480506Y0334312D01*
X0479738Y0332777D02*
X0476669Y0332777D01*
X0475902Y0332010D01*
X0475902Y0329708D01*
X0480506Y0329708D01*
X0480506Y0332010D01*
X0479738Y0332777D01*
X0475902Y0334312D02*
X0475902Y0337381D01*
X0476669Y0337381D01*
X0475902Y0328173D02*
X0480506Y0328173D01*
X0478204Y0328173D02*
X0478204Y0325104D01*
X0478204Y0323569D02*
X0476669Y0323569D01*
X0475902Y0322802D01*
X0475902Y0320500D01*
X0480506Y0320500D01*
X0478971Y0320500D02*
X0478971Y0322802D01*
X0478204Y0323569D01*
X0480506Y0325104D02*
X0475902Y0325104D01*
X0475902Y0306552D02*
X0475902Y0303483D01*
X0478204Y0303483D01*
X0477436Y0305017D01*
X0477436Y0305785D01*
X0478204Y0306552D01*
X0479738Y0306552D01*
X0480506Y0305785D01*
X0480506Y0304250D01*
X0479738Y0303483D01*
X0476669Y0301948D02*
X0479738Y0298879D01*
X0480506Y0298879D01*
X0479738Y0297344D02*
X0476669Y0297344D01*
X0475902Y0296577D01*
X0475902Y0294275D01*
X0480506Y0294275D01*
X0480506Y0296577D01*
X0479738Y0297344D01*
X0475902Y0298879D02*
X0475902Y0301948D01*
X0476669Y0301948D01*
X0475902Y0292740D02*
X0480506Y0292740D01*
X0478204Y0292740D02*
X0478204Y0289671D01*
X0478204Y0288136D02*
X0478971Y0287369D01*
X0478971Y0285067D01*
X0480506Y0285067D02*
X0475902Y0285067D01*
X0475902Y0287369D01*
X0476669Y0288136D01*
X0478204Y0288136D01*
X0480506Y0289671D02*
X0475902Y0289671D01*
X0475902Y0271119D02*
X0476669Y0269584D01*
X0478204Y0268050D01*
X0478204Y0270352D01*
X0478971Y0271119D01*
X0479738Y0271119D01*
X0480506Y0270352D01*
X0480506Y0268817D01*
X0479738Y0268050D01*
X0478204Y0268050D01*
X0476669Y0266515D02*
X0479738Y0263446D01*
X0480506Y0263446D01*
X0479738Y0261911D02*
X0476669Y0261911D01*
X0475902Y0261144D01*
X0475902Y0258842D01*
X0480506Y0258842D01*
X0480506Y0261144D01*
X0479738Y0261911D01*
X0475902Y0263446D02*
X0475902Y0266515D01*
X0476669Y0266515D01*
X0475902Y0257307D02*
X0480506Y0257307D01*
X0478204Y0257307D02*
X0478204Y0254238D01*
X0478204Y0252703D02*
X0478971Y0251936D01*
X0478971Y0249634D01*
X0480506Y0249634D02*
X0475902Y0249634D01*
X0475902Y0251936D01*
X0476669Y0252703D01*
X0478204Y0252703D01*
X0480506Y0254238D02*
X0475902Y0254238D01*
X0511335Y0254238D02*
X0515939Y0254238D01*
X0513637Y0254238D02*
X0513637Y0257307D01*
X0511335Y0257307D02*
X0515939Y0257307D01*
X0515939Y0258842D02*
X0515939Y0261144D01*
X0515171Y0261911D01*
X0512102Y0261911D01*
X0511335Y0261144D01*
X0511335Y0258842D01*
X0515939Y0258842D01*
X0515171Y0263446D02*
X0514404Y0263446D01*
X0513637Y0264213D01*
X0513637Y0265748D01*
X0514404Y0266515D01*
X0515171Y0266515D01*
X0515939Y0265748D01*
X0515939Y0264213D01*
X0515171Y0263446D01*
X0513637Y0264213D02*
X0512869Y0263446D01*
X0512102Y0263446D01*
X0511335Y0264213D01*
X0511335Y0265748D01*
X0512102Y0266515D01*
X0512869Y0266515D01*
X0513637Y0265748D01*
X0513637Y0268050D02*
X0513637Y0271119D01*
X0515939Y0270352D02*
X0511335Y0270352D01*
X0513637Y0268050D01*
X0513637Y0252703D02*
X0512102Y0252703D01*
X0511335Y0251936D01*
X0511335Y0249634D01*
X0515939Y0249634D01*
X0514404Y0249634D02*
X0514404Y0251936D01*
X0513637Y0252703D01*
X0513637Y0235686D02*
X0512869Y0234918D01*
X0512869Y0234151D01*
X0513637Y0232616D01*
X0511335Y0232616D01*
X0511335Y0235686D01*
X0513637Y0235686D02*
X0515171Y0235686D01*
X0515939Y0234918D01*
X0515939Y0233384D01*
X0515171Y0232616D01*
X0515171Y0231082D02*
X0515939Y0230315D01*
X0515939Y0228780D01*
X0515171Y0228013D01*
X0514404Y0228013D01*
X0513637Y0228780D01*
X0513637Y0230315D01*
X0514404Y0231082D01*
X0515171Y0231082D01*
X0513637Y0230315D02*
X0512869Y0231082D01*
X0512102Y0231082D01*
X0511335Y0230315D01*
X0511335Y0228780D01*
X0512102Y0228013D01*
X0512869Y0228013D01*
X0513637Y0228780D01*
X0515171Y0226478D02*
X0512102Y0226478D01*
X0511335Y0225711D01*
X0511335Y0223409D01*
X0515939Y0223409D01*
X0515939Y0225711D01*
X0515171Y0226478D01*
X0515939Y0221874D02*
X0511335Y0221874D01*
X0513637Y0221874D02*
X0513637Y0218805D01*
X0513637Y0217270D02*
X0514404Y0216503D01*
X0514404Y0214201D01*
X0515939Y0214201D02*
X0511335Y0214201D01*
X0511335Y0216503D01*
X0512102Y0217270D01*
X0513637Y0217270D01*
X0515939Y0218805D02*
X0511335Y0218805D01*
X0511335Y0200253D02*
X0512102Y0198718D01*
X0513637Y0197183D01*
X0513637Y0199485D01*
X0514404Y0200253D01*
X0515171Y0200253D01*
X0515939Y0199485D01*
X0515939Y0197951D01*
X0515171Y0197183D01*
X0513637Y0197183D01*
X0514404Y0195649D02*
X0515171Y0195649D01*
X0515939Y0194881D01*
X0515939Y0193347D01*
X0515171Y0192580D01*
X0514404Y0192580D01*
X0513637Y0193347D01*
X0513637Y0194881D01*
X0514404Y0195649D01*
X0513637Y0194881D02*
X0512869Y0195649D01*
X0512102Y0195649D01*
X0511335Y0194881D01*
X0511335Y0193347D01*
X0512102Y0192580D01*
X0512869Y0192580D01*
X0513637Y0193347D01*
X0515171Y0191045D02*
X0512102Y0191045D01*
X0511335Y0190278D01*
X0511335Y0187976D01*
X0515939Y0187976D01*
X0515939Y0190278D01*
X0515171Y0191045D01*
X0515939Y0186441D02*
X0511335Y0186441D01*
X0513637Y0186441D02*
X0513637Y0183372D01*
X0513637Y0181837D02*
X0512102Y0181837D01*
X0511335Y0181070D01*
X0511335Y0178768D01*
X0515939Y0178768D01*
X0514404Y0178768D02*
X0514404Y0181070D01*
X0513637Y0181837D01*
X0515939Y0183372D02*
X0511335Y0183372D01*
X0594758Y0115002D02*
X0594758Y0113468D01*
X0595526Y0112700D01*
X0594758Y0111166D02*
X0599362Y0108096D01*
X0599362Y0111166D02*
X0594758Y0108096D01*
X0599362Y0112700D02*
X0596293Y0115770D01*
X0595526Y0115770D01*
X0594758Y0115002D01*
X0599362Y0115770D02*
X0599362Y0112700D01*
X0551372Y0107902D02*
X0546768Y0107902D01*
X0546768Y0110204D01*
X0547535Y0110971D01*
X0549070Y0110971D01*
X0549837Y0110204D01*
X0549837Y0107902D01*
X0303340Y0249634D02*
X0298736Y0249634D01*
X0298736Y0251936D01*
X0299504Y0252703D01*
X0301038Y0252703D01*
X0301806Y0251936D01*
X0301806Y0249634D01*
X0301038Y0254238D02*
X0301038Y0257307D01*
X0298736Y0257307D02*
X0303340Y0257307D01*
X0303340Y0258842D02*
X0303340Y0261144D01*
X0302573Y0261911D01*
X0299504Y0261911D01*
X0298736Y0261144D01*
X0298736Y0258842D01*
X0303340Y0258842D01*
X0303340Y0254238D02*
X0298736Y0254238D01*
X0299504Y0263446D02*
X0298736Y0264213D01*
X0298736Y0265748D01*
X0299504Y0266515D01*
X0300271Y0266515D01*
X0301038Y0265748D01*
X0301806Y0266515D01*
X0302573Y0266515D01*
X0303340Y0265748D01*
X0303340Y0264213D01*
X0302573Y0263446D01*
X0301038Y0264980D02*
X0301038Y0265748D01*
X0301038Y0268050D02*
X0301038Y0270352D01*
X0301806Y0271119D01*
X0302573Y0271119D01*
X0303340Y0270352D01*
X0303340Y0268817D01*
X0302573Y0268050D01*
X0301038Y0268050D01*
X0299504Y0269584D01*
X0298736Y0271119D01*
X0298736Y0285067D02*
X0298736Y0287369D01*
X0299504Y0288136D01*
X0301038Y0288136D01*
X0301806Y0287369D01*
X0301806Y0285067D01*
X0303340Y0285067D02*
X0298736Y0285067D01*
X0298736Y0289671D02*
X0303340Y0289671D01*
X0301038Y0289671D02*
X0301038Y0292740D01*
X0298736Y0292740D02*
X0303340Y0292740D01*
X0303340Y0294275D02*
X0303340Y0296577D01*
X0302573Y0297344D01*
X0299504Y0297344D01*
X0298736Y0296577D01*
X0298736Y0294275D01*
X0303340Y0294275D01*
X0302573Y0298879D02*
X0303340Y0299646D01*
X0303340Y0301181D01*
X0302573Y0301948D01*
X0301806Y0301948D01*
X0301038Y0301181D01*
X0301038Y0300413D01*
X0301038Y0301181D02*
X0300271Y0301948D01*
X0299504Y0301948D01*
X0298736Y0301181D01*
X0298736Y0299646D01*
X0299504Y0298879D01*
X0298736Y0303483D02*
X0301038Y0303483D01*
X0300271Y0305017D01*
X0300271Y0305785D01*
X0301038Y0306552D01*
X0302573Y0306552D01*
X0303340Y0305785D01*
X0303340Y0304250D01*
X0302573Y0303483D01*
X0298736Y0303483D02*
X0298736Y0306552D01*
X0298736Y0320500D02*
X0298736Y0322802D01*
X0299504Y0323569D01*
X0301038Y0323569D01*
X0301806Y0322802D01*
X0301806Y0320500D01*
X0303340Y0320500D02*
X0298736Y0320500D01*
X0298736Y0325104D02*
X0303340Y0325104D01*
X0301038Y0325104D02*
X0301038Y0328173D01*
X0298736Y0328173D02*
X0303340Y0328173D01*
X0303340Y0329708D02*
X0298736Y0329708D01*
X0298736Y0332010D01*
X0299504Y0332777D01*
X0302573Y0332777D01*
X0303340Y0332010D01*
X0303340Y0329708D01*
X0302573Y0334312D02*
X0303340Y0335079D01*
X0303340Y0336614D01*
X0302573Y0337381D01*
X0301806Y0337381D01*
X0301038Y0336614D01*
X0301038Y0335846D01*
X0301038Y0336614D02*
X0300271Y0337381D01*
X0299504Y0337381D01*
X0298736Y0336614D01*
X0298736Y0335079D01*
X0299504Y0334312D01*
X0301038Y0338916D02*
X0301038Y0341985D01*
X0298736Y0341218D02*
X0301038Y0338916D01*
X0303340Y0341218D02*
X0298736Y0341218D01*
X0298736Y0355933D02*
X0298736Y0358235D01*
X0299504Y0359002D01*
X0301038Y0359002D01*
X0301806Y0358235D01*
X0301806Y0355933D01*
X0303340Y0355933D02*
X0298736Y0355933D01*
X0298736Y0360537D02*
X0303340Y0360537D01*
X0301038Y0360537D02*
X0301038Y0363606D01*
X0298736Y0363606D02*
X0303340Y0363606D01*
X0303340Y0365141D02*
X0303340Y0367443D01*
X0302573Y0368210D01*
X0299504Y0368210D01*
X0298736Y0367443D01*
X0298736Y0365141D01*
X0303340Y0365141D01*
X0302573Y0369745D02*
X0303340Y0370512D01*
X0303340Y0372047D01*
X0302573Y0372814D01*
X0301806Y0372814D01*
X0301038Y0372047D01*
X0301038Y0371279D01*
X0301038Y0372047D02*
X0300271Y0372814D01*
X0299504Y0372814D01*
X0298736Y0372047D01*
X0298736Y0370512D01*
X0299504Y0369745D01*
X0299504Y0374349D02*
X0298736Y0375116D01*
X0298736Y0376651D01*
X0299504Y0377418D01*
X0300271Y0377418D01*
X0301038Y0376651D01*
X0301806Y0377418D01*
X0302573Y0377418D01*
X0303340Y0376651D01*
X0303340Y0375116D01*
X0302573Y0374349D01*
X0301038Y0375883D02*
X0301038Y0376651D01*
X0475902Y0376651D02*
X0476669Y0377418D01*
X0477436Y0377418D01*
X0478204Y0376651D01*
X0478971Y0377418D01*
X0479738Y0377418D01*
X0480506Y0376651D01*
X0480506Y0375116D01*
X0479738Y0374349D01*
X0478204Y0375883D02*
X0478204Y0376651D01*
X0475902Y0376651D02*
X0475902Y0375116D01*
X0476669Y0374349D01*
X0476669Y0372814D02*
X0479738Y0369745D01*
X0480506Y0369745D01*
X0479738Y0368210D02*
X0476669Y0368210D01*
X0475902Y0367443D01*
X0475902Y0365141D01*
X0480506Y0365141D01*
X0480506Y0367443D01*
X0479738Y0368210D01*
X0475902Y0369745D02*
X0475902Y0372814D01*
X0476669Y0372814D01*
X0475902Y0363606D02*
X0480506Y0363606D01*
X0478204Y0363606D02*
X0478204Y0360537D01*
X0478204Y0359002D02*
X0478971Y0358235D01*
X0478971Y0355933D01*
X0480506Y0355933D02*
X0475902Y0355933D01*
X0475902Y0358235D01*
X0476669Y0359002D01*
X0478204Y0359002D01*
X0480506Y0360537D02*
X0475902Y0360537D01*
X0512102Y0306552D02*
X0512869Y0306552D01*
X0513637Y0305785D01*
X0514404Y0306552D01*
X0515171Y0306552D01*
X0515939Y0305785D01*
X0515939Y0304250D01*
X0515171Y0303483D01*
X0515171Y0301948D02*
X0515939Y0301181D01*
X0515939Y0299646D01*
X0515171Y0298879D01*
X0514404Y0298879D01*
X0513637Y0299646D01*
X0513637Y0301181D01*
X0514404Y0301948D01*
X0515171Y0301948D01*
X0513637Y0301181D02*
X0512869Y0301948D01*
X0512102Y0301948D01*
X0511335Y0301181D01*
X0511335Y0299646D01*
X0512102Y0298879D01*
X0512869Y0298879D01*
X0513637Y0299646D01*
X0515171Y0297344D02*
X0512102Y0297344D01*
X0511335Y0296577D01*
X0511335Y0294275D01*
X0515939Y0294275D01*
X0515939Y0296577D01*
X0515171Y0297344D01*
X0515939Y0292740D02*
X0511335Y0292740D01*
X0513637Y0292740D02*
X0513637Y0289671D01*
X0513637Y0288136D02*
X0514404Y0287369D01*
X0514404Y0285067D01*
X0515939Y0285067D02*
X0511335Y0285067D01*
X0511335Y0287369D01*
X0512102Y0288136D01*
X0513637Y0288136D01*
X0515939Y0289671D02*
X0511335Y0289671D01*
X0512102Y0303483D02*
X0511335Y0304250D01*
X0511335Y0305785D01*
X0512102Y0306552D01*
X0513637Y0305785D02*
X0513637Y0305017D01*
X0594810Y0333636D02*
X0599414Y0336705D01*
X0599414Y0338240D02*
X0599414Y0341309D01*
X0599414Y0339774D02*
X0594810Y0339774D01*
X0596345Y0338240D01*
X0594810Y0336705D02*
X0599414Y0333636D01*
X0197041Y0199485D02*
X0192437Y0199485D01*
X0194739Y0197183D01*
X0194739Y0200253D01*
X0197041Y0195649D02*
X0197041Y0192580D01*
X0197041Y0194114D02*
X0192437Y0194114D01*
X0193972Y0192580D01*
X0193204Y0191045D02*
X0192437Y0190278D01*
X0192437Y0187976D01*
X0197041Y0187976D01*
X0197041Y0190278D01*
X0196274Y0191045D01*
X0193204Y0191045D01*
X0192437Y0186441D02*
X0197041Y0186441D01*
X0194739Y0186441D02*
X0194739Y0183372D01*
X0194739Y0181837D02*
X0195506Y0181070D01*
X0195506Y0178768D01*
X0197041Y0178768D02*
X0192437Y0178768D01*
X0192437Y0181070D01*
X0193204Y0181837D01*
X0194739Y0181837D01*
X0197041Y0183372D02*
X0192437Y0183372D01*
D13*
X0187871Y0185288D02*
X0187871Y0189028D01*
X0177241Y0189028D01*
X0177241Y0185288D01*
X0187871Y0185288D01*
X0187871Y0189028D02*
X0187871Y0197887D01*
X0177241Y0197887D01*
X0177241Y0189028D01*
X0152438Y0189028D02*
X0152438Y0185288D01*
X0141808Y0185288D01*
X0141808Y0189028D01*
X0152438Y0189028D01*
X0152438Y0197887D01*
X0141808Y0197887D01*
X0141808Y0189028D01*
X0141808Y0162454D02*
X0141808Y0153595D01*
X0152438Y0153595D01*
X0152438Y0162454D01*
X0141808Y0162454D01*
X0141808Y0153595D02*
X0141808Y0149855D01*
X0152438Y0149855D01*
X0152438Y0153595D01*
X0177241Y0153595D02*
X0177241Y0149855D01*
X0187871Y0149855D01*
X0187871Y0153595D01*
X0177241Y0153595D01*
X0177241Y0162454D01*
X0187871Y0162454D01*
X0187871Y0153595D01*
X0212674Y0153595D02*
X0212674Y0149855D01*
X0223304Y0149855D01*
X0223304Y0153595D01*
X0212674Y0153595D01*
X0212674Y0162454D01*
X0223304Y0162454D01*
X0223304Y0153595D01*
X0248107Y0153595D02*
X0248107Y0149855D01*
X0258737Y0149855D01*
X0258737Y0153595D01*
X0248107Y0153595D01*
X0248107Y0162454D01*
X0258737Y0162454D01*
X0258737Y0153595D01*
X0283540Y0153595D02*
X0283540Y0149855D01*
X0294170Y0149855D01*
X0294170Y0153595D01*
X0283540Y0153595D01*
X0283540Y0162454D01*
X0294170Y0162454D01*
X0294170Y0153595D01*
X0318973Y0153595D02*
X0318973Y0149855D01*
X0329603Y0149855D01*
X0329603Y0153595D01*
X0318973Y0153595D01*
X0318973Y0162454D01*
X0329603Y0162454D01*
X0329603Y0153595D01*
X0354406Y0153595D02*
X0354406Y0149855D01*
X0365036Y0149855D01*
X0365036Y0153595D01*
X0354406Y0153595D01*
X0354406Y0162454D01*
X0365036Y0162454D01*
X0365036Y0153595D01*
X0389839Y0153595D02*
X0389839Y0149855D01*
X0400469Y0149855D01*
X0400469Y0153595D01*
X0389839Y0153595D01*
X0389839Y0162454D01*
X0400469Y0162454D01*
X0400469Y0153595D01*
X0425272Y0153595D02*
X0425272Y0149855D01*
X0435902Y0149855D01*
X0435902Y0153595D01*
X0425272Y0153595D01*
X0425272Y0162454D01*
X0435902Y0162454D01*
X0435902Y0153595D01*
X0460706Y0153595D02*
X0460706Y0149855D01*
X0471335Y0149855D01*
X0471335Y0153595D01*
X0460706Y0153595D01*
X0460706Y0162454D01*
X0471335Y0162454D01*
X0471335Y0153595D01*
X0496139Y0153595D02*
X0496139Y0149855D01*
X0506769Y0149855D01*
X0506769Y0153595D01*
X0496139Y0153595D01*
X0496139Y0162454D01*
X0506769Y0162454D01*
X0506769Y0153595D01*
X0531572Y0153595D02*
X0531572Y0149855D01*
X0542202Y0149855D01*
X0542202Y0153595D01*
X0531572Y0153595D01*
X0531572Y0162454D01*
X0542202Y0162454D01*
X0542202Y0153595D01*
X0542202Y0127020D02*
X0531572Y0127020D01*
X0531572Y0118162D01*
X0542202Y0118162D01*
X0542202Y0127020D01*
X0542202Y0118162D02*
X0542202Y0114422D01*
X0531572Y0114422D01*
X0531572Y0118162D01*
X0506769Y0118162D02*
X0496139Y0118162D01*
X0496139Y0114422D01*
X0506769Y0114422D01*
X0506769Y0118162D01*
X0506769Y0127020D01*
X0496139Y0127020D01*
X0496139Y0118162D01*
X0471335Y0118162D02*
X0460706Y0118162D01*
X0460706Y0114422D01*
X0471335Y0114422D01*
X0471335Y0118162D01*
X0471335Y0127020D01*
X0460706Y0127020D01*
X0460706Y0118162D01*
X0435902Y0118162D02*
X0425272Y0118162D01*
X0425272Y0114422D01*
X0435902Y0114422D01*
X0435902Y0118162D01*
X0435902Y0127020D01*
X0425272Y0127020D01*
X0425272Y0118162D01*
X0400469Y0118162D02*
X0389839Y0118162D01*
X0389839Y0114422D01*
X0400469Y0114422D01*
X0400469Y0118162D01*
X0400469Y0127020D01*
X0389839Y0127020D01*
X0389839Y0118162D01*
X0365036Y0118162D02*
X0354406Y0118162D01*
X0354406Y0114422D01*
X0365036Y0114422D01*
X0365036Y0118162D01*
X0365036Y0127020D01*
X0354406Y0127020D01*
X0354406Y0118162D01*
X0329603Y0118162D02*
X0318973Y0118162D01*
X0318973Y0114422D01*
X0329603Y0114422D01*
X0329603Y0118162D01*
X0329603Y0127020D01*
X0318973Y0127020D01*
X0318973Y0118162D01*
X0294170Y0118162D02*
X0283540Y0118162D01*
X0283540Y0114422D01*
X0294170Y0114422D01*
X0294170Y0118162D01*
X0294170Y0127020D01*
X0283540Y0127020D01*
X0283540Y0118162D01*
X0258737Y0118162D02*
X0248107Y0118162D01*
X0248107Y0114422D01*
X0258737Y0114422D01*
X0258737Y0118162D01*
X0258737Y0127020D01*
X0248107Y0127020D01*
X0248107Y0118162D01*
X0223304Y0118162D02*
X0212674Y0118162D01*
X0212674Y0114422D01*
X0223304Y0114422D01*
X0223304Y0118162D01*
X0223304Y0127020D01*
X0212674Y0127020D01*
X0212674Y0118162D01*
X0187871Y0118162D02*
X0177241Y0118162D01*
X0177241Y0114422D01*
X0187871Y0114422D01*
X0187871Y0118162D01*
X0187871Y0127020D01*
X0177241Y0127020D01*
X0177241Y0118162D01*
X0152438Y0118162D02*
X0141808Y0118162D01*
X0141808Y0114422D01*
X0152438Y0114422D01*
X0152438Y0118162D01*
X0152438Y0127020D01*
X0141808Y0127020D01*
X0141808Y0118162D01*
X0212674Y0185288D02*
X0212674Y0189028D01*
X0223304Y0189028D01*
X0223304Y0197887D01*
X0212674Y0197887D01*
X0212674Y0189028D01*
X0212674Y0185288D02*
X0223304Y0185288D01*
X0223304Y0189028D01*
X0248107Y0189028D02*
X0248107Y0185288D01*
X0258737Y0185288D01*
X0258737Y0189028D01*
X0248107Y0189028D01*
X0248107Y0197887D01*
X0258737Y0197887D01*
X0258737Y0189028D01*
X0283540Y0189028D02*
X0283540Y0185288D01*
X0294170Y0185288D01*
X0294170Y0189028D01*
X0283540Y0189028D01*
X0283540Y0197887D01*
X0294170Y0197887D01*
X0294170Y0189028D01*
X0318973Y0189028D02*
X0318973Y0185288D01*
X0329603Y0185288D01*
X0329603Y0189028D01*
X0318973Y0189028D01*
X0318973Y0197887D01*
X0329603Y0197887D01*
X0329603Y0189028D01*
X0354406Y0189028D02*
X0354406Y0185288D01*
X0365036Y0185288D01*
X0365036Y0189028D01*
X0354406Y0189028D01*
X0354406Y0197887D01*
X0365036Y0197887D01*
X0365036Y0189028D01*
X0389839Y0189028D02*
X0389839Y0185288D01*
X0400469Y0185288D01*
X0400469Y0189028D01*
X0389839Y0189028D01*
X0389839Y0197887D01*
X0400469Y0197887D01*
X0400469Y0189028D01*
X0425272Y0189028D02*
X0425272Y0185288D01*
X0435902Y0185288D01*
X0435902Y0189028D01*
X0425272Y0189028D01*
X0425272Y0197887D01*
X0435902Y0197887D01*
X0435902Y0189028D01*
X0460706Y0189028D02*
X0460706Y0185288D01*
X0471335Y0185288D01*
X0471335Y0189028D01*
X0460706Y0189028D01*
X0460706Y0197887D01*
X0471335Y0197887D01*
X0471335Y0189028D01*
X0496139Y0189028D02*
X0496139Y0185288D01*
X0506769Y0185288D01*
X0506769Y0189028D01*
X0496139Y0189028D01*
X0496139Y0197887D01*
X0506769Y0197887D01*
X0506769Y0189028D01*
X0531572Y0189028D02*
X0531572Y0185288D01*
X0542202Y0185288D01*
X0542202Y0189028D01*
X0531572Y0189028D01*
X0531572Y0197887D01*
X0542202Y0197887D01*
X0542202Y0189028D01*
X0542202Y0220721D02*
X0531572Y0220721D01*
X0531572Y0224461D01*
X0542202Y0224461D01*
X0542202Y0233320D01*
X0531572Y0233320D01*
X0531572Y0224461D01*
X0542202Y0224461D02*
X0542202Y0220721D01*
X0506769Y0220721D02*
X0506769Y0224461D01*
X0496139Y0224461D01*
X0496139Y0220721D01*
X0506769Y0220721D01*
X0506769Y0224461D02*
X0506769Y0233320D01*
X0496139Y0233320D01*
X0496139Y0224461D01*
X0471335Y0224461D02*
X0471335Y0220721D01*
X0460706Y0220721D01*
X0460706Y0224461D01*
X0471335Y0224461D01*
X0471335Y0233320D01*
X0460706Y0233320D01*
X0460706Y0224461D01*
X0435902Y0224461D02*
X0435902Y0220721D01*
X0425272Y0220721D01*
X0425272Y0224461D01*
X0435902Y0224461D01*
X0435902Y0233320D01*
X0425272Y0233320D01*
X0425272Y0224461D01*
X0400469Y0224461D02*
X0400469Y0220721D01*
X0389839Y0220721D01*
X0389839Y0224461D01*
X0400469Y0224461D01*
X0400469Y0233320D01*
X0389839Y0233320D01*
X0389839Y0224461D01*
X0365036Y0224461D02*
X0365036Y0220721D01*
X0354406Y0220721D01*
X0354406Y0224461D01*
X0365036Y0224461D01*
X0365036Y0233320D01*
X0354406Y0233320D01*
X0354406Y0224461D01*
X0329603Y0224461D02*
X0329603Y0220721D01*
X0318973Y0220721D01*
X0318973Y0224461D01*
X0329603Y0224461D01*
X0329603Y0233320D01*
X0318973Y0233320D01*
X0318973Y0224461D01*
X0294170Y0224461D02*
X0294170Y0220721D01*
X0283540Y0220721D01*
X0283540Y0224461D01*
X0294170Y0224461D01*
X0294170Y0233320D01*
X0283540Y0233320D01*
X0283540Y0224461D01*
X0258737Y0224461D02*
X0258737Y0220721D01*
X0248107Y0220721D01*
X0248107Y0224461D01*
X0258737Y0224461D01*
X0258737Y0233320D01*
X0248107Y0233320D01*
X0248107Y0224461D01*
X0223304Y0224461D02*
X0223304Y0220721D01*
X0212674Y0220721D01*
X0212674Y0224461D01*
X0223304Y0224461D01*
X0223304Y0233320D01*
X0212674Y0233320D01*
X0212674Y0224461D01*
X0187871Y0224461D02*
X0187871Y0220721D01*
X0177241Y0220721D01*
X0177241Y0224461D01*
X0187871Y0224461D01*
X0187871Y0233320D01*
X0177241Y0233320D01*
X0177241Y0224461D01*
X0152438Y0224461D02*
X0152438Y0220721D01*
X0141808Y0220721D01*
X0141808Y0224461D01*
X0152438Y0224461D01*
X0152438Y0233320D01*
X0141808Y0233320D01*
X0141808Y0224461D01*
X0141808Y0256154D02*
X0141808Y0259894D01*
X0152438Y0259894D01*
X0152438Y0268753D01*
X0141808Y0268753D01*
X0141808Y0259894D01*
X0141808Y0256154D02*
X0152438Y0256154D01*
X0152438Y0259894D01*
X0177241Y0259894D02*
X0187871Y0259894D01*
X0187871Y0268753D01*
X0177241Y0268753D01*
X0177241Y0259894D01*
X0177241Y0256154D01*
X0187871Y0256154D01*
X0187871Y0259894D01*
X0212674Y0259894D02*
X0223304Y0259894D01*
X0223304Y0268753D01*
X0212674Y0268753D01*
X0212674Y0259894D01*
X0212674Y0256154D01*
X0223304Y0256154D01*
X0223304Y0259894D01*
X0248107Y0259894D02*
X0258737Y0259894D01*
X0258737Y0268753D01*
X0248107Y0268753D01*
X0248107Y0259894D01*
X0248107Y0256154D01*
X0258737Y0256154D01*
X0258737Y0259894D01*
X0283540Y0259894D02*
X0294170Y0259894D01*
X0294170Y0268753D01*
X0283540Y0268753D01*
X0283540Y0259894D01*
X0283540Y0256154D01*
X0294170Y0256154D01*
X0294170Y0259894D01*
X0318973Y0259894D02*
X0329603Y0259894D01*
X0329603Y0268753D01*
X0318973Y0268753D01*
X0318973Y0259894D01*
X0318973Y0256154D01*
X0329603Y0256154D01*
X0329603Y0259894D01*
X0354406Y0259894D02*
X0365036Y0259894D01*
X0365036Y0268753D01*
X0354406Y0268753D01*
X0354406Y0259894D01*
X0354406Y0256154D01*
X0365036Y0256154D01*
X0365036Y0259894D01*
X0389839Y0259894D02*
X0400469Y0259894D01*
X0400469Y0268753D01*
X0389839Y0268753D01*
X0389839Y0259894D01*
X0389839Y0256154D01*
X0400469Y0256154D01*
X0400469Y0259894D01*
X0425272Y0259894D02*
X0435902Y0259894D01*
X0435902Y0268753D01*
X0425272Y0268753D01*
X0425272Y0259894D01*
X0425272Y0256154D01*
X0435902Y0256154D01*
X0435902Y0259894D01*
X0460706Y0259894D02*
X0471335Y0259894D01*
X0471335Y0268753D01*
X0460706Y0268753D01*
X0460706Y0259894D01*
X0460706Y0256154D01*
X0471335Y0256154D01*
X0471335Y0259894D01*
X0496139Y0259894D02*
X0506769Y0259894D01*
X0506769Y0268753D01*
X0496139Y0268753D01*
X0496139Y0259894D01*
X0496139Y0256154D01*
X0506769Y0256154D01*
X0506769Y0259894D01*
X0531572Y0259894D02*
X0542202Y0259894D01*
X0542202Y0268753D01*
X0531572Y0268753D01*
X0531572Y0259894D01*
X0531572Y0256154D01*
X0542202Y0256154D01*
X0542202Y0259894D01*
X0542202Y0291587D02*
X0531572Y0291587D01*
X0531572Y0295328D01*
X0542202Y0295328D01*
X0542202Y0304186D01*
X0531572Y0304186D01*
X0531572Y0295328D01*
X0542202Y0295328D02*
X0542202Y0291587D01*
X0506769Y0291587D02*
X0506769Y0295328D01*
X0496139Y0295328D01*
X0496139Y0291587D01*
X0506769Y0291587D01*
X0506769Y0295328D02*
X0506769Y0304186D01*
X0496139Y0304186D01*
X0496139Y0295328D01*
X0471335Y0295328D02*
X0471335Y0291587D01*
X0460706Y0291587D01*
X0460706Y0295328D01*
X0471335Y0295328D01*
X0471335Y0304186D01*
X0460706Y0304186D01*
X0460706Y0295328D01*
X0435902Y0295328D02*
X0435902Y0291587D01*
X0425272Y0291587D01*
X0425272Y0295328D01*
X0435902Y0295328D01*
X0435902Y0304186D01*
X0425272Y0304186D01*
X0425272Y0295328D01*
X0400469Y0295328D02*
X0400469Y0291587D01*
X0389839Y0291587D01*
X0389839Y0295328D01*
X0400469Y0295328D01*
X0400469Y0304186D01*
X0389839Y0304186D01*
X0389839Y0295328D01*
X0365036Y0295328D02*
X0365036Y0291587D01*
X0354406Y0291587D01*
X0354406Y0295328D01*
X0365036Y0295328D01*
X0365036Y0304186D01*
X0354406Y0304186D01*
X0354406Y0295328D01*
X0329603Y0295328D02*
X0329603Y0291587D01*
X0318973Y0291587D01*
X0318973Y0295328D01*
X0329603Y0295328D01*
X0329603Y0304186D01*
X0318973Y0304186D01*
X0318973Y0295328D01*
X0294170Y0295328D02*
X0294170Y0291587D01*
X0283540Y0291587D01*
X0283540Y0295328D01*
X0294170Y0295328D01*
X0294170Y0304186D01*
X0283540Y0304186D01*
X0283540Y0295328D01*
X0258737Y0295328D02*
X0258737Y0291587D01*
X0248107Y0291587D01*
X0248107Y0295328D01*
X0258737Y0295328D01*
X0258737Y0304186D01*
X0248107Y0304186D01*
X0248107Y0295328D01*
X0223304Y0295328D02*
X0223304Y0291587D01*
X0212674Y0291587D01*
X0212674Y0295328D01*
X0223304Y0295328D01*
X0223304Y0304186D01*
X0212674Y0304186D01*
X0212674Y0295328D01*
X0187871Y0295328D02*
X0187871Y0291587D01*
X0177241Y0291587D01*
X0177241Y0295328D01*
X0187871Y0295328D01*
X0187871Y0304186D01*
X0177241Y0304186D01*
X0177241Y0295328D01*
X0152438Y0295328D02*
X0152438Y0291587D01*
X0141808Y0291587D01*
X0141808Y0295328D01*
X0152438Y0295328D01*
X0152438Y0304186D01*
X0141808Y0304186D01*
X0141808Y0295328D01*
X0141808Y0327020D02*
X0141808Y0330761D01*
X0152438Y0330761D01*
X0152438Y0339619D01*
X0141808Y0339619D01*
X0141808Y0330761D01*
X0141808Y0327020D02*
X0152438Y0327020D01*
X0152438Y0330761D01*
X0177241Y0330761D02*
X0177241Y0327020D01*
X0187871Y0327020D01*
X0187871Y0330761D01*
X0177241Y0330761D01*
X0177241Y0339619D01*
X0187871Y0339619D01*
X0187871Y0330761D01*
X0212674Y0330761D02*
X0212674Y0327020D01*
X0223304Y0327020D01*
X0223304Y0330761D01*
X0212674Y0330761D01*
X0212674Y0339619D01*
X0223304Y0339619D01*
X0223304Y0330761D01*
X0248107Y0330761D02*
X0248107Y0327020D01*
X0258737Y0327020D01*
X0258737Y0330761D01*
X0248107Y0330761D01*
X0248107Y0339619D01*
X0258737Y0339619D01*
X0258737Y0330761D01*
X0283540Y0330761D02*
X0283540Y0327020D01*
X0294170Y0327020D01*
X0294170Y0330761D01*
X0283540Y0330761D01*
X0283540Y0339619D01*
X0294170Y0339619D01*
X0294170Y0330761D01*
X0318973Y0330761D02*
X0318973Y0327020D01*
X0329603Y0327020D01*
X0329603Y0330761D01*
X0318973Y0330761D01*
X0318973Y0339619D01*
X0329603Y0339619D01*
X0329603Y0330761D01*
X0354406Y0330761D02*
X0354406Y0327020D01*
X0365036Y0327020D01*
X0365036Y0330761D01*
X0354406Y0330761D01*
X0354406Y0339619D01*
X0365036Y0339619D01*
X0365036Y0330761D01*
X0389839Y0330761D02*
X0389839Y0327020D01*
X0400469Y0327020D01*
X0400469Y0330761D01*
X0389839Y0330761D01*
X0389839Y0339619D01*
X0400469Y0339619D01*
X0400469Y0330761D01*
X0425272Y0330761D02*
X0425272Y0327020D01*
X0435902Y0327020D01*
X0435902Y0330761D01*
X0425272Y0330761D01*
X0425272Y0339619D01*
X0435902Y0339619D01*
X0435902Y0330761D01*
X0460706Y0330761D02*
X0460706Y0327020D01*
X0471335Y0327020D01*
X0471335Y0330761D01*
X0460706Y0330761D01*
X0460706Y0339619D01*
X0471335Y0339619D01*
X0471335Y0330761D01*
X0496139Y0330761D02*
X0496139Y0327020D01*
X0506769Y0327020D01*
X0506769Y0330761D01*
X0496139Y0330761D01*
X0496139Y0339619D01*
X0506769Y0339619D01*
X0506769Y0330761D01*
X0531572Y0330761D02*
X0531572Y0327020D01*
X0542202Y0327020D01*
X0542202Y0330761D01*
X0531572Y0330761D01*
X0531572Y0339619D01*
X0542202Y0339619D01*
X0542202Y0330761D01*
X0542202Y0362454D02*
X0531572Y0362454D01*
X0531572Y0366194D01*
X0542202Y0366194D01*
X0542202Y0375052D01*
X0531572Y0375052D01*
X0531572Y0366194D01*
X0542202Y0366194D02*
X0542202Y0362454D01*
X0506769Y0362454D02*
X0506769Y0366194D01*
X0496139Y0366194D01*
X0496139Y0362454D01*
X0506769Y0362454D01*
X0506769Y0366194D02*
X0506769Y0375052D01*
X0496139Y0375052D01*
X0496139Y0366194D01*
X0471335Y0366194D02*
X0471335Y0362454D01*
X0460706Y0362454D01*
X0460706Y0366194D01*
X0471335Y0366194D01*
X0471335Y0375052D01*
X0460706Y0375052D01*
X0460706Y0366194D01*
X0435902Y0366194D02*
X0435902Y0362454D01*
X0425272Y0362454D01*
X0425272Y0366194D01*
X0435902Y0366194D01*
X0435902Y0375052D01*
X0425272Y0375052D01*
X0425272Y0366194D01*
X0400469Y0366194D02*
X0400469Y0362454D01*
X0389839Y0362454D01*
X0389839Y0366194D01*
X0400469Y0366194D01*
X0400469Y0375052D01*
X0389839Y0375052D01*
X0389839Y0366194D01*
X0365036Y0366194D02*
X0365036Y0362454D01*
X0354406Y0362454D01*
X0354406Y0366194D01*
X0365036Y0366194D01*
X0365036Y0375052D01*
X0354406Y0375052D01*
X0354406Y0366194D01*
X0329603Y0366194D02*
X0329603Y0362454D01*
X0318973Y0362454D01*
X0318973Y0366194D01*
X0329603Y0366194D01*
X0329603Y0375052D01*
X0318973Y0375052D01*
X0318973Y0366194D01*
X0294170Y0366194D02*
X0294170Y0362454D01*
X0283540Y0362454D01*
X0283540Y0366194D01*
X0294170Y0366194D01*
X0294170Y0375052D01*
X0283540Y0375052D01*
X0283540Y0366194D01*
X0258737Y0366194D02*
X0258737Y0362454D01*
X0248107Y0362454D01*
X0248107Y0366194D01*
X0258737Y0366194D01*
X0258737Y0375052D01*
X0248107Y0375052D01*
X0248107Y0366194D01*
X0223304Y0366194D02*
X0223304Y0362454D01*
X0212674Y0362454D01*
X0212674Y0366194D01*
X0223304Y0366194D01*
X0223304Y0375052D01*
X0212674Y0375052D01*
X0212674Y0366194D01*
X0187871Y0366194D02*
X0187871Y0362454D01*
X0177241Y0362454D01*
X0177241Y0366194D01*
X0187871Y0366194D01*
X0187871Y0375052D01*
X0177241Y0375052D01*
X0177241Y0366194D01*
X0152438Y0366194D02*
X0152438Y0362454D01*
X0141808Y0362454D01*
X0141808Y0366194D01*
X0152438Y0366194D01*
X0152438Y0375052D01*
X0141808Y0375052D01*
X0141808Y0366194D01*
M02*
