G75*
%MOIN*%
%OFA0B0*%
%FSLAX25Y25*%
%IPPOS*%
%LPD*%
%AMOC8*
5,1,8,0,0,1.08239X$1,22.5*
%
%ADD10R,0.01575X0.04724*%
%ADD11R,0.08661X0.02362*%
%ADD12R,0.04331X0.03937*%
%ADD13C,0.04000*%
D10*
X0151524Y0231398D03*
X0154083Y0231398D03*
X0156643Y0231398D03*
X0159202Y0231398D03*
X0161761Y0231398D03*
X0164320Y0231398D03*
X0166879Y0231398D03*
X0169438Y0231398D03*
X0171997Y0231398D03*
X0174556Y0231398D03*
X0177115Y0231398D03*
X0179674Y0231398D03*
X0179674Y0258328D03*
X0177115Y0258328D03*
X0174556Y0258328D03*
X0171997Y0258328D03*
X0169438Y0258328D03*
X0166879Y0258328D03*
X0164320Y0258328D03*
X0161761Y0258328D03*
X0159202Y0258328D03*
X0156643Y0258328D03*
X0154083Y0258328D03*
X0151524Y0258328D03*
X0222524Y0258328D03*
X0225083Y0258328D03*
X0227643Y0258328D03*
X0230202Y0258328D03*
X0232761Y0258328D03*
X0235320Y0258328D03*
X0237879Y0258328D03*
X0240438Y0258328D03*
X0242997Y0258328D03*
X0245556Y0258328D03*
X0248115Y0258328D03*
X0250674Y0258328D03*
X0250674Y0231398D03*
X0248115Y0231398D03*
X0245556Y0231398D03*
X0242997Y0231398D03*
X0240438Y0231398D03*
X0237879Y0231398D03*
X0235320Y0231398D03*
X0232761Y0231398D03*
X0230202Y0231398D03*
X0227643Y0231398D03*
X0225083Y0231398D03*
X0222524Y0231398D03*
X0293524Y0231398D03*
X0296083Y0231398D03*
X0298643Y0231398D03*
X0301202Y0231398D03*
X0303761Y0231398D03*
X0306320Y0231398D03*
X0308879Y0231398D03*
X0311438Y0231398D03*
X0313997Y0231398D03*
X0316556Y0231398D03*
X0319115Y0231398D03*
X0321674Y0231398D03*
X0321674Y0258328D03*
X0319115Y0258328D03*
X0316556Y0258328D03*
X0313997Y0258328D03*
X0311438Y0258328D03*
X0308879Y0258328D03*
X0306320Y0258328D03*
X0303761Y0258328D03*
X0301202Y0258328D03*
X0298643Y0258328D03*
X0296083Y0258328D03*
X0293524Y0258328D03*
X0364024Y0258328D03*
X0366583Y0258328D03*
X0369143Y0258328D03*
X0371702Y0258328D03*
X0374261Y0258328D03*
X0376820Y0258328D03*
X0379379Y0258328D03*
X0381938Y0258328D03*
X0384497Y0258328D03*
X0387056Y0258328D03*
X0389615Y0258328D03*
X0392174Y0258328D03*
X0392174Y0231398D03*
X0389615Y0231398D03*
X0387056Y0231398D03*
X0384497Y0231398D03*
X0381938Y0231398D03*
X0379379Y0231398D03*
X0376820Y0231398D03*
X0374261Y0231398D03*
X0371702Y0231398D03*
X0369143Y0231398D03*
X0366583Y0231398D03*
X0364024Y0231398D03*
X0435024Y0231398D03*
X0437583Y0231398D03*
X0440143Y0231398D03*
X0442702Y0231398D03*
X0445261Y0231398D03*
X0447820Y0231398D03*
X0450379Y0231398D03*
X0452938Y0231398D03*
X0455497Y0231398D03*
X0458056Y0231398D03*
X0460615Y0231398D03*
X0463174Y0231398D03*
X0463174Y0258328D03*
X0460615Y0258328D03*
X0458056Y0258328D03*
X0455497Y0258328D03*
X0452938Y0258328D03*
X0450379Y0258328D03*
X0447820Y0258328D03*
X0445261Y0258328D03*
X0442702Y0258328D03*
X0440143Y0258328D03*
X0437583Y0258328D03*
X0435024Y0258328D03*
X0506024Y0258328D03*
X0508583Y0258328D03*
X0511143Y0258328D03*
X0513702Y0258328D03*
X0516261Y0258328D03*
X0518820Y0258328D03*
X0521379Y0258328D03*
X0523938Y0258328D03*
X0526497Y0258328D03*
X0529056Y0258328D03*
X0531615Y0258328D03*
X0534174Y0258328D03*
X0534174Y0231398D03*
X0531615Y0231398D03*
X0529056Y0231398D03*
X0526497Y0231398D03*
X0523938Y0231398D03*
X0521379Y0231398D03*
X0518820Y0231398D03*
X0516261Y0231398D03*
X0513702Y0231398D03*
X0511143Y0231398D03*
X0508583Y0231398D03*
X0506024Y0231398D03*
D11*
X0509363Y0188863D03*
X0509363Y0183863D03*
X0509363Y0178863D03*
X0509363Y0173863D03*
X0509363Y0168863D03*
X0509363Y0163863D03*
X0509363Y0158863D03*
X0529835Y0158863D03*
X0529835Y0163863D03*
X0529835Y0168863D03*
X0529835Y0173863D03*
X0529835Y0178863D03*
X0529835Y0183863D03*
X0529835Y0188863D03*
X0459335Y0188863D03*
X0459335Y0183863D03*
X0459335Y0178863D03*
X0459335Y0173863D03*
X0459335Y0168863D03*
X0459335Y0163863D03*
X0459335Y0158863D03*
X0438863Y0158863D03*
X0438863Y0163863D03*
X0438863Y0168863D03*
X0438863Y0173863D03*
X0438863Y0178863D03*
X0438863Y0183863D03*
X0438863Y0188863D03*
X0388335Y0188863D03*
X0388335Y0183863D03*
X0388335Y0178863D03*
X0388335Y0173863D03*
X0388335Y0168863D03*
X0388335Y0163863D03*
X0388335Y0158863D03*
X0367863Y0158863D03*
X0367863Y0163863D03*
X0367863Y0168863D03*
X0367863Y0173863D03*
X0367863Y0178863D03*
X0367863Y0183863D03*
X0367863Y0188863D03*
X0317335Y0188863D03*
X0317335Y0183863D03*
X0317335Y0178863D03*
X0317335Y0173863D03*
X0317335Y0168863D03*
X0317335Y0163863D03*
X0317335Y0158863D03*
X0296863Y0158863D03*
X0296863Y0163863D03*
X0296863Y0168863D03*
X0296863Y0173863D03*
X0296863Y0178863D03*
X0296863Y0183863D03*
X0296863Y0188863D03*
X0246335Y0188863D03*
X0246335Y0183863D03*
X0246335Y0178863D03*
X0246335Y0173863D03*
X0246335Y0168863D03*
X0246335Y0163863D03*
X0246335Y0158863D03*
X0225863Y0158863D03*
X0225863Y0163863D03*
X0225863Y0168863D03*
X0225863Y0173863D03*
X0225863Y0178863D03*
X0225863Y0183863D03*
X0225863Y0188863D03*
X0175835Y0188863D03*
X0175835Y0183863D03*
X0175835Y0178863D03*
X0175835Y0173863D03*
X0175835Y0168863D03*
X0175835Y0163863D03*
X0175835Y0158863D03*
X0155363Y0158863D03*
X0155363Y0163863D03*
X0155363Y0168863D03*
X0155363Y0173863D03*
X0155363Y0178863D03*
X0155363Y0183863D03*
X0155363Y0188863D03*
X0155363Y0118863D03*
X0155363Y0113863D03*
X0155363Y0108863D03*
X0155363Y0103863D03*
X0155363Y0098863D03*
X0155363Y0093863D03*
X0155363Y0088863D03*
X0175835Y0088863D03*
X0175835Y0093863D03*
X0175835Y0098863D03*
X0175835Y0103863D03*
X0175835Y0108863D03*
X0175835Y0113863D03*
X0175835Y0118863D03*
X0225863Y0118863D03*
X0225863Y0113863D03*
X0225863Y0108863D03*
X0225863Y0103863D03*
X0225863Y0098863D03*
X0225863Y0093863D03*
X0225863Y0088863D03*
X0246335Y0088863D03*
X0246335Y0093863D03*
X0246335Y0098863D03*
X0246335Y0103863D03*
X0246335Y0108863D03*
X0246335Y0113863D03*
X0246335Y0118863D03*
X0296863Y0118863D03*
X0296863Y0113863D03*
X0296863Y0108863D03*
X0296863Y0103863D03*
X0296863Y0098863D03*
X0296863Y0093863D03*
X0296863Y0088863D03*
X0317335Y0088863D03*
X0317335Y0093863D03*
X0317335Y0098863D03*
X0317335Y0103863D03*
X0317335Y0108863D03*
X0317335Y0113863D03*
X0317335Y0118863D03*
X0367863Y0118863D03*
X0367863Y0113863D03*
X0367863Y0108863D03*
X0367863Y0103863D03*
X0367863Y0098863D03*
X0367863Y0093863D03*
X0367863Y0088863D03*
X0388335Y0088863D03*
X0388335Y0093863D03*
X0388335Y0098863D03*
X0388335Y0103863D03*
X0388335Y0108863D03*
X0388335Y0113863D03*
X0388335Y0118863D03*
X0438863Y0118863D03*
X0438863Y0113863D03*
X0438863Y0108863D03*
X0438863Y0103863D03*
X0438863Y0098863D03*
X0438863Y0093863D03*
X0438863Y0088863D03*
X0459335Y0088863D03*
X0459335Y0093863D03*
X0459335Y0098863D03*
X0459335Y0103863D03*
X0459335Y0108863D03*
X0459335Y0113863D03*
X0459335Y0118863D03*
X0509363Y0118863D03*
X0509363Y0113863D03*
X0509363Y0108863D03*
X0509363Y0103863D03*
X0509363Y0098863D03*
X0509363Y0093863D03*
X0509363Y0088863D03*
X0529835Y0088863D03*
X0529835Y0093863D03*
X0529835Y0098863D03*
X0529835Y0103863D03*
X0529835Y0108863D03*
X0529835Y0113863D03*
X0529835Y0118863D03*
X0529835Y0297363D03*
X0529835Y0302363D03*
X0529835Y0307363D03*
X0529835Y0312363D03*
X0529835Y0317363D03*
X0529835Y0322363D03*
X0529835Y0327363D03*
X0509363Y0327363D03*
X0509363Y0322363D03*
X0509363Y0317363D03*
X0509363Y0312363D03*
X0509363Y0307363D03*
X0509363Y0302363D03*
X0509363Y0297363D03*
X0459335Y0297363D03*
X0459335Y0302363D03*
X0459335Y0307363D03*
X0459335Y0312363D03*
X0459335Y0317363D03*
X0459335Y0322363D03*
X0459335Y0327363D03*
X0438863Y0327363D03*
X0438863Y0322363D03*
X0438863Y0317363D03*
X0438863Y0312363D03*
X0438863Y0307363D03*
X0438863Y0302363D03*
X0438863Y0297363D03*
X0388335Y0297363D03*
X0388335Y0302363D03*
X0388335Y0307363D03*
X0388335Y0312363D03*
X0388335Y0317363D03*
X0388335Y0322363D03*
X0388335Y0327363D03*
X0367863Y0327363D03*
X0367863Y0322363D03*
X0367863Y0317363D03*
X0367863Y0312363D03*
X0367863Y0307363D03*
X0367863Y0302363D03*
X0367863Y0297363D03*
X0317335Y0297363D03*
X0317335Y0302363D03*
X0317335Y0307363D03*
X0317335Y0312363D03*
X0317335Y0317363D03*
X0317335Y0322363D03*
X0317335Y0327363D03*
X0296863Y0327363D03*
X0296863Y0322363D03*
X0296863Y0317363D03*
X0296863Y0312363D03*
X0296863Y0307363D03*
X0296863Y0302363D03*
X0296863Y0297363D03*
X0246335Y0297363D03*
X0246335Y0302363D03*
X0246335Y0307363D03*
X0246335Y0312363D03*
X0246335Y0317363D03*
X0246335Y0322363D03*
X0246335Y0327363D03*
X0225863Y0327363D03*
X0225863Y0322363D03*
X0225863Y0317363D03*
X0225863Y0312363D03*
X0225863Y0307363D03*
X0225863Y0302363D03*
X0225863Y0297363D03*
X0175335Y0297363D03*
X0175335Y0302363D03*
X0175335Y0307363D03*
X0175335Y0312363D03*
X0175335Y0317363D03*
X0175335Y0322363D03*
X0175335Y0327363D03*
X0154863Y0327363D03*
X0154863Y0322363D03*
X0154863Y0317363D03*
X0154863Y0312363D03*
X0154863Y0307363D03*
X0154863Y0302363D03*
X0154863Y0297363D03*
X0154863Y0371863D03*
X0154863Y0376863D03*
X0154863Y0381863D03*
X0154863Y0386863D03*
X0154863Y0391863D03*
X0154863Y0396863D03*
X0154863Y0401863D03*
X0175335Y0401863D03*
X0175335Y0396863D03*
X0175335Y0391863D03*
X0175335Y0386863D03*
X0175335Y0381863D03*
X0175335Y0376863D03*
X0175335Y0371863D03*
X0225863Y0371863D03*
X0225863Y0376863D03*
X0225863Y0381863D03*
X0225863Y0386863D03*
X0225863Y0391863D03*
X0225863Y0396863D03*
X0225863Y0401863D03*
X0246335Y0401863D03*
X0246335Y0396863D03*
X0246335Y0391863D03*
X0246335Y0386863D03*
X0246335Y0381863D03*
X0246335Y0376863D03*
X0246335Y0371863D03*
X0296863Y0371863D03*
X0296863Y0376863D03*
X0296863Y0381863D03*
X0296863Y0386863D03*
X0296863Y0391863D03*
X0296863Y0396863D03*
X0296863Y0401863D03*
X0317335Y0401863D03*
X0317335Y0396863D03*
X0317335Y0391863D03*
X0317335Y0386863D03*
X0317335Y0381863D03*
X0317335Y0376863D03*
X0317335Y0371863D03*
X0367863Y0371863D03*
X0367863Y0376863D03*
X0367863Y0381863D03*
X0367863Y0386863D03*
X0367863Y0391863D03*
X0367863Y0396863D03*
X0367863Y0401863D03*
X0388335Y0401863D03*
X0388335Y0396863D03*
X0388335Y0391863D03*
X0388335Y0386863D03*
X0388335Y0381863D03*
X0388335Y0376863D03*
X0388335Y0371863D03*
X0438863Y0371863D03*
X0438863Y0376863D03*
X0438863Y0381863D03*
X0438863Y0386863D03*
X0438863Y0391863D03*
X0438863Y0396863D03*
X0438863Y0401863D03*
X0459335Y0401863D03*
X0459335Y0396863D03*
X0459335Y0391863D03*
X0459335Y0386863D03*
X0459335Y0381863D03*
X0459335Y0376863D03*
X0459335Y0371863D03*
X0509363Y0371863D03*
X0509363Y0376863D03*
X0509363Y0381863D03*
X0509363Y0386863D03*
X0509363Y0391863D03*
X0509363Y0396863D03*
X0509363Y0401863D03*
X0529835Y0401863D03*
X0529835Y0396863D03*
X0529835Y0391863D03*
X0529835Y0386863D03*
X0529835Y0381863D03*
X0529835Y0376863D03*
X0529835Y0371863D03*
D12*
X0145099Y0086017D03*
X0145099Y0092709D03*
X0145099Y0115017D03*
X0145099Y0121709D03*
X0162253Y0126863D03*
X0168946Y0126863D03*
X0186099Y0121709D03*
X0186099Y0115017D03*
X0215599Y0115517D03*
X0215599Y0122209D03*
X0232753Y0126863D03*
X0239446Y0126863D03*
X0256599Y0121709D03*
X0256599Y0115017D03*
X0286599Y0115517D03*
X0286599Y0122209D03*
X0303753Y0126863D03*
X0310446Y0126863D03*
X0327599Y0121709D03*
X0327599Y0115017D03*
X0357599Y0115017D03*
X0357599Y0121709D03*
X0374753Y0126863D03*
X0381446Y0126863D03*
X0398599Y0122209D03*
X0398599Y0115517D03*
X0428599Y0116017D03*
X0428599Y0122709D03*
X0445753Y0126863D03*
X0452446Y0126863D03*
X0469599Y0121709D03*
X0469599Y0115017D03*
X0469599Y0092209D03*
X0469599Y0085517D03*
X0499099Y0085517D03*
X0499099Y0092209D03*
X0499099Y0115517D03*
X0499099Y0122209D03*
X0516253Y0126863D03*
X0522946Y0126863D03*
X0540099Y0122209D03*
X0540099Y0115517D03*
X0540099Y0092209D03*
X0540099Y0085517D03*
X0540099Y0155517D03*
X0540099Y0162209D03*
X0540099Y0185017D03*
X0540099Y0191709D03*
X0523446Y0196863D03*
X0516753Y0196863D03*
X0498599Y0192209D03*
X0498599Y0185517D03*
X0469599Y0185517D03*
X0469599Y0192209D03*
X0452446Y0196863D03*
X0445753Y0196863D03*
X0428599Y0192209D03*
X0428599Y0185517D03*
X0398599Y0185517D03*
X0398599Y0192209D03*
X0381446Y0196863D03*
X0374753Y0196863D03*
X0357599Y0191709D03*
X0357599Y0185017D03*
X0327599Y0185017D03*
X0327599Y0191709D03*
X0310446Y0196863D03*
X0303753Y0196863D03*
X0286599Y0191709D03*
X0286599Y0185017D03*
X0256599Y0185017D03*
X0256599Y0191709D03*
X0239446Y0196863D03*
X0232753Y0196863D03*
X0215599Y0192209D03*
X0215599Y0185517D03*
X0186099Y0185017D03*
X0186099Y0191709D03*
X0168946Y0196863D03*
X0162253Y0196863D03*
X0145099Y0191709D03*
X0145099Y0185017D03*
X0145099Y0162709D03*
X0145099Y0156017D03*
X0186099Y0156017D03*
X0186099Y0162709D03*
X0215599Y0162709D03*
X0215599Y0156017D03*
X0256599Y0155517D03*
X0256599Y0162209D03*
X0286599Y0162209D03*
X0286599Y0155517D03*
X0327599Y0155517D03*
X0327599Y0162209D03*
X0357599Y0162209D03*
X0357599Y0155517D03*
X0398599Y0155517D03*
X0398599Y0162209D03*
X0428599Y0162209D03*
X0428599Y0155517D03*
X0469599Y0155517D03*
X0469599Y0162209D03*
X0499099Y0162209D03*
X0499099Y0155517D03*
X0428599Y0092209D03*
X0428599Y0085517D03*
X0398599Y0085517D03*
X0398599Y0092209D03*
X0357599Y0092209D03*
X0357599Y0085517D03*
X0327599Y0085517D03*
X0327599Y0092209D03*
X0286599Y0092209D03*
X0286599Y0085517D03*
X0256599Y0085517D03*
X0256599Y0092209D03*
X0215599Y0092209D03*
X0215599Y0085517D03*
X0186099Y0086017D03*
X0186099Y0092709D03*
X0185599Y0294517D03*
X0185599Y0301209D03*
X0215599Y0300709D03*
X0215599Y0294017D03*
X0215599Y0324017D03*
X0215599Y0330709D03*
X0232753Y0335363D03*
X0239446Y0335363D03*
X0256599Y0330709D03*
X0256599Y0324017D03*
X0286599Y0323517D03*
X0286599Y0330209D03*
X0303253Y0335363D03*
X0309946Y0335363D03*
X0327599Y0330709D03*
X0327599Y0324017D03*
X0357599Y0324017D03*
X0357599Y0330709D03*
X0374753Y0335363D03*
X0381446Y0335363D03*
X0398599Y0330709D03*
X0398599Y0324017D03*
X0428599Y0324017D03*
X0428599Y0330709D03*
X0445753Y0335363D03*
X0452446Y0335363D03*
X0469599Y0330209D03*
X0469599Y0323517D03*
X0469599Y0300709D03*
X0469599Y0294017D03*
X0499099Y0294017D03*
X0499099Y0300709D03*
X0499099Y0324017D03*
X0499099Y0330709D03*
X0516253Y0335363D03*
X0522946Y0335363D03*
X0540099Y0330709D03*
X0540099Y0324017D03*
X0540099Y0300709D03*
X0540099Y0294017D03*
X0540099Y0368517D03*
X0540099Y0375209D03*
X0540099Y0398517D03*
X0540099Y0405209D03*
X0522946Y0409863D03*
X0516253Y0409863D03*
X0499099Y0404709D03*
X0499099Y0398017D03*
X0499099Y0375209D03*
X0499099Y0368517D03*
X0469599Y0368517D03*
X0469599Y0375209D03*
X0469599Y0398517D03*
X0469599Y0405209D03*
X0452446Y0409863D03*
X0445753Y0409863D03*
X0428599Y0404709D03*
X0428599Y0398017D03*
X0398599Y0398517D03*
X0398599Y0405209D03*
X0381446Y0409863D03*
X0374753Y0409863D03*
X0357599Y0405209D03*
X0357599Y0398517D03*
X0327599Y0398517D03*
X0327599Y0405209D03*
X0310446Y0409863D03*
X0303753Y0409863D03*
X0286599Y0405209D03*
X0286599Y0398517D03*
X0256599Y0398017D03*
X0256599Y0404709D03*
X0239446Y0409863D03*
X0232753Y0409863D03*
X0215599Y0404709D03*
X0215599Y0398017D03*
X0185599Y0398017D03*
X0185599Y0404709D03*
X0168446Y0409863D03*
X0161753Y0409863D03*
X0144599Y0404709D03*
X0144599Y0398017D03*
X0144599Y0375209D03*
X0144599Y0368517D03*
X0185599Y0368517D03*
X0185599Y0375209D03*
X0215599Y0375709D03*
X0215599Y0369017D03*
X0256599Y0369017D03*
X0256599Y0375709D03*
X0286599Y0375209D03*
X0286599Y0368517D03*
X0327599Y0368517D03*
X0327599Y0375209D03*
X0357599Y0375209D03*
X0357599Y0368517D03*
X0398599Y0368517D03*
X0398599Y0375209D03*
X0428599Y0375209D03*
X0428599Y0368517D03*
X0427599Y0300709D03*
X0427599Y0294017D03*
X0398599Y0294517D03*
X0398599Y0301209D03*
X0357599Y0300709D03*
X0357599Y0294017D03*
X0327599Y0294017D03*
X0327599Y0300709D03*
X0286599Y0300709D03*
X0286599Y0294017D03*
X0256599Y0294017D03*
X0256599Y0300709D03*
X0185599Y0323517D03*
X0185599Y0330209D03*
X0168446Y0335363D03*
X0161753Y0335363D03*
X0144599Y0330209D03*
X0144599Y0323517D03*
X0144599Y0301709D03*
X0144599Y0295017D03*
D13*
X0118658Y0407572D03*
X0118658Y0096548D03*
X0591099Y0395761D03*
M02*
