G75*
%MOIN*%
%OFA0B0*%
%FSLAX25Y25*%
%IPPOS*%
%LPD*%
%AMOC8*
5,1,8,0,0,1.08239X$1,22.5*
%
%ADD10C,0.00010*%
%ADD11C,0.00000*%
%ADD12C,0.00079*%
D10*
X0071414Y0399335D02*
X0071414Y0399341D01*
D11*
X0076926Y0425209D02*
X0076928Y0425367D01*
X0076934Y0425525D01*
X0076944Y0425683D01*
X0076958Y0425841D01*
X0076976Y0425998D01*
X0076997Y0426155D01*
X0077023Y0426311D01*
X0077053Y0426467D01*
X0077086Y0426622D01*
X0077124Y0426775D01*
X0077165Y0426928D01*
X0077210Y0427080D01*
X0077259Y0427231D01*
X0077312Y0427380D01*
X0077368Y0427528D01*
X0077428Y0427674D01*
X0077492Y0427819D01*
X0077560Y0427962D01*
X0077631Y0428104D01*
X0077705Y0428244D01*
X0077783Y0428381D01*
X0077865Y0428517D01*
X0077949Y0428651D01*
X0078038Y0428782D01*
X0078129Y0428911D01*
X0078224Y0429038D01*
X0078321Y0429163D01*
X0078422Y0429285D01*
X0078526Y0429404D01*
X0078633Y0429521D01*
X0078743Y0429635D01*
X0078856Y0429746D01*
X0078971Y0429855D01*
X0079089Y0429960D01*
X0079210Y0430062D01*
X0079333Y0430162D01*
X0079459Y0430258D01*
X0079587Y0430351D01*
X0079717Y0430441D01*
X0079850Y0430527D01*
X0079985Y0430611D01*
X0080121Y0430690D01*
X0080260Y0430767D01*
X0080401Y0430839D01*
X0080543Y0430909D01*
X0080687Y0430974D01*
X0080833Y0431036D01*
X0080980Y0431094D01*
X0081129Y0431149D01*
X0081279Y0431200D01*
X0081430Y0431247D01*
X0081582Y0431290D01*
X0081735Y0431329D01*
X0081890Y0431365D01*
X0082045Y0431396D01*
X0082201Y0431424D01*
X0082357Y0431448D01*
X0082514Y0431468D01*
X0082672Y0431484D01*
X0082829Y0431496D01*
X0082988Y0431504D01*
X0083146Y0431508D01*
X0083304Y0431508D01*
X0083462Y0431504D01*
X0083621Y0431496D01*
X0083778Y0431484D01*
X0083936Y0431468D01*
X0084093Y0431448D01*
X0084249Y0431424D01*
X0084405Y0431396D01*
X0084560Y0431365D01*
X0084715Y0431329D01*
X0084868Y0431290D01*
X0085020Y0431247D01*
X0085171Y0431200D01*
X0085321Y0431149D01*
X0085470Y0431094D01*
X0085617Y0431036D01*
X0085763Y0430974D01*
X0085907Y0430909D01*
X0086049Y0430839D01*
X0086190Y0430767D01*
X0086329Y0430690D01*
X0086465Y0430611D01*
X0086600Y0430527D01*
X0086733Y0430441D01*
X0086863Y0430351D01*
X0086991Y0430258D01*
X0087117Y0430162D01*
X0087240Y0430062D01*
X0087361Y0429960D01*
X0087479Y0429855D01*
X0087594Y0429746D01*
X0087707Y0429635D01*
X0087817Y0429521D01*
X0087924Y0429404D01*
X0088028Y0429285D01*
X0088129Y0429163D01*
X0088226Y0429038D01*
X0088321Y0428911D01*
X0088412Y0428782D01*
X0088501Y0428651D01*
X0088585Y0428517D01*
X0088667Y0428381D01*
X0088745Y0428244D01*
X0088819Y0428104D01*
X0088890Y0427962D01*
X0088958Y0427819D01*
X0089022Y0427674D01*
X0089082Y0427528D01*
X0089138Y0427380D01*
X0089191Y0427231D01*
X0089240Y0427080D01*
X0089285Y0426928D01*
X0089326Y0426775D01*
X0089364Y0426622D01*
X0089397Y0426467D01*
X0089427Y0426311D01*
X0089453Y0426155D01*
X0089474Y0425998D01*
X0089492Y0425841D01*
X0089506Y0425683D01*
X0089516Y0425525D01*
X0089522Y0425367D01*
X0089524Y0425209D01*
X0089522Y0425051D01*
X0089516Y0424893D01*
X0089506Y0424735D01*
X0089492Y0424577D01*
X0089474Y0424420D01*
X0089453Y0424263D01*
X0089427Y0424107D01*
X0089397Y0423951D01*
X0089364Y0423796D01*
X0089326Y0423643D01*
X0089285Y0423490D01*
X0089240Y0423338D01*
X0089191Y0423187D01*
X0089138Y0423038D01*
X0089082Y0422890D01*
X0089022Y0422744D01*
X0088958Y0422599D01*
X0088890Y0422456D01*
X0088819Y0422314D01*
X0088745Y0422174D01*
X0088667Y0422037D01*
X0088585Y0421901D01*
X0088501Y0421767D01*
X0088412Y0421636D01*
X0088321Y0421507D01*
X0088226Y0421380D01*
X0088129Y0421255D01*
X0088028Y0421133D01*
X0087924Y0421014D01*
X0087817Y0420897D01*
X0087707Y0420783D01*
X0087594Y0420672D01*
X0087479Y0420563D01*
X0087361Y0420458D01*
X0087240Y0420356D01*
X0087117Y0420256D01*
X0086991Y0420160D01*
X0086863Y0420067D01*
X0086733Y0419977D01*
X0086600Y0419891D01*
X0086465Y0419807D01*
X0086329Y0419728D01*
X0086190Y0419651D01*
X0086049Y0419579D01*
X0085907Y0419509D01*
X0085763Y0419444D01*
X0085617Y0419382D01*
X0085470Y0419324D01*
X0085321Y0419269D01*
X0085171Y0419218D01*
X0085020Y0419171D01*
X0084868Y0419128D01*
X0084715Y0419089D01*
X0084560Y0419053D01*
X0084405Y0419022D01*
X0084249Y0418994D01*
X0084093Y0418970D01*
X0083936Y0418950D01*
X0083778Y0418934D01*
X0083621Y0418922D01*
X0083462Y0418914D01*
X0083304Y0418910D01*
X0083146Y0418910D01*
X0082988Y0418914D01*
X0082829Y0418922D01*
X0082672Y0418934D01*
X0082514Y0418950D01*
X0082357Y0418970D01*
X0082201Y0418994D01*
X0082045Y0419022D01*
X0081890Y0419053D01*
X0081735Y0419089D01*
X0081582Y0419128D01*
X0081430Y0419171D01*
X0081279Y0419218D01*
X0081129Y0419269D01*
X0080980Y0419324D01*
X0080833Y0419382D01*
X0080687Y0419444D01*
X0080543Y0419509D01*
X0080401Y0419579D01*
X0080260Y0419651D01*
X0080121Y0419728D01*
X0079985Y0419807D01*
X0079850Y0419891D01*
X0079717Y0419977D01*
X0079587Y0420067D01*
X0079459Y0420160D01*
X0079333Y0420256D01*
X0079210Y0420356D01*
X0079089Y0420458D01*
X0078971Y0420563D01*
X0078856Y0420672D01*
X0078743Y0420783D01*
X0078633Y0420897D01*
X0078526Y0421014D01*
X0078422Y0421133D01*
X0078321Y0421255D01*
X0078224Y0421380D01*
X0078129Y0421507D01*
X0078038Y0421636D01*
X0077949Y0421767D01*
X0077865Y0421901D01*
X0077783Y0422037D01*
X0077705Y0422174D01*
X0077631Y0422314D01*
X0077560Y0422456D01*
X0077492Y0422599D01*
X0077428Y0422744D01*
X0077368Y0422890D01*
X0077312Y0423038D01*
X0077259Y0423187D01*
X0077210Y0423338D01*
X0077165Y0423490D01*
X0077124Y0423643D01*
X0077086Y0423796D01*
X0077053Y0423951D01*
X0077023Y0424107D01*
X0076997Y0424263D01*
X0076976Y0424420D01*
X0076958Y0424577D01*
X0076944Y0424735D01*
X0076934Y0424893D01*
X0076928Y0425051D01*
X0076926Y0425209D01*
X0615351Y0425209D02*
X0615353Y0425367D01*
X0615359Y0425525D01*
X0615369Y0425683D01*
X0615383Y0425841D01*
X0615401Y0425998D01*
X0615422Y0426155D01*
X0615448Y0426311D01*
X0615478Y0426467D01*
X0615511Y0426622D01*
X0615549Y0426775D01*
X0615590Y0426928D01*
X0615635Y0427080D01*
X0615684Y0427231D01*
X0615737Y0427380D01*
X0615793Y0427528D01*
X0615853Y0427674D01*
X0615917Y0427819D01*
X0615985Y0427962D01*
X0616056Y0428104D01*
X0616130Y0428244D01*
X0616208Y0428381D01*
X0616290Y0428517D01*
X0616374Y0428651D01*
X0616463Y0428782D01*
X0616554Y0428911D01*
X0616649Y0429038D01*
X0616746Y0429163D01*
X0616847Y0429285D01*
X0616951Y0429404D01*
X0617058Y0429521D01*
X0617168Y0429635D01*
X0617281Y0429746D01*
X0617396Y0429855D01*
X0617514Y0429960D01*
X0617635Y0430062D01*
X0617758Y0430162D01*
X0617884Y0430258D01*
X0618012Y0430351D01*
X0618142Y0430441D01*
X0618275Y0430527D01*
X0618410Y0430611D01*
X0618546Y0430690D01*
X0618685Y0430767D01*
X0618826Y0430839D01*
X0618968Y0430909D01*
X0619112Y0430974D01*
X0619258Y0431036D01*
X0619405Y0431094D01*
X0619554Y0431149D01*
X0619704Y0431200D01*
X0619855Y0431247D01*
X0620007Y0431290D01*
X0620160Y0431329D01*
X0620315Y0431365D01*
X0620470Y0431396D01*
X0620626Y0431424D01*
X0620782Y0431448D01*
X0620939Y0431468D01*
X0621097Y0431484D01*
X0621254Y0431496D01*
X0621413Y0431504D01*
X0621571Y0431508D01*
X0621729Y0431508D01*
X0621887Y0431504D01*
X0622046Y0431496D01*
X0622203Y0431484D01*
X0622361Y0431468D01*
X0622518Y0431448D01*
X0622674Y0431424D01*
X0622830Y0431396D01*
X0622985Y0431365D01*
X0623140Y0431329D01*
X0623293Y0431290D01*
X0623445Y0431247D01*
X0623596Y0431200D01*
X0623746Y0431149D01*
X0623895Y0431094D01*
X0624042Y0431036D01*
X0624188Y0430974D01*
X0624332Y0430909D01*
X0624474Y0430839D01*
X0624615Y0430767D01*
X0624754Y0430690D01*
X0624890Y0430611D01*
X0625025Y0430527D01*
X0625158Y0430441D01*
X0625288Y0430351D01*
X0625416Y0430258D01*
X0625542Y0430162D01*
X0625665Y0430062D01*
X0625786Y0429960D01*
X0625904Y0429855D01*
X0626019Y0429746D01*
X0626132Y0429635D01*
X0626242Y0429521D01*
X0626349Y0429404D01*
X0626453Y0429285D01*
X0626554Y0429163D01*
X0626651Y0429038D01*
X0626746Y0428911D01*
X0626837Y0428782D01*
X0626926Y0428651D01*
X0627010Y0428517D01*
X0627092Y0428381D01*
X0627170Y0428244D01*
X0627244Y0428104D01*
X0627315Y0427962D01*
X0627383Y0427819D01*
X0627447Y0427674D01*
X0627507Y0427528D01*
X0627563Y0427380D01*
X0627616Y0427231D01*
X0627665Y0427080D01*
X0627710Y0426928D01*
X0627751Y0426775D01*
X0627789Y0426622D01*
X0627822Y0426467D01*
X0627852Y0426311D01*
X0627878Y0426155D01*
X0627899Y0425998D01*
X0627917Y0425841D01*
X0627931Y0425683D01*
X0627941Y0425525D01*
X0627947Y0425367D01*
X0627949Y0425209D01*
X0627947Y0425051D01*
X0627941Y0424893D01*
X0627931Y0424735D01*
X0627917Y0424577D01*
X0627899Y0424420D01*
X0627878Y0424263D01*
X0627852Y0424107D01*
X0627822Y0423951D01*
X0627789Y0423796D01*
X0627751Y0423643D01*
X0627710Y0423490D01*
X0627665Y0423338D01*
X0627616Y0423187D01*
X0627563Y0423038D01*
X0627507Y0422890D01*
X0627447Y0422744D01*
X0627383Y0422599D01*
X0627315Y0422456D01*
X0627244Y0422314D01*
X0627170Y0422174D01*
X0627092Y0422037D01*
X0627010Y0421901D01*
X0626926Y0421767D01*
X0626837Y0421636D01*
X0626746Y0421507D01*
X0626651Y0421380D01*
X0626554Y0421255D01*
X0626453Y0421133D01*
X0626349Y0421014D01*
X0626242Y0420897D01*
X0626132Y0420783D01*
X0626019Y0420672D01*
X0625904Y0420563D01*
X0625786Y0420458D01*
X0625665Y0420356D01*
X0625542Y0420256D01*
X0625416Y0420160D01*
X0625288Y0420067D01*
X0625158Y0419977D01*
X0625025Y0419891D01*
X0624890Y0419807D01*
X0624754Y0419728D01*
X0624615Y0419651D01*
X0624474Y0419579D01*
X0624332Y0419509D01*
X0624188Y0419444D01*
X0624042Y0419382D01*
X0623895Y0419324D01*
X0623746Y0419269D01*
X0623596Y0419218D01*
X0623445Y0419171D01*
X0623293Y0419128D01*
X0623140Y0419089D01*
X0622985Y0419053D01*
X0622830Y0419022D01*
X0622674Y0418994D01*
X0622518Y0418970D01*
X0622361Y0418950D01*
X0622203Y0418934D01*
X0622046Y0418922D01*
X0621887Y0418914D01*
X0621729Y0418910D01*
X0621571Y0418910D01*
X0621413Y0418914D01*
X0621254Y0418922D01*
X0621097Y0418934D01*
X0620939Y0418950D01*
X0620782Y0418970D01*
X0620626Y0418994D01*
X0620470Y0419022D01*
X0620315Y0419053D01*
X0620160Y0419089D01*
X0620007Y0419128D01*
X0619855Y0419171D01*
X0619704Y0419218D01*
X0619554Y0419269D01*
X0619405Y0419324D01*
X0619258Y0419382D01*
X0619112Y0419444D01*
X0618968Y0419509D01*
X0618826Y0419579D01*
X0618685Y0419651D01*
X0618546Y0419728D01*
X0618410Y0419807D01*
X0618275Y0419891D01*
X0618142Y0419977D01*
X0618012Y0420067D01*
X0617884Y0420160D01*
X0617758Y0420256D01*
X0617635Y0420356D01*
X0617514Y0420458D01*
X0617396Y0420563D01*
X0617281Y0420672D01*
X0617168Y0420783D01*
X0617058Y0420897D01*
X0616951Y0421014D01*
X0616847Y0421133D01*
X0616746Y0421255D01*
X0616649Y0421380D01*
X0616554Y0421507D01*
X0616463Y0421636D01*
X0616374Y0421767D01*
X0616290Y0421901D01*
X0616208Y0422037D01*
X0616130Y0422174D01*
X0616056Y0422314D01*
X0615985Y0422456D01*
X0615917Y0422599D01*
X0615853Y0422744D01*
X0615793Y0422890D01*
X0615737Y0423038D01*
X0615684Y0423187D01*
X0615635Y0423338D01*
X0615590Y0423490D01*
X0615549Y0423643D01*
X0615511Y0423796D01*
X0615478Y0423951D01*
X0615448Y0424107D01*
X0615422Y0424263D01*
X0615401Y0424420D01*
X0615383Y0424577D01*
X0615369Y0424735D01*
X0615359Y0424893D01*
X0615353Y0425051D01*
X0615351Y0425209D01*
X0615351Y0065052D02*
X0615353Y0065210D01*
X0615359Y0065368D01*
X0615369Y0065526D01*
X0615383Y0065684D01*
X0615401Y0065841D01*
X0615422Y0065998D01*
X0615448Y0066154D01*
X0615478Y0066310D01*
X0615511Y0066465D01*
X0615549Y0066618D01*
X0615590Y0066771D01*
X0615635Y0066923D01*
X0615684Y0067074D01*
X0615737Y0067223D01*
X0615793Y0067371D01*
X0615853Y0067517D01*
X0615917Y0067662D01*
X0615985Y0067805D01*
X0616056Y0067947D01*
X0616130Y0068087D01*
X0616208Y0068224D01*
X0616290Y0068360D01*
X0616374Y0068494D01*
X0616463Y0068625D01*
X0616554Y0068754D01*
X0616649Y0068881D01*
X0616746Y0069006D01*
X0616847Y0069128D01*
X0616951Y0069247D01*
X0617058Y0069364D01*
X0617168Y0069478D01*
X0617281Y0069589D01*
X0617396Y0069698D01*
X0617514Y0069803D01*
X0617635Y0069905D01*
X0617758Y0070005D01*
X0617884Y0070101D01*
X0618012Y0070194D01*
X0618142Y0070284D01*
X0618275Y0070370D01*
X0618410Y0070454D01*
X0618546Y0070533D01*
X0618685Y0070610D01*
X0618826Y0070682D01*
X0618968Y0070752D01*
X0619112Y0070817D01*
X0619258Y0070879D01*
X0619405Y0070937D01*
X0619554Y0070992D01*
X0619704Y0071043D01*
X0619855Y0071090D01*
X0620007Y0071133D01*
X0620160Y0071172D01*
X0620315Y0071208D01*
X0620470Y0071239D01*
X0620626Y0071267D01*
X0620782Y0071291D01*
X0620939Y0071311D01*
X0621097Y0071327D01*
X0621254Y0071339D01*
X0621413Y0071347D01*
X0621571Y0071351D01*
X0621729Y0071351D01*
X0621887Y0071347D01*
X0622046Y0071339D01*
X0622203Y0071327D01*
X0622361Y0071311D01*
X0622518Y0071291D01*
X0622674Y0071267D01*
X0622830Y0071239D01*
X0622985Y0071208D01*
X0623140Y0071172D01*
X0623293Y0071133D01*
X0623445Y0071090D01*
X0623596Y0071043D01*
X0623746Y0070992D01*
X0623895Y0070937D01*
X0624042Y0070879D01*
X0624188Y0070817D01*
X0624332Y0070752D01*
X0624474Y0070682D01*
X0624615Y0070610D01*
X0624754Y0070533D01*
X0624890Y0070454D01*
X0625025Y0070370D01*
X0625158Y0070284D01*
X0625288Y0070194D01*
X0625416Y0070101D01*
X0625542Y0070005D01*
X0625665Y0069905D01*
X0625786Y0069803D01*
X0625904Y0069698D01*
X0626019Y0069589D01*
X0626132Y0069478D01*
X0626242Y0069364D01*
X0626349Y0069247D01*
X0626453Y0069128D01*
X0626554Y0069006D01*
X0626651Y0068881D01*
X0626746Y0068754D01*
X0626837Y0068625D01*
X0626926Y0068494D01*
X0627010Y0068360D01*
X0627092Y0068224D01*
X0627170Y0068087D01*
X0627244Y0067947D01*
X0627315Y0067805D01*
X0627383Y0067662D01*
X0627447Y0067517D01*
X0627507Y0067371D01*
X0627563Y0067223D01*
X0627616Y0067074D01*
X0627665Y0066923D01*
X0627710Y0066771D01*
X0627751Y0066618D01*
X0627789Y0066465D01*
X0627822Y0066310D01*
X0627852Y0066154D01*
X0627878Y0065998D01*
X0627899Y0065841D01*
X0627917Y0065684D01*
X0627931Y0065526D01*
X0627941Y0065368D01*
X0627947Y0065210D01*
X0627949Y0065052D01*
X0627947Y0064894D01*
X0627941Y0064736D01*
X0627931Y0064578D01*
X0627917Y0064420D01*
X0627899Y0064263D01*
X0627878Y0064106D01*
X0627852Y0063950D01*
X0627822Y0063794D01*
X0627789Y0063639D01*
X0627751Y0063486D01*
X0627710Y0063333D01*
X0627665Y0063181D01*
X0627616Y0063030D01*
X0627563Y0062881D01*
X0627507Y0062733D01*
X0627447Y0062587D01*
X0627383Y0062442D01*
X0627315Y0062299D01*
X0627244Y0062157D01*
X0627170Y0062017D01*
X0627092Y0061880D01*
X0627010Y0061744D01*
X0626926Y0061610D01*
X0626837Y0061479D01*
X0626746Y0061350D01*
X0626651Y0061223D01*
X0626554Y0061098D01*
X0626453Y0060976D01*
X0626349Y0060857D01*
X0626242Y0060740D01*
X0626132Y0060626D01*
X0626019Y0060515D01*
X0625904Y0060406D01*
X0625786Y0060301D01*
X0625665Y0060199D01*
X0625542Y0060099D01*
X0625416Y0060003D01*
X0625288Y0059910D01*
X0625158Y0059820D01*
X0625025Y0059734D01*
X0624890Y0059650D01*
X0624754Y0059571D01*
X0624615Y0059494D01*
X0624474Y0059422D01*
X0624332Y0059352D01*
X0624188Y0059287D01*
X0624042Y0059225D01*
X0623895Y0059167D01*
X0623746Y0059112D01*
X0623596Y0059061D01*
X0623445Y0059014D01*
X0623293Y0058971D01*
X0623140Y0058932D01*
X0622985Y0058896D01*
X0622830Y0058865D01*
X0622674Y0058837D01*
X0622518Y0058813D01*
X0622361Y0058793D01*
X0622203Y0058777D01*
X0622046Y0058765D01*
X0621887Y0058757D01*
X0621729Y0058753D01*
X0621571Y0058753D01*
X0621413Y0058757D01*
X0621254Y0058765D01*
X0621097Y0058777D01*
X0620939Y0058793D01*
X0620782Y0058813D01*
X0620626Y0058837D01*
X0620470Y0058865D01*
X0620315Y0058896D01*
X0620160Y0058932D01*
X0620007Y0058971D01*
X0619855Y0059014D01*
X0619704Y0059061D01*
X0619554Y0059112D01*
X0619405Y0059167D01*
X0619258Y0059225D01*
X0619112Y0059287D01*
X0618968Y0059352D01*
X0618826Y0059422D01*
X0618685Y0059494D01*
X0618546Y0059571D01*
X0618410Y0059650D01*
X0618275Y0059734D01*
X0618142Y0059820D01*
X0618012Y0059910D01*
X0617884Y0060003D01*
X0617758Y0060099D01*
X0617635Y0060199D01*
X0617514Y0060301D01*
X0617396Y0060406D01*
X0617281Y0060515D01*
X0617168Y0060626D01*
X0617058Y0060740D01*
X0616951Y0060857D01*
X0616847Y0060976D01*
X0616746Y0061098D01*
X0616649Y0061223D01*
X0616554Y0061350D01*
X0616463Y0061479D01*
X0616374Y0061610D01*
X0616290Y0061744D01*
X0616208Y0061880D01*
X0616130Y0062017D01*
X0616056Y0062157D01*
X0615985Y0062299D01*
X0615917Y0062442D01*
X0615853Y0062587D01*
X0615793Y0062733D01*
X0615737Y0062881D01*
X0615684Y0063030D01*
X0615635Y0063181D01*
X0615590Y0063333D01*
X0615549Y0063486D01*
X0615511Y0063639D01*
X0615478Y0063794D01*
X0615448Y0063950D01*
X0615422Y0064106D01*
X0615401Y0064263D01*
X0615383Y0064420D01*
X0615369Y0064578D01*
X0615359Y0064736D01*
X0615353Y0064894D01*
X0615351Y0065052D01*
X0076926Y0065052D02*
X0076928Y0065210D01*
X0076934Y0065368D01*
X0076944Y0065526D01*
X0076958Y0065684D01*
X0076976Y0065841D01*
X0076997Y0065998D01*
X0077023Y0066154D01*
X0077053Y0066310D01*
X0077086Y0066465D01*
X0077124Y0066618D01*
X0077165Y0066771D01*
X0077210Y0066923D01*
X0077259Y0067074D01*
X0077312Y0067223D01*
X0077368Y0067371D01*
X0077428Y0067517D01*
X0077492Y0067662D01*
X0077560Y0067805D01*
X0077631Y0067947D01*
X0077705Y0068087D01*
X0077783Y0068224D01*
X0077865Y0068360D01*
X0077949Y0068494D01*
X0078038Y0068625D01*
X0078129Y0068754D01*
X0078224Y0068881D01*
X0078321Y0069006D01*
X0078422Y0069128D01*
X0078526Y0069247D01*
X0078633Y0069364D01*
X0078743Y0069478D01*
X0078856Y0069589D01*
X0078971Y0069698D01*
X0079089Y0069803D01*
X0079210Y0069905D01*
X0079333Y0070005D01*
X0079459Y0070101D01*
X0079587Y0070194D01*
X0079717Y0070284D01*
X0079850Y0070370D01*
X0079985Y0070454D01*
X0080121Y0070533D01*
X0080260Y0070610D01*
X0080401Y0070682D01*
X0080543Y0070752D01*
X0080687Y0070817D01*
X0080833Y0070879D01*
X0080980Y0070937D01*
X0081129Y0070992D01*
X0081279Y0071043D01*
X0081430Y0071090D01*
X0081582Y0071133D01*
X0081735Y0071172D01*
X0081890Y0071208D01*
X0082045Y0071239D01*
X0082201Y0071267D01*
X0082357Y0071291D01*
X0082514Y0071311D01*
X0082672Y0071327D01*
X0082829Y0071339D01*
X0082988Y0071347D01*
X0083146Y0071351D01*
X0083304Y0071351D01*
X0083462Y0071347D01*
X0083621Y0071339D01*
X0083778Y0071327D01*
X0083936Y0071311D01*
X0084093Y0071291D01*
X0084249Y0071267D01*
X0084405Y0071239D01*
X0084560Y0071208D01*
X0084715Y0071172D01*
X0084868Y0071133D01*
X0085020Y0071090D01*
X0085171Y0071043D01*
X0085321Y0070992D01*
X0085470Y0070937D01*
X0085617Y0070879D01*
X0085763Y0070817D01*
X0085907Y0070752D01*
X0086049Y0070682D01*
X0086190Y0070610D01*
X0086329Y0070533D01*
X0086465Y0070454D01*
X0086600Y0070370D01*
X0086733Y0070284D01*
X0086863Y0070194D01*
X0086991Y0070101D01*
X0087117Y0070005D01*
X0087240Y0069905D01*
X0087361Y0069803D01*
X0087479Y0069698D01*
X0087594Y0069589D01*
X0087707Y0069478D01*
X0087817Y0069364D01*
X0087924Y0069247D01*
X0088028Y0069128D01*
X0088129Y0069006D01*
X0088226Y0068881D01*
X0088321Y0068754D01*
X0088412Y0068625D01*
X0088501Y0068494D01*
X0088585Y0068360D01*
X0088667Y0068224D01*
X0088745Y0068087D01*
X0088819Y0067947D01*
X0088890Y0067805D01*
X0088958Y0067662D01*
X0089022Y0067517D01*
X0089082Y0067371D01*
X0089138Y0067223D01*
X0089191Y0067074D01*
X0089240Y0066923D01*
X0089285Y0066771D01*
X0089326Y0066618D01*
X0089364Y0066465D01*
X0089397Y0066310D01*
X0089427Y0066154D01*
X0089453Y0065998D01*
X0089474Y0065841D01*
X0089492Y0065684D01*
X0089506Y0065526D01*
X0089516Y0065368D01*
X0089522Y0065210D01*
X0089524Y0065052D01*
X0089522Y0064894D01*
X0089516Y0064736D01*
X0089506Y0064578D01*
X0089492Y0064420D01*
X0089474Y0064263D01*
X0089453Y0064106D01*
X0089427Y0063950D01*
X0089397Y0063794D01*
X0089364Y0063639D01*
X0089326Y0063486D01*
X0089285Y0063333D01*
X0089240Y0063181D01*
X0089191Y0063030D01*
X0089138Y0062881D01*
X0089082Y0062733D01*
X0089022Y0062587D01*
X0088958Y0062442D01*
X0088890Y0062299D01*
X0088819Y0062157D01*
X0088745Y0062017D01*
X0088667Y0061880D01*
X0088585Y0061744D01*
X0088501Y0061610D01*
X0088412Y0061479D01*
X0088321Y0061350D01*
X0088226Y0061223D01*
X0088129Y0061098D01*
X0088028Y0060976D01*
X0087924Y0060857D01*
X0087817Y0060740D01*
X0087707Y0060626D01*
X0087594Y0060515D01*
X0087479Y0060406D01*
X0087361Y0060301D01*
X0087240Y0060199D01*
X0087117Y0060099D01*
X0086991Y0060003D01*
X0086863Y0059910D01*
X0086733Y0059820D01*
X0086600Y0059734D01*
X0086465Y0059650D01*
X0086329Y0059571D01*
X0086190Y0059494D01*
X0086049Y0059422D01*
X0085907Y0059352D01*
X0085763Y0059287D01*
X0085617Y0059225D01*
X0085470Y0059167D01*
X0085321Y0059112D01*
X0085171Y0059061D01*
X0085020Y0059014D01*
X0084868Y0058971D01*
X0084715Y0058932D01*
X0084560Y0058896D01*
X0084405Y0058865D01*
X0084249Y0058837D01*
X0084093Y0058813D01*
X0083936Y0058793D01*
X0083778Y0058777D01*
X0083621Y0058765D01*
X0083462Y0058757D01*
X0083304Y0058753D01*
X0083146Y0058753D01*
X0082988Y0058757D01*
X0082829Y0058765D01*
X0082672Y0058777D01*
X0082514Y0058793D01*
X0082357Y0058813D01*
X0082201Y0058837D01*
X0082045Y0058865D01*
X0081890Y0058896D01*
X0081735Y0058932D01*
X0081582Y0058971D01*
X0081430Y0059014D01*
X0081279Y0059061D01*
X0081129Y0059112D01*
X0080980Y0059167D01*
X0080833Y0059225D01*
X0080687Y0059287D01*
X0080543Y0059352D01*
X0080401Y0059422D01*
X0080260Y0059494D01*
X0080121Y0059571D01*
X0079985Y0059650D01*
X0079850Y0059734D01*
X0079717Y0059820D01*
X0079587Y0059910D01*
X0079459Y0060003D01*
X0079333Y0060099D01*
X0079210Y0060199D01*
X0079089Y0060301D01*
X0078971Y0060406D01*
X0078856Y0060515D01*
X0078743Y0060626D01*
X0078633Y0060740D01*
X0078526Y0060857D01*
X0078422Y0060976D01*
X0078321Y0061098D01*
X0078224Y0061223D01*
X0078129Y0061350D01*
X0078038Y0061479D01*
X0077949Y0061610D01*
X0077865Y0061744D01*
X0077783Y0061880D01*
X0077705Y0062017D01*
X0077631Y0062157D01*
X0077560Y0062299D01*
X0077492Y0062442D01*
X0077428Y0062587D01*
X0077368Y0062733D01*
X0077312Y0062881D01*
X0077259Y0063030D01*
X0077210Y0063181D01*
X0077165Y0063333D01*
X0077124Y0063486D01*
X0077086Y0063639D01*
X0077053Y0063794D01*
X0077023Y0063950D01*
X0076997Y0064106D01*
X0076976Y0064263D01*
X0076958Y0064420D01*
X0076944Y0064578D01*
X0076934Y0064736D01*
X0076928Y0064894D01*
X0076926Y0065052D01*
D12*
X0091099Y0053241D02*
X0613776Y0053241D01*
X0614252Y0053247D01*
X0614727Y0053264D01*
X0615202Y0053293D01*
X0615676Y0053333D01*
X0616149Y0053385D01*
X0616620Y0053448D01*
X0617090Y0053522D01*
X0617558Y0053608D01*
X0618024Y0053705D01*
X0618487Y0053813D01*
X0618947Y0053932D01*
X0619405Y0054063D01*
X0619859Y0054204D01*
X0620310Y0054357D01*
X0620756Y0054520D01*
X0621199Y0054694D01*
X0621637Y0054879D01*
X0622071Y0055074D01*
X0622500Y0055280D01*
X0622924Y0055496D01*
X0623343Y0055722D01*
X0623756Y0055958D01*
X0624163Y0056204D01*
X0624564Y0056460D01*
X0624958Y0056726D01*
X0625347Y0057001D01*
X0625728Y0057285D01*
X0626102Y0057578D01*
X0626470Y0057880D01*
X0626830Y0058192D01*
X0627182Y0058511D01*
X0627526Y0058839D01*
X0627863Y0059176D01*
X0628191Y0059520D01*
X0628510Y0059872D01*
X0628822Y0060232D01*
X0629124Y0060600D01*
X0629417Y0060974D01*
X0629701Y0061355D01*
X0629976Y0061744D01*
X0630242Y0062138D01*
X0630498Y0062539D01*
X0630744Y0062946D01*
X0630980Y0063359D01*
X0631206Y0063778D01*
X0631422Y0064202D01*
X0631628Y0064631D01*
X0631823Y0065065D01*
X0632008Y0065503D01*
X0632182Y0065946D01*
X0632345Y0066392D01*
X0632498Y0066843D01*
X0632639Y0067297D01*
X0632770Y0067755D01*
X0632889Y0068215D01*
X0632997Y0068678D01*
X0633094Y0069144D01*
X0633180Y0069612D01*
X0633254Y0070082D01*
X0633317Y0070553D01*
X0633369Y0071026D01*
X0633409Y0071500D01*
X0633438Y0071975D01*
X0633455Y0072450D01*
X0633461Y0072926D01*
X0633461Y0417335D01*
X0633455Y0417811D01*
X0633438Y0418286D01*
X0633409Y0418761D01*
X0633369Y0419235D01*
X0633317Y0419708D01*
X0633254Y0420179D01*
X0633180Y0420649D01*
X0633094Y0421117D01*
X0632997Y0421583D01*
X0632889Y0422046D01*
X0632770Y0422506D01*
X0632639Y0422964D01*
X0632498Y0423418D01*
X0632345Y0423869D01*
X0632182Y0424315D01*
X0632008Y0424758D01*
X0631823Y0425196D01*
X0631628Y0425630D01*
X0631422Y0426059D01*
X0631206Y0426483D01*
X0630980Y0426902D01*
X0630744Y0427315D01*
X0630498Y0427722D01*
X0630242Y0428123D01*
X0629976Y0428517D01*
X0629701Y0428906D01*
X0629417Y0429287D01*
X0629124Y0429661D01*
X0628822Y0430029D01*
X0628510Y0430389D01*
X0628191Y0430741D01*
X0627863Y0431085D01*
X0627526Y0431422D01*
X0627182Y0431750D01*
X0626830Y0432069D01*
X0626470Y0432381D01*
X0626102Y0432683D01*
X0625728Y0432976D01*
X0625347Y0433260D01*
X0624958Y0433535D01*
X0624564Y0433801D01*
X0624163Y0434057D01*
X0623756Y0434303D01*
X0623343Y0434539D01*
X0622924Y0434765D01*
X0622500Y0434981D01*
X0622071Y0435187D01*
X0621637Y0435382D01*
X0621199Y0435567D01*
X0620756Y0435741D01*
X0620310Y0435904D01*
X0619859Y0436057D01*
X0619405Y0436198D01*
X0618947Y0436329D01*
X0618487Y0436448D01*
X0618024Y0436556D01*
X0617558Y0436653D01*
X0617090Y0436739D01*
X0616620Y0436813D01*
X0616149Y0436876D01*
X0615676Y0436928D01*
X0615202Y0436968D01*
X0614727Y0436997D01*
X0614252Y0437014D01*
X0613776Y0437020D01*
X0091099Y0437020D01*
X0090623Y0437014D01*
X0090148Y0436997D01*
X0089673Y0436968D01*
X0089199Y0436928D01*
X0088726Y0436876D01*
X0088255Y0436813D01*
X0087785Y0436739D01*
X0087317Y0436653D01*
X0086851Y0436556D01*
X0086388Y0436448D01*
X0085928Y0436329D01*
X0085470Y0436198D01*
X0085016Y0436057D01*
X0084565Y0435904D01*
X0084119Y0435741D01*
X0083676Y0435567D01*
X0083238Y0435382D01*
X0082804Y0435187D01*
X0082375Y0434981D01*
X0081951Y0434765D01*
X0081532Y0434539D01*
X0081119Y0434303D01*
X0080712Y0434057D01*
X0080311Y0433801D01*
X0079917Y0433535D01*
X0079528Y0433260D01*
X0079147Y0432976D01*
X0078773Y0432683D01*
X0078405Y0432381D01*
X0078045Y0432069D01*
X0077693Y0431750D01*
X0077349Y0431422D01*
X0077012Y0431085D01*
X0076684Y0430741D01*
X0076365Y0430389D01*
X0076053Y0430029D01*
X0075751Y0429661D01*
X0075458Y0429287D01*
X0075174Y0428906D01*
X0074899Y0428517D01*
X0074633Y0428123D01*
X0074377Y0427722D01*
X0074131Y0427315D01*
X0073895Y0426902D01*
X0073669Y0426483D01*
X0073453Y0426059D01*
X0073247Y0425630D01*
X0073052Y0425196D01*
X0072867Y0424758D01*
X0072693Y0424315D01*
X0072530Y0423869D01*
X0072377Y0423418D01*
X0072236Y0422964D01*
X0072105Y0422506D01*
X0071986Y0422046D01*
X0071878Y0421583D01*
X0071781Y0421117D01*
X0071695Y0420649D01*
X0071621Y0420179D01*
X0071558Y0419708D01*
X0071506Y0419235D01*
X0071466Y0418761D01*
X0071437Y0418286D01*
X0071420Y0417811D01*
X0071414Y0417335D01*
X0071414Y0072926D01*
X0071420Y0072450D01*
X0071437Y0071975D01*
X0071466Y0071500D01*
X0071506Y0071026D01*
X0071558Y0070553D01*
X0071621Y0070082D01*
X0071695Y0069612D01*
X0071781Y0069144D01*
X0071878Y0068678D01*
X0071986Y0068215D01*
X0072105Y0067755D01*
X0072236Y0067297D01*
X0072377Y0066843D01*
X0072530Y0066392D01*
X0072693Y0065946D01*
X0072867Y0065503D01*
X0073052Y0065065D01*
X0073247Y0064631D01*
X0073453Y0064202D01*
X0073669Y0063778D01*
X0073895Y0063359D01*
X0074131Y0062946D01*
X0074377Y0062539D01*
X0074633Y0062138D01*
X0074899Y0061744D01*
X0075174Y0061355D01*
X0075458Y0060974D01*
X0075751Y0060600D01*
X0076053Y0060232D01*
X0076365Y0059872D01*
X0076684Y0059520D01*
X0077012Y0059176D01*
X0077349Y0058839D01*
X0077693Y0058511D01*
X0078045Y0058192D01*
X0078405Y0057880D01*
X0078773Y0057578D01*
X0079147Y0057285D01*
X0079528Y0057001D01*
X0079917Y0056726D01*
X0080311Y0056460D01*
X0080712Y0056204D01*
X0081119Y0055958D01*
X0081532Y0055722D01*
X0081951Y0055496D01*
X0082375Y0055280D01*
X0082804Y0055074D01*
X0083238Y0054879D01*
X0083676Y0054694D01*
X0084119Y0054520D01*
X0084565Y0054357D01*
X0085016Y0054204D01*
X0085470Y0054063D01*
X0085928Y0053932D01*
X0086388Y0053813D01*
X0086851Y0053705D01*
X0087317Y0053608D01*
X0087785Y0053522D01*
X0088255Y0053448D01*
X0088726Y0053385D01*
X0089199Y0053333D01*
X0089673Y0053293D01*
X0090148Y0053264D01*
X0090623Y0053247D01*
X0091099Y0053241D01*
M02*
