G75*
%MOIN*%
%OFA0B0*%
%FSLAX25Y25*%
%IPPOS*%
%LPD*%
%AMOC8*
5,1,8,0,0,1.08239X$1,22.5*
%
%ADD10C,0.01100*%
%ADD11C,0.00800*%
%ADD12C,0.00200*%
%ADD13C,0.00600*%
%ADD14C,0.00400*%
D10*
X0195745Y0058986D02*
X0199682Y0058986D01*
X0195745Y0062923D01*
X0195745Y0063907D01*
X0196730Y0064891D01*
X0198698Y0064891D01*
X0199682Y0063907D01*
X0201921Y0059970D02*
X0201921Y0058986D01*
X0202905Y0058986D01*
X0202905Y0059970D01*
X0201921Y0059970D01*
X0205414Y0058986D02*
X0209350Y0058986D01*
X0207382Y0058986D02*
X0207382Y0064891D01*
X0209350Y0062923D01*
X0211589Y0059970D02*
X0211589Y0058986D01*
X0212573Y0058986D01*
X0212573Y0059970D01*
X0211589Y0059970D01*
X0215082Y0062923D02*
X0217050Y0058986D01*
X0219019Y0062923D01*
X0227973Y0058986D02*
X0231910Y0058986D01*
X0231910Y0064891D01*
X0234418Y0064891D02*
X0234418Y0058986D01*
X0234418Y0061939D02*
X0238355Y0061939D01*
X0238355Y0064891D02*
X0238355Y0058986D01*
X0240864Y0059970D02*
X0240864Y0063907D01*
X0241848Y0064891D01*
X0243816Y0064891D01*
X0244801Y0063907D01*
X0244801Y0059970D01*
X0243816Y0058986D01*
X0241848Y0058986D01*
X0240864Y0059970D01*
X0253755Y0058986D02*
X0253755Y0064891D01*
X0257692Y0064891D02*
X0253755Y0058986D01*
X0257692Y0058986D02*
X0257692Y0064891D01*
X0260200Y0063907D02*
X0260200Y0061939D01*
X0261185Y0060955D01*
X0264137Y0060955D01*
X0262169Y0060955D02*
X0260200Y0058986D01*
X0264137Y0058986D02*
X0264137Y0064891D01*
X0261185Y0064891D01*
X0260200Y0063907D01*
X0266646Y0064891D02*
X0270583Y0064891D01*
X0270583Y0058986D01*
X0266646Y0058986D01*
X0268614Y0061939D02*
X0270583Y0061939D01*
X0273091Y0063907D02*
X0274076Y0064891D01*
X0276044Y0064891D01*
X0277028Y0063907D01*
X0277028Y0059970D01*
X0276044Y0058986D01*
X0274076Y0058986D01*
X0273091Y0059970D01*
X0285892Y0062923D02*
X0286876Y0062923D01*
X0288845Y0060955D01*
X0288845Y0062923D02*
X0288845Y0058986D01*
X0291354Y0060955D02*
X0295290Y0060955D01*
X0295290Y0061939D02*
X0294306Y0062923D01*
X0292338Y0062923D01*
X0291354Y0061939D01*
X0291354Y0060955D01*
X0292338Y0058986D02*
X0294306Y0058986D01*
X0295290Y0059970D01*
X0295290Y0061939D01*
X0297799Y0062923D02*
X0300752Y0062923D01*
X0301736Y0061939D01*
X0301736Y0059970D01*
X0300752Y0058986D01*
X0297799Y0058986D01*
X0297799Y0064891D01*
X0304245Y0061939D02*
X0304245Y0058986D01*
X0304245Y0061939D02*
X0305229Y0062923D01*
X0308181Y0062923D01*
X0308181Y0058986D01*
X0310690Y0058986D02*
X0310690Y0062923D01*
X0310690Y0058986D02*
X0313643Y0058986D01*
X0314627Y0059970D01*
X0314627Y0062923D01*
X0323581Y0062923D02*
X0326534Y0062923D01*
X0327518Y0061939D01*
X0327518Y0059970D01*
X0326534Y0058986D01*
X0323581Y0058986D01*
X0323581Y0064891D01*
X0330027Y0061939D02*
X0330027Y0060955D01*
X0333963Y0060955D01*
X0333963Y0061939D02*
X0332979Y0062923D01*
X0331011Y0062923D01*
X0330027Y0061939D01*
X0331011Y0058986D02*
X0332979Y0058986D01*
X0333963Y0059970D01*
X0333963Y0061939D01*
X0336472Y0062923D02*
X0339425Y0062923D01*
X0340409Y0061939D01*
X0339425Y0060955D01*
X0337456Y0060955D01*
X0336472Y0059970D01*
X0337456Y0058986D01*
X0340409Y0058986D01*
X0342918Y0058986D02*
X0342918Y0061939D01*
X0343902Y0062923D01*
X0346854Y0062923D01*
X0346854Y0058986D01*
X0349363Y0060955D02*
X0353300Y0060955D01*
X0353300Y0061939D02*
X0352316Y0062923D01*
X0350347Y0062923D01*
X0349363Y0061939D01*
X0349363Y0060955D01*
X0350347Y0058986D02*
X0352316Y0058986D01*
X0353300Y0059970D01*
X0353300Y0061939D01*
X0355809Y0062923D02*
X0358761Y0062923D01*
X0359745Y0061939D01*
X0359745Y0059970D01*
X0358761Y0058986D01*
X0355809Y0058986D01*
X0362074Y0058986D02*
X0364042Y0058986D01*
X0363058Y0058986D02*
X0363058Y0062923D01*
X0364042Y0062923D01*
X0363058Y0064891D02*
X0363058Y0065875D01*
X0370488Y0064891D02*
X0370488Y0058986D01*
X0366551Y0058986D01*
X0379442Y0059970D02*
X0379442Y0063907D01*
X0383379Y0059970D01*
X0382395Y0058986D01*
X0380426Y0058986D01*
X0379442Y0059970D01*
X0383379Y0059970D02*
X0383379Y0063907D01*
X0382395Y0064891D01*
X0380426Y0064891D01*
X0379442Y0063907D01*
X0385888Y0063907D02*
X0386872Y0064891D01*
X0388840Y0064891D01*
X0389824Y0063907D01*
X0392333Y0063907D02*
X0396270Y0059970D01*
X0396270Y0058986D01*
X0398779Y0059970D02*
X0399763Y0058986D01*
X0401731Y0058986D01*
X0402715Y0059970D01*
X0398779Y0063907D01*
X0398779Y0059970D01*
X0402715Y0059970D02*
X0402715Y0063907D01*
X0401731Y0064891D01*
X0399763Y0064891D01*
X0398779Y0063907D01*
X0396270Y0064891D02*
X0392333Y0064891D01*
X0392333Y0063907D01*
X0389824Y0058986D02*
X0385888Y0062923D01*
X0385888Y0063907D01*
X0385888Y0058986D02*
X0389824Y0058986D01*
X0405224Y0059970D02*
X0406208Y0058986D01*
X0408177Y0058986D01*
X0409161Y0059970D01*
X0409161Y0061939D02*
X0407192Y0062923D01*
X0406208Y0062923D01*
X0405224Y0061939D01*
X0405224Y0059970D01*
X0409161Y0061939D02*
X0409161Y0064891D01*
X0405224Y0064891D01*
X0413638Y0064891D02*
X0413638Y0058986D01*
X0415606Y0058986D02*
X0411670Y0058986D01*
X0415606Y0062923D02*
X0413638Y0064891D01*
X0418115Y0063907D02*
X0418115Y0059970D01*
X0419099Y0058986D01*
X0421068Y0058986D01*
X0422052Y0059970D01*
X0418115Y0063907D01*
X0419099Y0064891D01*
X0421068Y0064891D01*
X0422052Y0063907D01*
X0422052Y0059970D01*
X0424561Y0058986D02*
X0428497Y0058986D01*
X0424561Y0062923D01*
X0424561Y0063907D01*
X0425545Y0064891D01*
X0427513Y0064891D01*
X0428497Y0063907D01*
X0085269Y0190764D02*
X0084285Y0189780D01*
X0083301Y0189780D01*
X0082317Y0190764D01*
X0082317Y0192732D01*
X0081333Y0193717D01*
X0080348Y0193717D01*
X0079364Y0192732D01*
X0079364Y0190764D01*
X0080348Y0189780D01*
X0085269Y0190764D02*
X0085269Y0192732D01*
X0084285Y0193717D01*
X0082317Y0196225D02*
X0083301Y0197210D01*
X0083301Y0199178D01*
X0082317Y0200162D01*
X0081333Y0200162D01*
X0081333Y0196225D01*
X0082317Y0196225D02*
X0080348Y0196225D01*
X0079364Y0197210D01*
X0079364Y0199178D01*
X0079364Y0202671D02*
X0083301Y0202671D01*
X0083301Y0205623D01*
X0082317Y0206608D01*
X0079364Y0206608D01*
X0079364Y0209116D02*
X0079364Y0212069D01*
X0080348Y0213053D01*
X0081333Y0212069D01*
X0081333Y0210101D01*
X0082317Y0209116D01*
X0083301Y0210101D01*
X0083301Y0213053D01*
X0082317Y0215562D02*
X0080348Y0215562D01*
X0079364Y0216546D01*
X0079364Y0218514D01*
X0080348Y0219499D01*
X0082317Y0219499D01*
X0083301Y0218514D01*
X0083301Y0216546D01*
X0082317Y0215562D01*
X0083301Y0222007D02*
X0079364Y0222007D01*
X0081333Y0222007D02*
X0083301Y0223976D01*
X0083301Y0224960D01*
X0083301Y0233824D02*
X0083301Y0236777D01*
X0082317Y0237761D01*
X0080348Y0237761D01*
X0079364Y0236777D01*
X0079364Y0233824D01*
X0085269Y0233824D01*
X0082317Y0240270D02*
X0080348Y0240270D01*
X0079364Y0241254D01*
X0079364Y0243222D01*
X0080348Y0244206D01*
X0082317Y0244206D01*
X0083301Y0243222D01*
X0083301Y0241254D01*
X0082317Y0240270D01*
X0080348Y0246715D02*
X0081333Y0247699D01*
X0081333Y0250652D01*
X0082317Y0250652D02*
X0079364Y0250652D01*
X0079364Y0247699D01*
X0080348Y0246715D01*
X0083301Y0247699D02*
X0083301Y0249668D01*
X0082317Y0250652D01*
X0083301Y0253161D02*
X0079364Y0253161D01*
X0081333Y0253161D02*
X0083301Y0255129D01*
X0083301Y0256113D01*
X0082317Y0258532D02*
X0083301Y0259516D01*
X0083301Y0262469D01*
X0085269Y0262469D02*
X0079364Y0262469D01*
X0079364Y0259516D01*
X0080348Y0258532D01*
X0082317Y0258532D01*
X0084285Y0271423D02*
X0085269Y0272407D01*
X0085269Y0274375D01*
X0084285Y0275360D01*
X0080348Y0271423D01*
X0079364Y0272407D01*
X0079364Y0274375D01*
X0080348Y0275360D01*
X0084285Y0275360D01*
X0084285Y0277868D02*
X0085269Y0278853D01*
X0085269Y0280821D01*
X0084285Y0281805D01*
X0080348Y0277868D01*
X0079364Y0278853D01*
X0079364Y0280821D01*
X0080348Y0281805D01*
X0084285Y0281805D01*
X0084285Y0284314D02*
X0085269Y0285298D01*
X0085269Y0287266D01*
X0084285Y0288251D01*
X0083301Y0288251D01*
X0079364Y0284314D01*
X0079364Y0288251D01*
X0080348Y0277868D02*
X0084285Y0277868D01*
X0084285Y0271423D02*
X0080348Y0271423D01*
X0286011Y0425600D02*
X0286011Y0428553D01*
X0286996Y0429537D01*
X0287980Y0428553D01*
X0287980Y0425600D01*
X0289948Y0425600D02*
X0289948Y0429537D01*
X0288964Y0429537D01*
X0287980Y0428553D01*
X0292457Y0428553D02*
X0293441Y0429537D01*
X0295409Y0429537D01*
X0295409Y0427569D02*
X0292457Y0427569D01*
X0292457Y0428553D02*
X0292457Y0425600D01*
X0295409Y0425600D01*
X0296394Y0426585D01*
X0295409Y0427569D01*
X0298722Y0425600D02*
X0300691Y0425600D01*
X0299706Y0425600D02*
X0299706Y0429537D01*
X0300691Y0429537D01*
X0299706Y0431505D02*
X0299706Y0432490D01*
X0303109Y0429537D02*
X0304093Y0429537D01*
X0306062Y0427569D01*
X0306062Y0429537D02*
X0306062Y0425600D01*
X0308390Y0425600D02*
X0310359Y0425600D01*
X0309375Y0425600D02*
X0309375Y0429537D01*
X0310359Y0429537D01*
X0309375Y0431505D02*
X0309375Y0432490D01*
X0312868Y0431505D02*
X0312868Y0425600D01*
X0316804Y0425600D02*
X0316804Y0431505D01*
X0314836Y0429537D01*
X0312868Y0431505D01*
D11*
X0323851Y0254847D02*
X0291347Y0254847D01*
X0291347Y0234879D01*
X0323851Y0234879D01*
X0323851Y0254847D01*
X0293749Y0250363D02*
X0293751Y0250462D01*
X0293757Y0250562D01*
X0293767Y0250661D01*
X0293781Y0250759D01*
X0293798Y0250857D01*
X0293820Y0250954D01*
X0293845Y0251050D01*
X0293874Y0251145D01*
X0293907Y0251239D01*
X0293944Y0251331D01*
X0293984Y0251422D01*
X0294028Y0251511D01*
X0294076Y0251599D01*
X0294127Y0251684D01*
X0294181Y0251767D01*
X0294238Y0251849D01*
X0294299Y0251927D01*
X0294363Y0252004D01*
X0294429Y0252077D01*
X0294499Y0252148D01*
X0294571Y0252216D01*
X0294646Y0252282D01*
X0294724Y0252344D01*
X0294804Y0252403D01*
X0294886Y0252459D01*
X0294970Y0252511D01*
X0295057Y0252560D01*
X0295145Y0252606D01*
X0295235Y0252648D01*
X0295327Y0252687D01*
X0295420Y0252722D01*
X0295514Y0252753D01*
X0295610Y0252780D01*
X0295707Y0252803D01*
X0295804Y0252823D01*
X0295902Y0252839D01*
X0296001Y0252851D01*
X0296100Y0252859D01*
X0296199Y0252863D01*
X0296299Y0252863D01*
X0296398Y0252859D01*
X0296497Y0252851D01*
X0296596Y0252839D01*
X0296694Y0252823D01*
X0296791Y0252803D01*
X0296888Y0252780D01*
X0296984Y0252753D01*
X0297078Y0252722D01*
X0297171Y0252687D01*
X0297263Y0252648D01*
X0297353Y0252606D01*
X0297441Y0252560D01*
X0297528Y0252511D01*
X0297612Y0252459D01*
X0297694Y0252403D01*
X0297774Y0252344D01*
X0297852Y0252282D01*
X0297927Y0252216D01*
X0297999Y0252148D01*
X0298069Y0252077D01*
X0298135Y0252004D01*
X0298199Y0251927D01*
X0298260Y0251849D01*
X0298317Y0251767D01*
X0298371Y0251684D01*
X0298422Y0251599D01*
X0298470Y0251511D01*
X0298514Y0251422D01*
X0298554Y0251331D01*
X0298591Y0251239D01*
X0298624Y0251145D01*
X0298653Y0251050D01*
X0298678Y0250954D01*
X0298700Y0250857D01*
X0298717Y0250759D01*
X0298731Y0250661D01*
X0298741Y0250562D01*
X0298747Y0250462D01*
X0298749Y0250363D01*
X0298747Y0250264D01*
X0298741Y0250164D01*
X0298731Y0250065D01*
X0298717Y0249967D01*
X0298700Y0249869D01*
X0298678Y0249772D01*
X0298653Y0249676D01*
X0298624Y0249581D01*
X0298591Y0249487D01*
X0298554Y0249395D01*
X0298514Y0249304D01*
X0298470Y0249215D01*
X0298422Y0249127D01*
X0298371Y0249042D01*
X0298317Y0248959D01*
X0298260Y0248877D01*
X0298199Y0248799D01*
X0298135Y0248722D01*
X0298069Y0248649D01*
X0297999Y0248578D01*
X0297927Y0248510D01*
X0297852Y0248444D01*
X0297774Y0248382D01*
X0297694Y0248323D01*
X0297612Y0248267D01*
X0297528Y0248215D01*
X0297441Y0248166D01*
X0297353Y0248120D01*
X0297263Y0248078D01*
X0297171Y0248039D01*
X0297078Y0248004D01*
X0296984Y0247973D01*
X0296888Y0247946D01*
X0296791Y0247923D01*
X0296694Y0247903D01*
X0296596Y0247887D01*
X0296497Y0247875D01*
X0296398Y0247867D01*
X0296299Y0247863D01*
X0296199Y0247863D01*
X0296100Y0247867D01*
X0296001Y0247875D01*
X0295902Y0247887D01*
X0295804Y0247903D01*
X0295707Y0247923D01*
X0295610Y0247946D01*
X0295514Y0247973D01*
X0295420Y0248004D01*
X0295327Y0248039D01*
X0295235Y0248078D01*
X0295145Y0248120D01*
X0295057Y0248166D01*
X0294970Y0248215D01*
X0294886Y0248267D01*
X0294804Y0248323D01*
X0294724Y0248382D01*
X0294646Y0248444D01*
X0294571Y0248510D01*
X0294499Y0248578D01*
X0294429Y0248649D01*
X0294363Y0248722D01*
X0294299Y0248799D01*
X0294238Y0248877D01*
X0294181Y0248959D01*
X0294127Y0249042D01*
X0294076Y0249127D01*
X0294028Y0249215D01*
X0293984Y0249304D01*
X0293944Y0249395D01*
X0293907Y0249487D01*
X0293874Y0249581D01*
X0293845Y0249676D01*
X0293820Y0249772D01*
X0293798Y0249869D01*
X0293781Y0249967D01*
X0293767Y0250065D01*
X0293757Y0250164D01*
X0293751Y0250264D01*
X0293749Y0250363D01*
X0252851Y0254847D02*
X0252851Y0234879D01*
X0220347Y0234879D01*
X0220347Y0254847D01*
X0252851Y0254847D01*
X0222749Y0250363D02*
X0222751Y0250462D01*
X0222757Y0250562D01*
X0222767Y0250661D01*
X0222781Y0250759D01*
X0222798Y0250857D01*
X0222820Y0250954D01*
X0222845Y0251050D01*
X0222874Y0251145D01*
X0222907Y0251239D01*
X0222944Y0251331D01*
X0222984Y0251422D01*
X0223028Y0251511D01*
X0223076Y0251599D01*
X0223127Y0251684D01*
X0223181Y0251767D01*
X0223238Y0251849D01*
X0223299Y0251927D01*
X0223363Y0252004D01*
X0223429Y0252077D01*
X0223499Y0252148D01*
X0223571Y0252216D01*
X0223646Y0252282D01*
X0223724Y0252344D01*
X0223804Y0252403D01*
X0223886Y0252459D01*
X0223970Y0252511D01*
X0224057Y0252560D01*
X0224145Y0252606D01*
X0224235Y0252648D01*
X0224327Y0252687D01*
X0224420Y0252722D01*
X0224514Y0252753D01*
X0224610Y0252780D01*
X0224707Y0252803D01*
X0224804Y0252823D01*
X0224902Y0252839D01*
X0225001Y0252851D01*
X0225100Y0252859D01*
X0225199Y0252863D01*
X0225299Y0252863D01*
X0225398Y0252859D01*
X0225497Y0252851D01*
X0225596Y0252839D01*
X0225694Y0252823D01*
X0225791Y0252803D01*
X0225888Y0252780D01*
X0225984Y0252753D01*
X0226078Y0252722D01*
X0226171Y0252687D01*
X0226263Y0252648D01*
X0226353Y0252606D01*
X0226441Y0252560D01*
X0226528Y0252511D01*
X0226612Y0252459D01*
X0226694Y0252403D01*
X0226774Y0252344D01*
X0226852Y0252282D01*
X0226927Y0252216D01*
X0226999Y0252148D01*
X0227069Y0252077D01*
X0227135Y0252004D01*
X0227199Y0251927D01*
X0227260Y0251849D01*
X0227317Y0251767D01*
X0227371Y0251684D01*
X0227422Y0251599D01*
X0227470Y0251511D01*
X0227514Y0251422D01*
X0227554Y0251331D01*
X0227591Y0251239D01*
X0227624Y0251145D01*
X0227653Y0251050D01*
X0227678Y0250954D01*
X0227700Y0250857D01*
X0227717Y0250759D01*
X0227731Y0250661D01*
X0227741Y0250562D01*
X0227747Y0250462D01*
X0227749Y0250363D01*
X0227747Y0250264D01*
X0227741Y0250164D01*
X0227731Y0250065D01*
X0227717Y0249967D01*
X0227700Y0249869D01*
X0227678Y0249772D01*
X0227653Y0249676D01*
X0227624Y0249581D01*
X0227591Y0249487D01*
X0227554Y0249395D01*
X0227514Y0249304D01*
X0227470Y0249215D01*
X0227422Y0249127D01*
X0227371Y0249042D01*
X0227317Y0248959D01*
X0227260Y0248877D01*
X0227199Y0248799D01*
X0227135Y0248722D01*
X0227069Y0248649D01*
X0226999Y0248578D01*
X0226927Y0248510D01*
X0226852Y0248444D01*
X0226774Y0248382D01*
X0226694Y0248323D01*
X0226612Y0248267D01*
X0226528Y0248215D01*
X0226441Y0248166D01*
X0226353Y0248120D01*
X0226263Y0248078D01*
X0226171Y0248039D01*
X0226078Y0248004D01*
X0225984Y0247973D01*
X0225888Y0247946D01*
X0225791Y0247923D01*
X0225694Y0247903D01*
X0225596Y0247887D01*
X0225497Y0247875D01*
X0225398Y0247867D01*
X0225299Y0247863D01*
X0225199Y0247863D01*
X0225100Y0247867D01*
X0225001Y0247875D01*
X0224902Y0247887D01*
X0224804Y0247903D01*
X0224707Y0247923D01*
X0224610Y0247946D01*
X0224514Y0247973D01*
X0224420Y0248004D01*
X0224327Y0248039D01*
X0224235Y0248078D01*
X0224145Y0248120D01*
X0224057Y0248166D01*
X0223970Y0248215D01*
X0223886Y0248267D01*
X0223804Y0248323D01*
X0223724Y0248382D01*
X0223646Y0248444D01*
X0223571Y0248510D01*
X0223499Y0248578D01*
X0223429Y0248649D01*
X0223363Y0248722D01*
X0223299Y0248799D01*
X0223238Y0248877D01*
X0223181Y0248959D01*
X0223127Y0249042D01*
X0223076Y0249127D01*
X0223028Y0249215D01*
X0222984Y0249304D01*
X0222944Y0249395D01*
X0222907Y0249487D01*
X0222874Y0249581D01*
X0222845Y0249676D01*
X0222820Y0249772D01*
X0222798Y0249869D01*
X0222781Y0249967D01*
X0222767Y0250065D01*
X0222757Y0250164D01*
X0222751Y0250264D01*
X0222749Y0250363D01*
X0181851Y0254847D02*
X0181851Y0234879D01*
X0149347Y0234879D01*
X0149347Y0254847D01*
X0181851Y0254847D01*
X0151749Y0250363D02*
X0151751Y0250462D01*
X0151757Y0250562D01*
X0151767Y0250661D01*
X0151781Y0250759D01*
X0151798Y0250857D01*
X0151820Y0250954D01*
X0151845Y0251050D01*
X0151874Y0251145D01*
X0151907Y0251239D01*
X0151944Y0251331D01*
X0151984Y0251422D01*
X0152028Y0251511D01*
X0152076Y0251599D01*
X0152127Y0251684D01*
X0152181Y0251767D01*
X0152238Y0251849D01*
X0152299Y0251927D01*
X0152363Y0252004D01*
X0152429Y0252077D01*
X0152499Y0252148D01*
X0152571Y0252216D01*
X0152646Y0252282D01*
X0152724Y0252344D01*
X0152804Y0252403D01*
X0152886Y0252459D01*
X0152970Y0252511D01*
X0153057Y0252560D01*
X0153145Y0252606D01*
X0153235Y0252648D01*
X0153327Y0252687D01*
X0153420Y0252722D01*
X0153514Y0252753D01*
X0153610Y0252780D01*
X0153707Y0252803D01*
X0153804Y0252823D01*
X0153902Y0252839D01*
X0154001Y0252851D01*
X0154100Y0252859D01*
X0154199Y0252863D01*
X0154299Y0252863D01*
X0154398Y0252859D01*
X0154497Y0252851D01*
X0154596Y0252839D01*
X0154694Y0252823D01*
X0154791Y0252803D01*
X0154888Y0252780D01*
X0154984Y0252753D01*
X0155078Y0252722D01*
X0155171Y0252687D01*
X0155263Y0252648D01*
X0155353Y0252606D01*
X0155441Y0252560D01*
X0155528Y0252511D01*
X0155612Y0252459D01*
X0155694Y0252403D01*
X0155774Y0252344D01*
X0155852Y0252282D01*
X0155927Y0252216D01*
X0155999Y0252148D01*
X0156069Y0252077D01*
X0156135Y0252004D01*
X0156199Y0251927D01*
X0156260Y0251849D01*
X0156317Y0251767D01*
X0156371Y0251684D01*
X0156422Y0251599D01*
X0156470Y0251511D01*
X0156514Y0251422D01*
X0156554Y0251331D01*
X0156591Y0251239D01*
X0156624Y0251145D01*
X0156653Y0251050D01*
X0156678Y0250954D01*
X0156700Y0250857D01*
X0156717Y0250759D01*
X0156731Y0250661D01*
X0156741Y0250562D01*
X0156747Y0250462D01*
X0156749Y0250363D01*
X0156747Y0250264D01*
X0156741Y0250164D01*
X0156731Y0250065D01*
X0156717Y0249967D01*
X0156700Y0249869D01*
X0156678Y0249772D01*
X0156653Y0249676D01*
X0156624Y0249581D01*
X0156591Y0249487D01*
X0156554Y0249395D01*
X0156514Y0249304D01*
X0156470Y0249215D01*
X0156422Y0249127D01*
X0156371Y0249042D01*
X0156317Y0248959D01*
X0156260Y0248877D01*
X0156199Y0248799D01*
X0156135Y0248722D01*
X0156069Y0248649D01*
X0155999Y0248578D01*
X0155927Y0248510D01*
X0155852Y0248444D01*
X0155774Y0248382D01*
X0155694Y0248323D01*
X0155612Y0248267D01*
X0155528Y0248215D01*
X0155441Y0248166D01*
X0155353Y0248120D01*
X0155263Y0248078D01*
X0155171Y0248039D01*
X0155078Y0248004D01*
X0154984Y0247973D01*
X0154888Y0247946D01*
X0154791Y0247923D01*
X0154694Y0247903D01*
X0154596Y0247887D01*
X0154497Y0247875D01*
X0154398Y0247867D01*
X0154299Y0247863D01*
X0154199Y0247863D01*
X0154100Y0247867D01*
X0154001Y0247875D01*
X0153902Y0247887D01*
X0153804Y0247903D01*
X0153707Y0247923D01*
X0153610Y0247946D01*
X0153514Y0247973D01*
X0153420Y0248004D01*
X0153327Y0248039D01*
X0153235Y0248078D01*
X0153145Y0248120D01*
X0153057Y0248166D01*
X0152970Y0248215D01*
X0152886Y0248267D01*
X0152804Y0248323D01*
X0152724Y0248382D01*
X0152646Y0248444D01*
X0152571Y0248510D01*
X0152499Y0248578D01*
X0152429Y0248649D01*
X0152363Y0248722D01*
X0152299Y0248799D01*
X0152238Y0248877D01*
X0152181Y0248959D01*
X0152127Y0249042D01*
X0152076Y0249127D01*
X0152028Y0249215D01*
X0151984Y0249304D01*
X0151944Y0249395D01*
X0151907Y0249487D01*
X0151874Y0249581D01*
X0151845Y0249676D01*
X0151820Y0249772D01*
X0151798Y0249869D01*
X0151781Y0249967D01*
X0151767Y0250065D01*
X0151757Y0250164D01*
X0151751Y0250264D01*
X0151749Y0250363D01*
X0361847Y0254847D02*
X0361847Y0234879D01*
X0394351Y0234879D01*
X0394351Y0254847D01*
X0361847Y0254847D01*
X0364249Y0250363D02*
X0364251Y0250462D01*
X0364257Y0250562D01*
X0364267Y0250661D01*
X0364281Y0250759D01*
X0364298Y0250857D01*
X0364320Y0250954D01*
X0364345Y0251050D01*
X0364374Y0251145D01*
X0364407Y0251239D01*
X0364444Y0251331D01*
X0364484Y0251422D01*
X0364528Y0251511D01*
X0364576Y0251599D01*
X0364627Y0251684D01*
X0364681Y0251767D01*
X0364738Y0251849D01*
X0364799Y0251927D01*
X0364863Y0252004D01*
X0364929Y0252077D01*
X0364999Y0252148D01*
X0365071Y0252216D01*
X0365146Y0252282D01*
X0365224Y0252344D01*
X0365304Y0252403D01*
X0365386Y0252459D01*
X0365470Y0252511D01*
X0365557Y0252560D01*
X0365645Y0252606D01*
X0365735Y0252648D01*
X0365827Y0252687D01*
X0365920Y0252722D01*
X0366014Y0252753D01*
X0366110Y0252780D01*
X0366207Y0252803D01*
X0366304Y0252823D01*
X0366402Y0252839D01*
X0366501Y0252851D01*
X0366600Y0252859D01*
X0366699Y0252863D01*
X0366799Y0252863D01*
X0366898Y0252859D01*
X0366997Y0252851D01*
X0367096Y0252839D01*
X0367194Y0252823D01*
X0367291Y0252803D01*
X0367388Y0252780D01*
X0367484Y0252753D01*
X0367578Y0252722D01*
X0367671Y0252687D01*
X0367763Y0252648D01*
X0367853Y0252606D01*
X0367941Y0252560D01*
X0368028Y0252511D01*
X0368112Y0252459D01*
X0368194Y0252403D01*
X0368274Y0252344D01*
X0368352Y0252282D01*
X0368427Y0252216D01*
X0368499Y0252148D01*
X0368569Y0252077D01*
X0368635Y0252004D01*
X0368699Y0251927D01*
X0368760Y0251849D01*
X0368817Y0251767D01*
X0368871Y0251684D01*
X0368922Y0251599D01*
X0368970Y0251511D01*
X0369014Y0251422D01*
X0369054Y0251331D01*
X0369091Y0251239D01*
X0369124Y0251145D01*
X0369153Y0251050D01*
X0369178Y0250954D01*
X0369200Y0250857D01*
X0369217Y0250759D01*
X0369231Y0250661D01*
X0369241Y0250562D01*
X0369247Y0250462D01*
X0369249Y0250363D01*
X0369247Y0250264D01*
X0369241Y0250164D01*
X0369231Y0250065D01*
X0369217Y0249967D01*
X0369200Y0249869D01*
X0369178Y0249772D01*
X0369153Y0249676D01*
X0369124Y0249581D01*
X0369091Y0249487D01*
X0369054Y0249395D01*
X0369014Y0249304D01*
X0368970Y0249215D01*
X0368922Y0249127D01*
X0368871Y0249042D01*
X0368817Y0248959D01*
X0368760Y0248877D01*
X0368699Y0248799D01*
X0368635Y0248722D01*
X0368569Y0248649D01*
X0368499Y0248578D01*
X0368427Y0248510D01*
X0368352Y0248444D01*
X0368274Y0248382D01*
X0368194Y0248323D01*
X0368112Y0248267D01*
X0368028Y0248215D01*
X0367941Y0248166D01*
X0367853Y0248120D01*
X0367763Y0248078D01*
X0367671Y0248039D01*
X0367578Y0248004D01*
X0367484Y0247973D01*
X0367388Y0247946D01*
X0367291Y0247923D01*
X0367194Y0247903D01*
X0367096Y0247887D01*
X0366997Y0247875D01*
X0366898Y0247867D01*
X0366799Y0247863D01*
X0366699Y0247863D01*
X0366600Y0247867D01*
X0366501Y0247875D01*
X0366402Y0247887D01*
X0366304Y0247903D01*
X0366207Y0247923D01*
X0366110Y0247946D01*
X0366014Y0247973D01*
X0365920Y0248004D01*
X0365827Y0248039D01*
X0365735Y0248078D01*
X0365645Y0248120D01*
X0365557Y0248166D01*
X0365470Y0248215D01*
X0365386Y0248267D01*
X0365304Y0248323D01*
X0365224Y0248382D01*
X0365146Y0248444D01*
X0365071Y0248510D01*
X0364999Y0248578D01*
X0364929Y0248649D01*
X0364863Y0248722D01*
X0364799Y0248799D01*
X0364738Y0248877D01*
X0364681Y0248959D01*
X0364627Y0249042D01*
X0364576Y0249127D01*
X0364528Y0249215D01*
X0364484Y0249304D01*
X0364444Y0249395D01*
X0364407Y0249487D01*
X0364374Y0249581D01*
X0364345Y0249676D01*
X0364320Y0249772D01*
X0364298Y0249869D01*
X0364281Y0249967D01*
X0364267Y0250065D01*
X0364257Y0250164D01*
X0364251Y0250264D01*
X0364249Y0250363D01*
X0432847Y0254847D02*
X0432847Y0234879D01*
X0465351Y0234879D01*
X0465351Y0254847D01*
X0432847Y0254847D01*
X0435249Y0250363D02*
X0435251Y0250462D01*
X0435257Y0250562D01*
X0435267Y0250661D01*
X0435281Y0250759D01*
X0435298Y0250857D01*
X0435320Y0250954D01*
X0435345Y0251050D01*
X0435374Y0251145D01*
X0435407Y0251239D01*
X0435444Y0251331D01*
X0435484Y0251422D01*
X0435528Y0251511D01*
X0435576Y0251599D01*
X0435627Y0251684D01*
X0435681Y0251767D01*
X0435738Y0251849D01*
X0435799Y0251927D01*
X0435863Y0252004D01*
X0435929Y0252077D01*
X0435999Y0252148D01*
X0436071Y0252216D01*
X0436146Y0252282D01*
X0436224Y0252344D01*
X0436304Y0252403D01*
X0436386Y0252459D01*
X0436470Y0252511D01*
X0436557Y0252560D01*
X0436645Y0252606D01*
X0436735Y0252648D01*
X0436827Y0252687D01*
X0436920Y0252722D01*
X0437014Y0252753D01*
X0437110Y0252780D01*
X0437207Y0252803D01*
X0437304Y0252823D01*
X0437402Y0252839D01*
X0437501Y0252851D01*
X0437600Y0252859D01*
X0437699Y0252863D01*
X0437799Y0252863D01*
X0437898Y0252859D01*
X0437997Y0252851D01*
X0438096Y0252839D01*
X0438194Y0252823D01*
X0438291Y0252803D01*
X0438388Y0252780D01*
X0438484Y0252753D01*
X0438578Y0252722D01*
X0438671Y0252687D01*
X0438763Y0252648D01*
X0438853Y0252606D01*
X0438941Y0252560D01*
X0439028Y0252511D01*
X0439112Y0252459D01*
X0439194Y0252403D01*
X0439274Y0252344D01*
X0439352Y0252282D01*
X0439427Y0252216D01*
X0439499Y0252148D01*
X0439569Y0252077D01*
X0439635Y0252004D01*
X0439699Y0251927D01*
X0439760Y0251849D01*
X0439817Y0251767D01*
X0439871Y0251684D01*
X0439922Y0251599D01*
X0439970Y0251511D01*
X0440014Y0251422D01*
X0440054Y0251331D01*
X0440091Y0251239D01*
X0440124Y0251145D01*
X0440153Y0251050D01*
X0440178Y0250954D01*
X0440200Y0250857D01*
X0440217Y0250759D01*
X0440231Y0250661D01*
X0440241Y0250562D01*
X0440247Y0250462D01*
X0440249Y0250363D01*
X0440247Y0250264D01*
X0440241Y0250164D01*
X0440231Y0250065D01*
X0440217Y0249967D01*
X0440200Y0249869D01*
X0440178Y0249772D01*
X0440153Y0249676D01*
X0440124Y0249581D01*
X0440091Y0249487D01*
X0440054Y0249395D01*
X0440014Y0249304D01*
X0439970Y0249215D01*
X0439922Y0249127D01*
X0439871Y0249042D01*
X0439817Y0248959D01*
X0439760Y0248877D01*
X0439699Y0248799D01*
X0439635Y0248722D01*
X0439569Y0248649D01*
X0439499Y0248578D01*
X0439427Y0248510D01*
X0439352Y0248444D01*
X0439274Y0248382D01*
X0439194Y0248323D01*
X0439112Y0248267D01*
X0439028Y0248215D01*
X0438941Y0248166D01*
X0438853Y0248120D01*
X0438763Y0248078D01*
X0438671Y0248039D01*
X0438578Y0248004D01*
X0438484Y0247973D01*
X0438388Y0247946D01*
X0438291Y0247923D01*
X0438194Y0247903D01*
X0438096Y0247887D01*
X0437997Y0247875D01*
X0437898Y0247867D01*
X0437799Y0247863D01*
X0437699Y0247863D01*
X0437600Y0247867D01*
X0437501Y0247875D01*
X0437402Y0247887D01*
X0437304Y0247903D01*
X0437207Y0247923D01*
X0437110Y0247946D01*
X0437014Y0247973D01*
X0436920Y0248004D01*
X0436827Y0248039D01*
X0436735Y0248078D01*
X0436645Y0248120D01*
X0436557Y0248166D01*
X0436470Y0248215D01*
X0436386Y0248267D01*
X0436304Y0248323D01*
X0436224Y0248382D01*
X0436146Y0248444D01*
X0436071Y0248510D01*
X0435999Y0248578D01*
X0435929Y0248649D01*
X0435863Y0248722D01*
X0435799Y0248799D01*
X0435738Y0248877D01*
X0435681Y0248959D01*
X0435627Y0249042D01*
X0435576Y0249127D01*
X0435528Y0249215D01*
X0435484Y0249304D01*
X0435444Y0249395D01*
X0435407Y0249487D01*
X0435374Y0249581D01*
X0435345Y0249676D01*
X0435320Y0249772D01*
X0435298Y0249869D01*
X0435281Y0249967D01*
X0435267Y0250065D01*
X0435257Y0250164D01*
X0435251Y0250264D01*
X0435249Y0250363D01*
X0503847Y0254847D02*
X0503847Y0234879D01*
X0536351Y0234879D01*
X0536351Y0254847D01*
X0503847Y0254847D01*
X0506249Y0250363D02*
X0506251Y0250462D01*
X0506257Y0250562D01*
X0506267Y0250661D01*
X0506281Y0250759D01*
X0506298Y0250857D01*
X0506320Y0250954D01*
X0506345Y0251050D01*
X0506374Y0251145D01*
X0506407Y0251239D01*
X0506444Y0251331D01*
X0506484Y0251422D01*
X0506528Y0251511D01*
X0506576Y0251599D01*
X0506627Y0251684D01*
X0506681Y0251767D01*
X0506738Y0251849D01*
X0506799Y0251927D01*
X0506863Y0252004D01*
X0506929Y0252077D01*
X0506999Y0252148D01*
X0507071Y0252216D01*
X0507146Y0252282D01*
X0507224Y0252344D01*
X0507304Y0252403D01*
X0507386Y0252459D01*
X0507470Y0252511D01*
X0507557Y0252560D01*
X0507645Y0252606D01*
X0507735Y0252648D01*
X0507827Y0252687D01*
X0507920Y0252722D01*
X0508014Y0252753D01*
X0508110Y0252780D01*
X0508207Y0252803D01*
X0508304Y0252823D01*
X0508402Y0252839D01*
X0508501Y0252851D01*
X0508600Y0252859D01*
X0508699Y0252863D01*
X0508799Y0252863D01*
X0508898Y0252859D01*
X0508997Y0252851D01*
X0509096Y0252839D01*
X0509194Y0252823D01*
X0509291Y0252803D01*
X0509388Y0252780D01*
X0509484Y0252753D01*
X0509578Y0252722D01*
X0509671Y0252687D01*
X0509763Y0252648D01*
X0509853Y0252606D01*
X0509941Y0252560D01*
X0510028Y0252511D01*
X0510112Y0252459D01*
X0510194Y0252403D01*
X0510274Y0252344D01*
X0510352Y0252282D01*
X0510427Y0252216D01*
X0510499Y0252148D01*
X0510569Y0252077D01*
X0510635Y0252004D01*
X0510699Y0251927D01*
X0510760Y0251849D01*
X0510817Y0251767D01*
X0510871Y0251684D01*
X0510922Y0251599D01*
X0510970Y0251511D01*
X0511014Y0251422D01*
X0511054Y0251331D01*
X0511091Y0251239D01*
X0511124Y0251145D01*
X0511153Y0251050D01*
X0511178Y0250954D01*
X0511200Y0250857D01*
X0511217Y0250759D01*
X0511231Y0250661D01*
X0511241Y0250562D01*
X0511247Y0250462D01*
X0511249Y0250363D01*
X0511247Y0250264D01*
X0511241Y0250164D01*
X0511231Y0250065D01*
X0511217Y0249967D01*
X0511200Y0249869D01*
X0511178Y0249772D01*
X0511153Y0249676D01*
X0511124Y0249581D01*
X0511091Y0249487D01*
X0511054Y0249395D01*
X0511014Y0249304D01*
X0510970Y0249215D01*
X0510922Y0249127D01*
X0510871Y0249042D01*
X0510817Y0248959D01*
X0510760Y0248877D01*
X0510699Y0248799D01*
X0510635Y0248722D01*
X0510569Y0248649D01*
X0510499Y0248578D01*
X0510427Y0248510D01*
X0510352Y0248444D01*
X0510274Y0248382D01*
X0510194Y0248323D01*
X0510112Y0248267D01*
X0510028Y0248215D01*
X0509941Y0248166D01*
X0509853Y0248120D01*
X0509763Y0248078D01*
X0509671Y0248039D01*
X0509578Y0248004D01*
X0509484Y0247973D01*
X0509388Y0247946D01*
X0509291Y0247923D01*
X0509194Y0247903D01*
X0509096Y0247887D01*
X0508997Y0247875D01*
X0508898Y0247867D01*
X0508799Y0247863D01*
X0508699Y0247863D01*
X0508600Y0247867D01*
X0508501Y0247875D01*
X0508402Y0247887D01*
X0508304Y0247903D01*
X0508207Y0247923D01*
X0508110Y0247946D01*
X0508014Y0247973D01*
X0507920Y0248004D01*
X0507827Y0248039D01*
X0507735Y0248078D01*
X0507645Y0248120D01*
X0507557Y0248166D01*
X0507470Y0248215D01*
X0507386Y0248267D01*
X0507304Y0248323D01*
X0507224Y0248382D01*
X0507146Y0248444D01*
X0507071Y0248510D01*
X0506999Y0248578D01*
X0506929Y0248649D01*
X0506863Y0248722D01*
X0506799Y0248799D01*
X0506738Y0248877D01*
X0506681Y0248959D01*
X0506627Y0249042D01*
X0506576Y0249127D01*
X0506528Y0249215D01*
X0506484Y0249304D01*
X0506444Y0249395D01*
X0506407Y0249487D01*
X0506374Y0249581D01*
X0506345Y0249676D01*
X0506320Y0249772D01*
X0506298Y0249869D01*
X0506281Y0249967D01*
X0506267Y0250065D01*
X0506257Y0250164D01*
X0506251Y0250264D01*
X0506249Y0250363D01*
D12*
X0504847Y0253863D02*
X0504847Y0235863D01*
X0535351Y0235863D01*
X0535351Y0253863D01*
X0504847Y0253863D01*
X0464351Y0253863D02*
X0464351Y0235863D01*
X0433847Y0235863D01*
X0433847Y0253863D01*
X0464351Y0253863D01*
X0393351Y0253863D02*
X0393351Y0235863D01*
X0362847Y0235863D01*
X0362847Y0253863D01*
X0393351Y0253863D01*
X0322851Y0253863D02*
X0322851Y0235863D01*
X0292347Y0235863D01*
X0292347Y0253863D01*
X0322851Y0253863D01*
X0251851Y0253863D02*
X0251851Y0235863D01*
X0221347Y0235863D01*
X0221347Y0253863D01*
X0251851Y0253863D01*
X0180851Y0253863D02*
X0180851Y0235863D01*
X0150347Y0235863D01*
X0150347Y0253863D01*
X0180851Y0253863D01*
D13*
X0160692Y0241965D02*
X0160692Y0239797D01*
X0160259Y0239363D01*
X0159391Y0239363D01*
X0158957Y0239797D01*
X0158957Y0241965D01*
X0157746Y0241098D02*
X0156878Y0241965D01*
X0156878Y0239363D01*
X0156011Y0239363D02*
X0157746Y0239363D01*
X0227011Y0239797D02*
X0227445Y0239363D01*
X0228312Y0239363D01*
X0228746Y0239797D01*
X0229957Y0239797D02*
X0229957Y0241965D01*
X0228746Y0241532D02*
X0228312Y0241965D01*
X0227445Y0241965D01*
X0227011Y0241532D01*
X0227011Y0241098D01*
X0227445Y0240664D01*
X0227011Y0240230D01*
X0227011Y0239797D01*
X0227445Y0240664D02*
X0227878Y0240664D01*
X0229957Y0239797D02*
X0230391Y0239363D01*
X0231259Y0239363D01*
X0231692Y0239797D01*
X0231692Y0241965D01*
X0298011Y0241965D02*
X0299746Y0241965D01*
X0299746Y0240664D01*
X0298878Y0241098D01*
X0298445Y0241098D01*
X0298011Y0240664D01*
X0298011Y0239797D01*
X0298445Y0239363D01*
X0299312Y0239363D01*
X0299746Y0239797D01*
X0300957Y0239797D02*
X0300957Y0241965D01*
X0302692Y0241965D02*
X0302692Y0239797D01*
X0302259Y0239363D01*
X0301391Y0239363D01*
X0300957Y0239797D01*
X0368511Y0239363D02*
X0370246Y0239363D01*
X0368511Y0241098D01*
X0368511Y0241532D01*
X0368945Y0241965D01*
X0369812Y0241965D01*
X0370246Y0241532D01*
X0371457Y0241965D02*
X0371457Y0239797D01*
X0371891Y0239363D01*
X0372759Y0239363D01*
X0373192Y0239797D01*
X0373192Y0241965D01*
X0439511Y0240664D02*
X0441246Y0240664D01*
X0439945Y0241965D01*
X0439945Y0239363D01*
X0442457Y0239797D02*
X0442457Y0241965D01*
X0444192Y0241965D02*
X0444192Y0239797D01*
X0443759Y0239363D01*
X0442891Y0239363D01*
X0442457Y0239797D01*
X0510511Y0239797D02*
X0510511Y0240230D01*
X0510945Y0240664D01*
X0512246Y0240664D01*
X0512246Y0239797D01*
X0511812Y0239363D01*
X0510945Y0239363D01*
X0510511Y0239797D01*
X0511378Y0241532D02*
X0512246Y0240664D01*
X0511378Y0241532D02*
X0510511Y0241965D01*
X0513457Y0241965D02*
X0513457Y0239797D01*
X0513891Y0239363D01*
X0514759Y0239363D01*
X0515192Y0239797D01*
X0515192Y0241965D01*
D14*
X0142403Y0082855D02*
X0137799Y0082855D01*
X0139334Y0082855D02*
X0139334Y0085157D01*
X0140101Y0085924D01*
X0141636Y0085924D01*
X0142403Y0085157D01*
X0142403Y0082855D01*
X0139334Y0084390D02*
X0137799Y0085924D01*
X0138567Y0087459D02*
X0139334Y0087459D01*
X0140101Y0088226D01*
X0140101Y0089761D01*
X0139334Y0090528D01*
X0138567Y0090528D01*
X0137799Y0089761D01*
X0137799Y0088226D01*
X0138567Y0087459D01*
X0140101Y0088226D02*
X0140868Y0087459D01*
X0141636Y0087459D01*
X0142403Y0088226D01*
X0142403Y0089761D01*
X0141636Y0090528D01*
X0140868Y0090528D01*
X0140101Y0089761D01*
X0159434Y0085667D02*
X0159434Y0084900D01*
X0162503Y0081830D01*
X0162503Y0081063D01*
X0164038Y0081830D02*
X0164805Y0081063D01*
X0166340Y0081063D01*
X0167107Y0081830D01*
X0167107Y0084900D01*
X0166340Y0085667D01*
X0164805Y0085667D01*
X0164038Y0084900D01*
X0162503Y0085667D02*
X0159434Y0085667D01*
X0168642Y0085667D02*
X0170176Y0085667D01*
X0169409Y0085667D02*
X0169409Y0081063D01*
X0170176Y0081063D02*
X0168642Y0081063D01*
X0178799Y0081320D02*
X0180334Y0079786D01*
X0180334Y0080553D02*
X0180334Y0078251D01*
X0178799Y0078251D02*
X0183403Y0078251D01*
X0183403Y0080553D01*
X0182636Y0081320D01*
X0181101Y0081320D01*
X0180334Y0080553D01*
X0179567Y0082855D02*
X0178799Y0083622D01*
X0178799Y0085157D01*
X0179567Y0085924D01*
X0180334Y0085924D01*
X0181101Y0085157D01*
X0181101Y0084390D01*
X0181101Y0085157D02*
X0181868Y0085924D01*
X0182636Y0085924D01*
X0183403Y0085157D01*
X0183403Y0083622D01*
X0182636Y0082855D01*
X0183403Y0087459D02*
X0181101Y0087459D01*
X0181868Y0088994D01*
X0181868Y0089761D01*
X0181101Y0090528D01*
X0179567Y0090528D01*
X0178799Y0089761D01*
X0178799Y0088226D01*
X0179567Y0087459D01*
X0183403Y0087459D02*
X0183403Y0090528D01*
X0208299Y0089261D02*
X0212903Y0089261D01*
X0210601Y0086959D01*
X0210601Y0090028D01*
X0210601Y0085424D02*
X0209834Y0084657D01*
X0209834Y0082355D01*
X0209834Y0083890D02*
X0208299Y0085424D01*
X0210601Y0085424D02*
X0212136Y0085424D01*
X0212903Y0084657D01*
X0212903Y0082355D01*
X0208299Y0082355D01*
X0229934Y0081063D02*
X0233003Y0081063D01*
X0231469Y0081063D02*
X0231469Y0085667D01*
X0233003Y0084132D01*
X0234538Y0084900D02*
X0235305Y0085667D01*
X0236840Y0085667D01*
X0237607Y0084900D01*
X0237607Y0081830D01*
X0236840Y0081063D01*
X0235305Y0081063D01*
X0234538Y0081830D01*
X0239142Y0081063D02*
X0240676Y0081063D01*
X0239909Y0081063D02*
X0239909Y0085667D01*
X0240676Y0085667D02*
X0239142Y0085667D01*
X0249299Y0084657D02*
X0253903Y0084657D01*
X0251601Y0082355D01*
X0251601Y0085424D01*
X0251601Y0086959D02*
X0251601Y0090028D01*
X0249299Y0089261D02*
X0253903Y0089261D01*
X0251601Y0086959D01*
X0251601Y0080820D02*
X0250834Y0080053D01*
X0250834Y0077751D01*
X0249299Y0077751D02*
X0253903Y0077751D01*
X0253903Y0080053D01*
X0253136Y0080820D01*
X0251601Y0080820D01*
X0250834Y0079286D02*
X0249299Y0080820D01*
X0279299Y0080820D02*
X0280834Y0079286D01*
X0280834Y0080053D02*
X0280834Y0077751D01*
X0279299Y0077751D02*
X0283903Y0077751D01*
X0283903Y0080053D01*
X0283136Y0080820D01*
X0281601Y0080820D01*
X0280834Y0080053D01*
X0280067Y0082355D02*
X0279299Y0082355D01*
X0280067Y0082355D02*
X0283136Y0085424D01*
X0283903Y0085424D01*
X0283903Y0082355D01*
X0282368Y0086959D02*
X0283903Y0088494D01*
X0279299Y0088494D01*
X0279299Y0090028D02*
X0279299Y0086959D01*
X0300934Y0084900D02*
X0300934Y0081830D01*
X0301701Y0081063D01*
X0303236Y0081063D01*
X0304003Y0081830D01*
X0305538Y0081063D02*
X0308607Y0081063D01*
X0307072Y0081063D02*
X0307072Y0085667D01*
X0308607Y0084132D01*
X0310142Y0084900D02*
X0310909Y0085667D01*
X0312444Y0085667D01*
X0313211Y0084900D01*
X0313211Y0081830D01*
X0312444Y0081063D01*
X0310909Y0081063D01*
X0310142Y0081830D01*
X0314746Y0081063D02*
X0316280Y0081063D01*
X0315513Y0081063D02*
X0315513Y0085667D01*
X0316280Y0085667D02*
X0314746Y0085667D01*
X0320299Y0084657D02*
X0321067Y0085424D01*
X0324136Y0085424D01*
X0324903Y0084657D01*
X0324903Y0083122D01*
X0324136Y0082355D01*
X0323368Y0082355D01*
X0322601Y0083122D01*
X0322601Y0085424D01*
X0324136Y0086959D02*
X0324903Y0087726D01*
X0324903Y0089261D01*
X0324136Y0090028D01*
X0323368Y0090028D01*
X0320299Y0086959D01*
X0320299Y0090028D01*
X0320299Y0084657D02*
X0320299Y0083122D01*
X0321067Y0082355D01*
X0320299Y0080820D02*
X0321834Y0079286D01*
X0321834Y0080053D02*
X0321834Y0077751D01*
X0320299Y0077751D02*
X0324903Y0077751D01*
X0324903Y0080053D01*
X0324136Y0080820D01*
X0322601Y0080820D01*
X0321834Y0080053D01*
X0304003Y0084132D02*
X0303236Y0083365D01*
X0300934Y0083365D01*
X0300934Y0084900D02*
X0301701Y0085667D01*
X0303236Y0085667D01*
X0304003Y0084900D01*
X0304003Y0084132D01*
X0350299Y0085424D02*
X0351834Y0083890D01*
X0351834Y0084657D02*
X0351834Y0082355D01*
X0350299Y0082355D02*
X0354903Y0082355D01*
X0354903Y0084657D01*
X0354136Y0085424D01*
X0352601Y0085424D01*
X0351834Y0084657D01*
X0351067Y0086959D02*
X0350299Y0087726D01*
X0350299Y0089261D01*
X0351067Y0090028D01*
X0351834Y0090028D01*
X0352601Y0089261D01*
X0352601Y0088494D01*
X0352601Y0089261D02*
X0353368Y0090028D01*
X0354136Y0090028D01*
X0354903Y0089261D01*
X0354903Y0087726D01*
X0354136Y0086959D01*
X0371934Y0083365D02*
X0375003Y0083365D01*
X0372701Y0085667D01*
X0372701Y0081063D01*
X0376538Y0081830D02*
X0377305Y0081063D01*
X0378840Y0081063D01*
X0379607Y0081830D01*
X0379607Y0084900D01*
X0378840Y0085667D01*
X0377305Y0085667D01*
X0376538Y0084900D01*
X0381142Y0085667D02*
X0382676Y0085667D01*
X0381909Y0085667D02*
X0381909Y0081063D01*
X0382676Y0081063D02*
X0381142Y0081063D01*
X0391299Y0080820D02*
X0392834Y0079286D01*
X0392834Y0080053D02*
X0392834Y0077751D01*
X0391299Y0077751D02*
X0395903Y0077751D01*
X0395903Y0080053D01*
X0395136Y0080820D01*
X0393601Y0080820D01*
X0392834Y0080053D01*
X0393601Y0082355D02*
X0393601Y0085424D01*
X0392067Y0086959D02*
X0395136Y0090028D01*
X0392067Y0090028D01*
X0391299Y0089261D01*
X0391299Y0087726D01*
X0392067Y0086959D01*
X0395136Y0086959D01*
X0395903Y0087726D01*
X0395903Y0089261D01*
X0395136Y0090028D01*
X0395903Y0084657D02*
X0391299Y0084657D01*
X0393601Y0082355D02*
X0395903Y0084657D01*
X0421299Y0084657D02*
X0421299Y0083122D01*
X0422067Y0082355D01*
X0423601Y0082355D02*
X0424368Y0083890D01*
X0424368Y0084657D01*
X0423601Y0085424D01*
X0422067Y0085424D01*
X0421299Y0084657D01*
X0422067Y0086959D02*
X0421299Y0087726D01*
X0421299Y0089261D01*
X0422067Y0090028D01*
X0425136Y0090028D01*
X0422067Y0086959D01*
X0425136Y0086959D01*
X0425903Y0087726D01*
X0425903Y0089261D01*
X0425136Y0090028D01*
X0425903Y0085424D02*
X0425903Y0082355D01*
X0423601Y0082355D01*
X0423601Y0080820D02*
X0422834Y0080053D01*
X0422834Y0077751D01*
X0421299Y0077751D02*
X0425903Y0077751D01*
X0425903Y0080053D01*
X0425136Y0080820D01*
X0423601Y0080820D01*
X0422834Y0079286D02*
X0421299Y0080820D01*
X0442934Y0081830D02*
X0443701Y0081063D01*
X0445236Y0081063D01*
X0446003Y0081830D01*
X0446003Y0083365D02*
X0444469Y0084132D01*
X0443701Y0084132D01*
X0442934Y0083365D01*
X0442934Y0081830D01*
X0446003Y0083365D02*
X0446003Y0085667D01*
X0442934Y0085667D01*
X0449072Y0085667D02*
X0449072Y0081063D01*
X0447538Y0081063D02*
X0450607Y0081063D01*
X0452142Y0081830D02*
X0452909Y0081063D01*
X0454444Y0081063D01*
X0455211Y0081830D01*
X0455211Y0084900D01*
X0454444Y0085667D01*
X0452909Y0085667D01*
X0452142Y0084900D01*
X0450607Y0084132D02*
X0449072Y0085667D01*
X0456746Y0085667D02*
X0458280Y0085667D01*
X0457513Y0085667D02*
X0457513Y0081063D01*
X0458280Y0081063D02*
X0456746Y0081063D01*
X0462299Y0080820D02*
X0463834Y0079286D01*
X0463834Y0080053D02*
X0463834Y0077751D01*
X0462299Y0077751D02*
X0466903Y0077751D01*
X0466903Y0080053D01*
X0466136Y0080820D01*
X0464601Y0080820D01*
X0463834Y0080053D01*
X0464601Y0082355D02*
X0463067Y0082355D01*
X0462299Y0083122D01*
X0462299Y0084657D01*
X0463067Y0085424D01*
X0463834Y0085424D01*
X0464601Y0084657D01*
X0464601Y0082355D01*
X0466136Y0083890D01*
X0466903Y0085424D01*
X0466136Y0086959D02*
X0466903Y0087726D01*
X0466903Y0089261D01*
X0466136Y0090028D01*
X0465368Y0090028D01*
X0464601Y0089261D01*
X0463834Y0090028D01*
X0463067Y0090028D01*
X0462299Y0089261D01*
X0462299Y0087726D01*
X0463067Y0086959D01*
X0464601Y0088494D02*
X0464601Y0089261D01*
X0491799Y0089261D02*
X0491799Y0087726D01*
X0492567Y0086959D01*
X0494101Y0088494D02*
X0494101Y0089261D01*
X0493334Y0090028D01*
X0492567Y0090028D01*
X0491799Y0089261D01*
X0494101Y0089261D02*
X0494868Y0090028D01*
X0495636Y0090028D01*
X0496403Y0089261D01*
X0496403Y0087726D01*
X0495636Y0086959D01*
X0495636Y0085424D02*
X0492567Y0082355D01*
X0491799Y0082355D01*
X0491799Y0080820D02*
X0493334Y0079286D01*
X0493334Y0080053D02*
X0493334Y0077751D01*
X0491799Y0077751D02*
X0496403Y0077751D01*
X0496403Y0080053D01*
X0495636Y0080820D01*
X0494101Y0080820D01*
X0493334Y0080053D01*
X0496403Y0082355D02*
X0496403Y0085424D01*
X0495636Y0085424D01*
X0513434Y0081063D02*
X0516503Y0081063D01*
X0514969Y0081063D02*
X0514969Y0085667D01*
X0516503Y0084132D01*
X0518038Y0084132D02*
X0518038Y0084900D01*
X0518805Y0085667D01*
X0520340Y0085667D01*
X0521107Y0084900D01*
X0522642Y0084900D02*
X0523409Y0085667D01*
X0524944Y0085667D01*
X0525711Y0084900D01*
X0525711Y0081830D01*
X0524944Y0081063D01*
X0523409Y0081063D01*
X0522642Y0081830D01*
X0521107Y0081063D02*
X0518038Y0084132D01*
X0518038Y0081063D02*
X0521107Y0081063D01*
X0527246Y0081063D02*
X0528780Y0081063D01*
X0528013Y0081063D02*
X0528013Y0085667D01*
X0528780Y0085667D02*
X0527246Y0085667D01*
X0532799Y0084657D02*
X0533567Y0085424D01*
X0536636Y0085424D01*
X0537403Y0084657D01*
X0537403Y0083122D01*
X0536636Y0082355D01*
X0535868Y0082355D01*
X0535101Y0083122D01*
X0535101Y0085424D01*
X0533567Y0086959D02*
X0532799Y0086959D01*
X0533567Y0086959D02*
X0536636Y0090028D01*
X0537403Y0090028D01*
X0537403Y0086959D01*
X0532799Y0084657D02*
X0532799Y0083122D01*
X0533567Y0082355D01*
X0532799Y0080820D02*
X0534334Y0079286D01*
X0534334Y0080053D02*
X0534334Y0077751D01*
X0532799Y0077751D02*
X0537403Y0077751D01*
X0537403Y0080053D01*
X0536636Y0080820D01*
X0535101Y0080820D01*
X0534334Y0080053D01*
X0542799Y0116563D02*
X0547403Y0116563D01*
X0547403Y0118865D01*
X0546636Y0119632D01*
X0545101Y0119632D01*
X0544334Y0118865D01*
X0544334Y0116563D01*
X0544334Y0118098D02*
X0542799Y0119632D01*
X0543567Y0121167D02*
X0544334Y0121167D01*
X0545101Y0121934D01*
X0545101Y0123469D01*
X0544334Y0124236D01*
X0543567Y0124236D01*
X0542799Y0123469D01*
X0542799Y0121934D01*
X0543567Y0121167D01*
X0545101Y0121934D02*
X0545868Y0121167D01*
X0546636Y0121167D01*
X0547403Y0121934D01*
X0547403Y0123469D01*
X0546636Y0124236D01*
X0545868Y0124236D01*
X0545101Y0123469D01*
X0545868Y0125771D02*
X0545101Y0126538D01*
X0545101Y0128840D01*
X0543567Y0128840D02*
X0546636Y0128840D01*
X0547403Y0128073D01*
X0547403Y0126538D01*
X0546636Y0125771D01*
X0545868Y0125771D01*
X0543567Y0125771D02*
X0542799Y0126538D01*
X0542799Y0128073D01*
X0543567Y0128840D01*
X0521899Y0130330D02*
X0521132Y0129563D01*
X0519597Y0129563D01*
X0518830Y0130330D01*
X0517295Y0129563D02*
X0514226Y0132632D01*
X0514226Y0133400D01*
X0514993Y0134167D01*
X0516528Y0134167D01*
X0517295Y0133400D01*
X0518830Y0133400D02*
X0519597Y0134167D01*
X0521132Y0134167D01*
X0521899Y0133400D01*
X0521899Y0130330D01*
X0517295Y0129563D02*
X0514226Y0129563D01*
X0512691Y0130330D02*
X0511924Y0129563D01*
X0510389Y0129563D01*
X0509622Y0130330D01*
X0509622Y0131865D01*
X0510389Y0132632D01*
X0511157Y0132632D01*
X0512691Y0131865D01*
X0512691Y0134167D01*
X0509622Y0134167D01*
X0501799Y0128840D02*
X0501799Y0125771D01*
X0501799Y0127305D02*
X0506403Y0127305D01*
X0504868Y0125771D01*
X0504868Y0124236D02*
X0504101Y0123469D01*
X0504101Y0121934D01*
X0504868Y0121167D01*
X0505636Y0121167D01*
X0506403Y0121934D01*
X0506403Y0123469D01*
X0505636Y0124236D01*
X0504868Y0124236D01*
X0504101Y0123469D02*
X0503334Y0124236D01*
X0502567Y0124236D01*
X0501799Y0123469D01*
X0501799Y0121934D01*
X0502567Y0121167D01*
X0503334Y0121167D01*
X0504101Y0121934D01*
X0504101Y0119632D02*
X0503334Y0118865D01*
X0503334Y0116563D01*
X0503334Y0118098D02*
X0501799Y0119632D01*
X0504101Y0119632D02*
X0505636Y0119632D01*
X0506403Y0118865D01*
X0506403Y0116563D01*
X0501799Y0116563D01*
X0476903Y0116063D02*
X0476903Y0118365D01*
X0476136Y0119132D01*
X0474601Y0119132D01*
X0473834Y0118365D01*
X0473834Y0116063D01*
X0473834Y0117598D02*
X0472299Y0119132D01*
X0473067Y0120667D02*
X0472299Y0121434D01*
X0472299Y0122969D01*
X0473067Y0123736D01*
X0474601Y0123736D01*
X0475368Y0122969D01*
X0475368Y0122202D01*
X0474601Y0120667D01*
X0476903Y0120667D01*
X0476903Y0123736D01*
X0474601Y0125271D02*
X0474601Y0127573D01*
X0473834Y0128340D01*
X0473067Y0128340D01*
X0472299Y0127573D01*
X0472299Y0126038D01*
X0473067Y0125271D01*
X0474601Y0125271D01*
X0476136Y0126805D01*
X0476903Y0128340D01*
X0476903Y0116063D02*
X0472299Y0116063D01*
X0451399Y0130330D02*
X0450632Y0129563D01*
X0449097Y0129563D01*
X0448330Y0130330D01*
X0446795Y0129563D02*
X0443726Y0132632D01*
X0443726Y0133400D01*
X0444493Y0134167D01*
X0446028Y0134167D01*
X0446795Y0133400D01*
X0448330Y0133400D02*
X0449097Y0134167D01*
X0450632Y0134167D01*
X0451399Y0133400D01*
X0451399Y0130330D01*
X0446795Y0129563D02*
X0443726Y0129563D01*
X0442191Y0129563D02*
X0439122Y0129563D01*
X0440657Y0129563D02*
X0440657Y0134167D01*
X0442191Y0132632D01*
X0435903Y0128573D02*
X0435136Y0129340D01*
X0434368Y0129340D01*
X0433601Y0128573D01*
X0432834Y0129340D01*
X0432067Y0129340D01*
X0431299Y0128573D01*
X0431299Y0127038D01*
X0432067Y0126271D01*
X0432067Y0124736D02*
X0431299Y0123969D01*
X0431299Y0122434D01*
X0432067Y0121667D01*
X0433601Y0121667D02*
X0434368Y0123202D01*
X0434368Y0123969D01*
X0433601Y0124736D01*
X0432067Y0124736D01*
X0433601Y0121667D02*
X0435903Y0121667D01*
X0435903Y0124736D01*
X0435136Y0126271D02*
X0435903Y0127038D01*
X0435903Y0128573D01*
X0433601Y0128573D02*
X0433601Y0127805D01*
X0433601Y0120132D02*
X0432834Y0119365D01*
X0432834Y0117063D01*
X0432834Y0118598D02*
X0431299Y0120132D01*
X0433601Y0120132D02*
X0435136Y0120132D01*
X0435903Y0119365D01*
X0435903Y0117063D01*
X0431299Y0117063D01*
X0405903Y0116563D02*
X0405903Y0118865D01*
X0405136Y0119632D01*
X0403601Y0119632D01*
X0402834Y0118865D01*
X0402834Y0116563D01*
X0402834Y0118098D02*
X0401299Y0119632D01*
X0402067Y0121167D02*
X0401299Y0121934D01*
X0401299Y0123469D01*
X0402067Y0124236D01*
X0402834Y0124236D01*
X0403601Y0123469D01*
X0403601Y0122702D01*
X0403601Y0123469D02*
X0404368Y0124236D01*
X0405136Y0124236D01*
X0405903Y0123469D01*
X0405903Y0121934D01*
X0405136Y0121167D01*
X0405136Y0125771D02*
X0405903Y0126538D01*
X0405903Y0128073D01*
X0405136Y0128840D01*
X0404368Y0128840D01*
X0401299Y0125771D01*
X0401299Y0128840D01*
X0401299Y0116563D02*
X0405903Y0116563D01*
X0380399Y0130330D02*
X0379632Y0129563D01*
X0378097Y0129563D01*
X0377330Y0130330D01*
X0375795Y0129563D02*
X0372726Y0129563D01*
X0371191Y0129563D02*
X0371191Y0130330D01*
X0368122Y0133400D01*
X0368122Y0134167D01*
X0371191Y0134167D01*
X0374261Y0134167D02*
X0374261Y0129563D01*
X0375795Y0132632D02*
X0374261Y0134167D01*
X0377330Y0133400D02*
X0378097Y0134167D01*
X0379632Y0134167D01*
X0380399Y0133400D01*
X0380399Y0130330D01*
X0364903Y0128340D02*
X0364136Y0126805D01*
X0362601Y0125271D01*
X0362601Y0127573D01*
X0361834Y0128340D01*
X0361067Y0128340D01*
X0360299Y0127573D01*
X0360299Y0126038D01*
X0361067Y0125271D01*
X0362601Y0125271D01*
X0360299Y0123736D02*
X0360299Y0120667D01*
X0360299Y0122202D02*
X0364903Y0122202D01*
X0363368Y0120667D01*
X0362601Y0119132D02*
X0361834Y0118365D01*
X0361834Y0116063D01*
X0361834Y0117598D02*
X0360299Y0119132D01*
X0362601Y0119132D02*
X0364136Y0119132D01*
X0364903Y0118365D01*
X0364903Y0116063D01*
X0360299Y0116063D01*
X0334903Y0116063D02*
X0334903Y0118365D01*
X0334136Y0119132D01*
X0332601Y0119132D01*
X0331834Y0118365D01*
X0331834Y0116063D01*
X0331834Y0117598D02*
X0330299Y0119132D01*
X0331067Y0120667D02*
X0331834Y0120667D01*
X0332601Y0121434D01*
X0332601Y0122969D01*
X0331834Y0123736D01*
X0331067Y0123736D01*
X0330299Y0122969D01*
X0330299Y0121434D01*
X0331067Y0120667D01*
X0332601Y0121434D02*
X0333368Y0120667D01*
X0334136Y0120667D01*
X0334903Y0121434D01*
X0334903Y0122969D01*
X0334136Y0123736D01*
X0333368Y0123736D01*
X0332601Y0122969D01*
X0332601Y0125271D02*
X0332601Y0127573D01*
X0331834Y0128340D01*
X0331067Y0128340D01*
X0330299Y0127573D01*
X0330299Y0126038D01*
X0331067Y0125271D01*
X0332601Y0125271D01*
X0334136Y0126805D01*
X0334903Y0128340D01*
X0334903Y0116063D02*
X0330299Y0116063D01*
X0309399Y0130330D02*
X0308632Y0129563D01*
X0307097Y0129563D01*
X0306330Y0130330D01*
X0304795Y0129563D02*
X0301726Y0129563D01*
X0303261Y0129563D02*
X0303261Y0134167D01*
X0304795Y0132632D01*
X0306330Y0133400D02*
X0307097Y0134167D01*
X0308632Y0134167D01*
X0309399Y0133400D01*
X0309399Y0130330D01*
X0300191Y0130330D02*
X0299424Y0129563D01*
X0297889Y0129563D01*
X0297122Y0130330D01*
X0297122Y0131098D01*
X0297889Y0131865D01*
X0298657Y0131865D01*
X0297889Y0131865D02*
X0297122Y0132632D01*
X0297122Y0133400D01*
X0297889Y0134167D01*
X0299424Y0134167D01*
X0300191Y0133400D01*
X0293903Y0128840D02*
X0293903Y0125771D01*
X0291601Y0125771D01*
X0292368Y0127305D01*
X0292368Y0128073D01*
X0291601Y0128840D01*
X0290067Y0128840D01*
X0289299Y0128073D01*
X0289299Y0126538D01*
X0290067Y0125771D01*
X0293136Y0124236D02*
X0290067Y0121167D01*
X0289299Y0121167D01*
X0289299Y0119632D02*
X0290834Y0118098D01*
X0290834Y0118865D02*
X0290834Y0116563D01*
X0289299Y0116563D02*
X0293903Y0116563D01*
X0293903Y0118865D01*
X0293136Y0119632D01*
X0291601Y0119632D01*
X0290834Y0118865D01*
X0293903Y0121167D02*
X0293903Y0124236D01*
X0293136Y0124236D01*
X0263903Y0125271D02*
X0261601Y0125271D01*
X0262368Y0126805D01*
X0262368Y0127573D01*
X0261601Y0128340D01*
X0260067Y0128340D01*
X0259299Y0127573D01*
X0259299Y0126038D01*
X0260067Y0125271D01*
X0259299Y0123736D02*
X0259299Y0120667D01*
X0262368Y0123736D01*
X0263136Y0123736D01*
X0263903Y0122969D01*
X0263903Y0121434D01*
X0263136Y0120667D01*
X0263136Y0119132D02*
X0261601Y0119132D01*
X0260834Y0118365D01*
X0260834Y0116063D01*
X0260834Y0117598D02*
X0259299Y0119132D01*
X0259299Y0116063D02*
X0263903Y0116063D01*
X0263903Y0118365D01*
X0263136Y0119132D01*
X0263903Y0125271D02*
X0263903Y0128340D01*
X0253903Y0147751D02*
X0249299Y0147751D01*
X0250834Y0147751D02*
X0250834Y0150053D01*
X0251601Y0150820D01*
X0253136Y0150820D01*
X0253903Y0150053D01*
X0253903Y0147751D01*
X0250834Y0149286D02*
X0249299Y0150820D01*
X0251601Y0152355D02*
X0251601Y0155424D01*
X0252368Y0156959D02*
X0253903Y0158494D01*
X0249299Y0158494D01*
X0249299Y0160028D02*
X0249299Y0156959D01*
X0249299Y0154657D02*
X0253903Y0154657D01*
X0251601Y0152355D01*
X0240676Y0151063D02*
X0239142Y0151063D01*
X0239909Y0151063D02*
X0239909Y0155667D01*
X0240676Y0155667D02*
X0239142Y0155667D01*
X0237607Y0154900D02*
X0237607Y0151830D01*
X0236840Y0151063D01*
X0235305Y0151063D01*
X0234538Y0151830D01*
X0233003Y0151063D02*
X0229934Y0154132D01*
X0229934Y0154900D01*
X0230701Y0155667D01*
X0232236Y0155667D01*
X0233003Y0154900D01*
X0234538Y0154900D02*
X0235305Y0155667D01*
X0236840Y0155667D01*
X0237607Y0154900D01*
X0233003Y0151063D02*
X0229934Y0151063D01*
X0212903Y0152855D02*
X0212903Y0155157D01*
X0212136Y0155924D01*
X0210601Y0155924D01*
X0209834Y0155157D01*
X0209834Y0152855D01*
X0209834Y0154390D02*
X0208299Y0155924D01*
X0209067Y0157459D02*
X0208299Y0158226D01*
X0208299Y0159761D01*
X0209067Y0160528D01*
X0210601Y0160528D01*
X0211368Y0159761D01*
X0211368Y0158994D01*
X0210601Y0157459D01*
X0212903Y0157459D01*
X0212903Y0160528D01*
X0212903Y0152855D02*
X0208299Y0152855D01*
X0183403Y0153622D02*
X0183403Y0155157D01*
X0182636Y0155924D01*
X0181868Y0155924D01*
X0181101Y0155157D01*
X0180334Y0155924D01*
X0179567Y0155924D01*
X0178799Y0155157D01*
X0178799Y0153622D01*
X0179567Y0152855D01*
X0178799Y0151320D02*
X0180334Y0149786D01*
X0180334Y0150553D02*
X0180334Y0148251D01*
X0178799Y0148251D02*
X0183403Y0148251D01*
X0183403Y0150553D01*
X0182636Y0151320D01*
X0181101Y0151320D01*
X0180334Y0150553D01*
X0182636Y0152855D02*
X0183403Y0153622D01*
X0181101Y0154390D02*
X0181101Y0155157D01*
X0181101Y0157459D02*
X0181101Y0159761D01*
X0180334Y0160528D01*
X0179567Y0160528D01*
X0178799Y0159761D01*
X0178799Y0158226D01*
X0179567Y0157459D01*
X0181101Y0157459D01*
X0182636Y0158994D01*
X0183403Y0160528D01*
X0170176Y0155667D02*
X0168642Y0155667D01*
X0169409Y0155667D02*
X0169409Y0151063D01*
X0170176Y0151063D02*
X0168642Y0151063D01*
X0167107Y0151830D02*
X0166340Y0151063D01*
X0164805Y0151063D01*
X0164038Y0151830D01*
X0162503Y0151830D02*
X0162503Y0152598D01*
X0161736Y0153365D01*
X0160201Y0153365D01*
X0159434Y0152598D01*
X0159434Y0151830D01*
X0160201Y0151063D01*
X0161736Y0151063D01*
X0162503Y0151830D01*
X0161736Y0153365D02*
X0162503Y0154132D01*
X0162503Y0154900D01*
X0161736Y0155667D01*
X0160201Y0155667D01*
X0159434Y0154900D01*
X0159434Y0154132D01*
X0160201Y0153365D01*
X0164038Y0154900D02*
X0164805Y0155667D01*
X0166340Y0155667D01*
X0167107Y0154900D01*
X0167107Y0151830D01*
X0142403Y0152855D02*
X0142403Y0155157D01*
X0141636Y0155924D01*
X0140101Y0155924D01*
X0139334Y0155157D01*
X0139334Y0152855D01*
X0139334Y0154390D02*
X0137799Y0155924D01*
X0138567Y0157459D02*
X0137799Y0158226D01*
X0137799Y0159761D01*
X0138567Y0160528D01*
X0141636Y0160528D01*
X0142403Y0159761D01*
X0142403Y0158226D01*
X0141636Y0157459D01*
X0140868Y0157459D01*
X0140101Y0158226D01*
X0140101Y0160528D01*
X0137799Y0152855D02*
X0142403Y0152855D01*
X0160993Y0134167D02*
X0163295Y0131865D01*
X0160226Y0131865D01*
X0160993Y0129563D02*
X0160993Y0134167D01*
X0164830Y0133400D02*
X0165597Y0134167D01*
X0167132Y0134167D01*
X0167899Y0133400D01*
X0167899Y0130330D01*
X0167132Y0129563D01*
X0165597Y0129563D01*
X0164830Y0130330D01*
X0152403Y0127573D02*
X0152403Y0126038D01*
X0151636Y0125271D01*
X0150868Y0125271D01*
X0150101Y0126038D01*
X0150101Y0128340D01*
X0148567Y0128340D02*
X0151636Y0128340D01*
X0152403Y0127573D01*
X0148567Y0128340D02*
X0147799Y0127573D01*
X0147799Y0126038D01*
X0148567Y0125271D01*
X0147799Y0123736D02*
X0147799Y0120667D01*
X0147799Y0122202D02*
X0152403Y0122202D01*
X0150868Y0120667D01*
X0150101Y0119132D02*
X0149334Y0118365D01*
X0149334Y0116063D01*
X0149334Y0117598D02*
X0147799Y0119132D01*
X0150101Y0119132D02*
X0151636Y0119132D01*
X0152403Y0118365D01*
X0152403Y0116063D01*
X0147799Y0116063D01*
X0188799Y0116063D02*
X0193403Y0116063D01*
X0193403Y0118365D01*
X0192636Y0119132D01*
X0191101Y0119132D01*
X0190334Y0118365D01*
X0190334Y0116063D01*
X0190334Y0117598D02*
X0188799Y0119132D01*
X0188799Y0120667D02*
X0191868Y0123736D01*
X0192636Y0123736D01*
X0193403Y0122969D01*
X0193403Y0121434D01*
X0192636Y0120667D01*
X0188799Y0120667D02*
X0188799Y0123736D01*
X0189567Y0125271D02*
X0188799Y0126038D01*
X0188799Y0127573D01*
X0189567Y0128340D01*
X0190334Y0128340D01*
X0191101Y0127573D01*
X0191101Y0125271D01*
X0189567Y0125271D01*
X0191101Y0125271D02*
X0192636Y0126805D01*
X0193403Y0128340D01*
X0218299Y0128073D02*
X0218299Y0126538D01*
X0219067Y0125771D01*
X0220601Y0125771D02*
X0221368Y0127305D01*
X0221368Y0128073D01*
X0220601Y0128840D01*
X0219067Y0128840D01*
X0218299Y0128073D01*
X0220601Y0125771D02*
X0222903Y0125771D01*
X0222903Y0128840D01*
X0218299Y0124236D02*
X0218299Y0121167D01*
X0218299Y0122702D02*
X0222903Y0122702D01*
X0221368Y0121167D01*
X0220601Y0119632D02*
X0219834Y0118865D01*
X0219834Y0116563D01*
X0219834Y0118098D02*
X0218299Y0119632D01*
X0220601Y0119632D02*
X0222136Y0119632D01*
X0222903Y0118865D01*
X0222903Y0116563D01*
X0218299Y0116563D01*
X0231493Y0129563D02*
X0230726Y0130330D01*
X0230726Y0133400D01*
X0231493Y0134167D01*
X0233028Y0134167D01*
X0233795Y0133400D01*
X0233795Y0132632D01*
X0233028Y0131865D01*
X0230726Y0131865D01*
X0231493Y0129563D02*
X0233028Y0129563D01*
X0233795Y0130330D01*
X0235330Y0130330D02*
X0236097Y0129563D01*
X0237632Y0129563D01*
X0238399Y0130330D01*
X0238399Y0133400D01*
X0237632Y0134167D01*
X0236097Y0134167D01*
X0235330Y0133400D01*
X0279299Y0147751D02*
X0283903Y0147751D01*
X0283903Y0150053D01*
X0283136Y0150820D01*
X0281601Y0150820D01*
X0280834Y0150053D01*
X0280834Y0147751D01*
X0280834Y0149286D02*
X0279299Y0150820D01*
X0279299Y0152355D02*
X0280067Y0152355D01*
X0283136Y0155424D01*
X0283903Y0155424D01*
X0283903Y0152355D01*
X0283136Y0156959D02*
X0283903Y0157726D01*
X0283903Y0159261D01*
X0283136Y0160028D01*
X0282368Y0160028D01*
X0279299Y0156959D01*
X0279299Y0160028D01*
X0300934Y0154900D02*
X0300934Y0154132D01*
X0301701Y0153365D01*
X0300934Y0152598D01*
X0300934Y0151830D01*
X0301701Y0151063D01*
X0303236Y0151063D01*
X0304003Y0151830D01*
X0305538Y0151063D02*
X0308607Y0151063D01*
X0305538Y0154132D01*
X0305538Y0154900D01*
X0306305Y0155667D01*
X0307840Y0155667D01*
X0308607Y0154900D01*
X0310142Y0154900D02*
X0310909Y0155667D01*
X0312444Y0155667D01*
X0313211Y0154900D01*
X0313211Y0151830D01*
X0312444Y0151063D01*
X0310909Y0151063D01*
X0310142Y0151830D01*
X0314746Y0151063D02*
X0316280Y0151063D01*
X0315513Y0151063D02*
X0315513Y0155667D01*
X0316280Y0155667D02*
X0314746Y0155667D01*
X0320299Y0154657D02*
X0321067Y0155424D01*
X0324136Y0155424D01*
X0324903Y0154657D01*
X0324903Y0153122D01*
X0324136Y0152355D01*
X0323368Y0152355D01*
X0322601Y0153122D01*
X0322601Y0155424D01*
X0322601Y0156959D02*
X0322601Y0160028D01*
X0320299Y0159261D02*
X0324903Y0159261D01*
X0322601Y0156959D01*
X0320299Y0154657D02*
X0320299Y0153122D01*
X0321067Y0152355D01*
X0320299Y0150820D02*
X0321834Y0149286D01*
X0321834Y0150053D02*
X0321834Y0147751D01*
X0320299Y0147751D02*
X0324903Y0147751D01*
X0324903Y0150053D01*
X0324136Y0150820D01*
X0322601Y0150820D01*
X0321834Y0150053D01*
X0304003Y0154900D02*
X0303236Y0155667D01*
X0301701Y0155667D01*
X0300934Y0154900D01*
X0301701Y0153365D02*
X0302469Y0153365D01*
X0350299Y0153122D02*
X0350299Y0154657D01*
X0351067Y0155424D01*
X0351834Y0155424D01*
X0352601Y0154657D01*
X0352601Y0152355D01*
X0351067Y0152355D01*
X0350299Y0153122D01*
X0350299Y0150820D02*
X0351834Y0149286D01*
X0351834Y0150053D02*
X0351834Y0147751D01*
X0350299Y0147751D02*
X0354903Y0147751D01*
X0354903Y0150053D01*
X0354136Y0150820D01*
X0352601Y0150820D01*
X0351834Y0150053D01*
X0352601Y0152355D02*
X0354136Y0153890D01*
X0354903Y0155424D01*
X0354136Y0156959D02*
X0353368Y0156959D01*
X0352601Y0157726D01*
X0352601Y0160028D01*
X0351067Y0160028D02*
X0354136Y0160028D01*
X0354903Y0159261D01*
X0354903Y0157726D01*
X0354136Y0156959D01*
X0351067Y0156959D02*
X0350299Y0157726D01*
X0350299Y0159261D01*
X0351067Y0160028D01*
X0371934Y0154900D02*
X0371934Y0154132D01*
X0372701Y0153365D01*
X0374236Y0153365D01*
X0375003Y0154132D01*
X0375003Y0154900D01*
X0374236Y0155667D01*
X0372701Y0155667D01*
X0371934Y0154900D01*
X0372701Y0153365D02*
X0371934Y0152598D01*
X0371934Y0151830D01*
X0372701Y0151063D01*
X0374236Y0151063D01*
X0375003Y0151830D01*
X0375003Y0152598D01*
X0374236Y0153365D01*
X0376538Y0151063D02*
X0379607Y0151063D01*
X0378072Y0151063D02*
X0378072Y0155667D01*
X0379607Y0154132D01*
X0381142Y0154900D02*
X0381909Y0155667D01*
X0383444Y0155667D01*
X0384211Y0154900D01*
X0384211Y0151830D01*
X0383444Y0151063D01*
X0381909Y0151063D01*
X0381142Y0151830D01*
X0385746Y0151063D02*
X0387280Y0151063D01*
X0386513Y0151063D02*
X0386513Y0155667D01*
X0387280Y0155667D02*
X0385746Y0155667D01*
X0391299Y0154657D02*
X0392067Y0155424D01*
X0395136Y0155424D01*
X0395903Y0154657D01*
X0395903Y0153122D01*
X0395136Y0152355D01*
X0394368Y0152355D01*
X0393601Y0153122D01*
X0393601Y0155424D01*
X0394368Y0156959D02*
X0395903Y0158494D01*
X0391299Y0158494D01*
X0391299Y0160028D02*
X0391299Y0156959D01*
X0391299Y0154657D02*
X0391299Y0153122D01*
X0392067Y0152355D01*
X0391299Y0150820D02*
X0392834Y0149286D01*
X0392834Y0150053D02*
X0392834Y0147751D01*
X0391299Y0147751D02*
X0395903Y0147751D01*
X0395903Y0150053D01*
X0395136Y0150820D01*
X0393601Y0150820D01*
X0392834Y0150053D01*
X0421299Y0152355D02*
X0425903Y0152355D01*
X0425903Y0154657D01*
X0425136Y0155424D01*
X0423601Y0155424D01*
X0422834Y0154657D01*
X0422834Y0152355D01*
X0422834Y0153890D02*
X0421299Y0155424D01*
X0421299Y0156959D02*
X0422067Y0156959D01*
X0425136Y0160028D01*
X0425903Y0160028D01*
X0425903Y0156959D01*
X0442934Y0155667D02*
X0446003Y0155667D01*
X0446003Y0153365D01*
X0444469Y0154132D01*
X0443701Y0154132D01*
X0442934Y0153365D01*
X0442934Y0151830D01*
X0443701Y0151063D01*
X0445236Y0151063D01*
X0446003Y0151830D01*
X0447538Y0151830D02*
X0448305Y0151063D01*
X0449840Y0151063D01*
X0450607Y0151830D01*
X0450607Y0154900D01*
X0449840Y0155667D01*
X0448305Y0155667D01*
X0447538Y0154900D01*
X0452142Y0155667D02*
X0453676Y0155667D01*
X0452909Y0155667D02*
X0452909Y0151063D01*
X0453676Y0151063D02*
X0452142Y0151063D01*
X0462299Y0150820D02*
X0463834Y0149286D01*
X0463834Y0150053D02*
X0463834Y0147751D01*
X0462299Y0147751D02*
X0466903Y0147751D01*
X0466903Y0150053D01*
X0466136Y0150820D01*
X0464601Y0150820D01*
X0463834Y0150053D01*
X0464601Y0152355D02*
X0464601Y0155424D01*
X0463067Y0156959D02*
X0462299Y0157726D01*
X0462299Y0159261D01*
X0463067Y0160028D01*
X0463834Y0160028D01*
X0464601Y0159261D01*
X0464601Y0158494D01*
X0464601Y0159261D02*
X0465368Y0160028D01*
X0466136Y0160028D01*
X0466903Y0159261D01*
X0466903Y0157726D01*
X0466136Y0156959D01*
X0466903Y0154657D02*
X0462299Y0154657D01*
X0464601Y0152355D02*
X0466903Y0154657D01*
X0491799Y0153890D02*
X0496403Y0153890D01*
X0494868Y0152355D01*
X0494101Y0150820D02*
X0493334Y0150053D01*
X0493334Y0147751D01*
X0491799Y0147751D02*
X0496403Y0147751D01*
X0496403Y0150053D01*
X0495636Y0150820D01*
X0494101Y0150820D01*
X0493334Y0149286D02*
X0491799Y0150820D01*
X0491799Y0152355D02*
X0491799Y0155424D01*
X0492567Y0156959D02*
X0491799Y0157726D01*
X0491799Y0159261D01*
X0492567Y0160028D01*
X0495636Y0160028D01*
X0492567Y0156959D01*
X0495636Y0156959D01*
X0496403Y0157726D01*
X0496403Y0159261D01*
X0495636Y0160028D01*
X0513434Y0154900D02*
X0514201Y0155667D01*
X0515736Y0155667D01*
X0516503Y0154900D01*
X0516503Y0154132D01*
X0515736Y0153365D01*
X0513434Y0153365D01*
X0513434Y0151830D02*
X0513434Y0154900D01*
X0513434Y0151830D02*
X0514201Y0151063D01*
X0515736Y0151063D01*
X0516503Y0151830D01*
X0518038Y0151830D02*
X0518805Y0151063D01*
X0520340Y0151063D01*
X0521107Y0151830D01*
X0521107Y0154900D01*
X0520340Y0155667D01*
X0518805Y0155667D01*
X0518038Y0154900D01*
X0522642Y0155667D02*
X0524176Y0155667D01*
X0523409Y0155667D02*
X0523409Y0151063D01*
X0524176Y0151063D02*
X0522642Y0151063D01*
X0532799Y0150820D02*
X0534334Y0149286D01*
X0534334Y0150053D02*
X0534334Y0147751D01*
X0532799Y0147751D02*
X0537403Y0147751D01*
X0537403Y0150053D01*
X0536636Y0150820D01*
X0535101Y0150820D01*
X0534334Y0150053D01*
X0533567Y0152355D02*
X0532799Y0153122D01*
X0532799Y0154657D01*
X0533567Y0155424D01*
X0534334Y0155424D01*
X0535101Y0154657D01*
X0535101Y0153890D01*
X0535101Y0154657D02*
X0535868Y0155424D01*
X0536636Y0155424D01*
X0537403Y0154657D01*
X0537403Y0153122D01*
X0536636Y0152355D01*
X0537403Y0156959D02*
X0537403Y0160028D01*
X0536636Y0160028D01*
X0533567Y0156959D01*
X0532799Y0156959D01*
X0542799Y0186063D02*
X0547403Y0186063D01*
X0547403Y0188365D01*
X0546636Y0189132D01*
X0545101Y0189132D01*
X0544334Y0188365D01*
X0544334Y0186063D01*
X0544334Y0187598D02*
X0542799Y0189132D01*
X0542799Y0190667D02*
X0545868Y0193736D01*
X0546636Y0193736D01*
X0547403Y0192969D01*
X0547403Y0191434D01*
X0546636Y0190667D01*
X0542799Y0190667D02*
X0542799Y0193736D01*
X0543567Y0195271D02*
X0544334Y0195271D01*
X0545101Y0196038D01*
X0545101Y0197573D01*
X0544334Y0198340D01*
X0543567Y0198340D01*
X0542799Y0197573D01*
X0542799Y0196038D01*
X0543567Y0195271D01*
X0545101Y0196038D02*
X0545868Y0195271D01*
X0546636Y0195271D01*
X0547403Y0196038D01*
X0547403Y0197573D01*
X0546636Y0198340D01*
X0545868Y0198340D01*
X0545101Y0197573D01*
X0522399Y0200330D02*
X0521632Y0199563D01*
X0520097Y0199563D01*
X0519330Y0200330D01*
X0517795Y0200330D02*
X0517028Y0199563D01*
X0515493Y0199563D01*
X0514726Y0200330D01*
X0514726Y0201865D01*
X0515493Y0202632D01*
X0516261Y0202632D01*
X0517795Y0201865D01*
X0517795Y0204167D01*
X0514726Y0204167D01*
X0519330Y0203400D02*
X0520097Y0204167D01*
X0521632Y0204167D01*
X0522399Y0203400D01*
X0522399Y0200330D01*
X0505903Y0197305D02*
X0501299Y0197305D01*
X0501299Y0195771D02*
X0501299Y0198840D01*
X0504368Y0195771D02*
X0505903Y0197305D01*
X0505136Y0194236D02*
X0505903Y0193469D01*
X0505903Y0191934D01*
X0505136Y0191167D01*
X0505136Y0189632D02*
X0503601Y0189632D01*
X0502834Y0188865D01*
X0502834Y0186563D01*
X0502834Y0188098D02*
X0501299Y0189632D01*
X0501299Y0191167D02*
X0504368Y0194236D01*
X0505136Y0194236D01*
X0501299Y0194236D02*
X0501299Y0191167D01*
X0505136Y0189632D02*
X0505903Y0188865D01*
X0505903Y0186563D01*
X0501299Y0186563D01*
X0476903Y0186563D02*
X0476903Y0188865D01*
X0476136Y0189632D01*
X0474601Y0189632D01*
X0473834Y0188865D01*
X0473834Y0186563D01*
X0473834Y0188098D02*
X0472299Y0189632D01*
X0473067Y0191167D02*
X0472299Y0191934D01*
X0472299Y0193469D01*
X0473067Y0194236D01*
X0473834Y0194236D01*
X0474601Y0193469D01*
X0474601Y0192702D01*
X0474601Y0193469D02*
X0475368Y0194236D01*
X0476136Y0194236D01*
X0476903Y0193469D01*
X0476903Y0191934D01*
X0476136Y0191167D01*
X0476136Y0195771D02*
X0476903Y0196538D01*
X0476903Y0198073D01*
X0476136Y0198840D01*
X0475368Y0198840D01*
X0474601Y0198073D01*
X0473834Y0198840D01*
X0473067Y0198840D01*
X0472299Y0198073D01*
X0472299Y0196538D01*
X0473067Y0195771D01*
X0474601Y0197305D02*
X0474601Y0198073D01*
X0472299Y0186563D02*
X0476903Y0186563D01*
X0451399Y0200330D02*
X0450632Y0199563D01*
X0449097Y0199563D01*
X0448330Y0200330D01*
X0446795Y0199563D02*
X0443726Y0202632D01*
X0443726Y0203400D01*
X0444493Y0204167D01*
X0446028Y0204167D01*
X0446795Y0203400D01*
X0448330Y0203400D02*
X0449097Y0204167D01*
X0450632Y0204167D01*
X0451399Y0203400D01*
X0451399Y0200330D01*
X0446795Y0199563D02*
X0443726Y0199563D01*
X0442191Y0200330D02*
X0439122Y0203400D01*
X0439122Y0200330D01*
X0439889Y0199563D01*
X0441424Y0199563D01*
X0442191Y0200330D01*
X0442191Y0203400D01*
X0441424Y0204167D01*
X0439889Y0204167D01*
X0439122Y0203400D01*
X0435136Y0198840D02*
X0434368Y0198840D01*
X0433601Y0198073D01*
X0432834Y0198840D01*
X0432067Y0198840D01*
X0431299Y0198073D01*
X0431299Y0196538D01*
X0432067Y0195771D01*
X0431299Y0194236D02*
X0431299Y0191167D01*
X0431299Y0192702D02*
X0435903Y0192702D01*
X0434368Y0191167D01*
X0433601Y0189632D02*
X0432834Y0188865D01*
X0432834Y0186563D01*
X0432834Y0188098D02*
X0431299Y0189632D01*
X0433601Y0189632D02*
X0435136Y0189632D01*
X0435903Y0188865D01*
X0435903Y0186563D01*
X0431299Y0186563D01*
X0435136Y0195771D02*
X0435903Y0196538D01*
X0435903Y0198073D01*
X0435136Y0198840D01*
X0433601Y0198073D02*
X0433601Y0197305D01*
X0405903Y0195771D02*
X0403601Y0195771D01*
X0404368Y0197305D01*
X0404368Y0198073D01*
X0403601Y0198840D01*
X0402067Y0198840D01*
X0401299Y0198073D01*
X0401299Y0196538D01*
X0402067Y0195771D01*
X0402067Y0194236D02*
X0401299Y0193469D01*
X0401299Y0191934D01*
X0402067Y0191167D01*
X0402834Y0191167D01*
X0403601Y0191934D01*
X0403601Y0193469D01*
X0402834Y0194236D01*
X0402067Y0194236D01*
X0403601Y0193469D02*
X0404368Y0194236D01*
X0405136Y0194236D01*
X0405903Y0193469D01*
X0405903Y0191934D01*
X0405136Y0191167D01*
X0404368Y0191167D01*
X0403601Y0191934D01*
X0403601Y0189632D02*
X0402834Y0188865D01*
X0402834Y0186563D01*
X0402834Y0188098D02*
X0401299Y0189632D01*
X0403601Y0189632D02*
X0405136Y0189632D01*
X0405903Y0188865D01*
X0405903Y0186563D01*
X0401299Y0186563D01*
X0405903Y0195771D02*
X0405903Y0198840D01*
X0380399Y0200330D02*
X0379632Y0199563D01*
X0378097Y0199563D01*
X0377330Y0200330D01*
X0375795Y0199563D02*
X0372726Y0199563D01*
X0374261Y0199563D02*
X0374261Y0204167D01*
X0375795Y0202632D01*
X0377330Y0203400D02*
X0378097Y0204167D01*
X0379632Y0204167D01*
X0380399Y0203400D01*
X0380399Y0200330D01*
X0371191Y0200330D02*
X0370424Y0199563D01*
X0368889Y0199563D01*
X0368122Y0200330D01*
X0368122Y0201098D01*
X0368889Y0201865D01*
X0371191Y0201865D01*
X0371191Y0200330D01*
X0371191Y0201865D02*
X0369657Y0203400D01*
X0368122Y0204167D01*
X0364903Y0197573D02*
X0362601Y0195271D01*
X0362601Y0198340D01*
X0360299Y0197573D02*
X0364903Y0197573D01*
X0364903Y0193736D02*
X0364136Y0193736D01*
X0361067Y0190667D01*
X0360299Y0190667D01*
X0360299Y0189132D02*
X0361834Y0187598D01*
X0361834Y0188365D02*
X0361834Y0186063D01*
X0360299Y0186063D02*
X0364903Y0186063D01*
X0364903Y0188365D01*
X0364136Y0189132D01*
X0362601Y0189132D01*
X0361834Y0188365D01*
X0364903Y0190667D02*
X0364903Y0193736D01*
X0334903Y0192969D02*
X0334903Y0191434D01*
X0334136Y0190667D01*
X0333368Y0190667D01*
X0332601Y0191434D01*
X0332601Y0192969D01*
X0331834Y0193736D01*
X0331067Y0193736D01*
X0330299Y0192969D01*
X0330299Y0191434D01*
X0331067Y0190667D01*
X0331834Y0190667D01*
X0332601Y0191434D01*
X0332601Y0192969D02*
X0333368Y0193736D01*
X0334136Y0193736D01*
X0334903Y0192969D01*
X0334136Y0195271D02*
X0334903Y0196038D01*
X0334903Y0197573D01*
X0334136Y0198340D01*
X0333368Y0198340D01*
X0330299Y0195271D01*
X0330299Y0198340D01*
X0330299Y0189132D02*
X0331834Y0187598D01*
X0331834Y0188365D02*
X0331834Y0186063D01*
X0330299Y0186063D02*
X0334903Y0186063D01*
X0334903Y0188365D01*
X0334136Y0189132D01*
X0332601Y0189132D01*
X0331834Y0188365D01*
X0309399Y0200330D02*
X0309399Y0203400D01*
X0308632Y0204167D01*
X0307097Y0204167D01*
X0306330Y0203400D01*
X0304795Y0202632D02*
X0303261Y0204167D01*
X0303261Y0199563D01*
X0304795Y0199563D02*
X0301726Y0199563D01*
X0300191Y0199563D02*
X0297122Y0202632D01*
X0297122Y0203400D01*
X0297889Y0204167D01*
X0299424Y0204167D01*
X0300191Y0203400D01*
X0300191Y0199563D02*
X0297122Y0199563D01*
X0293903Y0198340D02*
X0293136Y0196805D01*
X0291601Y0195271D01*
X0291601Y0197573D01*
X0290834Y0198340D01*
X0290067Y0198340D01*
X0289299Y0197573D01*
X0289299Y0196038D01*
X0290067Y0195271D01*
X0291601Y0195271D01*
X0293136Y0193736D02*
X0290067Y0190667D01*
X0289299Y0190667D01*
X0289299Y0189132D02*
X0290834Y0187598D01*
X0290834Y0188365D02*
X0290834Y0186063D01*
X0289299Y0186063D02*
X0293903Y0186063D01*
X0293903Y0188365D01*
X0293136Y0189132D01*
X0291601Y0189132D01*
X0290834Y0188365D01*
X0293903Y0190667D02*
X0293903Y0193736D01*
X0293136Y0193736D01*
X0306330Y0200330D02*
X0307097Y0199563D01*
X0308632Y0199563D01*
X0309399Y0200330D01*
X0263903Y0197573D02*
X0261601Y0195271D01*
X0261601Y0198340D01*
X0259299Y0197573D02*
X0263903Y0197573D01*
X0263136Y0193736D02*
X0263903Y0192969D01*
X0263903Y0191434D01*
X0263136Y0190667D01*
X0263136Y0189132D02*
X0261601Y0189132D01*
X0260834Y0188365D01*
X0260834Y0186063D01*
X0260834Y0187598D02*
X0259299Y0189132D01*
X0259299Y0190667D02*
X0262368Y0193736D01*
X0263136Y0193736D01*
X0259299Y0193736D02*
X0259299Y0190667D01*
X0263136Y0189132D02*
X0263903Y0188365D01*
X0263903Y0186063D01*
X0259299Y0186063D01*
X0238399Y0200330D02*
X0237632Y0199563D01*
X0236097Y0199563D01*
X0235330Y0200330D01*
X0233795Y0200330D02*
X0233795Y0201098D01*
X0233028Y0201865D01*
X0231493Y0201865D01*
X0230726Y0201098D01*
X0230726Y0200330D01*
X0231493Y0199563D01*
X0233028Y0199563D01*
X0233795Y0200330D01*
X0233028Y0201865D02*
X0233795Y0202632D01*
X0233795Y0203400D01*
X0233028Y0204167D01*
X0231493Y0204167D01*
X0230726Y0203400D01*
X0230726Y0202632D01*
X0231493Y0201865D01*
X0235330Y0203400D02*
X0236097Y0204167D01*
X0237632Y0204167D01*
X0238399Y0203400D01*
X0238399Y0200330D01*
X0222903Y0198073D02*
X0222136Y0198840D01*
X0221368Y0198840D01*
X0220601Y0198073D01*
X0220601Y0196538D01*
X0221368Y0195771D01*
X0222136Y0195771D01*
X0222903Y0196538D01*
X0222903Y0198073D01*
X0220601Y0198073D02*
X0219834Y0198840D01*
X0219067Y0198840D01*
X0218299Y0198073D01*
X0218299Y0196538D01*
X0219067Y0195771D01*
X0219834Y0195771D01*
X0220601Y0196538D01*
X0218299Y0194236D02*
X0218299Y0191167D01*
X0218299Y0192702D02*
X0222903Y0192702D01*
X0221368Y0191167D01*
X0220601Y0189632D02*
X0219834Y0188865D01*
X0219834Y0186563D01*
X0219834Y0188098D02*
X0218299Y0189632D01*
X0220601Y0189632D02*
X0222136Y0189632D01*
X0222903Y0188865D01*
X0222903Y0186563D01*
X0218299Y0186563D01*
X0193403Y0186063D02*
X0193403Y0188365D01*
X0192636Y0189132D01*
X0191101Y0189132D01*
X0190334Y0188365D01*
X0190334Y0186063D01*
X0190334Y0187598D02*
X0188799Y0189132D01*
X0188799Y0190667D02*
X0191868Y0193736D01*
X0192636Y0193736D01*
X0193403Y0192969D01*
X0193403Y0191434D01*
X0192636Y0190667D01*
X0188799Y0190667D02*
X0188799Y0193736D01*
X0188799Y0195271D02*
X0189567Y0195271D01*
X0192636Y0198340D01*
X0193403Y0198340D01*
X0193403Y0195271D01*
X0193403Y0186063D02*
X0188799Y0186063D01*
X0167899Y0200330D02*
X0167132Y0199563D01*
X0165597Y0199563D01*
X0164830Y0200330D01*
X0163295Y0200330D02*
X0162528Y0199563D01*
X0160993Y0199563D01*
X0160226Y0200330D01*
X0160226Y0201098D01*
X0160993Y0201865D01*
X0161761Y0201865D01*
X0160993Y0201865D02*
X0160226Y0202632D01*
X0160226Y0203400D01*
X0160993Y0204167D01*
X0162528Y0204167D01*
X0163295Y0203400D01*
X0164830Y0203400D02*
X0165597Y0204167D01*
X0167132Y0204167D01*
X0167899Y0203400D01*
X0167899Y0200330D01*
X0152403Y0197573D02*
X0152403Y0196038D01*
X0151636Y0195271D01*
X0148567Y0195271D01*
X0151636Y0198340D01*
X0148567Y0198340D01*
X0147799Y0197573D01*
X0147799Y0196038D01*
X0148567Y0195271D01*
X0147799Y0193736D02*
X0147799Y0190667D01*
X0150868Y0193736D01*
X0151636Y0193736D01*
X0152403Y0192969D01*
X0152403Y0191434D01*
X0151636Y0190667D01*
X0151636Y0189132D02*
X0150101Y0189132D01*
X0149334Y0188365D01*
X0149334Y0186063D01*
X0149334Y0187598D02*
X0147799Y0189132D01*
X0147799Y0186063D02*
X0152403Y0186063D01*
X0152403Y0188365D01*
X0151636Y0189132D01*
X0152403Y0197573D02*
X0151636Y0198340D01*
X0178299Y0286751D02*
X0182903Y0286751D01*
X0182903Y0289053D01*
X0182136Y0289820D01*
X0180601Y0289820D01*
X0179834Y0289053D01*
X0179834Y0286751D01*
X0179834Y0288286D02*
X0178299Y0289820D01*
X0179067Y0291355D02*
X0178299Y0292122D01*
X0178299Y0293657D01*
X0179067Y0294424D01*
X0179834Y0294424D01*
X0180601Y0293657D01*
X0180601Y0292890D01*
X0180601Y0293657D02*
X0181368Y0294424D01*
X0182136Y0294424D01*
X0182903Y0293657D01*
X0182903Y0292122D01*
X0182136Y0291355D01*
X0182136Y0295959D02*
X0181368Y0295959D01*
X0180601Y0296726D01*
X0180601Y0299028D01*
X0179067Y0299028D02*
X0182136Y0299028D01*
X0182903Y0298261D01*
X0182903Y0296726D01*
X0182136Y0295959D01*
X0179067Y0295959D02*
X0178299Y0296726D01*
X0178299Y0298261D01*
X0179067Y0299028D01*
X0174280Y0294167D02*
X0172746Y0294167D01*
X0173513Y0294167D02*
X0173513Y0289563D01*
X0174280Y0289563D02*
X0172746Y0289563D01*
X0171211Y0290330D02*
X0170444Y0289563D01*
X0168909Y0289563D01*
X0168142Y0290330D01*
X0166607Y0289563D02*
X0163538Y0289563D01*
X0165072Y0289563D02*
X0165072Y0294167D01*
X0166607Y0292632D01*
X0168142Y0293400D02*
X0168909Y0294167D01*
X0170444Y0294167D01*
X0171211Y0293400D01*
X0171211Y0290330D01*
X0162003Y0289563D02*
X0158934Y0289563D01*
X0160469Y0289563D02*
X0160469Y0294167D01*
X0162003Y0292632D01*
X0140903Y0292251D02*
X0140903Y0294553D01*
X0140136Y0295320D01*
X0138601Y0295320D01*
X0137834Y0294553D01*
X0137834Y0292251D01*
X0136299Y0292251D02*
X0140903Y0292251D01*
X0137834Y0293786D02*
X0136299Y0295320D01*
X0136299Y0296855D02*
X0136299Y0299924D01*
X0136299Y0298390D02*
X0140903Y0298390D01*
X0139368Y0296855D01*
X0140136Y0301459D02*
X0140903Y0302226D01*
X0140903Y0303761D01*
X0140136Y0304528D01*
X0139368Y0304528D01*
X0136299Y0301459D01*
X0136299Y0304528D01*
X0136299Y0321063D02*
X0140903Y0321063D01*
X0140903Y0323365D01*
X0140136Y0324132D01*
X0138601Y0324132D01*
X0137834Y0323365D01*
X0137834Y0321063D01*
X0137834Y0322598D02*
X0136299Y0324132D01*
X0136299Y0325667D02*
X0139368Y0328736D01*
X0140136Y0328736D01*
X0140903Y0327969D01*
X0140903Y0326434D01*
X0140136Y0325667D01*
X0136299Y0325667D02*
X0136299Y0328736D01*
X0137067Y0330271D02*
X0136299Y0331038D01*
X0136299Y0332573D01*
X0137067Y0333340D01*
X0137834Y0333340D01*
X0138601Y0332573D01*
X0138601Y0331805D01*
X0138601Y0332573D02*
X0139368Y0333340D01*
X0140136Y0333340D01*
X0140903Y0332573D01*
X0140903Y0331038D01*
X0140136Y0330271D01*
X0162726Y0330132D02*
X0165795Y0327063D01*
X0162726Y0327063D01*
X0162726Y0330132D02*
X0162726Y0330900D01*
X0163493Y0331667D01*
X0165028Y0331667D01*
X0165795Y0330900D01*
X0167330Y0330900D02*
X0168097Y0331667D01*
X0169632Y0331667D01*
X0170399Y0330900D01*
X0170399Y0327830D01*
X0169632Y0327063D01*
X0168097Y0327063D01*
X0167330Y0327830D01*
X0189299Y0328469D02*
X0189299Y0326934D01*
X0190067Y0326167D01*
X0189299Y0324632D02*
X0190834Y0323098D01*
X0190834Y0323865D02*
X0190834Y0321563D01*
X0189299Y0321563D02*
X0193903Y0321563D01*
X0193903Y0323865D01*
X0193136Y0324632D01*
X0191601Y0324632D01*
X0190834Y0323865D01*
X0193136Y0326167D02*
X0193903Y0326934D01*
X0193903Y0328469D01*
X0193136Y0329236D01*
X0192368Y0329236D01*
X0191601Y0328469D01*
X0190834Y0329236D01*
X0190067Y0329236D01*
X0189299Y0328469D01*
X0189299Y0330771D02*
X0189299Y0333840D01*
X0189299Y0332305D02*
X0193903Y0332305D01*
X0192368Y0330771D01*
X0191601Y0328469D02*
X0191601Y0327702D01*
X0218299Y0328132D02*
X0219834Y0326598D01*
X0219834Y0327365D02*
X0219834Y0325063D01*
X0218299Y0325063D02*
X0222903Y0325063D01*
X0222903Y0327365D01*
X0222136Y0328132D01*
X0220601Y0328132D01*
X0219834Y0327365D01*
X0219834Y0329667D02*
X0220601Y0330434D01*
X0220601Y0331969D01*
X0219834Y0332736D01*
X0219067Y0332736D01*
X0218299Y0331969D01*
X0218299Y0330434D01*
X0219067Y0329667D01*
X0219834Y0329667D01*
X0220601Y0330434D02*
X0221368Y0329667D01*
X0222136Y0329667D01*
X0222903Y0330434D01*
X0222903Y0331969D01*
X0222136Y0332736D01*
X0221368Y0332736D01*
X0220601Y0331969D01*
X0219067Y0334271D02*
X0222136Y0337340D01*
X0219067Y0337340D01*
X0218299Y0336573D01*
X0218299Y0335038D01*
X0219067Y0334271D01*
X0222136Y0334271D01*
X0222903Y0335038D01*
X0222903Y0336573D01*
X0222136Y0337340D01*
X0230726Y0341900D02*
X0233795Y0338830D01*
X0233795Y0338063D01*
X0235330Y0338830D02*
X0236097Y0338063D01*
X0237632Y0338063D01*
X0238399Y0338830D01*
X0238399Y0341900D01*
X0237632Y0342667D01*
X0236097Y0342667D01*
X0235330Y0341900D01*
X0233795Y0342667D02*
X0230726Y0342667D01*
X0230726Y0341900D01*
X0259299Y0334271D02*
X0260067Y0334271D01*
X0263136Y0337340D01*
X0263903Y0337340D01*
X0263903Y0334271D01*
X0263136Y0332736D02*
X0262368Y0332736D01*
X0261601Y0331969D01*
X0261601Y0330434D01*
X0262368Y0329667D01*
X0263136Y0329667D01*
X0263903Y0330434D01*
X0263903Y0331969D01*
X0263136Y0332736D01*
X0261601Y0331969D02*
X0260834Y0332736D01*
X0260067Y0332736D01*
X0259299Y0331969D01*
X0259299Y0330434D01*
X0260067Y0329667D01*
X0260834Y0329667D01*
X0261601Y0330434D01*
X0261601Y0328132D02*
X0260834Y0327365D01*
X0260834Y0325063D01*
X0260834Y0326598D02*
X0259299Y0328132D01*
X0261601Y0328132D02*
X0263136Y0328132D01*
X0263903Y0327365D01*
X0263903Y0325063D01*
X0259299Y0325063D01*
X0289299Y0324563D02*
X0293903Y0324563D01*
X0293903Y0326865D01*
X0293136Y0327632D01*
X0291601Y0327632D01*
X0290834Y0326865D01*
X0290834Y0324563D01*
X0290834Y0326098D02*
X0289299Y0327632D01*
X0290067Y0329167D02*
X0289299Y0329934D01*
X0289299Y0331469D01*
X0290067Y0332236D01*
X0291601Y0332236D01*
X0292368Y0331469D01*
X0292368Y0330702D01*
X0291601Y0329167D01*
X0293903Y0329167D01*
X0293903Y0332236D01*
X0291601Y0333771D02*
X0291601Y0336840D01*
X0289299Y0336073D02*
X0293903Y0336073D01*
X0291601Y0333771D01*
X0296622Y0338063D02*
X0299691Y0338063D01*
X0298157Y0338063D02*
X0298157Y0342667D01*
X0299691Y0341132D01*
X0301226Y0338063D02*
X0304295Y0338063D01*
X0302761Y0338063D02*
X0302761Y0342667D01*
X0304295Y0341132D01*
X0305830Y0341900D02*
X0306597Y0342667D01*
X0308132Y0342667D01*
X0308899Y0341900D01*
X0308899Y0338830D01*
X0308132Y0338063D01*
X0306597Y0338063D01*
X0305830Y0338830D01*
X0330299Y0336573D02*
X0331067Y0337340D01*
X0334136Y0337340D01*
X0334903Y0336573D01*
X0334903Y0335038D01*
X0334136Y0334271D01*
X0333368Y0334271D01*
X0332601Y0335038D01*
X0332601Y0337340D01*
X0330299Y0336573D02*
X0330299Y0335038D01*
X0331067Y0334271D01*
X0331067Y0332736D02*
X0330299Y0331969D01*
X0330299Y0330434D01*
X0331067Y0329667D01*
X0332601Y0329667D02*
X0333368Y0331202D01*
X0333368Y0331969D01*
X0332601Y0332736D01*
X0331067Y0332736D01*
X0332601Y0329667D02*
X0334903Y0329667D01*
X0334903Y0332736D01*
X0334136Y0328132D02*
X0332601Y0328132D01*
X0331834Y0327365D01*
X0331834Y0325063D01*
X0331834Y0326598D02*
X0330299Y0328132D01*
X0330299Y0325063D02*
X0334903Y0325063D01*
X0334903Y0327365D01*
X0334136Y0328132D01*
X0360299Y0328132D02*
X0361834Y0326598D01*
X0361834Y0327365D02*
X0361834Y0325063D01*
X0360299Y0325063D02*
X0364903Y0325063D01*
X0364903Y0327365D01*
X0364136Y0328132D01*
X0362601Y0328132D01*
X0361834Y0327365D01*
X0362601Y0329667D02*
X0363368Y0331202D01*
X0363368Y0331969D01*
X0362601Y0332736D01*
X0361067Y0332736D01*
X0360299Y0331969D01*
X0360299Y0330434D01*
X0361067Y0329667D01*
X0362601Y0329667D02*
X0364903Y0329667D01*
X0364903Y0332736D01*
X0363368Y0334271D02*
X0364903Y0335805D01*
X0360299Y0335805D01*
X0360299Y0334271D02*
X0360299Y0337340D01*
X0368122Y0338830D02*
X0368889Y0338063D01*
X0370424Y0338063D01*
X0371191Y0338830D01*
X0371191Y0340365D02*
X0369657Y0341132D01*
X0368889Y0341132D01*
X0368122Y0340365D01*
X0368122Y0338830D01*
X0371191Y0340365D02*
X0371191Y0342667D01*
X0368122Y0342667D01*
X0374261Y0342667D02*
X0374261Y0338063D01*
X0375795Y0338063D02*
X0372726Y0338063D01*
X0375795Y0341132D02*
X0374261Y0342667D01*
X0377330Y0341900D02*
X0378097Y0342667D01*
X0379632Y0342667D01*
X0380399Y0341900D01*
X0380399Y0338830D01*
X0379632Y0338063D01*
X0378097Y0338063D01*
X0377330Y0338830D01*
X0401299Y0334271D02*
X0402067Y0334271D01*
X0405136Y0337340D01*
X0405903Y0337340D01*
X0405903Y0334271D01*
X0405903Y0332736D02*
X0405903Y0329667D01*
X0403601Y0329667D01*
X0404368Y0331202D01*
X0404368Y0331969D01*
X0403601Y0332736D01*
X0402067Y0332736D01*
X0401299Y0331969D01*
X0401299Y0330434D01*
X0402067Y0329667D01*
X0401299Y0328132D02*
X0402834Y0326598D01*
X0402834Y0327365D02*
X0402834Y0325063D01*
X0401299Y0325063D02*
X0405903Y0325063D01*
X0405903Y0327365D01*
X0405136Y0328132D01*
X0403601Y0328132D01*
X0402834Y0327365D01*
X0431299Y0328132D02*
X0432834Y0326598D01*
X0432834Y0327365D02*
X0432834Y0325063D01*
X0431299Y0325063D02*
X0435903Y0325063D01*
X0435903Y0327365D01*
X0435136Y0328132D01*
X0433601Y0328132D01*
X0432834Y0327365D01*
X0432067Y0329667D02*
X0431299Y0329667D01*
X0432067Y0329667D02*
X0435136Y0332736D01*
X0435903Y0332736D01*
X0435903Y0329667D01*
X0435136Y0334271D02*
X0434368Y0334271D01*
X0433601Y0335038D01*
X0433601Y0336573D01*
X0432834Y0337340D01*
X0432067Y0337340D01*
X0431299Y0336573D01*
X0431299Y0335038D01*
X0432067Y0334271D01*
X0432834Y0334271D01*
X0433601Y0335038D01*
X0433601Y0336573D02*
X0434368Y0337340D01*
X0435136Y0337340D01*
X0435903Y0336573D01*
X0435903Y0335038D01*
X0435136Y0334271D01*
X0439122Y0338830D02*
X0439122Y0341900D01*
X0439889Y0342667D01*
X0441424Y0342667D01*
X0442191Y0341900D01*
X0442191Y0341132D01*
X0441424Y0340365D01*
X0439122Y0340365D01*
X0439122Y0338830D02*
X0439889Y0338063D01*
X0441424Y0338063D01*
X0442191Y0338830D01*
X0443726Y0338063D02*
X0446795Y0338063D01*
X0445261Y0338063D02*
X0445261Y0342667D01*
X0446795Y0341132D01*
X0448330Y0341900D02*
X0449097Y0342667D01*
X0450632Y0342667D01*
X0451399Y0341900D01*
X0451399Y0338830D01*
X0450632Y0338063D01*
X0449097Y0338063D01*
X0448330Y0338830D01*
X0472299Y0336073D02*
X0476903Y0336073D01*
X0474601Y0333771D01*
X0474601Y0336840D01*
X0473834Y0332236D02*
X0473067Y0332236D01*
X0472299Y0331469D01*
X0472299Y0329934D01*
X0473067Y0329167D01*
X0473834Y0329167D01*
X0474601Y0329934D01*
X0474601Y0331469D01*
X0473834Y0332236D01*
X0474601Y0331469D02*
X0475368Y0332236D01*
X0476136Y0332236D01*
X0476903Y0331469D01*
X0476903Y0329934D01*
X0476136Y0329167D01*
X0475368Y0329167D01*
X0474601Y0329934D01*
X0474601Y0327632D02*
X0473834Y0326865D01*
X0473834Y0324563D01*
X0473834Y0326098D02*
X0472299Y0327632D01*
X0474601Y0327632D02*
X0476136Y0327632D01*
X0476903Y0326865D01*
X0476903Y0324563D01*
X0472299Y0324563D01*
X0501799Y0325063D02*
X0506403Y0325063D01*
X0506403Y0327365D01*
X0505636Y0328132D01*
X0504101Y0328132D01*
X0503334Y0327365D01*
X0503334Y0325063D01*
X0503334Y0326598D02*
X0501799Y0328132D01*
X0501799Y0329667D02*
X0501799Y0332736D01*
X0501799Y0331202D02*
X0506403Y0331202D01*
X0504868Y0329667D01*
X0506403Y0334271D02*
X0506403Y0337340D01*
X0505636Y0337340D01*
X0502567Y0334271D01*
X0501799Y0334271D01*
X0509622Y0338830D02*
X0510389Y0338063D01*
X0511924Y0338063D01*
X0512691Y0338830D01*
X0514226Y0338063D02*
X0517295Y0338063D01*
X0514226Y0341132D01*
X0514226Y0341900D01*
X0514993Y0342667D01*
X0516528Y0342667D01*
X0517295Y0341900D01*
X0518830Y0341900D02*
X0519597Y0342667D01*
X0521132Y0342667D01*
X0521899Y0341900D01*
X0521899Y0338830D01*
X0521132Y0338063D01*
X0519597Y0338063D01*
X0518830Y0338830D01*
X0512691Y0341900D02*
X0511924Y0342667D01*
X0510389Y0342667D01*
X0509622Y0341900D01*
X0509622Y0341132D01*
X0510389Y0340365D01*
X0509622Y0339598D01*
X0509622Y0338830D01*
X0510389Y0340365D02*
X0511157Y0340365D01*
X0513434Y0364063D02*
X0516503Y0364063D01*
X0513434Y0367132D01*
X0513434Y0367900D01*
X0514201Y0368667D01*
X0515736Y0368667D01*
X0516503Y0367900D01*
X0518038Y0367900D02*
X0518805Y0368667D01*
X0520340Y0368667D01*
X0521107Y0367900D01*
X0522642Y0367900D02*
X0523409Y0368667D01*
X0524944Y0368667D01*
X0525711Y0367900D01*
X0525711Y0364830D01*
X0524944Y0364063D01*
X0523409Y0364063D01*
X0522642Y0364830D01*
X0521107Y0364063D02*
X0518038Y0367132D01*
X0518038Y0367900D01*
X0518038Y0364063D02*
X0521107Y0364063D01*
X0527246Y0364063D02*
X0528780Y0364063D01*
X0528013Y0364063D02*
X0528013Y0368667D01*
X0528780Y0368667D02*
X0527246Y0368667D01*
X0532799Y0367657D02*
X0533567Y0368424D01*
X0536636Y0368424D01*
X0537403Y0367657D01*
X0537403Y0366122D01*
X0536636Y0365355D01*
X0535868Y0365355D01*
X0535101Y0366122D01*
X0535101Y0368424D01*
X0533567Y0369959D02*
X0532799Y0370726D01*
X0532799Y0372261D01*
X0533567Y0373028D01*
X0534334Y0373028D01*
X0535101Y0372261D01*
X0535101Y0371494D01*
X0535101Y0372261D02*
X0535868Y0373028D01*
X0536636Y0373028D01*
X0537403Y0372261D01*
X0537403Y0370726D01*
X0536636Y0369959D01*
X0532799Y0367657D02*
X0532799Y0366122D01*
X0533567Y0365355D01*
X0532799Y0363820D02*
X0534334Y0362286D01*
X0534334Y0363053D02*
X0534334Y0360751D01*
X0532799Y0360751D02*
X0537403Y0360751D01*
X0537403Y0363053D01*
X0536636Y0363820D01*
X0535101Y0363820D01*
X0534334Y0363053D01*
X0542799Y0336573D02*
X0547403Y0336573D01*
X0545101Y0334271D01*
X0545101Y0337340D01*
X0544334Y0332736D02*
X0543567Y0332736D01*
X0542799Y0331969D01*
X0542799Y0330434D01*
X0543567Y0329667D01*
X0542799Y0328132D02*
X0544334Y0326598D01*
X0544334Y0327365D02*
X0544334Y0325063D01*
X0542799Y0325063D02*
X0547403Y0325063D01*
X0547403Y0327365D01*
X0546636Y0328132D01*
X0545101Y0328132D01*
X0544334Y0327365D01*
X0546636Y0329667D02*
X0547403Y0330434D01*
X0547403Y0331969D01*
X0546636Y0332736D01*
X0545868Y0332736D01*
X0545101Y0331969D01*
X0544334Y0332736D01*
X0545101Y0331969D02*
X0545101Y0331202D01*
X0537403Y0298528D02*
X0537403Y0295459D01*
X0535101Y0295459D01*
X0535868Y0296994D01*
X0535868Y0297761D01*
X0535101Y0298528D01*
X0533567Y0298528D01*
X0532799Y0297761D01*
X0532799Y0296226D01*
X0533567Y0295459D01*
X0535101Y0293924D02*
X0535101Y0290855D01*
X0537403Y0293157D01*
X0532799Y0293157D01*
X0532799Y0289320D02*
X0534334Y0287786D01*
X0534334Y0288553D02*
X0534334Y0286251D01*
X0532799Y0286251D02*
X0537403Y0286251D01*
X0537403Y0288553D01*
X0536636Y0289320D01*
X0535101Y0289320D01*
X0534334Y0288553D01*
X0524176Y0289563D02*
X0522642Y0289563D01*
X0523409Y0289563D02*
X0523409Y0294167D01*
X0524176Y0294167D02*
X0522642Y0294167D01*
X0521107Y0293400D02*
X0521107Y0290330D01*
X0520340Y0289563D01*
X0518805Y0289563D01*
X0518038Y0290330D01*
X0516503Y0290330D02*
X0515736Y0289563D01*
X0514201Y0289563D01*
X0513434Y0290330D01*
X0513434Y0291098D01*
X0514201Y0291865D01*
X0514969Y0291865D01*
X0514201Y0291865D02*
X0513434Y0292632D01*
X0513434Y0293400D01*
X0514201Y0294167D01*
X0515736Y0294167D01*
X0516503Y0293400D01*
X0518038Y0293400D02*
X0518805Y0294167D01*
X0520340Y0294167D01*
X0521107Y0293400D01*
X0496403Y0293157D02*
X0496403Y0290855D01*
X0491799Y0290855D01*
X0493334Y0290855D02*
X0493334Y0293157D01*
X0494101Y0293924D01*
X0495636Y0293924D01*
X0496403Y0293157D01*
X0495636Y0295459D02*
X0496403Y0296226D01*
X0496403Y0297761D01*
X0495636Y0298528D01*
X0494868Y0298528D01*
X0491799Y0295459D01*
X0491799Y0298528D01*
X0491799Y0293924D02*
X0493334Y0292390D01*
X0466903Y0293157D02*
X0466903Y0291622D01*
X0466136Y0290855D01*
X0465368Y0290855D01*
X0464601Y0291622D01*
X0464601Y0293924D01*
X0463067Y0293924D02*
X0466136Y0293924D01*
X0466903Y0293157D01*
X0466903Y0295459D02*
X0464601Y0295459D01*
X0465368Y0296994D01*
X0465368Y0297761D01*
X0464601Y0298528D01*
X0463067Y0298528D01*
X0462299Y0297761D01*
X0462299Y0296226D01*
X0463067Y0295459D01*
X0463067Y0293924D02*
X0462299Y0293157D01*
X0462299Y0291622D01*
X0463067Y0290855D01*
X0462299Y0289320D02*
X0463834Y0287786D01*
X0463834Y0288553D02*
X0463834Y0286251D01*
X0462299Y0286251D02*
X0466903Y0286251D01*
X0466903Y0288553D01*
X0466136Y0289320D01*
X0464601Y0289320D01*
X0463834Y0288553D01*
X0458280Y0289563D02*
X0456746Y0289563D01*
X0457513Y0289563D02*
X0457513Y0294167D01*
X0458280Y0294167D02*
X0456746Y0294167D01*
X0455211Y0293400D02*
X0455211Y0290330D01*
X0454444Y0289563D01*
X0452909Y0289563D01*
X0452142Y0290330D01*
X0450607Y0289563D02*
X0447538Y0292632D01*
X0447538Y0293400D01*
X0448305Y0294167D01*
X0449840Y0294167D01*
X0450607Y0293400D01*
X0452142Y0293400D02*
X0452909Y0294167D01*
X0454444Y0294167D01*
X0455211Y0293400D01*
X0450607Y0289563D02*
X0447538Y0289563D01*
X0446003Y0291865D02*
X0442934Y0291865D01*
X0443701Y0294167D02*
X0446003Y0291865D01*
X0443701Y0289563D02*
X0443701Y0294167D01*
X0424903Y0293924D02*
X0424136Y0292390D01*
X0422601Y0290855D01*
X0422601Y0293157D01*
X0421834Y0293924D01*
X0421067Y0293924D01*
X0420299Y0293157D01*
X0420299Y0291622D01*
X0421067Y0290855D01*
X0422601Y0290855D01*
X0422601Y0289320D02*
X0421834Y0288553D01*
X0421834Y0286251D01*
X0420299Y0286251D02*
X0424903Y0286251D01*
X0424903Y0288553D01*
X0424136Y0289320D01*
X0422601Y0289320D01*
X0421834Y0287786D02*
X0420299Y0289320D01*
X0420299Y0295459D02*
X0421067Y0295459D01*
X0424136Y0298528D01*
X0424903Y0298528D01*
X0424903Y0295459D01*
X0395903Y0294424D02*
X0395136Y0292890D01*
X0393601Y0291355D01*
X0393601Y0293657D01*
X0392834Y0294424D01*
X0392067Y0294424D01*
X0391299Y0293657D01*
X0391299Y0292122D01*
X0392067Y0291355D01*
X0393601Y0291355D01*
X0393601Y0289820D02*
X0392834Y0289053D01*
X0392834Y0286751D01*
X0391299Y0286751D02*
X0395903Y0286751D01*
X0395903Y0289053D01*
X0395136Y0289820D01*
X0393601Y0289820D01*
X0392834Y0288286D02*
X0391299Y0289820D01*
X0387280Y0289563D02*
X0385746Y0289563D01*
X0386513Y0289563D02*
X0386513Y0294167D01*
X0387280Y0294167D02*
X0385746Y0294167D01*
X0384211Y0293400D02*
X0384211Y0290330D01*
X0383444Y0289563D01*
X0381909Y0289563D01*
X0381142Y0290330D01*
X0379607Y0289563D02*
X0376538Y0289563D01*
X0378072Y0289563D02*
X0378072Y0294167D01*
X0379607Y0292632D01*
X0381142Y0293400D02*
X0381909Y0294167D01*
X0383444Y0294167D01*
X0384211Y0293400D01*
X0391299Y0295959D02*
X0391299Y0299028D01*
X0391299Y0297494D02*
X0395903Y0297494D01*
X0394368Y0295959D01*
X0375003Y0291865D02*
X0372701Y0291865D01*
X0371934Y0291098D01*
X0371934Y0290330D01*
X0372701Y0289563D01*
X0374236Y0289563D01*
X0375003Y0290330D01*
X0375003Y0291865D01*
X0373469Y0293400D01*
X0371934Y0294167D01*
X0354903Y0293157D02*
X0352601Y0290855D01*
X0352601Y0293924D01*
X0351067Y0295459D02*
X0354136Y0298528D01*
X0354903Y0298528D01*
X0354903Y0295459D01*
X0354903Y0293157D02*
X0350299Y0293157D01*
X0350299Y0295459D02*
X0351067Y0295459D01*
X0350299Y0289320D02*
X0351834Y0287786D01*
X0351834Y0288553D02*
X0351834Y0286251D01*
X0350299Y0286251D02*
X0354903Y0286251D01*
X0354903Y0288553D01*
X0354136Y0289320D01*
X0352601Y0289320D01*
X0351834Y0288553D01*
X0324903Y0288553D02*
X0324903Y0286251D01*
X0320299Y0286251D01*
X0321834Y0286251D02*
X0321834Y0288553D01*
X0322601Y0289320D01*
X0324136Y0289320D01*
X0324903Y0288553D01*
X0321834Y0287786D02*
X0320299Y0289320D01*
X0321067Y0290855D02*
X0320299Y0291622D01*
X0320299Y0293157D01*
X0321067Y0293924D01*
X0321834Y0293924D01*
X0322601Y0293157D01*
X0322601Y0290855D01*
X0321067Y0290855D01*
X0322601Y0290855D02*
X0324136Y0292390D01*
X0324903Y0293924D01*
X0322601Y0295459D02*
X0322601Y0298528D01*
X0320299Y0297761D02*
X0324903Y0297761D01*
X0322601Y0295459D01*
X0316280Y0294167D02*
X0314746Y0294167D01*
X0315513Y0294167D02*
X0315513Y0289563D01*
X0316280Y0289563D02*
X0314746Y0289563D01*
X0313211Y0290330D02*
X0312444Y0289563D01*
X0310909Y0289563D01*
X0310142Y0290330D01*
X0308607Y0289563D02*
X0305538Y0289563D01*
X0307072Y0289563D02*
X0307072Y0294167D01*
X0308607Y0292632D01*
X0310142Y0293400D02*
X0310909Y0294167D01*
X0312444Y0294167D01*
X0313211Y0293400D01*
X0313211Y0290330D01*
X0304003Y0289563D02*
X0300934Y0292632D01*
X0300934Y0293400D01*
X0301701Y0294167D01*
X0303236Y0294167D01*
X0304003Y0293400D01*
X0304003Y0289563D02*
X0300934Y0289563D01*
X0283903Y0288553D02*
X0283903Y0286251D01*
X0279299Y0286251D01*
X0280834Y0286251D02*
X0280834Y0288553D01*
X0281601Y0289320D01*
X0283136Y0289320D01*
X0283903Y0288553D01*
X0280834Y0287786D02*
X0279299Y0289320D01*
X0281601Y0290855D02*
X0281601Y0293924D01*
X0280834Y0295459D02*
X0281601Y0296226D01*
X0281601Y0297761D01*
X0280834Y0298528D01*
X0280067Y0298528D01*
X0279299Y0297761D01*
X0279299Y0296226D01*
X0280067Y0295459D01*
X0280834Y0295459D01*
X0281601Y0296226D02*
X0282368Y0295459D01*
X0283136Y0295459D01*
X0283903Y0296226D01*
X0283903Y0297761D01*
X0283136Y0298528D01*
X0282368Y0298528D01*
X0281601Y0297761D01*
X0279299Y0293157D02*
X0283903Y0293157D01*
X0281601Y0290855D01*
X0253903Y0291622D02*
X0253136Y0290855D01*
X0252368Y0290855D01*
X0251601Y0291622D01*
X0251601Y0293924D01*
X0250067Y0293924D02*
X0253136Y0293924D01*
X0253903Y0293157D01*
X0253903Y0291622D01*
X0253136Y0289320D02*
X0251601Y0289320D01*
X0250834Y0288553D01*
X0250834Y0286251D01*
X0249299Y0286251D02*
X0253903Y0286251D01*
X0253903Y0288553D01*
X0253136Y0289320D01*
X0250834Y0287786D02*
X0249299Y0289320D01*
X0250067Y0290855D02*
X0249299Y0291622D01*
X0249299Y0293157D01*
X0250067Y0293924D01*
X0250067Y0295459D02*
X0249299Y0296226D01*
X0249299Y0297761D01*
X0250067Y0298528D01*
X0250834Y0298528D01*
X0251601Y0297761D01*
X0251601Y0295459D01*
X0250067Y0295459D01*
X0251601Y0295459D02*
X0253136Y0296994D01*
X0253903Y0298528D01*
X0245280Y0294167D02*
X0243746Y0294167D01*
X0244513Y0294167D02*
X0244513Y0289563D01*
X0245280Y0289563D02*
X0243746Y0289563D01*
X0242211Y0290330D02*
X0241444Y0289563D01*
X0239909Y0289563D01*
X0239142Y0290330D01*
X0237607Y0289563D02*
X0234538Y0292632D01*
X0234538Y0293400D01*
X0235305Y0294167D01*
X0236840Y0294167D01*
X0237607Y0293400D01*
X0239142Y0293400D02*
X0239909Y0294167D01*
X0241444Y0294167D01*
X0242211Y0293400D01*
X0242211Y0290330D01*
X0237607Y0289563D02*
X0234538Y0289563D01*
X0233003Y0290330D02*
X0229934Y0293400D01*
X0229934Y0290330D01*
X0230701Y0289563D01*
X0232236Y0289563D01*
X0233003Y0290330D01*
X0233003Y0293400D01*
X0232236Y0294167D01*
X0230701Y0294167D01*
X0229934Y0293400D01*
X0212903Y0293924D02*
X0212903Y0290855D01*
X0212136Y0289320D02*
X0210601Y0289320D01*
X0209834Y0288553D01*
X0209834Y0286251D01*
X0208299Y0286251D02*
X0212903Y0286251D01*
X0212903Y0288553D01*
X0212136Y0289320D01*
X0209834Y0287786D02*
X0208299Y0289320D01*
X0208299Y0290855D02*
X0209067Y0290855D01*
X0212136Y0293924D01*
X0212903Y0293924D01*
X0212136Y0295459D02*
X0212903Y0296226D01*
X0212903Y0297761D01*
X0212136Y0298528D01*
X0209067Y0295459D01*
X0208299Y0296226D01*
X0208299Y0297761D01*
X0209067Y0298528D01*
X0212136Y0298528D01*
X0212136Y0295459D02*
X0209067Y0295459D01*
X0209834Y0361251D02*
X0209834Y0363553D01*
X0210601Y0364320D01*
X0212136Y0364320D01*
X0212903Y0363553D01*
X0212903Y0361251D01*
X0208299Y0361251D01*
X0209834Y0362786D02*
X0208299Y0364320D01*
X0209067Y0365855D02*
X0208299Y0366622D01*
X0208299Y0368157D01*
X0209067Y0368924D01*
X0209834Y0368924D01*
X0210601Y0368157D01*
X0210601Y0365855D01*
X0209067Y0365855D01*
X0210601Y0365855D02*
X0212136Y0367390D01*
X0212903Y0368924D01*
X0210601Y0370459D02*
X0210601Y0372761D01*
X0209834Y0373528D01*
X0209067Y0373528D01*
X0208299Y0372761D01*
X0208299Y0371226D01*
X0209067Y0370459D01*
X0210601Y0370459D01*
X0212136Y0371994D01*
X0212903Y0373528D01*
X0229934Y0368667D02*
X0229934Y0367900D01*
X0233003Y0364830D01*
X0233003Y0364063D01*
X0234538Y0364063D02*
X0237607Y0364063D01*
X0236072Y0364063D02*
X0236072Y0368667D01*
X0237607Y0367132D01*
X0239142Y0367900D02*
X0239909Y0368667D01*
X0241444Y0368667D01*
X0242211Y0367900D01*
X0242211Y0364830D01*
X0241444Y0364063D01*
X0239909Y0364063D01*
X0239142Y0364830D01*
X0243746Y0364063D02*
X0245280Y0364063D01*
X0244513Y0364063D02*
X0244513Y0368667D01*
X0245280Y0368667D02*
X0243746Y0368667D01*
X0249299Y0368157D02*
X0250067Y0368924D01*
X0253136Y0368924D01*
X0253903Y0368157D01*
X0253903Y0366622D01*
X0253136Y0365855D01*
X0252368Y0365855D01*
X0251601Y0366622D01*
X0251601Y0368924D01*
X0250067Y0370459D02*
X0253136Y0373528D01*
X0250067Y0373528D01*
X0249299Y0372761D01*
X0249299Y0371226D01*
X0250067Y0370459D01*
X0253136Y0370459D01*
X0253903Y0371226D01*
X0253903Y0372761D01*
X0253136Y0373528D01*
X0249299Y0368157D02*
X0249299Y0366622D01*
X0250067Y0365855D01*
X0249299Y0364320D02*
X0250834Y0362786D01*
X0250834Y0363553D02*
X0250834Y0361251D01*
X0249299Y0361251D02*
X0253903Y0361251D01*
X0253903Y0363553D01*
X0253136Y0364320D01*
X0251601Y0364320D01*
X0250834Y0363553D01*
X0233003Y0368667D02*
X0229934Y0368667D01*
X0193403Y0368553D02*
X0192636Y0369320D01*
X0191101Y0369320D01*
X0190334Y0368553D01*
X0190334Y0366251D01*
X0188799Y0366251D02*
X0193403Y0366251D01*
X0193403Y0368553D01*
X0192636Y0370855D02*
X0193403Y0371622D01*
X0193403Y0373157D01*
X0192636Y0373924D01*
X0191868Y0373924D01*
X0191101Y0373157D01*
X0190334Y0373924D01*
X0189567Y0373924D01*
X0188799Y0373157D01*
X0188799Y0371622D01*
X0189567Y0370855D01*
X0188799Y0369320D02*
X0190334Y0367786D01*
X0191101Y0372390D02*
X0191101Y0373157D01*
X0190334Y0375459D02*
X0189567Y0375459D01*
X0188799Y0376226D01*
X0188799Y0377761D01*
X0189567Y0378528D01*
X0190334Y0378528D01*
X0191101Y0377761D01*
X0191101Y0376226D01*
X0191868Y0375459D01*
X0192636Y0375459D01*
X0193403Y0376226D01*
X0193403Y0377761D01*
X0192636Y0378528D01*
X0191868Y0378528D01*
X0191101Y0377761D01*
X0191101Y0376226D02*
X0190334Y0375459D01*
X0174280Y0368667D02*
X0172746Y0368667D01*
X0173513Y0368667D02*
X0173513Y0364063D01*
X0174280Y0364063D02*
X0172746Y0364063D01*
X0171211Y0364830D02*
X0170444Y0364063D01*
X0168909Y0364063D01*
X0168142Y0364830D01*
X0166607Y0364063D02*
X0163538Y0364063D01*
X0165072Y0364063D02*
X0165072Y0368667D01*
X0166607Y0367132D01*
X0168142Y0367900D02*
X0168909Y0368667D01*
X0170444Y0368667D01*
X0171211Y0367900D01*
X0171211Y0364830D01*
X0162003Y0364830D02*
X0162003Y0367900D01*
X0161236Y0368667D01*
X0159701Y0368667D01*
X0158934Y0367900D01*
X0162003Y0364830D01*
X0161236Y0364063D01*
X0159701Y0364063D01*
X0158934Y0364830D01*
X0158934Y0367900D01*
X0140903Y0368553D02*
X0140136Y0369320D01*
X0138601Y0369320D01*
X0137834Y0368553D01*
X0137834Y0366251D01*
X0136299Y0366251D02*
X0140903Y0366251D01*
X0140903Y0368553D01*
X0139368Y0370855D02*
X0140903Y0372390D01*
X0136299Y0372390D01*
X0136299Y0373924D02*
X0136299Y0370855D01*
X0136299Y0369320D02*
X0137834Y0367786D01*
X0139368Y0375459D02*
X0140903Y0376994D01*
X0136299Y0376994D01*
X0136299Y0378528D02*
X0136299Y0375459D01*
X0136299Y0395563D02*
X0140903Y0395563D01*
X0140903Y0397865D01*
X0140136Y0398632D01*
X0138601Y0398632D01*
X0137834Y0397865D01*
X0137834Y0395563D01*
X0137834Y0397098D02*
X0136299Y0398632D01*
X0136299Y0400167D02*
X0139368Y0403236D01*
X0140136Y0403236D01*
X0140903Y0402469D01*
X0140903Y0400934D01*
X0140136Y0400167D01*
X0136299Y0400167D02*
X0136299Y0403236D01*
X0136299Y0404771D02*
X0139368Y0407840D01*
X0140136Y0407840D01*
X0140903Y0407073D01*
X0140903Y0405538D01*
X0140136Y0404771D01*
X0136299Y0404771D02*
X0136299Y0407840D01*
X0162726Y0401063D02*
X0165795Y0401063D01*
X0164261Y0401063D02*
X0164261Y0405667D01*
X0165795Y0404132D01*
X0167330Y0404900D02*
X0168097Y0405667D01*
X0169632Y0405667D01*
X0170399Y0404900D01*
X0170399Y0401830D01*
X0169632Y0401063D01*
X0168097Y0401063D01*
X0167330Y0401830D01*
X0188799Y0402469D02*
X0188799Y0400934D01*
X0189567Y0400167D01*
X0188799Y0398632D02*
X0190334Y0397098D01*
X0190334Y0397865D02*
X0190334Y0395563D01*
X0188799Y0395563D02*
X0193403Y0395563D01*
X0193403Y0397865D01*
X0192636Y0398632D01*
X0191101Y0398632D01*
X0190334Y0397865D01*
X0192636Y0400167D02*
X0193403Y0400934D01*
X0193403Y0402469D01*
X0192636Y0403236D01*
X0191868Y0403236D01*
X0191101Y0402469D01*
X0190334Y0403236D01*
X0189567Y0403236D01*
X0188799Y0402469D01*
X0191101Y0402469D02*
X0191101Y0401702D01*
X0189567Y0404771D02*
X0192636Y0404771D01*
X0193403Y0405538D01*
X0193403Y0407073D01*
X0192636Y0407840D01*
X0189567Y0404771D01*
X0188799Y0405538D01*
X0188799Y0407073D01*
X0189567Y0407840D01*
X0192636Y0407840D01*
X0218299Y0408271D02*
X0219067Y0408271D01*
X0222136Y0411340D01*
X0222903Y0411340D01*
X0222903Y0408271D01*
X0222903Y0406736D02*
X0222136Y0406736D01*
X0219067Y0403667D01*
X0218299Y0403667D01*
X0218299Y0402132D02*
X0219834Y0400598D01*
X0219834Y0401365D02*
X0219834Y0399063D01*
X0218299Y0399063D02*
X0222903Y0399063D01*
X0222903Y0401365D01*
X0222136Y0402132D01*
X0220601Y0402132D01*
X0219834Y0401365D01*
X0222903Y0403667D02*
X0222903Y0406736D01*
X0230726Y0413330D02*
X0230726Y0414098D01*
X0231493Y0414865D01*
X0233795Y0414865D01*
X0233795Y0413330D01*
X0233028Y0412563D01*
X0231493Y0412563D01*
X0230726Y0413330D01*
X0233795Y0414865D02*
X0232261Y0416400D01*
X0230726Y0417167D01*
X0235330Y0416400D02*
X0236097Y0417167D01*
X0237632Y0417167D01*
X0238399Y0416400D01*
X0238399Y0413330D01*
X0237632Y0412563D01*
X0236097Y0412563D01*
X0235330Y0413330D01*
X0259299Y0410573D02*
X0259299Y0409038D01*
X0260067Y0408271D01*
X0260067Y0406736D02*
X0259299Y0405969D01*
X0259299Y0404434D01*
X0260067Y0403667D01*
X0260834Y0403667D01*
X0261601Y0404434D01*
X0261601Y0405969D01*
X0260834Y0406736D01*
X0260067Y0406736D01*
X0261601Y0405969D02*
X0262368Y0406736D01*
X0263136Y0406736D01*
X0263903Y0405969D01*
X0263903Y0404434D01*
X0263136Y0403667D01*
X0262368Y0403667D01*
X0261601Y0404434D01*
X0261601Y0402132D02*
X0260834Y0401365D01*
X0260834Y0399063D01*
X0260834Y0400598D02*
X0259299Y0402132D01*
X0261601Y0402132D02*
X0263136Y0402132D01*
X0263903Y0401365D01*
X0263903Y0399063D01*
X0259299Y0399063D01*
X0263136Y0408271D02*
X0263903Y0409038D01*
X0263903Y0410573D01*
X0263136Y0411340D01*
X0262368Y0411340D01*
X0261601Y0410573D01*
X0260834Y0411340D01*
X0260067Y0411340D01*
X0259299Y0410573D01*
X0261601Y0410573D02*
X0261601Y0409805D01*
X0289299Y0409538D02*
X0290067Y0408771D01*
X0289299Y0409538D02*
X0289299Y0411073D01*
X0290067Y0411840D01*
X0291601Y0411840D01*
X0292368Y0411073D01*
X0292368Y0410305D01*
X0291601Y0408771D01*
X0293903Y0408771D01*
X0293903Y0411840D01*
X0297122Y0413330D02*
X0297122Y0416400D01*
X0300191Y0413330D01*
X0299424Y0412563D01*
X0297889Y0412563D01*
X0297122Y0413330D01*
X0300191Y0413330D02*
X0300191Y0416400D01*
X0299424Y0417167D01*
X0297889Y0417167D01*
X0297122Y0416400D01*
X0301726Y0412563D02*
X0304795Y0412563D01*
X0303261Y0412563D02*
X0303261Y0417167D01*
X0304795Y0415632D01*
X0306330Y0416400D02*
X0307097Y0417167D01*
X0308632Y0417167D01*
X0309399Y0416400D01*
X0309399Y0413330D01*
X0308632Y0412563D01*
X0307097Y0412563D01*
X0306330Y0413330D01*
X0293903Y0407236D02*
X0293903Y0404167D01*
X0291601Y0404167D01*
X0292368Y0405702D01*
X0292368Y0406469D01*
X0291601Y0407236D01*
X0290067Y0407236D01*
X0289299Y0406469D01*
X0289299Y0404934D01*
X0290067Y0404167D01*
X0289299Y0402632D02*
X0290834Y0401098D01*
X0290834Y0401865D02*
X0290834Y0399563D01*
X0289299Y0399563D02*
X0293903Y0399563D01*
X0293903Y0401865D01*
X0293136Y0402632D01*
X0291601Y0402632D01*
X0290834Y0401865D01*
X0330299Y0402632D02*
X0331834Y0401098D01*
X0331834Y0401865D02*
X0331834Y0399563D01*
X0330299Y0399563D02*
X0334903Y0399563D01*
X0334903Y0401865D01*
X0334136Y0402632D01*
X0332601Y0402632D01*
X0331834Y0401865D01*
X0332601Y0404167D02*
X0332601Y0406469D01*
X0331834Y0407236D01*
X0331067Y0407236D01*
X0330299Y0406469D01*
X0330299Y0404934D01*
X0331067Y0404167D01*
X0332601Y0404167D01*
X0334136Y0405702D01*
X0334903Y0407236D01*
X0334136Y0408771D02*
X0334903Y0409538D01*
X0334903Y0411073D01*
X0334136Y0411840D01*
X0331067Y0408771D01*
X0330299Y0409538D01*
X0330299Y0411073D01*
X0331067Y0411840D01*
X0334136Y0411840D01*
X0334136Y0408771D02*
X0331067Y0408771D01*
X0360299Y0407236D02*
X0360299Y0404167D01*
X0360299Y0405702D02*
X0364903Y0405702D01*
X0363368Y0404167D01*
X0362601Y0402632D02*
X0361834Y0401865D01*
X0361834Y0399563D01*
X0361834Y0401098D02*
X0360299Y0402632D01*
X0362601Y0402632D02*
X0364136Y0402632D01*
X0364903Y0401865D01*
X0364903Y0399563D01*
X0360299Y0399563D01*
X0362601Y0408771D02*
X0362601Y0411840D01*
X0360299Y0411073D02*
X0364903Y0411073D01*
X0362601Y0408771D01*
X0368889Y0412563D02*
X0368889Y0417167D01*
X0371191Y0414865D01*
X0368122Y0414865D01*
X0372726Y0412563D02*
X0375795Y0412563D01*
X0374261Y0412563D02*
X0374261Y0417167D01*
X0375795Y0415632D01*
X0377330Y0416400D02*
X0378097Y0417167D01*
X0379632Y0417167D01*
X0380399Y0416400D01*
X0380399Y0413330D01*
X0379632Y0412563D01*
X0378097Y0412563D01*
X0377330Y0413330D01*
X0401299Y0411073D02*
X0401299Y0409538D01*
X0402067Y0408771D01*
X0403601Y0409538D02*
X0403601Y0411840D01*
X0402067Y0411840D02*
X0405136Y0411840D01*
X0405903Y0411073D01*
X0405903Y0409538D01*
X0405136Y0408771D01*
X0404368Y0408771D01*
X0403601Y0409538D01*
X0404368Y0407236D02*
X0405136Y0407236D01*
X0405903Y0406469D01*
X0405903Y0404934D01*
X0405136Y0404167D01*
X0405136Y0402632D02*
X0403601Y0402632D01*
X0402834Y0401865D01*
X0402834Y0399563D01*
X0402834Y0401098D02*
X0401299Y0402632D01*
X0401299Y0404167D02*
X0404368Y0407236D01*
X0401299Y0407236D02*
X0401299Y0404167D01*
X0405136Y0402632D02*
X0405903Y0401865D01*
X0405903Y0399563D01*
X0401299Y0399563D01*
X0401299Y0411073D02*
X0402067Y0411840D01*
X0431299Y0411340D02*
X0431299Y0408271D01*
X0434368Y0411340D01*
X0435136Y0411340D01*
X0435903Y0410573D01*
X0435903Y0409038D01*
X0435136Y0408271D01*
X0435903Y0406736D02*
X0435903Y0403667D01*
X0433601Y0403667D01*
X0434368Y0405202D01*
X0434368Y0405969D01*
X0433601Y0406736D01*
X0432067Y0406736D01*
X0431299Y0405969D01*
X0431299Y0404434D01*
X0432067Y0403667D01*
X0431299Y0402132D02*
X0432834Y0400598D01*
X0432834Y0401365D02*
X0432834Y0399063D01*
X0431299Y0399063D02*
X0435903Y0399063D01*
X0435903Y0401365D01*
X0435136Y0402132D01*
X0433601Y0402132D01*
X0432834Y0401365D01*
X0439889Y0412563D02*
X0441424Y0412563D01*
X0442191Y0413330D01*
X0442191Y0414098D01*
X0441424Y0414865D01*
X0439889Y0414865D01*
X0439122Y0414098D01*
X0439122Y0413330D01*
X0439889Y0412563D01*
X0439889Y0414865D02*
X0439122Y0415632D01*
X0439122Y0416400D01*
X0439889Y0417167D01*
X0441424Y0417167D01*
X0442191Y0416400D01*
X0442191Y0415632D01*
X0441424Y0414865D01*
X0443726Y0412563D02*
X0446795Y0412563D01*
X0445261Y0412563D02*
X0445261Y0417167D01*
X0446795Y0415632D01*
X0448330Y0416400D02*
X0449097Y0417167D01*
X0450632Y0417167D01*
X0451399Y0416400D01*
X0451399Y0413330D01*
X0450632Y0412563D01*
X0449097Y0412563D01*
X0448330Y0413330D01*
X0472299Y0411073D02*
X0472299Y0409538D01*
X0473067Y0408771D01*
X0473834Y0408771D01*
X0474601Y0409538D01*
X0474601Y0411073D01*
X0473834Y0411840D01*
X0473067Y0411840D01*
X0472299Y0411073D01*
X0474601Y0411073D02*
X0475368Y0411840D01*
X0476136Y0411840D01*
X0476903Y0411073D01*
X0476903Y0409538D01*
X0476136Y0408771D01*
X0475368Y0408771D01*
X0474601Y0409538D01*
X0474601Y0407236D02*
X0473067Y0407236D01*
X0472299Y0406469D01*
X0472299Y0404934D01*
X0473067Y0404167D01*
X0474601Y0404167D02*
X0475368Y0405702D01*
X0475368Y0406469D01*
X0474601Y0407236D01*
X0476903Y0407236D02*
X0476903Y0404167D01*
X0474601Y0404167D01*
X0474601Y0402632D02*
X0473834Y0401865D01*
X0473834Y0399563D01*
X0473834Y0401098D02*
X0472299Y0402632D01*
X0474601Y0402632D02*
X0476136Y0402632D01*
X0476903Y0401865D01*
X0476903Y0399563D01*
X0472299Y0399563D01*
X0501799Y0399063D02*
X0506403Y0399063D01*
X0506403Y0401365D01*
X0505636Y0402132D01*
X0504101Y0402132D01*
X0503334Y0401365D01*
X0503334Y0399063D01*
X0503334Y0400598D02*
X0501799Y0402132D01*
X0501799Y0403667D02*
X0502567Y0403667D01*
X0505636Y0406736D01*
X0506403Y0406736D01*
X0506403Y0403667D01*
X0505636Y0408271D02*
X0504868Y0408271D01*
X0504101Y0409038D01*
X0504101Y0411340D01*
X0502567Y0411340D02*
X0505636Y0411340D01*
X0506403Y0410573D01*
X0506403Y0409038D01*
X0505636Y0408271D01*
X0502567Y0408271D02*
X0501799Y0409038D01*
X0501799Y0410573D01*
X0502567Y0411340D01*
X0509622Y0412563D02*
X0512691Y0412563D01*
X0509622Y0415632D01*
X0509622Y0416400D01*
X0510389Y0417167D01*
X0511924Y0417167D01*
X0512691Y0416400D01*
X0514226Y0416400D02*
X0514993Y0417167D01*
X0516528Y0417167D01*
X0517295Y0416400D01*
X0518830Y0416400D02*
X0519597Y0417167D01*
X0521132Y0417167D01*
X0521899Y0416400D01*
X0521899Y0413330D01*
X0521132Y0412563D01*
X0519597Y0412563D01*
X0518830Y0413330D01*
X0517295Y0412563D02*
X0514226Y0415632D01*
X0514226Y0416400D01*
X0514226Y0412563D02*
X0517295Y0412563D01*
X0542799Y0411073D02*
X0542799Y0409538D01*
X0543567Y0408771D01*
X0544334Y0408771D01*
X0545101Y0409538D01*
X0545101Y0411073D01*
X0544334Y0411840D01*
X0543567Y0411840D01*
X0542799Y0411073D01*
X0545101Y0411073D02*
X0545868Y0411840D01*
X0546636Y0411840D01*
X0547403Y0411073D01*
X0547403Y0409538D01*
X0546636Y0408771D01*
X0545868Y0408771D01*
X0545101Y0409538D01*
X0544334Y0407236D02*
X0543567Y0407236D01*
X0542799Y0406469D01*
X0542799Y0404934D01*
X0543567Y0404167D01*
X0544334Y0404167D01*
X0545101Y0404934D01*
X0545101Y0406469D01*
X0544334Y0407236D01*
X0545101Y0406469D02*
X0545868Y0407236D01*
X0546636Y0407236D01*
X0547403Y0406469D01*
X0547403Y0404934D01*
X0546636Y0404167D01*
X0545868Y0404167D01*
X0545101Y0404934D01*
X0545101Y0402632D02*
X0544334Y0401865D01*
X0544334Y0399563D01*
X0544334Y0401098D02*
X0542799Y0402632D01*
X0545101Y0402632D02*
X0546636Y0402632D01*
X0547403Y0401865D01*
X0547403Y0399563D01*
X0542799Y0399563D01*
X0496403Y0372261D02*
X0495636Y0373028D01*
X0494868Y0373028D01*
X0494101Y0372261D01*
X0494101Y0370726D01*
X0494868Y0369959D01*
X0495636Y0369959D01*
X0496403Y0370726D01*
X0496403Y0372261D01*
X0494101Y0372261D02*
X0493334Y0373028D01*
X0492567Y0373028D01*
X0491799Y0372261D01*
X0491799Y0370726D01*
X0492567Y0369959D01*
X0493334Y0369959D01*
X0494101Y0370726D01*
X0493334Y0368424D02*
X0494101Y0367657D01*
X0494101Y0365355D01*
X0492567Y0365355D01*
X0491799Y0366122D01*
X0491799Y0367657D01*
X0492567Y0368424D01*
X0493334Y0368424D01*
X0495636Y0366890D02*
X0494101Y0365355D01*
X0494101Y0363820D02*
X0493334Y0363053D01*
X0493334Y0360751D01*
X0491799Y0360751D02*
X0496403Y0360751D01*
X0496403Y0363053D01*
X0495636Y0363820D01*
X0494101Y0363820D01*
X0493334Y0362286D02*
X0491799Y0363820D01*
X0495636Y0366890D02*
X0496403Y0368424D01*
X0466903Y0368424D02*
X0466136Y0366890D01*
X0464601Y0365355D01*
X0464601Y0367657D01*
X0463834Y0368424D01*
X0463067Y0368424D01*
X0462299Y0367657D01*
X0462299Y0366122D01*
X0463067Y0365355D01*
X0464601Y0365355D01*
X0464601Y0363820D02*
X0463834Y0363053D01*
X0463834Y0360751D01*
X0462299Y0360751D02*
X0466903Y0360751D01*
X0466903Y0363053D01*
X0466136Y0363820D01*
X0464601Y0363820D01*
X0463834Y0362286D02*
X0462299Y0363820D01*
X0458280Y0364063D02*
X0456746Y0364063D01*
X0457513Y0364063D02*
X0457513Y0368667D01*
X0458280Y0368667D02*
X0456746Y0368667D01*
X0455211Y0367900D02*
X0455211Y0364830D01*
X0454444Y0364063D01*
X0452909Y0364063D01*
X0452142Y0364830D01*
X0450607Y0364063D02*
X0447538Y0364063D01*
X0449072Y0364063D02*
X0449072Y0368667D01*
X0450607Y0367132D01*
X0452142Y0367900D02*
X0452909Y0368667D01*
X0454444Y0368667D01*
X0455211Y0367900D01*
X0462299Y0369959D02*
X0465368Y0373028D01*
X0466136Y0373028D01*
X0466903Y0372261D01*
X0466903Y0370726D01*
X0466136Y0369959D01*
X0462299Y0369959D02*
X0462299Y0373028D01*
X0446003Y0366365D02*
X0442934Y0366365D01*
X0443701Y0368667D02*
X0446003Y0366365D01*
X0443701Y0364063D02*
X0443701Y0368667D01*
X0425903Y0367657D02*
X0423601Y0365355D01*
X0423601Y0368424D01*
X0423601Y0369959D02*
X0423601Y0372261D01*
X0422834Y0373028D01*
X0422067Y0373028D01*
X0421299Y0372261D01*
X0421299Y0370726D01*
X0422067Y0369959D01*
X0423601Y0369959D01*
X0425136Y0371494D01*
X0425903Y0373028D01*
X0425903Y0367657D02*
X0421299Y0367657D01*
X0421299Y0363820D02*
X0422834Y0362286D01*
X0422834Y0363053D02*
X0422834Y0360751D01*
X0421299Y0360751D02*
X0425903Y0360751D01*
X0425903Y0363053D01*
X0425136Y0363820D01*
X0423601Y0363820D01*
X0422834Y0363053D01*
X0395903Y0363053D02*
X0395136Y0363820D01*
X0393601Y0363820D01*
X0392834Y0363053D01*
X0392834Y0360751D01*
X0391299Y0360751D02*
X0395903Y0360751D01*
X0395903Y0363053D01*
X0392834Y0362286D02*
X0391299Y0363820D01*
X0393601Y0365355D02*
X0393601Y0368424D01*
X0395136Y0369959D02*
X0395903Y0370726D01*
X0395903Y0372261D01*
X0395136Y0373028D01*
X0394368Y0373028D01*
X0391299Y0369959D01*
X0391299Y0373028D01*
X0391299Y0367657D02*
X0395903Y0367657D01*
X0393601Y0365355D01*
X0382676Y0364063D02*
X0381142Y0364063D01*
X0381909Y0364063D02*
X0381909Y0368667D01*
X0382676Y0368667D02*
X0381142Y0368667D01*
X0379607Y0367900D02*
X0379607Y0364830D01*
X0378840Y0364063D01*
X0377305Y0364063D01*
X0376538Y0364830D01*
X0375003Y0364830D02*
X0374236Y0364063D01*
X0372701Y0364063D01*
X0371934Y0364830D01*
X0371934Y0365598D01*
X0372701Y0366365D01*
X0375003Y0366365D01*
X0375003Y0364830D01*
X0375003Y0366365D02*
X0373469Y0367900D01*
X0371934Y0368667D01*
X0376538Y0367900D02*
X0377305Y0368667D01*
X0378840Y0368667D01*
X0379607Y0367900D01*
X0354903Y0367657D02*
X0354136Y0368424D01*
X0352601Y0368424D01*
X0351834Y0367657D01*
X0351834Y0365355D01*
X0351834Y0366890D02*
X0350299Y0368424D01*
X0350299Y0369959D02*
X0350299Y0373028D01*
X0350299Y0371494D02*
X0354903Y0371494D01*
X0353368Y0369959D01*
X0354903Y0367657D02*
X0354903Y0365355D01*
X0350299Y0365355D01*
X0324903Y0363053D02*
X0324136Y0363820D01*
X0322601Y0363820D01*
X0321834Y0363053D01*
X0321834Y0360751D01*
X0320299Y0360751D02*
X0324903Y0360751D01*
X0324903Y0363053D01*
X0321834Y0362286D02*
X0320299Y0363820D01*
X0321067Y0365355D02*
X0320299Y0366122D01*
X0320299Y0367657D01*
X0321067Y0368424D01*
X0321834Y0368424D01*
X0322601Y0367657D01*
X0322601Y0365355D01*
X0321067Y0365355D01*
X0322601Y0365355D02*
X0324136Y0366890D01*
X0324903Y0368424D01*
X0324903Y0369959D02*
X0322601Y0369959D01*
X0323368Y0371494D01*
X0323368Y0372261D01*
X0322601Y0373028D01*
X0321067Y0373028D01*
X0320299Y0372261D01*
X0320299Y0370726D01*
X0321067Y0369959D01*
X0324903Y0369959D02*
X0324903Y0373028D01*
X0316280Y0368667D02*
X0314746Y0368667D01*
X0315513Y0368667D02*
X0315513Y0364063D01*
X0316280Y0364063D02*
X0314746Y0364063D01*
X0313211Y0364830D02*
X0312444Y0364063D01*
X0310909Y0364063D01*
X0310142Y0364830D01*
X0308607Y0364063D02*
X0305538Y0364063D01*
X0307072Y0364063D02*
X0307072Y0368667D01*
X0308607Y0367132D01*
X0310142Y0367900D02*
X0310909Y0368667D01*
X0312444Y0368667D01*
X0313211Y0367900D01*
X0313211Y0364830D01*
X0304003Y0364830D02*
X0303236Y0364063D01*
X0301701Y0364063D01*
X0300934Y0364830D01*
X0300934Y0365598D01*
X0301701Y0366365D01*
X0302469Y0366365D01*
X0301701Y0366365D02*
X0300934Y0367132D01*
X0300934Y0367900D01*
X0301701Y0368667D01*
X0303236Y0368667D01*
X0304003Y0367900D01*
X0283903Y0367657D02*
X0281601Y0365355D01*
X0281601Y0368424D01*
X0282368Y0369959D02*
X0281601Y0370726D01*
X0281601Y0373028D01*
X0280067Y0373028D02*
X0283136Y0373028D01*
X0283903Y0372261D01*
X0283903Y0370726D01*
X0283136Y0369959D01*
X0282368Y0369959D01*
X0280067Y0369959D02*
X0279299Y0370726D01*
X0279299Y0372261D01*
X0280067Y0373028D01*
X0279299Y0367657D02*
X0283903Y0367657D01*
X0283136Y0363820D02*
X0281601Y0363820D01*
X0280834Y0363053D01*
X0280834Y0360751D01*
X0279299Y0360751D02*
X0283903Y0360751D01*
X0283903Y0363053D01*
X0283136Y0363820D01*
X0280834Y0362286D02*
X0279299Y0363820D01*
X0466903Y0298528D02*
X0466903Y0295459D01*
M02*
