%
M48
M72
T01C0.02400
T02C0.03150
T03C0.05118
T04C0.12598
%
T01
X139037Y96969
X144899Y110063
X153799Y84663
X172631Y83876
X189899Y98863
X207999Y93263
X211512Y96963
X215999Y110563
X191299Y122863
X194799Y130863
X183199Y110063
X231399Y131863
X253799Y110063
X253899Y101363
X244118Y83876
X281899Y96963
X289499Y110563
X261799Y122863
X265299Y130863
X260299Y166863
X256799Y180063
X235399Y173563
X215999Y180563
X215399Y167763
X189399Y167463
X183199Y180063
X165199Y173163
X142199Y168063
X141899Y180063
X159599Y201863
X164699Y202263
X172631Y205125
X207999Y222463
X207999Y227463
X231399Y204963
X235399Y201863
X244118Y204138
X246499Y225963
X245599Y236763
X228599Y269163
X228599Y274163
X228599Y289063
X222599Y288063
X209199Y299763
X190999Y298263
X187899Y317363
X210399Y326363
X233199Y324563
X238599Y315563
X238599Y309563
X257899Y318863
X265299Y337463
X286199Y318663
X297599Y331563
X328399Y318863
X332999Y297763
X351699Y298263
X368199Y293163
X375699Y310563
X379399Y314763
X375199Y322663
X353399Y319663
X385999Y339963
X402399Y318363
X415699Y328063
X422699Y322963
X446199Y320563
X450199Y305563
X454199Y292763
X440199Y293163
X433399Y288063
X437199Y279263
X427299Y262663
X432999Y246963
X454199Y239963
X458099Y236763
X450199Y225763
X454599Y216063
X447999Y210563
X443599Y201863
X436099Y204663
X458099Y202563
X467199Y209063
X488599Y225963
X514599Y209863
X527899Y215263
X529999Y225963
X529099Y236763
X513799Y247763
X518899Y252963
X498199Y288063
X493199Y298263
X474999Y297763
X473899Y318363
X497199Y317163
X516699Y322663
X521399Y315263
X539899Y317863
X545499Y297763
X516299Y294063
X463399Y247463
X407499Y207663
X388699Y201163
X379899Y207363
X372599Y219163
X387999Y225963
X387099Y236763
X373799Y245763
X376899Y252963
X383299Y252963
X324899Y263063
X322199Y252563
X309299Y252563
X293599Y252563
X316599Y236763
X317499Y225963
X304899Y212363
X301299Y201863
X315999Y203363
X334699Y190963
X324799Y180063
X331199Y166863
X352399Y160863
X353699Y169063
X353399Y180063
X352399Y192863
X380999Y165663
X395799Y180563
X401999Y166963
X422899Y172063
X428399Y179563
X451999Y169963
X470399Y168863
X471199Y180063
X496999Y179763
X495799Y166963
X539799Y180063
X543799Y166863
X527899Y131463
X545299Y115763
X539899Y98363
X516899Y91363
X493799Y97263
X478299Y94363
X471899Y98863
X470199Y109063
X449699Y97063
X428699Y110963
X423599Y97263
X401999Y96963
X398299Y110063
X405499Y118163
X360399Y110063
X352299Y97063
X365299Y84663
X388699Y84663
X332799Y122763
X324799Y110063
X325899Y101363
X316499Y84663
X301299Y84663
X283199Y166963
X283499Y180063
X306399Y173563
X439099Y154663
X474799Y135863
X474799Y130863
X474799Y122863
X501999Y110563
X289999Y288063
X281199Y297763
X262999Y296763
X303699Y294363
X228599Y352863
X212199Y358263
X210699Y348163
X190799Y369263
X188399Y391363
X194299Y395863
X203699Y392663
X246199Y365963
X261799Y369463
X281199Y371763
X267599Y391863
X278199Y396663
X289499Y393563
X328899Y389363
X332799Y369563
X352399Y369563
X375199Y395063
X375199Y400063
X403399Y392363
X405999Y401563
X425699Y391663
X451999Y376563
X440999Y362963
X423399Y369463
X403799Y369663
X457499Y406763
X471399Y392863
X490399Y395863
X495199Y390663
X493899Y369763
X474799Y369863
X521399Y393963
X541899Y383363
X545299Y369363
X527699Y362963
X422199Y297763
X419199Y302563
X404499Y298963
X173399Y342463
X162199Y322663
X140999Y318563
X139199Y298763
X162299Y295563
X167999Y295763
X167999Y290763
X151499Y276463
X174599Y236763
X139399Y369963
X139199Y390663
T02
X141531Y381485
X103202Y407515
X189099Y382863
X213599Y383363
X237099Y386863
X260599Y382363
X284099Y381363
X337099Y383363
X327599Y350863
X363599Y347863
X375599Y346863
X401099Y311363
X423599Y309363
X425599Y277363
X407099Y276863
X407599Y256863
X406099Y241363
X411599Y232363
X407099Y218863
X418099Y212363
X433099Y211863
X447599Y187863
X468099Y174863
X500599Y172863
X538599Y171863
X508099Y143363
X509599Y131863
X542599Y140863
X456599Y140863
X439599Y131863
X394099Y138363
X367599Y131363
X378599Y96863
X307099Y96863
X269599Y95363
X234599Y117863
X259599Y141363
X294099Y143363
X296599Y132363
X286099Y173363
X305599Y188863
X326099Y172863
X357599Y174863
X376599Y187363
X398599Y173863
X430099Y168363
X481599Y213363
X479599Y236863
X476099Y252863
X488099Y271863
X495599Y309863
X472099Y310863
X468599Y350363
X446099Y352363
X429599Y350863
X427099Y382363
X403099Y384363
X474099Y382863
X491599Y377363
X541599Y309863
X545599Y282863
X545099Y252363
X576699Y217226
X551599Y206363
X520099Y203863
X355599Y211363
X291599Y212863
X261099Y251863
X254599Y283863
X282599Y309863
X259599Y310863
X212599Y309863
X199099Y277863
X195599Y256863
X143599Y280863
X140599Y308863
X145099Y349363
X186099Y350863
X203099Y403863
X330599Y310863
X328599Y278363
X227099Y200863
X216599Y174363
X202099Y171863
X184599Y172363
X156099Y196863
X144099Y174363
X155099Y145863
X150599Y134363
X188099Y139363
X202099Y135863
X221599Y141863
X255099Y172363
X196599Y98863
X105614Y86841
X597378Y76363
X601631Y409548
T03
X617016Y362058
X617016Y342058
X616964Y296519
X616964Y276519
X616964Y256519
X616964Y236519
X616964Y216519
X616964Y196519
X616964Y176519
X616964Y156519
X616964Y136519
X616964Y116519
T04
X83225Y65052
X621650Y65052
X621650Y425209
X83225Y425209
M30
