G75*
%MOIN*%
%OFA0B0*%
%FSLAX25Y25*%
%IPPOS*%
%LPD*%
%AMOC8*
5,1,8,0,0,1.08239X$1,22.5*
%
%ADD10C,0.13398*%
%ADD11C,0.08674*%
%ADD12R,0.04737X0.04737*%
%ADD13C,0.08600*%
%ADD14C,0.04800*%
%ADD15OC8,0.05550*%
%ADD16OC8,0.04800*%
D10*
X0083225Y0065052D03*
X0621650Y0065052D03*
X0621650Y0425209D03*
X0083225Y0425209D03*
D11*
X0617016Y0362058D03*
X0617016Y0342058D03*
X0616964Y0296519D03*
X0616964Y0276519D03*
X0616964Y0256519D03*
X0616964Y0236519D03*
X0616964Y0216519D03*
X0616964Y0196519D03*
X0616964Y0176519D03*
X0616964Y0156519D03*
X0616964Y0136519D03*
X0616964Y0116519D03*
D12*
X0539839Y0115406D03*
X0533934Y0115406D03*
X0533934Y0126036D03*
X0539839Y0126036D03*
X0504406Y0126036D03*
X0498501Y0126036D03*
X0498501Y0115406D03*
X0504406Y0115406D03*
X0468973Y0115406D03*
X0463068Y0115406D03*
X0463068Y0126036D03*
X0468973Y0126036D03*
X0433540Y0126036D03*
X0427635Y0126036D03*
X0427635Y0115406D03*
X0433540Y0115406D03*
X0398107Y0115406D03*
X0392202Y0115406D03*
X0392202Y0126036D03*
X0398107Y0126036D03*
X0362674Y0126036D03*
X0356769Y0126036D03*
X0356769Y0115406D03*
X0362674Y0115406D03*
X0327241Y0115406D03*
X0321335Y0115406D03*
X0321335Y0126036D03*
X0327241Y0126036D03*
X0291808Y0126036D03*
X0285902Y0126036D03*
X0285902Y0115406D03*
X0291808Y0115406D03*
X0256375Y0115406D03*
X0250469Y0115406D03*
X0250469Y0126036D03*
X0256375Y0126036D03*
X0220942Y0126036D03*
X0215036Y0126036D03*
X0215036Y0115406D03*
X0220942Y0115406D03*
X0185509Y0115406D03*
X0179603Y0115406D03*
X0179603Y0126036D03*
X0185509Y0126036D03*
X0150076Y0126036D03*
X0144170Y0126036D03*
X0144170Y0115406D03*
X0150076Y0115406D03*
X0150076Y0150839D03*
X0144170Y0150839D03*
X0144170Y0161469D03*
X0150076Y0161469D03*
X0179603Y0161469D03*
X0185509Y0161469D03*
X0185509Y0150839D03*
X0179603Y0150839D03*
X0215036Y0150839D03*
X0220942Y0150839D03*
X0220942Y0161469D03*
X0215036Y0161469D03*
X0215036Y0186272D03*
X0220942Y0186272D03*
X0220942Y0196902D03*
X0215036Y0196902D03*
X0185509Y0196902D03*
X0179603Y0196902D03*
X0179603Y0186272D03*
X0185509Y0186272D03*
X0150076Y0186272D03*
X0144170Y0186272D03*
X0144170Y0196902D03*
X0150076Y0196902D03*
X0150076Y0221706D03*
X0144170Y0221706D03*
X0144170Y0232335D03*
X0150076Y0232335D03*
X0179603Y0232335D03*
X0185509Y0232335D03*
X0185509Y0221706D03*
X0179603Y0221706D03*
X0215036Y0221706D03*
X0220942Y0221706D03*
X0220942Y0232335D03*
X0215036Y0232335D03*
X0250469Y0232335D03*
X0256375Y0232335D03*
X0256375Y0221706D03*
X0250469Y0221706D03*
X0250469Y0196902D03*
X0256375Y0196902D03*
X0256375Y0186272D03*
X0250469Y0186272D03*
X0250469Y0161469D03*
X0256375Y0161469D03*
X0256375Y0150839D03*
X0250469Y0150839D03*
X0285902Y0150839D03*
X0291808Y0150839D03*
X0291808Y0161469D03*
X0285902Y0161469D03*
X0285902Y0186272D03*
X0291808Y0186272D03*
X0291808Y0196902D03*
X0285902Y0196902D03*
X0285902Y0221706D03*
X0291808Y0221706D03*
X0291808Y0232335D03*
X0285902Y0232335D03*
X0321335Y0232335D03*
X0327241Y0232335D03*
X0327241Y0221706D03*
X0321335Y0221706D03*
X0321335Y0196902D03*
X0327241Y0196902D03*
X0327241Y0186272D03*
X0321335Y0186272D03*
X0321335Y0161469D03*
X0327241Y0161469D03*
X0327241Y0150839D03*
X0321335Y0150839D03*
X0356769Y0150839D03*
X0362674Y0150839D03*
X0362674Y0161469D03*
X0356769Y0161469D03*
X0356769Y0186272D03*
X0362674Y0186272D03*
X0362674Y0196902D03*
X0356769Y0196902D03*
X0356769Y0221706D03*
X0362674Y0221706D03*
X0362674Y0232335D03*
X0356769Y0232335D03*
X0392202Y0232335D03*
X0398107Y0232335D03*
X0398107Y0221706D03*
X0392202Y0221706D03*
X0392202Y0196902D03*
X0398107Y0196902D03*
X0398107Y0186272D03*
X0392202Y0186272D03*
X0392202Y0161469D03*
X0398107Y0161469D03*
X0398107Y0150839D03*
X0392202Y0150839D03*
X0427635Y0150839D03*
X0433540Y0150839D03*
X0433540Y0161469D03*
X0427635Y0161469D03*
X0427635Y0186272D03*
X0433540Y0186272D03*
X0433540Y0196902D03*
X0427635Y0196902D03*
X0427635Y0221706D03*
X0433540Y0221706D03*
X0433540Y0232335D03*
X0427635Y0232335D03*
X0463068Y0232335D03*
X0468973Y0232335D03*
X0468973Y0221706D03*
X0463068Y0221706D03*
X0463068Y0196902D03*
X0468973Y0196902D03*
X0468973Y0186272D03*
X0463068Y0186272D03*
X0463068Y0161469D03*
X0468973Y0161469D03*
X0468973Y0150839D03*
X0463068Y0150839D03*
X0498501Y0150839D03*
X0504406Y0150839D03*
X0504406Y0161469D03*
X0498501Y0161469D03*
X0498501Y0186272D03*
X0504406Y0186272D03*
X0504406Y0196902D03*
X0498501Y0196902D03*
X0498501Y0221706D03*
X0504406Y0221706D03*
X0504406Y0232335D03*
X0498501Y0232335D03*
X0533934Y0232335D03*
X0539839Y0232335D03*
X0539839Y0221706D03*
X0533934Y0221706D03*
X0533934Y0196902D03*
X0539839Y0196902D03*
X0539839Y0186272D03*
X0533934Y0186272D03*
X0533934Y0161469D03*
X0539839Y0161469D03*
X0539839Y0150839D03*
X0533934Y0150839D03*
X0533934Y0257139D03*
X0539839Y0257139D03*
X0539839Y0267769D03*
X0533934Y0267769D03*
X0504406Y0267769D03*
X0498501Y0267769D03*
X0498501Y0257139D03*
X0504406Y0257139D03*
X0468973Y0257139D03*
X0463068Y0257139D03*
X0463068Y0267769D03*
X0468973Y0267769D03*
X0433540Y0267769D03*
X0427635Y0267769D03*
X0427635Y0257139D03*
X0433540Y0257139D03*
X0398107Y0257139D03*
X0392202Y0257139D03*
X0392202Y0267769D03*
X0398107Y0267769D03*
X0362674Y0267769D03*
X0356769Y0267769D03*
X0356769Y0257139D03*
X0362674Y0257139D03*
X0327241Y0257139D03*
X0321335Y0257139D03*
X0321335Y0267769D03*
X0327241Y0267769D03*
X0291808Y0267769D03*
X0285902Y0267769D03*
X0285902Y0257139D03*
X0291808Y0257139D03*
X0256375Y0257139D03*
X0250469Y0257139D03*
X0250469Y0267769D03*
X0256375Y0267769D03*
X0220942Y0267769D03*
X0215036Y0267769D03*
X0215036Y0257139D03*
X0220942Y0257139D03*
X0185509Y0257139D03*
X0179603Y0257139D03*
X0179603Y0267769D03*
X0185509Y0267769D03*
X0150076Y0267769D03*
X0144170Y0267769D03*
X0144170Y0257139D03*
X0150076Y0257139D03*
X0150076Y0292572D03*
X0144170Y0292572D03*
X0144170Y0303202D03*
X0150076Y0303202D03*
X0179603Y0303202D03*
X0185509Y0303202D03*
X0185509Y0292572D03*
X0179603Y0292572D03*
X0215036Y0292572D03*
X0220942Y0292572D03*
X0220942Y0303202D03*
X0215036Y0303202D03*
X0215036Y0328005D03*
X0220942Y0328005D03*
X0220942Y0338635D03*
X0215036Y0338635D03*
X0185509Y0338635D03*
X0179603Y0338635D03*
X0179603Y0328005D03*
X0185509Y0328005D03*
X0150076Y0328005D03*
X0144170Y0328005D03*
X0144170Y0338635D03*
X0150076Y0338635D03*
X0150076Y0363438D03*
X0144170Y0363438D03*
X0144170Y0374068D03*
X0150076Y0374068D03*
X0179603Y0374068D03*
X0185509Y0374068D03*
X0185509Y0363438D03*
X0179603Y0363438D03*
X0215036Y0363438D03*
X0220942Y0363438D03*
X0220942Y0374068D03*
X0215036Y0374068D03*
X0250469Y0374068D03*
X0256375Y0374068D03*
X0256375Y0363438D03*
X0250469Y0363438D03*
X0250469Y0338635D03*
X0256375Y0338635D03*
X0256375Y0328005D03*
X0250469Y0328005D03*
X0250469Y0303202D03*
X0256375Y0303202D03*
X0256375Y0292572D03*
X0250469Y0292572D03*
X0285902Y0292572D03*
X0291808Y0292572D03*
X0291808Y0303202D03*
X0285902Y0303202D03*
X0285902Y0328005D03*
X0291808Y0328005D03*
X0291808Y0338635D03*
X0285902Y0338635D03*
X0285902Y0363438D03*
X0291808Y0363438D03*
X0291808Y0374068D03*
X0285902Y0374068D03*
X0321335Y0374068D03*
X0327241Y0374068D03*
X0327241Y0363438D03*
X0321335Y0363438D03*
X0321335Y0338635D03*
X0327241Y0338635D03*
X0327241Y0328005D03*
X0321335Y0328005D03*
X0321335Y0303202D03*
X0327241Y0303202D03*
X0327241Y0292572D03*
X0321335Y0292572D03*
X0356769Y0292572D03*
X0362674Y0292572D03*
X0362674Y0303202D03*
X0356769Y0303202D03*
X0356769Y0328005D03*
X0362674Y0328005D03*
X0362674Y0338635D03*
X0356769Y0338635D03*
X0356769Y0363438D03*
X0362674Y0363438D03*
X0362674Y0374068D03*
X0356769Y0374068D03*
X0392202Y0374068D03*
X0398107Y0374068D03*
X0398107Y0363438D03*
X0392202Y0363438D03*
X0392202Y0338635D03*
X0398107Y0338635D03*
X0398107Y0328005D03*
X0392202Y0328005D03*
X0392202Y0303202D03*
X0398107Y0303202D03*
X0398107Y0292572D03*
X0392202Y0292572D03*
X0427635Y0292572D03*
X0433540Y0292572D03*
X0433540Y0303202D03*
X0427635Y0303202D03*
X0427635Y0328005D03*
X0433540Y0328005D03*
X0433540Y0338635D03*
X0427635Y0338635D03*
X0427635Y0363438D03*
X0433540Y0363438D03*
X0433540Y0374068D03*
X0427635Y0374068D03*
X0463068Y0374068D03*
X0468973Y0374068D03*
X0468973Y0363438D03*
X0463068Y0363438D03*
X0463068Y0338635D03*
X0468973Y0338635D03*
X0468973Y0328005D03*
X0463068Y0328005D03*
X0463068Y0303202D03*
X0468973Y0303202D03*
X0468973Y0292572D03*
X0463068Y0292572D03*
X0498501Y0292572D03*
X0504406Y0292572D03*
X0504406Y0303202D03*
X0498501Y0303202D03*
X0498501Y0328005D03*
X0504406Y0328005D03*
X0504406Y0338635D03*
X0498501Y0338635D03*
X0498501Y0363438D03*
X0504406Y0363438D03*
X0504406Y0374068D03*
X0498501Y0374068D03*
X0533934Y0374068D03*
X0539839Y0374068D03*
X0539839Y0363438D03*
X0533934Y0363438D03*
X0533934Y0338635D03*
X0539839Y0338635D03*
X0539839Y0328005D03*
X0533934Y0328005D03*
X0533934Y0303202D03*
X0539839Y0303202D03*
X0539839Y0292572D03*
X0533934Y0292572D03*
D13*
X0589130Y0395761D02*
X0589132Y0395849D01*
X0589138Y0395937D01*
X0589148Y0396025D01*
X0589162Y0396113D01*
X0589179Y0396199D01*
X0589201Y0396285D01*
X0589226Y0396369D01*
X0589256Y0396453D01*
X0589288Y0396535D01*
X0589325Y0396615D01*
X0589365Y0396694D01*
X0589409Y0396771D01*
X0589456Y0396846D01*
X0589506Y0396918D01*
X0589560Y0396989D01*
X0589616Y0397056D01*
X0589676Y0397122D01*
X0589738Y0397184D01*
X0589804Y0397244D01*
X0589871Y0397300D01*
X0589942Y0397354D01*
X0590014Y0397404D01*
X0590089Y0397451D01*
X0590166Y0397495D01*
X0590245Y0397535D01*
X0590325Y0397572D01*
X0590407Y0397604D01*
X0590491Y0397634D01*
X0590575Y0397659D01*
X0590661Y0397681D01*
X0590747Y0397698D01*
X0590835Y0397712D01*
X0590923Y0397722D01*
X0591011Y0397728D01*
X0591099Y0397730D01*
X0591187Y0397728D01*
X0591275Y0397722D01*
X0591363Y0397712D01*
X0591451Y0397698D01*
X0591537Y0397681D01*
X0591623Y0397659D01*
X0591707Y0397634D01*
X0591791Y0397604D01*
X0591873Y0397572D01*
X0591953Y0397535D01*
X0592032Y0397495D01*
X0592109Y0397451D01*
X0592184Y0397404D01*
X0592256Y0397354D01*
X0592327Y0397300D01*
X0592394Y0397244D01*
X0592460Y0397184D01*
X0592522Y0397122D01*
X0592582Y0397056D01*
X0592638Y0396989D01*
X0592692Y0396918D01*
X0592742Y0396846D01*
X0592789Y0396771D01*
X0592833Y0396694D01*
X0592873Y0396615D01*
X0592910Y0396535D01*
X0592942Y0396453D01*
X0592972Y0396369D01*
X0592997Y0396285D01*
X0593019Y0396199D01*
X0593036Y0396113D01*
X0593050Y0396025D01*
X0593060Y0395937D01*
X0593066Y0395849D01*
X0593068Y0395761D01*
X0593066Y0395673D01*
X0593060Y0395585D01*
X0593050Y0395497D01*
X0593036Y0395409D01*
X0593019Y0395323D01*
X0592997Y0395237D01*
X0592972Y0395153D01*
X0592942Y0395069D01*
X0592910Y0394987D01*
X0592873Y0394907D01*
X0592833Y0394828D01*
X0592789Y0394751D01*
X0592742Y0394676D01*
X0592692Y0394604D01*
X0592638Y0394533D01*
X0592582Y0394466D01*
X0592522Y0394400D01*
X0592460Y0394338D01*
X0592394Y0394278D01*
X0592327Y0394222D01*
X0592256Y0394168D01*
X0592184Y0394118D01*
X0592109Y0394071D01*
X0592032Y0394027D01*
X0591953Y0393987D01*
X0591873Y0393950D01*
X0591791Y0393918D01*
X0591707Y0393888D01*
X0591623Y0393863D01*
X0591537Y0393841D01*
X0591451Y0393824D01*
X0591363Y0393810D01*
X0591275Y0393800D01*
X0591187Y0393794D01*
X0591099Y0393792D01*
X0591011Y0393794D01*
X0590923Y0393800D01*
X0590835Y0393810D01*
X0590747Y0393824D01*
X0590661Y0393841D01*
X0590575Y0393863D01*
X0590491Y0393888D01*
X0590407Y0393918D01*
X0590325Y0393950D01*
X0590245Y0393987D01*
X0590166Y0394027D01*
X0590089Y0394071D01*
X0590014Y0394118D01*
X0589942Y0394168D01*
X0589871Y0394222D01*
X0589804Y0394278D01*
X0589738Y0394338D01*
X0589676Y0394400D01*
X0589616Y0394466D01*
X0589560Y0394533D01*
X0589506Y0394604D01*
X0589456Y0394676D01*
X0589409Y0394751D01*
X0589365Y0394828D01*
X0589325Y0394907D01*
X0589288Y0394987D01*
X0589256Y0395069D01*
X0589226Y0395153D01*
X0589201Y0395237D01*
X0589179Y0395323D01*
X0589162Y0395409D01*
X0589148Y0395497D01*
X0589138Y0395585D01*
X0589132Y0395673D01*
X0589130Y0395761D01*
X0116689Y0407572D02*
X0116691Y0407660D01*
X0116697Y0407748D01*
X0116707Y0407836D01*
X0116721Y0407924D01*
X0116738Y0408010D01*
X0116760Y0408096D01*
X0116785Y0408180D01*
X0116815Y0408264D01*
X0116847Y0408346D01*
X0116884Y0408426D01*
X0116924Y0408505D01*
X0116968Y0408582D01*
X0117015Y0408657D01*
X0117065Y0408729D01*
X0117119Y0408800D01*
X0117175Y0408867D01*
X0117235Y0408933D01*
X0117297Y0408995D01*
X0117363Y0409055D01*
X0117430Y0409111D01*
X0117501Y0409165D01*
X0117573Y0409215D01*
X0117648Y0409262D01*
X0117725Y0409306D01*
X0117804Y0409346D01*
X0117884Y0409383D01*
X0117966Y0409415D01*
X0118050Y0409445D01*
X0118134Y0409470D01*
X0118220Y0409492D01*
X0118306Y0409509D01*
X0118394Y0409523D01*
X0118482Y0409533D01*
X0118570Y0409539D01*
X0118658Y0409541D01*
X0118746Y0409539D01*
X0118834Y0409533D01*
X0118922Y0409523D01*
X0119010Y0409509D01*
X0119096Y0409492D01*
X0119182Y0409470D01*
X0119266Y0409445D01*
X0119350Y0409415D01*
X0119432Y0409383D01*
X0119512Y0409346D01*
X0119591Y0409306D01*
X0119668Y0409262D01*
X0119743Y0409215D01*
X0119815Y0409165D01*
X0119886Y0409111D01*
X0119953Y0409055D01*
X0120019Y0408995D01*
X0120081Y0408933D01*
X0120141Y0408867D01*
X0120197Y0408800D01*
X0120251Y0408729D01*
X0120301Y0408657D01*
X0120348Y0408582D01*
X0120392Y0408505D01*
X0120432Y0408426D01*
X0120469Y0408346D01*
X0120501Y0408264D01*
X0120531Y0408180D01*
X0120556Y0408096D01*
X0120578Y0408010D01*
X0120595Y0407924D01*
X0120609Y0407836D01*
X0120619Y0407748D01*
X0120625Y0407660D01*
X0120627Y0407572D01*
X0120625Y0407484D01*
X0120619Y0407396D01*
X0120609Y0407308D01*
X0120595Y0407220D01*
X0120578Y0407134D01*
X0120556Y0407048D01*
X0120531Y0406964D01*
X0120501Y0406880D01*
X0120469Y0406798D01*
X0120432Y0406718D01*
X0120392Y0406639D01*
X0120348Y0406562D01*
X0120301Y0406487D01*
X0120251Y0406415D01*
X0120197Y0406344D01*
X0120141Y0406277D01*
X0120081Y0406211D01*
X0120019Y0406149D01*
X0119953Y0406089D01*
X0119886Y0406033D01*
X0119815Y0405979D01*
X0119743Y0405929D01*
X0119668Y0405882D01*
X0119591Y0405838D01*
X0119512Y0405798D01*
X0119432Y0405761D01*
X0119350Y0405729D01*
X0119266Y0405699D01*
X0119182Y0405674D01*
X0119096Y0405652D01*
X0119010Y0405635D01*
X0118922Y0405621D01*
X0118834Y0405611D01*
X0118746Y0405605D01*
X0118658Y0405603D01*
X0118570Y0405605D01*
X0118482Y0405611D01*
X0118394Y0405621D01*
X0118306Y0405635D01*
X0118220Y0405652D01*
X0118134Y0405674D01*
X0118050Y0405699D01*
X0117966Y0405729D01*
X0117884Y0405761D01*
X0117804Y0405798D01*
X0117725Y0405838D01*
X0117648Y0405882D01*
X0117573Y0405929D01*
X0117501Y0405979D01*
X0117430Y0406033D01*
X0117363Y0406089D01*
X0117297Y0406149D01*
X0117235Y0406211D01*
X0117175Y0406277D01*
X0117119Y0406344D01*
X0117065Y0406415D01*
X0117015Y0406487D01*
X0116968Y0406562D01*
X0116924Y0406639D01*
X0116884Y0406718D01*
X0116847Y0406798D01*
X0116815Y0406880D01*
X0116785Y0406964D01*
X0116760Y0407048D01*
X0116738Y0407134D01*
X0116721Y0407220D01*
X0116707Y0407308D01*
X0116697Y0407396D01*
X0116691Y0407484D01*
X0116689Y0407572D01*
X0116689Y0096548D02*
X0116691Y0096636D01*
X0116697Y0096724D01*
X0116707Y0096812D01*
X0116721Y0096900D01*
X0116738Y0096986D01*
X0116760Y0097072D01*
X0116785Y0097156D01*
X0116815Y0097240D01*
X0116847Y0097322D01*
X0116884Y0097402D01*
X0116924Y0097481D01*
X0116968Y0097558D01*
X0117015Y0097633D01*
X0117065Y0097705D01*
X0117119Y0097776D01*
X0117175Y0097843D01*
X0117235Y0097909D01*
X0117297Y0097971D01*
X0117363Y0098031D01*
X0117430Y0098087D01*
X0117501Y0098141D01*
X0117573Y0098191D01*
X0117648Y0098238D01*
X0117725Y0098282D01*
X0117804Y0098322D01*
X0117884Y0098359D01*
X0117966Y0098391D01*
X0118050Y0098421D01*
X0118134Y0098446D01*
X0118220Y0098468D01*
X0118306Y0098485D01*
X0118394Y0098499D01*
X0118482Y0098509D01*
X0118570Y0098515D01*
X0118658Y0098517D01*
X0118746Y0098515D01*
X0118834Y0098509D01*
X0118922Y0098499D01*
X0119010Y0098485D01*
X0119096Y0098468D01*
X0119182Y0098446D01*
X0119266Y0098421D01*
X0119350Y0098391D01*
X0119432Y0098359D01*
X0119512Y0098322D01*
X0119591Y0098282D01*
X0119668Y0098238D01*
X0119743Y0098191D01*
X0119815Y0098141D01*
X0119886Y0098087D01*
X0119953Y0098031D01*
X0120019Y0097971D01*
X0120081Y0097909D01*
X0120141Y0097843D01*
X0120197Y0097776D01*
X0120251Y0097705D01*
X0120301Y0097633D01*
X0120348Y0097558D01*
X0120392Y0097481D01*
X0120432Y0097402D01*
X0120469Y0097322D01*
X0120501Y0097240D01*
X0120531Y0097156D01*
X0120556Y0097072D01*
X0120578Y0096986D01*
X0120595Y0096900D01*
X0120609Y0096812D01*
X0120619Y0096724D01*
X0120625Y0096636D01*
X0120627Y0096548D01*
X0120625Y0096460D01*
X0120619Y0096372D01*
X0120609Y0096284D01*
X0120595Y0096196D01*
X0120578Y0096110D01*
X0120556Y0096024D01*
X0120531Y0095940D01*
X0120501Y0095856D01*
X0120469Y0095774D01*
X0120432Y0095694D01*
X0120392Y0095615D01*
X0120348Y0095538D01*
X0120301Y0095463D01*
X0120251Y0095391D01*
X0120197Y0095320D01*
X0120141Y0095253D01*
X0120081Y0095187D01*
X0120019Y0095125D01*
X0119953Y0095065D01*
X0119886Y0095009D01*
X0119815Y0094955D01*
X0119743Y0094905D01*
X0119668Y0094858D01*
X0119591Y0094814D01*
X0119512Y0094774D01*
X0119432Y0094737D01*
X0119350Y0094705D01*
X0119266Y0094675D01*
X0119182Y0094650D01*
X0119096Y0094628D01*
X0119010Y0094611D01*
X0118922Y0094597D01*
X0118834Y0094587D01*
X0118746Y0094581D01*
X0118658Y0094579D01*
X0118570Y0094581D01*
X0118482Y0094587D01*
X0118394Y0094597D01*
X0118306Y0094611D01*
X0118220Y0094628D01*
X0118134Y0094650D01*
X0118050Y0094675D01*
X0117966Y0094705D01*
X0117884Y0094737D01*
X0117804Y0094774D01*
X0117725Y0094814D01*
X0117648Y0094858D01*
X0117573Y0094905D01*
X0117501Y0094955D01*
X0117430Y0095009D01*
X0117363Y0095065D01*
X0117297Y0095125D01*
X0117235Y0095187D01*
X0117175Y0095253D01*
X0117119Y0095320D01*
X0117065Y0095391D01*
X0117015Y0095463D01*
X0116968Y0095538D01*
X0116924Y0095615D01*
X0116884Y0095694D01*
X0116847Y0095774D01*
X0116815Y0095856D01*
X0116785Y0095940D01*
X0116760Y0096024D01*
X0116738Y0096110D01*
X0116721Y0096196D01*
X0116707Y0096284D01*
X0116697Y0096372D01*
X0116691Y0096460D01*
X0116689Y0096548D01*
D14*
X0118658Y0096548D03*
X0118658Y0407572D03*
X0591099Y0395761D03*
D15*
X0601631Y0409548D03*
X0491599Y0377363D03*
X0474099Y0382863D03*
X0446099Y0352363D03*
X0429599Y0350863D03*
X0468599Y0350363D03*
X0427099Y0382363D03*
X0403099Y0384363D03*
X0363599Y0347863D03*
X0375599Y0346863D03*
X0401099Y0311363D03*
X0423599Y0309363D03*
X0425599Y0277363D03*
X0407099Y0276863D03*
X0407599Y0256863D03*
X0406099Y0241363D03*
X0411599Y0232363D03*
X0407099Y0218863D03*
X0418099Y0212363D03*
X0433099Y0211863D03*
X0447599Y0187863D03*
X0468099Y0174863D03*
X0500599Y0172863D03*
X0538599Y0171863D03*
X0508099Y0143363D03*
X0509599Y0131863D03*
X0542599Y0140863D03*
X0456599Y0140863D03*
X0439599Y0131863D03*
X0394099Y0138363D03*
X0367599Y0131363D03*
X0378599Y0096863D03*
X0307099Y0096863D03*
X0269599Y0095363D03*
X0234599Y0117863D03*
X0259599Y0141363D03*
X0294099Y0143363D03*
X0296599Y0132363D03*
X0286099Y0173363D03*
X0305599Y0188863D03*
X0326099Y0172863D03*
X0357599Y0174863D03*
X0376599Y0187363D03*
X0398599Y0173863D03*
X0430099Y0168363D03*
X0481599Y0213363D03*
X0479599Y0236863D03*
X0476099Y0252863D03*
X0488099Y0271863D03*
X0495599Y0309863D03*
X0472099Y0310863D03*
X0541599Y0309863D03*
X0545599Y0282863D03*
X0545099Y0252363D03*
X0576699Y0217226D03*
X0551599Y0206363D03*
X0520099Y0203863D03*
X0355599Y0211363D03*
X0291599Y0212863D03*
X0261099Y0251863D03*
X0254599Y0283863D03*
X0282599Y0309863D03*
X0259599Y0310863D03*
X0212599Y0309863D03*
X0199099Y0277863D03*
X0195599Y0256863D03*
X0143599Y0280863D03*
X0140599Y0308863D03*
X0145099Y0349363D03*
X0186099Y0350863D03*
X0189099Y0382863D03*
X0213599Y0383363D03*
X0237099Y0386863D03*
X0260599Y0382363D03*
X0284099Y0381363D03*
X0337099Y0383363D03*
X0327599Y0350863D03*
X0330599Y0310863D03*
X0328599Y0278363D03*
X0227099Y0200863D03*
X0216599Y0174363D03*
X0202099Y0171863D03*
X0184599Y0172363D03*
X0156099Y0196863D03*
X0144099Y0174363D03*
X0155099Y0145863D03*
X0150599Y0134363D03*
X0188099Y0139363D03*
X0202099Y0135863D03*
X0221599Y0141863D03*
X0255099Y0172363D03*
X0196599Y0098863D03*
X0105614Y0086841D03*
X0141531Y0381485D03*
X0103202Y0407515D03*
X0203099Y0403863D03*
X0597378Y0076363D03*
D16*
X0539899Y0098363D03*
X0516899Y0091363D03*
X0493799Y0097263D03*
X0478299Y0094363D03*
X0471899Y0098863D03*
X0470199Y0109063D03*
X0449699Y0097063D03*
X0428699Y0110963D03*
X0423599Y0097263D03*
X0401999Y0096963D03*
X0398299Y0110063D03*
X0405499Y0118163D03*
X0360399Y0110063D03*
X0352299Y0097063D03*
X0365299Y0084663D03*
X0388699Y0084663D03*
X0332799Y0122763D03*
X0324799Y0110063D03*
X0325899Y0101363D03*
X0316499Y0084663D03*
X0301299Y0084663D03*
X0281899Y0096963D03*
X0289499Y0110563D03*
X0261799Y0122863D03*
X0265299Y0130863D03*
X0253799Y0110063D03*
X0253899Y0101363D03*
X0244118Y0083876D03*
X0211512Y0096963D03*
X0207999Y0093263D03*
X0189899Y0098863D03*
X0183199Y0110063D03*
X0191299Y0122863D03*
X0194799Y0130863D03*
X0215999Y0110563D03*
X0231399Y0131863D03*
X0215399Y0167763D03*
X0215999Y0180563D03*
X0235399Y0173563D03*
X0256799Y0180063D03*
X0260299Y0166863D03*
X0283199Y0166963D03*
X0283499Y0180063D03*
X0306399Y0173563D03*
X0324799Y0180063D03*
X0334699Y0190963D03*
X0352399Y0192863D03*
X0353399Y0180063D03*
X0353699Y0169063D03*
X0352399Y0160863D03*
X0331199Y0166863D03*
X0380999Y0165663D03*
X0395799Y0180563D03*
X0401999Y0166963D03*
X0422899Y0172063D03*
X0428399Y0179563D03*
X0451999Y0169963D03*
X0470399Y0168863D03*
X0471199Y0180063D03*
X0496999Y0179763D03*
X0495799Y0166963D03*
X0539799Y0180063D03*
X0543799Y0166863D03*
X0527899Y0131463D03*
X0545299Y0115763D03*
X0501999Y0110563D03*
X0474799Y0122863D03*
X0474799Y0130863D03*
X0474799Y0135863D03*
X0439099Y0154663D03*
X0443599Y0201863D03*
X0436099Y0204663D03*
X0447999Y0210563D03*
X0454599Y0216063D03*
X0450199Y0225763D03*
X0458099Y0236763D03*
X0454199Y0239963D03*
X0463399Y0247463D03*
X0432999Y0246963D03*
X0427299Y0262663D03*
X0437199Y0279263D03*
X0433399Y0288063D03*
X0440199Y0293163D03*
X0454199Y0292763D03*
X0450199Y0305563D03*
X0474999Y0297763D03*
X0493199Y0298263D03*
X0498199Y0288063D03*
X0516299Y0294063D03*
X0545499Y0297763D03*
X0539899Y0317863D03*
X0521399Y0315263D03*
X0516699Y0322663D03*
X0497199Y0317163D03*
X0473899Y0318363D03*
X0446199Y0320563D03*
X0422699Y0322963D03*
X0415699Y0328063D03*
X0402399Y0318363D03*
X0419199Y0302563D03*
X0422199Y0297763D03*
X0404499Y0298963D03*
X0379399Y0314763D03*
X0375699Y0310563D03*
X0375199Y0322663D03*
X0353399Y0319663D03*
X0328399Y0318863D03*
X0332999Y0297763D03*
X0351699Y0298263D03*
X0368199Y0293163D03*
X0324899Y0263063D03*
X0322199Y0252563D03*
X0309299Y0252563D03*
X0293599Y0252563D03*
X0316599Y0236763D03*
X0317499Y0225963D03*
X0304899Y0212363D03*
X0301299Y0201863D03*
X0315999Y0203363D03*
X0372599Y0219163D03*
X0387999Y0225963D03*
X0387099Y0236763D03*
X0373799Y0245763D03*
X0376899Y0252963D03*
X0383299Y0252963D03*
X0379899Y0207363D03*
X0388699Y0201163D03*
X0407499Y0207663D03*
X0458099Y0202563D03*
X0467199Y0209063D03*
X0488599Y0225963D03*
X0514599Y0209863D03*
X0527899Y0215263D03*
X0529999Y0225963D03*
X0529099Y0236763D03*
X0513799Y0247763D03*
X0518899Y0252963D03*
X0385999Y0339963D03*
X0403799Y0369663D03*
X0423399Y0369463D03*
X0440999Y0362963D03*
X0451999Y0376563D03*
X0474799Y0369863D03*
X0493899Y0369763D03*
X0495199Y0390663D03*
X0490399Y0395863D03*
X0471399Y0392863D03*
X0457499Y0406763D03*
X0425699Y0391663D03*
X0405999Y0401563D03*
X0403399Y0392363D03*
X0375199Y0395063D03*
X0375199Y0400063D03*
X0352399Y0369563D03*
X0332799Y0369563D03*
X0328899Y0389363D03*
X0289499Y0393563D03*
X0278199Y0396663D03*
X0267599Y0391863D03*
X0281199Y0371763D03*
X0261799Y0369463D03*
X0246199Y0365963D03*
X0228599Y0352863D03*
X0212199Y0358263D03*
X0210699Y0348163D03*
X0190799Y0369263D03*
X0188399Y0391363D03*
X0194299Y0395863D03*
X0203699Y0392663D03*
X0139199Y0390663D03*
X0139399Y0369963D03*
X0173399Y0342463D03*
X0162199Y0322663D03*
X0140999Y0318563D03*
X0139199Y0298763D03*
X0162299Y0295563D03*
X0167999Y0295763D03*
X0167999Y0290763D03*
X0151499Y0276463D03*
X0190999Y0298263D03*
X0209199Y0299763D03*
X0222599Y0288063D03*
X0228599Y0289063D03*
X0228599Y0274163D03*
X0228599Y0269163D03*
X0245599Y0236763D03*
X0246499Y0225963D03*
X0244118Y0204138D03*
X0235399Y0201863D03*
X0231399Y0204963D03*
X0207999Y0222463D03*
X0207999Y0227463D03*
X0174599Y0236763D03*
X0172631Y0205125D03*
X0164699Y0202263D03*
X0159599Y0201863D03*
X0141899Y0180063D03*
X0142199Y0168063D03*
X0165199Y0173163D03*
X0183199Y0180063D03*
X0189399Y0167463D03*
X0144899Y0110063D03*
X0139037Y0096969D03*
X0153799Y0084663D03*
X0172631Y0083876D03*
X0289999Y0288063D03*
X0281199Y0297763D03*
X0262999Y0296763D03*
X0257899Y0318863D03*
X0238599Y0315563D03*
X0238599Y0309563D03*
X0233199Y0324563D03*
X0210399Y0326363D03*
X0187899Y0317363D03*
X0265299Y0337463D03*
X0286199Y0318663D03*
X0297599Y0331563D03*
X0303699Y0294363D03*
X0521399Y0393963D03*
X0541899Y0383363D03*
X0545299Y0369363D03*
X0527699Y0362963D03*
M02*
