%
M48
M72
T01C0.0240
T02C0.0315
T03C0.1260
%
T01
X13904Y9697
X14490Y11006
X15380Y8466
X17263Y8388
X18990Y9886
X20800Y9326
X21151Y9696
X21600Y11056
X19130Y12286
X19480Y13086
X18320Y11006
X23140Y13186
X25380Y11006
X25390Y10136
X24412Y8388
X28190Y9696
X28950Y11056
X26180Y12286
X26530Y13086
X26030Y16686
X25680Y18006
X23540Y17356
X21600Y18056
X21540Y16776
X18940Y16746
X18320Y18006
X16520Y17316
X14220Y16806
X14190Y18006
X15960Y20186
X16470Y20226
X17263Y20513
X20800Y22246
X20800Y22746
X23140Y20496
X23540Y20186
X24412Y20414
X24650Y22596
X24560Y23676
X22860Y26916
X22860Y27416
X22860Y28736
X22260Y28756
X20920Y29976
X19100Y29826
X18790Y31736
X21040Y32636
X23320Y32456
X23860Y31556
X23860Y30956
X25790Y31886
X26530Y33746
X28620Y31866
X29760Y33156
X32840Y31886
X33300Y29776
X35170Y29826
X36820Y29316
X37570Y31056
X37940Y31476
X37520Y32266
X35340Y31966
X38600Y33996
X40240Y31836
X41570Y32806
X42034Y32139
X41920Y30256
X42220Y29776
X44020Y29316
X43340Y28688
X43720Y27926
X45420Y29276
X45020Y30556
X47500Y29776
X49320Y29826
X49880Y28746
X51630Y29406
X54550Y29776
X56748Y30521
X53990Y31786
X52140Y31526
X51670Y32266
X49720Y31716
X47390Y31836
X44620Y32056
X40450Y29896
X42730Y26266
X43300Y24696
X45420Y23996
X45810Y23676
X45020Y22576
X45460Y21606
X44800Y21056
X44360Y20186
X43610Y20466
X45810Y20256
X46720Y20906
X48860Y22596
X51460Y20986
X52790Y21526
X53000Y22596
X52910Y23676
X51380Y24776
X51890Y25296
X55960Y22253
X57141Y22647
X57535Y26584
X57929Y27765
X46340Y24746
X40750Y20766
X38870Y20274
X37990Y20736
X37260Y21916
X38800Y22596
X38710Y23676
X37380Y24576
X37690Y25296
X38330Y25296
X33238Y26306
X32220Y25256
X30930Y25256
X29360Y25256
X31660Y23676
X31750Y22596
X30490Y21236
X30130Y20186
X31600Y20336
X33470Y19096
X32480Y18006
X33120Y16686
X34964Y16362
X35370Y16906
X35340Y18006
X35240Y19286
X38100Y16566
X39580Y18056
X40200Y16696
X42290Y17206
X42840Y17956
X45200Y16996
X47040Y16886
X47120Y18006
X49700Y17976
X49580Y16696
X53980Y18006
X54380Y16686
X52790Y13146
X54530Y11576
X53990Y9836
X51690Y9136
X49380Y9726
X47830Y9436
X47190Y9886
X47020Y10906
X44970Y9706
X42870Y10978
X42360Y9726
X40200Y9696
X39830Y11006
X40550Y11816
X36040Y11006
X35230Y9706
X36530Y8466
X38870Y8466
X33280Y12276
X32480Y11006
X32590Y10136
X31650Y8466
X30130Y8466
X28320Y16696
X28350Y18006
X30640Y17356
X43910Y15466
X47480Y13586
X47480Y13086
X47480Y12286
X50200Y11056
X29060Y28736
X30370Y29436
X28120Y29776
X26300Y29676
X21070Y34816
X21220Y35826
X22860Y35286
X24510Y36606
X26180Y36946
X28081Y37176
X26760Y39186
X27820Y39666
X28950Y39356
X32890Y38936
X33280Y36956
X35240Y36956
X37520Y39506
X37520Y40006
X40340Y39236
X40600Y40156
X42570Y39166
X45200Y37656
X44100Y36296
X42340Y36946
X40380Y36966
X45750Y40598
X47140Y39286
X49040Y39586
X49520Y39066
X49390Y36976
X47480Y36986
X52140Y39396
X54190Y38336
X54530Y36936
X52770Y36296
X20370Y39266
X19430Y39586
X18840Y39136
X19080Y36926
X17340Y34246
X16220Y32266
X14100Y31856
X16682Y30127
X16230Y29556
X16800Y29076
X15150Y27646
X13920Y29876
X17460Y23676
X13940Y36996
X13920Y39066
T02
X14153Y38149
X10320Y40751
X18910Y38286
X21360Y38336
X23710Y38686
X26060Y38236
X28410Y38136
X33710Y38336
X32760Y35086
X36360Y34786
X37560Y34686
X39365Y34854
X42960Y35086
X44610Y35236
X46860Y35036
X49160Y37736
X47410Y38286
X42710Y38236
X40310Y38436
X43010Y31816
X42360Y30936
X40110Y31136
X40710Y27686
X42560Y27736
X40760Y25686
X40610Y24136
X41160Y23236
X40710Y21886
X41810Y21236
X43310Y21186
X44760Y18786
X46810Y17486
X50060Y17286
X53860Y17186
X50810Y14336
X50960Y13186
X54260Y14086
X45660Y14086
X43960Y13186
X39410Y13836
X36760Y13136
X37860Y9686
X30710Y9686
X26960Y9536
X23460Y11786
X25960Y14136
X29410Y14336
X29660Y13236
X28610Y17336
X30560Y18886
X32610Y17286
X35760Y17486
X37660Y18736
X39860Y17386
X43010Y16836
X48160Y21336
X47960Y23686
X47610Y25286
X48810Y27186
X49560Y30986
X47210Y31086
X54160Y30986
X57310Y31380
X60459Y30593
X54560Y28286
X54746Y25512
X55130Y23436
X57670Y21723
X55160Y20636
X52010Y20386
X35560Y21136
X29160Y21286
X26110Y25186
X25460Y28386
X28260Y30986
X25960Y31086
X21260Y30986
X19910Y27786
X19560Y25686
X14360Y28086
X14060Y30886
X17980Y34496
X18807Y35519
X14510Y34936
X20310Y40386
X33060Y31086
X32860Y27836
X22710Y20086
X21660Y17436
X20210Y17186
X18460Y17236
X15610Y19686
X14410Y17436
X15510Y14586
X15060Y13436
X18810Y13936
X20210Y13586
X22160Y14186
X25510Y17236
X19660Y9886
X10561Y8684
X54750Y37697
X57801Y39774
X58588Y42530
X59738Y7636
T03
X8323Y6505
X62165Y6505
X62165Y42521
X8323Y42521
M30
