G75*
%MOIN*%
%OFA0B0*%
%FSLAX24Y24*%
%IPPOS*%
%LPD*%
%AMOC8*
5,1,8,0,0,1.08239X$1,22.5*
%
%ADD10C,0.0100*%
%ADD11C,0.0120*%
%ADD12C,0.0160*%
%ADD13C,0.0060*%
%ADD14C,0.0070*%
%ADD15C,0.0090*%
%ADD16C,0.0000*%
%ADD17C,0.0040*%
%ADD18C,0.0050*%
%ADD19C,0.0080*%
%ADD20C,0.0020*%
%ADD21R,0.0240X0.0140*%
%ADD22C,0.0030*%
%ADD23R,0.0340X0.0300*%
D10*
X001200Y000550D02*
X039412Y000550D01*
X039451Y000552D01*
X039489Y000558D01*
X039526Y000567D01*
X039563Y000580D01*
X039598Y000597D01*
X039631Y000616D01*
X039662Y000639D01*
X039691Y000665D01*
X039717Y000694D01*
X039740Y000725D01*
X039759Y000758D01*
X039776Y000793D01*
X039789Y000830D01*
X039798Y000867D01*
X039804Y000905D01*
X039806Y000944D01*
X039806Y001050D01*
X040806Y002050D01*
X040806Y015550D01*
X039806Y016550D01*
X039806Y020550D01*
X038806Y021550D01*
X001200Y021550D01*
X001161Y021548D01*
X001123Y021542D01*
X001086Y021533D01*
X001049Y021520D01*
X001014Y021503D01*
X000981Y021484D01*
X000950Y021461D01*
X000921Y021435D01*
X000895Y021406D01*
X000872Y021375D01*
X000853Y021342D01*
X000836Y021307D01*
X000823Y021270D01*
X000814Y021233D01*
X000808Y021195D01*
X000806Y021156D01*
X000806Y000944D01*
X000808Y000905D01*
X000814Y000867D01*
X000823Y000830D01*
X000836Y000793D01*
X000853Y000758D01*
X000872Y000725D01*
X000895Y000694D01*
X000921Y000665D01*
X000950Y000639D01*
X000981Y000616D01*
X001014Y000597D01*
X001049Y000580D01*
X001086Y000567D01*
X001123Y000558D01*
X001161Y000552D01*
X001200Y000550D01*
X003601Y001180D02*
X004310Y001180D01*
X003602Y001180D02*
X003561Y001209D01*
X003522Y001241D01*
X003485Y001276D01*
X003452Y001313D01*
X003421Y001353D01*
X003394Y001395D01*
X003369Y001439D01*
X003349Y001485D01*
X003332Y001533D01*
X003318Y001581D01*
X003309Y001631D01*
X003303Y001681D01*
X003301Y001731D01*
X003303Y001781D01*
X003309Y001831D01*
X003318Y001881D01*
X003332Y001929D01*
X003349Y001977D01*
X003369Y002023D01*
X003394Y002067D01*
X003421Y002109D01*
X003452Y002149D01*
X003485Y002186D01*
X003522Y002221D01*
X003561Y002253D01*
X003602Y002282D01*
X003562Y002243D02*
X003562Y002519D01*
X004349Y002519D02*
X004349Y002243D01*
X004822Y002558D02*
X002184Y002558D01*
X002182Y002530D01*
X002177Y002502D01*
X002167Y002475D01*
X002155Y002449D01*
X002139Y002426D01*
X002120Y002405D01*
X002099Y002386D01*
X002075Y002370D01*
X002050Y002358D01*
X002023Y002348D01*
X001995Y002343D01*
X001967Y002341D01*
X001939Y002343D01*
X001911Y002348D01*
X001884Y002358D01*
X001858Y002370D01*
X001835Y002386D01*
X001814Y002405D01*
X001795Y002426D01*
X001779Y002450D01*
X001767Y002475D01*
X001757Y002502D01*
X001752Y002530D01*
X001750Y002558D01*
X001751Y002558D02*
X001121Y002558D01*
X001121Y019487D01*
X004822Y019487D01*
X004822Y002558D01*
X004310Y002282D02*
X004351Y002253D01*
X004390Y002221D01*
X004427Y002186D01*
X004460Y002149D01*
X004491Y002109D01*
X004518Y002067D01*
X004543Y002023D01*
X004563Y001977D01*
X004580Y001929D01*
X004594Y001881D01*
X004603Y001831D01*
X004609Y001781D01*
X004611Y001731D01*
X004609Y001681D01*
X004603Y001631D01*
X004594Y001581D01*
X004580Y001533D01*
X004563Y001485D01*
X004543Y001439D01*
X004518Y001395D01*
X004491Y001353D01*
X004460Y001313D01*
X004427Y001276D01*
X004390Y001241D01*
X004351Y001209D01*
X004310Y001180D01*
X008164Y004733D02*
X008164Y005483D01*
X011164Y005483D01*
X011164Y004733D01*
X008164Y004733D01*
X008164Y005483D02*
X008164Y007233D01*
X011164Y007233D01*
X011164Y005483D01*
X011908Y005483D02*
X021908Y005483D01*
X021908Y004733D01*
X011908Y004733D01*
X011908Y005483D01*
X011908Y007233D01*
X021908Y007233D01*
X021908Y005483D01*
X022793Y004060D02*
X022980Y003874D01*
X022980Y003500D01*
X023214Y003500D02*
X023214Y004060D01*
X023587Y003500D01*
X023587Y004060D01*
X023821Y003874D02*
X024008Y004060D01*
X024195Y003874D01*
X024195Y003500D01*
X024429Y003500D02*
X024803Y003500D01*
X025037Y003593D02*
X025130Y003500D01*
X025317Y003500D01*
X025410Y003593D01*
X025410Y003967D01*
X025317Y004060D01*
X025130Y004060D01*
X025037Y003967D01*
X025037Y003593D01*
X024429Y003500D02*
X024429Y004060D01*
X024195Y003780D02*
X023821Y003780D01*
X023821Y003874D02*
X023821Y003500D01*
X022980Y003780D02*
X022606Y003780D01*
X022606Y003874D02*
X022793Y004060D01*
X022606Y003874D02*
X022606Y003500D01*
X021256Y003750D02*
X020856Y003350D01*
X025645Y003593D02*
X025738Y003500D01*
X025925Y003500D01*
X026018Y003593D01*
X026018Y003780D01*
X025831Y003780D01*
X025645Y003967D02*
X025645Y003593D01*
X025645Y003967D02*
X025738Y004060D01*
X025925Y004060D01*
X026018Y003967D01*
X028075Y004060D02*
X028262Y004060D01*
X028169Y004060D02*
X028169Y003500D01*
X028262Y003500D02*
X028075Y003500D01*
X028481Y003500D02*
X028481Y004060D01*
X028854Y003500D01*
X028854Y004060D01*
X035445Y009850D02*
X035445Y010130D01*
X035539Y010224D01*
X035912Y010224D01*
X036006Y010130D01*
X036006Y009850D01*
X035445Y009850D01*
X035445Y010458D02*
X035445Y010645D01*
X035445Y010551D02*
X036006Y010551D01*
X036006Y010458D02*
X036006Y010645D01*
X035912Y010863D02*
X035539Y010863D01*
X035445Y010956D01*
X035445Y011143D01*
X035539Y011237D01*
X035726Y011237D02*
X035726Y011050D01*
X035726Y011237D02*
X035912Y011237D01*
X036006Y011143D01*
X036006Y010956D01*
X035912Y010863D01*
X036006Y011471D02*
X036006Y011657D01*
X036006Y011564D02*
X035445Y011564D01*
X035445Y011471D02*
X035445Y011657D01*
X035445Y011876D02*
X035445Y012249D01*
X035445Y012063D02*
X036006Y012063D01*
X036006Y012483D02*
X035632Y012483D01*
X035445Y012670D01*
X035632Y012857D01*
X036006Y012857D01*
X036006Y013091D02*
X035445Y013091D01*
X035726Y012857D02*
X035726Y012483D01*
X036006Y013091D02*
X036006Y013465D01*
X018695Y018197D02*
X018695Y018757D01*
X018508Y018571D01*
X018321Y018757D01*
X018321Y018197D01*
X018087Y018197D02*
X017900Y018384D01*
X017714Y018197D01*
X017714Y018757D01*
X017480Y018664D02*
X017480Y018477D01*
X017386Y018384D01*
X017106Y018384D01*
X017106Y018197D02*
X017106Y018757D01*
X017386Y018757D01*
X017480Y018664D01*
X018087Y018757D02*
X018087Y018197D01*
X012987Y017233D02*
X012987Y015483D01*
X010987Y015483D01*
X010987Y017233D01*
X012987Y017233D01*
X012987Y015483D02*
X012987Y014733D01*
X010987Y014733D01*
X010987Y015483D01*
X010192Y015483D02*
X008192Y015483D01*
X008192Y017233D01*
X010192Y017233D01*
X010192Y015483D01*
X010192Y014733D01*
X008192Y014733D01*
X008192Y015483D01*
X008192Y014438D02*
X010192Y014438D01*
X010192Y012688D01*
X008192Y012688D01*
X008192Y014438D01*
X010959Y014438D02*
X013959Y014438D01*
X013959Y012688D01*
X010959Y012688D01*
X010959Y014438D01*
X010959Y012688D02*
X010959Y011938D01*
X013959Y011938D01*
X013959Y012688D01*
X013467Y010776D02*
X015467Y010776D01*
X015467Y009026D01*
X013467Y009026D01*
X013467Y010776D01*
X013467Y009026D02*
X013467Y008276D01*
X015467Y008276D01*
X015467Y009026D01*
X010192Y011938D02*
X010192Y012688D01*
X010192Y011938D02*
X008192Y011938D01*
X008192Y012688D01*
X004349Y019526D02*
X004349Y019802D01*
X003602Y019763D02*
X003561Y019792D01*
X003522Y019824D01*
X003485Y019859D01*
X003452Y019896D01*
X003421Y019936D01*
X003394Y019978D01*
X003369Y020022D01*
X003349Y020068D01*
X003332Y020116D01*
X003318Y020164D01*
X003309Y020214D01*
X003303Y020264D01*
X003301Y020314D01*
X003303Y020364D01*
X003309Y020414D01*
X003318Y020464D01*
X003332Y020512D01*
X003349Y020560D01*
X003369Y020606D01*
X003394Y020650D01*
X003421Y020692D01*
X003452Y020732D01*
X003485Y020769D01*
X003522Y020804D01*
X003561Y020836D01*
X003602Y020865D01*
X003601Y020865D02*
X004310Y020865D01*
X004351Y020836D01*
X004390Y020804D01*
X004427Y020769D01*
X004460Y020732D01*
X004491Y020692D01*
X004518Y020650D01*
X004543Y020606D01*
X004563Y020560D01*
X004580Y020512D01*
X004594Y020464D01*
X004603Y020414D01*
X004609Y020364D01*
X004611Y020314D01*
X004609Y020264D01*
X004603Y020214D01*
X004594Y020164D01*
X004580Y020116D01*
X004563Y020068D01*
X004543Y020022D01*
X004518Y019978D01*
X004491Y019936D01*
X004460Y019896D01*
X004427Y019859D01*
X004390Y019824D01*
X004351Y019792D01*
X004310Y019763D01*
X003562Y019802D02*
X003562Y019526D01*
D11*
X012356Y018650D02*
X012706Y018300D01*
X016806Y018300D01*
X019006Y018300D02*
X023406Y018300D01*
X023806Y018700D01*
X035756Y019150D02*
X035756Y013750D01*
X035756Y009600D02*
X035756Y005000D01*
X036156Y004600D01*
X036256Y003750D02*
X036606Y003400D01*
X036256Y003750D02*
X029406Y003750D01*
X022056Y003750D02*
X021256Y003750D01*
X037806Y002800D02*
X037806Y002600D01*
X038806Y002600D01*
X038806Y002800D01*
X035756Y019150D02*
X036156Y019550D01*
X037806Y021050D02*
X037806Y021300D01*
X038806Y021300D01*
X038806Y021050D01*
D12*
X026056Y019050D02*
X025806Y019050D01*
X025806Y018800D01*
X026056Y019050D01*
X025806Y018550D01*
X025556Y019050D01*
X025806Y018800D01*
X025806Y019050D02*
X025556Y019050D01*
X025056Y018550D02*
X024806Y018800D01*
X024806Y018550D01*
X025056Y018550D01*
X024806Y019050D01*
X024556Y018550D01*
X024806Y018800D01*
X024806Y018550D02*
X024556Y018550D01*
D13*
X024556Y020050D02*
X024306Y020300D01*
X024306Y020800D01*
X024556Y021050D01*
X025056Y021050D01*
X025306Y020800D01*
X025556Y021050D01*
X026056Y021050D01*
X026306Y020800D01*
X026306Y020300D01*
X026056Y020050D01*
X025556Y020050D01*
X025306Y020300D01*
X025056Y020050D01*
X024556Y020050D01*
X024306Y020300D02*
X024056Y020050D01*
X023556Y020050D01*
X023306Y020300D01*
X023056Y020050D01*
X022556Y020050D01*
X022306Y020300D01*
X022056Y020050D01*
X021556Y020050D01*
X021306Y020300D01*
X021306Y020800D01*
X021556Y021050D01*
X022056Y021050D01*
X022306Y020800D01*
X022556Y021050D01*
X023056Y021050D01*
X023306Y020800D01*
X023556Y021050D01*
X024056Y021050D01*
X024306Y020800D01*
X025306Y020800D02*
X025306Y020300D01*
X027306Y020300D02*
X027556Y020050D01*
X028056Y020050D01*
X028306Y020300D01*
X028306Y020800D01*
X028056Y021050D01*
X027556Y021050D01*
X027306Y020800D01*
X027306Y020300D01*
X028306Y020300D02*
X028556Y020050D01*
X029056Y020050D01*
X029306Y020300D01*
X029306Y020800D01*
X029056Y021050D01*
X028556Y021050D01*
X028306Y020800D01*
X029306Y020800D02*
X029556Y021050D01*
X030056Y021050D01*
X030306Y020800D01*
X030556Y021050D01*
X031056Y021050D01*
X031306Y020800D01*
X031556Y021050D01*
X032056Y021050D01*
X032306Y020800D01*
X032556Y021050D01*
X033056Y021050D01*
X033306Y020800D01*
X033556Y021050D01*
X034056Y021050D01*
X034306Y020800D01*
X034556Y021050D01*
X035056Y021050D01*
X035306Y020800D01*
X035306Y020300D01*
X035056Y020050D01*
X034556Y020050D01*
X034306Y020300D01*
X034056Y020050D01*
X033556Y020050D01*
X033306Y020300D01*
X033306Y020800D01*
X032306Y020800D02*
X032306Y020300D01*
X032056Y020050D01*
X031556Y020050D01*
X031306Y020300D01*
X031056Y020050D01*
X030556Y020050D01*
X030306Y020300D01*
X030306Y020800D01*
X031306Y020800D02*
X031306Y020300D01*
X030306Y020300D02*
X030056Y020050D01*
X029556Y020050D01*
X029306Y020300D01*
X032306Y020300D02*
X032556Y020050D01*
X033056Y020050D01*
X033306Y020300D01*
X034306Y020300D02*
X034306Y020800D01*
X037306Y020800D02*
X037306Y020300D01*
X037556Y020050D01*
X039056Y020050D01*
X039306Y019800D01*
X039306Y019300D01*
X039056Y019050D01*
X037556Y019050D01*
X037306Y018800D01*
X037306Y018300D01*
X037556Y018050D01*
X039056Y018050D01*
X039306Y017800D01*
X039306Y017300D01*
X039056Y017050D01*
X037556Y017050D01*
X037306Y016800D01*
X037306Y016300D01*
X037556Y016050D01*
X039056Y016050D01*
X039306Y015800D01*
X039306Y015300D01*
X039056Y015050D01*
X037556Y015050D01*
X037306Y014800D01*
X037306Y014300D01*
X037556Y014050D01*
X039056Y014050D01*
X039306Y013800D01*
X039306Y013300D01*
X039056Y013050D01*
X037556Y013050D01*
X037306Y013300D01*
X037306Y013800D01*
X037556Y014050D01*
X039056Y014050D02*
X039306Y014300D01*
X039306Y014800D01*
X039056Y015050D01*
X037556Y015050D02*
X037306Y015300D01*
X037306Y015800D01*
X037556Y016050D01*
X039056Y016050D02*
X039306Y016300D01*
X039306Y016800D01*
X039056Y017050D01*
X037556Y017050D02*
X037306Y017300D01*
X037306Y017800D01*
X037556Y018050D01*
X039056Y018050D02*
X039306Y018300D01*
X039306Y018800D01*
X039056Y019050D01*
X037556Y019050D02*
X037306Y019300D01*
X037306Y019800D01*
X037556Y020050D01*
X039056Y020050D02*
X039306Y020300D01*
X039306Y020800D01*
X039056Y021050D01*
X037556Y021050D01*
X037306Y020800D01*
X033572Y017661D02*
X033466Y017768D01*
X033252Y017768D01*
X033145Y017661D01*
X033145Y017234D01*
X033572Y017661D01*
X033572Y017234D01*
X033466Y017128D01*
X033252Y017128D01*
X033145Y017234D01*
X032928Y017128D02*
X032501Y017128D01*
X032714Y017128D02*
X032714Y017768D01*
X032501Y017555D01*
X032283Y017448D02*
X031856Y017448D01*
X031639Y017768D02*
X031639Y017128D01*
X031212Y017128D02*
X031212Y017768D01*
X031425Y017555D01*
X031639Y017768D01*
X030994Y017768D02*
X030994Y017128D01*
X030994Y017448D02*
X030567Y017448D01*
X030567Y017128D02*
X030567Y017768D01*
X023306Y020300D02*
X023306Y020800D01*
X022306Y020800D02*
X022306Y020300D01*
X021306Y020300D02*
X021056Y020050D01*
X020556Y020050D01*
X020306Y020300D01*
X020056Y020050D01*
X019556Y020050D01*
X019306Y020300D01*
X019056Y020050D01*
X018556Y020050D01*
X018306Y020300D01*
X018306Y020800D01*
X018556Y021050D01*
X019056Y021050D01*
X019306Y020800D01*
X019556Y021050D01*
X020056Y021050D01*
X020306Y020800D01*
X020556Y021050D01*
X021056Y021050D01*
X021306Y020800D01*
X020306Y020800D02*
X020306Y020300D01*
X019306Y020300D02*
X019306Y020800D01*
X017706Y020800D02*
X017706Y020300D01*
X017456Y020050D01*
X016956Y020050D01*
X016706Y020300D01*
X016456Y020050D01*
X015956Y020050D01*
X015706Y020300D01*
X015456Y020050D01*
X014956Y020050D01*
X014706Y020300D01*
X014456Y020050D01*
X013956Y020050D01*
X013706Y020300D01*
X013456Y020050D01*
X012956Y020050D01*
X012706Y020300D01*
X012456Y020050D01*
X011956Y020050D01*
X011706Y020300D01*
X011456Y020050D01*
X010956Y020050D01*
X010706Y020300D01*
X010456Y020050D01*
X009956Y020050D01*
X009706Y020300D01*
X009456Y020050D01*
X008956Y020050D01*
X008706Y020300D01*
X008456Y020050D01*
X007956Y020050D01*
X007706Y020300D01*
X007706Y020800D01*
X007956Y021050D01*
X008456Y021050D01*
X008706Y020800D01*
X008956Y021050D01*
X009456Y021050D01*
X009706Y020800D01*
X009706Y020300D01*
X009500Y019739D02*
X009167Y019739D01*
X009000Y019572D01*
X009167Y019405D01*
X009500Y019405D01*
X009417Y019223D02*
X009083Y019223D01*
X009000Y019140D01*
X009000Y018890D01*
X009500Y018890D01*
X009500Y019140D01*
X009417Y019223D01*
X009250Y019405D02*
X009250Y019739D01*
X008597Y019789D02*
X008597Y019455D01*
X008097Y019455D01*
X008180Y019273D02*
X008097Y019190D01*
X008097Y019023D01*
X008180Y018940D01*
X008514Y018940D01*
X008597Y019023D01*
X008597Y019190D01*
X008514Y019273D01*
X008514Y018758D02*
X008597Y018674D01*
X008597Y018507D01*
X008514Y018424D01*
X008347Y018507D02*
X008347Y018674D01*
X008430Y018758D01*
X008514Y018758D01*
X008347Y018507D02*
X008264Y018424D01*
X008180Y018424D01*
X008097Y018507D01*
X008097Y018674D01*
X008180Y018758D01*
X009000Y018624D02*
X009000Y018457D01*
X009083Y018374D01*
X009167Y018374D01*
X009250Y018457D01*
X009250Y018624D01*
X009334Y018708D01*
X009417Y018708D01*
X009500Y018624D01*
X009500Y018457D01*
X009417Y018374D01*
X009083Y018708D02*
X009000Y018624D01*
X010074Y018593D02*
X010074Y018813D01*
X010147Y018886D01*
X010294Y018886D01*
X010367Y018813D01*
X010367Y018593D01*
X010367Y018739D02*
X010514Y018886D01*
X010514Y019053D02*
X010074Y019053D01*
X010074Y019347D01*
X010074Y019513D02*
X010074Y019807D01*
X010294Y019660D02*
X010294Y019513D01*
X010514Y019513D02*
X010074Y019513D01*
X010514Y019347D02*
X010514Y019053D01*
X010294Y019053D02*
X010294Y019200D01*
X010514Y018593D02*
X010074Y018593D01*
X010221Y018426D02*
X010514Y018426D01*
X010294Y018426D02*
X010294Y018132D01*
X010221Y018132D02*
X010074Y018279D01*
X010221Y018426D01*
X010221Y018132D02*
X010514Y018132D01*
X010706Y020300D02*
X010706Y020800D01*
X010956Y021050D01*
X011456Y021050D01*
X011706Y020800D01*
X011956Y021050D01*
X012456Y021050D01*
X012706Y020800D01*
X012706Y020300D01*
X011706Y020300D02*
X011706Y020800D01*
X012706Y020800D02*
X012956Y021050D01*
X013456Y021050D01*
X013706Y020800D01*
X013956Y021050D01*
X014456Y021050D01*
X014706Y020800D01*
X014956Y021050D01*
X015456Y021050D01*
X015706Y020800D01*
X015706Y020300D01*
X016706Y020300D02*
X016706Y020800D01*
X016956Y021050D01*
X017456Y021050D01*
X017706Y020800D01*
X016706Y020800D02*
X016456Y021050D01*
X015956Y021050D01*
X015706Y020800D01*
X014706Y020800D02*
X014706Y020300D01*
X013706Y020300D02*
X013706Y020800D01*
X010706Y020800D02*
X010456Y021050D01*
X009956Y021050D01*
X009706Y020800D01*
X008706Y020800D02*
X008706Y020300D01*
X006427Y018254D02*
X005927Y018604D01*
X005527Y018604D01*
X005027Y018254D01*
X005027Y016154D01*
X005527Y015804D01*
X005927Y015804D01*
X006427Y016154D01*
X006427Y018254D01*
X006617Y008887D02*
X006617Y008246D01*
X006404Y008246D02*
X006831Y008246D01*
X006186Y008246D02*
X006186Y008887D01*
X006404Y008673D02*
X006617Y008887D01*
X006186Y008246D02*
X005759Y008887D01*
X005759Y008246D01*
X005542Y008353D02*
X005435Y008246D01*
X005222Y008246D01*
X005115Y008353D01*
X005222Y008566D02*
X005435Y008566D01*
X005542Y008460D01*
X005542Y008353D01*
X005222Y008566D02*
X005115Y008673D01*
X005115Y008780D01*
X005222Y008887D01*
X005435Y008887D01*
X005542Y008780D01*
X012574Y004236D02*
X012574Y003943D01*
X013014Y003943D01*
X013014Y003776D02*
X013014Y003483D01*
X012574Y003483D01*
X012574Y003776D01*
X012794Y003629D02*
X012794Y003483D01*
X012794Y003316D02*
X012867Y003242D01*
X012867Y003022D01*
X012867Y003169D02*
X013014Y003316D01*
X012794Y003316D02*
X012647Y003316D01*
X012574Y003242D01*
X012574Y003022D01*
X013014Y003022D01*
X012941Y002855D02*
X012647Y002855D01*
X012574Y002782D01*
X012574Y002635D01*
X012647Y002562D01*
X012941Y002562D01*
X013014Y002635D01*
X013014Y002782D01*
X012941Y002855D01*
X013014Y002402D02*
X013014Y002255D01*
X013014Y002328D02*
X012574Y002328D01*
X012574Y002255D02*
X012574Y002402D01*
X012556Y002050D02*
X013056Y002050D01*
X013306Y001800D01*
X013306Y001300D01*
X013056Y001050D01*
X012556Y001050D01*
X012306Y001300D01*
X012056Y001050D01*
X011556Y001050D01*
X011306Y001300D01*
X011306Y001800D01*
X011556Y002050D01*
X012056Y002050D01*
X012306Y001800D01*
X012556Y002050D01*
X012306Y001800D02*
X012306Y001300D01*
X013306Y001300D02*
X013556Y001050D01*
X014056Y001050D01*
X014306Y001300D01*
X014556Y001050D01*
X015056Y001050D01*
X015306Y001300D01*
X015556Y001050D01*
X016056Y001050D01*
X016306Y001300D01*
X016306Y001800D01*
X016056Y002050D01*
X015556Y002050D01*
X015306Y001800D01*
X015306Y001300D01*
X016306Y001300D02*
X016556Y001050D01*
X017056Y001050D01*
X017306Y001300D01*
X017556Y001050D01*
X018056Y001050D01*
X018306Y001300D01*
X018556Y001050D01*
X019056Y001050D01*
X019306Y001300D01*
X019306Y001800D01*
X019056Y002050D01*
X018556Y002050D01*
X018306Y001800D01*
X018306Y001300D01*
X017306Y001300D02*
X017306Y001800D01*
X017556Y002050D01*
X018056Y002050D01*
X018306Y001800D01*
X017306Y001800D02*
X017056Y002050D01*
X016556Y002050D01*
X016306Y001800D01*
X015306Y001800D02*
X015056Y002050D01*
X014556Y002050D01*
X014306Y001800D01*
X014306Y001300D01*
X014306Y001800D02*
X014056Y002050D01*
X013556Y002050D01*
X013306Y001800D01*
X013624Y002255D02*
X013624Y002475D01*
X013697Y002548D01*
X013844Y002548D01*
X013917Y002475D01*
X013917Y002255D01*
X013917Y002402D02*
X014064Y002548D01*
X014064Y002715D02*
X013624Y002715D01*
X013624Y003009D01*
X013697Y003176D02*
X013771Y003176D01*
X013844Y003249D01*
X013844Y003396D01*
X013917Y003469D01*
X013991Y003469D01*
X014064Y003396D01*
X014064Y003249D01*
X013991Y003176D01*
X014064Y003009D02*
X014064Y002715D01*
X013844Y002715D02*
X013844Y002862D01*
X013697Y003176D02*
X013624Y003249D01*
X013624Y003396D01*
X013697Y003469D01*
X013624Y003636D02*
X014064Y003636D01*
X014064Y003930D01*
X013844Y003783D02*
X013844Y003636D01*
X013624Y003636D02*
X013624Y003930D01*
X013624Y004096D02*
X013624Y004390D01*
X013624Y004243D02*
X014064Y004243D01*
X012794Y004090D02*
X012794Y003943D01*
X013624Y002255D02*
X014064Y002255D01*
X020306Y001800D02*
X020306Y001300D01*
X020556Y001050D01*
X021056Y001050D01*
X021306Y001300D01*
X021556Y001050D01*
X022056Y001050D01*
X022306Y001300D01*
X022306Y001800D01*
X022056Y002050D01*
X021556Y002050D01*
X021306Y001800D01*
X021306Y001300D01*
X021306Y001800D02*
X021056Y002050D01*
X020556Y002050D01*
X020306Y001800D01*
X022306Y001800D02*
X022556Y002050D01*
X023056Y002050D01*
X023306Y001800D01*
X023556Y002050D01*
X024056Y002050D01*
X024306Y001800D01*
X024556Y002050D01*
X025056Y002050D01*
X025306Y001800D01*
X025306Y001300D01*
X025056Y001050D01*
X024556Y001050D01*
X024306Y001300D01*
X024056Y001050D01*
X023556Y001050D01*
X023306Y001300D01*
X023056Y001050D01*
X022556Y001050D01*
X022306Y001300D01*
X023306Y001300D02*
X023306Y001800D01*
X024306Y001800D02*
X024306Y001300D01*
X025306Y001300D02*
X025556Y001050D01*
X026056Y001050D01*
X026306Y001300D01*
X026556Y001050D01*
X027056Y001050D01*
X027306Y001300D01*
X027556Y001050D01*
X028056Y001050D01*
X028306Y001300D01*
X028306Y001800D01*
X028056Y002050D01*
X027556Y002050D01*
X027306Y001800D01*
X027306Y001300D01*
X027306Y001800D02*
X027056Y002050D01*
X026556Y002050D01*
X026306Y001800D01*
X026306Y001300D01*
X026306Y001800D02*
X026056Y002050D01*
X025556Y002050D01*
X025306Y001800D01*
X029306Y001800D02*
X029306Y001300D01*
X029556Y001050D01*
X030056Y001050D01*
X030306Y001300D01*
X030556Y001050D01*
X031056Y001050D01*
X031306Y001300D01*
X031306Y001800D01*
X031056Y002050D01*
X030556Y002050D01*
X030306Y001800D01*
X030306Y001300D01*
X031306Y001300D02*
X031556Y001050D01*
X032056Y001050D01*
X032306Y001300D01*
X032556Y001050D01*
X033056Y001050D01*
X033306Y001300D01*
X033556Y001050D01*
X034056Y001050D01*
X034306Y001300D01*
X034306Y001800D01*
X034056Y002050D01*
X033556Y002050D01*
X033306Y001800D01*
X033306Y001300D01*
X032306Y001300D02*
X032306Y001800D01*
X032556Y002050D01*
X033056Y002050D01*
X033306Y001800D01*
X032306Y001800D02*
X032056Y002050D01*
X031556Y002050D01*
X031306Y001800D01*
X031742Y002430D02*
X031575Y002597D01*
X032076Y002597D01*
X032076Y002430D02*
X032076Y002764D01*
X031993Y002946D02*
X031659Y002946D01*
X031575Y003029D01*
X031575Y003196D01*
X031659Y003279D01*
X031993Y002946D01*
X032076Y003029D01*
X032076Y003196D01*
X031993Y003279D01*
X031659Y003279D01*
X030306Y001800D02*
X030056Y002050D01*
X029556Y002050D01*
X029306Y001800D01*
X034306Y001800D02*
X034556Y002050D01*
X035056Y002050D01*
X035306Y001800D01*
X035556Y002050D01*
X036056Y002050D01*
X036306Y001800D01*
X036556Y002050D01*
X037056Y002050D01*
X037306Y001800D01*
X037306Y001300D01*
X037056Y001050D01*
X036556Y001050D01*
X036306Y001300D01*
X036056Y001050D01*
X035556Y001050D01*
X035306Y001300D01*
X035056Y001050D01*
X034556Y001050D01*
X034306Y001300D01*
X035306Y001300D02*
X035306Y001800D01*
X036306Y001800D02*
X036306Y001300D01*
X037556Y003050D02*
X039056Y003050D01*
X039306Y003300D01*
X039306Y003800D01*
X039056Y004050D01*
X037556Y004050D01*
X037306Y004300D01*
X037306Y004800D01*
X037556Y005050D01*
X039056Y005050D01*
X039306Y004800D01*
X039306Y004300D01*
X039056Y004050D01*
X037556Y004050D02*
X037306Y003800D01*
X037306Y003300D01*
X037556Y003050D01*
X037556Y005050D02*
X037306Y005300D01*
X037306Y005800D01*
X037556Y006050D01*
X039056Y006050D01*
X039306Y005800D01*
X039306Y005300D01*
X039056Y005050D01*
X039056Y006050D02*
X039306Y006300D01*
X039306Y006800D01*
X039056Y007050D01*
X037556Y007050D01*
X037306Y007300D01*
X037306Y007800D01*
X037556Y008050D01*
X039056Y008050D01*
X039306Y007800D01*
X039306Y007300D01*
X039056Y007050D01*
X037556Y007050D02*
X037306Y006800D01*
X037306Y006300D01*
X037556Y006050D01*
X037556Y008050D02*
X037306Y008300D01*
X037306Y008800D01*
X037556Y009050D01*
X039056Y009050D01*
X039306Y008800D01*
X039306Y008300D01*
X039056Y008050D01*
X039056Y009050D02*
X039306Y009300D01*
X039306Y009800D01*
X039056Y010050D01*
X037556Y010050D01*
X037306Y010300D01*
X037306Y010800D01*
X037556Y011050D01*
X039056Y011050D01*
X039306Y010800D01*
X039306Y010300D01*
X039056Y010050D01*
X037556Y010050D02*
X037306Y009800D01*
X037306Y009300D01*
X037556Y009050D01*
X037556Y011050D02*
X037306Y011300D01*
X037306Y011800D01*
X037556Y012050D01*
X039056Y012050D01*
X039306Y011800D01*
X039306Y011300D01*
X039056Y011050D01*
X039056Y012050D02*
X039306Y012300D01*
X039306Y012800D01*
X039056Y013050D01*
X037556Y013050D02*
X037306Y012800D01*
X037306Y012300D01*
X037556Y012050D01*
D14*
X037183Y011744D02*
X037183Y011662D01*
X037102Y011580D01*
X036938Y011580D01*
X036857Y011662D01*
X036857Y011744D01*
X036938Y011825D01*
X037102Y011825D01*
X037183Y011744D01*
X037102Y011580D02*
X037183Y011498D01*
X037183Y011417D01*
X037102Y011335D01*
X036938Y011335D01*
X036857Y011417D01*
X036857Y011498D01*
X036938Y011580D01*
X036668Y011498D02*
X036668Y011417D01*
X036586Y011335D01*
X036423Y011335D01*
X036341Y011417D01*
X036504Y011580D02*
X036586Y011580D01*
X036668Y011498D01*
X036586Y011580D02*
X036668Y011662D01*
X036668Y011744D01*
X036586Y011825D01*
X036423Y011825D01*
X036341Y011744D01*
X036423Y012335D02*
X036341Y012417D01*
X036423Y012335D02*
X036586Y012335D01*
X036668Y012417D01*
X036668Y012498D01*
X036586Y012580D01*
X036504Y012580D01*
X036586Y012580D02*
X036668Y012662D01*
X036668Y012744D01*
X036586Y012825D01*
X036423Y012825D01*
X036341Y012744D01*
X036857Y012580D02*
X037102Y012580D01*
X037183Y012498D01*
X037183Y012417D01*
X037102Y012335D01*
X036938Y012335D01*
X036857Y012417D01*
X036857Y012580D01*
X037020Y012744D01*
X037183Y012825D01*
X037102Y013335D02*
X037102Y013825D01*
X036857Y013580D01*
X037183Y013580D01*
X036668Y013498D02*
X036668Y013417D01*
X036586Y013335D01*
X036423Y013335D01*
X036341Y013417D01*
X036504Y013580D02*
X036586Y013580D01*
X036668Y013498D01*
X036586Y013580D02*
X036668Y013662D01*
X036668Y013744D01*
X036586Y013825D01*
X036423Y013825D01*
X036341Y013744D01*
X036423Y014335D02*
X036341Y014417D01*
X036423Y014335D02*
X036586Y014335D01*
X036668Y014417D01*
X036668Y014498D01*
X036586Y014580D01*
X036504Y014580D01*
X036586Y014580D02*
X036668Y014662D01*
X036668Y014744D01*
X036586Y014825D01*
X036423Y014825D01*
X036341Y014744D01*
X036857Y014744D02*
X036938Y014825D01*
X037102Y014825D01*
X037183Y014744D01*
X037183Y014662D01*
X036857Y014335D01*
X037183Y014335D01*
X037102Y015335D02*
X036938Y015335D01*
X036857Y015417D01*
X037183Y015744D01*
X037183Y015417D01*
X037102Y015335D01*
X036857Y015417D02*
X036857Y015744D01*
X036938Y015825D01*
X037102Y015825D01*
X037183Y015744D01*
X036668Y015744D02*
X036668Y015662D01*
X036586Y015580D01*
X036668Y015498D01*
X036668Y015417D01*
X036586Y015335D01*
X036423Y015335D01*
X036341Y015417D01*
X036504Y015580D02*
X036586Y015580D01*
X036668Y015744D02*
X036586Y015825D01*
X036423Y015825D01*
X036341Y015744D01*
X036341Y016335D02*
X036668Y016662D01*
X036668Y016744D01*
X036586Y016825D01*
X036423Y016825D01*
X036341Y016744D01*
X036857Y016744D02*
X036938Y016825D01*
X037102Y016825D01*
X037183Y016744D01*
X037183Y016662D01*
X037102Y016580D01*
X036938Y016580D01*
X036857Y016662D01*
X036857Y016744D01*
X036938Y016580D02*
X036857Y016498D01*
X036857Y016417D01*
X036938Y016335D01*
X037102Y016335D01*
X037183Y016417D01*
X037183Y016498D01*
X037102Y016580D01*
X036668Y016335D02*
X036341Y016335D01*
X036341Y017335D02*
X036668Y017662D01*
X036668Y017744D01*
X036586Y017825D01*
X036423Y017825D01*
X036341Y017744D01*
X036857Y017580D02*
X037102Y017580D01*
X037183Y017498D01*
X037183Y017417D01*
X037102Y017335D01*
X036938Y017335D01*
X036857Y017417D01*
X036857Y017580D01*
X037020Y017744D01*
X037183Y017825D01*
X037102Y018335D02*
X037102Y018825D01*
X036857Y018580D01*
X037183Y018580D01*
X036668Y018662D02*
X036668Y018744D01*
X036586Y018825D01*
X036423Y018825D01*
X036341Y018744D01*
X036668Y018662D02*
X036341Y018335D01*
X036668Y018335D01*
X036668Y017335D02*
X036341Y017335D01*
X035021Y018985D02*
X034694Y019312D01*
X034612Y019312D01*
X034530Y019230D01*
X034530Y019067D01*
X034612Y018985D01*
X035021Y018985D02*
X035021Y019312D01*
X035021Y019501D02*
X035021Y019828D01*
X035021Y019664D02*
X034530Y019664D01*
X034694Y019501D01*
X034021Y019582D02*
X033939Y019501D01*
X033612Y019828D01*
X033939Y019828D01*
X034021Y019746D01*
X034021Y019582D01*
X033939Y019501D02*
X033612Y019501D01*
X033530Y019582D01*
X033530Y019746D01*
X033612Y019828D01*
X033021Y019746D02*
X033021Y019582D01*
X032939Y019501D01*
X032776Y019582D02*
X032776Y019828D01*
X032939Y019828D02*
X032612Y019828D01*
X032530Y019746D01*
X032530Y019582D01*
X032612Y019501D01*
X032694Y019501D01*
X032776Y019582D01*
X033021Y019746D02*
X032939Y019828D01*
X033021Y019312D02*
X033021Y018985D01*
X033021Y019148D02*
X032530Y019148D01*
X032694Y018985D01*
X032021Y018985D02*
X032021Y019312D01*
X032021Y019148D02*
X031530Y019148D01*
X031694Y018985D01*
X031021Y018985D02*
X031021Y019312D01*
X031021Y019148D02*
X030530Y019148D01*
X030694Y018985D01*
X030021Y018985D02*
X030021Y019312D01*
X030021Y019148D02*
X029530Y019148D01*
X029694Y018985D01*
X029021Y018985D02*
X029021Y019312D01*
X029021Y019148D02*
X028530Y019148D01*
X028694Y018985D01*
X028021Y018985D02*
X028021Y019312D01*
X028021Y019148D02*
X027530Y019148D01*
X027694Y018985D01*
X027776Y019501D02*
X027776Y019828D01*
X028021Y019746D02*
X027530Y019746D01*
X027776Y019501D01*
X028530Y019501D02*
X028776Y019501D01*
X028694Y019664D01*
X028694Y019746D01*
X028776Y019828D01*
X028939Y019828D01*
X029021Y019746D01*
X029021Y019582D01*
X028939Y019501D01*
X028530Y019501D02*
X028530Y019828D01*
X029530Y019828D02*
X029612Y019664D01*
X029776Y019501D01*
X029776Y019746D01*
X029857Y019828D01*
X029939Y019828D01*
X030021Y019746D01*
X030021Y019582D01*
X029939Y019501D01*
X029776Y019501D01*
X030530Y019501D02*
X030530Y019828D01*
X030612Y019828D01*
X030939Y019501D01*
X031021Y019501D01*
X031530Y019582D02*
X031530Y019746D01*
X031612Y019828D01*
X031694Y019828D01*
X031776Y019746D01*
X031776Y019582D01*
X031694Y019501D01*
X031612Y019501D01*
X031530Y019582D01*
X031776Y019582D02*
X031857Y019501D01*
X031939Y019501D01*
X032021Y019582D01*
X032021Y019746D01*
X031939Y019828D01*
X031857Y019828D01*
X031776Y019746D01*
X033530Y019230D02*
X033530Y019067D01*
X033612Y018985D01*
X033694Y019312D02*
X034021Y018985D01*
X034021Y019312D01*
X033694Y019312D02*
X033612Y019312D01*
X033530Y019230D01*
X036341Y019335D02*
X036668Y019662D01*
X036668Y019744D01*
X036586Y019825D01*
X036423Y019825D01*
X036341Y019744D01*
X036857Y019744D02*
X036938Y019825D01*
X037102Y019825D01*
X037183Y019744D01*
X037183Y019662D01*
X036857Y019335D01*
X037183Y019335D01*
X036668Y019335D02*
X036341Y019335D01*
X039673Y015825D02*
X039836Y015825D01*
X039918Y015744D01*
X039918Y015662D01*
X039836Y015580D01*
X039918Y015498D01*
X039918Y015417D01*
X039836Y015335D01*
X039673Y015335D01*
X039591Y015417D01*
X039754Y015580D02*
X039836Y015580D01*
X040107Y015662D02*
X040270Y015825D01*
X040270Y015335D01*
X040107Y015335D02*
X040433Y015335D01*
X040352Y014825D02*
X040433Y014744D01*
X040433Y014662D01*
X040352Y014580D01*
X040433Y014498D01*
X040433Y014417D01*
X040352Y014335D01*
X040188Y014335D01*
X040107Y014417D01*
X039918Y014417D02*
X039836Y014335D01*
X039673Y014335D01*
X039591Y014417D01*
X039754Y014580D02*
X039836Y014580D01*
X039918Y014498D01*
X039918Y014417D01*
X039836Y014580D02*
X039918Y014662D01*
X039918Y014744D01*
X039836Y014825D01*
X039673Y014825D01*
X039591Y014744D01*
X040107Y014744D02*
X040188Y014825D01*
X040352Y014825D01*
X040352Y014580D02*
X040270Y014580D01*
X040107Y013825D02*
X040107Y013580D01*
X040270Y013662D01*
X040352Y013662D01*
X040433Y013580D01*
X040433Y013417D01*
X040352Y013335D01*
X040188Y013335D01*
X040107Y013417D01*
X039918Y013417D02*
X039918Y013498D01*
X039836Y013580D01*
X039754Y013580D01*
X039836Y013580D02*
X039918Y013662D01*
X039918Y013744D01*
X039836Y013825D01*
X039673Y013825D01*
X039591Y013744D01*
X040107Y013825D02*
X040433Y013825D01*
X039918Y013417D02*
X039836Y013335D01*
X039673Y013335D01*
X039591Y013417D01*
X039673Y012825D02*
X039836Y012825D01*
X039918Y012744D01*
X039918Y012662D01*
X039836Y012580D01*
X039918Y012498D01*
X039918Y012417D01*
X039836Y012335D01*
X039673Y012335D01*
X039591Y012417D01*
X039754Y012580D02*
X039836Y012580D01*
X039591Y012744D02*
X039673Y012825D01*
X040107Y012825D02*
X040433Y012825D01*
X040433Y012744D01*
X040107Y012417D01*
X040107Y012335D01*
X040188Y011825D02*
X040107Y011744D01*
X040107Y011662D01*
X040188Y011580D01*
X040433Y011580D01*
X040433Y011417D02*
X040352Y011335D01*
X040188Y011335D01*
X040107Y011417D01*
X039918Y011417D02*
X039918Y011498D01*
X039836Y011580D01*
X039754Y011580D01*
X039836Y011580D02*
X039918Y011662D01*
X039918Y011744D01*
X039836Y011825D01*
X039673Y011825D01*
X039591Y011744D01*
X040188Y011825D02*
X040352Y011825D01*
X040433Y011744D01*
X040433Y011417D01*
X039918Y011417D02*
X039836Y011335D01*
X039673Y011335D01*
X039591Y011417D01*
X039836Y010825D02*
X039591Y010580D01*
X039918Y010580D01*
X040107Y010662D02*
X040270Y010825D01*
X040270Y010335D01*
X040107Y010335D02*
X040433Y010335D01*
X040352Y009825D02*
X040433Y009744D01*
X040433Y009662D01*
X040352Y009580D01*
X040433Y009498D01*
X040433Y009417D01*
X040352Y009335D01*
X040188Y009335D01*
X040107Y009417D01*
X040270Y009580D02*
X040352Y009580D01*
X040352Y009825D02*
X040188Y009825D01*
X040107Y009744D01*
X039918Y009580D02*
X039591Y009580D01*
X039836Y009825D01*
X039836Y009335D01*
X039836Y008825D02*
X039591Y008580D01*
X039918Y008580D01*
X040107Y008580D02*
X040270Y008662D01*
X040352Y008662D01*
X040433Y008580D01*
X040433Y008417D01*
X040352Y008335D01*
X040188Y008335D01*
X040107Y008417D01*
X040107Y008580D02*
X040107Y008825D01*
X040433Y008825D01*
X039836Y008825D02*
X039836Y008335D01*
X039836Y007825D02*
X039591Y007580D01*
X039918Y007580D01*
X040107Y007417D02*
X040107Y007335D01*
X040107Y007417D02*
X040433Y007744D01*
X040433Y007825D01*
X040107Y007825D01*
X039836Y007825D02*
X039836Y007335D01*
X039836Y006825D02*
X039591Y006580D01*
X039918Y006580D01*
X040107Y006662D02*
X040188Y006580D01*
X040433Y006580D01*
X040433Y006417D02*
X040433Y006744D01*
X040352Y006825D01*
X040188Y006825D01*
X040107Y006744D01*
X040107Y006662D01*
X040107Y006417D02*
X040188Y006335D01*
X040352Y006335D01*
X040433Y006417D01*
X039836Y006335D02*
X039836Y006825D01*
X039918Y005825D02*
X039591Y005825D01*
X039591Y005580D01*
X039754Y005662D01*
X039836Y005662D01*
X039918Y005580D01*
X039918Y005417D01*
X039836Y005335D01*
X039673Y005335D01*
X039591Y005417D01*
X040107Y005335D02*
X040433Y005335D01*
X040270Y005335D02*
X040270Y005825D01*
X040107Y005662D01*
X040188Y004825D02*
X040352Y004825D01*
X040433Y004744D01*
X040433Y004662D01*
X040352Y004580D01*
X040433Y004498D01*
X040433Y004417D01*
X040352Y004335D01*
X040188Y004335D01*
X040107Y004417D01*
X039918Y004417D02*
X039918Y004580D01*
X039836Y004662D01*
X039754Y004662D01*
X039591Y004580D01*
X039591Y004825D01*
X039918Y004825D01*
X040107Y004744D02*
X040188Y004825D01*
X040270Y004580D02*
X040352Y004580D01*
X039918Y004417D02*
X039836Y004335D01*
X039673Y004335D01*
X039591Y004417D01*
X039486Y003075D02*
X039323Y003075D01*
X039241Y002994D01*
X039241Y002667D01*
X039323Y002585D01*
X039486Y002585D01*
X039568Y002667D01*
X039568Y002830D01*
X039404Y002830D01*
X039568Y002994D02*
X039486Y003075D01*
X039757Y003075D02*
X040083Y002585D01*
X040083Y003075D01*
X040272Y003075D02*
X040517Y003075D01*
X040599Y002994D01*
X040599Y002667D01*
X040517Y002585D01*
X040272Y002585D01*
X040272Y003075D01*
X039757Y003075D02*
X039757Y002585D01*
X037021Y002598D02*
X036530Y002598D01*
X036694Y002435D01*
X037021Y002435D02*
X037021Y002762D01*
X036939Y002951D02*
X037021Y003032D01*
X037021Y003196D01*
X036939Y003278D01*
X036776Y003278D01*
X036694Y003196D01*
X036694Y003114D01*
X036776Y002951D01*
X036530Y002951D01*
X036530Y003278D01*
X036071Y003196D02*
X035580Y003196D01*
X035826Y002951D01*
X035826Y003278D01*
X035071Y003196D02*
X035071Y003032D01*
X034989Y002951D01*
X035071Y002762D02*
X035071Y002435D01*
X035071Y002598D02*
X034580Y002598D01*
X034744Y002435D01*
X034662Y002951D02*
X034580Y003032D01*
X034580Y003196D01*
X034662Y003278D01*
X034744Y003278D01*
X034826Y003196D01*
X034907Y003278D01*
X034989Y003278D01*
X035071Y003196D01*
X034826Y003196D02*
X034826Y003114D01*
X034071Y002951D02*
X033744Y003278D01*
X033662Y003278D01*
X033580Y003196D01*
X033580Y003032D01*
X033662Y002951D01*
X034071Y002951D02*
X034071Y003278D01*
X034071Y002762D02*
X034071Y002435D01*
X034071Y002598D02*
X033580Y002598D01*
X033744Y002435D01*
X033071Y002435D02*
X033071Y002762D01*
X033071Y002598D02*
X032580Y002598D01*
X032744Y002435D01*
X032744Y002951D02*
X032580Y003114D01*
X033071Y003114D01*
X033071Y002951D02*
X033071Y003278D01*
X031071Y002680D02*
X031071Y002517D01*
X030989Y002435D01*
X030826Y002517D02*
X030826Y002762D01*
X030989Y002762D02*
X030662Y002762D01*
X030580Y002680D01*
X030580Y002517D01*
X030662Y002435D01*
X030744Y002435D01*
X030826Y002517D01*
X031071Y002680D02*
X030989Y002762D01*
X030071Y002680D02*
X030071Y002517D01*
X029989Y002435D01*
X029907Y002435D01*
X029826Y002517D01*
X029826Y002680D01*
X029907Y002762D01*
X029989Y002762D01*
X030071Y002680D01*
X029826Y002680D02*
X029744Y002762D01*
X029662Y002762D01*
X029580Y002680D01*
X029580Y002517D01*
X029662Y002435D01*
X029744Y002435D01*
X029826Y002517D01*
X028071Y002435D02*
X027989Y002435D01*
X027662Y002762D01*
X027580Y002762D01*
X027580Y002435D01*
X027021Y002517D02*
X027021Y002680D01*
X026939Y002762D01*
X026857Y002762D01*
X026776Y002680D01*
X026776Y002435D01*
X026939Y002435D01*
X027021Y002517D01*
X026776Y002435D02*
X026612Y002598D01*
X026530Y002762D01*
X026021Y002680D02*
X026021Y002517D01*
X025939Y002435D01*
X025776Y002435D02*
X025694Y002598D01*
X025694Y002680D01*
X025776Y002762D01*
X025939Y002762D01*
X026021Y002680D01*
X025776Y002435D02*
X025530Y002435D01*
X025530Y002762D01*
X025071Y002680D02*
X024580Y002680D01*
X024826Y002435D01*
X024826Y002762D01*
X024071Y002680D02*
X024071Y002517D01*
X023989Y002435D01*
X023826Y002598D02*
X023826Y002680D01*
X023907Y002762D01*
X023989Y002762D01*
X024071Y002680D01*
X023826Y002680D02*
X023744Y002762D01*
X023662Y002762D01*
X023580Y002680D01*
X023580Y002517D01*
X023662Y002435D01*
X023071Y002435D02*
X023071Y002762D01*
X023071Y002435D02*
X022744Y002762D01*
X022662Y002762D01*
X022580Y002680D01*
X022580Y002517D01*
X022662Y002435D01*
X021971Y002435D02*
X021971Y002762D01*
X021971Y002598D02*
X021480Y002598D01*
X021644Y002435D01*
X021071Y002517D02*
X021071Y002680D01*
X020989Y002762D01*
X020662Y002762D01*
X020989Y002435D01*
X021071Y002517D01*
X020989Y002435D02*
X020662Y002435D01*
X020580Y002517D01*
X020580Y002680D01*
X020662Y002762D01*
X019542Y002757D02*
X019542Y002267D01*
X019215Y002757D01*
X019215Y002267D01*
X019035Y002267D02*
X018871Y002267D01*
X018953Y002267D02*
X018953Y002757D01*
X018871Y002757D02*
X019035Y002757D01*
X018683Y002757D02*
X018683Y002430D01*
X018519Y002267D01*
X018356Y002430D01*
X018356Y002757D01*
X017994Y002675D02*
X017912Y002757D01*
X017667Y002757D01*
X017667Y002267D01*
X017912Y002267D01*
X017994Y002348D01*
X017994Y002675D01*
X017478Y002757D02*
X017478Y002267D01*
X017151Y002757D01*
X017151Y002267D01*
X016963Y002348D02*
X016963Y002512D01*
X016799Y002512D01*
X016636Y002675D02*
X016636Y002348D01*
X016717Y002267D01*
X016881Y002267D01*
X016963Y002348D01*
X016963Y002675D02*
X016881Y002757D01*
X016717Y002757D01*
X016636Y002675D01*
X016278Y002757D02*
X016278Y002430D01*
X016115Y002267D01*
X015951Y002430D01*
X015951Y002757D01*
X015763Y002757D02*
X015436Y002757D01*
X015436Y002512D01*
X015599Y002594D01*
X015681Y002594D01*
X015763Y002512D01*
X015763Y002348D01*
X015681Y002267D01*
X015517Y002267D01*
X015436Y002348D01*
X015059Y002342D02*
X015059Y002505D01*
X014977Y002587D01*
X014896Y002587D01*
X014814Y002505D01*
X014814Y002423D01*
X014814Y002505D02*
X014732Y002587D01*
X014650Y002587D01*
X014569Y002505D01*
X014569Y002342D01*
X014650Y002260D01*
X014977Y002260D02*
X015059Y002342D01*
X014896Y002775D02*
X014569Y002775D01*
X014896Y002775D02*
X015059Y002939D01*
X014896Y003102D01*
X014569Y003102D01*
X014650Y003291D02*
X014569Y003373D01*
X014569Y003536D01*
X014650Y003618D01*
X014732Y003618D01*
X014814Y003536D01*
X014896Y003618D01*
X014977Y003618D01*
X015059Y003536D01*
X015059Y003373D01*
X014977Y003291D01*
X014814Y003455D02*
X014814Y003536D01*
X035580Y002598D02*
X036071Y002598D01*
X036071Y002435D02*
X036071Y002762D01*
X035744Y002435D02*
X035580Y002598D01*
X036423Y004335D02*
X036341Y004417D01*
X036423Y004335D02*
X036586Y004335D01*
X036668Y004417D01*
X036668Y004580D01*
X036586Y004662D01*
X036504Y004662D01*
X036341Y004580D01*
X036341Y004825D01*
X036668Y004825D01*
X036857Y004744D02*
X036938Y004825D01*
X037102Y004825D01*
X037183Y004744D01*
X037183Y004662D01*
X036857Y004335D01*
X037183Y004335D01*
X037102Y005335D02*
X036938Y005335D01*
X036857Y005417D01*
X037183Y005744D01*
X037183Y005417D01*
X037102Y005335D01*
X036857Y005417D02*
X036857Y005744D01*
X036938Y005825D01*
X037102Y005825D01*
X037183Y005744D01*
X036668Y005825D02*
X036341Y005825D01*
X036341Y005580D01*
X036504Y005662D01*
X036586Y005662D01*
X036668Y005580D01*
X036668Y005417D01*
X036586Y005335D01*
X036423Y005335D01*
X036341Y005417D01*
X036586Y006335D02*
X036586Y006825D01*
X036341Y006580D01*
X036668Y006580D01*
X036857Y006498D02*
X036938Y006580D01*
X037102Y006580D01*
X037183Y006498D01*
X037183Y006417D01*
X037102Y006335D01*
X036938Y006335D01*
X036857Y006417D01*
X036857Y006498D01*
X036938Y006580D02*
X036857Y006662D01*
X036857Y006744D01*
X036938Y006825D01*
X037102Y006825D01*
X037183Y006744D01*
X037183Y006662D01*
X037102Y006580D01*
X037102Y007335D02*
X036938Y007335D01*
X036857Y007417D01*
X036857Y007580D01*
X037102Y007580D01*
X037183Y007498D01*
X037183Y007417D01*
X037102Y007335D01*
X036857Y007580D02*
X037020Y007744D01*
X037183Y007825D01*
X036668Y007580D02*
X036341Y007580D01*
X036586Y007825D01*
X036586Y007335D01*
X036586Y008335D02*
X036586Y008825D01*
X036341Y008580D01*
X036668Y008580D01*
X036857Y008580D02*
X037183Y008580D01*
X037102Y008335D02*
X037102Y008825D01*
X036857Y008580D01*
X036857Y009335D02*
X037183Y009662D01*
X037183Y009744D01*
X037102Y009825D01*
X036938Y009825D01*
X036857Y009744D01*
X036668Y009580D02*
X036341Y009580D01*
X036586Y009825D01*
X036586Y009335D01*
X036857Y009335D02*
X037183Y009335D01*
X037102Y010335D02*
X036938Y010335D01*
X036857Y010417D01*
X037183Y010744D01*
X037183Y010417D01*
X037102Y010335D01*
X036857Y010417D02*
X036857Y010744D01*
X036938Y010825D01*
X037102Y010825D01*
X037183Y010744D01*
X036668Y010580D02*
X036341Y010580D01*
X036586Y010825D01*
X036586Y010335D01*
X039836Y010335D02*
X039836Y010825D01*
X039591Y015744D02*
X039673Y015825D01*
X026021Y019417D02*
X025939Y019335D01*
X025612Y019662D01*
X025939Y019662D01*
X026021Y019580D01*
X026021Y019417D01*
X025939Y019335D02*
X025612Y019335D01*
X025530Y019417D01*
X025530Y019580D01*
X025612Y019662D01*
X025021Y019662D02*
X025021Y019335D01*
X025021Y019498D02*
X024530Y019498D01*
X024694Y019335D01*
X024021Y019335D02*
X024021Y019662D01*
X024021Y019335D02*
X023694Y019662D01*
X023612Y019662D01*
X023530Y019580D01*
X023530Y019417D01*
X023612Y019335D01*
X023021Y019417D02*
X022939Y019335D01*
X023021Y019417D02*
X023021Y019580D01*
X022939Y019662D01*
X022857Y019662D01*
X022776Y019580D01*
X022776Y019498D01*
X022776Y019580D02*
X022694Y019662D01*
X022612Y019662D01*
X022530Y019580D01*
X022530Y019417D01*
X022612Y019335D01*
X022021Y019580D02*
X021530Y019580D01*
X021776Y019335D01*
X021776Y019662D01*
X021021Y019580D02*
X021021Y019417D01*
X020939Y019335D01*
X020776Y019335D02*
X020694Y019498D01*
X020694Y019580D01*
X020776Y019662D01*
X020939Y019662D01*
X021021Y019580D01*
X020776Y019335D02*
X020530Y019335D01*
X020530Y019662D01*
X020021Y019580D02*
X020021Y019417D01*
X019939Y019335D01*
X019776Y019335D01*
X019776Y019580D01*
X019857Y019662D01*
X019939Y019662D01*
X020021Y019580D01*
X019776Y019335D02*
X019612Y019498D01*
X019530Y019662D01*
X019021Y019335D02*
X018939Y019335D01*
X018612Y019662D01*
X018530Y019662D01*
X018530Y019335D01*
X017521Y019417D02*
X017439Y019335D01*
X017357Y019335D01*
X017276Y019417D01*
X017276Y019580D01*
X017357Y019662D01*
X017439Y019662D01*
X017521Y019580D01*
X017521Y019417D01*
X017276Y019417D02*
X017194Y019335D01*
X017112Y019335D01*
X017030Y019417D01*
X017030Y019580D01*
X017112Y019662D01*
X017194Y019662D01*
X017276Y019580D01*
X016521Y019580D02*
X016521Y019417D01*
X016439Y019335D01*
X016276Y019417D02*
X016276Y019662D01*
X016439Y019662D02*
X016112Y019662D01*
X016030Y019580D01*
X016030Y019417D01*
X016112Y019335D01*
X016194Y019335D01*
X016276Y019417D01*
X016521Y019580D02*
X016439Y019662D01*
X015521Y019596D02*
X015521Y019432D01*
X015439Y019351D01*
X015112Y019678D01*
X015439Y019678D01*
X015521Y019596D01*
X015439Y019351D02*
X015112Y019351D01*
X015030Y019432D01*
X015030Y019596D01*
X015112Y019678D01*
X014521Y019678D02*
X014521Y019351D01*
X014521Y019514D02*
X014030Y019514D01*
X014194Y019351D01*
X014521Y019162D02*
X014521Y018835D01*
X014521Y018998D02*
X014030Y018998D01*
X014194Y018835D01*
X013521Y018835D02*
X013521Y019162D01*
X013521Y018998D02*
X013030Y018998D01*
X013194Y018835D01*
X013112Y019351D02*
X013030Y019432D01*
X013030Y019596D01*
X013112Y019678D01*
X013194Y019678D01*
X013521Y019351D01*
X013521Y019678D01*
X012521Y019596D02*
X012521Y019432D01*
X012439Y019351D01*
X012521Y019162D02*
X012521Y018835D01*
X012521Y018998D02*
X012030Y018998D01*
X012194Y018835D01*
X011563Y018735D02*
X011482Y018817D01*
X011318Y018817D01*
X011318Y018653D01*
X011155Y018490D02*
X011482Y018490D01*
X011563Y018572D01*
X011563Y018735D01*
X011563Y019005D02*
X011073Y019005D01*
X011563Y019332D01*
X011073Y019332D01*
X011073Y019521D02*
X011073Y019766D01*
X011155Y019848D01*
X011482Y019848D01*
X011563Y019766D01*
X011563Y019521D01*
X011073Y019521D01*
X011155Y018817D02*
X011073Y018735D01*
X011073Y018572D01*
X011155Y018490D01*
X012030Y019432D02*
X012030Y019596D01*
X012112Y019678D01*
X012194Y019678D01*
X012276Y019596D01*
X012357Y019678D01*
X012439Y019678D01*
X012521Y019596D01*
X012276Y019596D02*
X012276Y019514D01*
X012112Y019351D02*
X012030Y019432D01*
X015030Y018998D02*
X015521Y018998D01*
X015521Y018835D02*
X015521Y019162D01*
X015194Y018835D02*
X015030Y018998D01*
D15*
X036841Y021063D02*
X036899Y021005D01*
X037016Y021005D01*
X037074Y021063D01*
X037074Y021180D01*
X037016Y021239D01*
X036957Y021239D01*
X036841Y021180D01*
X036841Y021355D01*
X037074Y021355D01*
X037246Y021355D02*
X037246Y021122D01*
X037363Y021005D01*
X037479Y021122D01*
X037479Y021355D01*
D16*
X035676Y020550D02*
X035678Y020600D01*
X035684Y020650D01*
X035694Y020699D01*
X035708Y020747D01*
X035725Y020794D01*
X035746Y020839D01*
X035771Y020883D01*
X035799Y020924D01*
X035831Y020963D01*
X035865Y021000D01*
X035902Y021034D01*
X035942Y021064D01*
X035984Y021091D01*
X036028Y021115D01*
X036074Y021136D01*
X036121Y021152D01*
X036169Y021165D01*
X036219Y021174D01*
X036268Y021179D01*
X036319Y021180D01*
X036369Y021177D01*
X036418Y021170D01*
X036467Y021159D01*
X036515Y021144D01*
X036561Y021126D01*
X036606Y021104D01*
X036649Y021078D01*
X036690Y021049D01*
X036729Y021017D01*
X036765Y020982D01*
X036797Y020944D01*
X036827Y020904D01*
X036854Y020861D01*
X036877Y020817D01*
X036896Y020771D01*
X036912Y020723D01*
X036924Y020674D01*
X036932Y020625D01*
X036936Y020575D01*
X036936Y020525D01*
X036932Y020475D01*
X036924Y020426D01*
X036912Y020377D01*
X036896Y020329D01*
X036877Y020283D01*
X036854Y020239D01*
X036827Y020196D01*
X036797Y020156D01*
X036765Y020118D01*
X036729Y020083D01*
X036690Y020051D01*
X036649Y020022D01*
X036606Y019996D01*
X036561Y019974D01*
X036515Y019956D01*
X036467Y019941D01*
X036418Y019930D01*
X036369Y019923D01*
X036319Y019920D01*
X036268Y019921D01*
X036219Y019926D01*
X036169Y019935D01*
X036121Y019948D01*
X036074Y019964D01*
X036028Y019985D01*
X035984Y020009D01*
X035942Y020036D01*
X035902Y020066D01*
X035865Y020100D01*
X035831Y020137D01*
X035799Y020176D01*
X035771Y020217D01*
X035746Y020261D01*
X035725Y020306D01*
X035708Y020353D01*
X035694Y020401D01*
X035684Y020450D01*
X035678Y020500D01*
X035676Y020550D01*
X026176Y014550D02*
X026178Y014600D01*
X026184Y014650D01*
X026194Y014699D01*
X026208Y014747D01*
X026225Y014794D01*
X026246Y014839D01*
X026271Y014883D01*
X026299Y014924D01*
X026331Y014963D01*
X026365Y015000D01*
X026402Y015034D01*
X026442Y015064D01*
X026484Y015091D01*
X026528Y015115D01*
X026574Y015136D01*
X026621Y015152D01*
X026669Y015165D01*
X026719Y015174D01*
X026768Y015179D01*
X026819Y015180D01*
X026869Y015177D01*
X026918Y015170D01*
X026967Y015159D01*
X027015Y015144D01*
X027061Y015126D01*
X027106Y015104D01*
X027149Y015078D01*
X027190Y015049D01*
X027229Y015017D01*
X027265Y014982D01*
X027297Y014944D01*
X027327Y014904D01*
X027354Y014861D01*
X027377Y014817D01*
X027396Y014771D01*
X027412Y014723D01*
X027424Y014674D01*
X027432Y014625D01*
X027436Y014575D01*
X027436Y014525D01*
X027432Y014475D01*
X027424Y014426D01*
X027412Y014377D01*
X027396Y014329D01*
X027377Y014283D01*
X027354Y014239D01*
X027327Y014196D01*
X027297Y014156D01*
X027265Y014118D01*
X027229Y014083D01*
X027190Y014051D01*
X027149Y014022D01*
X027106Y013996D01*
X027061Y013974D01*
X027015Y013956D01*
X026967Y013941D01*
X026918Y013930D01*
X026869Y013923D01*
X026819Y013920D01*
X026768Y013921D01*
X026719Y013926D01*
X026669Y013935D01*
X026621Y013948D01*
X026574Y013964D01*
X026528Y013985D01*
X026484Y014009D01*
X026442Y014036D01*
X026402Y014066D01*
X026365Y014100D01*
X026331Y014137D01*
X026299Y014176D01*
X026271Y014217D01*
X026246Y014261D01*
X026225Y014306D01*
X026208Y014353D01*
X026194Y014401D01*
X026184Y014450D01*
X026178Y014500D01*
X026176Y014550D01*
X011761Y011495D02*
X011485Y011495D01*
X011457Y011493D01*
X011429Y011488D01*
X011402Y011478D01*
X011377Y011466D01*
X011353Y011450D01*
X011332Y011431D01*
X011313Y011410D01*
X011297Y011387D01*
X011285Y011361D01*
X011275Y011334D01*
X011270Y011306D01*
X011268Y011278D01*
X011270Y011250D01*
X011275Y011222D01*
X011285Y011195D01*
X011297Y011170D01*
X011313Y011146D01*
X011332Y011125D01*
X011353Y011106D01*
X011377Y011090D01*
X011402Y011078D01*
X011429Y011068D01*
X011457Y011063D01*
X011485Y011061D01*
X011485Y011062D02*
X011761Y011062D01*
X011761Y011061D02*
X011789Y011063D01*
X011817Y011068D01*
X011844Y011078D01*
X011870Y011090D01*
X011893Y011106D01*
X011914Y011125D01*
X011933Y011146D01*
X011949Y011170D01*
X011961Y011195D01*
X011971Y011222D01*
X011976Y011250D01*
X011978Y011278D01*
X011976Y011306D01*
X011971Y011334D01*
X011961Y011361D01*
X011949Y011387D01*
X011933Y011410D01*
X011914Y011431D01*
X011893Y011450D01*
X011870Y011466D01*
X011844Y011478D01*
X011817Y011488D01*
X011789Y011493D01*
X011761Y011495D01*
X011416Y011278D02*
X011418Y011307D01*
X011424Y011335D01*
X011433Y011363D01*
X011446Y011389D01*
X011463Y011412D01*
X011482Y011434D01*
X011504Y011453D01*
X011529Y011468D01*
X011555Y011481D01*
X011583Y011489D01*
X011611Y011494D01*
X011640Y011495D01*
X011669Y011492D01*
X011697Y011485D01*
X011724Y011475D01*
X011750Y011461D01*
X011773Y011444D01*
X011794Y011424D01*
X011812Y011401D01*
X011827Y011376D01*
X011838Y011349D01*
X011846Y011321D01*
X011850Y011292D01*
X011850Y011264D01*
X011846Y011235D01*
X011838Y011207D01*
X011827Y011180D01*
X011812Y011155D01*
X011794Y011132D01*
X011773Y011112D01*
X011750Y011095D01*
X011724Y011081D01*
X011697Y011071D01*
X011669Y011064D01*
X011640Y011061D01*
X011611Y011062D01*
X011583Y011067D01*
X011555Y011075D01*
X011529Y011088D01*
X011504Y011103D01*
X011482Y011122D01*
X011463Y011144D01*
X011446Y011167D01*
X011433Y011193D01*
X011424Y011221D01*
X011418Y011249D01*
X011416Y011278D01*
X008325Y009605D02*
X008327Y009672D01*
X008333Y009739D01*
X008343Y009805D01*
X008356Y009871D01*
X008374Y009936D01*
X008395Y009999D01*
X008420Y010061D01*
X008449Y010122D01*
X008481Y010181D01*
X008516Y010238D01*
X008555Y010292D01*
X008597Y010345D01*
X008642Y010395D01*
X008690Y010442D01*
X008740Y010486D01*
X008793Y010527D01*
X008848Y010565D01*
X008906Y010600D01*
X008965Y010631D01*
X009026Y010658D01*
X009089Y010683D01*
X009153Y010703D01*
X009218Y010719D01*
X009283Y010732D01*
X009350Y010741D01*
X009417Y010746D01*
X009484Y010747D01*
X009551Y010744D01*
X009617Y010737D01*
X009684Y010726D01*
X009749Y010712D01*
X009814Y010693D01*
X009877Y010671D01*
X009939Y010645D01*
X009999Y010616D01*
X010057Y010583D01*
X010114Y010546D01*
X010168Y010507D01*
X010219Y010464D01*
X010269Y010418D01*
X010315Y010370D01*
X010358Y010319D01*
X010399Y010265D01*
X010436Y010210D01*
X010470Y010152D01*
X010500Y010092D01*
X010527Y010030D01*
X010550Y009967D01*
X010569Y009903D01*
X010585Y009838D01*
X010597Y009772D01*
X010605Y009705D01*
X010609Y009639D01*
X010609Y009571D01*
X010605Y009505D01*
X010597Y009438D01*
X010585Y009372D01*
X010569Y009307D01*
X010550Y009243D01*
X010527Y009180D01*
X010500Y009118D01*
X010470Y009058D01*
X010436Y009000D01*
X010399Y008945D01*
X010358Y008891D01*
X010315Y008840D01*
X010269Y008792D01*
X010219Y008746D01*
X010168Y008703D01*
X010114Y008664D01*
X010057Y008627D01*
X009999Y008594D01*
X009939Y008565D01*
X009877Y008539D01*
X009814Y008517D01*
X009749Y008498D01*
X009684Y008484D01*
X009617Y008473D01*
X009551Y008466D01*
X009484Y008463D01*
X009417Y008464D01*
X009350Y008469D01*
X009283Y008478D01*
X009218Y008491D01*
X009153Y008507D01*
X009089Y008527D01*
X009026Y008552D01*
X008965Y008579D01*
X008906Y008610D01*
X008848Y008645D01*
X008793Y008683D01*
X008740Y008724D01*
X008690Y008768D01*
X008642Y008815D01*
X008597Y008865D01*
X008555Y008918D01*
X008516Y008972D01*
X008481Y009029D01*
X008449Y009088D01*
X008420Y009149D01*
X008395Y009211D01*
X008374Y009274D01*
X008356Y009339D01*
X008343Y009405D01*
X008333Y009471D01*
X008327Y009538D01*
X008325Y009605D01*
X011485Y008148D02*
X011761Y008148D01*
X011761Y008149D02*
X011789Y008147D01*
X011817Y008142D01*
X011844Y008132D01*
X011870Y008120D01*
X011893Y008104D01*
X011914Y008085D01*
X011933Y008064D01*
X011949Y008040D01*
X011961Y008015D01*
X011971Y007988D01*
X011976Y007960D01*
X011978Y007932D01*
X011976Y007904D01*
X011971Y007876D01*
X011961Y007849D01*
X011949Y007824D01*
X011933Y007800D01*
X011914Y007779D01*
X011893Y007760D01*
X011870Y007744D01*
X011844Y007732D01*
X011817Y007722D01*
X011789Y007717D01*
X011761Y007715D01*
X011485Y007715D01*
X011457Y007717D01*
X011429Y007722D01*
X011402Y007732D01*
X011377Y007744D01*
X011353Y007760D01*
X011332Y007779D01*
X011313Y007800D01*
X011297Y007824D01*
X011285Y007849D01*
X011275Y007876D01*
X011270Y007904D01*
X011268Y007932D01*
X011270Y007960D01*
X011275Y007988D01*
X011285Y008015D01*
X011297Y008041D01*
X011313Y008064D01*
X011332Y008085D01*
X011353Y008104D01*
X011377Y008120D01*
X011402Y008132D01*
X011429Y008142D01*
X011457Y008147D01*
X011485Y008149D01*
X011416Y007932D02*
X011418Y007961D01*
X011424Y007989D01*
X011433Y008017D01*
X011446Y008043D01*
X011463Y008066D01*
X011482Y008088D01*
X011504Y008107D01*
X011529Y008122D01*
X011555Y008135D01*
X011583Y008143D01*
X011611Y008148D01*
X011640Y008149D01*
X011669Y008146D01*
X011697Y008139D01*
X011724Y008129D01*
X011750Y008115D01*
X011773Y008098D01*
X011794Y008078D01*
X011812Y008055D01*
X011827Y008030D01*
X011838Y008003D01*
X011846Y007975D01*
X011850Y007946D01*
X011850Y007918D01*
X011846Y007889D01*
X011838Y007861D01*
X011827Y007834D01*
X011812Y007809D01*
X011794Y007786D01*
X011773Y007766D01*
X011750Y007749D01*
X011724Y007735D01*
X011697Y007725D01*
X011669Y007718D01*
X011640Y007715D01*
X011611Y007716D01*
X011583Y007721D01*
X011555Y007729D01*
X011529Y007742D01*
X011504Y007757D01*
X011482Y007776D01*
X011463Y007798D01*
X011446Y007821D01*
X011433Y007847D01*
X011424Y007875D01*
X011418Y007903D01*
X011416Y007932D01*
X005676Y001550D02*
X005678Y001600D01*
X005684Y001650D01*
X005694Y001699D01*
X005708Y001747D01*
X005725Y001794D01*
X005746Y001839D01*
X005771Y001883D01*
X005799Y001924D01*
X005831Y001963D01*
X005865Y002000D01*
X005902Y002034D01*
X005942Y002064D01*
X005984Y002091D01*
X006028Y002115D01*
X006074Y002136D01*
X006121Y002152D01*
X006169Y002165D01*
X006219Y002174D01*
X006268Y002179D01*
X006319Y002180D01*
X006369Y002177D01*
X006418Y002170D01*
X006467Y002159D01*
X006515Y002144D01*
X006561Y002126D01*
X006606Y002104D01*
X006649Y002078D01*
X006690Y002049D01*
X006729Y002017D01*
X006765Y001982D01*
X006797Y001944D01*
X006827Y001904D01*
X006854Y001861D01*
X006877Y001817D01*
X006896Y001771D01*
X006912Y001723D01*
X006924Y001674D01*
X006932Y001625D01*
X006936Y001575D01*
X006936Y001525D01*
X006932Y001475D01*
X006924Y001426D01*
X006912Y001377D01*
X006896Y001329D01*
X006877Y001283D01*
X006854Y001239D01*
X006827Y001196D01*
X006797Y001156D01*
X006765Y001118D01*
X006729Y001083D01*
X006690Y001051D01*
X006649Y001022D01*
X006606Y000996D01*
X006561Y000974D01*
X006515Y000956D01*
X006467Y000941D01*
X006418Y000930D01*
X006369Y000923D01*
X006319Y000920D01*
X006268Y000921D01*
X006219Y000926D01*
X006169Y000935D01*
X006121Y000948D01*
X006074Y000964D01*
X006028Y000985D01*
X005984Y001009D01*
X005942Y001036D01*
X005902Y001066D01*
X005865Y001100D01*
X005831Y001137D01*
X005799Y001176D01*
X005771Y001217D01*
X005746Y001261D01*
X005725Y001306D01*
X005708Y001353D01*
X005694Y001401D01*
X005684Y001450D01*
X005678Y001500D01*
X005676Y001550D01*
X003361Y001731D02*
X003363Y001779D01*
X003369Y001827D01*
X003379Y001874D01*
X003392Y001920D01*
X003410Y001965D01*
X003430Y002009D01*
X003455Y002051D01*
X003483Y002090D01*
X003513Y002127D01*
X003547Y002161D01*
X003584Y002193D01*
X003622Y002222D01*
X003663Y002247D01*
X003706Y002269D01*
X003751Y002287D01*
X003797Y002301D01*
X003844Y002312D01*
X003892Y002319D01*
X003940Y002322D01*
X003988Y002321D01*
X004036Y002316D01*
X004084Y002307D01*
X004130Y002295D01*
X004175Y002278D01*
X004219Y002258D01*
X004261Y002235D01*
X004301Y002208D01*
X004339Y002178D01*
X004374Y002145D01*
X004406Y002109D01*
X004436Y002071D01*
X004462Y002030D01*
X004484Y001987D01*
X004504Y001943D01*
X004519Y001898D01*
X004531Y001851D01*
X004539Y001803D01*
X004543Y001755D01*
X004543Y001707D01*
X004539Y001659D01*
X004531Y001611D01*
X004519Y001564D01*
X004504Y001519D01*
X004484Y001475D01*
X004462Y001432D01*
X004436Y001391D01*
X004406Y001353D01*
X004374Y001317D01*
X004339Y001284D01*
X004301Y001254D01*
X004261Y001227D01*
X004219Y001204D01*
X004175Y001184D01*
X004130Y001167D01*
X004084Y001155D01*
X004036Y001146D01*
X003988Y001141D01*
X003940Y001140D01*
X003892Y001143D01*
X003844Y001150D01*
X003797Y001161D01*
X003751Y001175D01*
X003706Y001193D01*
X003663Y001215D01*
X003622Y001240D01*
X003584Y001269D01*
X003547Y001301D01*
X003513Y001335D01*
X003483Y001372D01*
X003455Y001411D01*
X003430Y001453D01*
X003410Y001497D01*
X003392Y001542D01*
X003379Y001588D01*
X003369Y001635D01*
X003363Y001683D01*
X003361Y001731D01*
X026176Y003550D02*
X026178Y003600D01*
X026184Y003650D01*
X026194Y003699D01*
X026208Y003747D01*
X026225Y003794D01*
X026246Y003839D01*
X026271Y003883D01*
X026299Y003924D01*
X026331Y003963D01*
X026365Y004000D01*
X026402Y004034D01*
X026442Y004064D01*
X026484Y004091D01*
X026528Y004115D01*
X026574Y004136D01*
X026621Y004152D01*
X026669Y004165D01*
X026719Y004174D01*
X026768Y004179D01*
X026819Y004180D01*
X026869Y004177D01*
X026918Y004170D01*
X026967Y004159D01*
X027015Y004144D01*
X027061Y004126D01*
X027106Y004104D01*
X027149Y004078D01*
X027190Y004049D01*
X027229Y004017D01*
X027265Y003982D01*
X027297Y003944D01*
X027327Y003904D01*
X027354Y003861D01*
X027377Y003817D01*
X027396Y003771D01*
X027412Y003723D01*
X027424Y003674D01*
X027432Y003625D01*
X027436Y003575D01*
X027436Y003525D01*
X027432Y003475D01*
X027424Y003426D01*
X027412Y003377D01*
X027396Y003329D01*
X027377Y003283D01*
X027354Y003239D01*
X027327Y003196D01*
X027297Y003156D01*
X027265Y003118D01*
X027229Y003083D01*
X027190Y003051D01*
X027149Y003022D01*
X027106Y002996D01*
X027061Y002974D01*
X027015Y002956D01*
X026967Y002941D01*
X026918Y002930D01*
X026869Y002923D01*
X026819Y002920D01*
X026768Y002921D01*
X026719Y002926D01*
X026669Y002935D01*
X026621Y002948D01*
X026574Y002964D01*
X026528Y002985D01*
X026484Y003009D01*
X026442Y003036D01*
X026402Y003066D01*
X026365Y003100D01*
X026331Y003137D01*
X026299Y003176D01*
X026271Y003217D01*
X026246Y003261D01*
X026225Y003306D01*
X026208Y003353D01*
X026194Y003401D01*
X026184Y003450D01*
X026178Y003500D01*
X026176Y003550D01*
X038176Y001550D02*
X038178Y001600D01*
X038184Y001650D01*
X038194Y001699D01*
X038208Y001747D01*
X038225Y001794D01*
X038246Y001839D01*
X038271Y001883D01*
X038299Y001924D01*
X038331Y001963D01*
X038365Y002000D01*
X038402Y002034D01*
X038442Y002064D01*
X038484Y002091D01*
X038528Y002115D01*
X038574Y002136D01*
X038621Y002152D01*
X038669Y002165D01*
X038719Y002174D01*
X038768Y002179D01*
X038819Y002180D01*
X038869Y002177D01*
X038918Y002170D01*
X038967Y002159D01*
X039015Y002144D01*
X039061Y002126D01*
X039106Y002104D01*
X039149Y002078D01*
X039190Y002049D01*
X039229Y002017D01*
X039265Y001982D01*
X039297Y001944D01*
X039327Y001904D01*
X039354Y001861D01*
X039377Y001817D01*
X039396Y001771D01*
X039412Y001723D01*
X039424Y001674D01*
X039432Y001625D01*
X039436Y001575D01*
X039436Y001525D01*
X039432Y001475D01*
X039424Y001426D01*
X039412Y001377D01*
X039396Y001329D01*
X039377Y001283D01*
X039354Y001239D01*
X039327Y001196D01*
X039297Y001156D01*
X039265Y001118D01*
X039229Y001083D01*
X039190Y001051D01*
X039149Y001022D01*
X039106Y000996D01*
X039061Y000974D01*
X039015Y000956D01*
X038967Y000941D01*
X038918Y000930D01*
X038869Y000923D01*
X038819Y000920D01*
X038768Y000921D01*
X038719Y000926D01*
X038669Y000935D01*
X038621Y000948D01*
X038574Y000964D01*
X038528Y000985D01*
X038484Y001009D01*
X038442Y001036D01*
X038402Y001066D01*
X038365Y001100D01*
X038331Y001137D01*
X038299Y001176D01*
X038271Y001217D01*
X038246Y001261D01*
X038225Y001306D01*
X038208Y001353D01*
X038194Y001401D01*
X038184Y001450D01*
X038178Y001500D01*
X038176Y001550D01*
X003361Y020314D02*
X003363Y020362D01*
X003369Y020410D01*
X003379Y020457D01*
X003392Y020503D01*
X003410Y020548D01*
X003430Y020592D01*
X003455Y020634D01*
X003483Y020673D01*
X003513Y020710D01*
X003547Y020744D01*
X003584Y020776D01*
X003622Y020805D01*
X003663Y020830D01*
X003706Y020852D01*
X003751Y020870D01*
X003797Y020884D01*
X003844Y020895D01*
X003892Y020902D01*
X003940Y020905D01*
X003988Y020904D01*
X004036Y020899D01*
X004084Y020890D01*
X004130Y020878D01*
X004175Y020861D01*
X004219Y020841D01*
X004261Y020818D01*
X004301Y020791D01*
X004339Y020761D01*
X004374Y020728D01*
X004406Y020692D01*
X004436Y020654D01*
X004462Y020613D01*
X004484Y020570D01*
X004504Y020526D01*
X004519Y020481D01*
X004531Y020434D01*
X004539Y020386D01*
X004543Y020338D01*
X004543Y020290D01*
X004539Y020242D01*
X004531Y020194D01*
X004519Y020147D01*
X004504Y020102D01*
X004484Y020058D01*
X004462Y020015D01*
X004436Y019974D01*
X004406Y019936D01*
X004374Y019900D01*
X004339Y019867D01*
X004301Y019837D01*
X004261Y019810D01*
X004219Y019787D01*
X004175Y019767D01*
X004130Y019750D01*
X004084Y019738D01*
X004036Y019729D01*
X003988Y019724D01*
X003940Y019723D01*
X003892Y019726D01*
X003844Y019733D01*
X003797Y019744D01*
X003751Y019758D01*
X003706Y019776D01*
X003663Y019798D01*
X003622Y019823D01*
X003584Y019852D01*
X003547Y019884D01*
X003513Y019918D01*
X003483Y019955D01*
X003455Y019994D01*
X003430Y020036D01*
X003410Y020080D01*
X003392Y020125D01*
X003379Y020171D01*
X003369Y020218D01*
X003363Y020266D01*
X003361Y020314D01*
X006176Y020550D02*
X006178Y020600D01*
X006184Y020650D01*
X006194Y020699D01*
X006208Y020747D01*
X006225Y020794D01*
X006246Y020839D01*
X006271Y020883D01*
X006299Y020924D01*
X006331Y020963D01*
X006365Y021000D01*
X006402Y021034D01*
X006442Y021064D01*
X006484Y021091D01*
X006528Y021115D01*
X006574Y021136D01*
X006621Y021152D01*
X006669Y021165D01*
X006719Y021174D01*
X006768Y021179D01*
X006819Y021180D01*
X006869Y021177D01*
X006918Y021170D01*
X006967Y021159D01*
X007015Y021144D01*
X007061Y021126D01*
X007106Y021104D01*
X007149Y021078D01*
X007190Y021049D01*
X007229Y021017D01*
X007265Y020982D01*
X007297Y020944D01*
X007327Y020904D01*
X007354Y020861D01*
X007377Y020817D01*
X007396Y020771D01*
X007412Y020723D01*
X007424Y020674D01*
X007432Y020625D01*
X007436Y020575D01*
X007436Y020525D01*
X007432Y020475D01*
X007424Y020426D01*
X007412Y020377D01*
X007396Y020329D01*
X007377Y020283D01*
X007354Y020239D01*
X007327Y020196D01*
X007297Y020156D01*
X007265Y020118D01*
X007229Y020083D01*
X007190Y020051D01*
X007149Y020022D01*
X007106Y019996D01*
X007061Y019974D01*
X007015Y019956D01*
X006967Y019941D01*
X006918Y019930D01*
X006869Y019923D01*
X006819Y019920D01*
X006768Y019921D01*
X006719Y019926D01*
X006669Y019935D01*
X006621Y019948D01*
X006574Y019964D01*
X006528Y019985D01*
X006484Y020009D01*
X006442Y020036D01*
X006402Y020066D01*
X006365Y020100D01*
X006331Y020137D01*
X006299Y020176D01*
X006271Y020217D01*
X006246Y020261D01*
X006225Y020306D01*
X006208Y020353D01*
X006194Y020401D01*
X006184Y020450D01*
X006178Y020500D01*
X006176Y020550D01*
D17*
X006235Y018637D02*
X006235Y018330D01*
X006235Y018483D02*
X005775Y018483D01*
X005928Y018330D01*
X005851Y018177D02*
X005775Y018100D01*
X005775Y017870D01*
X006235Y017870D01*
X006235Y018100D01*
X006158Y018177D01*
X005851Y018177D01*
X006552Y018369D02*
X006552Y016589D01*
X008052Y016589D02*
X008052Y018369D01*
X008188Y017920D02*
X008418Y017920D01*
X008495Y017843D01*
X008495Y017690D01*
X008418Y017613D01*
X008188Y017613D01*
X008188Y017460D02*
X008188Y017920D01*
X008649Y017843D02*
X008649Y017536D01*
X008725Y017460D01*
X008879Y017460D01*
X008955Y017536D01*
X008955Y017843D01*
X008879Y017920D01*
X008725Y017920D01*
X008649Y017843D01*
X009109Y017920D02*
X009109Y017460D01*
X009262Y017613D01*
X009416Y017460D01*
X009416Y017920D01*
X009569Y017920D02*
X009569Y017460D01*
X009876Y017460D01*
X010030Y017460D02*
X010030Y017920D01*
X010260Y017920D01*
X010337Y017843D01*
X010337Y017690D01*
X010260Y017613D01*
X010030Y017613D01*
X010183Y017613D02*
X010337Y017460D01*
X009876Y017920D02*
X009569Y017920D01*
X009569Y017690D02*
X009723Y017690D01*
X011613Y017499D02*
X011767Y017499D01*
X011690Y017499D02*
X011690Y017960D01*
X011613Y017960D02*
X011767Y017960D01*
X011920Y017883D02*
X011920Y017576D01*
X011997Y017499D01*
X012150Y017499D01*
X012227Y017576D01*
X012227Y017883D01*
X012150Y017960D01*
X011997Y017960D01*
X011920Y017883D01*
X013291Y016481D02*
X013231Y016421D01*
X013231Y016301D01*
X013291Y016241D01*
X013531Y016241D01*
X013591Y016301D01*
X013591Y016421D01*
X013531Y016481D01*
X013291Y016481D01*
X013231Y016116D02*
X013231Y015996D01*
X013231Y016056D02*
X013591Y016056D01*
X013591Y015996D02*
X013591Y016116D01*
X013411Y015867D02*
X013411Y015627D01*
X013231Y015499D02*
X013231Y015259D01*
X013231Y015379D02*
X013591Y015379D01*
X013531Y015131D02*
X013231Y015131D01*
X013231Y014891D02*
X013531Y014891D01*
X013591Y014951D01*
X013591Y015071D01*
X013531Y015131D01*
X014236Y013714D02*
X014176Y013653D01*
X014176Y013533D01*
X014236Y013473D01*
X014476Y013473D01*
X014536Y013533D01*
X014536Y013653D01*
X014476Y013714D01*
X014236Y013714D01*
X014176Y013348D02*
X014176Y013228D01*
X014176Y013288D02*
X014536Y013288D01*
X014536Y013228D02*
X014536Y013348D01*
X014356Y013100D02*
X014356Y012859D01*
X014176Y012731D02*
X014176Y012491D01*
X014176Y012611D02*
X014536Y012611D01*
X014536Y012363D02*
X014536Y012123D01*
X014176Y012123D01*
X010717Y012144D02*
X010717Y012384D01*
X010717Y012512D02*
X010357Y012512D01*
X010537Y012512D02*
X010537Y012753D01*
X010537Y012881D02*
X010537Y013121D01*
X010597Y013249D02*
X010597Y013429D01*
X010537Y013489D01*
X010417Y013489D01*
X010357Y013429D01*
X010357Y013249D01*
X010717Y013249D01*
X010717Y012753D02*
X010357Y012753D01*
X010357Y012144D02*
X010717Y012144D01*
X008150Y013244D02*
X008150Y013397D01*
X008073Y013474D01*
X008150Y013627D02*
X007843Y013934D01*
X007766Y013934D01*
X007690Y013858D01*
X007690Y013704D01*
X007766Y013627D01*
X007766Y013474D02*
X007690Y013397D01*
X007690Y013244D01*
X007766Y013167D01*
X008073Y013167D01*
X008150Y013244D01*
X007637Y013168D02*
X007637Y011278D01*
X006731Y011278D01*
X005983Y011278D02*
X005078Y011278D01*
X005078Y013168D01*
X005747Y013837D01*
X005983Y013837D01*
X006731Y013837D02*
X006967Y013837D01*
X007637Y013168D01*
X008150Y013627D02*
X008150Y013934D01*
X010396Y014900D02*
X010697Y014900D01*
X010757Y014960D01*
X010757Y015080D01*
X010697Y015140D01*
X010396Y015140D01*
X010396Y015268D02*
X010757Y015268D01*
X010577Y015268D02*
X010577Y015508D01*
X010577Y015637D02*
X010577Y015877D01*
X010637Y016005D02*
X010637Y016185D01*
X010577Y016245D01*
X010457Y016245D01*
X010396Y016185D01*
X010396Y016005D01*
X010757Y016005D01*
X010757Y015508D02*
X010396Y015508D01*
X005983Y013719D02*
X005919Y013697D01*
X005856Y013670D01*
X005794Y013640D01*
X005735Y013607D01*
X005677Y013571D01*
X005621Y013531D01*
X005568Y013488D01*
X005517Y013443D01*
X005469Y013395D01*
X005424Y013344D01*
X005381Y013290D01*
X005342Y013234D01*
X005305Y013177D01*
X005272Y013117D01*
X005243Y013055D01*
X005217Y012992D01*
X005194Y012928D01*
X005175Y012862D01*
X005160Y012795D01*
X005149Y012728D01*
X005141Y012660D01*
X005137Y012592D01*
X005137Y012524D01*
X005141Y012456D01*
X005149Y012388D01*
X005160Y012321D01*
X005175Y012254D01*
X005194Y012188D01*
X005217Y012124D01*
X005243Y012061D01*
X005272Y011999D01*
X005305Y011939D01*
X005342Y011882D01*
X005381Y011826D01*
X005424Y011772D01*
X005469Y011721D01*
X005517Y011673D01*
X005568Y011628D01*
X005621Y011585D01*
X005677Y011545D01*
X005735Y011509D01*
X005794Y011476D01*
X005856Y011446D01*
X005919Y011419D01*
X005983Y011397D01*
X006731Y011397D02*
X006795Y011419D01*
X006858Y011446D01*
X006920Y011476D01*
X006979Y011509D01*
X007037Y011545D01*
X007093Y011585D01*
X007146Y011628D01*
X007197Y011673D01*
X007245Y011721D01*
X007290Y011772D01*
X007333Y011826D01*
X007372Y011882D01*
X007409Y011939D01*
X007442Y011999D01*
X007471Y012061D01*
X007497Y012124D01*
X007520Y012188D01*
X007539Y012254D01*
X007554Y012321D01*
X007565Y012388D01*
X007573Y012456D01*
X007577Y012524D01*
X007577Y012592D01*
X007573Y012660D01*
X007565Y012728D01*
X007554Y012795D01*
X007539Y012862D01*
X007520Y012928D01*
X007497Y012992D01*
X007471Y013055D01*
X007442Y013117D01*
X007409Y013177D01*
X007372Y013234D01*
X007333Y013290D01*
X007290Y013344D01*
X007245Y013395D01*
X007197Y013443D01*
X007146Y013488D01*
X007093Y013531D01*
X007037Y013571D01*
X006979Y013607D01*
X006920Y013640D01*
X006858Y013670D01*
X006795Y013697D01*
X006731Y013719D01*
X016086Y015328D02*
X016239Y015328D01*
X016162Y015328D02*
X016162Y015788D01*
X016086Y015788D02*
X016239Y015788D01*
X016393Y015712D02*
X016393Y015405D01*
X016469Y015328D01*
X016623Y015328D01*
X016700Y015405D01*
X016853Y015328D02*
X017160Y015328D01*
X017007Y015328D02*
X017007Y015788D01*
X016853Y015635D01*
X016700Y015712D02*
X016623Y015788D01*
X016469Y015788D01*
X016393Y015712D01*
X017768Y015608D02*
X017768Y015838D01*
X017845Y015915D01*
X017999Y015915D01*
X018075Y015838D01*
X018075Y015608D01*
X018075Y015761D02*
X018229Y015915D01*
X018229Y016068D02*
X018229Y016375D01*
X018229Y016222D02*
X017768Y016222D01*
X017922Y016068D01*
X017768Y015608D02*
X018229Y015608D01*
X019816Y015647D02*
X019816Y015877D01*
X019892Y015954D01*
X020046Y015954D01*
X020123Y015877D01*
X020123Y015647D01*
X020276Y015647D02*
X019816Y015647D01*
X020123Y015801D02*
X020276Y015954D01*
X020199Y016108D02*
X020276Y016184D01*
X020276Y016338D01*
X020199Y016415D01*
X020123Y016415D01*
X020046Y016338D01*
X020046Y016261D01*
X020046Y016338D02*
X019969Y016415D01*
X019892Y016415D01*
X019816Y016338D01*
X019816Y016184D01*
X019892Y016108D01*
X021283Y015828D02*
X021436Y015828D01*
X021359Y015828D02*
X021359Y015367D01*
X021283Y015367D02*
X021436Y015367D01*
X021590Y015444D02*
X021666Y015367D01*
X021820Y015367D01*
X021896Y015444D01*
X022050Y015367D02*
X022357Y015674D01*
X022357Y015751D01*
X022280Y015828D01*
X022127Y015828D01*
X022050Y015751D01*
X021896Y015751D02*
X021820Y015828D01*
X021666Y015828D01*
X021590Y015751D01*
X021590Y015444D01*
X022050Y015367D02*
X022357Y015367D01*
X023083Y015490D02*
X023083Y015720D01*
X023160Y015797D01*
X023314Y015797D01*
X023390Y015720D01*
X023390Y015490D01*
X023390Y015643D02*
X023544Y015797D01*
X023544Y015950D02*
X023237Y016257D01*
X023160Y016257D01*
X023083Y016180D01*
X023083Y016027D01*
X023160Y015950D01*
X023544Y015950D02*
X023544Y016257D01*
X023544Y015490D02*
X023083Y015490D01*
X025249Y015529D02*
X025249Y015759D01*
X025325Y015836D01*
X025479Y015836D01*
X025556Y015759D01*
X025556Y015529D01*
X025709Y015529D02*
X025249Y015529D01*
X025556Y015683D02*
X025709Y015836D01*
X025479Y015990D02*
X025479Y016296D01*
X025709Y016220D02*
X025249Y016220D01*
X025479Y015990D01*
X032400Y009534D02*
X032400Y009227D01*
X032400Y009074D02*
X032400Y008767D01*
X031940Y008767D01*
X031940Y009074D01*
X032093Y009227D02*
X031940Y009381D01*
X032400Y009381D01*
X032170Y008920D02*
X032170Y008767D01*
X021800Y004403D02*
X021800Y004163D01*
X021740Y004103D01*
X021620Y004103D01*
X021560Y004163D01*
X021560Y004403D01*
X021620Y004463D01*
X021740Y004463D01*
X021800Y004403D01*
X021435Y004463D02*
X021314Y004463D01*
X021374Y004463D02*
X021374Y004103D01*
X021314Y004103D02*
X021435Y004103D01*
X021186Y004283D02*
X020946Y004283D01*
X020818Y004283D02*
X020758Y004223D01*
X020578Y004223D01*
X020698Y004223D02*
X020818Y004103D01*
X020818Y004283D02*
X020818Y004403D01*
X020758Y004463D01*
X020578Y004463D01*
X020578Y004103D01*
X020450Y004163D02*
X020450Y004403D01*
X020390Y004463D01*
X020270Y004463D01*
X020209Y004403D01*
X020209Y004163D01*
X020270Y004103D01*
X020390Y004103D01*
X020450Y004163D01*
X020081Y004163D02*
X020081Y004223D01*
X020021Y004283D01*
X019901Y004283D01*
X019841Y004343D01*
X019841Y004403D01*
X019901Y004463D01*
X020021Y004463D01*
X020081Y004403D01*
X020081Y004163D02*
X020021Y004103D01*
X019901Y004103D01*
X019841Y004163D01*
X019713Y004103D02*
X019713Y004463D01*
X019473Y004463D02*
X019713Y004103D01*
X019473Y004103D02*
X019473Y004463D01*
X019345Y004463D02*
X019105Y004463D01*
X019105Y004103D01*
X019345Y004103D01*
X019225Y004283D02*
X019105Y004283D01*
X018976Y004223D02*
X018976Y004163D01*
X018916Y004103D01*
X018796Y004103D01*
X018736Y004163D01*
X018796Y004283D02*
X018916Y004283D01*
X018976Y004223D01*
X018976Y004403D02*
X018916Y004463D01*
X018796Y004463D01*
X018736Y004403D01*
X018736Y004343D01*
X018796Y004283D01*
X018662Y003736D02*
X018432Y003736D01*
X018432Y003275D01*
X018662Y003275D01*
X018739Y003352D01*
X018739Y003659D01*
X018662Y003736D01*
X018893Y003659D02*
X018969Y003736D01*
X019123Y003736D01*
X019200Y003659D01*
X019200Y003582D01*
X018893Y003275D01*
X019200Y003275D01*
X017601Y003068D02*
X015821Y003068D01*
X015821Y004568D02*
X017601Y004568D01*
X015119Y007646D02*
X015119Y008007D01*
X015299Y008007D01*
X015359Y007947D01*
X015359Y007827D01*
X015299Y007766D01*
X015119Y007766D01*
X014991Y007827D02*
X014751Y007827D01*
X014623Y007947D02*
X014563Y008007D01*
X014382Y008007D01*
X014382Y007646D01*
X014563Y007646D01*
X014623Y007706D01*
X014623Y007947D01*
X014254Y008007D02*
X014014Y008007D01*
X014014Y007646D01*
X014254Y007646D01*
X014134Y007827D02*
X014014Y007827D01*
X013886Y007646D02*
X013646Y007646D01*
X013646Y008007D01*
X011662Y006154D02*
X011662Y005914D01*
X011662Y006034D02*
X011302Y006034D01*
X011422Y005914D01*
X011302Y005786D02*
X011662Y005546D01*
X011662Y005786D02*
X011302Y005546D01*
X010864Y003757D02*
X010911Y003710D01*
X010911Y003617D01*
X010864Y003570D01*
X010771Y003664D02*
X010771Y003710D01*
X010818Y003757D01*
X010864Y003757D01*
X010771Y003710D02*
X010724Y003757D01*
X010678Y003757D01*
X010631Y003710D01*
X010631Y003617D01*
X010678Y003570D01*
X009191Y003166D02*
X008731Y003166D01*
X008961Y002936D01*
X008961Y003243D01*
X009114Y002782D02*
X009191Y002706D01*
X009191Y002552D01*
X009114Y002475D01*
X008807Y002475D01*
X008731Y002552D01*
X008731Y002706D01*
X008807Y002782D01*
X008731Y002322D02*
X008731Y002168D01*
X008731Y002245D02*
X009191Y002245D01*
X009191Y002168D02*
X009191Y002322D01*
X010635Y002707D02*
X010681Y002660D01*
X010635Y002707D02*
X010635Y002800D01*
X010681Y002847D01*
X010728Y002847D01*
X010915Y002660D01*
X010915Y002847D01*
X010911Y001996D02*
X010911Y001809D01*
X010911Y001903D02*
X010631Y001903D01*
X010724Y001809D01*
X008071Y003918D02*
X008071Y004105D01*
X008211Y004059D02*
X007931Y004059D01*
X008071Y003918D01*
X006928Y004822D02*
X006692Y004822D01*
X006928Y004822D02*
X007597Y005491D01*
X007597Y007381D01*
X006692Y007381D01*
X005944Y007381D02*
X005038Y007381D01*
X005038Y005491D01*
X005707Y004822D01*
X005944Y004822D01*
X005944Y004940D02*
X005880Y004962D01*
X005817Y004989D01*
X005755Y005019D01*
X005696Y005052D01*
X005638Y005088D01*
X005582Y005128D01*
X005529Y005171D01*
X005478Y005216D01*
X005430Y005264D01*
X005385Y005315D01*
X005342Y005369D01*
X005303Y005425D01*
X005266Y005482D01*
X005233Y005542D01*
X005204Y005604D01*
X005178Y005667D01*
X005155Y005731D01*
X005136Y005797D01*
X005121Y005864D01*
X005110Y005931D01*
X005102Y005999D01*
X005098Y006067D01*
X005098Y006135D01*
X005102Y006203D01*
X005110Y006271D01*
X005121Y006338D01*
X005136Y006405D01*
X005155Y006471D01*
X005178Y006535D01*
X005204Y006598D01*
X005233Y006660D01*
X005266Y006720D01*
X005303Y006777D01*
X005342Y006833D01*
X005385Y006887D01*
X005430Y006938D01*
X005478Y006986D01*
X005529Y007031D01*
X005582Y007074D01*
X005638Y007114D01*
X005696Y007150D01*
X005755Y007183D01*
X005817Y007213D01*
X005880Y007240D01*
X005944Y007262D01*
X006692Y007262D02*
X006756Y007240D01*
X006819Y007213D01*
X006881Y007183D01*
X006940Y007150D01*
X006998Y007114D01*
X007054Y007074D01*
X007107Y007031D01*
X007158Y006986D01*
X007206Y006938D01*
X007251Y006887D01*
X007294Y006833D01*
X007333Y006777D01*
X007370Y006720D01*
X007403Y006660D01*
X007432Y006598D01*
X007458Y006535D01*
X007481Y006471D01*
X007500Y006405D01*
X007515Y006338D01*
X007526Y006271D01*
X007534Y006203D01*
X007538Y006135D01*
X007538Y006067D01*
X007534Y005999D01*
X007526Y005931D01*
X007515Y005864D01*
X007500Y005797D01*
X007481Y005731D01*
X007458Y005667D01*
X007432Y005604D01*
X007403Y005542D01*
X007370Y005482D01*
X007333Y005425D01*
X007294Y005369D01*
X007251Y005315D01*
X007206Y005264D01*
X007158Y005216D01*
X007107Y005171D01*
X007054Y005128D01*
X006998Y005088D01*
X006940Y005052D01*
X006881Y005019D01*
X006819Y004989D01*
X006756Y004962D01*
X006692Y004940D01*
X006277Y003391D02*
X005970Y003391D01*
X005816Y003314D02*
X005740Y003391D01*
X005586Y003391D01*
X005509Y003314D01*
X005509Y003007D01*
X005586Y002930D01*
X005740Y002930D01*
X005816Y003007D01*
X005970Y003007D02*
X005970Y002930D01*
X005970Y003007D02*
X006277Y003314D01*
X006277Y003391D01*
X002648Y001824D02*
X002341Y001363D01*
X002034Y001363D02*
X002034Y001824D01*
X001881Y001824D02*
X002188Y001824D01*
X002341Y001824D02*
X002648Y001363D01*
X001727Y001363D02*
X001727Y001670D01*
X001574Y001824D01*
X001420Y001670D01*
X001420Y001363D01*
X001420Y001594D02*
X001727Y001594D01*
D18*
X029566Y007952D02*
X029566Y008403D01*
X029566Y008797D02*
X029566Y009248D01*
X029566Y009641D02*
X029566Y010093D01*
X029566Y010486D02*
X029566Y010938D01*
X029566Y011331D02*
X029566Y011783D01*
X029566Y012176D02*
X029566Y012628D01*
X029566Y013021D02*
X029566Y013472D01*
X029566Y013866D02*
X029566Y014317D01*
X029566Y014711D02*
X029566Y015162D01*
X029566Y015556D02*
X029566Y016007D01*
X029566Y016401D02*
X029566Y016852D01*
X029566Y017246D02*
X029566Y017697D01*
X029566Y018091D02*
X029566Y018542D01*
X029959Y018542D01*
X030353Y018542D02*
X030747Y018542D01*
X031141Y018542D02*
X031534Y018542D01*
X031928Y018542D02*
X032322Y018542D01*
X032715Y018542D02*
X033109Y018542D01*
X033503Y018542D02*
X033896Y018542D01*
X034290Y018542D02*
X034684Y018542D01*
X034684Y018091D01*
X034684Y017697D02*
X034684Y017246D01*
X034684Y016852D02*
X034684Y016401D01*
X034684Y016007D02*
X034684Y015556D01*
X034684Y015162D02*
X034684Y014711D01*
X034684Y014317D02*
X034684Y013866D01*
X034684Y013472D02*
X034684Y013021D01*
X034684Y012628D02*
X034684Y012176D01*
X034684Y011783D02*
X034684Y011331D01*
X034684Y010938D02*
X034684Y010486D01*
X034684Y010093D02*
X034684Y009641D01*
X034684Y009248D02*
X034684Y008797D01*
X034684Y008403D02*
X034684Y007952D01*
X034290Y007952D01*
X033896Y007952D02*
X033503Y007952D01*
X033109Y007952D02*
X032715Y007952D01*
X032322Y007952D02*
X031928Y007952D01*
X031534Y007952D02*
X031141Y007952D01*
X030747Y007952D02*
X030353Y007952D01*
X029959Y007952D02*
X029566Y007952D01*
X039581Y019844D02*
X039581Y019994D01*
X039581Y019919D02*
X039956Y019919D01*
X040031Y019844D01*
X040031Y019769D01*
X039956Y019694D01*
X040031Y020154D02*
X039581Y020154D01*
X039581Y020379D01*
X039656Y020454D01*
X039806Y020454D01*
X039881Y020379D01*
X039881Y020154D01*
X039956Y020615D02*
X040031Y020690D01*
X040031Y020840D01*
X039956Y020915D01*
X039806Y020915D01*
X039731Y020840D01*
X039731Y020765D01*
X039806Y020615D01*
X039581Y020615D01*
X039581Y020915D01*
X005915Y017658D02*
X005915Y017358D01*
X005915Y017508D02*
X005465Y017508D01*
X005615Y017358D01*
X005465Y017198D02*
X005465Y016898D01*
X005915Y016898D01*
X005690Y016898D02*
X005690Y017048D01*
D19*
X006908Y017555D02*
X007696Y017555D01*
X007302Y017152D01*
X006908Y017555D01*
X015570Y015010D02*
X020451Y015010D01*
X020451Y011400D01*
X020846Y011400D02*
X020846Y015010D01*
X025726Y015010D01*
X025726Y011400D01*
X015571Y011400D02*
X015570Y015010D01*
X011987Y011416D02*
X011672Y011731D01*
X008719Y011731D01*
X007341Y010629D01*
X007341Y008581D02*
X008719Y007479D01*
X011672Y007479D01*
X011987Y007794D01*
X011987Y011416D01*
X009931Y004438D02*
X008531Y004438D01*
X008531Y001858D01*
X009931Y001858D01*
X009931Y004438D01*
X016635Y004211D02*
X016635Y003424D01*
X017038Y003818D01*
X016635Y004211D01*
D20*
X029926Y008286D02*
X029970Y008260D01*
X030112Y008298D01*
X030138Y008343D01*
X030110Y008450D01*
X029897Y008393D01*
X029926Y008286D01*
X029878Y008464D02*
X030090Y008521D01*
X030052Y008663D02*
X029878Y008464D01*
X029840Y008606D02*
X030052Y008663D01*
X029998Y008725D02*
X030024Y008770D01*
X030005Y008841D01*
X029960Y008867D01*
X029818Y008829D01*
X029792Y008784D01*
X029811Y008713D01*
X029856Y008687D01*
X029927Y008706D01*
X029908Y008777D01*
X034097Y008291D02*
X034123Y008246D01*
X034265Y008208D01*
X034310Y008234D01*
X034329Y008305D01*
X034303Y008350D01*
X034232Y008369D01*
X034213Y008298D01*
X034161Y008388D02*
X034116Y008362D01*
X034097Y008291D01*
X034145Y008469D02*
X034396Y008554D01*
X034183Y008611D01*
X034202Y008682D02*
X034231Y008789D01*
X034276Y008815D01*
X034418Y008777D01*
X034443Y008732D01*
X034415Y008625D01*
X034202Y008682D01*
X034145Y008469D02*
X034358Y008412D01*
X034203Y016747D02*
X034349Y016967D01*
X034128Y016857D02*
X034128Y016747D01*
X034128Y016857D02*
X034092Y016894D01*
X033982Y016894D01*
X033982Y016747D01*
X033907Y016747D02*
X033797Y016747D01*
X033761Y016784D01*
X033761Y016857D01*
X033797Y016894D01*
X033907Y016894D01*
X033687Y016784D02*
X033687Y016747D01*
X033650Y016747D01*
X033650Y016784D01*
X033687Y016784D01*
X033576Y016784D02*
X033576Y016857D01*
X033539Y016894D01*
X033466Y016894D01*
X033429Y016857D01*
X033429Y016784D01*
X033466Y016747D01*
X033539Y016747D01*
X033576Y016784D01*
X033355Y016820D02*
X033245Y016820D01*
X033208Y016784D01*
X033245Y016747D01*
X033355Y016747D01*
X033355Y016857D01*
X033318Y016894D01*
X033245Y016894D01*
X033134Y016857D02*
X033134Y016747D01*
X033061Y016747D02*
X033061Y016857D01*
X033097Y016894D01*
X033134Y016857D01*
X033061Y016857D02*
X033024Y016894D01*
X032987Y016894D01*
X032987Y016747D01*
X032913Y016747D02*
X032913Y016857D01*
X032876Y016894D01*
X032803Y016894D01*
X032803Y016820D02*
X032913Y016820D01*
X032913Y016747D02*
X032803Y016747D01*
X032766Y016784D01*
X032803Y016820D01*
X032692Y016747D02*
X032692Y016894D01*
X032545Y016894D02*
X032545Y016784D01*
X032582Y016747D01*
X032692Y016747D01*
X032471Y016747D02*
X032471Y016857D01*
X032434Y016894D01*
X032361Y016894D01*
X032324Y016857D01*
X032250Y016857D02*
X032250Y016747D01*
X032324Y016747D02*
X032324Y016967D01*
X032213Y016894D02*
X032250Y016857D01*
X032213Y016894D02*
X032103Y016894D01*
X032103Y016747D01*
X032029Y016710D02*
X032029Y016894D01*
X032029Y016967D02*
X032029Y017004D01*
X031882Y016784D02*
X031882Y016747D01*
X031845Y016747D01*
X031845Y016784D01*
X031882Y016784D01*
X031771Y016784D02*
X031771Y016894D01*
X031771Y016784D02*
X031734Y016747D01*
X031698Y016784D01*
X031661Y016747D01*
X031624Y016784D01*
X031624Y016894D01*
X031550Y016894D02*
X031550Y016784D01*
X031513Y016747D01*
X031477Y016784D01*
X031440Y016747D01*
X031403Y016784D01*
X031403Y016894D01*
X031329Y016894D02*
X031329Y016784D01*
X031292Y016747D01*
X031256Y016784D01*
X031219Y016747D01*
X031182Y016784D01*
X031182Y016894D01*
X031108Y016967D02*
X030961Y016747D01*
X030740Y016747D02*
X030887Y016967D01*
X030667Y016894D02*
X030667Y016857D01*
X030630Y016857D01*
X030630Y016894D01*
X030667Y016894D01*
X030667Y016784D02*
X030667Y016747D01*
X030630Y016747D01*
X030630Y016784D01*
X030667Y016784D01*
X030556Y016784D02*
X030519Y016747D01*
X030409Y016747D01*
X030409Y016674D02*
X030409Y016894D01*
X030519Y016894D01*
X030556Y016857D01*
X030556Y016784D01*
X030335Y016747D02*
X030298Y016784D01*
X030298Y016931D01*
X030262Y016894D02*
X030335Y016894D01*
X030188Y016894D02*
X030114Y016894D01*
X030151Y016931D02*
X030151Y016784D01*
X030188Y016747D01*
X030040Y016747D02*
X030040Y016857D01*
X030003Y016894D01*
X029930Y016894D01*
X029893Y016857D01*
X029893Y016967D02*
X029893Y016747D01*
X031956Y016674D02*
X031993Y016674D01*
X032029Y016710D01*
X006127Y016154D02*
X005327Y016154D01*
X005727Y016604D02*
X005727Y017804D01*
X005627Y017504D02*
X005627Y016904D01*
X005827Y016904D01*
X005827Y017504D01*
X005627Y017504D01*
X005327Y018254D02*
X006127Y018254D01*
D21*
X005727Y018674D03*
X005727Y015734D03*
D22*
X005948Y012499D02*
X005948Y012252D01*
X005948Y012376D02*
X005578Y012376D01*
X005702Y012252D01*
X005640Y012131D02*
X005578Y012069D01*
X005578Y011946D01*
X005640Y011884D01*
X005887Y011884D01*
X005948Y011946D01*
X005948Y012069D01*
X005887Y012131D01*
X006788Y006684D02*
X006726Y006622D01*
X006726Y006499D01*
X006788Y006437D01*
X006788Y006315D02*
X006726Y006254D01*
X006726Y006130D01*
X006788Y006069D01*
X007035Y006069D01*
X007096Y006130D01*
X007096Y006254D01*
X007035Y006315D01*
X007096Y006437D02*
X006850Y006684D01*
X006788Y006684D01*
X007096Y006684D02*
X007096Y006437D01*
X006911Y005947D02*
X006973Y005885D01*
X006973Y005700D01*
X007096Y005700D02*
X006726Y005700D01*
X006726Y005885D01*
X006788Y005947D01*
X006911Y005947D01*
X023400Y007109D02*
X023448Y007061D01*
X023545Y007061D01*
X023593Y007109D01*
X023694Y007109D02*
X023743Y007061D01*
X023839Y007061D01*
X023888Y007109D01*
X023888Y007206D01*
X023839Y007255D01*
X023791Y007255D01*
X023694Y007206D01*
X023694Y007351D01*
X023888Y007351D01*
X023593Y007303D02*
X023545Y007351D01*
X023448Y007351D01*
X023400Y007303D01*
X023400Y007109D01*
X024547Y007114D02*
X024547Y007404D01*
X024692Y007404D01*
X024741Y007356D01*
X024741Y007259D01*
X024692Y007211D01*
X024547Y007211D01*
X024644Y007211D02*
X024741Y007114D01*
X024842Y007114D02*
X024842Y007163D01*
X025035Y007356D01*
X025035Y007404D01*
X024842Y007404D01*
X025368Y007303D02*
X025368Y007109D01*
X025417Y007061D01*
X025513Y007061D01*
X025562Y007109D01*
X025663Y007206D02*
X025856Y007206D01*
X025808Y007061D02*
X025808Y007351D01*
X025663Y007206D01*
X025562Y007303D02*
X025513Y007351D01*
X025417Y007351D01*
X025368Y007303D01*
X026516Y007211D02*
X026661Y007211D01*
X026709Y007259D01*
X026709Y007356D01*
X026661Y007404D01*
X026516Y007404D01*
X026516Y007114D01*
X026613Y007211D02*
X026709Y007114D01*
X026810Y007163D02*
X026859Y007114D01*
X026956Y007114D01*
X027004Y007163D01*
X027004Y007211D01*
X026956Y007259D01*
X026810Y007259D01*
X026810Y007163D01*
X026810Y007259D02*
X026907Y007356D01*
X027004Y007404D01*
X027376Y007303D02*
X027376Y007109D01*
X027424Y007061D01*
X027521Y007061D01*
X027570Y007109D01*
X027671Y007109D02*
X027719Y007061D01*
X027816Y007061D01*
X027864Y007109D01*
X027864Y007158D01*
X027816Y007206D01*
X027767Y007206D01*
X027816Y007206D02*
X027864Y007255D01*
X027864Y007303D01*
X027816Y007351D01*
X027719Y007351D01*
X027671Y007303D01*
X027570Y007303D02*
X027521Y007351D01*
X027424Y007351D01*
X027376Y007303D01*
X028524Y007211D02*
X028669Y007211D01*
X028717Y007259D01*
X028717Y007356D01*
X028669Y007404D01*
X028524Y007404D01*
X028524Y007114D01*
X028620Y007211D02*
X028717Y007114D01*
X028818Y007163D02*
X028867Y007114D01*
X028963Y007114D01*
X029012Y007163D01*
X029012Y007259D01*
X028963Y007308D01*
X028915Y007308D01*
X028818Y007259D01*
X028818Y007404D01*
X029012Y007404D01*
X030503Y008380D02*
X030503Y008525D01*
X030552Y008573D01*
X030745Y008573D01*
X030793Y008525D01*
X030793Y008380D01*
X030503Y008380D01*
X030648Y008675D02*
X030648Y008868D01*
X030662Y009106D02*
X030711Y009106D01*
X030711Y009154D01*
X030662Y009154D01*
X030662Y009106D01*
X030561Y009154D02*
X030513Y009106D01*
X030416Y009106D01*
X030368Y009154D01*
X030464Y009251D02*
X030513Y009251D01*
X030561Y009203D01*
X030561Y009154D01*
X030513Y009251D02*
X030561Y009299D01*
X030561Y009348D01*
X030513Y009396D01*
X030416Y009396D01*
X030368Y009348D01*
X030266Y009251D02*
X030073Y009251D01*
X030170Y009348D02*
X030170Y009154D01*
X030810Y009154D02*
X030858Y009106D01*
X030955Y009106D01*
X031003Y009154D01*
X031003Y009203D01*
X030955Y009251D01*
X030906Y009251D01*
X030955Y009251D02*
X031003Y009299D01*
X031003Y009348D01*
X030955Y009396D01*
X030858Y009396D01*
X030810Y009348D01*
X031104Y009396D02*
X031104Y009203D01*
X031201Y009106D01*
X031298Y009203D01*
X031298Y009396D01*
X030759Y009696D02*
X030759Y009987D01*
X030662Y009987D02*
X030856Y009987D01*
X030561Y009938D02*
X030513Y009987D01*
X030416Y009987D01*
X030368Y009938D01*
X030368Y009890D01*
X030416Y009841D01*
X030513Y009841D01*
X030561Y009793D01*
X030561Y009745D01*
X030513Y009696D01*
X030416Y009696D01*
X030368Y009745D01*
X030266Y009696D02*
X030170Y009793D01*
X030218Y009793D02*
X030073Y009793D01*
X030073Y009696D02*
X030073Y009987D01*
X030218Y009987D01*
X030266Y009938D01*
X030266Y009841D01*
X030218Y009793D01*
X033323Y009696D02*
X033516Y009696D01*
X033617Y009696D02*
X033811Y009696D01*
X033912Y009696D02*
X034057Y009696D01*
X034106Y009745D01*
X034106Y009938D01*
X034057Y009987D01*
X033912Y009987D01*
X033912Y009696D01*
X033714Y009841D02*
X033617Y009841D01*
X033617Y009696D02*
X033617Y009987D01*
X033811Y009987D01*
X033763Y010287D02*
X033811Y010335D01*
X033811Y010529D01*
X033763Y010577D01*
X033666Y010577D01*
X033617Y010529D01*
X033617Y010335D01*
X033666Y010287D01*
X033763Y010287D01*
X033912Y010287D02*
X034106Y010480D01*
X034106Y010529D01*
X034057Y010577D01*
X033960Y010577D01*
X033912Y010529D01*
X033912Y010287D02*
X034106Y010287D01*
X033518Y010287D02*
X033421Y010287D01*
X033469Y010287D02*
X033469Y010577D01*
X033421Y010577D02*
X033518Y010577D01*
X033518Y010877D02*
X033421Y010877D01*
X033469Y010877D02*
X033469Y011168D01*
X033421Y011168D02*
X033518Y011168D01*
X033617Y011119D02*
X033617Y010926D01*
X033666Y010877D01*
X033763Y010877D01*
X033811Y010926D01*
X033811Y011119D01*
X033763Y011168D01*
X033666Y011168D01*
X033617Y011119D01*
X033912Y011119D02*
X033960Y011168D01*
X034057Y011168D01*
X034106Y011119D01*
X034106Y011071D01*
X034057Y011023D01*
X034106Y010974D01*
X034106Y010926D01*
X034057Y010877D01*
X033960Y010877D01*
X033912Y010926D01*
X034009Y011023D02*
X034057Y011023D01*
X034057Y011468D02*
X034057Y011758D01*
X033912Y011613D01*
X034106Y011613D01*
X033811Y011516D02*
X033811Y011710D01*
X033763Y011758D01*
X033666Y011758D01*
X033617Y011710D01*
X033617Y011516D01*
X033666Y011468D01*
X033763Y011468D01*
X033811Y011516D01*
X033518Y011468D02*
X033421Y011468D01*
X033469Y011468D02*
X033469Y011758D01*
X033421Y011758D02*
X033518Y011758D01*
X033518Y012059D02*
X033421Y012059D01*
X033469Y012059D02*
X033469Y012349D01*
X033421Y012349D02*
X033518Y012349D01*
X033617Y012300D02*
X033617Y012107D01*
X033666Y012059D01*
X033763Y012059D01*
X033811Y012107D01*
X033811Y012300D01*
X033763Y012349D01*
X033666Y012349D01*
X033617Y012300D01*
X033912Y012349D02*
X033912Y012204D01*
X034009Y012252D01*
X034057Y012252D01*
X034106Y012204D01*
X034106Y012107D01*
X034057Y012059D01*
X033960Y012059D01*
X033912Y012107D01*
X033912Y012349D02*
X034106Y012349D01*
X034057Y012649D02*
X034106Y012697D01*
X034106Y012746D01*
X034057Y012794D01*
X033912Y012794D01*
X033912Y012697D01*
X033960Y012649D01*
X034057Y012649D01*
X033912Y012794D02*
X034009Y012891D01*
X034106Y012939D01*
X033811Y012891D02*
X033763Y012939D01*
X033666Y012939D01*
X033617Y012891D01*
X033617Y012697D01*
X033666Y012649D01*
X033763Y012649D01*
X033811Y012697D01*
X033811Y012891D01*
X033518Y012939D02*
X033421Y012939D01*
X033469Y012939D02*
X033469Y012649D01*
X033421Y012649D02*
X033518Y012649D01*
X033518Y013240D02*
X033421Y013240D01*
X033469Y013240D02*
X033469Y013530D01*
X033421Y013530D02*
X033518Y013530D01*
X033617Y013482D02*
X033617Y013288D01*
X033666Y013240D01*
X033763Y013240D01*
X033811Y013288D01*
X033811Y013482D01*
X033763Y013530D01*
X033666Y013530D01*
X033617Y013482D01*
X033912Y013530D02*
X034106Y013530D01*
X034106Y013482D01*
X033912Y013288D01*
X033912Y013240D01*
X033960Y013830D02*
X033912Y013879D01*
X033912Y013927D01*
X033960Y013975D01*
X034057Y013975D01*
X034106Y013927D01*
X034106Y013879D01*
X034057Y013830D01*
X033960Y013830D01*
X033960Y013975D02*
X033912Y014024D01*
X033912Y014072D01*
X033960Y014120D01*
X034057Y014120D01*
X034106Y014072D01*
X034106Y014024D01*
X034057Y013975D01*
X033811Y013879D02*
X033811Y014072D01*
X033763Y014120D01*
X033666Y014120D01*
X033617Y014072D01*
X033617Y013879D01*
X033666Y013830D01*
X033763Y013830D01*
X033811Y013879D01*
X033518Y013830D02*
X033421Y013830D01*
X033469Y013830D02*
X033469Y014120D01*
X033421Y014120D02*
X033518Y014120D01*
X033518Y014421D02*
X033421Y014421D01*
X033469Y014421D02*
X033469Y014711D01*
X033421Y014711D02*
X033518Y014711D01*
X033617Y014663D02*
X033617Y014469D01*
X033666Y014421D01*
X033763Y014421D01*
X033811Y014469D01*
X033811Y014663D01*
X033763Y014711D01*
X033666Y014711D01*
X033617Y014663D01*
X033912Y014663D02*
X033912Y014614D01*
X033960Y014566D01*
X034106Y014566D01*
X034106Y014469D02*
X034106Y014663D01*
X034057Y014711D01*
X033960Y014711D01*
X033912Y014663D01*
X033912Y014469D02*
X033960Y014421D01*
X034057Y014421D01*
X034106Y014469D01*
X034057Y015011D02*
X033960Y015011D01*
X033912Y015060D01*
X034106Y015253D01*
X034106Y015060D01*
X034057Y015011D01*
X033912Y015060D02*
X033912Y015253D01*
X033960Y015302D01*
X034057Y015302D01*
X034106Y015253D01*
X034106Y015602D02*
X033912Y015602D01*
X034009Y015602D02*
X034009Y015892D01*
X033912Y015795D01*
X033811Y015602D02*
X033617Y015602D01*
X033714Y015602D02*
X033714Y015892D01*
X033617Y015795D01*
X033516Y015844D02*
X033468Y015892D01*
X033371Y015892D01*
X033323Y015844D01*
X033323Y015650D01*
X033371Y015602D01*
X033468Y015602D01*
X033516Y015650D01*
X033516Y015844D01*
X033223Y015892D02*
X033126Y015892D01*
X033175Y015892D02*
X033175Y015602D01*
X033223Y015602D02*
X033126Y015602D01*
X033126Y015302D02*
X033223Y015302D01*
X033175Y015302D02*
X033175Y015011D01*
X033223Y015011D02*
X033126Y015011D01*
X033323Y015060D02*
X033371Y015011D01*
X033468Y015011D01*
X033516Y015060D01*
X033516Y015253D01*
X033468Y015302D01*
X033371Y015302D01*
X033323Y015253D01*
X033323Y015060D01*
X033617Y015011D02*
X033811Y015011D01*
X033714Y015011D02*
X033714Y015302D01*
X033617Y015205D01*
X030856Y014663D02*
X030807Y014711D01*
X030711Y014711D01*
X030662Y014663D01*
X030662Y014614D01*
X030711Y014566D01*
X030807Y014566D01*
X030856Y014517D01*
X030856Y014469D01*
X030807Y014421D01*
X030711Y014421D01*
X030662Y014469D01*
X030464Y014421D02*
X030464Y014711D01*
X030368Y014711D02*
X030561Y014711D01*
X030266Y014663D02*
X030218Y014711D01*
X030121Y014711D01*
X030073Y014663D01*
X030073Y014469D01*
X030121Y014421D01*
X030218Y014421D01*
X030266Y014469D01*
X030218Y014120D02*
X030073Y014120D01*
X030073Y013830D01*
X030073Y013927D02*
X030218Y013927D01*
X030266Y013975D01*
X030266Y014072D01*
X030218Y014120D01*
X030368Y014120D02*
X030561Y014120D01*
X030464Y014120D02*
X030464Y013830D01*
X030266Y013830D02*
X030170Y013927D01*
X030662Y013879D02*
X030711Y013830D01*
X030807Y013830D01*
X030856Y013879D01*
X030856Y013927D01*
X030807Y013975D01*
X030711Y013975D01*
X030662Y014024D01*
X030662Y014072D01*
X030711Y014120D01*
X030807Y014120D01*
X030856Y014072D01*
X030561Y015011D02*
X030368Y015302D01*
X030266Y015253D02*
X030266Y015156D01*
X030218Y015108D01*
X030073Y015108D01*
X030170Y015108D02*
X030266Y015011D01*
X030368Y015011D02*
X030561Y015302D01*
X030266Y015253D02*
X030218Y015302D01*
X030073Y015302D01*
X030073Y015011D01*
X030170Y015602D02*
X030170Y015892D01*
X030266Y015892D02*
X030073Y015892D01*
X030368Y015892D02*
X030561Y015602D01*
X030368Y015602D02*
X030561Y015892D01*
X033323Y009987D02*
X033323Y009696D01*
X033323Y009396D02*
X033323Y009106D01*
X033323Y009203D02*
X033516Y009396D01*
X033617Y009396D02*
X033617Y009106D01*
X033811Y009106D01*
X033714Y009251D02*
X033617Y009251D01*
X033617Y009396D02*
X033811Y009396D01*
X033912Y009396D02*
X033912Y009348D01*
X034009Y009251D01*
X034009Y009106D01*
X034009Y009251D02*
X034106Y009348D01*
X034106Y009396D01*
X033516Y009106D02*
X033371Y009251D01*
X033601Y008868D02*
X033601Y008675D01*
X033504Y008771D02*
X033698Y008771D01*
X033698Y008573D02*
X033504Y008573D01*
X033456Y008525D01*
X033456Y008380D01*
X033746Y008380D01*
X033746Y008525D01*
X033698Y008573D01*
D23*
X023286Y015200D03*
X018011Y015200D03*
M02*
