G75*
%MOIN*%
%OFA0B0*%
%FSLAX24Y24*%
%IPPOS*%
%LPD*%
%AMOC8*
5,1,8,0,0,1.08239X$1,22.5*
%
%ADD10C,0.1300*%
%ADD11C,0.0600*%
%ADD12OC8,0.0700*%
%ADD13R,0.0867X0.0867*%
%ADD14C,0.1221*%
%ADD15C,0.0634*%
%ADD16C,0.0740*%
%ADD17C,0.2323*%
%ADD18C,0.0473*%
%ADD19OC8,0.0594*%
D10*
X006306Y001550D03*
X026806Y003550D03*
X038806Y001550D03*
X026806Y014550D03*
X036306Y020550D03*
X006806Y020550D03*
D11*
X008206Y020382D02*
X008206Y020718D01*
X009206Y020718D02*
X009206Y020382D01*
X010206Y020382D02*
X010206Y020718D01*
X011206Y020718D02*
X011206Y020382D01*
X012206Y020382D02*
X012206Y020718D01*
X013206Y020718D02*
X013206Y020382D01*
X014206Y020382D02*
X014206Y020718D01*
X015206Y020718D02*
X015206Y020382D01*
X016206Y020382D02*
X016206Y020718D01*
X017206Y020718D02*
X017206Y020382D01*
X018806Y020382D02*
X018806Y020718D01*
X019806Y020718D02*
X019806Y020382D01*
X020806Y020382D02*
X020806Y020718D01*
X021806Y020718D02*
X021806Y020382D01*
X022806Y020382D02*
X022806Y020718D01*
X023806Y020718D02*
X023806Y020382D01*
X024806Y020382D02*
X024806Y020718D01*
X025806Y020718D02*
X025806Y020382D01*
X027806Y020382D02*
X027806Y020718D01*
X028806Y020718D02*
X028806Y020382D01*
X029806Y020382D02*
X029806Y020718D01*
X030806Y020718D02*
X030806Y020382D01*
X031806Y020382D02*
X031806Y020718D01*
X032806Y020718D02*
X032806Y020382D01*
X033806Y020382D02*
X033806Y020718D01*
X034806Y020718D02*
X034806Y020382D01*
X034806Y001718D02*
X034806Y001382D01*
X035806Y001382D02*
X035806Y001718D01*
X036806Y001718D02*
X036806Y001382D01*
X033806Y001382D02*
X033806Y001718D01*
X032806Y001718D02*
X032806Y001382D01*
X031806Y001382D02*
X031806Y001718D01*
X030806Y001718D02*
X030806Y001382D01*
X029806Y001382D02*
X029806Y001718D01*
X027806Y001718D02*
X027806Y001382D01*
X026806Y001382D02*
X026806Y001718D01*
X025806Y001718D02*
X025806Y001382D01*
X024806Y001382D02*
X024806Y001718D01*
X023806Y001718D02*
X023806Y001382D01*
X022806Y001382D02*
X022806Y001718D01*
X021806Y001718D02*
X021806Y001382D01*
X020806Y001382D02*
X020806Y001718D01*
X018806Y001718D02*
X018806Y001382D01*
X017806Y001382D02*
X017806Y001718D01*
X016806Y001718D02*
X016806Y001382D01*
X015806Y001382D02*
X015806Y001718D01*
X014806Y001718D02*
X014806Y001382D01*
X013806Y001382D02*
X013806Y001718D01*
X012806Y001718D02*
X012806Y001382D01*
X011806Y001382D02*
X011806Y001718D01*
D12*
X037806Y003550D03*
X038806Y003550D03*
X038806Y004550D03*
X037806Y004550D03*
X037806Y005550D03*
X038806Y005550D03*
X038806Y006550D03*
X037806Y006550D03*
X037806Y007550D03*
X038806Y007550D03*
X038806Y008550D03*
X037806Y008550D03*
X037806Y009550D03*
X038806Y009550D03*
X038806Y010550D03*
X037806Y010550D03*
X037806Y011550D03*
X038806Y011550D03*
X038806Y012550D03*
X037806Y012550D03*
X037806Y013550D03*
X038806Y013550D03*
X038806Y014550D03*
X037806Y014550D03*
X037806Y015550D03*
X038806Y015550D03*
X038806Y016550D03*
X037806Y016550D03*
X037806Y017550D03*
X038806Y017550D03*
X038806Y018550D03*
X037806Y018550D03*
X037806Y019550D03*
X038806Y019550D03*
X038806Y020550D03*
X037806Y020550D03*
D13*
X004133Y018463D03*
X001967Y018463D03*
X001967Y016810D03*
X004133Y016810D03*
X004133Y015156D03*
X001967Y015156D03*
X001967Y013503D03*
X004133Y013503D03*
X004133Y011849D03*
X001967Y011849D03*
X001967Y010196D03*
X004133Y010196D03*
X004133Y008542D03*
X001967Y008542D03*
X001967Y006889D03*
X004133Y006889D03*
X004133Y005235D03*
X001967Y005235D03*
X001967Y003581D03*
X004133Y003581D03*
D14*
X003952Y001731D03*
X003952Y020314D03*
D15*
X008692Y016161D02*
X008692Y015805D01*
X009692Y015805D02*
X009692Y016161D01*
X011487Y016161D02*
X011487Y015805D01*
X012487Y015805D02*
X012487Y016161D01*
X012459Y013366D02*
X012459Y013010D01*
X013459Y013010D02*
X013459Y013366D01*
X011459Y013366D02*
X011459Y013010D01*
X009692Y013010D02*
X009692Y013366D01*
X008692Y013366D02*
X008692Y013010D01*
X013967Y009704D02*
X013967Y009348D01*
X014967Y009348D02*
X014967Y009704D01*
X015408Y006161D02*
X015408Y005805D01*
X016408Y005805D02*
X016408Y006161D01*
X017408Y006161D02*
X017408Y005805D01*
X018408Y005805D02*
X018408Y006161D01*
X019408Y006161D02*
X019408Y005805D01*
X020408Y005805D02*
X020408Y006161D01*
X021408Y006161D02*
X021408Y005805D01*
X014408Y005805D02*
X014408Y006161D01*
X013408Y006161D02*
X013408Y005805D01*
X012408Y005805D02*
X012408Y006161D01*
X010664Y006161D02*
X010664Y005805D01*
X009664Y005805D02*
X009664Y006161D01*
X008664Y006161D02*
X008664Y005805D01*
D16*
X005937Y015204D02*
X005517Y015204D01*
X005517Y019204D02*
X005937Y019204D01*
D17*
X009467Y009605D03*
D18*
X011633Y007932D03*
X011633Y011278D03*
D19*
X013806Y011050D03*
X014806Y011050D03*
X017774Y009211D03*
X018404Y009211D03*
X018680Y010274D03*
X019310Y010274D03*
X017806Y008050D03*
X018278Y007578D03*
X015019Y004050D03*
X014270Y004054D03*
X012538Y004050D03*
X011873Y004050D03*
X015963Y015629D03*
X016790Y015629D03*
M02*
