%
M48
M72
T01C0.0160
T02C0.0236
T03C0.0320
T04C0.0335
T05C0.0354
T06C0.0374
T07C0.0394
T08C0.0433
T09C0.0551
T10C0.1181
T11C0.1260
T12C0.2283
%
T01
X6306Y6050
X13806Y3050
X14306Y3050
X16806Y3050
X19806Y3550
X21306Y3550
X21306Y3050
X22806Y2550
X24806Y3050
X25806Y2550
X23806Y4050
X26806Y5050
X27806Y4550
X28806Y4696
X28806Y5550
X25306Y7550
X26806Y7865
X28056Y8050
X30806Y9300
X23306Y7550
X22806Y7550
X17412Y7050
X14806Y7050
X14806Y5050
X14306Y5050
X19806Y1550
X31306Y2550
X31806Y2550
X31806Y3050
X39806Y3550
X31056Y13800
X30556Y13800
X15070Y14932
X10806Y16550
T02
X27774Y17755
T03
X5727Y19204
X5727Y15204
T04
X8206Y20550
X9206Y20550
X10206Y20550
X11206Y20550
X12206Y20550
X13206Y20550
X14206Y20550
X15206Y20550
X16206Y20550
X17206Y20550
X18806Y20550
X19806Y20550
X20806Y20550
X21806Y20550
X22806Y20550
X23806Y20550
X24806Y20550
X25806Y20550
X27806Y20550
X28806Y20550
X29806Y20550
X30806Y20550
X31806Y20550
X32806Y20550
X33806Y20550
X34806Y20550
X34806Y1550
X35806Y1550
X36806Y1550
X33806Y1550
X32806Y1550
X31806Y1550
X30806Y1550
X29806Y1550
X27806Y1550
X26806Y1550
X25806Y1550
X24806Y1550
X23806Y1550
X22806Y1550
X21806Y1550
X20806Y1550
X18806Y1550
X17806Y1550
X16806Y1550
X15806Y1550
X14806Y1550
X13806Y1550
X12806Y1550
X11806Y1550
T05
X11873Y4050
X12538Y4050
X14270Y4054
X15019Y4050
X18278Y7578
X17806Y8050
X17774Y9211
X18404Y9211
X18680Y10274
X19310Y10274
X14806Y11050
X13806Y11050
X15963Y15629
X16790Y15629
T06
X37806Y15550
X38806Y15550
X38806Y16550
X37806Y16550
X37806Y17550
X38806Y17550
X38806Y18550
X37806Y18550
X37806Y19550
X38806Y19550
X38806Y20550
X37806Y20550
X37806Y14550
X38806Y14550
X38806Y13550
X37806Y13550
X37806Y12550
X38806Y12550
X38806Y11550
X37806Y11550
X37806Y10550
X38806Y10550
X38806Y9550
X37806Y9550
X37806Y8550
X38806Y8550
X38806Y7550
X37806Y7550
X37806Y6550
X38806Y6550
X38806Y5550
X37806Y5550
X37806Y4550
X38806Y4550
X38806Y3550
X37806Y3550
T07
X21408Y5983
X20408Y5983
X19408Y5983
X18408Y5983
X17408Y5983
X16408Y5983
X15408Y5983
X14408Y5983
X13408Y5983
X12408Y5983
X10664Y5983
X9664Y5983
X8664Y5983
X13967Y9526
X14967Y9526
X13459Y13188
X12459Y13188
X11459Y13188
X9692Y13188
X8692Y13188
X8692Y15983
X9692Y15983
X11487Y15983
X12487Y15983
T08
X11633Y11278
X11633Y7932
T09
X4133Y8542
X1967Y8542
X1967Y6889
X4133Y6889
X4133Y5235
X1967Y5235
X1967Y3581
X4133Y3581
X4133Y10196
X1967Y10196
X1967Y11849
X4133Y11849
X4133Y13503
X1967Y13503
X1967Y15156
X4133Y15156
X4133Y16810
X1967Y16810
X1967Y18463
X4133Y18463
T10
X3952Y1731
X3952Y20314
T11
X6806Y20550
X26806Y14550
X36306Y20550
X26806Y3550
X38806Y1550
X6306Y1550
T12
X9467Y9605
M30
