G75*
%MOIN*%
%OFA0B0*%
%FSLAX25Y25*%
%IPPOS*%
%LPD*%
%AMOC8*
5,1,8,0,0,1.08239X$1,22.5*
%
%ADD10C,0.01100*%
%ADD11C,0.04000*%
%ADD12C,0.07874*%
%ADD13R,0.04650X0.05425*%
%ADD14C,0.01600*%
%ADD15C,0.01000*%
%ADD16C,0.02500*%
D10*
X0169319Y0040402D02*
X0173255Y0040402D01*
X0169319Y0044339D01*
X0169319Y0045323D01*
X0170303Y0046307D01*
X0172271Y0046307D01*
X0173255Y0045323D01*
X0175494Y0041386D02*
X0175494Y0040402D01*
X0176478Y0040402D01*
X0176478Y0041386D01*
X0175494Y0041386D01*
X0178987Y0040402D02*
X0182924Y0040402D01*
X0180955Y0040402D02*
X0180955Y0046307D01*
X0182924Y0044339D01*
X0185162Y0041386D02*
X0185162Y0040402D01*
X0186146Y0040402D01*
X0186146Y0041386D01*
X0185162Y0041386D01*
X0188655Y0044339D02*
X0190623Y0040402D01*
X0192592Y0044339D01*
X0201546Y0040402D02*
X0205483Y0040402D01*
X0205483Y0046307D01*
X0207992Y0046307D02*
X0207992Y0040402D01*
X0207992Y0043354D02*
X0211928Y0043354D01*
X0211928Y0040402D02*
X0211928Y0046307D01*
X0214437Y0045323D02*
X0215421Y0046307D01*
X0217390Y0046307D01*
X0218374Y0045323D01*
X0218374Y0041386D01*
X0217390Y0040402D01*
X0215421Y0040402D01*
X0214437Y0041386D01*
X0214437Y0045323D01*
X0227328Y0046307D02*
X0227328Y0040402D01*
X0231265Y0046307D01*
X0231265Y0040402D01*
X0233774Y0040402D02*
X0235742Y0042370D01*
X0234758Y0042370D02*
X0237710Y0042370D01*
X0237710Y0040402D02*
X0237710Y0046307D01*
X0234758Y0046307D01*
X0233774Y0045323D01*
X0233774Y0043354D01*
X0234758Y0042370D01*
X0240219Y0040402D02*
X0244156Y0040402D01*
X0244156Y0046307D01*
X0240219Y0046307D01*
X0242187Y0043354D02*
X0244156Y0043354D01*
X0246665Y0041386D02*
X0247649Y0040402D01*
X0249617Y0040402D01*
X0250601Y0041386D01*
X0250601Y0045323D01*
X0249617Y0046307D01*
X0247649Y0046307D01*
X0246665Y0045323D01*
X0259466Y0044339D02*
X0260450Y0044339D01*
X0262418Y0042370D01*
X0262418Y0040402D02*
X0262418Y0044339D01*
X0264927Y0043354D02*
X0264927Y0042370D01*
X0268864Y0042370D01*
X0268864Y0041386D02*
X0268864Y0043354D01*
X0267879Y0044339D01*
X0265911Y0044339D01*
X0264927Y0043354D01*
X0265911Y0040402D02*
X0267879Y0040402D01*
X0268864Y0041386D01*
X0271372Y0040402D02*
X0271372Y0046307D01*
X0271372Y0044339D02*
X0274325Y0044339D01*
X0275309Y0043354D01*
X0275309Y0041386D01*
X0274325Y0040402D01*
X0271372Y0040402D01*
X0277818Y0040402D02*
X0277818Y0043354D01*
X0278802Y0044339D01*
X0281755Y0044339D01*
X0281755Y0040402D01*
X0284263Y0040402D02*
X0284263Y0044339D01*
X0288200Y0044339D02*
X0288200Y0041386D01*
X0287216Y0040402D01*
X0284263Y0040402D01*
X0297154Y0040402D02*
X0300107Y0040402D01*
X0301091Y0041386D01*
X0301091Y0043354D01*
X0300107Y0044339D01*
X0297154Y0044339D01*
X0297154Y0046307D02*
X0297154Y0040402D01*
X0303600Y0042370D02*
X0303600Y0043354D01*
X0304584Y0044339D01*
X0306552Y0044339D01*
X0307537Y0043354D01*
X0307537Y0041386D01*
X0306552Y0040402D01*
X0304584Y0040402D01*
X0303600Y0042370D02*
X0307537Y0042370D01*
X0310045Y0041386D02*
X0311029Y0042370D01*
X0312998Y0042370D01*
X0313982Y0043354D01*
X0312998Y0044339D01*
X0310045Y0044339D01*
X0310045Y0041386D02*
X0311029Y0040402D01*
X0313982Y0040402D01*
X0316491Y0040402D02*
X0316491Y0043354D01*
X0317475Y0044339D01*
X0320428Y0044339D01*
X0320428Y0040402D01*
X0322936Y0042370D02*
X0322936Y0043354D01*
X0323920Y0044339D01*
X0325889Y0044339D01*
X0326873Y0043354D01*
X0326873Y0041386D01*
X0325889Y0040402D01*
X0323920Y0040402D01*
X0322936Y0042370D02*
X0326873Y0042370D01*
X0329382Y0040402D02*
X0332334Y0040402D01*
X0333319Y0041386D01*
X0333319Y0043354D01*
X0332334Y0044339D01*
X0329382Y0044339D01*
X0336631Y0044339D02*
X0336631Y0040402D01*
X0335647Y0040402D02*
X0337616Y0040402D01*
X0340124Y0040402D02*
X0344061Y0040402D01*
X0344061Y0046307D01*
X0337616Y0044339D02*
X0336631Y0044339D01*
X0336631Y0046307D02*
X0336631Y0047291D01*
X0353015Y0045323D02*
X0353015Y0044339D01*
X0353999Y0043354D01*
X0355968Y0043354D01*
X0356952Y0044339D01*
X0356952Y0045323D01*
X0355968Y0046307D01*
X0353999Y0046307D01*
X0353015Y0045323D01*
X0353999Y0043354D02*
X0353015Y0042370D01*
X0353015Y0041386D01*
X0353999Y0040402D01*
X0355968Y0040402D01*
X0356952Y0041386D01*
X0356952Y0042370D01*
X0355968Y0043354D01*
X0359461Y0040402D02*
X0363397Y0040402D01*
X0361429Y0040402D02*
X0361429Y0046307D01*
X0363397Y0044339D01*
X0365906Y0045323D02*
X0365906Y0041386D01*
X0366890Y0040402D01*
X0368859Y0040402D01*
X0369843Y0041386D01*
X0368859Y0043354D02*
X0365906Y0043354D01*
X0365906Y0045323D02*
X0366890Y0046307D01*
X0368859Y0046307D01*
X0369843Y0045323D01*
X0369843Y0044339D01*
X0368859Y0043354D01*
X0372352Y0041386D02*
X0373336Y0040402D01*
X0375304Y0040402D01*
X0376288Y0041386D01*
X0372352Y0045323D01*
X0372352Y0041386D01*
X0376288Y0041386D02*
X0376288Y0045323D01*
X0375304Y0046307D01*
X0373336Y0046307D01*
X0372352Y0045323D01*
X0378797Y0046307D02*
X0382734Y0046307D01*
X0382734Y0043354D01*
X0380766Y0044339D01*
X0379781Y0044339D01*
X0378797Y0043354D01*
X0378797Y0041386D01*
X0379781Y0040402D01*
X0381750Y0040402D01*
X0382734Y0041386D01*
X0385243Y0040402D02*
X0389179Y0040402D01*
X0387211Y0040402D02*
X0387211Y0046307D01*
X0389179Y0044339D01*
X0391688Y0045323D02*
X0395625Y0041386D01*
X0394641Y0040402D01*
X0392672Y0040402D01*
X0391688Y0041386D01*
X0391688Y0045323D01*
X0392672Y0046307D01*
X0394641Y0046307D01*
X0395625Y0045323D01*
X0395625Y0041386D01*
X0398134Y0040402D02*
X0402070Y0040402D01*
X0398134Y0044339D01*
X0398134Y0045323D01*
X0399118Y0046307D01*
X0401086Y0046307D01*
X0402070Y0045323D01*
X0050776Y0181013D02*
X0045855Y0181013D01*
X0044870Y0181997D01*
X0044870Y0183966D01*
X0045855Y0184950D01*
X0050776Y0184950D01*
X0048807Y0187458D02*
X0042902Y0187458D01*
X0044870Y0187458D02*
X0044870Y0190411D01*
X0045855Y0191395D01*
X0047823Y0191395D01*
X0048807Y0190411D01*
X0048807Y0187458D01*
X0048807Y0193904D02*
X0042902Y0193904D01*
X0044870Y0193904D02*
X0044870Y0196857D01*
X0045855Y0197841D01*
X0047823Y0197841D01*
X0048807Y0196857D01*
X0048807Y0193904D01*
X0047823Y0200349D02*
X0048807Y0201334D01*
X0048807Y0203302D01*
X0047823Y0204286D01*
X0046839Y0204286D01*
X0046839Y0200349D01*
X0045855Y0200349D02*
X0047823Y0200349D01*
X0045855Y0200349D02*
X0044870Y0201334D01*
X0044870Y0203302D01*
X0044870Y0206795D02*
X0048807Y0206795D01*
X0046839Y0206795D02*
X0048807Y0208763D01*
X0048807Y0209748D01*
X0047823Y0218612D02*
X0048807Y0219596D01*
X0048807Y0221564D01*
X0047823Y0222548D01*
X0044870Y0222548D01*
X0045855Y0225057D02*
X0044870Y0226041D01*
X0044870Y0228010D01*
X0046839Y0228994D02*
X0046839Y0225057D01*
X0047823Y0225057D02*
X0048807Y0226041D01*
X0048807Y0228010D01*
X0047823Y0228994D01*
X0046839Y0228994D01*
X0045855Y0231503D02*
X0044870Y0232487D01*
X0044870Y0235439D01*
X0047823Y0235439D01*
X0048807Y0234455D01*
X0048807Y0232487D01*
X0046839Y0232487D02*
X0046839Y0235439D01*
X0046839Y0232487D02*
X0045855Y0231503D01*
X0045855Y0225057D02*
X0047823Y0225057D01*
X0050776Y0218612D02*
X0044870Y0218612D01*
X0048807Y0237948D02*
X0048807Y0239917D01*
X0049791Y0238932D02*
X0045855Y0238932D01*
X0044870Y0239917D01*
X0045855Y0242245D02*
X0044870Y0243229D01*
X0044870Y0245198D01*
X0046839Y0246182D02*
X0046839Y0242245D01*
X0047823Y0242245D02*
X0048807Y0243229D01*
X0048807Y0245198D01*
X0047823Y0246182D01*
X0046839Y0246182D01*
X0046839Y0248691D02*
X0048807Y0250659D01*
X0048807Y0251643D01*
X0048807Y0248691D02*
X0044870Y0248691D01*
X0045855Y0242245D02*
X0047823Y0242245D01*
X0045855Y0260507D02*
X0044870Y0261492D01*
X0044870Y0263460D01*
X0045855Y0264444D01*
X0049791Y0264444D01*
X0045855Y0260507D01*
X0049791Y0260507D01*
X0050776Y0261492D01*
X0050776Y0263460D01*
X0049791Y0264444D01*
X0049791Y0266953D02*
X0050776Y0267937D01*
X0050776Y0269905D01*
X0049791Y0270890D01*
X0045855Y0266953D01*
X0044870Y0267937D01*
X0044870Y0269905D01*
X0045855Y0270890D01*
X0049791Y0270890D01*
X0047823Y0273398D02*
X0047823Y0276351D01*
X0046839Y0277335D01*
X0045855Y0277335D01*
X0044870Y0276351D01*
X0044870Y0274383D01*
X0045855Y0273398D01*
X0047823Y0273398D01*
X0049791Y0275367D01*
X0050776Y0277335D01*
X0049791Y0266953D02*
X0045855Y0266953D01*
X0255368Y0409100D02*
X0255368Y0412052D01*
X0256352Y0413036D01*
X0257336Y0412052D01*
X0257336Y0409100D01*
X0259304Y0409100D02*
X0259304Y0413036D01*
X0258320Y0413036D01*
X0257336Y0412052D01*
X0261813Y0412052D02*
X0261813Y0409100D01*
X0264766Y0409100D01*
X0265750Y0410084D01*
X0264766Y0411068D01*
X0261813Y0411068D01*
X0261813Y0412052D02*
X0262797Y0413036D01*
X0264766Y0413036D01*
X0269063Y0413036D02*
X0269063Y0409100D01*
X0270047Y0409100D02*
X0268078Y0409100D01*
X0269063Y0413036D02*
X0270047Y0413036D01*
X0269063Y0415005D02*
X0269063Y0415989D01*
X0272465Y0413036D02*
X0273450Y0413036D01*
X0275418Y0411068D01*
X0275418Y0409100D02*
X0275418Y0413036D01*
X0278731Y0413036D02*
X0278731Y0409100D01*
X0279715Y0409100D02*
X0277747Y0409100D01*
X0278731Y0413036D02*
X0279715Y0413036D01*
X0278731Y0415005D02*
X0278731Y0415989D01*
X0282224Y0415005D02*
X0282224Y0409100D01*
X0286160Y0409100D02*
X0286160Y0415005D01*
X0284192Y0413036D01*
X0282224Y0415005D01*
D11*
X0077233Y0400398D03*
X0565146Y0398902D03*
X0076091Y0059178D03*
D12*
X0583513Y0175670D03*
X0583513Y0195670D03*
X0583513Y0215670D03*
X0583513Y0235670D03*
D13*
X0313042Y0228469D03*
X0305955Y0228469D03*
D14*
X0054986Y0041149D02*
X0053489Y0040529D01*
X0055819Y0039997D01*
X0057705Y0039891D01*
X0164420Y0039891D01*
X0164420Y0049583D01*
X0164889Y0050052D01*
X0408352Y0050052D01*
X0408820Y0049583D01*
X0408820Y0039891D01*
X0580383Y0039891D01*
X0582269Y0039997D01*
X0584650Y0040541D01*
X0583181Y0041149D01*
X0580621Y0043709D01*
X0579236Y0047053D01*
X0579236Y0050673D01*
X0580621Y0054017D01*
X0583181Y0056577D01*
X0586525Y0057962D01*
X0590145Y0057962D01*
X0593490Y0056577D01*
X0596049Y0054017D01*
X0596619Y0052643D01*
X0597122Y0054851D01*
X0597228Y0056737D01*
X0597228Y0401146D01*
X0597122Y0403033D01*
X0596283Y0406710D01*
X0596156Y0406974D01*
X0594868Y0403866D01*
X0592309Y0401307D01*
X0588964Y0399921D01*
X0585344Y0399921D01*
X0582000Y0401307D01*
X0579440Y0403866D01*
X0578055Y0407211D01*
X0578055Y0410830D01*
X0579440Y0414175D01*
X0582000Y0416734D01*
X0583888Y0417517D01*
X0582269Y0417886D01*
X0580383Y0417992D01*
X0340435Y0417992D01*
X0340435Y0406118D01*
X0339966Y0405650D01*
X0197603Y0405650D01*
X0197135Y0406118D01*
X0197135Y0417992D01*
X0057705Y0417992D01*
X0055819Y0417886D01*
X0053489Y0417354D01*
X0054986Y0416734D01*
X0057545Y0414175D01*
X0058931Y0410830D01*
X0058931Y0407211D01*
X0057545Y0403866D01*
X0054986Y0401307D01*
X0051641Y0399921D01*
X0048022Y0399921D01*
X0044677Y0401307D01*
X0042118Y0403866D01*
X0041498Y0405363D01*
X0040966Y0403033D01*
X0040860Y0401146D01*
X0040860Y0304552D01*
X0052952Y0304552D01*
X0053420Y0304083D01*
X0053420Y0161721D01*
X0052952Y0161252D01*
X0040860Y0161252D01*
X0040860Y0056737D01*
X0040966Y0054851D01*
X0041498Y0052521D01*
X0042118Y0054017D01*
X0044677Y0056577D01*
X0048022Y0057962D01*
X0051641Y0057962D01*
X0054986Y0056577D01*
X0057545Y0054017D01*
X0058931Y0050673D01*
X0058931Y0047053D01*
X0057545Y0043709D01*
X0054986Y0041149D01*
X0054716Y0040249D02*
X0164420Y0040249D01*
X0164420Y0041848D02*
X0055684Y0041848D01*
X0057283Y0043446D02*
X0164420Y0043446D01*
X0164420Y0045045D02*
X0058099Y0045045D01*
X0058761Y0046643D02*
X0164420Y0046643D01*
X0164420Y0048242D02*
X0058931Y0048242D01*
X0058931Y0049840D02*
X0164677Y0049840D01*
X0162394Y0066754D02*
X0167147Y0066754D01*
X0168070Y0067137D01*
X0168994Y0066754D01*
X0173747Y0066754D01*
X0174720Y0067157D01*
X0175694Y0066754D01*
X0180547Y0066754D01*
X0181520Y0067157D01*
X0182494Y0066754D01*
X0187747Y0066754D01*
X0188920Y0067240D01*
X0190094Y0066754D01*
X0195347Y0066754D01*
X0196520Y0067240D01*
X0197694Y0066754D01*
X0202847Y0066754D01*
X0203970Y0067220D01*
X0205094Y0066754D01*
X0210247Y0066754D01*
X0211370Y0067220D01*
X0212494Y0066754D01*
X0217647Y0066754D01*
X0218770Y0067220D01*
X0219894Y0066754D01*
X0225047Y0066754D01*
X0226170Y0067220D01*
X0227294Y0066754D01*
X0232547Y0066754D01*
X0233720Y0067240D01*
X0234894Y0066754D01*
X0240147Y0066754D01*
X0241320Y0067240D01*
X0242494Y0066754D01*
X0248247Y0066754D01*
X0249588Y0067310D01*
X0249670Y0067392D01*
X0249753Y0067310D01*
X0251094Y0066754D01*
X0256847Y0066754D01*
X0258188Y0067310D01*
X0258270Y0067392D01*
X0258353Y0067310D01*
X0259694Y0066754D01*
X0265447Y0066754D01*
X0266788Y0067310D01*
X0266870Y0067392D01*
X0266953Y0067310D01*
X0268294Y0066754D01*
X0273947Y0066754D01*
X0275288Y0067310D01*
X0275320Y0067342D01*
X0275353Y0067310D01*
X0276694Y0066754D01*
X0282447Y0066754D01*
X0283788Y0067310D01*
X0283870Y0067392D01*
X0283953Y0067310D01*
X0285294Y0066754D01*
X0291047Y0066754D01*
X0292388Y0067310D01*
X0292470Y0067392D01*
X0292553Y0067310D01*
X0293894Y0066754D01*
X0299647Y0066754D01*
X0300988Y0067310D01*
X0301070Y0067392D01*
X0301153Y0067310D01*
X0302494Y0066754D01*
X0312247Y0066754D01*
X0313588Y0067310D01*
X0313670Y0067392D01*
X0313753Y0067310D01*
X0315094Y0066754D01*
X0320847Y0066754D01*
X0322188Y0067310D01*
X0322270Y0067392D01*
X0322353Y0067310D01*
X0323694Y0066754D01*
X0329447Y0066754D01*
X0330788Y0067310D01*
X0330870Y0067392D01*
X0330953Y0067310D01*
X0332294Y0066754D01*
X0337947Y0066754D01*
X0339288Y0067310D01*
X0339320Y0067342D01*
X0339353Y0067310D01*
X0340694Y0066754D01*
X0346447Y0066754D01*
X0347788Y0067310D01*
X0347870Y0067392D01*
X0347953Y0067310D01*
X0349294Y0066754D01*
X0355047Y0066754D01*
X0356388Y0067310D01*
X0356470Y0067392D01*
X0356553Y0067310D01*
X0357894Y0066754D01*
X0363647Y0066754D01*
X0364988Y0067310D01*
X0365070Y0067392D01*
X0365153Y0067310D01*
X0366494Y0066754D01*
X0371747Y0066754D01*
X0372920Y0067240D01*
X0374094Y0066754D01*
X0379347Y0066754D01*
X0380520Y0067240D01*
X0381694Y0066754D01*
X0386847Y0066754D01*
X0387970Y0067220D01*
X0389094Y0066754D01*
X0394247Y0066754D01*
X0395370Y0067220D01*
X0396494Y0066754D01*
X0401647Y0066754D01*
X0402770Y0067220D01*
X0403894Y0066754D01*
X0409047Y0066754D01*
X0410170Y0067220D01*
X0411294Y0066754D01*
X0416547Y0066754D01*
X0417720Y0067240D01*
X0418894Y0066754D01*
X0424147Y0066754D01*
X0425320Y0067240D01*
X0426494Y0066754D01*
X0431347Y0066754D01*
X0432320Y0067157D01*
X0433294Y0066754D01*
X0438147Y0066754D01*
X0439070Y0067137D01*
X0439994Y0066754D01*
X0444747Y0066754D01*
X0445670Y0067137D01*
X0446594Y0066754D01*
X0451347Y0066754D01*
X0452270Y0067137D01*
X0453194Y0066754D01*
X0457947Y0066754D01*
X0458870Y0067137D01*
X0459794Y0066754D01*
X0464547Y0066754D01*
X0465470Y0067137D01*
X0466394Y0066754D01*
X0471147Y0066754D01*
X0472070Y0067137D01*
X0472994Y0066754D01*
X0477747Y0066754D01*
X0478720Y0067157D01*
X0479694Y0066754D01*
X0484547Y0066754D01*
X0485520Y0067157D01*
X0486494Y0066754D01*
X0490947Y0066754D01*
X0491720Y0067075D01*
X0492494Y0066754D01*
X0496947Y0066754D01*
X0497720Y0067075D01*
X0498494Y0066754D01*
X0502947Y0066754D01*
X0503720Y0067075D01*
X0504494Y0066754D01*
X0508947Y0066754D01*
X0509720Y0067075D01*
X0510494Y0066754D01*
X0514947Y0066754D01*
X0515720Y0067075D01*
X0516494Y0066754D01*
X0520947Y0066754D01*
X0521720Y0067075D01*
X0522494Y0066754D01*
X0526947Y0066754D01*
X0527720Y0067075D01*
X0528494Y0066754D01*
X0532947Y0066754D01*
X0533720Y0067075D01*
X0534494Y0066754D01*
X0538947Y0066754D01*
X0539720Y0067075D01*
X0540494Y0066754D01*
X0544947Y0066754D01*
X0545658Y0067049D01*
X0546494Y0066702D01*
X0551447Y0066702D01*
X0552270Y0067043D01*
X0553094Y0066702D01*
X0557547Y0066702D01*
X0558888Y0067258D01*
X0559915Y0068284D01*
X0560470Y0069626D01*
X0560470Y0101302D01*
X0561647Y0101302D01*
X0562988Y0101858D01*
X0564015Y0102884D01*
X0564570Y0104226D01*
X0564570Y0143678D01*
X0564015Y0145020D01*
X0562988Y0146046D01*
X0561647Y0146602D01*
X0560370Y0146602D01*
X0560370Y0165378D01*
X0559815Y0166720D01*
X0558788Y0167746D01*
X0558170Y0168002D01*
X0558170Y0200578D01*
X0557615Y0201920D01*
X0556588Y0202946D01*
X0555247Y0203502D01*
X0554370Y0203502D01*
X0554370Y0215140D01*
X0565670Y0203840D01*
X0565670Y0188126D01*
X0566226Y0186784D01*
X0577176Y0175835D01*
X0577176Y0174409D01*
X0578140Y0172080D01*
X0579923Y0170297D01*
X0582252Y0169333D01*
X0584773Y0169333D01*
X0587102Y0170297D01*
X0588885Y0172080D01*
X0589850Y0174409D01*
X0589850Y0176930D01*
X0588885Y0179259D01*
X0587102Y0181042D01*
X0584773Y0182007D01*
X0582252Y0182007D01*
X0581598Y0181736D01*
X0572970Y0190364D01*
X0572970Y0203115D01*
X0578492Y0197756D01*
X0578076Y0196751D01*
X0578076Y0194588D01*
X0578903Y0192590D01*
X0580433Y0191060D01*
X0582431Y0190233D01*
X0584594Y0190233D01*
X0586592Y0191060D01*
X0588122Y0192590D01*
X0588950Y0194588D01*
X0588950Y0196751D01*
X0588122Y0198749D01*
X0586592Y0200279D01*
X0584594Y0201107D01*
X0582431Y0201107D01*
X0581276Y0200628D01*
X0550917Y0230094D01*
X0550341Y0230669D01*
X0550324Y0230669D01*
X0550312Y0230681D01*
X0549498Y0230668D01*
X0316867Y0230472D01*
X0316998Y0230472D01*
X0316867Y0230472D02*
X0316867Y0231754D01*
X0327947Y0231754D01*
X0329288Y0232310D01*
X0330315Y0233336D01*
X0330870Y0234678D01*
X0330870Y0258254D01*
X0333570Y0258254D01*
X0333570Y0234678D01*
X0334126Y0233336D01*
X0335153Y0232310D01*
X0336494Y0231754D01*
X0347947Y0231754D01*
X0349288Y0232310D01*
X0350315Y0233336D01*
X0350870Y0234678D01*
X0350870Y0258254D01*
X0353570Y0258254D01*
X0353570Y0234678D01*
X0354126Y0233336D01*
X0355153Y0232310D01*
X0356494Y0231754D01*
X0367947Y0231754D01*
X0369288Y0232310D01*
X0370315Y0233336D01*
X0370870Y0234678D01*
X0370870Y0258254D01*
X0373570Y0258254D01*
X0373570Y0234678D01*
X0374126Y0233336D01*
X0375153Y0232310D01*
X0376494Y0231754D01*
X0387947Y0231754D01*
X0389288Y0232310D01*
X0390315Y0233336D01*
X0390870Y0234678D01*
X0390870Y0258254D01*
X0393570Y0258254D01*
X0393570Y0234678D01*
X0394126Y0233336D01*
X0395153Y0232310D01*
X0396494Y0231754D01*
X0407947Y0231754D01*
X0409288Y0232310D01*
X0410315Y0233336D01*
X0410870Y0234678D01*
X0410870Y0258254D01*
X0413570Y0258254D01*
X0413570Y0234678D01*
X0414126Y0233336D01*
X0415153Y0232310D01*
X0416494Y0231754D01*
X0427947Y0231754D01*
X0429288Y0232310D01*
X0430220Y0233242D01*
X0431153Y0232310D01*
X0432494Y0231754D01*
X0439947Y0231754D01*
X0441288Y0232310D01*
X0442220Y0233242D01*
X0443153Y0232310D01*
X0444494Y0231754D01*
X0451947Y0231754D01*
X0453288Y0232310D01*
X0454220Y0233242D01*
X0455153Y0232310D01*
X0456494Y0231754D01*
X0463947Y0231754D01*
X0465288Y0232310D01*
X0466220Y0233242D01*
X0467153Y0232310D01*
X0468494Y0231754D01*
X0475947Y0231754D01*
X0477288Y0232310D01*
X0478220Y0233242D01*
X0479153Y0232310D01*
X0480494Y0231754D01*
X0487947Y0231754D01*
X0489288Y0232310D01*
X0489370Y0232392D01*
X0489453Y0232310D01*
X0490794Y0231754D01*
X0496547Y0231754D01*
X0497888Y0232310D01*
X0497970Y0232392D01*
X0498053Y0232310D01*
X0499394Y0231754D01*
X0505147Y0231754D01*
X0506488Y0232310D01*
X0506570Y0232392D01*
X0506653Y0232310D01*
X0507994Y0231754D01*
X0513747Y0231754D01*
X0515088Y0232310D01*
X0515120Y0232342D01*
X0515153Y0232310D01*
X0516494Y0231754D01*
X0522147Y0231754D01*
X0523488Y0232310D01*
X0523570Y0232392D01*
X0523653Y0232310D01*
X0524994Y0231754D01*
X0530747Y0231754D01*
X0532088Y0232310D01*
X0532170Y0232392D01*
X0532253Y0232310D01*
X0533594Y0231754D01*
X0539347Y0231754D01*
X0540688Y0232310D01*
X0540770Y0232392D01*
X0540853Y0232310D01*
X0542194Y0231754D01*
X0547947Y0231754D01*
X0549085Y0232226D01*
X0552653Y0228658D01*
X0553994Y0228102D01*
X0580321Y0228102D01*
X0581662Y0228658D01*
X0582337Y0229333D01*
X0584773Y0229333D01*
X0587102Y0230297D01*
X0588885Y0232080D01*
X0589850Y0234409D01*
X0589850Y0236930D01*
X0588885Y0239259D01*
X0587102Y0241042D01*
X0584773Y0242007D01*
X0582252Y0242007D01*
X0579923Y0241042D01*
X0578140Y0239259D01*
X0577176Y0236930D01*
X0577176Y0235402D01*
X0556232Y0235402D01*
X0554470Y0237164D01*
X0554470Y0254702D01*
X0555247Y0254702D01*
X0556588Y0255258D01*
X0557615Y0256284D01*
X0558170Y0257626D01*
X0558170Y0290078D01*
X0559088Y0290458D01*
X0560115Y0291484D01*
X0560670Y0292826D01*
X0560670Y0311602D01*
X0561747Y0311602D01*
X0563088Y0312158D01*
X0564115Y0313184D01*
X0564670Y0314526D01*
X0564670Y0353878D01*
X0564115Y0355220D01*
X0563088Y0356246D01*
X0561747Y0356802D01*
X0561370Y0356802D01*
X0561370Y0388578D01*
X0560815Y0389920D01*
X0559788Y0390946D01*
X0558447Y0391502D01*
X0553694Y0391502D01*
X0552670Y0391078D01*
X0551647Y0391502D01*
X0546494Y0391502D01*
X0545783Y0391207D01*
X0544947Y0391554D01*
X0540494Y0391554D01*
X0539720Y0391233D01*
X0538947Y0391554D01*
X0534494Y0391554D01*
X0533720Y0391233D01*
X0532947Y0391554D01*
X0528494Y0391554D01*
X0527720Y0391233D01*
X0526947Y0391554D01*
X0522494Y0391554D01*
X0521720Y0391233D01*
X0520947Y0391554D01*
X0516494Y0391554D01*
X0515720Y0391233D01*
X0514947Y0391554D01*
X0510494Y0391554D01*
X0509720Y0391233D01*
X0508947Y0391554D01*
X0504494Y0391554D01*
X0503720Y0391233D01*
X0502947Y0391554D01*
X0498494Y0391554D01*
X0497720Y0391233D01*
X0496947Y0391554D01*
X0492494Y0391554D01*
X0491720Y0391233D01*
X0490947Y0391554D01*
X0486494Y0391554D01*
X0485520Y0391150D01*
X0484547Y0391554D01*
X0479694Y0391554D01*
X0478720Y0391150D01*
X0477747Y0391554D01*
X0472994Y0391554D01*
X0472070Y0391171D01*
X0471147Y0391554D01*
X0466394Y0391554D01*
X0465470Y0391171D01*
X0464547Y0391554D01*
X0459794Y0391554D01*
X0458870Y0391171D01*
X0457947Y0391554D01*
X0453194Y0391554D01*
X0452270Y0391171D01*
X0451347Y0391554D01*
X0446594Y0391554D01*
X0445670Y0391171D01*
X0444747Y0391554D01*
X0439994Y0391554D01*
X0439070Y0391171D01*
X0438147Y0391554D01*
X0433294Y0391554D01*
X0432320Y0391150D01*
X0431347Y0391554D01*
X0426494Y0391554D01*
X0425320Y0391068D01*
X0424147Y0391554D01*
X0418894Y0391554D01*
X0417720Y0391068D01*
X0416547Y0391554D01*
X0411294Y0391554D01*
X0410170Y0391088D01*
X0409047Y0391554D01*
X0403894Y0391554D01*
X0402770Y0391088D01*
X0401647Y0391554D01*
X0396494Y0391554D01*
X0395370Y0391088D01*
X0394247Y0391554D01*
X0389094Y0391554D01*
X0387970Y0391088D01*
X0386847Y0391554D01*
X0381694Y0391554D01*
X0380520Y0391068D01*
X0379347Y0391554D01*
X0374094Y0391554D01*
X0372920Y0391068D01*
X0371747Y0391554D01*
X0366494Y0391554D01*
X0365153Y0390998D01*
X0365070Y0390916D01*
X0364988Y0390998D01*
X0363647Y0391554D01*
X0357894Y0391554D01*
X0356553Y0390998D01*
X0356470Y0390916D01*
X0356388Y0390998D01*
X0355047Y0391554D01*
X0349294Y0391554D01*
X0347953Y0390998D01*
X0347870Y0390916D01*
X0347788Y0390998D01*
X0346447Y0391554D01*
X0340694Y0391554D01*
X0339353Y0390998D01*
X0339320Y0390966D01*
X0339288Y0390998D01*
X0337947Y0391554D01*
X0332294Y0391554D01*
X0330953Y0390998D01*
X0330870Y0390916D01*
X0330788Y0390998D01*
X0329447Y0391554D01*
X0323694Y0391554D01*
X0322353Y0390998D01*
X0322270Y0390916D01*
X0322188Y0390998D01*
X0320847Y0391554D01*
X0315094Y0391554D01*
X0313753Y0390998D01*
X0313670Y0390916D01*
X0313588Y0390998D01*
X0312247Y0391554D01*
X0302494Y0391554D01*
X0301153Y0390998D01*
X0301070Y0390916D01*
X0300988Y0390998D01*
X0299647Y0391554D01*
X0293894Y0391554D01*
X0292553Y0390998D01*
X0292470Y0390916D01*
X0292388Y0390998D01*
X0291047Y0391554D01*
X0285294Y0391554D01*
X0283953Y0390998D01*
X0283870Y0390916D01*
X0283788Y0390998D01*
X0282447Y0391554D01*
X0276694Y0391554D01*
X0275353Y0390998D01*
X0275320Y0390966D01*
X0275288Y0390998D01*
X0273947Y0391554D01*
X0268294Y0391554D01*
X0266953Y0390998D01*
X0266870Y0390916D01*
X0266788Y0390998D01*
X0265447Y0391554D01*
X0259694Y0391554D01*
X0258353Y0390998D01*
X0258270Y0390916D01*
X0258188Y0390998D01*
X0256847Y0391554D01*
X0251094Y0391554D01*
X0249753Y0390998D01*
X0249670Y0390916D01*
X0249588Y0390998D01*
X0248247Y0391554D01*
X0242494Y0391554D01*
X0241320Y0391068D01*
X0240147Y0391554D01*
X0234894Y0391554D01*
X0233720Y0391068D01*
X0232547Y0391554D01*
X0227294Y0391554D01*
X0226170Y0391088D01*
X0225047Y0391554D01*
X0219894Y0391554D01*
X0218770Y0391088D01*
X0217647Y0391554D01*
X0212494Y0391554D01*
X0211370Y0391088D01*
X0210247Y0391554D01*
X0205094Y0391554D01*
X0203970Y0391088D01*
X0202847Y0391554D01*
X0197694Y0391554D01*
X0196520Y0391068D01*
X0195347Y0391554D01*
X0190094Y0391554D01*
X0188920Y0391068D01*
X0187747Y0391554D01*
X0182494Y0391554D01*
X0181520Y0391150D01*
X0180547Y0391554D01*
X0175694Y0391554D01*
X0174720Y0391150D01*
X0173747Y0391554D01*
X0168994Y0391554D01*
X0168070Y0391171D01*
X0167147Y0391554D01*
X0162394Y0391554D01*
X0161470Y0391171D01*
X0160547Y0391554D01*
X0155794Y0391554D01*
X0154870Y0391171D01*
X0153947Y0391554D01*
X0149194Y0391554D01*
X0148270Y0391171D01*
X0147347Y0391554D01*
X0142594Y0391554D01*
X0141670Y0391171D01*
X0140747Y0391554D01*
X0135994Y0391554D01*
X0135070Y0391171D01*
X0134147Y0391554D01*
X0129294Y0391554D01*
X0128320Y0391150D01*
X0127347Y0391554D01*
X0122494Y0391554D01*
X0121720Y0391233D01*
X0120947Y0391554D01*
X0116494Y0391554D01*
X0115720Y0391233D01*
X0114947Y0391554D01*
X0110494Y0391554D01*
X0109720Y0391233D01*
X0108947Y0391554D01*
X0104494Y0391554D01*
X0103720Y0391233D01*
X0102947Y0391554D01*
X0098494Y0391554D01*
X0097720Y0391233D01*
X0096947Y0391554D01*
X0092494Y0391554D01*
X0091720Y0391233D01*
X0090947Y0391554D01*
X0086494Y0391554D01*
X0085720Y0391233D01*
X0084947Y0391554D01*
X0080494Y0391554D01*
X0079720Y0391233D01*
X0078947Y0391554D01*
X0074494Y0391554D01*
X0073720Y0391233D01*
X0072947Y0391554D01*
X0068494Y0391554D01*
X0067720Y0391233D01*
X0066947Y0391554D01*
X0062494Y0391554D01*
X0061153Y0390998D01*
X0060126Y0389971D01*
X0059570Y0388630D01*
X0059570Y0355678D01*
X0060126Y0354336D01*
X0061153Y0353310D01*
X0062494Y0352754D01*
X0062970Y0352754D01*
X0062970Y0329178D01*
X0063229Y0328554D01*
X0062494Y0328554D01*
X0061153Y0327998D01*
X0060126Y0326971D01*
X0059570Y0325630D01*
X0059570Y0292678D01*
X0060126Y0291336D01*
X0061153Y0290310D01*
X0062494Y0289754D01*
X0063370Y0289754D01*
X0063370Y0266178D01*
X0063629Y0265554D01*
X0062494Y0265554D01*
X0061153Y0264998D01*
X0060126Y0263971D01*
X0059570Y0262630D01*
X0059570Y0195678D01*
X0060126Y0194336D01*
X0061153Y0193310D01*
X0062494Y0192754D01*
X0063629Y0192754D01*
X0063370Y0192130D01*
X0063370Y0168554D01*
X0062494Y0168554D01*
X0061153Y0167998D01*
X0060126Y0166971D01*
X0059570Y0165630D01*
X0059570Y0132678D01*
X0060126Y0131336D01*
X0061153Y0130310D01*
X0062494Y0129754D01*
X0063229Y0129754D01*
X0062970Y0129130D01*
X0062970Y0105554D01*
X0062494Y0105554D01*
X0061153Y0104998D01*
X0060126Y0103971D01*
X0059570Y0102630D01*
X0059570Y0069678D01*
X0060126Y0068336D01*
X0061153Y0067310D01*
X0062494Y0066754D01*
X0066947Y0066754D01*
X0067720Y0067075D01*
X0068494Y0066754D01*
X0072947Y0066754D01*
X0073720Y0067075D01*
X0074494Y0066754D01*
X0078947Y0066754D01*
X0079720Y0067075D01*
X0080494Y0066754D01*
X0084947Y0066754D01*
X0085720Y0067075D01*
X0086494Y0066754D01*
X0090947Y0066754D01*
X0091720Y0067075D01*
X0092494Y0066754D01*
X0096947Y0066754D01*
X0097720Y0067075D01*
X0098494Y0066754D01*
X0102947Y0066754D01*
X0103720Y0067075D01*
X0104494Y0066754D01*
X0108947Y0066754D01*
X0109720Y0067075D01*
X0110494Y0066754D01*
X0114947Y0066754D01*
X0115720Y0067075D01*
X0116494Y0066754D01*
X0120947Y0066754D01*
X0121720Y0067075D01*
X0122494Y0066754D01*
X0127347Y0066754D01*
X0128320Y0067157D01*
X0129294Y0066754D01*
X0134147Y0066754D01*
X0135070Y0067137D01*
X0135994Y0066754D01*
X0140747Y0066754D01*
X0141670Y0067137D01*
X0142594Y0066754D01*
X0147347Y0066754D01*
X0148270Y0067137D01*
X0149194Y0066754D01*
X0153947Y0066754D01*
X0154870Y0067137D01*
X0155794Y0066754D01*
X0160547Y0066754D01*
X0161470Y0067137D01*
X0162394Y0066754D01*
X0083047Y0059178D02*
X0082358Y0056160D01*
X0080428Y0053740D01*
X0080428Y0053740D01*
X0077639Y0052397D01*
X0074544Y0052397D01*
X0071755Y0053740D01*
X0071755Y0053740D01*
X0069825Y0056160D01*
X0069825Y0056160D01*
X0069136Y0059178D01*
X0069136Y0059178D01*
X0069825Y0062196D01*
X0069825Y0062196D01*
X0071755Y0064616D01*
X0071755Y0064616D01*
X0074544Y0065959D01*
X0077639Y0065959D01*
X0080428Y0064616D01*
X0080428Y0064616D01*
X0082358Y0062196D01*
X0082358Y0062196D01*
X0083047Y0059178D01*
X0082989Y0059431D02*
X0597228Y0059431D01*
X0597228Y0057833D02*
X0590458Y0057833D01*
X0593833Y0056234D02*
X0597200Y0056234D01*
X0597073Y0054636D02*
X0595431Y0054636D01*
X0596455Y0053037D02*
X0596708Y0053037D01*
X0597228Y0061030D02*
X0082624Y0061030D01*
X0082013Y0062628D02*
X0597228Y0062628D01*
X0597228Y0064227D02*
X0080739Y0064227D01*
X0077917Y0065825D02*
X0597228Y0065825D01*
X0597228Y0067424D02*
X0559054Y0067424D01*
X0560220Y0069022D02*
X0597228Y0069022D01*
X0597228Y0070621D02*
X0560470Y0070621D01*
X0560470Y0072219D02*
X0597228Y0072219D01*
X0597228Y0073818D02*
X0560470Y0073818D01*
X0560470Y0075416D02*
X0597228Y0075416D01*
X0597228Y0077015D02*
X0560470Y0077015D01*
X0560470Y0078613D02*
X0597228Y0078613D01*
X0597228Y0080212D02*
X0560470Y0080212D01*
X0560470Y0081810D02*
X0597228Y0081810D01*
X0597228Y0083409D02*
X0560470Y0083409D01*
X0560470Y0085007D02*
X0597228Y0085007D01*
X0597228Y0086606D02*
X0560470Y0086606D01*
X0560470Y0088204D02*
X0597228Y0088204D01*
X0597228Y0089803D02*
X0560470Y0089803D01*
X0560470Y0091401D02*
X0597228Y0091401D01*
X0597228Y0093000D02*
X0560470Y0093000D01*
X0560470Y0094598D02*
X0597228Y0094598D01*
X0597228Y0096197D02*
X0560470Y0096197D01*
X0560470Y0097795D02*
X0597228Y0097795D01*
X0597228Y0099394D02*
X0560470Y0099394D01*
X0560470Y0100992D02*
X0597228Y0100992D01*
X0597228Y0102591D02*
X0563721Y0102591D01*
X0564555Y0104189D02*
X0597228Y0104189D01*
X0597228Y0105788D02*
X0564570Y0105788D01*
X0564570Y0107386D02*
X0597228Y0107386D01*
X0597228Y0108985D02*
X0564570Y0108985D01*
X0564570Y0110583D02*
X0597228Y0110583D01*
X0597228Y0112182D02*
X0564570Y0112182D01*
X0564570Y0113781D02*
X0597228Y0113781D01*
X0597228Y0115379D02*
X0564570Y0115379D01*
X0564570Y0116978D02*
X0597228Y0116978D01*
X0597228Y0118576D02*
X0564570Y0118576D01*
X0564570Y0120175D02*
X0597228Y0120175D01*
X0597228Y0121773D02*
X0564570Y0121773D01*
X0564570Y0123372D02*
X0597228Y0123372D01*
X0597228Y0124970D02*
X0564570Y0124970D01*
X0564570Y0126569D02*
X0597228Y0126569D01*
X0597228Y0128167D02*
X0564570Y0128167D01*
X0564570Y0129766D02*
X0597228Y0129766D01*
X0597228Y0131364D02*
X0564570Y0131364D01*
X0564570Y0132963D02*
X0597228Y0132963D01*
X0597228Y0134561D02*
X0564570Y0134561D01*
X0564570Y0136160D02*
X0597228Y0136160D01*
X0597228Y0137758D02*
X0564570Y0137758D01*
X0564570Y0139357D02*
X0597228Y0139357D01*
X0597228Y0140955D02*
X0564570Y0140955D01*
X0564570Y0142554D02*
X0597228Y0142554D01*
X0597228Y0144152D02*
X0564374Y0144152D01*
X0563284Y0145751D02*
X0597228Y0145751D01*
X0597228Y0147349D02*
X0560370Y0147349D01*
X0560370Y0148948D02*
X0597228Y0148948D01*
X0597228Y0150546D02*
X0560370Y0150546D01*
X0560370Y0152145D02*
X0597228Y0152145D01*
X0597228Y0153743D02*
X0560370Y0153743D01*
X0560370Y0155342D02*
X0597228Y0155342D01*
X0597228Y0156940D02*
X0560370Y0156940D01*
X0560370Y0158539D02*
X0597228Y0158539D01*
X0597228Y0160137D02*
X0560370Y0160137D01*
X0560370Y0161736D02*
X0597228Y0161736D01*
X0597228Y0163334D02*
X0560370Y0163334D01*
X0560370Y0164933D02*
X0597228Y0164933D01*
X0597228Y0166531D02*
X0559893Y0166531D01*
X0558170Y0168130D02*
X0597228Y0168130D01*
X0597228Y0169728D02*
X0585728Y0169728D01*
X0588132Y0171327D02*
X0597228Y0171327D01*
X0597228Y0172925D02*
X0589235Y0172925D01*
X0589850Y0174524D02*
X0597228Y0174524D01*
X0597228Y0176122D02*
X0589850Y0176122D01*
X0589522Y0177721D02*
X0597228Y0177721D01*
X0597228Y0179319D02*
X0588825Y0179319D01*
X0587226Y0180918D02*
X0597228Y0180918D01*
X0597228Y0182516D02*
X0580818Y0182516D01*
X0579219Y0184115D02*
X0597228Y0184115D01*
X0597228Y0185714D02*
X0577621Y0185714D01*
X0576022Y0187312D02*
X0597228Y0187312D01*
X0597228Y0188911D02*
X0574424Y0188911D01*
X0572970Y0190509D02*
X0581764Y0190509D01*
X0579386Y0192108D02*
X0572970Y0192108D01*
X0572970Y0193706D02*
X0578441Y0193706D01*
X0578076Y0195305D02*
X0572970Y0195305D01*
X0572970Y0196903D02*
X0578139Y0196903D01*
X0577723Y0198502D02*
X0572970Y0198502D01*
X0572970Y0200100D02*
X0576076Y0200100D01*
X0574429Y0201699D02*
X0572970Y0201699D01*
X0576879Y0204896D02*
X0597228Y0204896D01*
X0597228Y0206494D02*
X0575232Y0206494D01*
X0573585Y0208093D02*
X0597228Y0208093D01*
X0597228Y0209691D02*
X0571938Y0209691D01*
X0570291Y0211290D02*
X0579781Y0211290D01*
X0579775Y0211294D02*
X0580506Y0210763D01*
X0581310Y0210353D01*
X0582169Y0210074D01*
X0583033Y0209937D01*
X0583033Y0215190D01*
X0583992Y0215190D01*
X0583992Y0209937D01*
X0584856Y0210074D01*
X0585715Y0210353D01*
X0586519Y0210763D01*
X0587250Y0211294D01*
X0587889Y0211932D01*
X0588419Y0212663D01*
X0588829Y0213467D01*
X0589108Y0214326D01*
X0589245Y0215190D01*
X0583992Y0215190D01*
X0583992Y0216149D01*
X0589245Y0216149D01*
X0589108Y0217013D01*
X0588829Y0217872D01*
X0588419Y0218677D01*
X0587889Y0219407D01*
X0587250Y0220046D01*
X0586519Y0220576D01*
X0585715Y0220986D01*
X0584856Y0221265D01*
X0583992Y0221402D01*
X0583992Y0216149D01*
X0583033Y0216149D01*
X0583033Y0215190D01*
X0577780Y0215190D01*
X0577917Y0214326D01*
X0578196Y0213467D01*
X0578606Y0212663D01*
X0579137Y0211932D01*
X0579775Y0211294D01*
X0578491Y0212888D02*
X0568644Y0212888D01*
X0566997Y0214487D02*
X0577891Y0214487D01*
X0577780Y0216149D02*
X0583033Y0216149D01*
X0583033Y0221402D01*
X0582169Y0221265D01*
X0581310Y0220986D01*
X0580506Y0220576D01*
X0579775Y0220046D01*
X0579137Y0219407D01*
X0578606Y0218677D01*
X0578196Y0217872D01*
X0577917Y0217013D01*
X0577780Y0216149D01*
X0578135Y0217684D02*
X0563703Y0217684D01*
X0562056Y0219282D02*
X0579046Y0219282D01*
X0581103Y0220881D02*
X0560409Y0220881D01*
X0558762Y0222479D02*
X0597228Y0222479D01*
X0597228Y0220881D02*
X0585922Y0220881D01*
X0583992Y0220881D02*
X0583033Y0220881D01*
X0583033Y0219282D02*
X0583992Y0219282D01*
X0583992Y0217684D02*
X0583033Y0217684D01*
X0583033Y0216085D02*
X0565350Y0216085D01*
X0559819Y0209691D02*
X0554370Y0209691D01*
X0554370Y0208093D02*
X0561418Y0208093D01*
X0563016Y0206494D02*
X0554370Y0206494D01*
X0554370Y0204896D02*
X0564615Y0204896D01*
X0565670Y0203297D02*
X0555741Y0203297D01*
X0557706Y0201699D02*
X0565670Y0201699D01*
X0565670Y0200100D02*
X0558170Y0200100D01*
X0558170Y0198502D02*
X0565670Y0198502D01*
X0565670Y0196903D02*
X0558170Y0196903D01*
X0558170Y0195305D02*
X0565670Y0195305D01*
X0565670Y0193706D02*
X0558170Y0193706D01*
X0558170Y0192108D02*
X0565670Y0192108D01*
X0565670Y0190509D02*
X0558170Y0190509D01*
X0558170Y0188911D02*
X0565670Y0188911D01*
X0566008Y0187312D02*
X0558170Y0187312D01*
X0558170Y0185714D02*
X0567297Y0185714D01*
X0568896Y0184115D02*
X0558170Y0184115D01*
X0558170Y0182516D02*
X0570494Y0182516D01*
X0572093Y0180918D02*
X0558170Y0180918D01*
X0558170Y0179319D02*
X0573691Y0179319D01*
X0575290Y0177721D02*
X0558170Y0177721D01*
X0558170Y0176122D02*
X0576888Y0176122D01*
X0577176Y0174524D02*
X0558170Y0174524D01*
X0558170Y0172925D02*
X0577790Y0172925D01*
X0578893Y0171327D02*
X0558170Y0171327D01*
X0558170Y0169728D02*
X0581297Y0169728D01*
X0585261Y0190509D02*
X0597228Y0190509D01*
X0597228Y0192108D02*
X0587640Y0192108D01*
X0588584Y0193706D02*
X0597228Y0193706D01*
X0597228Y0195305D02*
X0588950Y0195305D01*
X0588887Y0196903D02*
X0597228Y0196903D01*
X0597228Y0198502D02*
X0588225Y0198502D01*
X0586771Y0200100D02*
X0597228Y0200100D01*
X0597228Y0201699D02*
X0580173Y0201699D01*
X0578526Y0203297D02*
X0597228Y0203297D01*
X0597228Y0211290D02*
X0587244Y0211290D01*
X0588534Y0212888D02*
X0597228Y0212888D01*
X0597228Y0214487D02*
X0589134Y0214487D01*
X0588890Y0217684D02*
X0597228Y0217684D01*
X0597228Y0219282D02*
X0587979Y0219282D01*
X0583992Y0216085D02*
X0597228Y0216085D01*
X0597228Y0224078D02*
X0557115Y0224078D01*
X0555468Y0225676D02*
X0597228Y0225676D01*
X0597228Y0227275D02*
X0553821Y0227275D01*
X0552437Y0228873D02*
X0552174Y0228873D01*
X0550839Y0230472D02*
X0550538Y0230472D01*
X0549240Y0232070D02*
X0548710Y0232070D01*
X0541431Y0232070D02*
X0540110Y0232070D01*
X0532831Y0232070D02*
X0531510Y0232070D01*
X0524231Y0232070D02*
X0522910Y0232070D01*
X0515731Y0232070D02*
X0514510Y0232070D01*
X0507231Y0232070D02*
X0505910Y0232070D01*
X0498631Y0232070D02*
X0497310Y0232070D01*
X0490031Y0232070D02*
X0488710Y0232070D01*
X0479731Y0232070D02*
X0476710Y0232070D01*
X0467731Y0232070D02*
X0464710Y0232070D01*
X0455731Y0232070D02*
X0452710Y0232070D01*
X0443731Y0232070D02*
X0440710Y0232070D01*
X0431731Y0232070D02*
X0428710Y0232070D01*
X0415731Y0232070D02*
X0408710Y0232070D01*
X0410453Y0233669D02*
X0413988Y0233669D01*
X0413570Y0235267D02*
X0410870Y0235267D01*
X0410870Y0236866D02*
X0413570Y0236866D01*
X0413570Y0238464D02*
X0410870Y0238464D01*
X0410870Y0240063D02*
X0413570Y0240063D01*
X0413570Y0241661D02*
X0410870Y0241661D01*
X0410870Y0243260D02*
X0413570Y0243260D01*
X0413570Y0244858D02*
X0410870Y0244858D01*
X0410870Y0246457D02*
X0413570Y0246457D01*
X0413570Y0248055D02*
X0410870Y0248055D01*
X0410870Y0249654D02*
X0413570Y0249654D01*
X0413570Y0251252D02*
X0410870Y0251252D01*
X0410870Y0252851D02*
X0413570Y0252851D01*
X0413570Y0254450D02*
X0410870Y0254450D01*
X0410870Y0256048D02*
X0413570Y0256048D01*
X0413570Y0257647D02*
X0410870Y0257647D01*
X0393570Y0257647D02*
X0390870Y0257647D01*
X0390870Y0256048D02*
X0393570Y0256048D01*
X0393570Y0254450D02*
X0390870Y0254450D01*
X0390870Y0252851D02*
X0393570Y0252851D01*
X0393570Y0251252D02*
X0390870Y0251252D01*
X0390870Y0249654D02*
X0393570Y0249654D01*
X0393570Y0248055D02*
X0390870Y0248055D01*
X0390870Y0246457D02*
X0393570Y0246457D01*
X0393570Y0244858D02*
X0390870Y0244858D01*
X0390870Y0243260D02*
X0393570Y0243260D01*
X0393570Y0241661D02*
X0390870Y0241661D01*
X0390870Y0240063D02*
X0393570Y0240063D01*
X0393570Y0238464D02*
X0390870Y0238464D01*
X0390870Y0236866D02*
X0393570Y0236866D01*
X0393570Y0235267D02*
X0390870Y0235267D01*
X0390453Y0233669D02*
X0393988Y0233669D01*
X0395731Y0232070D02*
X0388710Y0232070D01*
X0375731Y0232070D02*
X0368710Y0232070D01*
X0370453Y0233669D02*
X0373988Y0233669D01*
X0373570Y0235267D02*
X0370870Y0235267D01*
X0370870Y0236866D02*
X0373570Y0236866D01*
X0373570Y0238464D02*
X0370870Y0238464D01*
X0370870Y0240063D02*
X0373570Y0240063D01*
X0373570Y0241661D02*
X0370870Y0241661D01*
X0370870Y0243260D02*
X0373570Y0243260D01*
X0373570Y0244858D02*
X0370870Y0244858D01*
X0370870Y0246457D02*
X0373570Y0246457D01*
X0373570Y0248055D02*
X0370870Y0248055D01*
X0370870Y0249654D02*
X0373570Y0249654D01*
X0373570Y0251252D02*
X0370870Y0251252D01*
X0370870Y0252851D02*
X0373570Y0252851D01*
X0373570Y0254450D02*
X0370870Y0254450D01*
X0370870Y0256048D02*
X0373570Y0256048D01*
X0373570Y0257647D02*
X0370870Y0257647D01*
X0353570Y0257647D02*
X0350870Y0257647D01*
X0350870Y0256048D02*
X0353570Y0256048D01*
X0353570Y0254450D02*
X0350870Y0254450D01*
X0350870Y0252851D02*
X0353570Y0252851D01*
X0353570Y0251252D02*
X0350870Y0251252D01*
X0350870Y0249654D02*
X0353570Y0249654D01*
X0353570Y0248055D02*
X0350870Y0248055D01*
X0350870Y0246457D02*
X0353570Y0246457D01*
X0353570Y0244858D02*
X0350870Y0244858D01*
X0350870Y0243260D02*
X0353570Y0243260D01*
X0353570Y0241661D02*
X0350870Y0241661D01*
X0350870Y0240063D02*
X0353570Y0240063D01*
X0353570Y0238464D02*
X0350870Y0238464D01*
X0350870Y0236866D02*
X0353570Y0236866D01*
X0353570Y0235267D02*
X0350870Y0235267D01*
X0350453Y0233669D02*
X0353988Y0233669D01*
X0355731Y0232070D02*
X0348710Y0232070D01*
X0335731Y0232070D02*
X0328710Y0232070D01*
X0330453Y0233669D02*
X0333988Y0233669D01*
X0333570Y0235267D02*
X0330870Y0235267D01*
X0330870Y0236866D02*
X0333570Y0236866D01*
X0333570Y0238464D02*
X0330870Y0238464D01*
X0330870Y0240063D02*
X0333570Y0240063D01*
X0333570Y0241661D02*
X0330870Y0241661D01*
X0330870Y0243260D02*
X0333570Y0243260D01*
X0333570Y0244858D02*
X0330870Y0244858D01*
X0330870Y0246457D02*
X0333570Y0246457D01*
X0333570Y0248055D02*
X0330870Y0248055D01*
X0330870Y0249654D02*
X0333570Y0249654D01*
X0333570Y0251252D02*
X0330870Y0251252D01*
X0330870Y0252851D02*
X0333570Y0252851D01*
X0333570Y0254450D02*
X0330870Y0254450D01*
X0330870Y0256048D02*
X0333570Y0256048D01*
X0333570Y0257647D02*
X0330870Y0257647D01*
X0313570Y0257647D02*
X0306870Y0257647D01*
X0306870Y0258254D02*
X0313570Y0258254D01*
X0313570Y0234678D01*
X0314126Y0233336D01*
X0314782Y0232681D01*
X0310095Y0232681D01*
X0309711Y0232296D01*
X0309385Y0232621D01*
X0308975Y0232858D01*
X0308517Y0232981D01*
X0306318Y0232981D01*
X0306318Y0228831D01*
X0305593Y0228831D01*
X0305593Y0232614D01*
X0306315Y0233336D01*
X0306870Y0234678D01*
X0306870Y0258254D01*
X0306870Y0256048D02*
X0313570Y0256048D01*
X0313570Y0254450D02*
X0306870Y0254450D01*
X0306870Y0252851D02*
X0313570Y0252851D01*
X0313570Y0251252D02*
X0306870Y0251252D01*
X0306870Y0249654D02*
X0313570Y0249654D01*
X0313570Y0248055D02*
X0306870Y0248055D01*
X0306870Y0246457D02*
X0313570Y0246457D01*
X0313570Y0244858D02*
X0306870Y0244858D01*
X0306870Y0243260D02*
X0313570Y0243260D01*
X0313570Y0241661D02*
X0306870Y0241661D01*
X0306870Y0240063D02*
X0313570Y0240063D01*
X0313570Y0238464D02*
X0306870Y0238464D01*
X0306870Y0236866D02*
X0313570Y0236866D01*
X0313570Y0235267D02*
X0306870Y0235267D01*
X0306453Y0233669D02*
X0313988Y0233669D01*
X0306318Y0232070D02*
X0305593Y0232070D01*
X0305593Y0230472D02*
X0306318Y0230472D01*
X0306318Y0228873D02*
X0305593Y0228873D01*
X0305593Y0228831D02*
X0305593Y0228106D01*
X0301830Y0228106D01*
X0301830Y0226554D01*
X0292494Y0226554D01*
X0291153Y0225998D01*
X0290126Y0224971D01*
X0289570Y0223630D01*
X0289570Y0200054D01*
X0286870Y0200054D01*
X0286870Y0223630D01*
X0286315Y0224971D01*
X0285288Y0225998D01*
X0283947Y0226554D01*
X0272494Y0226554D01*
X0271153Y0225998D01*
X0270126Y0224971D01*
X0269570Y0223630D01*
X0269570Y0200054D01*
X0266870Y0200054D01*
X0266870Y0223630D01*
X0266315Y0224971D01*
X0265288Y0225998D01*
X0263947Y0226554D01*
X0252494Y0226554D01*
X0251153Y0225998D01*
X0250126Y0224971D01*
X0249570Y0223630D01*
X0249570Y0200054D01*
X0246870Y0200054D01*
X0246870Y0223630D01*
X0246315Y0224971D01*
X0245288Y0225998D01*
X0243947Y0226554D01*
X0232494Y0226554D01*
X0231153Y0225998D01*
X0230126Y0224971D01*
X0229570Y0223630D01*
X0229570Y0200054D01*
X0226870Y0200054D01*
X0226870Y0223630D01*
X0226315Y0224971D01*
X0225288Y0225998D01*
X0223947Y0226554D01*
X0212494Y0226554D01*
X0211153Y0225998D01*
X0210126Y0224971D01*
X0209570Y0223630D01*
X0209570Y0200054D01*
X0206870Y0200054D01*
X0206870Y0223630D01*
X0206315Y0224971D01*
X0205288Y0225998D01*
X0203947Y0226554D01*
X0192494Y0226554D01*
X0191153Y0225998D01*
X0190126Y0224971D01*
X0189570Y0223630D01*
X0189570Y0200054D01*
X0186870Y0200054D01*
X0186870Y0223630D01*
X0186315Y0224971D01*
X0185288Y0225998D01*
X0183947Y0226554D01*
X0176494Y0226554D01*
X0175153Y0225998D01*
X0174220Y0225066D01*
X0173288Y0225998D01*
X0171947Y0226554D01*
X0164494Y0226554D01*
X0163153Y0225998D01*
X0162220Y0225066D01*
X0161288Y0225998D01*
X0159947Y0226554D01*
X0152494Y0226554D01*
X0151153Y0225998D01*
X0150220Y0225066D01*
X0149288Y0225998D01*
X0147947Y0226554D01*
X0140494Y0226554D01*
X0139153Y0225998D01*
X0138220Y0225066D01*
X0137288Y0225998D01*
X0135947Y0226554D01*
X0128494Y0226554D01*
X0127153Y0225998D01*
X0126220Y0225066D01*
X0125288Y0225998D01*
X0123947Y0226554D01*
X0118194Y0226554D01*
X0116853Y0225998D01*
X0116770Y0225916D01*
X0116688Y0225998D01*
X0115347Y0226554D01*
X0109594Y0226554D01*
X0108253Y0225998D01*
X0108170Y0225916D01*
X0108088Y0225998D01*
X0106747Y0226554D01*
X0100994Y0226554D01*
X0099653Y0225998D01*
X0099570Y0225916D01*
X0099488Y0225998D01*
X0098147Y0226554D01*
X0092494Y0226554D01*
X0091153Y0225998D01*
X0091120Y0225966D01*
X0091088Y0225998D01*
X0089747Y0226554D01*
X0083994Y0226554D01*
X0082653Y0225998D01*
X0082570Y0225916D01*
X0082488Y0225998D01*
X0081147Y0226554D01*
X0075394Y0226554D01*
X0074053Y0225998D01*
X0073970Y0225916D01*
X0073888Y0225998D01*
X0072547Y0226554D01*
X0066870Y0226554D01*
X0066870Y0231754D01*
X0072547Y0231754D01*
X0073888Y0232310D01*
X0073970Y0232392D01*
X0074053Y0232310D01*
X0075394Y0231754D01*
X0081147Y0231754D01*
X0082488Y0232310D01*
X0082570Y0232392D01*
X0082653Y0232310D01*
X0083994Y0231754D01*
X0089747Y0231754D01*
X0091088Y0232310D01*
X0091120Y0232342D01*
X0091153Y0232310D01*
X0092494Y0231754D01*
X0098147Y0231754D01*
X0099488Y0232310D01*
X0099570Y0232392D01*
X0099653Y0232310D01*
X0100994Y0231754D01*
X0106747Y0231754D01*
X0108088Y0232310D01*
X0108170Y0232392D01*
X0108253Y0232310D01*
X0109594Y0231754D01*
X0115347Y0231754D01*
X0116688Y0232310D01*
X0116770Y0232392D01*
X0116853Y0232310D01*
X0118194Y0231754D01*
X0123947Y0231754D01*
X0125288Y0232310D01*
X0126220Y0233242D01*
X0127153Y0232310D01*
X0128494Y0231754D01*
X0135947Y0231754D01*
X0137288Y0232310D01*
X0138220Y0233242D01*
X0139153Y0232310D01*
X0140494Y0231754D01*
X0147947Y0231754D01*
X0149288Y0232310D01*
X0150220Y0233242D01*
X0151153Y0232310D01*
X0152494Y0231754D01*
X0159947Y0231754D01*
X0161288Y0232310D01*
X0162220Y0233242D01*
X0163153Y0232310D01*
X0164494Y0231754D01*
X0171947Y0231754D01*
X0173288Y0232310D01*
X0174220Y0233242D01*
X0175153Y0232310D01*
X0176494Y0231754D01*
X0183947Y0231754D01*
X0185288Y0232310D01*
X0186315Y0233336D01*
X0186870Y0234678D01*
X0186870Y0258254D01*
X0189570Y0258254D01*
X0189570Y0234678D01*
X0190126Y0233336D01*
X0191153Y0232310D01*
X0192494Y0231754D01*
X0203947Y0231754D01*
X0205288Y0232310D01*
X0206315Y0233336D01*
X0206870Y0234678D01*
X0206870Y0258254D01*
X0209570Y0258254D01*
X0209570Y0234678D01*
X0210126Y0233336D01*
X0211153Y0232310D01*
X0212494Y0231754D01*
X0223947Y0231754D01*
X0225288Y0232310D01*
X0226315Y0233336D01*
X0226870Y0234678D01*
X0226870Y0258254D01*
X0229570Y0258254D01*
X0229570Y0234678D01*
X0230126Y0233336D01*
X0231153Y0232310D01*
X0232494Y0231754D01*
X0243947Y0231754D01*
X0245288Y0232310D01*
X0246315Y0233336D01*
X0246870Y0234678D01*
X0246870Y0258254D01*
X0249570Y0258254D01*
X0249570Y0234678D01*
X0250126Y0233336D01*
X0251153Y0232310D01*
X0252494Y0231754D01*
X0263947Y0231754D01*
X0265288Y0232310D01*
X0266315Y0233336D01*
X0266870Y0234678D01*
X0266870Y0258254D01*
X0269570Y0258254D01*
X0269570Y0234678D01*
X0270126Y0233336D01*
X0271153Y0232310D01*
X0272494Y0231754D01*
X0283947Y0231754D01*
X0285288Y0232310D01*
X0286315Y0233336D01*
X0286870Y0234678D01*
X0286870Y0258254D01*
X0289570Y0258254D01*
X0289570Y0234678D01*
X0290126Y0233336D01*
X0291153Y0232310D01*
X0292494Y0231754D01*
X0301920Y0231754D01*
X0301830Y0231418D01*
X0301830Y0228831D01*
X0305593Y0228831D01*
X0301830Y0228873D02*
X0066870Y0228873D01*
X0066870Y0227275D02*
X0301830Y0227275D01*
X0301830Y0230472D02*
X0066870Y0230472D01*
X0073310Y0232070D02*
X0074631Y0232070D01*
X0081910Y0232070D02*
X0083231Y0232070D01*
X0090510Y0232070D02*
X0091731Y0232070D01*
X0098910Y0232070D02*
X0100231Y0232070D01*
X0107510Y0232070D02*
X0108831Y0232070D01*
X0116110Y0232070D02*
X0117431Y0232070D01*
X0124710Y0232070D02*
X0127731Y0232070D01*
X0126831Y0225676D02*
X0125610Y0225676D01*
X0137610Y0225676D02*
X0138831Y0225676D01*
X0139731Y0232070D02*
X0136710Y0232070D01*
X0148710Y0232070D02*
X0151731Y0232070D01*
X0150831Y0225676D02*
X0149610Y0225676D01*
X0161610Y0225676D02*
X0162831Y0225676D01*
X0163731Y0232070D02*
X0160710Y0232070D01*
X0172710Y0232070D02*
X0175731Y0232070D01*
X0174831Y0225676D02*
X0173610Y0225676D01*
X0185610Y0225676D02*
X0190831Y0225676D01*
X0189756Y0224078D02*
X0186685Y0224078D01*
X0186870Y0222479D02*
X0189570Y0222479D01*
X0189570Y0220881D02*
X0186870Y0220881D01*
X0186870Y0219282D02*
X0189570Y0219282D01*
X0189570Y0217684D02*
X0186870Y0217684D01*
X0186870Y0216085D02*
X0189570Y0216085D01*
X0189570Y0214487D02*
X0186870Y0214487D01*
X0186870Y0212888D02*
X0189570Y0212888D01*
X0189570Y0211290D02*
X0186870Y0211290D01*
X0186870Y0209691D02*
X0189570Y0209691D01*
X0189570Y0208093D02*
X0186870Y0208093D01*
X0186870Y0206494D02*
X0189570Y0206494D01*
X0189570Y0204896D02*
X0186870Y0204896D01*
X0186870Y0203297D02*
X0189570Y0203297D01*
X0189570Y0201699D02*
X0186870Y0201699D01*
X0186870Y0200100D02*
X0189570Y0200100D01*
X0206870Y0200100D02*
X0209570Y0200100D01*
X0209570Y0201699D02*
X0206870Y0201699D01*
X0206870Y0203297D02*
X0209570Y0203297D01*
X0209570Y0204896D02*
X0206870Y0204896D01*
X0206870Y0206494D02*
X0209570Y0206494D01*
X0209570Y0208093D02*
X0206870Y0208093D01*
X0206870Y0209691D02*
X0209570Y0209691D01*
X0209570Y0211290D02*
X0206870Y0211290D01*
X0206870Y0212888D02*
X0209570Y0212888D01*
X0209570Y0214487D02*
X0206870Y0214487D01*
X0206870Y0216085D02*
X0209570Y0216085D01*
X0209570Y0217684D02*
X0206870Y0217684D01*
X0206870Y0219282D02*
X0209570Y0219282D01*
X0209570Y0220881D02*
X0206870Y0220881D01*
X0206870Y0222479D02*
X0209570Y0222479D01*
X0209756Y0224078D02*
X0206685Y0224078D01*
X0205610Y0225676D02*
X0210831Y0225676D01*
X0211731Y0232070D02*
X0204710Y0232070D01*
X0206453Y0233669D02*
X0209988Y0233669D01*
X0209570Y0235267D02*
X0206870Y0235267D01*
X0206870Y0236866D02*
X0209570Y0236866D01*
X0209570Y0238464D02*
X0206870Y0238464D01*
X0206870Y0240063D02*
X0209570Y0240063D01*
X0209570Y0241661D02*
X0206870Y0241661D01*
X0206870Y0243260D02*
X0209570Y0243260D01*
X0209570Y0244858D02*
X0206870Y0244858D01*
X0206870Y0246457D02*
X0209570Y0246457D01*
X0209570Y0248055D02*
X0206870Y0248055D01*
X0206870Y0249654D02*
X0209570Y0249654D01*
X0209570Y0251252D02*
X0206870Y0251252D01*
X0206870Y0252851D02*
X0209570Y0252851D01*
X0209570Y0254450D02*
X0206870Y0254450D01*
X0206870Y0256048D02*
X0209570Y0256048D01*
X0209570Y0257647D02*
X0206870Y0257647D01*
X0189570Y0257647D02*
X0186870Y0257647D01*
X0186870Y0256048D02*
X0189570Y0256048D01*
X0189570Y0254450D02*
X0186870Y0254450D01*
X0186870Y0252851D02*
X0189570Y0252851D01*
X0189570Y0251252D02*
X0186870Y0251252D01*
X0186870Y0249654D02*
X0189570Y0249654D01*
X0189570Y0248055D02*
X0186870Y0248055D01*
X0186870Y0246457D02*
X0189570Y0246457D01*
X0189570Y0244858D02*
X0186870Y0244858D01*
X0186870Y0243260D02*
X0189570Y0243260D01*
X0189570Y0241661D02*
X0186870Y0241661D01*
X0186870Y0240063D02*
X0189570Y0240063D01*
X0189570Y0238464D02*
X0186870Y0238464D01*
X0186870Y0236866D02*
X0189570Y0236866D01*
X0189570Y0235267D02*
X0186870Y0235267D01*
X0186453Y0233669D02*
X0189988Y0233669D01*
X0191731Y0232070D02*
X0184710Y0232070D01*
X0224710Y0232070D02*
X0231731Y0232070D01*
X0229988Y0233669D02*
X0226453Y0233669D01*
X0226870Y0235267D02*
X0229570Y0235267D01*
X0229570Y0236866D02*
X0226870Y0236866D01*
X0226870Y0238464D02*
X0229570Y0238464D01*
X0229570Y0240063D02*
X0226870Y0240063D01*
X0226870Y0241661D02*
X0229570Y0241661D01*
X0229570Y0243260D02*
X0226870Y0243260D01*
X0226870Y0244858D02*
X0229570Y0244858D01*
X0229570Y0246457D02*
X0226870Y0246457D01*
X0226870Y0248055D02*
X0229570Y0248055D01*
X0229570Y0249654D02*
X0226870Y0249654D01*
X0226870Y0251252D02*
X0229570Y0251252D01*
X0229570Y0252851D02*
X0226870Y0252851D01*
X0226870Y0254450D02*
X0229570Y0254450D01*
X0229570Y0256048D02*
X0226870Y0256048D01*
X0226870Y0257647D02*
X0229570Y0257647D01*
X0246870Y0257647D02*
X0249570Y0257647D01*
X0249570Y0256048D02*
X0246870Y0256048D01*
X0246870Y0254450D02*
X0249570Y0254450D01*
X0249570Y0252851D02*
X0246870Y0252851D01*
X0246870Y0251252D02*
X0249570Y0251252D01*
X0249570Y0249654D02*
X0246870Y0249654D01*
X0246870Y0248055D02*
X0249570Y0248055D01*
X0249570Y0246457D02*
X0246870Y0246457D01*
X0246870Y0244858D02*
X0249570Y0244858D01*
X0249570Y0243260D02*
X0246870Y0243260D01*
X0246870Y0241661D02*
X0249570Y0241661D01*
X0249570Y0240063D02*
X0246870Y0240063D01*
X0246870Y0238464D02*
X0249570Y0238464D01*
X0249570Y0236866D02*
X0246870Y0236866D01*
X0246870Y0235267D02*
X0249570Y0235267D01*
X0249988Y0233669D02*
X0246453Y0233669D01*
X0244710Y0232070D02*
X0251731Y0232070D01*
X0250831Y0225676D02*
X0245610Y0225676D01*
X0246685Y0224078D02*
X0249756Y0224078D01*
X0249570Y0222479D02*
X0246870Y0222479D01*
X0246870Y0220881D02*
X0249570Y0220881D01*
X0249570Y0219282D02*
X0246870Y0219282D01*
X0246870Y0217684D02*
X0249570Y0217684D01*
X0249570Y0216085D02*
X0246870Y0216085D01*
X0246870Y0214487D02*
X0249570Y0214487D01*
X0249570Y0212888D02*
X0246870Y0212888D01*
X0246870Y0211290D02*
X0249570Y0211290D01*
X0249570Y0209691D02*
X0246870Y0209691D01*
X0246870Y0208093D02*
X0249570Y0208093D01*
X0249570Y0206494D02*
X0246870Y0206494D01*
X0246870Y0204896D02*
X0249570Y0204896D01*
X0249570Y0203297D02*
X0246870Y0203297D01*
X0246870Y0201699D02*
X0249570Y0201699D01*
X0249570Y0200100D02*
X0246870Y0200100D01*
X0229570Y0200100D02*
X0226870Y0200100D01*
X0226870Y0201699D02*
X0229570Y0201699D01*
X0229570Y0203297D02*
X0226870Y0203297D01*
X0226870Y0204896D02*
X0229570Y0204896D01*
X0229570Y0206494D02*
X0226870Y0206494D01*
X0226870Y0208093D02*
X0229570Y0208093D01*
X0229570Y0209691D02*
X0226870Y0209691D01*
X0226870Y0211290D02*
X0229570Y0211290D01*
X0229570Y0212888D02*
X0226870Y0212888D01*
X0226870Y0214487D02*
X0229570Y0214487D01*
X0229570Y0216085D02*
X0226870Y0216085D01*
X0226870Y0217684D02*
X0229570Y0217684D01*
X0229570Y0219282D02*
X0226870Y0219282D01*
X0226870Y0220881D02*
X0229570Y0220881D01*
X0229570Y0222479D02*
X0226870Y0222479D01*
X0226685Y0224078D02*
X0229756Y0224078D01*
X0230831Y0225676D02*
X0225610Y0225676D01*
X0264710Y0232070D02*
X0271731Y0232070D01*
X0269988Y0233669D02*
X0266453Y0233669D01*
X0266870Y0235267D02*
X0269570Y0235267D01*
X0269570Y0236866D02*
X0266870Y0236866D01*
X0266870Y0238464D02*
X0269570Y0238464D01*
X0269570Y0240063D02*
X0266870Y0240063D01*
X0266870Y0241661D02*
X0269570Y0241661D01*
X0269570Y0243260D02*
X0266870Y0243260D01*
X0266870Y0244858D02*
X0269570Y0244858D01*
X0269570Y0246457D02*
X0266870Y0246457D01*
X0266870Y0248055D02*
X0269570Y0248055D01*
X0269570Y0249654D02*
X0266870Y0249654D01*
X0266870Y0251252D02*
X0269570Y0251252D01*
X0269570Y0252851D02*
X0266870Y0252851D01*
X0266870Y0254450D02*
X0269570Y0254450D01*
X0269570Y0256048D02*
X0266870Y0256048D01*
X0266870Y0257647D02*
X0269570Y0257647D01*
X0286870Y0257647D02*
X0289570Y0257647D01*
X0289570Y0256048D02*
X0286870Y0256048D01*
X0286870Y0254450D02*
X0289570Y0254450D01*
X0289570Y0252851D02*
X0286870Y0252851D01*
X0286870Y0251252D02*
X0289570Y0251252D01*
X0289570Y0249654D02*
X0286870Y0249654D01*
X0286870Y0248055D02*
X0289570Y0248055D01*
X0289570Y0246457D02*
X0286870Y0246457D01*
X0286870Y0244858D02*
X0289570Y0244858D01*
X0289570Y0243260D02*
X0286870Y0243260D01*
X0286870Y0241661D02*
X0289570Y0241661D01*
X0289570Y0240063D02*
X0286870Y0240063D01*
X0286870Y0238464D02*
X0289570Y0238464D01*
X0289570Y0236866D02*
X0286870Y0236866D01*
X0286870Y0235267D02*
X0289570Y0235267D01*
X0289988Y0233669D02*
X0286453Y0233669D01*
X0284710Y0232070D02*
X0291731Y0232070D01*
X0290831Y0225676D02*
X0285610Y0225676D01*
X0286685Y0224078D02*
X0289756Y0224078D01*
X0289570Y0222479D02*
X0286870Y0222479D01*
X0286870Y0220881D02*
X0289570Y0220881D01*
X0289570Y0219282D02*
X0286870Y0219282D01*
X0286870Y0217684D02*
X0289570Y0217684D01*
X0289570Y0216085D02*
X0286870Y0216085D01*
X0286870Y0214487D02*
X0289570Y0214487D01*
X0289570Y0212888D02*
X0286870Y0212888D01*
X0286870Y0211290D02*
X0289570Y0211290D01*
X0289570Y0209691D02*
X0286870Y0209691D01*
X0286870Y0208093D02*
X0289570Y0208093D01*
X0289570Y0206494D02*
X0286870Y0206494D01*
X0286870Y0204896D02*
X0289570Y0204896D01*
X0289570Y0203297D02*
X0286870Y0203297D01*
X0286870Y0201699D02*
X0289570Y0201699D01*
X0289570Y0200100D02*
X0286870Y0200100D01*
X0269570Y0200100D02*
X0266870Y0200100D01*
X0266870Y0201699D02*
X0269570Y0201699D01*
X0269570Y0203297D02*
X0266870Y0203297D01*
X0266870Y0204896D02*
X0269570Y0204896D01*
X0269570Y0206494D02*
X0266870Y0206494D01*
X0266870Y0208093D02*
X0269570Y0208093D01*
X0269570Y0209691D02*
X0266870Y0209691D01*
X0266870Y0211290D02*
X0269570Y0211290D01*
X0269570Y0212888D02*
X0266870Y0212888D01*
X0266870Y0214487D02*
X0269570Y0214487D01*
X0269570Y0216085D02*
X0266870Y0216085D01*
X0266870Y0217684D02*
X0269570Y0217684D01*
X0269570Y0219282D02*
X0266870Y0219282D01*
X0266870Y0220881D02*
X0269570Y0220881D01*
X0269570Y0222479D02*
X0266870Y0222479D01*
X0266685Y0224078D02*
X0269756Y0224078D01*
X0270831Y0225676D02*
X0265610Y0225676D01*
X0063370Y0192108D02*
X0053420Y0192108D01*
X0053420Y0193706D02*
X0060756Y0193706D01*
X0059725Y0195305D02*
X0053420Y0195305D01*
X0053420Y0196903D02*
X0059570Y0196903D01*
X0059570Y0198502D02*
X0053420Y0198502D01*
X0053420Y0200100D02*
X0059570Y0200100D01*
X0059570Y0201699D02*
X0053420Y0201699D01*
X0053420Y0203297D02*
X0059570Y0203297D01*
X0059570Y0204896D02*
X0053420Y0204896D01*
X0053420Y0206494D02*
X0059570Y0206494D01*
X0059570Y0208093D02*
X0053420Y0208093D01*
X0053420Y0209691D02*
X0059570Y0209691D01*
X0059570Y0211290D02*
X0053420Y0211290D01*
X0053420Y0212888D02*
X0059570Y0212888D01*
X0059570Y0214487D02*
X0053420Y0214487D01*
X0053420Y0216085D02*
X0059570Y0216085D01*
X0059570Y0217684D02*
X0053420Y0217684D01*
X0053420Y0219282D02*
X0059570Y0219282D01*
X0059570Y0220881D02*
X0053420Y0220881D01*
X0053420Y0222479D02*
X0059570Y0222479D01*
X0059570Y0224078D02*
X0053420Y0224078D01*
X0053420Y0225676D02*
X0059570Y0225676D01*
X0059570Y0227275D02*
X0053420Y0227275D01*
X0053420Y0228873D02*
X0059570Y0228873D01*
X0059570Y0230472D02*
X0053420Y0230472D01*
X0053420Y0232070D02*
X0059570Y0232070D01*
X0059570Y0233669D02*
X0053420Y0233669D01*
X0053420Y0235267D02*
X0059570Y0235267D01*
X0059570Y0236866D02*
X0053420Y0236866D01*
X0053420Y0238464D02*
X0059570Y0238464D01*
X0059570Y0240063D02*
X0053420Y0240063D01*
X0053420Y0241661D02*
X0059570Y0241661D01*
X0059570Y0243260D02*
X0053420Y0243260D01*
X0053420Y0244858D02*
X0059570Y0244858D01*
X0059570Y0246457D02*
X0053420Y0246457D01*
X0053420Y0248055D02*
X0059570Y0248055D01*
X0059570Y0249654D02*
X0053420Y0249654D01*
X0053420Y0251252D02*
X0059570Y0251252D01*
X0059570Y0252851D02*
X0053420Y0252851D01*
X0053420Y0254450D02*
X0059570Y0254450D01*
X0059570Y0256048D02*
X0053420Y0256048D01*
X0053420Y0257647D02*
X0059570Y0257647D01*
X0059570Y0259245D02*
X0053420Y0259245D01*
X0053420Y0260844D02*
X0059570Y0260844D01*
X0059570Y0262442D02*
X0053420Y0262442D01*
X0053420Y0264041D02*
X0060195Y0264041D01*
X0063594Y0265639D02*
X0053420Y0265639D01*
X0053420Y0267238D02*
X0063370Y0267238D01*
X0063370Y0268836D02*
X0053420Y0268836D01*
X0053420Y0270435D02*
X0063370Y0270435D01*
X0063370Y0272033D02*
X0053420Y0272033D01*
X0053420Y0273632D02*
X0063370Y0273632D01*
X0063370Y0275230D02*
X0053420Y0275230D01*
X0053420Y0276829D02*
X0063370Y0276829D01*
X0063370Y0278427D02*
X0053420Y0278427D01*
X0053420Y0280026D02*
X0063370Y0280026D01*
X0063370Y0281624D02*
X0053420Y0281624D01*
X0053420Y0283223D02*
X0063370Y0283223D01*
X0063370Y0284821D02*
X0053420Y0284821D01*
X0053420Y0286420D02*
X0063370Y0286420D01*
X0063370Y0288018D02*
X0053420Y0288018D01*
X0053420Y0289617D02*
X0063370Y0289617D01*
X0060247Y0291215D02*
X0053420Y0291215D01*
X0053420Y0292814D02*
X0059570Y0292814D01*
X0059570Y0294412D02*
X0053420Y0294412D01*
X0053420Y0296011D02*
X0059570Y0296011D01*
X0059570Y0297609D02*
X0053420Y0297609D01*
X0053420Y0299208D02*
X0059570Y0299208D01*
X0059570Y0300806D02*
X0053420Y0300806D01*
X0053420Y0302405D02*
X0059570Y0302405D01*
X0059570Y0304003D02*
X0053420Y0304003D01*
X0059570Y0305602D02*
X0040860Y0305602D01*
X0040860Y0307200D02*
X0059570Y0307200D01*
X0059570Y0308799D02*
X0040860Y0308799D01*
X0040860Y0310397D02*
X0059570Y0310397D01*
X0059570Y0311996D02*
X0040860Y0311996D01*
X0040860Y0313594D02*
X0059570Y0313594D01*
X0059570Y0315193D02*
X0040860Y0315193D01*
X0040860Y0316791D02*
X0059570Y0316791D01*
X0059570Y0318390D02*
X0040860Y0318390D01*
X0040860Y0319988D02*
X0059570Y0319988D01*
X0059570Y0321587D02*
X0040860Y0321587D01*
X0040860Y0323185D02*
X0059570Y0323185D01*
X0059570Y0324784D02*
X0040860Y0324784D01*
X0040860Y0326383D02*
X0059882Y0326383D01*
X0061136Y0327981D02*
X0040860Y0327981D01*
X0040860Y0329580D02*
X0062970Y0329580D01*
X0062970Y0331178D02*
X0040860Y0331178D01*
X0040860Y0332777D02*
X0062970Y0332777D01*
X0062970Y0334375D02*
X0040860Y0334375D01*
X0040860Y0335974D02*
X0062970Y0335974D01*
X0062970Y0337572D02*
X0040860Y0337572D01*
X0040860Y0339171D02*
X0062970Y0339171D01*
X0062970Y0340769D02*
X0040860Y0340769D01*
X0040860Y0342368D02*
X0062970Y0342368D01*
X0062970Y0343966D02*
X0040860Y0343966D01*
X0040860Y0345565D02*
X0062970Y0345565D01*
X0062970Y0347163D02*
X0040860Y0347163D01*
X0040860Y0348762D02*
X0062970Y0348762D01*
X0062970Y0350360D02*
X0040860Y0350360D01*
X0040860Y0351959D02*
X0062970Y0351959D01*
X0060905Y0353557D02*
X0040860Y0353557D01*
X0040860Y0355156D02*
X0059787Y0355156D01*
X0059570Y0356754D02*
X0040860Y0356754D01*
X0040860Y0358353D02*
X0059570Y0358353D01*
X0059570Y0359951D02*
X0040860Y0359951D01*
X0040860Y0361550D02*
X0059570Y0361550D01*
X0059570Y0363148D02*
X0040860Y0363148D01*
X0040860Y0364747D02*
X0059570Y0364747D01*
X0059570Y0366345D02*
X0040860Y0366345D01*
X0040860Y0367944D02*
X0059570Y0367944D01*
X0059570Y0369542D02*
X0040860Y0369542D01*
X0040860Y0371141D02*
X0059570Y0371141D01*
X0059570Y0372739D02*
X0040860Y0372739D01*
X0040860Y0374338D02*
X0059570Y0374338D01*
X0059570Y0375936D02*
X0040860Y0375936D01*
X0040860Y0377535D02*
X0059570Y0377535D01*
X0059570Y0379133D02*
X0040860Y0379133D01*
X0040860Y0380732D02*
X0059570Y0380732D01*
X0059570Y0382330D02*
X0040860Y0382330D01*
X0040860Y0383929D02*
X0059570Y0383929D01*
X0059570Y0385527D02*
X0040860Y0385527D01*
X0040860Y0387126D02*
X0059570Y0387126D01*
X0059610Y0388724D02*
X0047565Y0388724D01*
X0047514Y0388673D02*
X0048304Y0389462D01*
X0048731Y0390493D01*
X0048731Y0391609D01*
X0048305Y0392640D01*
X0047516Y0393429D01*
X0046485Y0393857D01*
X0045927Y0393857D01*
X0045919Y0393857D01*
X0045362Y0393857D01*
X0044331Y0393429D01*
X0043542Y0392640D01*
X0043115Y0391609D01*
X0043116Y0390493D01*
X0043543Y0389462D01*
X0044332Y0388673D01*
X0045364Y0388247D01*
X0045921Y0388247D01*
X0045925Y0388247D01*
X0046483Y0388247D01*
X0047514Y0388673D01*
X0048660Y0390323D02*
X0060478Y0390323D01*
X0048602Y0391921D02*
X0597228Y0391921D01*
X0597228Y0390323D02*
X0560411Y0390323D01*
X0561310Y0388724D02*
X0597228Y0388724D01*
X0597228Y0387126D02*
X0561370Y0387126D01*
X0561370Y0385527D02*
X0597228Y0385527D01*
X0597228Y0383929D02*
X0561370Y0383929D01*
X0561370Y0382330D02*
X0597228Y0382330D01*
X0597228Y0380732D02*
X0561370Y0380732D01*
X0561370Y0379133D02*
X0597228Y0379133D01*
X0597228Y0377535D02*
X0561370Y0377535D01*
X0561370Y0375936D02*
X0597228Y0375936D01*
X0597228Y0374338D02*
X0561370Y0374338D01*
X0561370Y0372739D02*
X0597228Y0372739D01*
X0597228Y0371141D02*
X0561370Y0371141D01*
X0561370Y0369542D02*
X0597228Y0369542D01*
X0597228Y0367944D02*
X0561370Y0367944D01*
X0561370Y0366345D02*
X0597228Y0366345D01*
X0597228Y0364747D02*
X0561370Y0364747D01*
X0561370Y0363148D02*
X0597228Y0363148D01*
X0597228Y0361550D02*
X0561370Y0361550D01*
X0561370Y0359951D02*
X0597228Y0359951D01*
X0597228Y0358353D02*
X0561370Y0358353D01*
X0561862Y0356754D02*
X0597228Y0356754D01*
X0597228Y0355156D02*
X0564141Y0355156D01*
X0564670Y0353557D02*
X0597228Y0353557D01*
X0597228Y0351959D02*
X0564670Y0351959D01*
X0564670Y0350360D02*
X0597228Y0350360D01*
X0597228Y0348762D02*
X0564670Y0348762D01*
X0564670Y0347163D02*
X0597228Y0347163D01*
X0597228Y0345565D02*
X0564670Y0345565D01*
X0564670Y0343966D02*
X0597228Y0343966D01*
X0597228Y0342368D02*
X0564670Y0342368D01*
X0564670Y0340769D02*
X0597228Y0340769D01*
X0597228Y0339171D02*
X0564670Y0339171D01*
X0564670Y0337572D02*
X0597228Y0337572D01*
X0597228Y0335974D02*
X0564670Y0335974D01*
X0564670Y0334375D02*
X0597228Y0334375D01*
X0597228Y0332777D02*
X0564670Y0332777D01*
X0564670Y0331178D02*
X0597228Y0331178D01*
X0597228Y0329580D02*
X0564670Y0329580D01*
X0564670Y0327981D02*
X0597228Y0327981D01*
X0597228Y0326383D02*
X0564670Y0326383D01*
X0564670Y0324784D02*
X0597228Y0324784D01*
X0597228Y0323185D02*
X0564670Y0323185D01*
X0564670Y0321587D02*
X0597228Y0321587D01*
X0597228Y0319988D02*
X0564670Y0319988D01*
X0564670Y0318390D02*
X0597228Y0318390D01*
X0597228Y0316791D02*
X0564670Y0316791D01*
X0564670Y0315193D02*
X0597228Y0315193D01*
X0597228Y0313594D02*
X0564285Y0313594D01*
X0562698Y0311996D02*
X0597228Y0311996D01*
X0597228Y0310397D02*
X0560670Y0310397D01*
X0560670Y0308799D02*
X0597228Y0308799D01*
X0597228Y0307200D02*
X0560670Y0307200D01*
X0560670Y0305602D02*
X0597228Y0305602D01*
X0597228Y0304003D02*
X0560670Y0304003D01*
X0560670Y0302405D02*
X0597228Y0302405D01*
X0597228Y0300806D02*
X0560670Y0300806D01*
X0560670Y0299208D02*
X0597228Y0299208D01*
X0597228Y0297609D02*
X0560670Y0297609D01*
X0560670Y0296011D02*
X0597228Y0296011D01*
X0597228Y0294412D02*
X0560670Y0294412D01*
X0560665Y0292814D02*
X0597228Y0292814D01*
X0597228Y0291215D02*
X0559846Y0291215D01*
X0558170Y0289617D02*
X0597228Y0289617D01*
X0597228Y0288018D02*
X0558170Y0288018D01*
X0558170Y0286420D02*
X0597228Y0286420D01*
X0597228Y0284821D02*
X0558170Y0284821D01*
X0558170Y0283223D02*
X0597228Y0283223D01*
X0597228Y0281624D02*
X0558170Y0281624D01*
X0558170Y0280026D02*
X0597228Y0280026D01*
X0597228Y0278427D02*
X0558170Y0278427D01*
X0558170Y0276829D02*
X0597228Y0276829D01*
X0597228Y0275230D02*
X0558170Y0275230D01*
X0558170Y0273632D02*
X0597228Y0273632D01*
X0597228Y0272033D02*
X0558170Y0272033D01*
X0558170Y0270435D02*
X0597228Y0270435D01*
X0597228Y0268836D02*
X0558170Y0268836D01*
X0558170Y0267238D02*
X0597228Y0267238D01*
X0597228Y0265639D02*
X0558170Y0265639D01*
X0558170Y0264041D02*
X0597228Y0264041D01*
X0597228Y0262442D02*
X0558170Y0262442D01*
X0558170Y0260844D02*
X0597228Y0260844D01*
X0597228Y0259245D02*
X0558170Y0259245D01*
X0558170Y0257647D02*
X0597228Y0257647D01*
X0597228Y0256048D02*
X0557378Y0256048D01*
X0554470Y0254450D02*
X0597228Y0254450D01*
X0597228Y0252851D02*
X0554470Y0252851D01*
X0554470Y0251252D02*
X0597228Y0251252D01*
X0597228Y0249654D02*
X0554470Y0249654D01*
X0554470Y0248055D02*
X0597228Y0248055D01*
X0597228Y0246457D02*
X0554470Y0246457D01*
X0554470Y0244858D02*
X0597228Y0244858D01*
X0597228Y0243260D02*
X0554470Y0243260D01*
X0554470Y0241661D02*
X0581419Y0241661D01*
X0578944Y0240063D02*
X0554470Y0240063D01*
X0554470Y0238464D02*
X0577811Y0238464D01*
X0577176Y0236866D02*
X0554768Y0236866D01*
X0581878Y0228873D02*
X0597228Y0228873D01*
X0597228Y0230472D02*
X0587277Y0230472D01*
X0588875Y0232070D02*
X0597228Y0232070D01*
X0597228Y0233669D02*
X0589543Y0233669D01*
X0589850Y0235267D02*
X0597228Y0235267D01*
X0597228Y0236866D02*
X0589850Y0236866D01*
X0589214Y0238464D02*
X0597228Y0238464D01*
X0597228Y0240063D02*
X0588081Y0240063D01*
X0585607Y0241661D02*
X0597228Y0241661D01*
X0583992Y0214487D02*
X0583033Y0214487D01*
X0583033Y0212888D02*
X0583992Y0212888D01*
X0583992Y0211290D02*
X0583033Y0211290D01*
X0558221Y0211290D02*
X0554370Y0211290D01*
X0554370Y0212888D02*
X0556622Y0212888D01*
X0555024Y0214487D02*
X0554370Y0214487D01*
X0586213Y0057833D02*
X0082740Y0057833D01*
X0082375Y0056234D02*
X0582838Y0056234D01*
X0581240Y0054636D02*
X0081142Y0054636D01*
X0082358Y0056160D02*
X0082358Y0056160D01*
X0078969Y0053037D02*
X0580215Y0053037D01*
X0579553Y0051439D02*
X0058614Y0051439D01*
X0057951Y0053037D02*
X0073214Y0053037D01*
X0071040Y0054636D02*
X0056927Y0054636D01*
X0055329Y0056234D02*
X0069808Y0056234D01*
X0069443Y0057833D02*
X0051954Y0057833D01*
X0047709Y0057833D02*
X0040860Y0057833D01*
X0040860Y0059431D02*
X0069194Y0059431D01*
X0069558Y0061030D02*
X0040860Y0061030D01*
X0040860Y0062628D02*
X0070169Y0062628D01*
X0071444Y0064227D02*
X0040860Y0064227D01*
X0040860Y0065825D02*
X0074266Y0065825D01*
X0071755Y0064616D02*
X0071755Y0064616D01*
X0061039Y0067424D02*
X0040860Y0067424D01*
X0040860Y0069022D02*
X0059842Y0069022D01*
X0059570Y0070621D02*
X0040860Y0070621D01*
X0040860Y0072219D02*
X0059570Y0072219D01*
X0059570Y0073818D02*
X0040860Y0073818D01*
X0040860Y0075416D02*
X0059570Y0075416D01*
X0059570Y0077015D02*
X0040860Y0077015D01*
X0040860Y0078613D02*
X0059570Y0078613D01*
X0059570Y0080212D02*
X0040860Y0080212D01*
X0040860Y0081810D02*
X0059570Y0081810D01*
X0059570Y0083409D02*
X0040860Y0083409D01*
X0040860Y0085007D02*
X0059570Y0085007D01*
X0059570Y0086606D02*
X0040860Y0086606D01*
X0040860Y0088204D02*
X0059570Y0088204D01*
X0059570Y0089803D02*
X0040860Y0089803D01*
X0040860Y0091401D02*
X0059570Y0091401D01*
X0059570Y0093000D02*
X0040860Y0093000D01*
X0040860Y0094598D02*
X0059570Y0094598D01*
X0059570Y0096197D02*
X0040860Y0096197D01*
X0040860Y0097795D02*
X0059570Y0097795D01*
X0059570Y0099394D02*
X0040860Y0099394D01*
X0040860Y0100992D02*
X0059570Y0100992D01*
X0059570Y0102591D02*
X0040860Y0102591D01*
X0040860Y0104189D02*
X0060344Y0104189D01*
X0062970Y0105788D02*
X0040860Y0105788D01*
X0040860Y0107386D02*
X0062970Y0107386D01*
X0062970Y0108985D02*
X0040860Y0108985D01*
X0040860Y0110583D02*
X0062970Y0110583D01*
X0062970Y0112182D02*
X0040860Y0112182D01*
X0040860Y0113781D02*
X0062970Y0113781D01*
X0062970Y0115379D02*
X0040860Y0115379D01*
X0040860Y0116978D02*
X0062970Y0116978D01*
X0062970Y0118576D02*
X0040860Y0118576D01*
X0040860Y0120175D02*
X0062970Y0120175D01*
X0062970Y0121773D02*
X0040860Y0121773D01*
X0040860Y0123372D02*
X0062970Y0123372D01*
X0062970Y0124970D02*
X0040860Y0124970D01*
X0040860Y0126569D02*
X0062970Y0126569D01*
X0062970Y0128167D02*
X0040860Y0128167D01*
X0040860Y0129766D02*
X0062466Y0129766D01*
X0060115Y0131364D02*
X0040860Y0131364D01*
X0040860Y0132963D02*
X0059570Y0132963D01*
X0059570Y0134561D02*
X0040860Y0134561D01*
X0040860Y0136160D02*
X0059570Y0136160D01*
X0059570Y0137758D02*
X0040860Y0137758D01*
X0040860Y0139357D02*
X0059570Y0139357D01*
X0059570Y0140955D02*
X0040860Y0140955D01*
X0040860Y0142554D02*
X0059570Y0142554D01*
X0059570Y0144152D02*
X0040860Y0144152D01*
X0040860Y0145751D02*
X0059570Y0145751D01*
X0059570Y0147349D02*
X0040860Y0147349D01*
X0040860Y0148948D02*
X0059570Y0148948D01*
X0059570Y0150546D02*
X0040860Y0150546D01*
X0040860Y0152145D02*
X0059570Y0152145D01*
X0059570Y0153743D02*
X0040860Y0153743D01*
X0040860Y0155342D02*
X0059570Y0155342D01*
X0059570Y0156940D02*
X0040860Y0156940D01*
X0040860Y0158539D02*
X0059570Y0158539D01*
X0059570Y0160137D02*
X0040860Y0160137D01*
X0053420Y0161736D02*
X0059570Y0161736D01*
X0059570Y0163334D02*
X0053420Y0163334D01*
X0053420Y0164933D02*
X0059570Y0164933D01*
X0059944Y0166531D02*
X0053420Y0166531D01*
X0053420Y0168130D02*
X0061471Y0168130D01*
X0063370Y0169728D02*
X0053420Y0169728D01*
X0053420Y0171327D02*
X0063370Y0171327D01*
X0063370Y0172925D02*
X0053420Y0172925D01*
X0053420Y0174524D02*
X0063370Y0174524D01*
X0063370Y0176122D02*
X0053420Y0176122D01*
X0053420Y0177721D02*
X0063370Y0177721D01*
X0063370Y0179319D02*
X0053420Y0179319D01*
X0053420Y0180918D02*
X0063370Y0180918D01*
X0063370Y0182516D02*
X0053420Y0182516D01*
X0053420Y0184115D02*
X0063370Y0184115D01*
X0063370Y0185714D02*
X0053420Y0185714D01*
X0053420Y0187312D02*
X0063370Y0187312D01*
X0063370Y0188911D02*
X0053420Y0188911D01*
X0053420Y0190509D02*
X0063370Y0190509D01*
X0044334Y0056234D02*
X0040888Y0056234D01*
X0041015Y0054636D02*
X0042736Y0054636D01*
X0041712Y0053037D02*
X0041380Y0053037D01*
X0408564Y0049840D02*
X0579236Y0049840D01*
X0579236Y0048242D02*
X0408820Y0048242D01*
X0408820Y0046643D02*
X0579406Y0046643D01*
X0580068Y0045045D02*
X0408820Y0045045D01*
X0408820Y0043446D02*
X0580884Y0043446D01*
X0582483Y0041848D02*
X0408820Y0041848D01*
X0408820Y0040249D02*
X0583372Y0040249D01*
X0566694Y0392121D02*
X0563599Y0392121D01*
X0560810Y0393464D01*
X0560810Y0393464D01*
X0558880Y0395884D01*
X0558880Y0395884D01*
X0558191Y0398902D01*
X0558191Y0398902D01*
X0558880Y0401920D01*
X0558880Y0401920D01*
X0560810Y0404340D01*
X0560810Y0404340D01*
X0560810Y0404340D01*
X0563599Y0405683D01*
X0566694Y0405683D01*
X0569483Y0404340D01*
X0569483Y0404340D01*
X0571413Y0401920D01*
X0571413Y0401920D01*
X0572102Y0398902D01*
X0571413Y0395884D01*
X0569483Y0393464D01*
X0569483Y0393464D01*
X0569483Y0393464D01*
X0566694Y0392121D01*
X0569528Y0393520D02*
X0597228Y0393520D01*
X0597228Y0395119D02*
X0570802Y0395119D01*
X0571413Y0395884D02*
X0571413Y0395884D01*
X0571603Y0396717D02*
X0597228Y0396717D01*
X0597228Y0398316D02*
X0571968Y0398316D01*
X0571871Y0399914D02*
X0597228Y0399914D01*
X0597208Y0401513D02*
X0592515Y0401513D01*
X0594113Y0403111D02*
X0597105Y0403111D01*
X0596740Y0404710D02*
X0595218Y0404710D01*
X0595880Y0406308D02*
X0596375Y0406308D01*
X0581794Y0401513D02*
X0571506Y0401513D01*
X0570464Y0403111D02*
X0580196Y0403111D01*
X0579091Y0404710D02*
X0568717Y0404710D01*
X0561576Y0404710D02*
X0082468Y0404710D01*
X0081570Y0405836D02*
X0078781Y0407180D01*
X0075685Y0407180D01*
X0072896Y0405836D01*
X0070966Y0403416D01*
X0070278Y0400398D01*
X0070966Y0397381D01*
X0070966Y0397381D01*
X0072896Y0394960D01*
X0075685Y0393617D01*
X0078781Y0393617D01*
X0081570Y0394960D01*
X0081570Y0394960D01*
X0081570Y0394960D01*
X0083500Y0397381D01*
X0084189Y0400398D01*
X0084189Y0400398D01*
X0083500Y0403416D01*
X0083500Y0403416D01*
X0081570Y0405836D01*
X0081570Y0405836D01*
X0080590Y0406308D02*
X0197135Y0406308D01*
X0197135Y0407907D02*
X0058931Y0407907D01*
X0058931Y0409505D02*
X0197135Y0409505D01*
X0197135Y0411104D02*
X0058818Y0411104D01*
X0058155Y0412702D02*
X0197135Y0412702D01*
X0197135Y0414301D02*
X0057420Y0414301D01*
X0055821Y0415899D02*
X0197135Y0415899D01*
X0197135Y0417498D02*
X0054117Y0417498D01*
X0058557Y0406308D02*
X0073876Y0406308D01*
X0072896Y0405836D02*
X0072896Y0405836D01*
X0071998Y0404710D02*
X0057895Y0404710D01*
X0056790Y0403111D02*
X0070897Y0403111D01*
X0070966Y0403416D02*
X0070966Y0403416D01*
X0070532Y0401513D02*
X0055192Y0401513D01*
X0044471Y0401513D02*
X0040880Y0401513D01*
X0040860Y0399914D02*
X0070388Y0399914D01*
X0070278Y0400398D02*
X0070278Y0400398D01*
X0070753Y0398316D02*
X0040860Y0398316D01*
X0040860Y0396717D02*
X0071496Y0396717D01*
X0072770Y0395119D02*
X0040860Y0395119D01*
X0040860Y0393520D02*
X0044549Y0393520D01*
X0043245Y0391921D02*
X0040860Y0391921D01*
X0040860Y0390323D02*
X0043186Y0390323D01*
X0044281Y0388724D02*
X0040860Y0388724D01*
X0047297Y0393520D02*
X0560765Y0393520D01*
X0559491Y0395119D02*
X0081696Y0395119D01*
X0082971Y0396717D02*
X0558690Y0396717D01*
X0558325Y0398316D02*
X0083713Y0398316D01*
X0083500Y0397381D02*
X0083500Y0397381D01*
X0084078Y0399914D02*
X0558422Y0399914D01*
X0558787Y0401513D02*
X0083934Y0401513D01*
X0083569Y0403111D02*
X0559829Y0403111D01*
X0578055Y0407907D02*
X0340435Y0407907D01*
X0340435Y0409505D02*
X0578055Y0409505D01*
X0578168Y0411104D02*
X0340435Y0411104D01*
X0340435Y0412702D02*
X0578830Y0412702D01*
X0579566Y0414301D02*
X0340435Y0414301D01*
X0340435Y0415899D02*
X0581165Y0415899D01*
X0583843Y0417498D02*
X0340435Y0417498D01*
X0340435Y0406308D02*
X0578429Y0406308D01*
X0072896Y0394960D02*
X0072896Y0394960D01*
X0042873Y0403111D02*
X0040984Y0403111D01*
X0041348Y0404710D02*
X0041768Y0404710D01*
D15*
X0306120Y0231652D02*
X0306120Y0229252D01*
X0306120Y0231652D02*
X0307320Y0232852D01*
X0316420Y0232852D01*
X0318420Y0230852D01*
X0551020Y0230852D01*
X0562120Y0219752D01*
X0579220Y0219752D01*
X0583420Y0215552D01*
X0583513Y0195670D02*
X0549514Y0228669D01*
X0313042Y0228469D01*
D16*
X0317220Y0222904D02*
X0327220Y0222904D01*
X0327220Y0196404D01*
X0337220Y0196404D01*
X0337220Y0222904D01*
X0347220Y0222904D01*
X0347220Y0196404D01*
X0357220Y0196404D01*
X0357220Y0222904D01*
X0367220Y0222904D01*
X0367220Y0196404D01*
X0377220Y0196404D01*
X0377220Y0222904D01*
X0387220Y0222904D01*
X0387220Y0196404D01*
X0397220Y0196404D01*
X0397220Y0222904D01*
X0407220Y0222904D01*
X0407220Y0196404D01*
X0417220Y0196404D01*
X0417220Y0222904D01*
X0427220Y0222904D01*
X0427220Y0196404D01*
X0433220Y0196404D01*
X0433220Y0222904D01*
X0439220Y0222904D01*
X0439220Y0196404D01*
X0445220Y0196404D01*
X0445220Y0222904D01*
X0451220Y0222904D01*
X0451220Y0196404D01*
X0457220Y0196404D01*
X0457220Y0222904D01*
X0463220Y0222904D01*
X0463220Y0196404D01*
X0469220Y0196404D01*
X0469220Y0222904D01*
X0475220Y0222904D01*
X0475220Y0196404D01*
X0481220Y0196404D01*
X0481220Y0222904D01*
X0487220Y0222904D01*
X0487220Y0196404D01*
X0491520Y0196404D01*
X0491520Y0222904D01*
X0495820Y0222904D01*
X0495820Y0196404D01*
X0500120Y0196404D01*
X0500120Y0222904D01*
X0504420Y0222904D01*
X0504420Y0196404D01*
X0508720Y0196404D01*
X0508720Y0222904D01*
X0513020Y0222904D01*
X0513020Y0196404D01*
X0517220Y0196404D01*
X0517220Y0222904D01*
X0521420Y0222904D01*
X0521420Y0196404D01*
X0525720Y0196404D01*
X0525720Y0222904D01*
X0530020Y0222904D01*
X0530020Y0196404D01*
X0534320Y0196404D01*
X0534320Y0222904D01*
X0538620Y0222904D01*
X0538620Y0196404D01*
X0542920Y0196404D01*
X0542920Y0222904D01*
X0547220Y0222904D01*
X0547220Y0196404D01*
X0551220Y0196404D01*
X0551220Y0164904D01*
X0547220Y0164904D01*
X0547220Y0191404D01*
X0543420Y0191404D01*
X0543420Y0164904D01*
X0539620Y0164904D01*
X0539620Y0191404D01*
X0535820Y0191404D01*
X0535820Y0164904D01*
X0532020Y0164904D01*
X0532020Y0191404D01*
X0528320Y0191404D01*
X0528320Y0164904D01*
X0524620Y0164904D01*
X0524620Y0191404D01*
X0520920Y0191404D01*
X0520920Y0164904D01*
X0517220Y0164904D01*
X0517220Y0191404D01*
X0513520Y0191404D01*
X0513520Y0164904D01*
X0509820Y0164904D01*
X0509820Y0191404D01*
X0506120Y0191404D01*
X0506120Y0164904D01*
X0502420Y0164904D01*
X0502420Y0191404D01*
X0498620Y0191404D01*
X0498620Y0164904D01*
X0494820Y0164904D01*
X0494820Y0191404D01*
X0491020Y0191404D01*
X0491020Y0164904D01*
X0487220Y0164904D01*
X0487220Y0191404D01*
X0482920Y0191404D01*
X0482920Y0164904D01*
X0478620Y0164904D01*
X0478620Y0191404D01*
X0474320Y0191404D01*
X0474320Y0164904D01*
X0470020Y0164904D01*
X0470020Y0191404D01*
X0465720Y0191404D01*
X0465720Y0164904D01*
X0461420Y0164904D01*
X0461420Y0191404D01*
X0457220Y0191404D01*
X0457220Y0164904D01*
X0453020Y0164904D01*
X0453020Y0191404D01*
X0448720Y0191404D01*
X0448720Y0164904D01*
X0444420Y0164904D01*
X0444420Y0191404D01*
X0440120Y0191404D01*
X0440120Y0164904D01*
X0435820Y0164904D01*
X0435820Y0191404D01*
X0431520Y0191404D01*
X0431520Y0164904D01*
X0427220Y0164904D01*
X0427220Y0191404D01*
X0419720Y0191404D01*
X0419720Y0164904D01*
X0412220Y0164904D01*
X0412220Y0191404D01*
X0404720Y0191404D01*
X0404720Y0164904D01*
X0397220Y0164904D01*
X0397220Y0191404D01*
X0389720Y0191404D01*
X0389720Y0164904D01*
X0382220Y0164904D01*
X0382220Y0191404D01*
X0374720Y0191404D01*
X0374720Y0164904D01*
X0367220Y0164904D01*
X0367220Y0191404D01*
X0357220Y0191404D01*
X0357220Y0164904D01*
X0347220Y0164904D01*
X0347220Y0191404D01*
X0337220Y0191404D01*
X0337220Y0164904D01*
X0327220Y0164904D01*
X0327220Y0191404D01*
X0317220Y0191404D01*
X0317220Y0164904D01*
X0303220Y0164904D01*
X0303220Y0191404D01*
X0293220Y0191404D01*
X0293220Y0164904D01*
X0283220Y0164904D01*
X0283220Y0191404D01*
X0273220Y0191404D01*
X0273220Y0164904D01*
X0263220Y0164904D01*
X0263220Y0191404D01*
X0253220Y0191404D01*
X0253220Y0164904D01*
X0243220Y0164904D01*
X0243220Y0191404D01*
X0235720Y0191404D01*
X0235720Y0164904D01*
X0228220Y0164904D01*
X0228220Y0191404D01*
X0220720Y0191404D01*
X0220720Y0164904D01*
X0213220Y0164904D01*
X0213220Y0191404D01*
X0205720Y0191404D01*
X0205720Y0164904D01*
X0198220Y0164904D01*
X0198220Y0191404D01*
X0190720Y0191404D01*
X0190720Y0164904D01*
X0183220Y0164904D01*
X0183220Y0191404D01*
X0178920Y0191404D01*
X0178920Y0164904D01*
X0174620Y0164904D01*
X0174620Y0191404D01*
X0170320Y0191404D01*
X0170320Y0164904D01*
X0166020Y0164904D01*
X0166020Y0191404D01*
X0161720Y0191404D01*
X0161720Y0164904D01*
X0157420Y0164904D01*
X0157420Y0191404D01*
X0153220Y0191404D01*
X0153220Y0164904D01*
X0149020Y0164904D01*
X0149020Y0191404D01*
X0144720Y0191404D01*
X0144720Y0164904D01*
X0140420Y0164904D01*
X0140420Y0191404D01*
X0136120Y0191404D01*
X0136120Y0164904D01*
X0131820Y0164904D01*
X0131820Y0191404D01*
X0127520Y0191404D01*
X0127520Y0164904D01*
X0123220Y0164904D01*
X0123220Y0191404D01*
X0119420Y0191404D01*
X0119420Y0164904D01*
X0115620Y0164904D01*
X0115620Y0191404D01*
X0111820Y0191404D01*
X0111820Y0164904D01*
X0108020Y0164904D01*
X0108020Y0191404D01*
X0104320Y0191404D01*
X0104320Y0164904D01*
X0100620Y0164904D01*
X0100620Y0191404D01*
X0096920Y0191404D01*
X0096920Y0164904D01*
X0093220Y0164904D01*
X0093220Y0191404D01*
X0089520Y0191404D01*
X0089520Y0164904D01*
X0085820Y0164904D01*
X0085820Y0191404D01*
X0082120Y0191404D01*
X0082120Y0164904D01*
X0078420Y0164904D01*
X0078420Y0191404D01*
X0074620Y0191404D01*
X0074620Y0164904D01*
X0070820Y0164904D01*
X0070820Y0191404D01*
X0067020Y0191404D01*
X0067020Y0164904D01*
X0063220Y0164904D01*
X0063220Y0133404D01*
X0067020Y0133404D01*
X0067020Y0159904D01*
X0070820Y0159904D01*
X0070820Y0133404D01*
X0074620Y0133404D01*
X0074620Y0159904D01*
X0078420Y0159904D01*
X0078420Y0133404D01*
X0082120Y0133404D01*
X0082120Y0159904D01*
X0085820Y0159904D01*
X0085820Y0133404D01*
X0089520Y0133404D01*
X0089520Y0159904D01*
X0093220Y0159904D01*
X0093220Y0133404D01*
X0096920Y0133404D01*
X0096920Y0159904D01*
X0100620Y0159904D01*
X0100620Y0133404D01*
X0104320Y0133404D01*
X0104320Y0159904D01*
X0108020Y0159904D01*
X0108020Y0133404D01*
X0111820Y0133404D01*
X0111820Y0159904D01*
X0115620Y0159904D01*
X0115620Y0133404D01*
X0119420Y0133404D01*
X0119420Y0159904D01*
X0123220Y0159904D01*
X0123220Y0133404D01*
X0127520Y0133404D01*
X0127520Y0159904D01*
X0131820Y0159904D01*
X0131820Y0133404D01*
X0136120Y0133404D01*
X0136120Y0159904D01*
X0140420Y0159904D01*
X0140420Y0133404D01*
X0144720Y0133404D01*
X0144720Y0159904D01*
X0149020Y0159904D01*
X0149020Y0133404D01*
X0153220Y0133404D01*
X0153220Y0159904D01*
X0157420Y0159904D01*
X0157420Y0133404D01*
X0161720Y0133404D01*
X0161720Y0159904D01*
X0166020Y0159904D01*
X0166020Y0133404D01*
X0170320Y0133404D01*
X0170320Y0159904D01*
X0174620Y0159904D01*
X0174620Y0133404D01*
X0178920Y0133404D01*
X0178920Y0159904D01*
X0183220Y0159904D01*
X0183220Y0133404D01*
X0189220Y0133404D01*
X0189220Y0159904D01*
X0195220Y0159904D01*
X0195220Y0133404D01*
X0201220Y0133404D01*
X0201220Y0159904D01*
X0207220Y0159904D01*
X0207220Y0133404D01*
X0213220Y0133404D01*
X0213220Y0159904D01*
X0219220Y0159904D01*
X0219220Y0133404D01*
X0225220Y0133404D01*
X0225220Y0159904D01*
X0231220Y0159904D01*
X0231220Y0133404D01*
X0237220Y0133404D01*
X0237220Y0159904D01*
X0243220Y0159904D01*
X0243220Y0133404D01*
X0250720Y0133404D01*
X0250720Y0159904D01*
X0258220Y0159904D01*
X0258220Y0133404D01*
X0265720Y0133404D01*
X0265720Y0159904D01*
X0273220Y0159904D01*
X0273220Y0133404D01*
X0280720Y0133404D01*
X0280720Y0159904D01*
X0288220Y0159904D01*
X0288220Y0133404D01*
X0295720Y0133404D01*
X0295720Y0159904D01*
X0303220Y0159904D01*
X0303220Y0133404D01*
X0314720Y0133404D01*
X0314720Y0159904D01*
X0322220Y0159904D01*
X0322220Y0133404D01*
X0329720Y0133404D01*
X0329720Y0159904D01*
X0337220Y0159904D01*
X0337220Y0133404D01*
X0344720Y0133404D01*
X0344720Y0159904D01*
X0352220Y0159904D01*
X0352220Y0133404D01*
X0359720Y0133404D01*
X0359720Y0159904D01*
X0367220Y0159904D01*
X0367220Y0133404D01*
X0373220Y0133404D01*
X0373220Y0159904D01*
X0379220Y0159904D01*
X0379220Y0133404D01*
X0385220Y0133404D01*
X0385220Y0159904D01*
X0391220Y0159904D01*
X0391220Y0133404D01*
X0397220Y0133404D01*
X0397220Y0159904D01*
X0403220Y0159904D01*
X0403220Y0133404D01*
X0409220Y0133404D01*
X0409220Y0159904D01*
X0415220Y0159904D01*
X0415220Y0133404D01*
X0421220Y0133404D01*
X0421220Y0159904D01*
X0427220Y0159904D01*
X0427220Y0133404D01*
X0431520Y0133404D01*
X0431520Y0159904D01*
X0435820Y0159904D01*
X0435820Y0133404D01*
X0440120Y0133404D01*
X0440120Y0159904D01*
X0444420Y0159904D01*
X0444420Y0133404D01*
X0448720Y0133404D01*
X0448720Y0159904D01*
X0453020Y0159904D01*
X0453020Y0133404D01*
X0457220Y0133404D01*
X0457220Y0159904D01*
X0461420Y0159904D01*
X0461420Y0133404D01*
X0465720Y0133404D01*
X0465720Y0159904D01*
X0470020Y0159904D01*
X0470020Y0133404D01*
X0474320Y0133404D01*
X0474320Y0159904D01*
X0478620Y0159904D01*
X0478620Y0133404D01*
X0482920Y0133404D01*
X0482920Y0159904D01*
X0487220Y0159904D01*
X0487220Y0133404D01*
X0491020Y0133404D01*
X0491020Y0159904D01*
X0494820Y0159904D01*
X0494820Y0133404D01*
X0498620Y0133404D01*
X0498620Y0159904D01*
X0502420Y0159904D01*
X0502420Y0133404D01*
X0506120Y0133404D01*
X0506120Y0159904D01*
X0509820Y0159904D01*
X0509820Y0133404D01*
X0513520Y0133404D01*
X0513520Y0159904D01*
X0517220Y0159904D01*
X0517220Y0133404D01*
X0520920Y0133404D01*
X0520920Y0159904D01*
X0524620Y0159904D01*
X0524620Y0133404D01*
X0528320Y0133404D01*
X0528320Y0159904D01*
X0532020Y0159904D01*
X0532020Y0133404D01*
X0535820Y0133404D01*
X0535820Y0159904D01*
X0539620Y0159904D01*
X0539620Y0133404D01*
X0543420Y0133404D01*
X0543420Y0159904D01*
X0547220Y0159904D01*
X0547220Y0133404D01*
X0551220Y0133404D01*
X0551220Y0101904D01*
X0547220Y0101904D01*
X0547220Y0128404D01*
X0543820Y0128404D01*
X0543820Y0101904D01*
X0540420Y0101904D01*
X0540420Y0128404D01*
X0537020Y0128404D01*
X0537020Y0101904D01*
X0533720Y0101904D01*
X0533720Y0128404D01*
X0530420Y0128404D01*
X0530420Y0101904D01*
X0527120Y0101904D01*
X0527120Y0128404D01*
X0523820Y0128404D01*
X0523820Y0101904D01*
X0520520Y0101904D01*
X0520520Y0128404D01*
X0517220Y0128404D01*
X0517220Y0101904D01*
X0513920Y0101904D01*
X0513920Y0128404D01*
X0510620Y0128404D01*
X0510620Y0101904D01*
X0507320Y0101904D01*
X0507320Y0128404D01*
X0504020Y0128404D01*
X0504020Y0101904D01*
X0500720Y0101904D01*
X0500720Y0128404D01*
X0497420Y0128404D01*
X0497420Y0101904D01*
X0494020Y0101904D01*
X0494020Y0128404D01*
X0490620Y0128404D01*
X0490620Y0101904D01*
X0487220Y0101904D01*
X0487220Y0128404D01*
X0483420Y0128404D01*
X0483420Y0101904D01*
X0479620Y0101904D01*
X0479620Y0128404D01*
X0475820Y0128404D01*
X0475820Y0101904D01*
X0472020Y0101904D01*
X0472020Y0128404D01*
X0468320Y0128404D01*
X0468320Y0101904D01*
X0464620Y0101904D01*
X0464620Y0128404D01*
X0460920Y0128404D01*
X0460920Y0101904D01*
X0457220Y0101904D01*
X0457220Y0128404D01*
X0453520Y0128404D01*
X0453520Y0101904D01*
X0449820Y0101904D01*
X0449820Y0128404D01*
X0446120Y0128404D01*
X0446120Y0101904D01*
X0442420Y0101904D01*
X0442420Y0128404D01*
X0438620Y0128404D01*
X0438620Y0101904D01*
X0434820Y0101904D01*
X0434820Y0128404D01*
X0431020Y0128404D01*
X0431020Y0101904D01*
X0427220Y0101904D01*
X0427220Y0128404D01*
X0422920Y0128404D01*
X0422920Y0101904D01*
X0418620Y0101904D01*
X0418620Y0128404D01*
X0414320Y0128404D01*
X0414320Y0101904D01*
X0410020Y0101904D01*
X0410020Y0128404D01*
X0405720Y0128404D01*
X0405720Y0101904D01*
X0401420Y0101904D01*
X0401420Y0128404D01*
X0397220Y0128404D01*
X0397220Y0101904D01*
X0393020Y0101904D01*
X0393020Y0128404D01*
X0388720Y0128404D01*
X0388720Y0101904D01*
X0384420Y0101904D01*
X0384420Y0128404D01*
X0380120Y0128404D01*
X0380120Y0101904D01*
X0375820Y0101904D01*
X0375820Y0128404D01*
X0371520Y0128404D01*
X0371520Y0101904D01*
X0367220Y0101904D01*
X0367220Y0128404D01*
X0362220Y0128404D01*
X0362220Y0101904D01*
X0357220Y0101904D01*
X0357220Y0128404D01*
X0352220Y0128404D01*
X0352220Y0101904D01*
X0347220Y0101904D01*
X0347220Y0128404D01*
X0342220Y0128404D01*
X0342220Y0101904D01*
X0337220Y0101904D01*
X0337220Y0128404D01*
X0332220Y0128404D01*
X0332220Y0101904D01*
X0327220Y0101904D01*
X0327220Y0128404D01*
X0322220Y0128404D01*
X0322220Y0101904D01*
X0317220Y0101904D01*
X0317220Y0128404D01*
X0312220Y0128404D01*
X0312220Y0101904D01*
X0303220Y0101904D01*
X0303220Y0128404D01*
X0298220Y0128404D01*
X0298220Y0101904D01*
X0293220Y0101904D01*
X0293220Y0128404D01*
X0288220Y0128404D01*
X0288220Y0101904D01*
X0283220Y0101904D01*
X0283220Y0128404D01*
X0278220Y0128404D01*
X0278220Y0101904D01*
X0273220Y0101904D01*
X0273220Y0128404D01*
X0268220Y0128404D01*
X0268220Y0101904D01*
X0263220Y0101904D01*
X0263220Y0128404D01*
X0258220Y0128404D01*
X0258220Y0101904D01*
X0253220Y0101904D01*
X0253220Y0128404D01*
X0248220Y0128404D01*
X0248220Y0101904D01*
X0243220Y0101904D01*
X0243220Y0128404D01*
X0238920Y0128404D01*
X0238920Y0101904D01*
X0234620Y0101904D01*
X0234620Y0128404D01*
X0230320Y0128404D01*
X0230320Y0101904D01*
X0226020Y0101904D01*
X0226020Y0128404D01*
X0221720Y0128404D01*
X0221720Y0101904D01*
X0217420Y0101904D01*
X0217420Y0128404D01*
X0213220Y0128404D01*
X0213220Y0101904D01*
X0209020Y0101904D01*
X0209020Y0128404D01*
X0204720Y0128404D01*
X0204720Y0101904D01*
X0200420Y0101904D01*
X0200420Y0128404D01*
X0196120Y0128404D01*
X0196120Y0101904D01*
X0191820Y0101904D01*
X0191820Y0128404D01*
X0187520Y0128404D01*
X0187520Y0101904D01*
X0183220Y0101904D01*
X0183220Y0128404D01*
X0179420Y0128404D01*
X0179420Y0101904D01*
X0175620Y0101904D01*
X0175620Y0128404D01*
X0171820Y0128404D01*
X0171820Y0101904D01*
X0168020Y0101904D01*
X0168020Y0128404D01*
X0164320Y0128404D01*
X0164320Y0101904D01*
X0160620Y0101904D01*
X0160620Y0128404D01*
X0156920Y0128404D01*
X0156920Y0101904D01*
X0153220Y0101904D01*
X0153220Y0128404D01*
X0149520Y0128404D01*
X0149520Y0101904D01*
X0145820Y0101904D01*
X0145820Y0128404D01*
X0142120Y0128404D01*
X0142120Y0101904D01*
X0138420Y0101904D01*
X0138420Y0128404D01*
X0134620Y0128404D01*
X0134620Y0101904D01*
X0130820Y0101904D01*
X0130820Y0128404D01*
X0127020Y0128404D01*
X0127020Y0101904D01*
X0123220Y0101904D01*
X0123220Y0128404D01*
X0119820Y0128404D01*
X0119820Y0101904D01*
X0116420Y0101904D01*
X0116420Y0128404D01*
X0113020Y0128404D01*
X0113020Y0101904D01*
X0109720Y0101904D01*
X0109720Y0128404D01*
X0106420Y0128404D01*
X0106420Y0101904D01*
X0103120Y0101904D01*
X0103120Y0128404D01*
X0099820Y0128404D01*
X0099820Y0101904D01*
X0096520Y0101904D01*
X0096520Y0128404D01*
X0093220Y0128404D01*
X0093220Y0101904D01*
X0089920Y0101904D01*
X0089920Y0128404D01*
X0086620Y0128404D01*
X0086620Y0101904D01*
X0083320Y0101904D01*
X0083320Y0128404D01*
X0080020Y0128404D01*
X0080020Y0101904D01*
X0076720Y0101904D01*
X0076720Y0128404D01*
X0073420Y0128404D01*
X0073420Y0101904D01*
X0070020Y0101904D01*
X0070020Y0128404D01*
X0066620Y0128404D01*
X0066620Y0101904D01*
X0063220Y0101904D01*
X0063220Y0070404D01*
X0066220Y0070404D01*
X0066220Y0096904D01*
X0069220Y0096904D01*
X0069220Y0070404D01*
X0072220Y0070404D01*
X0072220Y0096904D01*
X0075220Y0096904D01*
X0075220Y0070404D01*
X0078220Y0070404D01*
X0078220Y0096904D01*
X0081220Y0096904D01*
X0081220Y0070404D01*
X0084220Y0070404D01*
X0084220Y0096904D01*
X0087220Y0096904D01*
X0087220Y0070404D01*
X0090220Y0070404D01*
X0090220Y0096904D01*
X0093220Y0096904D01*
X0093220Y0070404D01*
X0096220Y0070404D01*
X0096220Y0096904D01*
X0099220Y0096904D01*
X0099220Y0070404D01*
X0102220Y0070404D01*
X0102220Y0096904D01*
X0105220Y0096904D01*
X0105220Y0070404D01*
X0108220Y0070404D01*
X0108220Y0096904D01*
X0111220Y0096904D01*
X0111220Y0070404D01*
X0114220Y0070404D01*
X0114220Y0096904D01*
X0117220Y0096904D01*
X0117220Y0070404D01*
X0120220Y0070404D01*
X0120220Y0096904D01*
X0123220Y0096904D01*
X0123220Y0070404D01*
X0126620Y0070404D01*
X0126620Y0096904D01*
X0130020Y0096904D01*
X0130020Y0070404D01*
X0133420Y0070404D01*
X0133420Y0096904D01*
X0136720Y0096904D01*
X0136720Y0070404D01*
X0140020Y0070404D01*
X0140020Y0096904D01*
X0143320Y0096904D01*
X0143320Y0070404D01*
X0146620Y0070404D01*
X0146620Y0096904D01*
X0149920Y0096904D01*
X0149920Y0070404D01*
X0153220Y0070404D01*
X0153220Y0096904D01*
X0156520Y0096904D01*
X0156520Y0070404D01*
X0159820Y0070404D01*
X0159820Y0096904D01*
X0163120Y0096904D01*
X0163120Y0070404D01*
X0166420Y0070404D01*
X0166420Y0096904D01*
X0169720Y0096904D01*
X0169720Y0070404D01*
X0173020Y0070404D01*
X0173020Y0096904D01*
X0176420Y0096904D01*
X0176420Y0070404D01*
X0179820Y0070404D01*
X0179820Y0096904D01*
X0183220Y0096904D01*
X0183220Y0070404D01*
X0187020Y0070404D01*
X0187020Y0096904D01*
X0190820Y0096904D01*
X0190820Y0070404D01*
X0194620Y0070404D01*
X0194620Y0096904D01*
X0198420Y0096904D01*
X0198420Y0070404D01*
X0202120Y0070404D01*
X0202120Y0096904D01*
X0205820Y0096904D01*
X0205820Y0070404D01*
X0209520Y0070404D01*
X0209520Y0096904D01*
X0213220Y0096904D01*
X0213220Y0070404D01*
X0216920Y0070404D01*
X0216920Y0096904D01*
X0220620Y0096904D01*
X0220620Y0070404D01*
X0224320Y0070404D01*
X0224320Y0096904D01*
X0228020Y0096904D01*
X0228020Y0070404D01*
X0231820Y0070404D01*
X0231820Y0096904D01*
X0235620Y0096904D01*
X0235620Y0070404D01*
X0239420Y0070404D01*
X0239420Y0096904D01*
X0243220Y0096904D01*
X0243220Y0070404D01*
X0247520Y0070404D01*
X0247520Y0096904D01*
X0251820Y0096904D01*
X0251820Y0070404D01*
X0256120Y0070404D01*
X0256120Y0096904D01*
X0260420Y0096904D01*
X0260420Y0070404D01*
X0264720Y0070404D01*
X0264720Y0096904D01*
X0269020Y0096904D01*
X0269020Y0070404D01*
X0273220Y0070404D01*
X0273220Y0096904D01*
X0277420Y0096904D01*
X0277420Y0070404D01*
X0281720Y0070404D01*
X0281720Y0096904D01*
X0286020Y0096904D01*
X0286020Y0070404D01*
X0290320Y0070404D01*
X0290320Y0096904D01*
X0294620Y0096904D01*
X0294620Y0070404D01*
X0298920Y0070404D01*
X0298920Y0096904D01*
X0303220Y0096904D01*
X0303220Y0070404D01*
X0311520Y0070404D01*
X0311520Y0096904D01*
X0315820Y0096904D01*
X0315820Y0070404D01*
X0320120Y0070404D01*
X0320120Y0096904D01*
X0324420Y0096904D01*
X0324420Y0070404D01*
X0328720Y0070404D01*
X0328720Y0096904D01*
X0333020Y0096904D01*
X0333020Y0070404D01*
X0337220Y0070404D01*
X0337220Y0096904D01*
X0341420Y0096904D01*
X0341420Y0070404D01*
X0345720Y0070404D01*
X0345720Y0096904D01*
X0350020Y0096904D01*
X0350020Y0070404D01*
X0354320Y0070404D01*
X0354320Y0096904D01*
X0358620Y0096904D01*
X0358620Y0070404D01*
X0362920Y0070404D01*
X0362920Y0096904D01*
X0367220Y0096904D01*
X0367220Y0070404D01*
X0371020Y0070404D01*
X0371020Y0096904D01*
X0374820Y0096904D01*
X0374820Y0070404D01*
X0378620Y0070404D01*
X0378620Y0096904D01*
X0382420Y0096904D01*
X0382420Y0070404D01*
X0386120Y0070404D01*
X0386120Y0096904D01*
X0389820Y0096904D01*
X0389820Y0070404D01*
X0393520Y0070404D01*
X0393520Y0096904D01*
X0397220Y0096904D01*
X0397220Y0070404D01*
X0400920Y0070404D01*
X0400920Y0096904D01*
X0404620Y0096904D01*
X0404620Y0070404D01*
X0408320Y0070404D01*
X0408320Y0096904D01*
X0412020Y0096904D01*
X0412020Y0070404D01*
X0415820Y0070404D01*
X0415820Y0096904D01*
X0419620Y0096904D01*
X0419620Y0070404D01*
X0423420Y0070404D01*
X0423420Y0096904D01*
X0427220Y0096904D01*
X0427220Y0070404D01*
X0430620Y0070404D01*
X0430620Y0096904D01*
X0434020Y0096904D01*
X0434020Y0070404D01*
X0437420Y0070404D01*
X0437420Y0096904D01*
X0440720Y0096904D01*
X0440720Y0070404D01*
X0444020Y0070404D01*
X0444020Y0096904D01*
X0447320Y0096904D01*
X0447320Y0070404D01*
X0450620Y0070404D01*
X0450620Y0096904D01*
X0453920Y0096904D01*
X0453920Y0070404D01*
X0457220Y0070404D01*
X0457220Y0096904D01*
X0460520Y0096904D01*
X0460520Y0070404D01*
X0463820Y0070404D01*
X0463820Y0096904D01*
X0467120Y0096904D01*
X0467120Y0070404D01*
X0470420Y0070404D01*
X0470420Y0096904D01*
X0473720Y0096904D01*
X0473720Y0070404D01*
X0477020Y0070404D01*
X0477020Y0096904D01*
X0480420Y0096904D01*
X0480420Y0070404D01*
X0483820Y0070404D01*
X0483820Y0096904D01*
X0487220Y0096904D01*
X0487220Y0070404D01*
X0490220Y0070404D01*
X0490220Y0096904D01*
X0493220Y0096904D01*
X0493220Y0070404D01*
X0496220Y0070404D01*
X0496220Y0096904D01*
X0499220Y0096904D01*
X0499220Y0070404D01*
X0502220Y0070404D01*
X0502220Y0096904D01*
X0505220Y0096904D01*
X0505220Y0070404D01*
X0508220Y0070404D01*
X0508220Y0096904D01*
X0511220Y0096904D01*
X0511220Y0070404D01*
X0514220Y0070404D01*
X0514220Y0096904D01*
X0517220Y0096904D01*
X0517220Y0070404D01*
X0520220Y0070404D01*
X0520220Y0096904D01*
X0523220Y0096904D01*
X0523220Y0070404D01*
X0526220Y0070404D01*
X0526220Y0096904D01*
X0529220Y0096904D01*
X0529220Y0070404D01*
X0532220Y0070404D01*
X0532220Y0096904D01*
X0535220Y0096904D01*
X0535220Y0070404D01*
X0538220Y0070404D01*
X0538220Y0096904D01*
X0541220Y0096904D01*
X0541220Y0070404D01*
X0544220Y0070404D01*
X0544220Y0096904D01*
X0547220Y0096904D01*
X0547220Y0070352D01*
X0550720Y0070352D01*
X0550720Y0097052D01*
X0553820Y0097052D01*
X0553820Y0070352D01*
X0556820Y0070352D01*
X0556820Y0101752D01*
X0554520Y0101752D01*
X0554520Y0136652D01*
X0550320Y0136652D01*
X0550320Y0159952D01*
X0553520Y0159952D01*
X0553520Y0139852D01*
X0557820Y0139852D01*
X0557820Y0104952D01*
X0560920Y0104952D01*
X0560920Y0142952D01*
X0556720Y0142952D01*
X0556720Y0164652D01*
X0554520Y0164652D01*
X0554520Y0199852D01*
X0550720Y0199852D01*
X0550720Y0220552D01*
X0552420Y0222252D01*
X0569320Y0205352D01*
X0569320Y0188852D01*
X0582503Y0175670D01*
X0583513Y0175670D01*
X0579595Y0231752D02*
X0554720Y0231752D01*
X0550820Y0235652D01*
X0550820Y0258352D01*
X0554520Y0258352D01*
X0554520Y0293552D01*
X0557020Y0293552D01*
X0557020Y0315252D01*
X0561020Y0315252D01*
X0561020Y0353152D01*
X0557820Y0353152D01*
X0557820Y0318352D01*
X0553920Y0318352D01*
X0553920Y0298152D01*
X0550620Y0298152D01*
X0550620Y0321552D01*
X0554520Y0321552D01*
X0554520Y0356352D01*
X0557720Y0356352D01*
X0557720Y0387852D01*
X0554420Y0387852D01*
X0554420Y0361352D01*
X0550920Y0361352D01*
X0550920Y0387852D01*
X0547220Y0387852D01*
X0547220Y0361404D01*
X0544220Y0361404D01*
X0544220Y0387904D01*
X0541220Y0387904D01*
X0541220Y0361404D01*
X0538220Y0361404D01*
X0538220Y0387904D01*
X0535220Y0387904D01*
X0535220Y0361404D01*
X0532220Y0361404D01*
X0532220Y0387904D01*
X0529220Y0387904D01*
X0529220Y0361404D01*
X0526220Y0361404D01*
X0526220Y0387904D01*
X0523220Y0387904D01*
X0523220Y0361404D01*
X0520220Y0361404D01*
X0520220Y0387904D01*
X0517220Y0387904D01*
X0517220Y0361404D01*
X0514220Y0361404D01*
X0514220Y0387904D01*
X0511220Y0387904D01*
X0511220Y0361404D01*
X0508220Y0361404D01*
X0508220Y0387904D01*
X0505220Y0387904D01*
X0505220Y0361404D01*
X0502220Y0361404D01*
X0502220Y0387904D01*
X0499220Y0387904D01*
X0499220Y0361404D01*
X0496220Y0361404D01*
X0496220Y0387904D01*
X0493220Y0387904D01*
X0493220Y0361404D01*
X0490220Y0361404D01*
X0490220Y0387904D01*
X0487220Y0387904D01*
X0487220Y0361404D01*
X0483820Y0361404D01*
X0483820Y0387904D01*
X0480420Y0387904D01*
X0480420Y0361404D01*
X0477020Y0361404D01*
X0477020Y0387904D01*
X0473720Y0387904D01*
X0473720Y0361404D01*
X0470420Y0361404D01*
X0470420Y0387904D01*
X0467120Y0387904D01*
X0467120Y0361404D01*
X0463820Y0361404D01*
X0463820Y0387904D01*
X0460520Y0387904D01*
X0460520Y0361404D01*
X0457220Y0361404D01*
X0457220Y0387904D01*
X0453920Y0387904D01*
X0453920Y0361404D01*
X0450620Y0361404D01*
X0450620Y0387904D01*
X0447320Y0387904D01*
X0447320Y0361404D01*
X0444020Y0361404D01*
X0444020Y0387904D01*
X0440720Y0387904D01*
X0440720Y0361404D01*
X0437420Y0361404D01*
X0437420Y0387904D01*
X0434020Y0387904D01*
X0434020Y0361404D01*
X0430620Y0361404D01*
X0430620Y0387904D01*
X0427220Y0387904D01*
X0427220Y0361404D01*
X0423420Y0361404D01*
X0423420Y0387904D01*
X0419620Y0387904D01*
X0419620Y0361404D01*
X0415820Y0361404D01*
X0415820Y0387904D01*
X0412020Y0387904D01*
X0412020Y0361404D01*
X0408320Y0361404D01*
X0408320Y0387904D01*
X0404620Y0387904D01*
X0404620Y0361404D01*
X0400920Y0361404D01*
X0400920Y0387904D01*
X0397220Y0387904D01*
X0397220Y0361404D01*
X0393520Y0361404D01*
X0393520Y0387904D01*
X0389820Y0387904D01*
X0389820Y0361404D01*
X0386120Y0361404D01*
X0386120Y0387904D01*
X0382420Y0387904D01*
X0382420Y0361404D01*
X0378620Y0361404D01*
X0378620Y0387904D01*
X0374820Y0387904D01*
X0374820Y0361404D01*
X0371020Y0361404D01*
X0371020Y0387904D01*
X0367220Y0387904D01*
X0367220Y0361404D01*
X0362920Y0361404D01*
X0362920Y0387904D01*
X0358620Y0387904D01*
X0358620Y0361404D01*
X0354320Y0361404D01*
X0354320Y0387904D01*
X0350020Y0387904D01*
X0350020Y0361404D01*
X0345720Y0361404D01*
X0345720Y0387904D01*
X0341420Y0387904D01*
X0341420Y0361404D01*
X0337220Y0361404D01*
X0337220Y0387904D01*
X0333020Y0387904D01*
X0333020Y0361404D01*
X0328720Y0361404D01*
X0328720Y0387904D01*
X0324420Y0387904D01*
X0324420Y0361404D01*
X0320120Y0361404D01*
X0320120Y0387904D01*
X0315820Y0387904D01*
X0315820Y0361404D01*
X0311520Y0361404D01*
X0311520Y0387904D01*
X0303220Y0387904D01*
X0303220Y0361404D01*
X0298920Y0361404D01*
X0298920Y0387904D01*
X0294620Y0387904D01*
X0294620Y0361404D01*
X0290320Y0361404D01*
X0290320Y0387904D01*
X0286020Y0387904D01*
X0286020Y0361404D01*
X0281720Y0361404D01*
X0281720Y0387904D01*
X0277420Y0387904D01*
X0277420Y0361404D01*
X0273220Y0361404D01*
X0273220Y0387904D01*
X0269020Y0387904D01*
X0269020Y0361404D01*
X0264720Y0361404D01*
X0264720Y0387904D01*
X0260420Y0387904D01*
X0260420Y0361404D01*
X0256120Y0361404D01*
X0256120Y0387904D01*
X0251820Y0387904D01*
X0251820Y0361404D01*
X0247520Y0361404D01*
X0247520Y0387904D01*
X0243220Y0387904D01*
X0243220Y0361404D01*
X0239420Y0361404D01*
X0239420Y0387904D01*
X0235620Y0387904D01*
X0235620Y0361404D01*
X0231820Y0361404D01*
X0231820Y0387904D01*
X0228020Y0387904D01*
X0228020Y0361404D01*
X0224320Y0361404D01*
X0224320Y0387904D01*
X0220620Y0387904D01*
X0220620Y0361404D01*
X0216920Y0361404D01*
X0216920Y0387904D01*
X0213220Y0387904D01*
X0213220Y0361404D01*
X0209520Y0361404D01*
X0209520Y0387904D01*
X0205820Y0387904D01*
X0205820Y0361404D01*
X0202120Y0361404D01*
X0202120Y0387904D01*
X0198420Y0387904D01*
X0198420Y0361404D01*
X0194620Y0361404D01*
X0194620Y0387904D01*
X0190820Y0387904D01*
X0190820Y0361404D01*
X0187020Y0361404D01*
X0187020Y0387904D01*
X0183220Y0387904D01*
X0183220Y0361404D01*
X0179820Y0361404D01*
X0179820Y0387904D01*
X0176420Y0387904D01*
X0176420Y0361404D01*
X0173020Y0361404D01*
X0173020Y0387904D01*
X0169720Y0387904D01*
X0169720Y0361404D01*
X0166420Y0361404D01*
X0166420Y0387904D01*
X0163120Y0387904D01*
X0163120Y0361404D01*
X0159820Y0361404D01*
X0159820Y0387904D01*
X0156520Y0387904D01*
X0156520Y0361404D01*
X0153220Y0361404D01*
X0153220Y0387904D01*
X0149920Y0387904D01*
X0149920Y0361404D01*
X0146620Y0361404D01*
X0146620Y0387904D01*
X0143320Y0387904D01*
X0143320Y0361404D01*
X0140020Y0361404D01*
X0140020Y0387904D01*
X0136720Y0387904D01*
X0136720Y0361404D01*
X0133420Y0361404D01*
X0133420Y0387904D01*
X0130020Y0387904D01*
X0130020Y0361404D01*
X0126620Y0361404D01*
X0126620Y0387904D01*
X0123220Y0387904D01*
X0123220Y0361404D01*
X0120220Y0361404D01*
X0120220Y0387904D01*
X0117220Y0387904D01*
X0117220Y0361404D01*
X0114220Y0361404D01*
X0114220Y0387904D01*
X0111220Y0387904D01*
X0111220Y0361404D01*
X0108220Y0361404D01*
X0108220Y0387904D01*
X0105220Y0387904D01*
X0105220Y0361404D01*
X0102220Y0361404D01*
X0102220Y0387904D01*
X0099220Y0387904D01*
X0099220Y0361404D01*
X0096220Y0361404D01*
X0096220Y0387904D01*
X0093220Y0387904D01*
X0093220Y0361404D01*
X0090220Y0361404D01*
X0090220Y0387904D01*
X0087220Y0387904D01*
X0087220Y0361404D01*
X0084220Y0361404D01*
X0084220Y0387904D01*
X0081220Y0387904D01*
X0081220Y0361404D01*
X0078220Y0361404D01*
X0078220Y0387904D01*
X0075220Y0387904D01*
X0075220Y0361404D01*
X0072220Y0361404D01*
X0072220Y0387904D01*
X0069220Y0387904D01*
X0069220Y0361404D01*
X0066220Y0361404D01*
X0066220Y0387904D01*
X0063220Y0387904D01*
X0063220Y0356404D01*
X0066620Y0356404D01*
X0066620Y0329904D01*
X0070020Y0329904D01*
X0070020Y0356404D01*
X0073420Y0356404D01*
X0073420Y0329904D01*
X0076720Y0329904D01*
X0076720Y0356404D01*
X0080020Y0356404D01*
X0080020Y0329904D01*
X0083320Y0329904D01*
X0083320Y0356404D01*
X0086620Y0356404D01*
X0086620Y0329904D01*
X0089920Y0329904D01*
X0089920Y0356404D01*
X0093220Y0356404D01*
X0093220Y0329904D01*
X0096520Y0329904D01*
X0096520Y0356404D01*
X0099820Y0356404D01*
X0099820Y0329904D01*
X0103120Y0329904D01*
X0103120Y0356404D01*
X0106420Y0356404D01*
X0106420Y0329904D01*
X0109720Y0329904D01*
X0109720Y0356404D01*
X0113020Y0356404D01*
X0113020Y0329904D01*
X0116420Y0329904D01*
X0116420Y0356404D01*
X0119820Y0356404D01*
X0119820Y0329904D01*
X0123220Y0329904D01*
X0123220Y0356404D01*
X0127020Y0356404D01*
X0127020Y0329904D01*
X0130820Y0329904D01*
X0130820Y0356404D01*
X0134620Y0356404D01*
X0134620Y0329904D01*
X0138420Y0329904D01*
X0138420Y0356404D01*
X0142120Y0356404D01*
X0142120Y0329904D01*
X0145820Y0329904D01*
X0145820Y0356404D01*
X0149520Y0356404D01*
X0149520Y0329904D01*
X0153220Y0329904D01*
X0153220Y0356404D01*
X0156920Y0356404D01*
X0156920Y0329904D01*
X0160620Y0329904D01*
X0160620Y0356404D01*
X0164320Y0356404D01*
X0164320Y0329904D01*
X0168020Y0329904D01*
X0168020Y0356404D01*
X0171820Y0356404D01*
X0171820Y0329904D01*
X0175620Y0329904D01*
X0175620Y0356404D01*
X0179420Y0356404D01*
X0179420Y0329904D01*
X0183220Y0329904D01*
X0183220Y0356404D01*
X0187520Y0356404D01*
X0187520Y0329904D01*
X0191820Y0329904D01*
X0191820Y0356404D01*
X0196120Y0356404D01*
X0196120Y0329904D01*
X0200420Y0329904D01*
X0200420Y0356404D01*
X0204720Y0356404D01*
X0204720Y0329904D01*
X0209020Y0329904D01*
X0209020Y0356404D01*
X0213220Y0356404D01*
X0213220Y0329904D01*
X0217420Y0329904D01*
X0217420Y0356404D01*
X0221720Y0356404D01*
X0221720Y0329904D01*
X0226020Y0329904D01*
X0226020Y0356404D01*
X0230320Y0356404D01*
X0230320Y0329904D01*
X0234620Y0329904D01*
X0234620Y0356404D01*
X0238920Y0356404D01*
X0238920Y0329904D01*
X0243220Y0329904D01*
X0243220Y0356404D01*
X0248220Y0356404D01*
X0248220Y0329904D01*
X0253220Y0329904D01*
X0253220Y0356404D01*
X0258220Y0356404D01*
X0258220Y0329904D01*
X0263220Y0329904D01*
X0263220Y0356404D01*
X0268220Y0356404D01*
X0268220Y0329904D01*
X0273220Y0329904D01*
X0273220Y0356404D01*
X0278220Y0356404D01*
X0278220Y0329904D01*
X0283220Y0329904D01*
X0283220Y0356404D01*
X0288220Y0356404D01*
X0288220Y0329904D01*
X0293220Y0329904D01*
X0293220Y0356404D01*
X0298220Y0356404D01*
X0298220Y0329904D01*
X0303220Y0329904D01*
X0303220Y0356404D01*
X0312220Y0356404D01*
X0312220Y0329904D01*
X0317220Y0329904D01*
X0317220Y0356404D01*
X0322220Y0356404D01*
X0322220Y0329904D01*
X0327220Y0329904D01*
X0327220Y0356404D01*
X0332220Y0356404D01*
X0332220Y0329904D01*
X0337220Y0329904D01*
X0337220Y0356404D01*
X0342220Y0356404D01*
X0342220Y0329904D01*
X0347220Y0329904D01*
X0347220Y0356404D01*
X0352220Y0356404D01*
X0352220Y0329904D01*
X0357220Y0329904D01*
X0357220Y0356404D01*
X0362220Y0356404D01*
X0362220Y0329904D01*
X0367220Y0329904D01*
X0367220Y0356404D01*
X0371520Y0356404D01*
X0371520Y0329904D01*
X0375820Y0329904D01*
X0375820Y0356404D01*
X0380120Y0356404D01*
X0380120Y0329904D01*
X0384420Y0329904D01*
X0384420Y0356404D01*
X0388720Y0356404D01*
X0388720Y0329904D01*
X0393020Y0329904D01*
X0393020Y0356404D01*
X0397220Y0356404D01*
X0397220Y0329904D01*
X0401420Y0329904D01*
X0401420Y0356404D01*
X0405720Y0356404D01*
X0405720Y0329904D01*
X0410020Y0329904D01*
X0410020Y0356404D01*
X0414320Y0356404D01*
X0414320Y0329904D01*
X0418620Y0329904D01*
X0418620Y0356404D01*
X0422920Y0356404D01*
X0422920Y0329904D01*
X0427220Y0329904D01*
X0427220Y0356404D01*
X0431020Y0356404D01*
X0431020Y0329904D01*
X0434820Y0329904D01*
X0434820Y0356404D01*
X0438620Y0356404D01*
X0438620Y0329904D01*
X0442420Y0329904D01*
X0442420Y0356404D01*
X0446120Y0356404D01*
X0446120Y0329904D01*
X0449820Y0329904D01*
X0449820Y0356404D01*
X0453520Y0356404D01*
X0453520Y0329904D01*
X0457220Y0329904D01*
X0457220Y0356404D01*
X0460920Y0356404D01*
X0460920Y0329904D01*
X0464620Y0329904D01*
X0464620Y0356404D01*
X0468320Y0356404D01*
X0468320Y0329904D01*
X0472020Y0329904D01*
X0472020Y0356404D01*
X0475820Y0356404D01*
X0475820Y0329904D01*
X0479620Y0329904D01*
X0479620Y0356404D01*
X0483420Y0356404D01*
X0483420Y0329904D01*
X0487220Y0329904D01*
X0487220Y0356404D01*
X0490620Y0356404D01*
X0490620Y0329904D01*
X0494020Y0329904D01*
X0494020Y0356404D01*
X0497420Y0356404D01*
X0497420Y0329904D01*
X0500720Y0329904D01*
X0500720Y0356404D01*
X0504020Y0356404D01*
X0504020Y0329904D01*
X0507320Y0329904D01*
X0507320Y0356404D01*
X0510620Y0356404D01*
X0510620Y0329904D01*
X0513920Y0329904D01*
X0513920Y0356404D01*
X0517220Y0356404D01*
X0517220Y0329904D01*
X0520520Y0329904D01*
X0520520Y0356404D01*
X0523820Y0356404D01*
X0523820Y0329904D01*
X0527120Y0329904D01*
X0527120Y0356404D01*
X0530420Y0356404D01*
X0530420Y0329904D01*
X0533720Y0329904D01*
X0533720Y0356404D01*
X0537020Y0356404D01*
X0537020Y0329904D01*
X0540420Y0329904D01*
X0540420Y0356404D01*
X0543820Y0356404D01*
X0543820Y0329904D01*
X0547220Y0329904D01*
X0547220Y0356404D01*
X0551220Y0356404D01*
X0551220Y0324904D01*
X0547220Y0324904D01*
X0547220Y0298404D01*
X0543820Y0298404D01*
X0543820Y0324904D01*
X0540420Y0324904D01*
X0540420Y0298404D01*
X0537020Y0298404D01*
X0537020Y0324904D01*
X0533720Y0324904D01*
X0533720Y0298404D01*
X0530420Y0298404D01*
X0530420Y0324904D01*
X0527120Y0324904D01*
X0527120Y0298404D01*
X0523820Y0298404D01*
X0523820Y0324904D01*
X0520520Y0324904D01*
X0520520Y0298404D01*
X0517220Y0298404D01*
X0517220Y0324904D01*
X0513920Y0324904D01*
X0513920Y0298404D01*
X0510620Y0298404D01*
X0510620Y0324904D01*
X0507320Y0324904D01*
X0507320Y0298404D01*
X0504020Y0298404D01*
X0504020Y0324904D01*
X0500720Y0324904D01*
X0500720Y0298404D01*
X0497420Y0298404D01*
X0497420Y0324904D01*
X0494020Y0324904D01*
X0494020Y0298404D01*
X0490620Y0298404D01*
X0490620Y0324904D01*
X0487220Y0324904D01*
X0487220Y0298404D01*
X0482220Y0298404D01*
X0482220Y0324904D01*
X0477220Y0324904D01*
X0477220Y0298404D01*
X0472220Y0298404D01*
X0472220Y0324904D01*
X0467220Y0324904D01*
X0467220Y0298404D01*
X0462220Y0298404D01*
X0462220Y0324904D01*
X0457220Y0324904D01*
X0457220Y0298404D01*
X0452220Y0298404D01*
X0452220Y0324904D01*
X0447220Y0324904D01*
X0447220Y0298404D01*
X0442220Y0298404D01*
X0442220Y0324904D01*
X0437220Y0324904D01*
X0437220Y0298404D01*
X0432220Y0298404D01*
X0432220Y0324904D01*
X0427220Y0324904D01*
X0427220Y0298404D01*
X0421220Y0298404D01*
X0421220Y0324904D01*
X0415220Y0324904D01*
X0415220Y0298404D01*
X0409220Y0298404D01*
X0409220Y0324904D01*
X0403220Y0324904D01*
X0403220Y0298404D01*
X0397220Y0298404D01*
X0397220Y0324904D01*
X0391220Y0324904D01*
X0391220Y0298404D01*
X0385220Y0298404D01*
X0385220Y0324904D01*
X0379220Y0324904D01*
X0379220Y0298404D01*
X0373220Y0298404D01*
X0373220Y0324904D01*
X0367220Y0324904D01*
X0367220Y0298404D01*
X0359720Y0298404D01*
X0359720Y0324904D01*
X0352220Y0324904D01*
X0352220Y0298404D01*
X0344720Y0298404D01*
X0344720Y0324904D01*
X0337220Y0324904D01*
X0337220Y0298404D01*
X0329720Y0298404D01*
X0329720Y0324904D01*
X0322220Y0324904D01*
X0322220Y0298404D01*
X0314720Y0298404D01*
X0314720Y0324904D01*
X0303220Y0324904D01*
X0303220Y0298404D01*
X0295720Y0298404D01*
X0295720Y0324904D01*
X0288220Y0324904D01*
X0288220Y0298404D01*
X0280720Y0298404D01*
X0280720Y0324904D01*
X0273220Y0324904D01*
X0273220Y0298404D01*
X0265720Y0298404D01*
X0265720Y0324904D01*
X0258220Y0324904D01*
X0258220Y0298404D01*
X0250720Y0298404D01*
X0250720Y0324904D01*
X0243220Y0324904D01*
X0243220Y0298404D01*
X0237220Y0298404D01*
X0237220Y0324904D01*
X0231220Y0324904D01*
X0231220Y0298404D01*
X0225220Y0298404D01*
X0225220Y0324904D01*
X0219220Y0324904D01*
X0219220Y0298404D01*
X0213220Y0298404D01*
X0213220Y0324904D01*
X0207220Y0324904D01*
X0207220Y0298404D01*
X0201220Y0298404D01*
X0201220Y0324904D01*
X0195220Y0324904D01*
X0195220Y0298404D01*
X0189220Y0298404D01*
X0189220Y0324904D01*
X0183220Y0324904D01*
X0183220Y0298404D01*
X0178220Y0298404D01*
X0178220Y0324904D01*
X0173220Y0324904D01*
X0173220Y0298404D01*
X0168220Y0298404D01*
X0168220Y0324904D01*
X0163220Y0324904D01*
X0163220Y0298404D01*
X0158220Y0298404D01*
X0158220Y0324904D01*
X0153220Y0324904D01*
X0153220Y0298404D01*
X0148220Y0298404D01*
X0148220Y0324904D01*
X0143220Y0324904D01*
X0143220Y0298404D01*
X0138220Y0298404D01*
X0138220Y0324904D01*
X0133220Y0324904D01*
X0133220Y0298404D01*
X0128220Y0298404D01*
X0128220Y0324904D01*
X0123220Y0324904D01*
X0123220Y0298404D01*
X0119820Y0298404D01*
X0119820Y0324904D01*
X0116420Y0324904D01*
X0116420Y0298404D01*
X0113020Y0298404D01*
X0113020Y0324904D01*
X0109720Y0324904D01*
X0109720Y0298404D01*
X0106420Y0298404D01*
X0106420Y0324904D01*
X0103120Y0324904D01*
X0103120Y0298404D01*
X0099820Y0298404D01*
X0099820Y0324904D01*
X0096520Y0324904D01*
X0096520Y0298404D01*
X0093220Y0298404D01*
X0093220Y0324904D01*
X0089920Y0324904D01*
X0089920Y0298404D01*
X0086620Y0298404D01*
X0086620Y0324904D01*
X0083320Y0324904D01*
X0083320Y0298404D01*
X0080020Y0298404D01*
X0080020Y0324904D01*
X0076720Y0324904D01*
X0076720Y0298404D01*
X0073420Y0298404D01*
X0073420Y0324904D01*
X0070020Y0324904D01*
X0070020Y0298404D01*
X0066620Y0298404D01*
X0066620Y0324904D01*
X0063220Y0324904D01*
X0063220Y0293404D01*
X0067020Y0293404D01*
X0067020Y0266904D01*
X0070820Y0266904D01*
X0070820Y0293404D01*
X0074620Y0293404D01*
X0074620Y0266904D01*
X0078420Y0266904D01*
X0078420Y0293404D01*
X0082120Y0293404D01*
X0082120Y0266904D01*
X0085820Y0266904D01*
X0085820Y0293404D01*
X0089520Y0293404D01*
X0089520Y0266904D01*
X0093220Y0266904D01*
X0093220Y0293404D01*
X0096920Y0293404D01*
X0096920Y0266904D01*
X0100620Y0266904D01*
X0100620Y0293404D01*
X0104320Y0293404D01*
X0104320Y0266904D01*
X0108020Y0266904D01*
X0108020Y0293404D01*
X0111820Y0293404D01*
X0111820Y0266904D01*
X0115620Y0266904D01*
X0115620Y0293404D01*
X0119420Y0293404D01*
X0119420Y0266904D01*
X0123220Y0266904D01*
X0123220Y0293404D01*
X0128220Y0293404D01*
X0128220Y0266904D01*
X0133220Y0266904D01*
X0133220Y0293404D01*
X0138220Y0293404D01*
X0138220Y0266904D01*
X0143220Y0266904D01*
X0143220Y0293404D01*
X0148220Y0293404D01*
X0148220Y0266904D01*
X0153220Y0266904D01*
X0153220Y0293404D01*
X0158220Y0293404D01*
X0158220Y0266904D01*
X0163220Y0266904D01*
X0163220Y0293404D01*
X0168220Y0293404D01*
X0168220Y0266904D01*
X0173220Y0266904D01*
X0173220Y0293404D01*
X0178220Y0293404D01*
X0178220Y0266904D01*
X0183220Y0266904D01*
X0183220Y0293404D01*
X0190720Y0293404D01*
X0190720Y0266904D01*
X0198220Y0266904D01*
X0198220Y0293404D01*
X0205720Y0293404D01*
X0205720Y0266904D01*
X0213220Y0266904D01*
X0213220Y0293404D01*
X0220720Y0293404D01*
X0220720Y0266904D01*
X0228220Y0266904D01*
X0228220Y0293404D01*
X0235720Y0293404D01*
X0235720Y0266904D01*
X0243220Y0266904D01*
X0243220Y0293404D01*
X0253220Y0293404D01*
X0253220Y0266904D01*
X0263220Y0266904D01*
X0263220Y0293404D01*
X0273220Y0293404D01*
X0273220Y0266904D01*
X0283220Y0266904D01*
X0283220Y0293404D01*
X0293220Y0293404D01*
X0293220Y0266904D01*
X0303220Y0266904D01*
X0303220Y0293404D01*
X0317220Y0293404D01*
X0317220Y0266904D01*
X0327220Y0266904D01*
X0327220Y0293404D01*
X0337220Y0293404D01*
X0337220Y0266904D01*
X0347220Y0266904D01*
X0347220Y0293404D01*
X0357220Y0293404D01*
X0357220Y0266904D01*
X0367220Y0266904D01*
X0367220Y0293404D01*
X0374720Y0293404D01*
X0374720Y0266904D01*
X0382220Y0266904D01*
X0382220Y0293404D01*
X0389720Y0293404D01*
X0389720Y0266904D01*
X0397220Y0266904D01*
X0397220Y0293404D01*
X0404720Y0293404D01*
X0404720Y0266904D01*
X0412220Y0266904D01*
X0412220Y0293404D01*
X0419720Y0293404D01*
X0419720Y0266904D01*
X0427220Y0266904D01*
X0427220Y0293404D01*
X0432220Y0293404D01*
X0432220Y0266904D01*
X0437220Y0266904D01*
X0437220Y0293404D01*
X0442220Y0293404D01*
X0442220Y0266904D01*
X0447220Y0266904D01*
X0447220Y0293404D01*
X0452220Y0293404D01*
X0452220Y0266904D01*
X0457220Y0266904D01*
X0457220Y0293404D01*
X0462220Y0293404D01*
X0462220Y0266904D01*
X0467220Y0266904D01*
X0467220Y0293404D01*
X0472220Y0293404D01*
X0472220Y0266904D01*
X0477220Y0266904D01*
X0477220Y0293404D01*
X0482220Y0293404D01*
X0482220Y0266904D01*
X0487220Y0266904D01*
X0487220Y0293404D01*
X0491020Y0293404D01*
X0491020Y0266904D01*
X0494820Y0266904D01*
X0494820Y0293404D01*
X0498620Y0293404D01*
X0498620Y0266904D01*
X0502420Y0266904D01*
X0502420Y0293404D01*
X0506120Y0293404D01*
X0506120Y0266904D01*
X0509820Y0266904D01*
X0509820Y0293404D01*
X0513520Y0293404D01*
X0513520Y0266904D01*
X0517220Y0266904D01*
X0517220Y0293404D01*
X0520920Y0293404D01*
X0520920Y0266904D01*
X0524620Y0266904D01*
X0524620Y0293404D01*
X0528320Y0293404D01*
X0528320Y0266904D01*
X0532020Y0266904D01*
X0532020Y0293404D01*
X0535820Y0293404D01*
X0535820Y0266904D01*
X0539620Y0266904D01*
X0539620Y0293404D01*
X0543420Y0293404D01*
X0543420Y0266904D01*
X0547220Y0266904D01*
X0547220Y0293404D01*
X0551220Y0293404D01*
X0551220Y0261904D01*
X0547220Y0261904D01*
X0547220Y0235404D01*
X0542920Y0235404D01*
X0542920Y0261904D01*
X0538620Y0261904D01*
X0538620Y0235404D01*
X0534320Y0235404D01*
X0534320Y0261904D01*
X0530020Y0261904D01*
X0530020Y0235404D01*
X0525720Y0235404D01*
X0525720Y0261904D01*
X0521420Y0261904D01*
X0521420Y0235404D01*
X0517220Y0235404D01*
X0517220Y0261904D01*
X0513020Y0261904D01*
X0513020Y0235404D01*
X0508720Y0235404D01*
X0508720Y0261904D01*
X0504420Y0261904D01*
X0504420Y0235404D01*
X0500120Y0235404D01*
X0500120Y0261904D01*
X0495820Y0261904D01*
X0495820Y0235404D01*
X0491520Y0235404D01*
X0491520Y0261904D01*
X0487220Y0261904D01*
X0487220Y0235404D01*
X0481220Y0235404D01*
X0481220Y0261904D01*
X0475220Y0261904D01*
X0475220Y0235404D01*
X0469220Y0235404D01*
X0469220Y0261904D01*
X0463220Y0261904D01*
X0463220Y0235404D01*
X0457220Y0235404D01*
X0457220Y0261904D01*
X0451220Y0261904D01*
X0451220Y0235404D01*
X0445220Y0235404D01*
X0445220Y0261904D01*
X0439220Y0261904D01*
X0439220Y0235404D01*
X0433220Y0235404D01*
X0433220Y0261904D01*
X0427220Y0261904D01*
X0427220Y0235404D01*
X0417220Y0235404D01*
X0417220Y0261904D01*
X0407220Y0261904D01*
X0407220Y0235404D01*
X0397220Y0235404D01*
X0397220Y0261904D01*
X0387220Y0261904D01*
X0387220Y0235404D01*
X0377220Y0235404D01*
X0377220Y0261904D01*
X0367220Y0261904D01*
X0367220Y0235404D01*
X0357220Y0235404D01*
X0357220Y0261904D01*
X0347220Y0261904D01*
X0347220Y0235404D01*
X0337220Y0235404D01*
X0337220Y0261904D01*
X0327220Y0261904D01*
X0327220Y0235404D01*
X0317220Y0235404D01*
X0317220Y0261904D01*
X0303220Y0261904D01*
X0303220Y0235404D01*
X0293220Y0235404D01*
X0293220Y0261904D01*
X0283220Y0261904D01*
X0283220Y0235404D01*
X0273220Y0235404D01*
X0273220Y0261904D01*
X0263220Y0261904D01*
X0263220Y0235404D01*
X0253220Y0235404D01*
X0253220Y0261904D01*
X0243220Y0261904D01*
X0243220Y0235404D01*
X0233220Y0235404D01*
X0233220Y0261904D01*
X0223220Y0261904D01*
X0223220Y0235404D01*
X0213220Y0235404D01*
X0213220Y0261904D01*
X0203220Y0261904D01*
X0203220Y0235404D01*
X0193220Y0235404D01*
X0193220Y0261904D01*
X0183220Y0261904D01*
X0183220Y0235404D01*
X0177220Y0235404D01*
X0177220Y0261904D01*
X0171220Y0261904D01*
X0171220Y0235404D01*
X0165220Y0235404D01*
X0165220Y0261904D01*
X0159220Y0261904D01*
X0159220Y0235404D01*
X0153220Y0235404D01*
X0153220Y0261904D01*
X0147220Y0261904D01*
X0147220Y0235404D01*
X0141220Y0235404D01*
X0141220Y0261904D01*
X0135220Y0261904D01*
X0135220Y0235404D01*
X0129220Y0235404D01*
X0129220Y0261904D01*
X0123220Y0261904D01*
X0123220Y0235404D01*
X0118920Y0235404D01*
X0118920Y0261904D01*
X0114620Y0261904D01*
X0114620Y0235404D01*
X0110320Y0235404D01*
X0110320Y0261904D01*
X0106020Y0261904D01*
X0106020Y0235404D01*
X0101720Y0235404D01*
X0101720Y0261904D01*
X0097420Y0261904D01*
X0097420Y0235404D01*
X0093220Y0235404D01*
X0093220Y0261904D01*
X0089020Y0261904D01*
X0089020Y0235404D01*
X0084720Y0235404D01*
X0084720Y0261904D01*
X0080420Y0261904D01*
X0080420Y0235404D01*
X0076120Y0235404D01*
X0076120Y0261904D01*
X0071820Y0261904D01*
X0071820Y0235404D01*
X0067520Y0235404D01*
X0067520Y0261904D01*
X0063220Y0261904D01*
X0063220Y0196404D01*
X0067520Y0196404D01*
X0067520Y0222904D01*
X0071820Y0222904D01*
X0071820Y0196404D01*
X0076120Y0196404D01*
X0076120Y0222904D01*
X0080420Y0222904D01*
X0080420Y0196404D01*
X0084720Y0196404D01*
X0084720Y0222904D01*
X0089020Y0222904D01*
X0089020Y0196404D01*
X0093220Y0196404D01*
X0093220Y0222904D01*
X0097420Y0222904D01*
X0097420Y0196404D01*
X0101720Y0196404D01*
X0101720Y0222904D01*
X0106020Y0222904D01*
X0106020Y0196404D01*
X0110320Y0196404D01*
X0110320Y0222904D01*
X0114620Y0222904D01*
X0114620Y0196404D01*
X0118920Y0196404D01*
X0118920Y0222904D01*
X0123220Y0222904D01*
X0123220Y0196404D01*
X0129220Y0196404D01*
X0129220Y0222904D01*
X0135220Y0222904D01*
X0135220Y0196404D01*
X0141220Y0196404D01*
X0141220Y0222904D01*
X0147220Y0222904D01*
X0147220Y0196404D01*
X0153220Y0196404D01*
X0153220Y0222904D01*
X0159220Y0222904D01*
X0159220Y0196404D01*
X0165220Y0196404D01*
X0165220Y0222904D01*
X0171220Y0222904D01*
X0171220Y0196404D01*
X0177220Y0196404D01*
X0177220Y0222904D01*
X0183220Y0222904D01*
X0183220Y0196404D01*
X0193220Y0196404D01*
X0193220Y0222904D01*
X0203220Y0222904D01*
X0203220Y0196404D01*
X0213220Y0196404D01*
X0213220Y0222904D01*
X0223220Y0222904D01*
X0223220Y0196404D01*
X0233220Y0196404D01*
X0233220Y0222904D01*
X0243220Y0222904D01*
X0243220Y0196404D01*
X0253220Y0196404D01*
X0253220Y0222904D01*
X0263220Y0222904D01*
X0263220Y0196404D01*
X0273220Y0196404D01*
X0273220Y0222904D01*
X0283220Y0222904D01*
X0283220Y0196404D01*
X0293220Y0196404D01*
X0293220Y0222904D01*
X0303220Y0222904D01*
X0303220Y0196404D01*
X0317220Y0196404D01*
X0317220Y0222904D01*
X0579595Y0231752D02*
X0583513Y0235670D01*
M02*
