G75*
%MOIN*%
%OFA0B0*%
%FSLAX25Y25*%
%IPPOS*%
%LPD*%
%AMOC8*
5,1,8,0,0,1.08239X$1,22.5*
%
%ADD10C,0.00400*%
%ADD11C,0.00800*%
D10*
X0557091Y0163434D02*
X0560927Y0163434D01*
X0561694Y0164201D01*
X0561694Y0165736D01*
X0560927Y0166503D01*
X0557091Y0166503D01*
X0557091Y0168038D02*
X0557091Y0170340D01*
X0557858Y0171107D01*
X0559393Y0171107D01*
X0560160Y0170340D01*
X0560160Y0168038D01*
X0561694Y0168038D02*
X0557091Y0168038D01*
X0562462Y0172642D02*
X0562462Y0175711D01*
X0561694Y0177246D02*
X0557091Y0177246D01*
X0559393Y0177246D02*
X0559393Y0180315D01*
X0559393Y0181850D02*
X0559393Y0183384D01*
X0561694Y0181850D02*
X0561694Y0184919D01*
X0561694Y0186454D02*
X0558625Y0186454D01*
X0557091Y0187988D01*
X0558625Y0189523D01*
X0561694Y0189523D01*
X0559393Y0189523D02*
X0559393Y0186454D01*
X0557091Y0184919D02*
X0557091Y0181850D01*
X0561694Y0181850D01*
X0561694Y0180315D02*
X0557091Y0180315D01*
X0557091Y0191057D02*
X0557091Y0194127D01*
X0557091Y0192592D02*
X0561694Y0192592D01*
X0557091Y0198476D02*
X0557091Y0201545D01*
X0557091Y0203080D02*
X0561694Y0203080D01*
X0559393Y0203080D02*
X0559393Y0206149D01*
X0558625Y0207683D02*
X0557091Y0209218D01*
X0561694Y0209218D01*
X0561694Y0207683D02*
X0561694Y0210753D01*
X0561694Y0206149D02*
X0557091Y0206149D01*
X0557091Y0200010D02*
X0561694Y0200010D01*
X0560927Y0218476D02*
X0561694Y0219243D01*
X0561694Y0220778D01*
X0560927Y0221545D01*
X0559393Y0221545D01*
X0559393Y0220010D01*
X0560927Y0218476D02*
X0557858Y0218476D01*
X0557091Y0219243D01*
X0557091Y0220778D01*
X0557858Y0221545D01*
X0557091Y0223080D02*
X0561694Y0223080D01*
X0561694Y0226149D02*
X0557091Y0226149D01*
X0557091Y0227683D02*
X0557091Y0229985D01*
X0557858Y0230753D01*
X0560927Y0230753D01*
X0561694Y0229985D01*
X0561694Y0227683D01*
X0557091Y0227683D01*
X0557091Y0223080D02*
X0561694Y0226149D01*
X0559393Y0237372D02*
X0559393Y0240441D01*
X0558625Y0241976D02*
X0557091Y0243510D01*
X0561694Y0243510D01*
X0561694Y0241976D02*
X0561694Y0245045D01*
X0561694Y0246580D02*
X0558625Y0249649D01*
X0557858Y0249649D01*
X0557091Y0248881D01*
X0557091Y0247347D01*
X0557858Y0246580D01*
X0561694Y0246580D02*
X0561694Y0249649D01*
X0560160Y0251183D02*
X0557091Y0251183D01*
X0560160Y0251183D02*
X0561694Y0252718D01*
X0560160Y0254253D01*
X0557091Y0254253D01*
X0557858Y0238906D02*
X0560927Y0238906D01*
X0580308Y0163557D02*
X0583378Y0158953D01*
X0584912Y0159720D02*
X0585680Y0158953D01*
X0587214Y0158953D01*
X0587981Y0159720D01*
X0587981Y0160487D01*
X0587214Y0161255D01*
X0586447Y0161255D01*
X0587214Y0161255D02*
X0587981Y0162022D01*
X0587981Y0162789D01*
X0587214Y0163557D01*
X0585680Y0163557D01*
X0584912Y0162789D01*
X0583378Y0163557D02*
X0580308Y0158953D01*
D11*
X0575574Y0165670D02*
X0591310Y0165670D01*
X0593248Y0165670D01*
X0593248Y0245670D01*
X0595926Y0245670D01*
X0598375Y0245670D01*
X0599556Y0245670D01*
X0599556Y0165670D01*
X0598375Y0165670D01*
X0598375Y0245670D01*
X0595926Y0245670D02*
X0595926Y0165670D01*
X0596709Y0165670D01*
X0598375Y0165670D01*
X0597300Y0164461D02*
X0596709Y0165163D01*
X0596709Y0165670D01*
X0595926Y0165670D02*
X0595080Y0165670D01*
X0593248Y0165670D01*
X0594489Y0164461D02*
X0595080Y0165163D01*
X0595080Y0165670D01*
X0594489Y0164461D02*
X0594489Y0163426D01*
X0597300Y0163426D01*
X0597300Y0164461D01*
X0575974Y0175670D02*
X0575976Y0175855D01*
X0575983Y0176040D01*
X0575994Y0176225D01*
X0576010Y0176409D01*
X0576031Y0176593D01*
X0576056Y0176776D01*
X0576085Y0176959D01*
X0576119Y0177141D01*
X0576157Y0177322D01*
X0576200Y0177502D01*
X0576247Y0177681D01*
X0576299Y0177858D01*
X0576355Y0178035D01*
X0576415Y0178210D01*
X0576479Y0178383D01*
X0576548Y0178555D01*
X0576621Y0178725D01*
X0576698Y0178893D01*
X0576779Y0179060D01*
X0576864Y0179224D01*
X0576953Y0179386D01*
X0577047Y0179546D01*
X0577144Y0179703D01*
X0577245Y0179858D01*
X0577349Y0180011D01*
X0577458Y0180161D01*
X0577570Y0180308D01*
X0577685Y0180453D01*
X0577804Y0180594D01*
X0577927Y0180733D01*
X0578053Y0180868D01*
X0578182Y0181001D01*
X0578315Y0181130D01*
X0578450Y0181256D01*
X0578589Y0181379D01*
X0578730Y0181498D01*
X0578875Y0181613D01*
X0579022Y0181725D01*
X0579172Y0181834D01*
X0579325Y0181938D01*
X0579480Y0182039D01*
X0579637Y0182136D01*
X0579797Y0182230D01*
X0579959Y0182319D01*
X0580123Y0182404D01*
X0580290Y0182485D01*
X0580458Y0182562D01*
X0580628Y0182635D01*
X0580800Y0182704D01*
X0580973Y0182768D01*
X0581148Y0182828D01*
X0581325Y0182884D01*
X0581502Y0182936D01*
X0581681Y0182983D01*
X0581861Y0183026D01*
X0582042Y0183064D01*
X0582224Y0183098D01*
X0582407Y0183127D01*
X0582590Y0183152D01*
X0582774Y0183173D01*
X0582958Y0183189D01*
X0583143Y0183200D01*
X0583328Y0183207D01*
X0583513Y0183209D01*
X0583698Y0183207D01*
X0583883Y0183200D01*
X0584068Y0183189D01*
X0584252Y0183173D01*
X0584436Y0183152D01*
X0584619Y0183127D01*
X0584802Y0183098D01*
X0584984Y0183064D01*
X0585165Y0183026D01*
X0585345Y0182983D01*
X0585524Y0182936D01*
X0585701Y0182884D01*
X0585878Y0182828D01*
X0586053Y0182768D01*
X0586226Y0182704D01*
X0586398Y0182635D01*
X0586568Y0182562D01*
X0586736Y0182485D01*
X0586903Y0182404D01*
X0587067Y0182319D01*
X0587229Y0182230D01*
X0587389Y0182136D01*
X0587546Y0182039D01*
X0587701Y0181938D01*
X0587854Y0181834D01*
X0588004Y0181725D01*
X0588151Y0181613D01*
X0588296Y0181498D01*
X0588437Y0181379D01*
X0588576Y0181256D01*
X0588711Y0181130D01*
X0588844Y0181001D01*
X0588973Y0180868D01*
X0589099Y0180733D01*
X0589222Y0180594D01*
X0589341Y0180453D01*
X0589456Y0180308D01*
X0589568Y0180161D01*
X0589677Y0180011D01*
X0589781Y0179858D01*
X0589882Y0179703D01*
X0589979Y0179546D01*
X0590073Y0179386D01*
X0590162Y0179224D01*
X0590247Y0179060D01*
X0590328Y0178893D01*
X0590405Y0178725D01*
X0590478Y0178555D01*
X0590547Y0178383D01*
X0590611Y0178210D01*
X0590671Y0178035D01*
X0590727Y0177858D01*
X0590779Y0177681D01*
X0590826Y0177502D01*
X0590869Y0177322D01*
X0590907Y0177141D01*
X0590941Y0176959D01*
X0590970Y0176776D01*
X0590995Y0176593D01*
X0591016Y0176409D01*
X0591032Y0176225D01*
X0591043Y0176040D01*
X0591050Y0175855D01*
X0591052Y0175670D01*
X0591050Y0175485D01*
X0591043Y0175300D01*
X0591032Y0175115D01*
X0591016Y0174931D01*
X0590995Y0174747D01*
X0590970Y0174564D01*
X0590941Y0174381D01*
X0590907Y0174199D01*
X0590869Y0174018D01*
X0590826Y0173838D01*
X0590779Y0173659D01*
X0590727Y0173482D01*
X0590671Y0173305D01*
X0590611Y0173130D01*
X0590547Y0172957D01*
X0590478Y0172785D01*
X0590405Y0172615D01*
X0590328Y0172447D01*
X0590247Y0172280D01*
X0590162Y0172116D01*
X0590073Y0171954D01*
X0589979Y0171794D01*
X0589882Y0171637D01*
X0589781Y0171482D01*
X0589677Y0171329D01*
X0589568Y0171179D01*
X0589456Y0171032D01*
X0589341Y0170887D01*
X0589222Y0170746D01*
X0589099Y0170607D01*
X0588973Y0170472D01*
X0588844Y0170339D01*
X0588711Y0170210D01*
X0588576Y0170084D01*
X0588437Y0169961D01*
X0588296Y0169842D01*
X0588151Y0169727D01*
X0588004Y0169615D01*
X0587854Y0169506D01*
X0587701Y0169402D01*
X0587546Y0169301D01*
X0587389Y0169204D01*
X0587229Y0169110D01*
X0587067Y0169021D01*
X0586903Y0168936D01*
X0586736Y0168855D01*
X0586568Y0168778D01*
X0586398Y0168705D01*
X0586226Y0168636D01*
X0586053Y0168572D01*
X0585878Y0168512D01*
X0585701Y0168456D01*
X0585524Y0168404D01*
X0585345Y0168357D01*
X0585165Y0168314D01*
X0584984Y0168276D01*
X0584802Y0168242D01*
X0584619Y0168213D01*
X0584436Y0168188D01*
X0584252Y0168167D01*
X0584068Y0168151D01*
X0583883Y0168140D01*
X0583698Y0168133D01*
X0583513Y0168131D01*
X0583328Y0168133D01*
X0583143Y0168140D01*
X0582958Y0168151D01*
X0582774Y0168167D01*
X0582590Y0168188D01*
X0582407Y0168213D01*
X0582224Y0168242D01*
X0582042Y0168276D01*
X0581861Y0168314D01*
X0581681Y0168357D01*
X0581502Y0168404D01*
X0581325Y0168456D01*
X0581148Y0168512D01*
X0580973Y0168572D01*
X0580800Y0168636D01*
X0580628Y0168705D01*
X0580458Y0168778D01*
X0580290Y0168855D01*
X0580123Y0168936D01*
X0579959Y0169021D01*
X0579797Y0169110D01*
X0579637Y0169204D01*
X0579480Y0169301D01*
X0579325Y0169402D01*
X0579172Y0169506D01*
X0579022Y0169615D01*
X0578875Y0169727D01*
X0578730Y0169842D01*
X0578589Y0169961D01*
X0578450Y0170084D01*
X0578315Y0170210D01*
X0578182Y0170339D01*
X0578053Y0170472D01*
X0577927Y0170607D01*
X0577804Y0170746D01*
X0577685Y0170887D01*
X0577570Y0171032D01*
X0577458Y0171179D01*
X0577349Y0171329D01*
X0577245Y0171482D01*
X0577144Y0171637D01*
X0577047Y0171794D01*
X0576953Y0171954D01*
X0576864Y0172116D01*
X0576779Y0172280D01*
X0576698Y0172447D01*
X0576621Y0172615D01*
X0576548Y0172785D01*
X0576479Y0172957D01*
X0576415Y0173130D01*
X0576355Y0173305D01*
X0576299Y0173482D01*
X0576247Y0173659D01*
X0576200Y0173838D01*
X0576157Y0174018D01*
X0576119Y0174199D01*
X0576085Y0174381D01*
X0576056Y0174564D01*
X0576031Y0174747D01*
X0576010Y0174931D01*
X0575994Y0175115D01*
X0575983Y0175300D01*
X0575976Y0175485D01*
X0575974Y0175670D01*
X0575574Y0165670D02*
X0573673Y0165670D01*
X0567666Y0165670D01*
X0567666Y0245670D01*
X0573673Y0245670D01*
X0575574Y0245670D01*
X0591310Y0245670D01*
X0593248Y0245670D01*
X0575974Y0235670D02*
X0575976Y0235855D01*
X0575983Y0236040D01*
X0575994Y0236225D01*
X0576010Y0236409D01*
X0576031Y0236593D01*
X0576056Y0236776D01*
X0576085Y0236959D01*
X0576119Y0237141D01*
X0576157Y0237322D01*
X0576200Y0237502D01*
X0576247Y0237681D01*
X0576299Y0237858D01*
X0576355Y0238035D01*
X0576415Y0238210D01*
X0576479Y0238383D01*
X0576548Y0238555D01*
X0576621Y0238725D01*
X0576698Y0238893D01*
X0576779Y0239060D01*
X0576864Y0239224D01*
X0576953Y0239386D01*
X0577047Y0239546D01*
X0577144Y0239703D01*
X0577245Y0239858D01*
X0577349Y0240011D01*
X0577458Y0240161D01*
X0577570Y0240308D01*
X0577685Y0240453D01*
X0577804Y0240594D01*
X0577927Y0240733D01*
X0578053Y0240868D01*
X0578182Y0241001D01*
X0578315Y0241130D01*
X0578450Y0241256D01*
X0578589Y0241379D01*
X0578730Y0241498D01*
X0578875Y0241613D01*
X0579022Y0241725D01*
X0579172Y0241834D01*
X0579325Y0241938D01*
X0579480Y0242039D01*
X0579637Y0242136D01*
X0579797Y0242230D01*
X0579959Y0242319D01*
X0580123Y0242404D01*
X0580290Y0242485D01*
X0580458Y0242562D01*
X0580628Y0242635D01*
X0580800Y0242704D01*
X0580973Y0242768D01*
X0581148Y0242828D01*
X0581325Y0242884D01*
X0581502Y0242936D01*
X0581681Y0242983D01*
X0581861Y0243026D01*
X0582042Y0243064D01*
X0582224Y0243098D01*
X0582407Y0243127D01*
X0582590Y0243152D01*
X0582774Y0243173D01*
X0582958Y0243189D01*
X0583143Y0243200D01*
X0583328Y0243207D01*
X0583513Y0243209D01*
X0583698Y0243207D01*
X0583883Y0243200D01*
X0584068Y0243189D01*
X0584252Y0243173D01*
X0584436Y0243152D01*
X0584619Y0243127D01*
X0584802Y0243098D01*
X0584984Y0243064D01*
X0585165Y0243026D01*
X0585345Y0242983D01*
X0585524Y0242936D01*
X0585701Y0242884D01*
X0585878Y0242828D01*
X0586053Y0242768D01*
X0586226Y0242704D01*
X0586398Y0242635D01*
X0586568Y0242562D01*
X0586736Y0242485D01*
X0586903Y0242404D01*
X0587067Y0242319D01*
X0587229Y0242230D01*
X0587389Y0242136D01*
X0587546Y0242039D01*
X0587701Y0241938D01*
X0587854Y0241834D01*
X0588004Y0241725D01*
X0588151Y0241613D01*
X0588296Y0241498D01*
X0588437Y0241379D01*
X0588576Y0241256D01*
X0588711Y0241130D01*
X0588844Y0241001D01*
X0588973Y0240868D01*
X0589099Y0240733D01*
X0589222Y0240594D01*
X0589341Y0240453D01*
X0589456Y0240308D01*
X0589568Y0240161D01*
X0589677Y0240011D01*
X0589781Y0239858D01*
X0589882Y0239703D01*
X0589979Y0239546D01*
X0590073Y0239386D01*
X0590162Y0239224D01*
X0590247Y0239060D01*
X0590328Y0238893D01*
X0590405Y0238725D01*
X0590478Y0238555D01*
X0590547Y0238383D01*
X0590611Y0238210D01*
X0590671Y0238035D01*
X0590727Y0237858D01*
X0590779Y0237681D01*
X0590826Y0237502D01*
X0590869Y0237322D01*
X0590907Y0237141D01*
X0590941Y0236959D01*
X0590970Y0236776D01*
X0590995Y0236593D01*
X0591016Y0236409D01*
X0591032Y0236225D01*
X0591043Y0236040D01*
X0591050Y0235855D01*
X0591052Y0235670D01*
X0591050Y0235485D01*
X0591043Y0235300D01*
X0591032Y0235115D01*
X0591016Y0234931D01*
X0590995Y0234747D01*
X0590970Y0234564D01*
X0590941Y0234381D01*
X0590907Y0234199D01*
X0590869Y0234018D01*
X0590826Y0233838D01*
X0590779Y0233659D01*
X0590727Y0233482D01*
X0590671Y0233305D01*
X0590611Y0233130D01*
X0590547Y0232957D01*
X0590478Y0232785D01*
X0590405Y0232615D01*
X0590328Y0232447D01*
X0590247Y0232280D01*
X0590162Y0232116D01*
X0590073Y0231954D01*
X0589979Y0231794D01*
X0589882Y0231637D01*
X0589781Y0231482D01*
X0589677Y0231329D01*
X0589568Y0231179D01*
X0589456Y0231032D01*
X0589341Y0230887D01*
X0589222Y0230746D01*
X0589099Y0230607D01*
X0588973Y0230472D01*
X0588844Y0230339D01*
X0588711Y0230210D01*
X0588576Y0230084D01*
X0588437Y0229961D01*
X0588296Y0229842D01*
X0588151Y0229727D01*
X0588004Y0229615D01*
X0587854Y0229506D01*
X0587701Y0229402D01*
X0587546Y0229301D01*
X0587389Y0229204D01*
X0587229Y0229110D01*
X0587067Y0229021D01*
X0586903Y0228936D01*
X0586736Y0228855D01*
X0586568Y0228778D01*
X0586398Y0228705D01*
X0586226Y0228636D01*
X0586053Y0228572D01*
X0585878Y0228512D01*
X0585701Y0228456D01*
X0585524Y0228404D01*
X0585345Y0228357D01*
X0585165Y0228314D01*
X0584984Y0228276D01*
X0584802Y0228242D01*
X0584619Y0228213D01*
X0584436Y0228188D01*
X0584252Y0228167D01*
X0584068Y0228151D01*
X0583883Y0228140D01*
X0583698Y0228133D01*
X0583513Y0228131D01*
X0583328Y0228133D01*
X0583143Y0228140D01*
X0582958Y0228151D01*
X0582774Y0228167D01*
X0582590Y0228188D01*
X0582407Y0228213D01*
X0582224Y0228242D01*
X0582042Y0228276D01*
X0581861Y0228314D01*
X0581681Y0228357D01*
X0581502Y0228404D01*
X0581325Y0228456D01*
X0581148Y0228512D01*
X0580973Y0228572D01*
X0580800Y0228636D01*
X0580628Y0228705D01*
X0580458Y0228778D01*
X0580290Y0228855D01*
X0580123Y0228936D01*
X0579959Y0229021D01*
X0579797Y0229110D01*
X0579637Y0229204D01*
X0579480Y0229301D01*
X0579325Y0229402D01*
X0579172Y0229506D01*
X0579022Y0229615D01*
X0578875Y0229727D01*
X0578730Y0229842D01*
X0578589Y0229961D01*
X0578450Y0230084D01*
X0578315Y0230210D01*
X0578182Y0230339D01*
X0578053Y0230472D01*
X0577927Y0230607D01*
X0577804Y0230746D01*
X0577685Y0230887D01*
X0577570Y0231032D01*
X0577458Y0231179D01*
X0577349Y0231329D01*
X0577245Y0231482D01*
X0577144Y0231637D01*
X0577047Y0231794D01*
X0576953Y0231954D01*
X0576864Y0232116D01*
X0576779Y0232280D01*
X0576698Y0232447D01*
X0576621Y0232615D01*
X0576548Y0232785D01*
X0576479Y0232957D01*
X0576415Y0233130D01*
X0576355Y0233305D01*
X0576299Y0233482D01*
X0576247Y0233659D01*
X0576200Y0233838D01*
X0576157Y0234018D01*
X0576119Y0234199D01*
X0576085Y0234381D01*
X0576056Y0234564D01*
X0576031Y0234747D01*
X0576010Y0234931D01*
X0575994Y0235115D01*
X0575983Y0235300D01*
X0575976Y0235485D01*
X0575974Y0235670D01*
X0573673Y0245670D02*
X0573673Y0165670D01*
X0575974Y0195670D02*
X0575976Y0195855D01*
X0575983Y0196040D01*
X0575994Y0196225D01*
X0576010Y0196409D01*
X0576031Y0196593D01*
X0576056Y0196776D01*
X0576085Y0196959D01*
X0576119Y0197141D01*
X0576157Y0197322D01*
X0576200Y0197502D01*
X0576247Y0197681D01*
X0576299Y0197858D01*
X0576355Y0198035D01*
X0576415Y0198210D01*
X0576479Y0198383D01*
X0576548Y0198555D01*
X0576621Y0198725D01*
X0576698Y0198893D01*
X0576779Y0199060D01*
X0576864Y0199224D01*
X0576953Y0199386D01*
X0577047Y0199546D01*
X0577144Y0199703D01*
X0577245Y0199858D01*
X0577349Y0200011D01*
X0577458Y0200161D01*
X0577570Y0200308D01*
X0577685Y0200453D01*
X0577804Y0200594D01*
X0577927Y0200733D01*
X0578053Y0200868D01*
X0578182Y0201001D01*
X0578315Y0201130D01*
X0578450Y0201256D01*
X0578589Y0201379D01*
X0578730Y0201498D01*
X0578875Y0201613D01*
X0579022Y0201725D01*
X0579172Y0201834D01*
X0579325Y0201938D01*
X0579480Y0202039D01*
X0579637Y0202136D01*
X0579797Y0202230D01*
X0579959Y0202319D01*
X0580123Y0202404D01*
X0580290Y0202485D01*
X0580458Y0202562D01*
X0580628Y0202635D01*
X0580800Y0202704D01*
X0580973Y0202768D01*
X0581148Y0202828D01*
X0581325Y0202884D01*
X0581502Y0202936D01*
X0581681Y0202983D01*
X0581861Y0203026D01*
X0582042Y0203064D01*
X0582224Y0203098D01*
X0582407Y0203127D01*
X0582590Y0203152D01*
X0582774Y0203173D01*
X0582958Y0203189D01*
X0583143Y0203200D01*
X0583328Y0203207D01*
X0583513Y0203209D01*
X0583698Y0203207D01*
X0583883Y0203200D01*
X0584068Y0203189D01*
X0584252Y0203173D01*
X0584436Y0203152D01*
X0584619Y0203127D01*
X0584802Y0203098D01*
X0584984Y0203064D01*
X0585165Y0203026D01*
X0585345Y0202983D01*
X0585524Y0202936D01*
X0585701Y0202884D01*
X0585878Y0202828D01*
X0586053Y0202768D01*
X0586226Y0202704D01*
X0586398Y0202635D01*
X0586568Y0202562D01*
X0586736Y0202485D01*
X0586903Y0202404D01*
X0587067Y0202319D01*
X0587229Y0202230D01*
X0587389Y0202136D01*
X0587546Y0202039D01*
X0587701Y0201938D01*
X0587854Y0201834D01*
X0588004Y0201725D01*
X0588151Y0201613D01*
X0588296Y0201498D01*
X0588437Y0201379D01*
X0588576Y0201256D01*
X0588711Y0201130D01*
X0588844Y0201001D01*
X0588973Y0200868D01*
X0589099Y0200733D01*
X0589222Y0200594D01*
X0589341Y0200453D01*
X0589456Y0200308D01*
X0589568Y0200161D01*
X0589677Y0200011D01*
X0589781Y0199858D01*
X0589882Y0199703D01*
X0589979Y0199546D01*
X0590073Y0199386D01*
X0590162Y0199224D01*
X0590247Y0199060D01*
X0590328Y0198893D01*
X0590405Y0198725D01*
X0590478Y0198555D01*
X0590547Y0198383D01*
X0590611Y0198210D01*
X0590671Y0198035D01*
X0590727Y0197858D01*
X0590779Y0197681D01*
X0590826Y0197502D01*
X0590869Y0197322D01*
X0590907Y0197141D01*
X0590941Y0196959D01*
X0590970Y0196776D01*
X0590995Y0196593D01*
X0591016Y0196409D01*
X0591032Y0196225D01*
X0591043Y0196040D01*
X0591050Y0195855D01*
X0591052Y0195670D01*
X0591050Y0195485D01*
X0591043Y0195300D01*
X0591032Y0195115D01*
X0591016Y0194931D01*
X0590995Y0194747D01*
X0590970Y0194564D01*
X0590941Y0194381D01*
X0590907Y0194199D01*
X0590869Y0194018D01*
X0590826Y0193838D01*
X0590779Y0193659D01*
X0590727Y0193482D01*
X0590671Y0193305D01*
X0590611Y0193130D01*
X0590547Y0192957D01*
X0590478Y0192785D01*
X0590405Y0192615D01*
X0590328Y0192447D01*
X0590247Y0192280D01*
X0590162Y0192116D01*
X0590073Y0191954D01*
X0589979Y0191794D01*
X0589882Y0191637D01*
X0589781Y0191482D01*
X0589677Y0191329D01*
X0589568Y0191179D01*
X0589456Y0191032D01*
X0589341Y0190887D01*
X0589222Y0190746D01*
X0589099Y0190607D01*
X0588973Y0190472D01*
X0588844Y0190339D01*
X0588711Y0190210D01*
X0588576Y0190084D01*
X0588437Y0189961D01*
X0588296Y0189842D01*
X0588151Y0189727D01*
X0588004Y0189615D01*
X0587854Y0189506D01*
X0587701Y0189402D01*
X0587546Y0189301D01*
X0587389Y0189204D01*
X0587229Y0189110D01*
X0587067Y0189021D01*
X0586903Y0188936D01*
X0586736Y0188855D01*
X0586568Y0188778D01*
X0586398Y0188705D01*
X0586226Y0188636D01*
X0586053Y0188572D01*
X0585878Y0188512D01*
X0585701Y0188456D01*
X0585524Y0188404D01*
X0585345Y0188357D01*
X0585165Y0188314D01*
X0584984Y0188276D01*
X0584802Y0188242D01*
X0584619Y0188213D01*
X0584436Y0188188D01*
X0584252Y0188167D01*
X0584068Y0188151D01*
X0583883Y0188140D01*
X0583698Y0188133D01*
X0583513Y0188131D01*
X0583328Y0188133D01*
X0583143Y0188140D01*
X0582958Y0188151D01*
X0582774Y0188167D01*
X0582590Y0188188D01*
X0582407Y0188213D01*
X0582224Y0188242D01*
X0582042Y0188276D01*
X0581861Y0188314D01*
X0581681Y0188357D01*
X0581502Y0188404D01*
X0581325Y0188456D01*
X0581148Y0188512D01*
X0580973Y0188572D01*
X0580800Y0188636D01*
X0580628Y0188705D01*
X0580458Y0188778D01*
X0580290Y0188855D01*
X0580123Y0188936D01*
X0579959Y0189021D01*
X0579797Y0189110D01*
X0579637Y0189204D01*
X0579480Y0189301D01*
X0579325Y0189402D01*
X0579172Y0189506D01*
X0579022Y0189615D01*
X0578875Y0189727D01*
X0578730Y0189842D01*
X0578589Y0189961D01*
X0578450Y0190084D01*
X0578315Y0190210D01*
X0578182Y0190339D01*
X0578053Y0190472D01*
X0577927Y0190607D01*
X0577804Y0190746D01*
X0577685Y0190887D01*
X0577570Y0191032D01*
X0577458Y0191179D01*
X0577349Y0191329D01*
X0577245Y0191482D01*
X0577144Y0191637D01*
X0577047Y0191794D01*
X0576953Y0191954D01*
X0576864Y0192116D01*
X0576779Y0192280D01*
X0576698Y0192447D01*
X0576621Y0192615D01*
X0576548Y0192785D01*
X0576479Y0192957D01*
X0576415Y0193130D01*
X0576355Y0193305D01*
X0576299Y0193482D01*
X0576247Y0193659D01*
X0576200Y0193838D01*
X0576157Y0194018D01*
X0576119Y0194199D01*
X0576085Y0194381D01*
X0576056Y0194564D01*
X0576031Y0194747D01*
X0576010Y0194931D01*
X0575994Y0195115D01*
X0575983Y0195300D01*
X0575976Y0195485D01*
X0575974Y0195670D01*
X0575974Y0215670D02*
X0575976Y0215855D01*
X0575983Y0216040D01*
X0575994Y0216225D01*
X0576010Y0216409D01*
X0576031Y0216593D01*
X0576056Y0216776D01*
X0576085Y0216959D01*
X0576119Y0217141D01*
X0576157Y0217322D01*
X0576200Y0217502D01*
X0576247Y0217681D01*
X0576299Y0217858D01*
X0576355Y0218035D01*
X0576415Y0218210D01*
X0576479Y0218383D01*
X0576548Y0218555D01*
X0576621Y0218725D01*
X0576698Y0218893D01*
X0576779Y0219060D01*
X0576864Y0219224D01*
X0576953Y0219386D01*
X0577047Y0219546D01*
X0577144Y0219703D01*
X0577245Y0219858D01*
X0577349Y0220011D01*
X0577458Y0220161D01*
X0577570Y0220308D01*
X0577685Y0220453D01*
X0577804Y0220594D01*
X0577927Y0220733D01*
X0578053Y0220868D01*
X0578182Y0221001D01*
X0578315Y0221130D01*
X0578450Y0221256D01*
X0578589Y0221379D01*
X0578730Y0221498D01*
X0578875Y0221613D01*
X0579022Y0221725D01*
X0579172Y0221834D01*
X0579325Y0221938D01*
X0579480Y0222039D01*
X0579637Y0222136D01*
X0579797Y0222230D01*
X0579959Y0222319D01*
X0580123Y0222404D01*
X0580290Y0222485D01*
X0580458Y0222562D01*
X0580628Y0222635D01*
X0580800Y0222704D01*
X0580973Y0222768D01*
X0581148Y0222828D01*
X0581325Y0222884D01*
X0581502Y0222936D01*
X0581681Y0222983D01*
X0581861Y0223026D01*
X0582042Y0223064D01*
X0582224Y0223098D01*
X0582407Y0223127D01*
X0582590Y0223152D01*
X0582774Y0223173D01*
X0582958Y0223189D01*
X0583143Y0223200D01*
X0583328Y0223207D01*
X0583513Y0223209D01*
X0583698Y0223207D01*
X0583883Y0223200D01*
X0584068Y0223189D01*
X0584252Y0223173D01*
X0584436Y0223152D01*
X0584619Y0223127D01*
X0584802Y0223098D01*
X0584984Y0223064D01*
X0585165Y0223026D01*
X0585345Y0222983D01*
X0585524Y0222936D01*
X0585701Y0222884D01*
X0585878Y0222828D01*
X0586053Y0222768D01*
X0586226Y0222704D01*
X0586398Y0222635D01*
X0586568Y0222562D01*
X0586736Y0222485D01*
X0586903Y0222404D01*
X0587067Y0222319D01*
X0587229Y0222230D01*
X0587389Y0222136D01*
X0587546Y0222039D01*
X0587701Y0221938D01*
X0587854Y0221834D01*
X0588004Y0221725D01*
X0588151Y0221613D01*
X0588296Y0221498D01*
X0588437Y0221379D01*
X0588576Y0221256D01*
X0588711Y0221130D01*
X0588844Y0221001D01*
X0588973Y0220868D01*
X0589099Y0220733D01*
X0589222Y0220594D01*
X0589341Y0220453D01*
X0589456Y0220308D01*
X0589568Y0220161D01*
X0589677Y0220011D01*
X0589781Y0219858D01*
X0589882Y0219703D01*
X0589979Y0219546D01*
X0590073Y0219386D01*
X0590162Y0219224D01*
X0590247Y0219060D01*
X0590328Y0218893D01*
X0590405Y0218725D01*
X0590478Y0218555D01*
X0590547Y0218383D01*
X0590611Y0218210D01*
X0590671Y0218035D01*
X0590727Y0217858D01*
X0590779Y0217681D01*
X0590826Y0217502D01*
X0590869Y0217322D01*
X0590907Y0217141D01*
X0590941Y0216959D01*
X0590970Y0216776D01*
X0590995Y0216593D01*
X0591016Y0216409D01*
X0591032Y0216225D01*
X0591043Y0216040D01*
X0591050Y0215855D01*
X0591052Y0215670D01*
X0591050Y0215485D01*
X0591043Y0215300D01*
X0591032Y0215115D01*
X0591016Y0214931D01*
X0590995Y0214747D01*
X0590970Y0214564D01*
X0590941Y0214381D01*
X0590907Y0214199D01*
X0590869Y0214018D01*
X0590826Y0213838D01*
X0590779Y0213659D01*
X0590727Y0213482D01*
X0590671Y0213305D01*
X0590611Y0213130D01*
X0590547Y0212957D01*
X0590478Y0212785D01*
X0590405Y0212615D01*
X0590328Y0212447D01*
X0590247Y0212280D01*
X0590162Y0212116D01*
X0590073Y0211954D01*
X0589979Y0211794D01*
X0589882Y0211637D01*
X0589781Y0211482D01*
X0589677Y0211329D01*
X0589568Y0211179D01*
X0589456Y0211032D01*
X0589341Y0210887D01*
X0589222Y0210746D01*
X0589099Y0210607D01*
X0588973Y0210472D01*
X0588844Y0210339D01*
X0588711Y0210210D01*
X0588576Y0210084D01*
X0588437Y0209961D01*
X0588296Y0209842D01*
X0588151Y0209727D01*
X0588004Y0209615D01*
X0587854Y0209506D01*
X0587701Y0209402D01*
X0587546Y0209301D01*
X0587389Y0209204D01*
X0587229Y0209110D01*
X0587067Y0209021D01*
X0586903Y0208936D01*
X0586736Y0208855D01*
X0586568Y0208778D01*
X0586398Y0208705D01*
X0586226Y0208636D01*
X0586053Y0208572D01*
X0585878Y0208512D01*
X0585701Y0208456D01*
X0585524Y0208404D01*
X0585345Y0208357D01*
X0585165Y0208314D01*
X0584984Y0208276D01*
X0584802Y0208242D01*
X0584619Y0208213D01*
X0584436Y0208188D01*
X0584252Y0208167D01*
X0584068Y0208151D01*
X0583883Y0208140D01*
X0583698Y0208133D01*
X0583513Y0208131D01*
X0583328Y0208133D01*
X0583143Y0208140D01*
X0582958Y0208151D01*
X0582774Y0208167D01*
X0582590Y0208188D01*
X0582407Y0208213D01*
X0582224Y0208242D01*
X0582042Y0208276D01*
X0581861Y0208314D01*
X0581681Y0208357D01*
X0581502Y0208404D01*
X0581325Y0208456D01*
X0581148Y0208512D01*
X0580973Y0208572D01*
X0580800Y0208636D01*
X0580628Y0208705D01*
X0580458Y0208778D01*
X0580290Y0208855D01*
X0580123Y0208936D01*
X0579959Y0209021D01*
X0579797Y0209110D01*
X0579637Y0209204D01*
X0579480Y0209301D01*
X0579325Y0209402D01*
X0579172Y0209506D01*
X0579022Y0209615D01*
X0578875Y0209727D01*
X0578730Y0209842D01*
X0578589Y0209961D01*
X0578450Y0210084D01*
X0578315Y0210210D01*
X0578182Y0210339D01*
X0578053Y0210472D01*
X0577927Y0210607D01*
X0577804Y0210746D01*
X0577685Y0210887D01*
X0577570Y0211032D01*
X0577458Y0211179D01*
X0577349Y0211329D01*
X0577245Y0211482D01*
X0577144Y0211637D01*
X0577047Y0211794D01*
X0576953Y0211954D01*
X0576864Y0212116D01*
X0576779Y0212280D01*
X0576698Y0212447D01*
X0576621Y0212615D01*
X0576548Y0212785D01*
X0576479Y0212957D01*
X0576415Y0213130D01*
X0576355Y0213305D01*
X0576299Y0213482D01*
X0576247Y0213659D01*
X0576200Y0213838D01*
X0576157Y0214018D01*
X0576119Y0214199D01*
X0576085Y0214381D01*
X0576056Y0214564D01*
X0576031Y0214747D01*
X0576010Y0214931D01*
X0575994Y0215115D01*
X0575983Y0215300D01*
X0575976Y0215485D01*
X0575974Y0215670D01*
M02*
