G75*
%MOIN*%
%OFA0B0*%
%FSLAX25Y25*%
%IPPOS*%
%LPD*%
%AMOC8*
5,1,8,0,0,1.08239X$1,22.5*
%
%ADD10C,0.04000*%
%ADD11R,0.04650X0.05425*%
%ADD12R,0.04724X0.01181*%
%ADD13R,0.11811X0.10630*%
%ADD14C,0.01600*%
%ADD15C,0.01000*%
%ADD16C,0.02500*%
D10*
X0076091Y0059178D03*
X0077233Y0400398D03*
X0565146Y0398902D03*
D11*
X0313042Y0229769D03*
X0305955Y0229769D03*
D12*
X0565240Y0229936D03*
X0565240Y0227968D03*
X0565240Y0225999D03*
X0565240Y0224031D03*
X0565240Y0231905D03*
X0565240Y0233873D03*
D13*
X0572720Y0241472D03*
X0572720Y0216432D03*
D14*
X0552943Y0227936D02*
X0550146Y0225140D01*
X0549288Y0225998D01*
X0547947Y0226554D01*
X0542194Y0226554D01*
X0540853Y0225998D01*
X0540770Y0225916D01*
X0540688Y0225998D01*
X0539347Y0226554D01*
X0533594Y0226554D01*
X0532253Y0225998D01*
X0532170Y0225916D01*
X0532088Y0225998D01*
X0530747Y0226554D01*
X0524994Y0226554D01*
X0523653Y0225998D01*
X0523570Y0225916D01*
X0523488Y0225998D01*
X0522147Y0226554D01*
X0516494Y0226554D01*
X0515153Y0225998D01*
X0515120Y0225966D01*
X0515088Y0225998D01*
X0513747Y0226554D01*
X0507994Y0226554D01*
X0506653Y0225998D01*
X0506570Y0225916D01*
X0506488Y0225998D01*
X0505147Y0226554D01*
X0499394Y0226554D01*
X0498053Y0225998D01*
X0497970Y0225916D01*
X0497888Y0225998D01*
X0496547Y0226554D01*
X0490794Y0226554D01*
X0489453Y0225998D01*
X0489370Y0225916D01*
X0489288Y0225998D01*
X0487947Y0226554D01*
X0480494Y0226554D01*
X0479153Y0225998D01*
X0478220Y0225066D01*
X0477288Y0225998D01*
X0475947Y0226554D01*
X0468494Y0226554D01*
X0467153Y0225998D01*
X0466220Y0225066D01*
X0465288Y0225998D01*
X0463947Y0226554D01*
X0456494Y0226554D01*
X0455153Y0225998D01*
X0454220Y0225066D01*
X0453288Y0225998D01*
X0451947Y0226554D01*
X0444494Y0226554D01*
X0443153Y0225998D01*
X0442220Y0225066D01*
X0441288Y0225998D01*
X0439947Y0226554D01*
X0432494Y0226554D01*
X0431153Y0225998D01*
X0430220Y0225066D01*
X0429288Y0225998D01*
X0427947Y0226554D01*
X0416494Y0226554D01*
X0415153Y0225998D01*
X0414126Y0224971D01*
X0413570Y0223630D01*
X0413570Y0200054D01*
X0410870Y0200054D01*
X0410870Y0223630D01*
X0410315Y0224971D01*
X0409288Y0225998D01*
X0407947Y0226554D01*
X0396494Y0226554D01*
X0395153Y0225998D01*
X0394126Y0224971D01*
X0393570Y0223630D01*
X0393570Y0200054D01*
X0390870Y0200054D01*
X0390870Y0223630D01*
X0390315Y0224971D01*
X0389288Y0225998D01*
X0387947Y0226554D01*
X0376494Y0226554D01*
X0375153Y0225998D01*
X0374126Y0224971D01*
X0373570Y0223630D01*
X0373570Y0200054D01*
X0370870Y0200054D01*
X0370870Y0223630D01*
X0370315Y0224971D01*
X0369288Y0225998D01*
X0367947Y0226554D01*
X0356494Y0226554D01*
X0355153Y0225998D01*
X0354126Y0224971D01*
X0353570Y0223630D01*
X0353570Y0200054D01*
X0350870Y0200054D01*
X0350870Y0223630D01*
X0350315Y0224971D01*
X0349288Y0225998D01*
X0347947Y0226554D01*
X0336494Y0226554D01*
X0335153Y0225998D01*
X0334126Y0224971D01*
X0333570Y0223630D01*
X0333570Y0200054D01*
X0330870Y0200054D01*
X0330870Y0223630D01*
X0330315Y0224971D01*
X0329288Y0225998D01*
X0327947Y0226554D01*
X0316867Y0226554D01*
X0316867Y0227936D01*
X0552943Y0227936D01*
X0552281Y0227275D02*
X0316867Y0227275D01*
X0314711Y0225556D02*
X0314126Y0224971D01*
X0313570Y0223630D01*
X0313570Y0200054D01*
X0306870Y0200054D01*
X0306870Y0223630D01*
X0306315Y0224971D01*
X0305593Y0225694D01*
X0305593Y0229406D01*
X0306318Y0229406D01*
X0306318Y0225256D01*
X0308517Y0225256D01*
X0308975Y0225379D01*
X0309385Y0225616D01*
X0309711Y0225941D01*
X0310095Y0225556D01*
X0314711Y0225556D01*
X0313756Y0224078D02*
X0306685Y0224078D01*
X0306870Y0222479D02*
X0313570Y0222479D01*
X0313570Y0220881D02*
X0306870Y0220881D01*
X0306870Y0219282D02*
X0313570Y0219282D01*
X0313570Y0217684D02*
X0306870Y0217684D01*
X0306870Y0216085D02*
X0313570Y0216085D01*
X0313570Y0214487D02*
X0306870Y0214487D01*
X0306870Y0212888D02*
X0313570Y0212888D01*
X0313570Y0211290D02*
X0306870Y0211290D01*
X0306870Y0209691D02*
X0313570Y0209691D01*
X0313570Y0208093D02*
X0306870Y0208093D01*
X0306870Y0206494D02*
X0313570Y0206494D01*
X0313570Y0204896D02*
X0306870Y0204896D01*
X0306870Y0203297D02*
X0313570Y0203297D01*
X0313570Y0201699D02*
X0306870Y0201699D01*
X0306870Y0200100D02*
X0313570Y0200100D01*
X0330870Y0200100D02*
X0333570Y0200100D01*
X0333570Y0201699D02*
X0330870Y0201699D01*
X0330870Y0203297D02*
X0333570Y0203297D01*
X0333570Y0204896D02*
X0330870Y0204896D01*
X0330870Y0206494D02*
X0333570Y0206494D01*
X0333570Y0208093D02*
X0330870Y0208093D01*
X0330870Y0209691D02*
X0333570Y0209691D01*
X0333570Y0211290D02*
X0330870Y0211290D01*
X0330870Y0212888D02*
X0333570Y0212888D01*
X0333570Y0214487D02*
X0330870Y0214487D01*
X0330870Y0216085D02*
X0333570Y0216085D01*
X0333570Y0217684D02*
X0330870Y0217684D01*
X0330870Y0219282D02*
X0333570Y0219282D01*
X0333570Y0220881D02*
X0330870Y0220881D01*
X0330870Y0222479D02*
X0333570Y0222479D01*
X0333756Y0224078D02*
X0330685Y0224078D01*
X0329610Y0225676D02*
X0334831Y0225676D01*
X0349610Y0225676D02*
X0354831Y0225676D01*
X0353756Y0224078D02*
X0350685Y0224078D01*
X0350870Y0222479D02*
X0353570Y0222479D01*
X0353570Y0220881D02*
X0350870Y0220881D01*
X0350870Y0219282D02*
X0353570Y0219282D01*
X0353570Y0217684D02*
X0350870Y0217684D01*
X0350870Y0216085D02*
X0353570Y0216085D01*
X0353570Y0214487D02*
X0350870Y0214487D01*
X0350870Y0212888D02*
X0353570Y0212888D01*
X0353570Y0211290D02*
X0350870Y0211290D01*
X0350870Y0209691D02*
X0353570Y0209691D01*
X0353570Y0208093D02*
X0350870Y0208093D01*
X0350870Y0206494D02*
X0353570Y0206494D01*
X0353570Y0204896D02*
X0350870Y0204896D01*
X0350870Y0203297D02*
X0353570Y0203297D01*
X0353570Y0201699D02*
X0350870Y0201699D01*
X0350870Y0200100D02*
X0353570Y0200100D01*
X0370870Y0200100D02*
X0373570Y0200100D01*
X0373570Y0201699D02*
X0370870Y0201699D01*
X0370870Y0203297D02*
X0373570Y0203297D01*
X0373570Y0204896D02*
X0370870Y0204896D01*
X0370870Y0206494D02*
X0373570Y0206494D01*
X0373570Y0208093D02*
X0370870Y0208093D01*
X0370870Y0209691D02*
X0373570Y0209691D01*
X0373570Y0211290D02*
X0370870Y0211290D01*
X0370870Y0212888D02*
X0373570Y0212888D01*
X0373570Y0214487D02*
X0370870Y0214487D01*
X0370870Y0216085D02*
X0373570Y0216085D01*
X0373570Y0217684D02*
X0370870Y0217684D01*
X0370870Y0219282D02*
X0373570Y0219282D01*
X0373570Y0220881D02*
X0370870Y0220881D01*
X0370870Y0222479D02*
X0373570Y0222479D01*
X0373756Y0224078D02*
X0370685Y0224078D01*
X0369610Y0225676D02*
X0374831Y0225676D01*
X0389610Y0225676D02*
X0394831Y0225676D01*
X0393756Y0224078D02*
X0390685Y0224078D01*
X0390870Y0222479D02*
X0393570Y0222479D01*
X0393570Y0220881D02*
X0390870Y0220881D01*
X0390870Y0219282D02*
X0393570Y0219282D01*
X0393570Y0217684D02*
X0390870Y0217684D01*
X0390870Y0216085D02*
X0393570Y0216085D01*
X0393570Y0214487D02*
X0390870Y0214487D01*
X0390870Y0212888D02*
X0393570Y0212888D01*
X0393570Y0211290D02*
X0390870Y0211290D01*
X0390870Y0209691D02*
X0393570Y0209691D01*
X0393570Y0208093D02*
X0390870Y0208093D01*
X0390870Y0206494D02*
X0393570Y0206494D01*
X0393570Y0204896D02*
X0390870Y0204896D01*
X0390870Y0203297D02*
X0393570Y0203297D01*
X0393570Y0201699D02*
X0390870Y0201699D01*
X0390870Y0200100D02*
X0393570Y0200100D01*
X0410870Y0200100D02*
X0413570Y0200100D01*
X0413570Y0201699D02*
X0410870Y0201699D01*
X0410870Y0203297D02*
X0413570Y0203297D01*
X0413570Y0204896D02*
X0410870Y0204896D01*
X0410870Y0206494D02*
X0413570Y0206494D01*
X0413570Y0208093D02*
X0410870Y0208093D01*
X0410870Y0209691D02*
X0413570Y0209691D01*
X0413570Y0211290D02*
X0410870Y0211290D01*
X0410870Y0212888D02*
X0413570Y0212888D01*
X0413570Y0214487D02*
X0410870Y0214487D01*
X0410870Y0216085D02*
X0413570Y0216085D01*
X0413570Y0217684D02*
X0410870Y0217684D01*
X0410870Y0219282D02*
X0413570Y0219282D01*
X0413570Y0220881D02*
X0410870Y0220881D01*
X0410870Y0222479D02*
X0413570Y0222479D01*
X0413756Y0224078D02*
X0410685Y0224078D01*
X0409610Y0225676D02*
X0414831Y0225676D01*
X0429610Y0225676D02*
X0430831Y0225676D01*
X0441610Y0225676D02*
X0442831Y0225676D01*
X0453610Y0225676D02*
X0454831Y0225676D01*
X0465610Y0225676D02*
X0466831Y0225676D01*
X0477610Y0225676D02*
X0478831Y0225676D01*
X0549610Y0225676D02*
X0550683Y0225676D01*
X0309975Y0225676D02*
X0309446Y0225676D01*
X0306318Y0225676D02*
X0305610Y0225676D01*
X0305593Y0227275D02*
X0306318Y0227275D01*
X0306318Y0228873D02*
X0305593Y0228873D01*
X0305593Y0229406D02*
X0301830Y0229406D01*
X0301830Y0226819D01*
X0301901Y0226554D01*
X0292494Y0226554D01*
X0291153Y0225998D01*
X0290126Y0224971D01*
X0289570Y0223630D01*
X0289570Y0200054D01*
X0286870Y0200054D01*
X0286870Y0223630D01*
X0286315Y0224971D01*
X0285288Y0225998D01*
X0283947Y0226554D01*
X0272494Y0226554D01*
X0271153Y0225998D01*
X0270126Y0224971D01*
X0269570Y0223630D01*
X0269570Y0200054D01*
X0266870Y0200054D01*
X0266870Y0223630D01*
X0266315Y0224971D01*
X0265288Y0225998D01*
X0263947Y0226554D01*
X0252494Y0226554D01*
X0251153Y0225998D01*
X0250126Y0224971D01*
X0249570Y0223630D01*
X0249570Y0200054D01*
X0246870Y0200054D01*
X0246870Y0223630D01*
X0246315Y0224971D01*
X0245288Y0225998D01*
X0243947Y0226554D01*
X0232494Y0226554D01*
X0231153Y0225998D01*
X0230126Y0224971D01*
X0229570Y0223630D01*
X0229570Y0200054D01*
X0226870Y0200054D01*
X0226870Y0223630D01*
X0226315Y0224971D01*
X0225288Y0225998D01*
X0223947Y0226554D01*
X0212494Y0226554D01*
X0211153Y0225998D01*
X0210126Y0224971D01*
X0209570Y0223630D01*
X0209570Y0200054D01*
X0206870Y0200054D01*
X0206870Y0223630D01*
X0206315Y0224971D01*
X0205288Y0225998D01*
X0203947Y0226554D01*
X0192494Y0226554D01*
X0191153Y0225998D01*
X0190126Y0224971D01*
X0189570Y0223630D01*
X0189570Y0200054D01*
X0186870Y0200054D01*
X0186870Y0223630D01*
X0186315Y0224971D01*
X0185288Y0225998D01*
X0183947Y0226554D01*
X0176494Y0226554D01*
X0175153Y0225998D01*
X0174220Y0225066D01*
X0173288Y0225998D01*
X0171947Y0226554D01*
X0164494Y0226554D01*
X0163153Y0225998D01*
X0162220Y0225066D01*
X0161288Y0225998D01*
X0159947Y0226554D01*
X0152494Y0226554D01*
X0151153Y0225998D01*
X0150220Y0225066D01*
X0149288Y0225998D01*
X0147947Y0226554D01*
X0140494Y0226554D01*
X0139153Y0225998D01*
X0138220Y0225066D01*
X0137288Y0225998D01*
X0135947Y0226554D01*
X0128494Y0226554D01*
X0127153Y0225998D01*
X0126220Y0225066D01*
X0125288Y0225998D01*
X0123947Y0226554D01*
X0118194Y0226554D01*
X0116853Y0225998D01*
X0116770Y0225916D01*
X0116688Y0225998D01*
X0115347Y0226554D01*
X0109594Y0226554D01*
X0108253Y0225998D01*
X0108170Y0225916D01*
X0108088Y0225998D01*
X0106747Y0226554D01*
X0100994Y0226554D01*
X0099653Y0225998D01*
X0099570Y0225916D01*
X0099488Y0225998D01*
X0098147Y0226554D01*
X0092494Y0226554D01*
X0091153Y0225998D01*
X0091120Y0225966D01*
X0091088Y0225998D01*
X0089747Y0226554D01*
X0083994Y0226554D01*
X0082653Y0225998D01*
X0082570Y0225916D01*
X0082488Y0225998D01*
X0081147Y0226554D01*
X0075394Y0226554D01*
X0074053Y0225998D01*
X0073970Y0225916D01*
X0073888Y0225998D01*
X0072547Y0226554D01*
X0066870Y0226554D01*
X0066870Y0231754D01*
X0072547Y0231754D01*
X0073888Y0232310D01*
X0073970Y0232392D01*
X0074053Y0232310D01*
X0075394Y0231754D01*
X0081147Y0231754D01*
X0082488Y0232310D01*
X0082570Y0232392D01*
X0082653Y0232310D01*
X0083994Y0231754D01*
X0089747Y0231754D01*
X0091088Y0232310D01*
X0091120Y0232342D01*
X0091153Y0232310D01*
X0092494Y0231754D01*
X0098147Y0231754D01*
X0099488Y0232310D01*
X0099570Y0232392D01*
X0099653Y0232310D01*
X0100994Y0231754D01*
X0106747Y0231754D01*
X0108088Y0232310D01*
X0108170Y0232392D01*
X0108253Y0232310D01*
X0109594Y0231754D01*
X0115347Y0231754D01*
X0116688Y0232310D01*
X0116770Y0232392D01*
X0116853Y0232310D01*
X0118194Y0231754D01*
X0123947Y0231754D01*
X0125288Y0232310D01*
X0126220Y0233242D01*
X0127153Y0232310D01*
X0128494Y0231754D01*
X0135947Y0231754D01*
X0137288Y0232310D01*
X0138220Y0233242D01*
X0139153Y0232310D01*
X0140494Y0231754D01*
X0147947Y0231754D01*
X0149288Y0232310D01*
X0150220Y0233242D01*
X0151153Y0232310D01*
X0152494Y0231754D01*
X0159947Y0231754D01*
X0161288Y0232310D01*
X0162220Y0233242D01*
X0163153Y0232310D01*
X0164494Y0231754D01*
X0171947Y0231754D01*
X0173288Y0232310D01*
X0174220Y0233242D01*
X0175153Y0232310D01*
X0176494Y0231754D01*
X0183947Y0231754D01*
X0185288Y0232310D01*
X0186315Y0233336D01*
X0186870Y0234678D01*
X0186870Y0258254D01*
X0189570Y0258254D01*
X0189570Y0234678D01*
X0190126Y0233336D01*
X0191153Y0232310D01*
X0192494Y0231754D01*
X0203947Y0231754D01*
X0205288Y0232310D01*
X0206315Y0233336D01*
X0206870Y0234678D01*
X0206870Y0258254D01*
X0209570Y0258254D01*
X0209570Y0234678D01*
X0210126Y0233336D01*
X0211153Y0232310D01*
X0212494Y0231754D01*
X0223947Y0231754D01*
X0225288Y0232310D01*
X0226315Y0233336D01*
X0226870Y0234678D01*
X0226870Y0258254D01*
X0229570Y0258254D01*
X0229570Y0234678D01*
X0230126Y0233336D01*
X0231153Y0232310D01*
X0232494Y0231754D01*
X0243947Y0231754D01*
X0245288Y0232310D01*
X0246315Y0233336D01*
X0246870Y0234678D01*
X0246870Y0258254D01*
X0249570Y0258254D01*
X0249570Y0234678D01*
X0250126Y0233336D01*
X0251153Y0232310D01*
X0252494Y0231754D01*
X0263947Y0231754D01*
X0265288Y0232310D01*
X0266315Y0233336D01*
X0266870Y0234678D01*
X0266870Y0258254D01*
X0269570Y0258254D01*
X0269570Y0234678D01*
X0270126Y0233336D01*
X0271153Y0232310D01*
X0272494Y0231754D01*
X0283947Y0231754D01*
X0285288Y0232310D01*
X0286315Y0233336D01*
X0286870Y0234678D01*
X0286870Y0258254D01*
X0289570Y0258254D01*
X0289570Y0234678D01*
X0290126Y0233336D01*
X0291153Y0232310D01*
X0292494Y0231754D01*
X0301830Y0231754D01*
X0301830Y0230131D01*
X0305593Y0230131D01*
X0305593Y0229406D01*
X0301830Y0228873D02*
X0066870Y0228873D01*
X0066870Y0227275D02*
X0301830Y0227275D01*
X0301830Y0230472D02*
X0066870Y0230472D01*
X0073310Y0232070D02*
X0074631Y0232070D01*
X0081910Y0232070D02*
X0083231Y0232070D01*
X0090510Y0232070D02*
X0091731Y0232070D01*
X0098910Y0232070D02*
X0100231Y0232070D01*
X0107510Y0232070D02*
X0108831Y0232070D01*
X0116110Y0232070D02*
X0117431Y0232070D01*
X0124710Y0232070D02*
X0127731Y0232070D01*
X0126831Y0225676D02*
X0125610Y0225676D01*
X0137610Y0225676D02*
X0138831Y0225676D01*
X0139731Y0232070D02*
X0136710Y0232070D01*
X0148710Y0232070D02*
X0151731Y0232070D01*
X0150831Y0225676D02*
X0149610Y0225676D01*
X0161610Y0225676D02*
X0162831Y0225676D01*
X0163731Y0232070D02*
X0160710Y0232070D01*
X0172710Y0232070D02*
X0175731Y0232070D01*
X0174831Y0225676D02*
X0173610Y0225676D01*
X0185610Y0225676D02*
X0190831Y0225676D01*
X0189756Y0224078D02*
X0186685Y0224078D01*
X0186870Y0222479D02*
X0189570Y0222479D01*
X0189570Y0220881D02*
X0186870Y0220881D01*
X0186870Y0219282D02*
X0189570Y0219282D01*
X0189570Y0217684D02*
X0186870Y0217684D01*
X0186870Y0216085D02*
X0189570Y0216085D01*
X0189570Y0214487D02*
X0186870Y0214487D01*
X0186870Y0212888D02*
X0189570Y0212888D01*
X0189570Y0211290D02*
X0186870Y0211290D01*
X0186870Y0209691D02*
X0189570Y0209691D01*
X0189570Y0208093D02*
X0186870Y0208093D01*
X0186870Y0206494D02*
X0189570Y0206494D01*
X0189570Y0204896D02*
X0186870Y0204896D01*
X0186870Y0203297D02*
X0189570Y0203297D01*
X0189570Y0201699D02*
X0186870Y0201699D01*
X0186870Y0200100D02*
X0189570Y0200100D01*
X0206870Y0200100D02*
X0209570Y0200100D01*
X0209570Y0201699D02*
X0206870Y0201699D01*
X0206870Y0203297D02*
X0209570Y0203297D01*
X0209570Y0204896D02*
X0206870Y0204896D01*
X0206870Y0206494D02*
X0209570Y0206494D01*
X0209570Y0208093D02*
X0206870Y0208093D01*
X0206870Y0209691D02*
X0209570Y0209691D01*
X0209570Y0211290D02*
X0206870Y0211290D01*
X0206870Y0212888D02*
X0209570Y0212888D01*
X0209570Y0214487D02*
X0206870Y0214487D01*
X0206870Y0216085D02*
X0209570Y0216085D01*
X0209570Y0217684D02*
X0206870Y0217684D01*
X0206870Y0219282D02*
X0209570Y0219282D01*
X0209570Y0220881D02*
X0206870Y0220881D01*
X0206870Y0222479D02*
X0209570Y0222479D01*
X0209756Y0224078D02*
X0206685Y0224078D01*
X0205610Y0225676D02*
X0210831Y0225676D01*
X0211731Y0232070D02*
X0204710Y0232070D01*
X0206453Y0233669D02*
X0209988Y0233669D01*
X0209570Y0235267D02*
X0206870Y0235267D01*
X0206870Y0236866D02*
X0209570Y0236866D01*
X0209570Y0238464D02*
X0206870Y0238464D01*
X0206870Y0240063D02*
X0209570Y0240063D01*
X0209570Y0241661D02*
X0206870Y0241661D01*
X0206870Y0243260D02*
X0209570Y0243260D01*
X0209570Y0244858D02*
X0206870Y0244858D01*
X0206870Y0246457D02*
X0209570Y0246457D01*
X0209570Y0248055D02*
X0206870Y0248055D01*
X0206870Y0249654D02*
X0209570Y0249654D01*
X0209570Y0251252D02*
X0206870Y0251252D01*
X0206870Y0252851D02*
X0209570Y0252851D01*
X0209570Y0254450D02*
X0206870Y0254450D01*
X0206870Y0256048D02*
X0209570Y0256048D01*
X0209570Y0257647D02*
X0206870Y0257647D01*
X0189570Y0257647D02*
X0186870Y0257647D01*
X0186870Y0256048D02*
X0189570Y0256048D01*
X0189570Y0254450D02*
X0186870Y0254450D01*
X0186870Y0252851D02*
X0189570Y0252851D01*
X0189570Y0251252D02*
X0186870Y0251252D01*
X0186870Y0249654D02*
X0189570Y0249654D01*
X0189570Y0248055D02*
X0186870Y0248055D01*
X0186870Y0246457D02*
X0189570Y0246457D01*
X0189570Y0244858D02*
X0186870Y0244858D01*
X0186870Y0243260D02*
X0189570Y0243260D01*
X0189570Y0241661D02*
X0186870Y0241661D01*
X0186870Y0240063D02*
X0189570Y0240063D01*
X0189570Y0238464D02*
X0186870Y0238464D01*
X0186870Y0236866D02*
X0189570Y0236866D01*
X0189570Y0235267D02*
X0186870Y0235267D01*
X0186453Y0233669D02*
X0189988Y0233669D01*
X0191731Y0232070D02*
X0184710Y0232070D01*
X0224710Y0232070D02*
X0231731Y0232070D01*
X0229988Y0233669D02*
X0226453Y0233669D01*
X0226870Y0235267D02*
X0229570Y0235267D01*
X0229570Y0236866D02*
X0226870Y0236866D01*
X0226870Y0238464D02*
X0229570Y0238464D01*
X0229570Y0240063D02*
X0226870Y0240063D01*
X0226870Y0241661D02*
X0229570Y0241661D01*
X0229570Y0243260D02*
X0226870Y0243260D01*
X0226870Y0244858D02*
X0229570Y0244858D01*
X0229570Y0246457D02*
X0226870Y0246457D01*
X0226870Y0248055D02*
X0229570Y0248055D01*
X0229570Y0249654D02*
X0226870Y0249654D01*
X0226870Y0251252D02*
X0229570Y0251252D01*
X0229570Y0252851D02*
X0226870Y0252851D01*
X0226870Y0254450D02*
X0229570Y0254450D01*
X0229570Y0256048D02*
X0226870Y0256048D01*
X0226870Y0257647D02*
X0229570Y0257647D01*
X0246870Y0257647D02*
X0249570Y0257647D01*
X0249570Y0256048D02*
X0246870Y0256048D01*
X0246870Y0254450D02*
X0249570Y0254450D01*
X0249570Y0252851D02*
X0246870Y0252851D01*
X0246870Y0251252D02*
X0249570Y0251252D01*
X0249570Y0249654D02*
X0246870Y0249654D01*
X0246870Y0248055D02*
X0249570Y0248055D01*
X0249570Y0246457D02*
X0246870Y0246457D01*
X0246870Y0244858D02*
X0249570Y0244858D01*
X0249570Y0243260D02*
X0246870Y0243260D01*
X0246870Y0241661D02*
X0249570Y0241661D01*
X0249570Y0240063D02*
X0246870Y0240063D01*
X0246870Y0238464D02*
X0249570Y0238464D01*
X0249570Y0236866D02*
X0246870Y0236866D01*
X0246870Y0235267D02*
X0249570Y0235267D01*
X0249988Y0233669D02*
X0246453Y0233669D01*
X0244710Y0232070D02*
X0251731Y0232070D01*
X0250831Y0225676D02*
X0245610Y0225676D01*
X0246685Y0224078D02*
X0249756Y0224078D01*
X0249570Y0222479D02*
X0246870Y0222479D01*
X0246870Y0220881D02*
X0249570Y0220881D01*
X0249570Y0219282D02*
X0246870Y0219282D01*
X0246870Y0217684D02*
X0249570Y0217684D01*
X0249570Y0216085D02*
X0246870Y0216085D01*
X0246870Y0214487D02*
X0249570Y0214487D01*
X0249570Y0212888D02*
X0246870Y0212888D01*
X0246870Y0211290D02*
X0249570Y0211290D01*
X0249570Y0209691D02*
X0246870Y0209691D01*
X0246870Y0208093D02*
X0249570Y0208093D01*
X0249570Y0206494D02*
X0246870Y0206494D01*
X0246870Y0204896D02*
X0249570Y0204896D01*
X0249570Y0203297D02*
X0246870Y0203297D01*
X0246870Y0201699D02*
X0249570Y0201699D01*
X0249570Y0200100D02*
X0246870Y0200100D01*
X0229570Y0200100D02*
X0226870Y0200100D01*
X0226870Y0201699D02*
X0229570Y0201699D01*
X0229570Y0203297D02*
X0226870Y0203297D01*
X0226870Y0204896D02*
X0229570Y0204896D01*
X0229570Y0206494D02*
X0226870Y0206494D01*
X0226870Y0208093D02*
X0229570Y0208093D01*
X0229570Y0209691D02*
X0226870Y0209691D01*
X0226870Y0211290D02*
X0229570Y0211290D01*
X0229570Y0212888D02*
X0226870Y0212888D01*
X0226870Y0214487D02*
X0229570Y0214487D01*
X0229570Y0216085D02*
X0226870Y0216085D01*
X0226870Y0217684D02*
X0229570Y0217684D01*
X0229570Y0219282D02*
X0226870Y0219282D01*
X0226870Y0220881D02*
X0229570Y0220881D01*
X0229570Y0222479D02*
X0226870Y0222479D01*
X0226685Y0224078D02*
X0229756Y0224078D01*
X0230831Y0225676D02*
X0225610Y0225676D01*
X0264710Y0232070D02*
X0271731Y0232070D01*
X0269988Y0233669D02*
X0266453Y0233669D01*
X0266870Y0235267D02*
X0269570Y0235267D01*
X0269570Y0236866D02*
X0266870Y0236866D01*
X0266870Y0238464D02*
X0269570Y0238464D01*
X0269570Y0240063D02*
X0266870Y0240063D01*
X0266870Y0241661D02*
X0269570Y0241661D01*
X0269570Y0243260D02*
X0266870Y0243260D01*
X0266870Y0244858D02*
X0269570Y0244858D01*
X0269570Y0246457D02*
X0266870Y0246457D01*
X0266870Y0248055D02*
X0269570Y0248055D01*
X0269570Y0249654D02*
X0266870Y0249654D01*
X0266870Y0251252D02*
X0269570Y0251252D01*
X0269570Y0252851D02*
X0266870Y0252851D01*
X0266870Y0254450D02*
X0269570Y0254450D01*
X0269570Y0256048D02*
X0266870Y0256048D01*
X0266870Y0257647D02*
X0269570Y0257647D01*
X0286870Y0257647D02*
X0289570Y0257647D01*
X0289570Y0256048D02*
X0286870Y0256048D01*
X0286870Y0254450D02*
X0289570Y0254450D01*
X0289570Y0252851D02*
X0286870Y0252851D01*
X0286870Y0251252D02*
X0289570Y0251252D01*
X0289570Y0249654D02*
X0286870Y0249654D01*
X0286870Y0248055D02*
X0289570Y0248055D01*
X0289570Y0246457D02*
X0286870Y0246457D01*
X0286870Y0244858D02*
X0289570Y0244858D01*
X0289570Y0243260D02*
X0286870Y0243260D01*
X0286870Y0241661D02*
X0289570Y0241661D01*
X0289570Y0240063D02*
X0286870Y0240063D01*
X0286870Y0238464D02*
X0289570Y0238464D01*
X0289570Y0236866D02*
X0286870Y0236866D01*
X0286870Y0235267D02*
X0289570Y0235267D01*
X0289988Y0233669D02*
X0286453Y0233669D01*
X0284710Y0232070D02*
X0291731Y0232070D01*
X0290831Y0225676D02*
X0285610Y0225676D01*
X0286685Y0224078D02*
X0289756Y0224078D01*
X0289570Y0222479D02*
X0286870Y0222479D01*
X0286870Y0220881D02*
X0289570Y0220881D01*
X0289570Y0219282D02*
X0286870Y0219282D01*
X0286870Y0217684D02*
X0289570Y0217684D01*
X0289570Y0216085D02*
X0286870Y0216085D01*
X0286870Y0214487D02*
X0289570Y0214487D01*
X0289570Y0212888D02*
X0286870Y0212888D01*
X0286870Y0211290D02*
X0289570Y0211290D01*
X0289570Y0209691D02*
X0286870Y0209691D01*
X0286870Y0208093D02*
X0289570Y0208093D01*
X0289570Y0206494D02*
X0286870Y0206494D01*
X0286870Y0204896D02*
X0289570Y0204896D01*
X0289570Y0203297D02*
X0286870Y0203297D01*
X0286870Y0201699D02*
X0289570Y0201699D01*
X0289570Y0200100D02*
X0286870Y0200100D01*
X0269570Y0200100D02*
X0266870Y0200100D01*
X0266870Y0201699D02*
X0269570Y0201699D01*
X0269570Y0203297D02*
X0266870Y0203297D01*
X0266870Y0204896D02*
X0269570Y0204896D01*
X0269570Y0206494D02*
X0266870Y0206494D01*
X0266870Y0208093D02*
X0269570Y0208093D01*
X0269570Y0209691D02*
X0266870Y0209691D01*
X0266870Y0211290D02*
X0269570Y0211290D01*
X0269570Y0212888D02*
X0266870Y0212888D01*
X0266870Y0214487D02*
X0269570Y0214487D01*
X0269570Y0216085D02*
X0266870Y0216085D01*
X0266870Y0217684D02*
X0269570Y0217684D01*
X0269570Y0219282D02*
X0266870Y0219282D01*
X0266870Y0220881D02*
X0269570Y0220881D01*
X0269570Y0222479D02*
X0266870Y0222479D01*
X0266685Y0224078D02*
X0269756Y0224078D01*
X0270831Y0225676D02*
X0265610Y0225676D01*
D15*
X0305955Y0227217D02*
X0307520Y0225652D01*
X0317620Y0225652D01*
X0319020Y0227052D01*
X0551320Y0227052D01*
X0552236Y0227968D01*
X0565240Y0227968D01*
X0565240Y0229936D02*
X0313209Y0229936D01*
X0313042Y0229769D01*
X0305955Y0229769D02*
X0305955Y0227217D01*
X0565240Y0225999D02*
X0565240Y0224031D01*
X0565420Y0225152D02*
X0565240Y0225332D01*
X0565240Y0225999D01*
X0565240Y0231905D02*
X0565220Y0231905D01*
X0565220Y0233052D01*
X0565240Y0233873D02*
X0565240Y0231905D01*
D16*
X0565220Y0233052D02*
X0553420Y0233052D01*
X0550820Y0235652D01*
X0550820Y0258352D01*
X0554520Y0258352D01*
X0554520Y0293552D01*
X0557020Y0293552D01*
X0557020Y0315252D01*
X0561020Y0315252D01*
X0561020Y0353152D01*
X0557820Y0353152D01*
X0557820Y0318352D01*
X0553920Y0318352D01*
X0553920Y0298152D01*
X0550620Y0298152D01*
X0550620Y0321552D01*
X0554520Y0321552D01*
X0554520Y0356352D01*
X0557720Y0356352D01*
X0557720Y0387852D01*
X0554420Y0387852D01*
X0554420Y0361352D01*
X0550920Y0361352D01*
X0550920Y0387852D01*
X0547220Y0387852D01*
X0547220Y0361404D01*
X0544220Y0361404D01*
X0544220Y0387904D01*
X0541220Y0387904D01*
X0541220Y0361404D01*
X0538220Y0361404D01*
X0538220Y0387904D01*
X0535220Y0387904D01*
X0535220Y0361404D01*
X0532220Y0361404D01*
X0532220Y0387904D01*
X0529220Y0387904D01*
X0529220Y0361404D01*
X0526220Y0361404D01*
X0526220Y0387904D01*
X0523220Y0387904D01*
X0523220Y0361404D01*
X0520220Y0361404D01*
X0520220Y0387904D01*
X0517220Y0387904D01*
X0517220Y0361404D01*
X0514220Y0361404D01*
X0514220Y0387904D01*
X0511220Y0387904D01*
X0511220Y0361404D01*
X0508220Y0361404D01*
X0508220Y0387904D01*
X0505220Y0387904D01*
X0505220Y0361404D01*
X0502220Y0361404D01*
X0502220Y0387904D01*
X0499220Y0387904D01*
X0499220Y0361404D01*
X0496220Y0361404D01*
X0496220Y0387904D01*
X0493220Y0387904D01*
X0493220Y0361404D01*
X0490220Y0361404D01*
X0490220Y0387904D01*
X0487220Y0387904D01*
X0487220Y0361404D01*
X0483820Y0361404D01*
X0483820Y0387904D01*
X0480420Y0387904D01*
X0480420Y0361404D01*
X0477020Y0361404D01*
X0477020Y0387904D01*
X0473720Y0387904D01*
X0473720Y0361404D01*
X0470420Y0361404D01*
X0470420Y0387904D01*
X0467120Y0387904D01*
X0467120Y0361404D01*
X0463820Y0361404D01*
X0463820Y0387904D01*
X0460520Y0387904D01*
X0460520Y0361404D01*
X0457220Y0361404D01*
X0457220Y0387904D01*
X0453920Y0387904D01*
X0453920Y0361404D01*
X0450620Y0361404D01*
X0450620Y0387904D01*
X0447320Y0387904D01*
X0447320Y0361404D01*
X0444020Y0361404D01*
X0444020Y0387904D01*
X0440720Y0387904D01*
X0440720Y0361404D01*
X0437420Y0361404D01*
X0437420Y0387904D01*
X0434020Y0387904D01*
X0434020Y0361404D01*
X0430620Y0361404D01*
X0430620Y0387904D01*
X0427220Y0387904D01*
X0427220Y0361404D01*
X0423420Y0361404D01*
X0423420Y0387904D01*
X0419620Y0387904D01*
X0419620Y0361404D01*
X0415820Y0361404D01*
X0415820Y0387904D01*
X0412020Y0387904D01*
X0412020Y0361404D01*
X0408320Y0361404D01*
X0408320Y0387904D01*
X0404620Y0387904D01*
X0404620Y0361404D01*
X0400920Y0361404D01*
X0400920Y0387904D01*
X0397220Y0387904D01*
X0397220Y0361404D01*
X0393520Y0361404D01*
X0393520Y0387904D01*
X0389820Y0387904D01*
X0389820Y0361404D01*
X0386120Y0361404D01*
X0386120Y0387904D01*
X0382420Y0387904D01*
X0382420Y0361404D01*
X0378620Y0361404D01*
X0378620Y0387904D01*
X0374820Y0387904D01*
X0374820Y0361404D01*
X0371020Y0361404D01*
X0371020Y0387904D01*
X0367220Y0387904D01*
X0367220Y0361404D01*
X0362920Y0361404D01*
X0362920Y0387904D01*
X0358620Y0387904D01*
X0358620Y0361404D01*
X0354320Y0361404D01*
X0354320Y0387904D01*
X0350020Y0387904D01*
X0350020Y0361404D01*
X0345720Y0361404D01*
X0345720Y0387904D01*
X0341420Y0387904D01*
X0341420Y0361404D01*
X0337220Y0361404D01*
X0337220Y0387904D01*
X0333020Y0387904D01*
X0333020Y0361404D01*
X0328720Y0361404D01*
X0328720Y0387904D01*
X0324420Y0387904D01*
X0324420Y0361404D01*
X0320120Y0361404D01*
X0320120Y0387904D01*
X0315820Y0387904D01*
X0315820Y0361404D01*
X0311520Y0361404D01*
X0311520Y0387904D01*
X0303220Y0387904D01*
X0303220Y0361404D01*
X0298920Y0361404D01*
X0298920Y0387904D01*
X0294620Y0387904D01*
X0294620Y0361404D01*
X0290320Y0361404D01*
X0290320Y0387904D01*
X0286020Y0387904D01*
X0286020Y0361404D01*
X0281720Y0361404D01*
X0281720Y0387904D01*
X0277420Y0387904D01*
X0277420Y0361404D01*
X0273220Y0361404D01*
X0273220Y0387904D01*
X0269020Y0387904D01*
X0269020Y0361404D01*
X0264720Y0361404D01*
X0264720Y0387904D01*
X0260420Y0387904D01*
X0260420Y0361404D01*
X0256120Y0361404D01*
X0256120Y0387904D01*
X0251820Y0387904D01*
X0251820Y0361404D01*
X0247520Y0361404D01*
X0247520Y0387904D01*
X0243220Y0387904D01*
X0243220Y0361404D01*
X0239420Y0361404D01*
X0239420Y0387904D01*
X0235620Y0387904D01*
X0235620Y0361404D01*
X0231820Y0361404D01*
X0231820Y0387904D01*
X0228020Y0387904D01*
X0228020Y0361404D01*
X0224320Y0361404D01*
X0224320Y0387904D01*
X0220620Y0387904D01*
X0220620Y0361404D01*
X0216920Y0361404D01*
X0216920Y0387904D01*
X0213220Y0387904D01*
X0213220Y0361404D01*
X0209520Y0361404D01*
X0209520Y0387904D01*
X0205820Y0387904D01*
X0205820Y0361404D01*
X0202120Y0361404D01*
X0202120Y0387904D01*
X0198420Y0387904D01*
X0198420Y0361404D01*
X0194620Y0361404D01*
X0194620Y0387904D01*
X0190820Y0387904D01*
X0190820Y0361404D01*
X0187020Y0361404D01*
X0187020Y0387904D01*
X0183220Y0387904D01*
X0183220Y0361404D01*
X0179820Y0361404D01*
X0179820Y0387904D01*
X0176420Y0387904D01*
X0176420Y0361404D01*
X0173020Y0361404D01*
X0173020Y0387904D01*
X0169720Y0387904D01*
X0169720Y0361404D01*
X0166420Y0361404D01*
X0166420Y0387904D01*
X0163120Y0387904D01*
X0163120Y0361404D01*
X0159820Y0361404D01*
X0159820Y0387904D01*
X0156520Y0387904D01*
X0156520Y0361404D01*
X0153220Y0361404D01*
X0153220Y0387904D01*
X0149920Y0387904D01*
X0149920Y0361404D01*
X0146620Y0361404D01*
X0146620Y0387904D01*
X0143320Y0387904D01*
X0143320Y0361404D01*
X0140020Y0361404D01*
X0140020Y0387904D01*
X0136720Y0387904D01*
X0136720Y0361404D01*
X0133420Y0361404D01*
X0133420Y0387904D01*
X0130020Y0387904D01*
X0130020Y0361404D01*
X0126620Y0361404D01*
X0126620Y0387904D01*
X0123220Y0387904D01*
X0123220Y0361404D01*
X0120220Y0361404D01*
X0120220Y0387904D01*
X0117220Y0387904D01*
X0117220Y0361404D01*
X0114220Y0361404D01*
X0114220Y0387904D01*
X0111220Y0387904D01*
X0111220Y0361404D01*
X0108220Y0361404D01*
X0108220Y0387904D01*
X0105220Y0387904D01*
X0105220Y0361404D01*
X0102220Y0361404D01*
X0102220Y0387904D01*
X0099220Y0387904D01*
X0099220Y0361404D01*
X0096220Y0361404D01*
X0096220Y0387904D01*
X0093220Y0387904D01*
X0093220Y0361404D01*
X0090220Y0361404D01*
X0090220Y0387904D01*
X0087220Y0387904D01*
X0087220Y0361404D01*
X0084220Y0361404D01*
X0084220Y0387904D01*
X0081220Y0387904D01*
X0081220Y0361404D01*
X0078220Y0361404D01*
X0078220Y0387904D01*
X0075220Y0387904D01*
X0075220Y0361404D01*
X0072220Y0361404D01*
X0072220Y0387904D01*
X0069220Y0387904D01*
X0069220Y0361404D01*
X0066220Y0361404D01*
X0066220Y0387904D01*
X0063220Y0387904D01*
X0063220Y0356404D01*
X0066620Y0356404D01*
X0066620Y0329904D01*
X0070020Y0329904D01*
X0070020Y0356404D01*
X0073420Y0356404D01*
X0073420Y0329904D01*
X0076720Y0329904D01*
X0076720Y0356404D01*
X0080020Y0356404D01*
X0080020Y0329904D01*
X0083320Y0329904D01*
X0083320Y0356404D01*
X0086620Y0356404D01*
X0086620Y0329904D01*
X0089920Y0329904D01*
X0089920Y0356404D01*
X0093220Y0356404D01*
X0093220Y0329904D01*
X0096520Y0329904D01*
X0096520Y0356404D01*
X0099820Y0356404D01*
X0099820Y0329904D01*
X0103120Y0329904D01*
X0103120Y0356404D01*
X0106420Y0356404D01*
X0106420Y0329904D01*
X0109720Y0329904D01*
X0109720Y0356404D01*
X0113020Y0356404D01*
X0113020Y0329904D01*
X0116420Y0329904D01*
X0116420Y0356404D01*
X0119820Y0356404D01*
X0119820Y0329904D01*
X0123220Y0329904D01*
X0123220Y0356404D01*
X0127020Y0356404D01*
X0127020Y0329904D01*
X0130820Y0329904D01*
X0130820Y0356404D01*
X0134620Y0356404D01*
X0134620Y0329904D01*
X0138420Y0329904D01*
X0138420Y0356404D01*
X0142120Y0356404D01*
X0142120Y0329904D01*
X0145820Y0329904D01*
X0145820Y0356404D01*
X0149520Y0356404D01*
X0149520Y0329904D01*
X0153220Y0329904D01*
X0153220Y0356404D01*
X0156920Y0356404D01*
X0156920Y0329904D01*
X0160620Y0329904D01*
X0160620Y0356404D01*
X0164320Y0356404D01*
X0164320Y0329904D01*
X0168020Y0329904D01*
X0168020Y0356404D01*
X0171820Y0356404D01*
X0171820Y0329904D01*
X0175620Y0329904D01*
X0175620Y0356404D01*
X0179420Y0356404D01*
X0179420Y0329904D01*
X0183220Y0329904D01*
X0183220Y0356404D01*
X0187520Y0356404D01*
X0187520Y0329904D01*
X0191820Y0329904D01*
X0191820Y0356404D01*
X0196120Y0356404D01*
X0196120Y0329904D01*
X0200420Y0329904D01*
X0200420Y0356404D01*
X0204720Y0356404D01*
X0204720Y0329904D01*
X0209020Y0329904D01*
X0209020Y0356404D01*
X0213220Y0356404D01*
X0213220Y0329904D01*
X0217420Y0329904D01*
X0217420Y0356404D01*
X0221720Y0356404D01*
X0221720Y0329904D01*
X0226020Y0329904D01*
X0226020Y0356404D01*
X0230320Y0356404D01*
X0230320Y0329904D01*
X0234620Y0329904D01*
X0234620Y0356404D01*
X0238920Y0356404D01*
X0238920Y0329904D01*
X0243220Y0329904D01*
X0243220Y0356404D01*
X0248220Y0356404D01*
X0248220Y0329904D01*
X0253220Y0329904D01*
X0253220Y0356404D01*
X0258220Y0356404D01*
X0258220Y0329904D01*
X0263220Y0329904D01*
X0263220Y0356404D01*
X0268220Y0356404D01*
X0268220Y0329904D01*
X0273220Y0329904D01*
X0273220Y0356404D01*
X0278220Y0356404D01*
X0278220Y0329904D01*
X0283220Y0329904D01*
X0283220Y0356404D01*
X0288220Y0356404D01*
X0288220Y0329904D01*
X0293220Y0329904D01*
X0293220Y0356404D01*
X0298220Y0356404D01*
X0298220Y0329904D01*
X0303220Y0329904D01*
X0303220Y0356404D01*
X0312220Y0356404D01*
X0312220Y0329904D01*
X0317220Y0329904D01*
X0317220Y0356404D01*
X0322220Y0356404D01*
X0322220Y0329904D01*
X0327220Y0329904D01*
X0327220Y0356404D01*
X0332220Y0356404D01*
X0332220Y0329904D01*
X0337220Y0329904D01*
X0337220Y0356404D01*
X0342220Y0356404D01*
X0342220Y0329904D01*
X0347220Y0329904D01*
X0347220Y0356404D01*
X0352220Y0356404D01*
X0352220Y0329904D01*
X0357220Y0329904D01*
X0357220Y0356404D01*
X0362220Y0356404D01*
X0362220Y0329904D01*
X0367220Y0329904D01*
X0367220Y0356404D01*
X0371520Y0356404D01*
X0371520Y0329904D01*
X0375820Y0329904D01*
X0375820Y0356404D01*
X0380120Y0356404D01*
X0380120Y0329904D01*
X0384420Y0329904D01*
X0384420Y0356404D01*
X0388720Y0356404D01*
X0388720Y0329904D01*
X0393020Y0329904D01*
X0393020Y0356404D01*
X0397220Y0356404D01*
X0397220Y0329904D01*
X0401420Y0329904D01*
X0401420Y0356404D01*
X0405720Y0356404D01*
X0405720Y0329904D01*
X0410020Y0329904D01*
X0410020Y0356404D01*
X0414320Y0356404D01*
X0414320Y0329904D01*
X0418620Y0329904D01*
X0418620Y0356404D01*
X0422920Y0356404D01*
X0422920Y0329904D01*
X0427220Y0329904D01*
X0427220Y0356404D01*
X0431020Y0356404D01*
X0431020Y0329904D01*
X0434820Y0329904D01*
X0434820Y0356404D01*
X0438620Y0356404D01*
X0438620Y0329904D01*
X0442420Y0329904D01*
X0442420Y0356404D01*
X0446120Y0356404D01*
X0446120Y0329904D01*
X0449820Y0329904D01*
X0449820Y0356404D01*
X0453520Y0356404D01*
X0453520Y0329904D01*
X0457220Y0329904D01*
X0457220Y0356404D01*
X0460920Y0356404D01*
X0460920Y0329904D01*
X0464620Y0329904D01*
X0464620Y0356404D01*
X0468320Y0356404D01*
X0468320Y0329904D01*
X0472020Y0329904D01*
X0472020Y0356404D01*
X0475820Y0356404D01*
X0475820Y0329904D01*
X0479620Y0329904D01*
X0479620Y0356404D01*
X0483420Y0356404D01*
X0483420Y0329904D01*
X0487220Y0329904D01*
X0487220Y0356404D01*
X0490620Y0356404D01*
X0490620Y0329904D01*
X0494020Y0329904D01*
X0494020Y0356404D01*
X0497420Y0356404D01*
X0497420Y0329904D01*
X0500720Y0329904D01*
X0500720Y0356404D01*
X0504020Y0356404D01*
X0504020Y0329904D01*
X0507320Y0329904D01*
X0507320Y0356404D01*
X0510620Y0356404D01*
X0510620Y0329904D01*
X0513920Y0329904D01*
X0513920Y0356404D01*
X0517220Y0356404D01*
X0517220Y0329904D01*
X0520520Y0329904D01*
X0520520Y0356404D01*
X0523820Y0356404D01*
X0523820Y0329904D01*
X0527120Y0329904D01*
X0527120Y0356404D01*
X0530420Y0356404D01*
X0530420Y0329904D01*
X0533720Y0329904D01*
X0533720Y0356404D01*
X0537020Y0356404D01*
X0537020Y0329904D01*
X0540420Y0329904D01*
X0540420Y0356404D01*
X0543820Y0356404D01*
X0543820Y0329904D01*
X0547220Y0329904D01*
X0547220Y0356404D01*
X0551220Y0356404D01*
X0551220Y0324904D01*
X0547220Y0324904D01*
X0547220Y0298404D01*
X0543820Y0298404D01*
X0543820Y0324904D01*
X0540420Y0324904D01*
X0540420Y0298404D01*
X0537020Y0298404D01*
X0537020Y0324904D01*
X0533720Y0324904D01*
X0533720Y0298404D01*
X0530420Y0298404D01*
X0530420Y0324904D01*
X0527120Y0324904D01*
X0527120Y0298404D01*
X0523820Y0298404D01*
X0523820Y0324904D01*
X0520520Y0324904D01*
X0520520Y0298404D01*
X0517220Y0298404D01*
X0517220Y0324904D01*
X0513920Y0324904D01*
X0513920Y0298404D01*
X0510620Y0298404D01*
X0510620Y0324904D01*
X0507320Y0324904D01*
X0507320Y0298404D01*
X0504020Y0298404D01*
X0504020Y0324904D01*
X0500720Y0324904D01*
X0500720Y0298404D01*
X0497420Y0298404D01*
X0497420Y0324904D01*
X0494020Y0324904D01*
X0494020Y0298404D01*
X0490620Y0298404D01*
X0490620Y0324904D01*
X0487220Y0324904D01*
X0487220Y0298404D01*
X0482220Y0298404D01*
X0482220Y0324904D01*
X0477220Y0324904D01*
X0477220Y0298404D01*
X0472220Y0298404D01*
X0472220Y0324904D01*
X0467220Y0324904D01*
X0467220Y0298404D01*
X0462220Y0298404D01*
X0462220Y0324904D01*
X0457220Y0324904D01*
X0457220Y0298404D01*
X0452220Y0298404D01*
X0452220Y0324904D01*
X0447220Y0324904D01*
X0447220Y0298404D01*
X0442220Y0298404D01*
X0442220Y0324904D01*
X0437220Y0324904D01*
X0437220Y0298404D01*
X0432220Y0298404D01*
X0432220Y0324904D01*
X0427220Y0324904D01*
X0427220Y0298404D01*
X0421220Y0298404D01*
X0421220Y0324904D01*
X0415220Y0324904D01*
X0415220Y0298404D01*
X0409220Y0298404D01*
X0409220Y0324904D01*
X0403220Y0324904D01*
X0403220Y0298404D01*
X0397220Y0298404D01*
X0397220Y0324904D01*
X0391220Y0324904D01*
X0391220Y0298404D01*
X0385220Y0298404D01*
X0385220Y0324904D01*
X0379220Y0324904D01*
X0379220Y0298404D01*
X0373220Y0298404D01*
X0373220Y0324904D01*
X0367220Y0324904D01*
X0367220Y0298404D01*
X0359720Y0298404D01*
X0359720Y0324904D01*
X0352220Y0324904D01*
X0352220Y0298404D01*
X0344720Y0298404D01*
X0344720Y0324904D01*
X0337220Y0324904D01*
X0337220Y0298404D01*
X0329720Y0298404D01*
X0329720Y0324904D01*
X0322220Y0324904D01*
X0322220Y0298404D01*
X0314720Y0298404D01*
X0314720Y0324904D01*
X0303220Y0324904D01*
X0303220Y0298404D01*
X0295720Y0298404D01*
X0295720Y0324904D01*
X0288220Y0324904D01*
X0288220Y0298404D01*
X0280720Y0298404D01*
X0280720Y0324904D01*
X0273220Y0324904D01*
X0273220Y0298404D01*
X0265720Y0298404D01*
X0265720Y0324904D01*
X0258220Y0324904D01*
X0258220Y0298404D01*
X0250720Y0298404D01*
X0250720Y0324904D01*
X0243220Y0324904D01*
X0243220Y0298404D01*
X0237220Y0298404D01*
X0237220Y0324904D01*
X0231220Y0324904D01*
X0231220Y0298404D01*
X0225220Y0298404D01*
X0225220Y0324904D01*
X0219220Y0324904D01*
X0219220Y0298404D01*
X0213220Y0298404D01*
X0213220Y0324904D01*
X0207220Y0324904D01*
X0207220Y0298404D01*
X0201220Y0298404D01*
X0201220Y0324904D01*
X0195220Y0324904D01*
X0195220Y0298404D01*
X0189220Y0298404D01*
X0189220Y0324904D01*
X0183220Y0324904D01*
X0183220Y0298404D01*
X0178220Y0298404D01*
X0178220Y0324904D01*
X0173220Y0324904D01*
X0173220Y0298404D01*
X0168220Y0298404D01*
X0168220Y0324904D01*
X0163220Y0324904D01*
X0163220Y0298404D01*
X0158220Y0298404D01*
X0158220Y0324904D01*
X0153220Y0324904D01*
X0153220Y0298404D01*
X0148220Y0298404D01*
X0148220Y0324904D01*
X0143220Y0324904D01*
X0143220Y0298404D01*
X0138220Y0298404D01*
X0138220Y0324904D01*
X0133220Y0324904D01*
X0133220Y0298404D01*
X0128220Y0298404D01*
X0128220Y0324904D01*
X0123220Y0324904D01*
X0123220Y0298404D01*
X0119820Y0298404D01*
X0119820Y0324904D01*
X0116420Y0324904D01*
X0116420Y0298404D01*
X0113020Y0298404D01*
X0113020Y0324904D01*
X0109720Y0324904D01*
X0109720Y0298404D01*
X0106420Y0298404D01*
X0106420Y0324904D01*
X0103120Y0324904D01*
X0103120Y0298404D01*
X0099820Y0298404D01*
X0099820Y0324904D01*
X0096520Y0324904D01*
X0096520Y0298404D01*
X0093220Y0298404D01*
X0093220Y0324904D01*
X0089920Y0324904D01*
X0089920Y0298404D01*
X0086620Y0298404D01*
X0086620Y0324904D01*
X0083320Y0324904D01*
X0083320Y0298404D01*
X0080020Y0298404D01*
X0080020Y0324904D01*
X0076720Y0324904D01*
X0076720Y0298404D01*
X0073420Y0298404D01*
X0073420Y0324904D01*
X0070020Y0324904D01*
X0070020Y0298404D01*
X0066620Y0298404D01*
X0066620Y0324904D01*
X0063220Y0324904D01*
X0063220Y0293404D01*
X0067020Y0293404D01*
X0067020Y0266904D01*
X0070820Y0266904D01*
X0070820Y0293404D01*
X0074620Y0293404D01*
X0074620Y0266904D01*
X0078420Y0266904D01*
X0078420Y0293404D01*
X0082120Y0293404D01*
X0082120Y0266904D01*
X0085820Y0266904D01*
X0085820Y0293404D01*
X0089520Y0293404D01*
X0089520Y0266904D01*
X0093220Y0266904D01*
X0093220Y0293404D01*
X0096920Y0293404D01*
X0096920Y0266904D01*
X0100620Y0266904D01*
X0100620Y0293404D01*
X0104320Y0293404D01*
X0104320Y0266904D01*
X0108020Y0266904D01*
X0108020Y0293404D01*
X0111820Y0293404D01*
X0111820Y0266904D01*
X0115620Y0266904D01*
X0115620Y0293404D01*
X0119420Y0293404D01*
X0119420Y0266904D01*
X0123220Y0266904D01*
X0123220Y0293404D01*
X0128220Y0293404D01*
X0128220Y0266904D01*
X0133220Y0266904D01*
X0133220Y0293404D01*
X0138220Y0293404D01*
X0138220Y0266904D01*
X0143220Y0266904D01*
X0143220Y0293404D01*
X0148220Y0293404D01*
X0148220Y0266904D01*
X0153220Y0266904D01*
X0153220Y0293404D01*
X0158220Y0293404D01*
X0158220Y0266904D01*
X0163220Y0266904D01*
X0163220Y0293404D01*
X0168220Y0293404D01*
X0168220Y0266904D01*
X0173220Y0266904D01*
X0173220Y0293404D01*
X0178220Y0293404D01*
X0178220Y0266904D01*
X0183220Y0266904D01*
X0183220Y0293404D01*
X0190720Y0293404D01*
X0190720Y0266904D01*
X0198220Y0266904D01*
X0198220Y0293404D01*
X0205720Y0293404D01*
X0205720Y0266904D01*
X0213220Y0266904D01*
X0213220Y0293404D01*
X0220720Y0293404D01*
X0220720Y0266904D01*
X0228220Y0266904D01*
X0228220Y0293404D01*
X0235720Y0293404D01*
X0235720Y0266904D01*
X0243220Y0266904D01*
X0243220Y0293404D01*
X0253220Y0293404D01*
X0253220Y0266904D01*
X0263220Y0266904D01*
X0263220Y0293404D01*
X0273220Y0293404D01*
X0273220Y0266904D01*
X0283220Y0266904D01*
X0283220Y0293404D01*
X0293220Y0293404D01*
X0293220Y0266904D01*
X0303220Y0266904D01*
X0303220Y0293404D01*
X0317220Y0293404D01*
X0317220Y0266904D01*
X0327220Y0266904D01*
X0327220Y0293404D01*
X0337220Y0293404D01*
X0337220Y0266904D01*
X0347220Y0266904D01*
X0347220Y0293404D01*
X0357220Y0293404D01*
X0357220Y0266904D01*
X0367220Y0266904D01*
X0367220Y0293404D01*
X0374720Y0293404D01*
X0374720Y0266904D01*
X0382220Y0266904D01*
X0382220Y0293404D01*
X0389720Y0293404D01*
X0389720Y0266904D01*
X0397220Y0266904D01*
X0397220Y0293404D01*
X0404720Y0293404D01*
X0404720Y0266904D01*
X0412220Y0266904D01*
X0412220Y0293404D01*
X0419720Y0293404D01*
X0419720Y0266904D01*
X0427220Y0266904D01*
X0427220Y0293404D01*
X0432220Y0293404D01*
X0432220Y0266904D01*
X0437220Y0266904D01*
X0437220Y0293404D01*
X0442220Y0293404D01*
X0442220Y0266904D01*
X0447220Y0266904D01*
X0447220Y0293404D01*
X0452220Y0293404D01*
X0452220Y0266904D01*
X0457220Y0266904D01*
X0457220Y0293404D01*
X0462220Y0293404D01*
X0462220Y0266904D01*
X0467220Y0266904D01*
X0467220Y0293404D01*
X0472220Y0293404D01*
X0472220Y0266904D01*
X0477220Y0266904D01*
X0477220Y0293404D01*
X0482220Y0293404D01*
X0482220Y0266904D01*
X0487220Y0266904D01*
X0487220Y0293404D01*
X0491020Y0293404D01*
X0491020Y0266904D01*
X0494820Y0266904D01*
X0494820Y0293404D01*
X0498620Y0293404D01*
X0498620Y0266904D01*
X0502420Y0266904D01*
X0502420Y0293404D01*
X0506120Y0293404D01*
X0506120Y0266904D01*
X0509820Y0266904D01*
X0509820Y0293404D01*
X0513520Y0293404D01*
X0513520Y0266904D01*
X0517220Y0266904D01*
X0517220Y0293404D01*
X0520920Y0293404D01*
X0520920Y0266904D01*
X0524620Y0266904D01*
X0524620Y0293404D01*
X0528320Y0293404D01*
X0528320Y0266904D01*
X0532020Y0266904D01*
X0532020Y0293404D01*
X0535820Y0293404D01*
X0535820Y0266904D01*
X0539620Y0266904D01*
X0539620Y0293404D01*
X0543420Y0293404D01*
X0543420Y0266904D01*
X0547220Y0266904D01*
X0547220Y0293404D01*
X0551220Y0293404D01*
X0551220Y0261904D01*
X0547220Y0261904D01*
X0547220Y0235404D01*
X0542920Y0235404D01*
X0542920Y0261904D01*
X0538620Y0261904D01*
X0538620Y0235404D01*
X0534320Y0235404D01*
X0534320Y0261904D01*
X0530020Y0261904D01*
X0530020Y0235404D01*
X0525720Y0235404D01*
X0525720Y0261904D01*
X0521420Y0261904D01*
X0521420Y0235404D01*
X0517220Y0235404D01*
X0517220Y0261904D01*
X0513020Y0261904D01*
X0513020Y0235404D01*
X0508720Y0235404D01*
X0508720Y0261904D01*
X0504420Y0261904D01*
X0504420Y0235404D01*
X0500120Y0235404D01*
X0500120Y0261904D01*
X0495820Y0261904D01*
X0495820Y0235404D01*
X0491520Y0235404D01*
X0491520Y0261904D01*
X0487220Y0261904D01*
X0487220Y0235404D01*
X0481220Y0235404D01*
X0481220Y0261904D01*
X0475220Y0261904D01*
X0475220Y0235404D01*
X0469220Y0235404D01*
X0469220Y0261904D01*
X0463220Y0261904D01*
X0463220Y0235404D01*
X0457220Y0235404D01*
X0457220Y0261904D01*
X0451220Y0261904D01*
X0451220Y0235404D01*
X0445220Y0235404D01*
X0445220Y0261904D01*
X0439220Y0261904D01*
X0439220Y0235404D01*
X0433220Y0235404D01*
X0433220Y0261904D01*
X0427220Y0261904D01*
X0427220Y0235404D01*
X0417220Y0235404D01*
X0417220Y0261904D01*
X0407220Y0261904D01*
X0407220Y0235404D01*
X0397220Y0235404D01*
X0397220Y0261904D01*
X0387220Y0261904D01*
X0387220Y0235404D01*
X0377220Y0235404D01*
X0377220Y0261904D01*
X0367220Y0261904D01*
X0367220Y0235404D01*
X0357220Y0235404D01*
X0357220Y0261904D01*
X0347220Y0261904D01*
X0347220Y0235404D01*
X0337220Y0235404D01*
X0337220Y0261904D01*
X0327220Y0261904D01*
X0327220Y0235404D01*
X0317220Y0235404D01*
X0317220Y0261904D01*
X0303220Y0261904D01*
X0303220Y0235404D01*
X0293220Y0235404D01*
X0293220Y0261904D01*
X0283220Y0261904D01*
X0283220Y0235404D01*
X0273220Y0235404D01*
X0273220Y0261904D01*
X0263220Y0261904D01*
X0263220Y0235404D01*
X0253220Y0235404D01*
X0253220Y0261904D01*
X0243220Y0261904D01*
X0243220Y0235404D01*
X0233220Y0235404D01*
X0233220Y0261904D01*
X0223220Y0261904D01*
X0223220Y0235404D01*
X0213220Y0235404D01*
X0213220Y0261904D01*
X0203220Y0261904D01*
X0203220Y0235404D01*
X0193220Y0235404D01*
X0193220Y0261904D01*
X0183220Y0261904D01*
X0183220Y0235404D01*
X0177220Y0235404D01*
X0177220Y0261904D01*
X0171220Y0261904D01*
X0171220Y0235404D01*
X0165220Y0235404D01*
X0165220Y0261904D01*
X0159220Y0261904D01*
X0159220Y0235404D01*
X0153220Y0235404D01*
X0153220Y0261904D01*
X0147220Y0261904D01*
X0147220Y0235404D01*
X0141220Y0235404D01*
X0141220Y0261904D01*
X0135220Y0261904D01*
X0135220Y0235404D01*
X0129220Y0235404D01*
X0129220Y0261904D01*
X0123220Y0261904D01*
X0123220Y0235404D01*
X0118920Y0235404D01*
X0118920Y0261904D01*
X0114620Y0261904D01*
X0114620Y0235404D01*
X0110320Y0235404D01*
X0110320Y0261904D01*
X0106020Y0261904D01*
X0106020Y0235404D01*
X0101720Y0235404D01*
X0101720Y0261904D01*
X0097420Y0261904D01*
X0097420Y0235404D01*
X0093220Y0235404D01*
X0093220Y0261904D01*
X0089020Y0261904D01*
X0089020Y0235404D01*
X0084720Y0235404D01*
X0084720Y0261904D01*
X0080420Y0261904D01*
X0080420Y0235404D01*
X0076120Y0235404D01*
X0076120Y0261904D01*
X0071820Y0261904D01*
X0071820Y0235404D01*
X0067520Y0235404D01*
X0067520Y0261904D01*
X0063220Y0261904D01*
X0063220Y0196404D01*
X0067520Y0196404D01*
X0067520Y0222904D01*
X0071820Y0222904D01*
X0071820Y0196404D01*
X0076120Y0196404D01*
X0076120Y0222904D01*
X0080420Y0222904D01*
X0080420Y0196404D01*
X0084720Y0196404D01*
X0084720Y0222904D01*
X0089020Y0222904D01*
X0089020Y0196404D01*
X0093220Y0196404D01*
X0093220Y0222904D01*
X0097420Y0222904D01*
X0097420Y0196404D01*
X0101720Y0196404D01*
X0101720Y0222904D01*
X0106020Y0222904D01*
X0106020Y0196404D01*
X0110320Y0196404D01*
X0110320Y0222904D01*
X0114620Y0222904D01*
X0114620Y0196404D01*
X0118920Y0196404D01*
X0118920Y0222904D01*
X0123220Y0222904D01*
X0123220Y0196404D01*
X0129220Y0196404D01*
X0129220Y0222904D01*
X0135220Y0222904D01*
X0135220Y0196404D01*
X0141220Y0196404D01*
X0141220Y0222904D01*
X0147220Y0222904D01*
X0147220Y0196404D01*
X0153220Y0196404D01*
X0153220Y0222904D01*
X0159220Y0222904D01*
X0159220Y0196404D01*
X0165220Y0196404D01*
X0165220Y0222904D01*
X0171220Y0222904D01*
X0171220Y0196404D01*
X0177220Y0196404D01*
X0177220Y0222904D01*
X0183220Y0222904D01*
X0183220Y0196404D01*
X0193220Y0196404D01*
X0193220Y0222904D01*
X0203220Y0222904D01*
X0203220Y0196404D01*
X0213220Y0196404D01*
X0213220Y0222904D01*
X0223220Y0222904D01*
X0223220Y0196404D01*
X0233220Y0196404D01*
X0233220Y0222904D01*
X0243220Y0222904D01*
X0243220Y0196404D01*
X0253220Y0196404D01*
X0253220Y0222904D01*
X0263220Y0222904D01*
X0263220Y0196404D01*
X0273220Y0196404D01*
X0273220Y0222904D01*
X0283220Y0222904D01*
X0283220Y0196404D01*
X0293220Y0196404D01*
X0293220Y0222904D01*
X0303220Y0222904D01*
X0303220Y0196404D01*
X0317220Y0196404D01*
X0317220Y0222904D01*
X0327220Y0222904D01*
X0327220Y0196404D01*
X0337220Y0196404D01*
X0337220Y0222904D01*
X0347220Y0222904D01*
X0347220Y0196404D01*
X0357220Y0196404D01*
X0357220Y0222904D01*
X0367220Y0222904D01*
X0367220Y0196404D01*
X0377220Y0196404D01*
X0377220Y0222904D01*
X0387220Y0222904D01*
X0387220Y0196404D01*
X0397220Y0196404D01*
X0397220Y0222904D01*
X0407220Y0222904D01*
X0407220Y0196404D01*
X0417220Y0196404D01*
X0417220Y0222904D01*
X0427220Y0222904D01*
X0427220Y0196404D01*
X0433220Y0196404D01*
X0433220Y0222904D01*
X0439220Y0222904D01*
X0439220Y0196404D01*
X0445220Y0196404D01*
X0445220Y0222904D01*
X0451220Y0222904D01*
X0451220Y0196404D01*
X0457220Y0196404D01*
X0457220Y0222904D01*
X0463220Y0222904D01*
X0463220Y0196404D01*
X0469220Y0196404D01*
X0469220Y0222904D01*
X0475220Y0222904D01*
X0475220Y0196404D01*
X0481220Y0196404D01*
X0481220Y0222904D01*
X0487220Y0222904D01*
X0487220Y0196404D01*
X0491520Y0196404D01*
X0491520Y0222904D01*
X0495820Y0222904D01*
X0495820Y0196404D01*
X0500120Y0196404D01*
X0500120Y0222904D01*
X0504420Y0222904D01*
X0504420Y0196404D01*
X0508720Y0196404D01*
X0508720Y0222904D01*
X0513020Y0222904D01*
X0513020Y0196404D01*
X0517220Y0196404D01*
X0517220Y0222904D01*
X0521420Y0222904D01*
X0521420Y0196404D01*
X0525720Y0196404D01*
X0525720Y0222904D01*
X0530020Y0222904D01*
X0530020Y0196404D01*
X0534320Y0196404D01*
X0534320Y0222904D01*
X0538620Y0222904D01*
X0538620Y0196404D01*
X0542920Y0196404D01*
X0542920Y0222904D01*
X0547220Y0222904D01*
X0547220Y0196404D01*
X0551220Y0196404D01*
X0551220Y0164904D01*
X0547220Y0164904D01*
X0547220Y0191404D01*
X0543420Y0191404D01*
X0543420Y0164904D01*
X0539620Y0164904D01*
X0539620Y0191404D01*
X0535820Y0191404D01*
X0535820Y0164904D01*
X0532020Y0164904D01*
X0532020Y0191404D01*
X0528320Y0191404D01*
X0528320Y0164904D01*
X0524620Y0164904D01*
X0524620Y0191404D01*
X0520920Y0191404D01*
X0520920Y0164904D01*
X0517220Y0164904D01*
X0517220Y0191404D01*
X0513520Y0191404D01*
X0513520Y0164904D01*
X0509820Y0164904D01*
X0509820Y0191404D01*
X0506120Y0191404D01*
X0506120Y0164904D01*
X0502420Y0164904D01*
X0502420Y0191404D01*
X0498620Y0191404D01*
X0498620Y0164904D01*
X0494820Y0164904D01*
X0494820Y0191404D01*
X0491020Y0191404D01*
X0491020Y0164904D01*
X0487220Y0164904D01*
X0487220Y0191404D01*
X0482920Y0191404D01*
X0482920Y0164904D01*
X0478620Y0164904D01*
X0478620Y0191404D01*
X0474320Y0191404D01*
X0474320Y0164904D01*
X0470020Y0164904D01*
X0470020Y0191404D01*
X0465720Y0191404D01*
X0465720Y0164904D01*
X0461420Y0164904D01*
X0461420Y0191404D01*
X0457220Y0191404D01*
X0457220Y0164904D01*
X0453020Y0164904D01*
X0453020Y0191404D01*
X0448720Y0191404D01*
X0448720Y0164904D01*
X0444420Y0164904D01*
X0444420Y0191404D01*
X0440120Y0191404D01*
X0440120Y0164904D01*
X0435820Y0164904D01*
X0435820Y0191404D01*
X0431520Y0191404D01*
X0431520Y0164904D01*
X0427220Y0164904D01*
X0427220Y0191404D01*
X0419720Y0191404D01*
X0419720Y0164904D01*
X0412220Y0164904D01*
X0412220Y0191404D01*
X0404720Y0191404D01*
X0404720Y0164904D01*
X0397220Y0164904D01*
X0397220Y0191404D01*
X0389720Y0191404D01*
X0389720Y0164904D01*
X0382220Y0164904D01*
X0382220Y0191404D01*
X0374720Y0191404D01*
X0374720Y0164904D01*
X0367220Y0164904D01*
X0367220Y0191404D01*
X0357220Y0191404D01*
X0357220Y0164904D01*
X0347220Y0164904D01*
X0347220Y0191404D01*
X0337220Y0191404D01*
X0337220Y0164904D01*
X0327220Y0164904D01*
X0327220Y0191404D01*
X0317220Y0191404D01*
X0317220Y0164904D01*
X0303220Y0164904D01*
X0303220Y0191404D01*
X0293220Y0191404D01*
X0293220Y0164904D01*
X0283220Y0164904D01*
X0283220Y0191404D01*
X0273220Y0191404D01*
X0273220Y0164904D01*
X0263220Y0164904D01*
X0263220Y0191404D01*
X0253220Y0191404D01*
X0253220Y0164904D01*
X0243220Y0164904D01*
X0243220Y0191404D01*
X0235720Y0191404D01*
X0235720Y0164904D01*
X0228220Y0164904D01*
X0228220Y0191404D01*
X0220720Y0191404D01*
X0220720Y0164904D01*
X0213220Y0164904D01*
X0213220Y0191404D01*
X0205720Y0191404D01*
X0205720Y0164904D01*
X0198220Y0164904D01*
X0198220Y0191404D01*
X0190720Y0191404D01*
X0190720Y0164904D01*
X0183220Y0164904D01*
X0183220Y0191404D01*
X0178920Y0191404D01*
X0178920Y0164904D01*
X0174620Y0164904D01*
X0174620Y0191404D01*
X0170320Y0191404D01*
X0170320Y0164904D01*
X0166020Y0164904D01*
X0166020Y0191404D01*
X0161720Y0191404D01*
X0161720Y0164904D01*
X0157420Y0164904D01*
X0157420Y0191404D01*
X0153220Y0191404D01*
X0153220Y0164904D01*
X0149020Y0164904D01*
X0149020Y0191404D01*
X0144720Y0191404D01*
X0144720Y0164904D01*
X0140420Y0164904D01*
X0140420Y0191404D01*
X0136120Y0191404D01*
X0136120Y0164904D01*
X0131820Y0164904D01*
X0131820Y0191404D01*
X0127520Y0191404D01*
X0127520Y0164904D01*
X0123220Y0164904D01*
X0123220Y0191404D01*
X0119420Y0191404D01*
X0119420Y0164904D01*
X0115620Y0164904D01*
X0115620Y0191404D01*
X0111820Y0191404D01*
X0111820Y0164904D01*
X0108020Y0164904D01*
X0108020Y0191404D01*
X0104320Y0191404D01*
X0104320Y0164904D01*
X0100620Y0164904D01*
X0100620Y0191404D01*
X0096920Y0191404D01*
X0096920Y0164904D01*
X0093220Y0164904D01*
X0093220Y0191404D01*
X0089520Y0191404D01*
X0089520Y0164904D01*
X0085820Y0164904D01*
X0085820Y0191404D01*
X0082120Y0191404D01*
X0082120Y0164904D01*
X0078420Y0164904D01*
X0078420Y0191404D01*
X0074620Y0191404D01*
X0074620Y0164904D01*
X0070820Y0164904D01*
X0070820Y0191404D01*
X0067020Y0191404D01*
X0067020Y0164904D01*
X0063220Y0164904D01*
X0063220Y0133404D01*
X0067020Y0133404D01*
X0067020Y0159904D01*
X0070820Y0159904D01*
X0070820Y0133404D01*
X0074620Y0133404D01*
X0074620Y0159904D01*
X0078420Y0159904D01*
X0078420Y0133404D01*
X0082120Y0133404D01*
X0082120Y0159904D01*
X0085820Y0159904D01*
X0085820Y0133404D01*
X0089520Y0133404D01*
X0089520Y0159904D01*
X0093220Y0159904D01*
X0093220Y0133404D01*
X0096920Y0133404D01*
X0096920Y0159904D01*
X0100620Y0159904D01*
X0100620Y0133404D01*
X0104320Y0133404D01*
X0104320Y0159904D01*
X0108020Y0159904D01*
X0108020Y0133404D01*
X0111820Y0133404D01*
X0111820Y0159904D01*
X0115620Y0159904D01*
X0115620Y0133404D01*
X0119420Y0133404D01*
X0119420Y0159904D01*
X0123220Y0159904D01*
X0123220Y0133404D01*
X0127520Y0133404D01*
X0127520Y0159904D01*
X0131820Y0159904D01*
X0131820Y0133404D01*
X0136120Y0133404D01*
X0136120Y0159904D01*
X0140420Y0159904D01*
X0140420Y0133404D01*
X0144720Y0133404D01*
X0144720Y0159904D01*
X0149020Y0159904D01*
X0149020Y0133404D01*
X0153220Y0133404D01*
X0153220Y0159904D01*
X0157420Y0159904D01*
X0157420Y0133404D01*
X0161720Y0133404D01*
X0161720Y0159904D01*
X0166020Y0159904D01*
X0166020Y0133404D01*
X0170320Y0133404D01*
X0170320Y0159904D01*
X0174620Y0159904D01*
X0174620Y0133404D01*
X0178920Y0133404D01*
X0178920Y0159904D01*
X0183220Y0159904D01*
X0183220Y0133404D01*
X0189220Y0133404D01*
X0189220Y0159904D01*
X0195220Y0159904D01*
X0195220Y0133404D01*
X0201220Y0133404D01*
X0201220Y0159904D01*
X0207220Y0159904D01*
X0207220Y0133404D01*
X0213220Y0133404D01*
X0213220Y0159904D01*
X0219220Y0159904D01*
X0219220Y0133404D01*
X0225220Y0133404D01*
X0225220Y0159904D01*
X0231220Y0159904D01*
X0231220Y0133404D01*
X0237220Y0133404D01*
X0237220Y0159904D01*
X0243220Y0159904D01*
X0243220Y0133404D01*
X0250720Y0133404D01*
X0250720Y0159904D01*
X0258220Y0159904D01*
X0258220Y0133404D01*
X0265720Y0133404D01*
X0265720Y0159904D01*
X0273220Y0159904D01*
X0273220Y0133404D01*
X0280720Y0133404D01*
X0280720Y0159904D01*
X0288220Y0159904D01*
X0288220Y0133404D01*
X0295720Y0133404D01*
X0295720Y0159904D01*
X0303220Y0159904D01*
X0303220Y0133404D01*
X0314720Y0133404D01*
X0314720Y0159904D01*
X0322220Y0159904D01*
X0322220Y0133404D01*
X0329720Y0133404D01*
X0329720Y0159904D01*
X0337220Y0159904D01*
X0337220Y0133404D01*
X0344720Y0133404D01*
X0344720Y0159904D01*
X0352220Y0159904D01*
X0352220Y0133404D01*
X0359720Y0133404D01*
X0359720Y0159904D01*
X0367220Y0159904D01*
X0367220Y0133404D01*
X0373220Y0133404D01*
X0373220Y0159904D01*
X0379220Y0159904D01*
X0379220Y0133404D01*
X0385220Y0133404D01*
X0385220Y0159904D01*
X0391220Y0159904D01*
X0391220Y0133404D01*
X0397220Y0133404D01*
X0397220Y0159904D01*
X0403220Y0159904D01*
X0403220Y0133404D01*
X0409220Y0133404D01*
X0409220Y0159904D01*
X0415220Y0159904D01*
X0415220Y0133404D01*
X0421220Y0133404D01*
X0421220Y0159904D01*
X0427220Y0159904D01*
X0427220Y0133404D01*
X0431520Y0133404D01*
X0431520Y0159904D01*
X0435820Y0159904D01*
X0435820Y0133404D01*
X0440120Y0133404D01*
X0440120Y0159904D01*
X0444420Y0159904D01*
X0444420Y0133404D01*
X0448720Y0133404D01*
X0448720Y0159904D01*
X0453020Y0159904D01*
X0453020Y0133404D01*
X0457220Y0133404D01*
X0457220Y0159904D01*
X0461420Y0159904D01*
X0461420Y0133404D01*
X0465720Y0133404D01*
X0465720Y0159904D01*
X0470020Y0159904D01*
X0470020Y0133404D01*
X0474320Y0133404D01*
X0474320Y0159904D01*
X0478620Y0159904D01*
X0478620Y0133404D01*
X0482920Y0133404D01*
X0482920Y0159904D01*
X0487220Y0159904D01*
X0487220Y0133404D01*
X0491020Y0133404D01*
X0491020Y0159904D01*
X0494820Y0159904D01*
X0494820Y0133404D01*
X0498620Y0133404D01*
X0498620Y0159904D01*
X0502420Y0159904D01*
X0502420Y0133404D01*
X0506120Y0133404D01*
X0506120Y0159904D01*
X0509820Y0159904D01*
X0509820Y0133404D01*
X0513520Y0133404D01*
X0513520Y0159904D01*
X0517220Y0159904D01*
X0517220Y0133404D01*
X0520920Y0133404D01*
X0520920Y0159904D01*
X0524620Y0159904D01*
X0524620Y0133404D01*
X0528320Y0133404D01*
X0528320Y0159904D01*
X0532020Y0159904D01*
X0532020Y0133404D01*
X0535820Y0133404D01*
X0535820Y0159904D01*
X0539620Y0159904D01*
X0539620Y0133404D01*
X0543420Y0133404D01*
X0543420Y0159904D01*
X0547220Y0159904D01*
X0547220Y0133404D01*
X0551220Y0133404D01*
X0551220Y0101904D01*
X0547220Y0101904D01*
X0547220Y0128404D01*
X0543820Y0128404D01*
X0543820Y0101904D01*
X0540420Y0101904D01*
X0540420Y0128404D01*
X0537020Y0128404D01*
X0537020Y0101904D01*
X0533720Y0101904D01*
X0533720Y0128404D01*
X0530420Y0128404D01*
X0530420Y0101904D01*
X0527120Y0101904D01*
X0527120Y0128404D01*
X0523820Y0128404D01*
X0523820Y0101904D01*
X0520520Y0101904D01*
X0520520Y0128404D01*
X0517220Y0128404D01*
X0517220Y0101904D01*
X0513920Y0101904D01*
X0513920Y0128404D01*
X0510620Y0128404D01*
X0510620Y0101904D01*
X0507320Y0101904D01*
X0507320Y0128404D01*
X0504020Y0128404D01*
X0504020Y0101904D01*
X0500720Y0101904D01*
X0500720Y0128404D01*
X0497420Y0128404D01*
X0497420Y0101904D01*
X0494020Y0101904D01*
X0494020Y0128404D01*
X0490620Y0128404D01*
X0490620Y0101904D01*
X0487220Y0101904D01*
X0487220Y0128404D01*
X0483420Y0128404D01*
X0483420Y0101904D01*
X0479620Y0101904D01*
X0479620Y0128404D01*
X0475820Y0128404D01*
X0475820Y0101904D01*
X0472020Y0101904D01*
X0472020Y0128404D01*
X0468320Y0128404D01*
X0468320Y0101904D01*
X0464620Y0101904D01*
X0464620Y0128404D01*
X0460920Y0128404D01*
X0460920Y0101904D01*
X0457220Y0101904D01*
X0457220Y0128404D01*
X0453520Y0128404D01*
X0453520Y0101904D01*
X0449820Y0101904D01*
X0449820Y0128404D01*
X0446120Y0128404D01*
X0446120Y0101904D01*
X0442420Y0101904D01*
X0442420Y0128404D01*
X0438620Y0128404D01*
X0438620Y0101904D01*
X0434820Y0101904D01*
X0434820Y0128404D01*
X0431020Y0128404D01*
X0431020Y0101904D01*
X0427220Y0101904D01*
X0427220Y0128404D01*
X0422920Y0128404D01*
X0422920Y0101904D01*
X0418620Y0101904D01*
X0418620Y0128404D01*
X0414320Y0128404D01*
X0414320Y0101904D01*
X0410020Y0101904D01*
X0410020Y0128404D01*
X0405720Y0128404D01*
X0405720Y0101904D01*
X0401420Y0101904D01*
X0401420Y0128404D01*
X0397220Y0128404D01*
X0397220Y0101904D01*
X0393020Y0101904D01*
X0393020Y0128404D01*
X0388720Y0128404D01*
X0388720Y0101904D01*
X0384420Y0101904D01*
X0384420Y0128404D01*
X0380120Y0128404D01*
X0380120Y0101904D01*
X0375820Y0101904D01*
X0375820Y0128404D01*
X0371520Y0128404D01*
X0371520Y0101904D01*
X0367220Y0101904D01*
X0367220Y0128404D01*
X0362220Y0128404D01*
X0362220Y0101904D01*
X0357220Y0101904D01*
X0357220Y0128404D01*
X0352220Y0128404D01*
X0352220Y0101904D01*
X0347220Y0101904D01*
X0347220Y0128404D01*
X0342220Y0128404D01*
X0342220Y0101904D01*
X0337220Y0101904D01*
X0337220Y0128404D01*
X0332220Y0128404D01*
X0332220Y0101904D01*
X0327220Y0101904D01*
X0327220Y0128404D01*
X0322220Y0128404D01*
X0322220Y0101904D01*
X0317220Y0101904D01*
X0317220Y0128404D01*
X0312220Y0128404D01*
X0312220Y0101904D01*
X0303220Y0101904D01*
X0303220Y0128404D01*
X0298220Y0128404D01*
X0298220Y0101904D01*
X0293220Y0101904D01*
X0293220Y0128404D01*
X0288220Y0128404D01*
X0288220Y0101904D01*
X0283220Y0101904D01*
X0283220Y0128404D01*
X0278220Y0128404D01*
X0278220Y0101904D01*
X0273220Y0101904D01*
X0273220Y0128404D01*
X0268220Y0128404D01*
X0268220Y0101904D01*
X0263220Y0101904D01*
X0263220Y0128404D01*
X0258220Y0128404D01*
X0258220Y0101904D01*
X0253220Y0101904D01*
X0253220Y0128404D01*
X0248220Y0128404D01*
X0248220Y0101904D01*
X0243220Y0101904D01*
X0243220Y0128404D01*
X0238920Y0128404D01*
X0238920Y0101904D01*
X0234620Y0101904D01*
X0234620Y0128404D01*
X0230320Y0128404D01*
X0230320Y0101904D01*
X0226020Y0101904D01*
X0226020Y0128404D01*
X0221720Y0128404D01*
X0221720Y0101904D01*
X0217420Y0101904D01*
X0217420Y0128404D01*
X0213220Y0128404D01*
X0213220Y0101904D01*
X0209020Y0101904D01*
X0209020Y0128404D01*
X0204720Y0128404D01*
X0204720Y0101904D01*
X0200420Y0101904D01*
X0200420Y0128404D01*
X0196120Y0128404D01*
X0196120Y0101904D01*
X0191820Y0101904D01*
X0191820Y0128404D01*
X0187520Y0128404D01*
X0187520Y0101904D01*
X0183220Y0101904D01*
X0183220Y0128404D01*
X0179420Y0128404D01*
X0179420Y0101904D01*
X0175620Y0101904D01*
X0175620Y0128404D01*
X0171820Y0128404D01*
X0171820Y0101904D01*
X0168020Y0101904D01*
X0168020Y0128404D01*
X0164320Y0128404D01*
X0164320Y0101904D01*
X0160620Y0101904D01*
X0160620Y0128404D01*
X0156920Y0128404D01*
X0156920Y0101904D01*
X0153220Y0101904D01*
X0153220Y0128404D01*
X0149520Y0128404D01*
X0149520Y0101904D01*
X0145820Y0101904D01*
X0145820Y0128404D01*
X0142120Y0128404D01*
X0142120Y0101904D01*
X0138420Y0101904D01*
X0138420Y0128404D01*
X0134620Y0128404D01*
X0134620Y0101904D01*
X0130820Y0101904D01*
X0130820Y0128404D01*
X0127020Y0128404D01*
X0127020Y0101904D01*
X0123220Y0101904D01*
X0123220Y0128404D01*
X0119820Y0128404D01*
X0119820Y0101904D01*
X0116420Y0101904D01*
X0116420Y0128404D01*
X0113020Y0128404D01*
X0113020Y0101904D01*
X0109720Y0101904D01*
X0109720Y0128404D01*
X0106420Y0128404D01*
X0106420Y0101904D01*
X0103120Y0101904D01*
X0103120Y0128404D01*
X0099820Y0128404D01*
X0099820Y0101904D01*
X0096520Y0101904D01*
X0096520Y0128404D01*
X0093220Y0128404D01*
X0093220Y0101904D01*
X0089920Y0101904D01*
X0089920Y0128404D01*
X0086620Y0128404D01*
X0086620Y0101904D01*
X0083320Y0101904D01*
X0083320Y0128404D01*
X0080020Y0128404D01*
X0080020Y0101904D01*
X0076720Y0101904D01*
X0076720Y0128404D01*
X0073420Y0128404D01*
X0073420Y0101904D01*
X0070020Y0101904D01*
X0070020Y0128404D01*
X0066620Y0128404D01*
X0066620Y0101904D01*
X0063220Y0101904D01*
X0063220Y0070404D01*
X0066220Y0070404D01*
X0066220Y0096904D01*
X0069220Y0096904D01*
X0069220Y0070404D01*
X0072220Y0070404D01*
X0072220Y0096904D01*
X0075220Y0096904D01*
X0075220Y0070404D01*
X0078220Y0070404D01*
X0078220Y0096904D01*
X0081220Y0096904D01*
X0081220Y0070404D01*
X0084220Y0070404D01*
X0084220Y0096904D01*
X0087220Y0096904D01*
X0087220Y0070404D01*
X0090220Y0070404D01*
X0090220Y0096904D01*
X0093220Y0096904D01*
X0093220Y0070404D01*
X0096220Y0070404D01*
X0096220Y0096904D01*
X0099220Y0096904D01*
X0099220Y0070404D01*
X0102220Y0070404D01*
X0102220Y0096904D01*
X0105220Y0096904D01*
X0105220Y0070404D01*
X0108220Y0070404D01*
X0108220Y0096904D01*
X0111220Y0096904D01*
X0111220Y0070404D01*
X0114220Y0070404D01*
X0114220Y0096904D01*
X0117220Y0096904D01*
X0117220Y0070404D01*
X0120220Y0070404D01*
X0120220Y0096904D01*
X0123220Y0096904D01*
X0123220Y0070404D01*
X0126620Y0070404D01*
X0126620Y0096904D01*
X0130020Y0096904D01*
X0130020Y0070404D01*
X0133420Y0070404D01*
X0133420Y0096904D01*
X0136720Y0096904D01*
X0136720Y0070404D01*
X0140020Y0070404D01*
X0140020Y0096904D01*
X0143320Y0096904D01*
X0143320Y0070404D01*
X0146620Y0070404D01*
X0146620Y0096904D01*
X0149920Y0096904D01*
X0149920Y0070404D01*
X0153220Y0070404D01*
X0153220Y0096904D01*
X0156520Y0096904D01*
X0156520Y0070404D01*
X0159820Y0070404D01*
X0159820Y0096904D01*
X0163120Y0096904D01*
X0163120Y0070404D01*
X0166420Y0070404D01*
X0166420Y0096904D01*
X0169720Y0096904D01*
X0169720Y0070404D01*
X0173020Y0070404D01*
X0173020Y0096904D01*
X0176420Y0096904D01*
X0176420Y0070404D01*
X0179820Y0070404D01*
X0179820Y0096904D01*
X0183220Y0096904D01*
X0183220Y0070404D01*
X0187020Y0070404D01*
X0187020Y0096904D01*
X0190820Y0096904D01*
X0190820Y0070404D01*
X0194620Y0070404D01*
X0194620Y0096904D01*
X0198420Y0096904D01*
X0198420Y0070404D01*
X0202120Y0070404D01*
X0202120Y0096904D01*
X0205820Y0096904D01*
X0205820Y0070404D01*
X0209520Y0070404D01*
X0209520Y0096904D01*
X0213220Y0096904D01*
X0213220Y0070404D01*
X0216920Y0070404D01*
X0216920Y0096904D01*
X0220620Y0096904D01*
X0220620Y0070404D01*
X0224320Y0070404D01*
X0224320Y0096904D01*
X0228020Y0096904D01*
X0228020Y0070404D01*
X0231820Y0070404D01*
X0231820Y0096904D01*
X0235620Y0096904D01*
X0235620Y0070404D01*
X0239420Y0070404D01*
X0239420Y0096904D01*
X0243220Y0096904D01*
X0243220Y0070404D01*
X0247520Y0070404D01*
X0247520Y0096904D01*
X0251820Y0096904D01*
X0251820Y0070404D01*
X0256120Y0070404D01*
X0256120Y0096904D01*
X0260420Y0096904D01*
X0260420Y0070404D01*
X0264720Y0070404D01*
X0264720Y0096904D01*
X0269020Y0096904D01*
X0269020Y0070404D01*
X0273220Y0070404D01*
X0273220Y0096904D01*
X0277420Y0096904D01*
X0277420Y0070404D01*
X0281720Y0070404D01*
X0281720Y0096904D01*
X0286020Y0096904D01*
X0286020Y0070404D01*
X0290320Y0070404D01*
X0290320Y0096904D01*
X0294620Y0096904D01*
X0294620Y0070404D01*
X0298920Y0070404D01*
X0298920Y0096904D01*
X0303220Y0096904D01*
X0303220Y0070404D01*
X0311520Y0070404D01*
X0311520Y0096904D01*
X0315820Y0096904D01*
X0315820Y0070404D01*
X0320120Y0070404D01*
X0320120Y0096904D01*
X0324420Y0096904D01*
X0324420Y0070404D01*
X0328720Y0070404D01*
X0328720Y0096904D01*
X0333020Y0096904D01*
X0333020Y0070404D01*
X0337220Y0070404D01*
X0337220Y0096904D01*
X0341420Y0096904D01*
X0341420Y0070404D01*
X0345720Y0070404D01*
X0345720Y0096904D01*
X0350020Y0096904D01*
X0350020Y0070404D01*
X0354320Y0070404D01*
X0354320Y0096904D01*
X0358620Y0096904D01*
X0358620Y0070404D01*
X0362920Y0070404D01*
X0362920Y0096904D01*
X0367220Y0096904D01*
X0367220Y0070404D01*
X0371020Y0070404D01*
X0371020Y0096904D01*
X0374820Y0096904D01*
X0374820Y0070404D01*
X0378620Y0070404D01*
X0378620Y0096904D01*
X0382420Y0096904D01*
X0382420Y0070404D01*
X0386120Y0070404D01*
X0386120Y0096904D01*
X0389820Y0096904D01*
X0389820Y0070404D01*
X0393520Y0070404D01*
X0393520Y0096904D01*
X0397220Y0096904D01*
X0397220Y0070404D01*
X0400920Y0070404D01*
X0400920Y0096904D01*
X0404620Y0096904D01*
X0404620Y0070404D01*
X0408320Y0070404D01*
X0408320Y0096904D01*
X0412020Y0096904D01*
X0412020Y0070404D01*
X0415820Y0070404D01*
X0415820Y0096904D01*
X0419620Y0096904D01*
X0419620Y0070404D01*
X0423420Y0070404D01*
X0423420Y0096904D01*
X0427220Y0096904D01*
X0427220Y0070404D01*
X0430620Y0070404D01*
X0430620Y0096904D01*
X0434020Y0096904D01*
X0434020Y0070404D01*
X0437420Y0070404D01*
X0437420Y0096904D01*
X0440720Y0096904D01*
X0440720Y0070404D01*
X0444020Y0070404D01*
X0444020Y0096904D01*
X0447320Y0096904D01*
X0447320Y0070404D01*
X0450620Y0070404D01*
X0450620Y0096904D01*
X0453920Y0096904D01*
X0453920Y0070404D01*
X0457220Y0070404D01*
X0457220Y0096904D01*
X0460520Y0096904D01*
X0460520Y0070404D01*
X0463820Y0070404D01*
X0463820Y0096904D01*
X0467120Y0096904D01*
X0467120Y0070404D01*
X0470420Y0070404D01*
X0470420Y0096904D01*
X0473720Y0096904D01*
X0473720Y0070404D01*
X0477020Y0070404D01*
X0477020Y0096904D01*
X0480420Y0096904D01*
X0480420Y0070404D01*
X0483820Y0070404D01*
X0483820Y0096904D01*
X0487220Y0096904D01*
X0487220Y0070404D01*
X0490220Y0070404D01*
X0490220Y0096904D01*
X0493220Y0096904D01*
X0493220Y0070404D01*
X0496220Y0070404D01*
X0496220Y0096904D01*
X0499220Y0096904D01*
X0499220Y0070404D01*
X0502220Y0070404D01*
X0502220Y0096904D01*
X0505220Y0096904D01*
X0505220Y0070404D01*
X0508220Y0070404D01*
X0508220Y0096904D01*
X0511220Y0096904D01*
X0511220Y0070404D01*
X0514220Y0070404D01*
X0514220Y0096904D01*
X0517220Y0096904D01*
X0517220Y0070404D01*
X0520220Y0070404D01*
X0520220Y0096904D01*
X0523220Y0096904D01*
X0523220Y0070404D01*
X0526220Y0070404D01*
X0526220Y0096904D01*
X0529220Y0096904D01*
X0529220Y0070404D01*
X0532220Y0070404D01*
X0532220Y0096904D01*
X0535220Y0096904D01*
X0535220Y0070404D01*
X0538220Y0070404D01*
X0538220Y0096904D01*
X0541220Y0096904D01*
X0541220Y0070404D01*
X0544220Y0070404D01*
X0544220Y0096904D01*
X0547220Y0096904D01*
X0547220Y0070352D01*
X0550720Y0070352D01*
X0550720Y0097052D01*
X0553820Y0097052D01*
X0553820Y0070352D01*
X0556820Y0070352D01*
X0556820Y0101752D01*
X0554520Y0101752D01*
X0554520Y0136652D01*
X0550320Y0136652D01*
X0550320Y0159952D01*
X0553520Y0159952D01*
X0553520Y0139852D01*
X0557820Y0139852D01*
X0557820Y0104952D01*
X0560920Y0104952D01*
X0560920Y0142952D01*
X0556720Y0142952D01*
X0556720Y0164652D01*
X0554520Y0164652D01*
X0554520Y0199852D01*
X0550720Y0199852D01*
X0550720Y0220552D01*
X0555320Y0225152D01*
X0565420Y0225152D01*
M02*
