G75*
%MOIN*%
%OFA0B0*%
%FSLAX25Y25*%
%IPPOS*%
%LPD*%
%AMOC8*
5,1,8,0,0,1.08239X$1,22.5*
%
%ADD10C,0.01100*%
%ADD11C,0.00500*%
%ADD12C,0.00400*%
D10*
X0046155Y0180613D02*
X0045170Y0181597D01*
X0045170Y0183566D01*
X0046155Y0184550D01*
X0051076Y0184550D01*
X0049107Y0187058D02*
X0043202Y0187058D01*
X0045170Y0187058D02*
X0045170Y0190011D01*
X0046155Y0190995D01*
X0048123Y0190995D01*
X0049107Y0190011D01*
X0049107Y0187058D01*
X0049107Y0193504D02*
X0043202Y0193504D01*
X0045170Y0193504D02*
X0045170Y0196457D01*
X0046155Y0197441D01*
X0048123Y0197441D01*
X0049107Y0196457D01*
X0049107Y0193504D01*
X0048123Y0199949D02*
X0049107Y0200934D01*
X0049107Y0202902D01*
X0048123Y0203886D01*
X0047139Y0203886D01*
X0047139Y0199949D01*
X0046155Y0199949D02*
X0048123Y0199949D01*
X0046155Y0199949D02*
X0045170Y0200934D01*
X0045170Y0202902D01*
X0045170Y0206395D02*
X0049107Y0206395D01*
X0047139Y0206395D02*
X0049107Y0208363D01*
X0049107Y0209348D01*
X0048123Y0218212D02*
X0049107Y0219196D01*
X0049107Y0221164D01*
X0048123Y0222148D01*
X0045170Y0222148D01*
X0046155Y0224657D02*
X0048123Y0224657D01*
X0049107Y0225641D01*
X0049107Y0227610D01*
X0048123Y0228594D01*
X0047139Y0228594D01*
X0047139Y0224657D01*
X0046155Y0224657D02*
X0045170Y0225641D01*
X0045170Y0227610D01*
X0046155Y0231103D02*
X0047139Y0232087D01*
X0047139Y0235039D01*
X0048123Y0235039D02*
X0045170Y0235039D01*
X0045170Y0232087D01*
X0046155Y0231103D01*
X0049107Y0232087D02*
X0049107Y0234055D01*
X0048123Y0235039D01*
X0049107Y0237548D02*
X0049107Y0239517D01*
X0050091Y0238532D02*
X0046155Y0238532D01*
X0045170Y0239517D01*
X0046155Y0241845D02*
X0048123Y0241845D01*
X0049107Y0242829D01*
X0049107Y0244798D01*
X0048123Y0245782D01*
X0047139Y0245782D01*
X0047139Y0241845D01*
X0046155Y0241845D02*
X0045170Y0242829D01*
X0045170Y0244798D01*
X0045170Y0248291D02*
X0049107Y0248291D01*
X0049107Y0250259D02*
X0049107Y0251243D01*
X0049107Y0250259D02*
X0047139Y0248291D01*
X0046155Y0260107D02*
X0050091Y0264044D01*
X0046155Y0264044D01*
X0045170Y0263060D01*
X0045170Y0261092D01*
X0046155Y0260107D01*
X0050091Y0260107D01*
X0051076Y0261092D01*
X0051076Y0263060D01*
X0050091Y0264044D01*
X0050091Y0266553D02*
X0051076Y0267537D01*
X0051076Y0269505D01*
X0050091Y0270490D01*
X0046155Y0266553D01*
X0045170Y0267537D01*
X0045170Y0269505D01*
X0046155Y0270490D01*
X0050091Y0270490D01*
X0048123Y0272998D02*
X0048123Y0275951D01*
X0047139Y0276935D01*
X0046155Y0276935D01*
X0045170Y0275951D01*
X0045170Y0273983D01*
X0046155Y0272998D01*
X0048123Y0272998D01*
X0050091Y0274967D01*
X0051076Y0276935D01*
X0050091Y0266553D02*
X0046155Y0266553D01*
X0045170Y0218212D02*
X0051076Y0218212D01*
X0051076Y0180613D02*
X0046155Y0180613D01*
X0269015Y0044823D02*
X0269015Y0043839D01*
X0269999Y0042854D01*
X0271968Y0042854D01*
X0272952Y0043839D01*
X0272952Y0044823D01*
X0271968Y0045807D01*
X0269999Y0045807D01*
X0269015Y0044823D01*
X0269999Y0042854D02*
X0269015Y0041870D01*
X0269015Y0040886D01*
X0269999Y0039902D01*
X0271968Y0039902D01*
X0272952Y0040886D01*
X0272952Y0041870D01*
X0271968Y0042854D01*
X0275461Y0039902D02*
X0279397Y0039902D01*
X0277429Y0039902D02*
X0277429Y0045807D01*
X0279397Y0043839D01*
X0281906Y0044823D02*
X0282890Y0045807D01*
X0284859Y0045807D01*
X0285843Y0044823D01*
X0285843Y0043839D01*
X0284859Y0042854D01*
X0281906Y0042854D01*
X0281906Y0040886D02*
X0281906Y0044823D01*
X0281906Y0040886D02*
X0282890Y0039902D01*
X0284859Y0039902D01*
X0285843Y0040886D01*
X0288352Y0040886D02*
X0289336Y0039902D01*
X0291304Y0039902D01*
X0292288Y0040886D01*
X0288352Y0044823D01*
X0288352Y0040886D01*
X0292288Y0040886D02*
X0292288Y0044823D01*
X0291304Y0045807D01*
X0289336Y0045807D01*
X0288352Y0044823D01*
X0294797Y0045807D02*
X0298734Y0045807D01*
X0298734Y0042854D01*
X0296766Y0043839D01*
X0295781Y0043839D01*
X0294797Y0042854D01*
X0294797Y0040886D01*
X0295781Y0039902D01*
X0297750Y0039902D01*
X0298734Y0040886D01*
X0301243Y0039902D02*
X0305179Y0039902D01*
X0303211Y0039902D02*
X0303211Y0045807D01*
X0305179Y0043839D01*
X0307688Y0044823D02*
X0311625Y0040886D01*
X0310641Y0039902D01*
X0308672Y0039902D01*
X0307688Y0040886D01*
X0307688Y0044823D01*
X0308672Y0045807D01*
X0310641Y0045807D01*
X0311625Y0044823D01*
X0311625Y0040886D01*
X0314134Y0039902D02*
X0318070Y0039902D01*
X0314134Y0043839D01*
X0314134Y0044823D01*
X0315118Y0045807D01*
X0317086Y0045807D01*
X0318070Y0044823D01*
X0286560Y0409500D02*
X0286560Y0415405D01*
X0284592Y0413436D01*
X0282624Y0415405D01*
X0282624Y0409500D01*
X0280115Y0409500D02*
X0278147Y0409500D01*
X0279131Y0409500D02*
X0279131Y0413436D01*
X0280115Y0413436D01*
X0279131Y0415405D02*
X0279131Y0416389D01*
X0275818Y0413436D02*
X0275818Y0409500D01*
X0275818Y0411468D02*
X0273850Y0413436D01*
X0272865Y0413436D01*
X0270447Y0413436D02*
X0269463Y0413436D01*
X0269463Y0409500D01*
X0270447Y0409500D02*
X0268478Y0409500D01*
X0266150Y0410484D02*
X0265166Y0411468D01*
X0262213Y0411468D01*
X0262213Y0412452D02*
X0262213Y0409500D01*
X0265166Y0409500D01*
X0266150Y0410484D01*
X0265166Y0413436D02*
X0263197Y0413436D01*
X0262213Y0412452D01*
X0259704Y0413436D02*
X0258720Y0413436D01*
X0257736Y0412452D01*
X0256752Y0413436D01*
X0255768Y0412452D01*
X0255768Y0409500D01*
X0257736Y0409500D02*
X0257736Y0412452D01*
X0259704Y0413436D02*
X0259704Y0409500D01*
X0269463Y0415405D02*
X0269463Y0416389D01*
D11*
X0306349Y0230043D02*
X0306743Y0230043D01*
X0306743Y0227287D01*
X0307136Y0226894D02*
X0307136Y0230043D01*
X0306743Y0230043D01*
X0307136Y0230043D02*
X0311861Y0230043D01*
X0312254Y0230043D01*
X0312254Y0226894D01*
X0311861Y0226894D01*
X0311861Y0230043D01*
X0312254Y0230043D02*
X0312648Y0230043D01*
X0312648Y0226894D01*
X0312254Y0226894D01*
X0311861Y0226894D02*
X0307136Y0226894D01*
X0306349Y0226894D01*
X0306349Y0230043D01*
D12*
X0307021Y0233669D02*
X0310091Y0233669D01*
X0311625Y0233669D02*
X0311625Y0238272D01*
X0310091Y0236738D02*
X0308556Y0238272D01*
X0308556Y0233669D01*
X0311625Y0235970D02*
X0314695Y0235970D01*
X0314695Y0233669D02*
X0314695Y0238272D01*
X0316229Y0238272D02*
X0319298Y0238272D01*
X0317764Y0238272D02*
X0317764Y0233669D01*
M02*
