G75*
%MOIN*%
%OFA0B0*%
%FSLAX25Y25*%
%IPPOS*%
%LPD*%
%AMOC8*
5,1,8,0,0,1.08239X$1,22.5*
%
%ADD10C,0.01100*%
%ADD11C,0.00500*%
%ADD12C,0.00400*%
D10*
X0169519Y0040602D02*
X0173455Y0040602D01*
X0169519Y0044539D01*
X0169519Y0045523D01*
X0170503Y0046507D01*
X0172471Y0046507D01*
X0173455Y0045523D01*
X0175694Y0041586D02*
X0175694Y0040602D01*
X0176678Y0040602D01*
X0176678Y0041586D01*
X0175694Y0041586D01*
X0179187Y0040602D02*
X0183124Y0040602D01*
X0181155Y0040602D02*
X0181155Y0046507D01*
X0183124Y0044539D01*
X0185362Y0041586D02*
X0185362Y0040602D01*
X0186346Y0040602D01*
X0186346Y0041586D01*
X0185362Y0041586D01*
X0188855Y0044539D02*
X0190823Y0040602D01*
X0192792Y0044539D01*
X0201746Y0040602D02*
X0205683Y0040602D01*
X0205683Y0046507D01*
X0208192Y0046507D02*
X0208192Y0040602D01*
X0208192Y0043554D02*
X0212128Y0043554D01*
X0212128Y0040602D02*
X0212128Y0046507D01*
X0214637Y0045523D02*
X0215621Y0046507D01*
X0217590Y0046507D01*
X0218574Y0045523D01*
X0218574Y0041586D01*
X0217590Y0040602D01*
X0215621Y0040602D01*
X0214637Y0041586D01*
X0214637Y0045523D01*
X0227528Y0046507D02*
X0227528Y0040602D01*
X0231465Y0046507D01*
X0231465Y0040602D01*
X0233974Y0040602D02*
X0235942Y0042570D01*
X0234958Y0042570D02*
X0237910Y0042570D01*
X0237910Y0040602D02*
X0237910Y0046507D01*
X0234958Y0046507D01*
X0233974Y0045523D01*
X0233974Y0043554D01*
X0234958Y0042570D01*
X0240419Y0040602D02*
X0244356Y0040602D01*
X0244356Y0046507D01*
X0240419Y0046507D01*
X0242387Y0043554D02*
X0244356Y0043554D01*
X0246865Y0041586D02*
X0247849Y0040602D01*
X0249817Y0040602D01*
X0250801Y0041586D01*
X0250801Y0045523D01*
X0249817Y0046507D01*
X0247849Y0046507D01*
X0246865Y0045523D01*
X0259666Y0044539D02*
X0260650Y0044539D01*
X0262618Y0042570D01*
X0262618Y0040602D02*
X0262618Y0044539D01*
X0265127Y0043554D02*
X0265127Y0042570D01*
X0269064Y0042570D01*
X0269064Y0041586D02*
X0269064Y0043554D01*
X0268079Y0044539D01*
X0266111Y0044539D01*
X0265127Y0043554D01*
X0266111Y0040602D02*
X0268079Y0040602D01*
X0269064Y0041586D01*
X0271572Y0040602D02*
X0271572Y0046507D01*
X0271572Y0044539D02*
X0274525Y0044539D01*
X0275509Y0043554D01*
X0275509Y0041586D01*
X0274525Y0040602D01*
X0271572Y0040602D01*
X0278018Y0040602D02*
X0278018Y0043554D01*
X0279002Y0044539D01*
X0281955Y0044539D01*
X0281955Y0040602D01*
X0284463Y0040602D02*
X0284463Y0044539D01*
X0288400Y0044539D02*
X0288400Y0041586D01*
X0287416Y0040602D01*
X0284463Y0040602D01*
X0297354Y0040602D02*
X0300307Y0040602D01*
X0301291Y0041586D01*
X0301291Y0043554D01*
X0300307Y0044539D01*
X0297354Y0044539D01*
X0297354Y0046507D02*
X0297354Y0040602D01*
X0303800Y0042570D02*
X0303800Y0043554D01*
X0304784Y0044539D01*
X0306752Y0044539D01*
X0307737Y0043554D01*
X0307737Y0041586D01*
X0306752Y0040602D01*
X0304784Y0040602D01*
X0303800Y0042570D02*
X0307737Y0042570D01*
X0310245Y0041586D02*
X0311229Y0042570D01*
X0313198Y0042570D01*
X0314182Y0043554D01*
X0313198Y0044539D01*
X0310245Y0044539D01*
X0310245Y0041586D02*
X0311229Y0040602D01*
X0314182Y0040602D01*
X0316691Y0040602D02*
X0316691Y0043554D01*
X0317675Y0044539D01*
X0320628Y0044539D01*
X0320628Y0040602D01*
X0323136Y0042570D02*
X0327073Y0042570D01*
X0327073Y0041586D02*
X0327073Y0043554D01*
X0326089Y0044539D01*
X0324120Y0044539D01*
X0323136Y0043554D01*
X0323136Y0042570D01*
X0324120Y0040602D02*
X0326089Y0040602D01*
X0327073Y0041586D01*
X0329582Y0040602D02*
X0332534Y0040602D01*
X0333519Y0041586D01*
X0333519Y0043554D01*
X0332534Y0044539D01*
X0329582Y0044539D01*
X0336831Y0044539D02*
X0336831Y0040602D01*
X0335847Y0040602D02*
X0337816Y0040602D01*
X0340324Y0040602D02*
X0344261Y0040602D01*
X0344261Y0046507D01*
X0337816Y0044539D02*
X0336831Y0044539D01*
X0336831Y0046507D02*
X0336831Y0047491D01*
X0353215Y0045523D02*
X0353215Y0044539D01*
X0354199Y0043554D01*
X0356168Y0043554D01*
X0357152Y0044539D01*
X0357152Y0045523D01*
X0356168Y0046507D01*
X0354199Y0046507D01*
X0353215Y0045523D01*
X0354199Y0043554D02*
X0353215Y0042570D01*
X0353215Y0041586D01*
X0354199Y0040602D01*
X0356168Y0040602D01*
X0357152Y0041586D01*
X0357152Y0042570D01*
X0356168Y0043554D01*
X0359661Y0040602D02*
X0363597Y0040602D01*
X0361629Y0040602D02*
X0361629Y0046507D01*
X0363597Y0044539D01*
X0366106Y0045523D02*
X0366106Y0041586D01*
X0367090Y0040602D01*
X0369059Y0040602D01*
X0370043Y0041586D01*
X0369059Y0043554D02*
X0366106Y0043554D01*
X0366106Y0045523D02*
X0367090Y0046507D01*
X0369059Y0046507D01*
X0370043Y0045523D01*
X0370043Y0044539D01*
X0369059Y0043554D01*
X0372552Y0041586D02*
X0373536Y0040602D01*
X0375504Y0040602D01*
X0376488Y0041586D01*
X0372552Y0045523D01*
X0372552Y0041586D01*
X0376488Y0041586D02*
X0376488Y0045523D01*
X0375504Y0046507D01*
X0373536Y0046507D01*
X0372552Y0045523D01*
X0378997Y0046507D02*
X0382934Y0046507D01*
X0382934Y0043554D01*
X0380966Y0044539D01*
X0379981Y0044539D01*
X0378997Y0043554D01*
X0378997Y0041586D01*
X0379981Y0040602D01*
X0381950Y0040602D01*
X0382934Y0041586D01*
X0385443Y0040602D02*
X0389379Y0040602D01*
X0387411Y0040602D02*
X0387411Y0046507D01*
X0389379Y0044539D01*
X0391888Y0045523D02*
X0395825Y0041586D01*
X0394841Y0040602D01*
X0392872Y0040602D01*
X0391888Y0041586D01*
X0391888Y0045523D01*
X0392872Y0046507D01*
X0394841Y0046507D01*
X0395825Y0045523D01*
X0395825Y0041586D01*
X0398334Y0040602D02*
X0402270Y0040602D01*
X0398334Y0044539D01*
X0398334Y0045523D01*
X0399318Y0046507D01*
X0401286Y0046507D01*
X0402270Y0045523D01*
X0051076Y0180613D02*
X0046155Y0180613D01*
X0045170Y0181597D01*
X0045170Y0183566D01*
X0046155Y0184550D01*
X0051076Y0184550D01*
X0049107Y0187058D02*
X0043202Y0187058D01*
X0045170Y0187058D02*
X0045170Y0190011D01*
X0046155Y0190995D01*
X0048123Y0190995D01*
X0049107Y0190011D01*
X0049107Y0187058D01*
X0049107Y0193504D02*
X0043202Y0193504D01*
X0045170Y0193504D02*
X0045170Y0196457D01*
X0046155Y0197441D01*
X0048123Y0197441D01*
X0049107Y0196457D01*
X0049107Y0193504D01*
X0048123Y0199949D02*
X0049107Y0200934D01*
X0049107Y0202902D01*
X0048123Y0203886D01*
X0047139Y0203886D01*
X0047139Y0199949D01*
X0046155Y0199949D02*
X0048123Y0199949D01*
X0046155Y0199949D02*
X0045170Y0200934D01*
X0045170Y0202902D01*
X0045170Y0206395D02*
X0049107Y0206395D01*
X0047139Y0206395D02*
X0049107Y0208363D01*
X0049107Y0209348D01*
X0048123Y0218212D02*
X0049107Y0219196D01*
X0049107Y0221164D01*
X0048123Y0222148D01*
X0045170Y0222148D01*
X0046155Y0224657D02*
X0048123Y0224657D01*
X0049107Y0225641D01*
X0049107Y0227610D01*
X0048123Y0228594D01*
X0047139Y0228594D01*
X0047139Y0224657D01*
X0046155Y0224657D02*
X0045170Y0225641D01*
X0045170Y0227610D01*
X0046155Y0231103D02*
X0047139Y0232087D01*
X0047139Y0235039D01*
X0048123Y0235039D02*
X0045170Y0235039D01*
X0045170Y0232087D01*
X0046155Y0231103D01*
X0049107Y0232087D02*
X0049107Y0234055D01*
X0048123Y0235039D01*
X0049107Y0237548D02*
X0049107Y0239517D01*
X0050091Y0238532D02*
X0046155Y0238532D01*
X0045170Y0239517D01*
X0046155Y0241845D02*
X0048123Y0241845D01*
X0049107Y0242829D01*
X0049107Y0244798D01*
X0048123Y0245782D01*
X0047139Y0245782D01*
X0047139Y0241845D01*
X0046155Y0241845D02*
X0045170Y0242829D01*
X0045170Y0244798D01*
X0045170Y0248291D02*
X0049107Y0248291D01*
X0049107Y0250259D02*
X0049107Y0251243D01*
X0049107Y0250259D02*
X0047139Y0248291D01*
X0046155Y0260107D02*
X0050091Y0264044D01*
X0046155Y0264044D01*
X0045170Y0263060D01*
X0045170Y0261092D01*
X0046155Y0260107D01*
X0050091Y0260107D01*
X0051076Y0261092D01*
X0051076Y0263060D01*
X0050091Y0264044D01*
X0050091Y0266553D02*
X0051076Y0267537D01*
X0051076Y0269505D01*
X0050091Y0270490D01*
X0046155Y0266553D01*
X0045170Y0267537D01*
X0045170Y0269505D01*
X0046155Y0270490D01*
X0050091Y0270490D01*
X0048123Y0272998D02*
X0048123Y0275951D01*
X0047139Y0276935D01*
X0046155Y0276935D01*
X0045170Y0275951D01*
X0045170Y0273983D01*
X0046155Y0272998D01*
X0048123Y0272998D01*
X0050091Y0274967D01*
X0051076Y0276935D01*
X0050091Y0266553D02*
X0046155Y0266553D01*
X0045170Y0218212D02*
X0051076Y0218212D01*
X0255768Y0409500D02*
X0255768Y0412452D01*
X0256752Y0413436D01*
X0257736Y0412452D01*
X0257736Y0409500D01*
X0259704Y0409500D02*
X0259704Y0413436D01*
X0258720Y0413436D01*
X0257736Y0412452D01*
X0262213Y0412452D02*
X0262213Y0409500D01*
X0265166Y0409500D01*
X0266150Y0410484D01*
X0265166Y0411468D01*
X0262213Y0411468D01*
X0262213Y0412452D02*
X0263197Y0413436D01*
X0265166Y0413436D01*
X0269463Y0413436D02*
X0269463Y0409500D01*
X0270447Y0409500D02*
X0268478Y0409500D01*
X0269463Y0413436D02*
X0270447Y0413436D01*
X0269463Y0415405D02*
X0269463Y0416389D01*
X0272865Y0413436D02*
X0273850Y0413436D01*
X0275818Y0411468D01*
X0275818Y0409500D02*
X0275818Y0413436D01*
X0279131Y0413436D02*
X0279131Y0409500D01*
X0280115Y0409500D02*
X0278147Y0409500D01*
X0279131Y0413436D02*
X0280115Y0413436D01*
X0279131Y0415405D02*
X0279131Y0416389D01*
X0282624Y0415405D02*
X0284592Y0413436D01*
X0286560Y0415405D01*
X0286560Y0409500D01*
X0282624Y0409500D02*
X0282624Y0415405D01*
D11*
X0306349Y0230043D02*
X0306743Y0230043D01*
X0306743Y0227287D01*
X0307136Y0226894D02*
X0307136Y0230043D01*
X0306743Y0230043D01*
X0307136Y0230043D02*
X0311861Y0230043D01*
X0312254Y0230043D01*
X0312254Y0226894D01*
X0311861Y0226894D01*
X0311861Y0230043D01*
X0312254Y0230043D02*
X0312648Y0230043D01*
X0312648Y0226894D01*
X0312254Y0226894D01*
X0311861Y0226894D02*
X0307136Y0226894D01*
X0306349Y0226894D01*
X0306349Y0230043D01*
D12*
X0307021Y0233669D02*
X0310091Y0233669D01*
X0311625Y0233669D02*
X0311625Y0238272D01*
X0310091Y0236738D02*
X0308556Y0238272D01*
X0308556Y0233669D01*
X0311625Y0235970D02*
X0314695Y0235970D01*
X0314695Y0233669D02*
X0314695Y0238272D01*
X0316229Y0238272D02*
X0319298Y0238272D01*
X0317764Y0238272D02*
X0317764Y0233669D01*
M02*
