G75*
%MOIN*%
%OFA0B0*%
%FSLAX25Y25*%
%IPPOS*%
%LPD*%
%AMOC8*
5,1,8,0,0,1.08239X$1,22.5*
%
%ADD10C,0.04000*%
%ADD11R,0.03543X0.05512*%
%ADD12R,0.01969X0.02559*%
%ADD13R,0.04724X0.01181*%
%ADD14R,0.11811X0.10630*%
%ADD15C,0.01600*%
%ADD16R,0.03962X0.03962*%
%ADD17C,0.01000*%
%ADD18C,0.03000*%
%ADD19C,0.01200*%
D10*
X0096107Y0075107D03*
X0096107Y0370383D03*
X0564611Y0075107D03*
D11*
X0500414Y0095631D03*
X0500414Y0105080D03*
X0466548Y0104753D03*
X0466548Y0095304D03*
X0431115Y0095304D03*
X0431115Y0104753D03*
X0395682Y0104753D03*
X0395682Y0095304D03*
X0360249Y0095304D03*
X0360249Y0104753D03*
X0360249Y0130737D03*
X0360249Y0140186D03*
X0395682Y0140186D03*
X0395682Y0130737D03*
X0431115Y0130737D03*
X0431115Y0140186D03*
X0431115Y0166170D03*
X0431115Y0175619D03*
X0395682Y0175619D03*
X0395682Y0166170D03*
X0360249Y0166170D03*
X0360249Y0175619D03*
X0360249Y0201603D03*
X0360249Y0211052D03*
X0395682Y0211052D03*
X0395682Y0201603D03*
X0431115Y0201603D03*
X0431115Y0211052D03*
X0431115Y0237036D03*
X0431115Y0246485D03*
X0395682Y0246485D03*
X0395682Y0237036D03*
X0360249Y0237036D03*
X0360249Y0246485D03*
X0360249Y0272469D03*
X0360249Y0281918D03*
X0395682Y0281918D03*
X0395682Y0272469D03*
X0431115Y0272469D03*
X0431115Y0281918D03*
X0431115Y0307902D03*
X0431115Y0317351D03*
X0395682Y0317351D03*
X0395682Y0307902D03*
X0360249Y0307902D03*
X0360249Y0317351D03*
X0360249Y0343335D03*
X0360249Y0352784D03*
X0395682Y0352784D03*
X0395682Y0343335D03*
X0431115Y0343335D03*
X0431115Y0352784D03*
X0466548Y0352784D03*
X0466548Y0343335D03*
X0501981Y0343335D03*
X0501981Y0352784D03*
X0501981Y0317351D03*
X0501981Y0307902D03*
X0466548Y0307902D03*
X0466548Y0317351D03*
X0466548Y0281918D03*
X0466548Y0272469D03*
X0501981Y0272469D03*
X0501981Y0281918D03*
X0501981Y0246485D03*
X0501981Y0237036D03*
X0466548Y0237036D03*
X0466548Y0246485D03*
X0466548Y0211052D03*
X0466548Y0201603D03*
X0501981Y0201603D03*
X0501981Y0211052D03*
X0501981Y0175619D03*
X0501981Y0166170D03*
X0466548Y0166170D03*
X0466548Y0175619D03*
X0466548Y0140186D03*
X0466548Y0130737D03*
X0501981Y0130737D03*
X0501981Y0140186D03*
X0324816Y0140186D03*
X0324816Y0130737D03*
X0289383Y0130737D03*
X0289383Y0140186D03*
X0253950Y0140186D03*
X0253950Y0130737D03*
X0253950Y0104753D03*
X0253950Y0095304D03*
X0289383Y0095304D03*
X0289383Y0104753D03*
X0324816Y0104753D03*
X0324816Y0095304D03*
X0324816Y0166170D03*
X0324816Y0175619D03*
X0289383Y0175619D03*
X0289383Y0166170D03*
X0253950Y0166170D03*
X0253950Y0175619D03*
X0253950Y0201603D03*
X0253950Y0211052D03*
X0289383Y0211052D03*
X0289383Y0201603D03*
X0324816Y0201603D03*
X0324816Y0211052D03*
X0324816Y0237036D03*
X0324816Y0246485D03*
X0289383Y0246485D03*
X0289383Y0237036D03*
X0253950Y0237036D03*
X0253950Y0246485D03*
X0253950Y0272469D03*
X0253950Y0281918D03*
X0289383Y0281918D03*
X0289383Y0272469D03*
X0324816Y0272469D03*
X0324816Y0281918D03*
X0324816Y0307902D03*
X0324816Y0317351D03*
X0289383Y0317351D03*
X0289383Y0307902D03*
X0253950Y0307902D03*
X0253950Y0317351D03*
X0253950Y0343335D03*
X0253950Y0352784D03*
X0289383Y0352784D03*
X0289383Y0343335D03*
X0324816Y0343335D03*
X0324816Y0352784D03*
X0218517Y0352784D03*
X0218517Y0343335D03*
X0183083Y0343335D03*
X0183083Y0352784D03*
X0147650Y0352784D03*
X0147650Y0343335D03*
X0147650Y0317351D03*
X0147650Y0307902D03*
X0183083Y0307902D03*
X0183083Y0317351D03*
X0218517Y0317351D03*
X0218517Y0307902D03*
X0218517Y0281918D03*
X0218517Y0272469D03*
X0183083Y0272469D03*
X0183083Y0281918D03*
X0147650Y0281918D03*
X0147650Y0272469D03*
X0147650Y0246485D03*
X0147650Y0237036D03*
X0183083Y0237036D03*
X0183083Y0246485D03*
X0218517Y0246485D03*
X0218517Y0237036D03*
X0218517Y0211052D03*
X0218517Y0201603D03*
X0183083Y0201603D03*
X0183083Y0211052D03*
X0147650Y0211052D03*
X0147650Y0201603D03*
X0147650Y0175619D03*
X0147650Y0166170D03*
X0183083Y0166170D03*
X0183083Y0175619D03*
X0218517Y0175619D03*
X0218517Y0166170D03*
X0218517Y0140186D03*
X0218517Y0130737D03*
X0183083Y0130737D03*
X0183083Y0140186D03*
X0147650Y0140186D03*
X0147650Y0130737D03*
X0147650Y0104753D03*
X0147650Y0095304D03*
X0183083Y0095304D03*
X0183083Y0104753D03*
X0218517Y0104753D03*
X0218517Y0095304D03*
X0112217Y0095304D03*
X0112217Y0104753D03*
X0112217Y0130737D03*
X0112217Y0140186D03*
X0112217Y0166170D03*
X0112217Y0175619D03*
X0112217Y0201603D03*
X0112217Y0211052D03*
X0112217Y0237036D03*
X0112217Y0246485D03*
X0112217Y0272469D03*
X0112217Y0281918D03*
X0112217Y0307902D03*
X0112217Y0317351D03*
X0112217Y0343335D03*
X0112217Y0352784D03*
D12*
X0307918Y0357489D03*
X0311068Y0357489D03*
X0314217Y0357489D03*
X0317367Y0357489D03*
X0317367Y0362804D03*
X0314217Y0362804D03*
X0311068Y0362804D03*
X0307918Y0362804D03*
X0307918Y0328158D03*
X0311068Y0328158D03*
X0314217Y0328158D03*
X0317367Y0328158D03*
X0317367Y0322843D03*
X0314217Y0322843D03*
X0311068Y0322843D03*
X0307918Y0322843D03*
X0307918Y0291938D03*
X0311068Y0291938D03*
X0314217Y0291938D03*
X0317367Y0291938D03*
X0317367Y0286623D03*
X0314217Y0286623D03*
X0311068Y0286623D03*
X0307918Y0286623D03*
X0307918Y0256898D03*
X0311068Y0256898D03*
X0314217Y0256898D03*
X0317367Y0256898D03*
X0317367Y0251583D03*
X0314217Y0251583D03*
X0311068Y0251583D03*
X0307918Y0251583D03*
X0307918Y0222253D03*
X0311068Y0222253D03*
X0314217Y0222253D03*
X0317367Y0222253D03*
X0317367Y0216938D03*
X0314217Y0216938D03*
X0311068Y0216938D03*
X0307918Y0216938D03*
X0307918Y0185639D03*
X0311068Y0185639D03*
X0314217Y0185639D03*
X0317367Y0185639D03*
X0317367Y0180324D03*
X0314217Y0180324D03*
X0311068Y0180324D03*
X0307918Y0180324D03*
X0307918Y0150599D03*
X0311068Y0150599D03*
X0314217Y0150599D03*
X0317367Y0150599D03*
X0317367Y0145284D03*
X0314217Y0145284D03*
X0311068Y0145284D03*
X0307918Y0145284D03*
X0307918Y0114772D03*
X0311068Y0114772D03*
X0314217Y0114772D03*
X0317367Y0114772D03*
X0317367Y0109457D03*
X0314217Y0109457D03*
X0311068Y0109457D03*
X0307918Y0109457D03*
D13*
X0574414Y0326879D03*
X0574414Y0328847D03*
X0574414Y0330816D03*
X0574414Y0332784D03*
X0574414Y0334753D03*
X0574414Y0336721D03*
D14*
X0581894Y0344320D03*
X0581894Y0319280D03*
D15*
X0055745Y0049599D02*
X0056277Y0047269D01*
X0056897Y0048765D01*
X0059457Y0051325D01*
X0062801Y0052710D01*
X0066421Y0052710D01*
X0069765Y0051325D01*
X0072325Y0048765D01*
X0073710Y0045421D01*
X0073710Y0041801D01*
X0072325Y0038457D01*
X0069765Y0035897D01*
X0068269Y0035277D01*
X0070599Y0034745D01*
X0072485Y0034639D01*
X0595162Y0034639D01*
X0597048Y0034745D01*
X0599379Y0035277D01*
X0597882Y0035897D01*
X0595322Y0038457D01*
X0593937Y0041801D01*
X0593937Y0045421D01*
X0595322Y0048765D01*
X0597882Y0051325D01*
X0601226Y0052710D01*
X0604846Y0052710D01*
X0608191Y0051325D01*
X0610750Y0048765D01*
X0611370Y0047269D01*
X0611902Y0049599D01*
X0612008Y0051485D01*
X0612008Y0395894D01*
X0611902Y0397781D01*
X0611370Y0400111D01*
X0610750Y0398614D01*
X0608191Y0396055D01*
X0604846Y0394669D01*
X0601226Y0394669D01*
X0597882Y0396055D01*
X0595322Y0398614D01*
X0593937Y0401959D01*
X0593937Y0405578D01*
X0595322Y0408923D01*
X0597882Y0411482D01*
X0599379Y0412102D01*
X0597048Y0412634D01*
X0597048Y0412634D01*
X0595162Y0412740D01*
X0072485Y0412740D01*
X0070599Y0412634D01*
X0068269Y0412102D01*
X0069765Y0411482D01*
X0072325Y0408923D01*
X0073710Y0405578D01*
X0073710Y0401959D01*
X0072325Y0398614D01*
X0069765Y0396055D01*
X0066421Y0394669D01*
X0062801Y0394669D01*
X0059457Y0396055D01*
X0056897Y0398614D01*
X0056277Y0400111D01*
X0055745Y0397781D01*
X0055639Y0395894D01*
X0055639Y0051485D01*
X0055745Y0049599D01*
X0055794Y0049384D02*
X0057515Y0049384D01*
X0056491Y0047785D02*
X0056159Y0047785D01*
X0055668Y0050982D02*
X0059114Y0050982D01*
X0062488Y0052581D02*
X0055639Y0052581D01*
X0055639Y0054179D02*
X0612008Y0054179D01*
X0612008Y0052581D02*
X0605159Y0052581D01*
X0608533Y0050982D02*
X0611980Y0050982D01*
X0611853Y0049384D02*
X0610132Y0049384D01*
X0611156Y0047785D02*
X0611488Y0047785D01*
X0600913Y0052581D02*
X0066734Y0052581D01*
X0070108Y0050982D02*
X0597539Y0050982D01*
X0595941Y0049384D02*
X0071707Y0049384D01*
X0072731Y0047785D02*
X0594916Y0047785D01*
X0594254Y0046187D02*
X0073393Y0046187D01*
X0073710Y0044588D02*
X0593937Y0044588D01*
X0593937Y0042990D02*
X0073710Y0042990D01*
X0073540Y0041391D02*
X0594107Y0041391D01*
X0594769Y0039793D02*
X0072878Y0039793D01*
X0072062Y0038194D02*
X0595585Y0038194D01*
X0597183Y0036596D02*
X0070464Y0036596D01*
X0069496Y0034997D02*
X0598151Y0034997D01*
X0612008Y0055778D02*
X0055639Y0055778D01*
X0055639Y0057376D02*
X0612008Y0057376D01*
X0612008Y0058975D02*
X0055639Y0058975D01*
X0055639Y0060573D02*
X0612008Y0060573D01*
X0612008Y0062172D02*
X0055639Y0062172D01*
X0055639Y0063770D02*
X0612008Y0063770D01*
X0612008Y0065369D02*
X0055639Y0065369D01*
X0055639Y0066967D02*
X0612008Y0066967D01*
X0612008Y0068566D02*
X0566657Y0068566D01*
X0566159Y0068326D02*
X0568948Y0069669D01*
X0570878Y0072089D01*
X0570878Y0072089D01*
X0571567Y0075107D01*
X0570878Y0078125D01*
X0568948Y0080545D01*
X0568948Y0080545D01*
X0566159Y0081888D01*
X0563063Y0081888D01*
X0560274Y0080545D01*
X0558344Y0078125D01*
X0557656Y0075107D01*
X0558344Y0072089D01*
X0560274Y0069669D01*
X0560274Y0069669D01*
X0563063Y0068326D01*
X0566159Y0068326D01*
X0568948Y0069669D02*
X0568948Y0069669D01*
X0568948Y0069669D01*
X0569343Y0070164D02*
X0612008Y0070164D01*
X0612008Y0071763D02*
X0570617Y0071763D01*
X0571168Y0073361D02*
X0612008Y0073361D01*
X0612008Y0074960D02*
X0571533Y0074960D01*
X0571235Y0076558D02*
X0612008Y0076558D01*
X0612008Y0078157D02*
X0570852Y0078157D01*
X0570878Y0078125D02*
X0570878Y0078125D01*
X0569578Y0079755D02*
X0612008Y0079755D01*
X0612008Y0081354D02*
X0567268Y0081354D01*
X0561954Y0081354D02*
X0098764Y0081354D01*
X0097655Y0081888D02*
X0094559Y0081888D01*
X0091770Y0080545D01*
X0089840Y0078125D01*
X0089152Y0075107D01*
X0089840Y0072089D01*
X0091770Y0069669D01*
X0091770Y0069669D01*
X0094559Y0068326D01*
X0097655Y0068326D01*
X0100444Y0069669D01*
X0102374Y0072089D01*
X0102374Y0072089D01*
X0103063Y0075107D01*
X0102374Y0078125D01*
X0100444Y0080545D01*
X0100444Y0080545D01*
X0097655Y0081888D01*
X0101074Y0079755D02*
X0559645Y0079755D01*
X0560274Y0080545D02*
X0560274Y0080545D01*
X0560274Y0080545D01*
X0558370Y0078157D02*
X0102348Y0078157D01*
X0102374Y0078125D02*
X0102374Y0078125D01*
X0102731Y0076558D02*
X0557987Y0076558D01*
X0557656Y0075107D02*
X0557656Y0075107D01*
X0557689Y0074960D02*
X0103029Y0074960D01*
X0102664Y0073361D02*
X0558054Y0073361D01*
X0558344Y0072089D02*
X0558344Y0072089D01*
X0558605Y0071763D02*
X0102113Y0071763D01*
X0100839Y0070164D02*
X0559879Y0070164D01*
X0562565Y0068566D02*
X0098153Y0068566D01*
X0100444Y0069669D02*
X0100444Y0069669D01*
X0100444Y0069669D01*
X0094061Y0068566D02*
X0055639Y0068566D01*
X0055639Y0070164D02*
X0091375Y0070164D01*
X0090101Y0071763D02*
X0055639Y0071763D01*
X0055639Y0073361D02*
X0089550Y0073361D01*
X0089840Y0072089D02*
X0089840Y0072089D01*
X0089185Y0074960D02*
X0055639Y0074960D01*
X0055639Y0076558D02*
X0089483Y0076558D01*
X0089152Y0075107D02*
X0089152Y0075107D01*
X0089840Y0078125D02*
X0089840Y0078125D01*
X0089866Y0078157D02*
X0055639Y0078157D01*
X0055639Y0079755D02*
X0091141Y0079755D01*
X0091770Y0080545D02*
X0091770Y0080545D01*
X0091770Y0080545D01*
X0093450Y0081354D02*
X0055639Y0081354D01*
X0055639Y0082952D02*
X0106469Y0082952D01*
X0106691Y0082731D02*
X0108124Y0082137D01*
X0422276Y0082137D01*
X0423709Y0082731D01*
X0428009Y0087031D01*
X0429106Y0088128D01*
X0429700Y0089561D01*
X0429700Y0091048D01*
X0433508Y0091048D01*
X0434387Y0091927D01*
X0434387Y0095666D01*
X0438898Y0101165D01*
X0438898Y0097864D01*
X0440283Y0094520D01*
X0442843Y0091960D01*
X0446187Y0090575D01*
X0449807Y0090575D01*
X0453151Y0091960D01*
X0455711Y0094520D01*
X0457096Y0097864D01*
X0457096Y0101484D01*
X0455711Y0104828D01*
X0453177Y0107362D01*
X0463276Y0103533D01*
X0463276Y0101376D01*
X0464155Y0100497D01*
X0468522Y0100497D01*
X0467647Y0099560D01*
X0464155Y0099560D01*
X0463276Y0098681D01*
X0463276Y0091927D01*
X0464155Y0091048D01*
X0468941Y0091048D01*
X0469820Y0091927D01*
X0469820Y0095732D01*
X0474331Y0100566D01*
X0474331Y0097864D01*
X0475716Y0094520D01*
X0478276Y0091960D01*
X0481620Y0090575D01*
X0485240Y0090575D01*
X0488584Y0091960D01*
X0491144Y0094520D01*
X0492529Y0097864D01*
X0492529Y0101484D01*
X0491144Y0104828D01*
X0490132Y0105840D01*
X0497143Y0103832D01*
X0497143Y0101702D01*
X0498021Y0100824D01*
X0502779Y0100824D01*
X0501842Y0099887D01*
X0498021Y0099887D01*
X0497143Y0099008D01*
X0497143Y0092253D01*
X0498021Y0091375D01*
X0502807Y0091375D01*
X0503686Y0092253D01*
X0503686Y0096074D01*
X0510236Y0102624D01*
X0509764Y0101484D01*
X0509764Y0097864D01*
X0511149Y0094520D01*
X0513709Y0091960D01*
X0517053Y0090575D01*
X0520673Y0090575D01*
X0524017Y0091960D01*
X0526577Y0094520D01*
X0527962Y0097864D01*
X0527962Y0101484D01*
X0526577Y0104828D01*
X0524017Y0107388D01*
X0520673Y0108773D01*
X0517053Y0108773D01*
X0513709Y0107388D01*
X0512400Y0106079D01*
X0512400Y0111065D01*
X0511228Y0112237D01*
X0506228Y0117237D01*
X0527976Y0117237D01*
X0529409Y0117831D01*
X0530506Y0118928D01*
X0538506Y0126928D01*
X0539100Y0128361D01*
X0539100Y0150713D01*
X0538506Y0152146D01*
X0537409Y0153243D01*
X0528909Y0161743D01*
X0527476Y0162337D01*
X0522836Y0162337D01*
X0524017Y0162826D01*
X0526577Y0165386D01*
X0527962Y0168730D01*
X0527962Y0172350D01*
X0526577Y0175694D01*
X0524017Y0178254D01*
X0520673Y0179639D01*
X0517053Y0179639D01*
X0513709Y0178254D01*
X0513600Y0178145D01*
X0513600Y0182565D01*
X0512428Y0183737D01*
X0506728Y0189437D01*
X0526776Y0189437D01*
X0528209Y0190031D01*
X0529306Y0191128D01*
X0537806Y0199628D01*
X0538400Y0201061D01*
X0538400Y0222013D01*
X0537806Y0223446D01*
X0536709Y0224543D01*
X0528209Y0233043D01*
X0526776Y0233637D01*
X0523884Y0233637D01*
X0524017Y0233692D01*
X0526577Y0236252D01*
X0527962Y0239596D01*
X0527962Y0243216D01*
X0526577Y0246561D01*
X0524017Y0249120D01*
X0520673Y0250505D01*
X0517053Y0250505D01*
X0515000Y0249655D01*
X0515000Y0254465D01*
X0513828Y0255637D01*
X0509428Y0260037D01*
X0527976Y0260037D01*
X0529409Y0260631D01*
X0530506Y0261728D01*
X0538706Y0269928D01*
X0539300Y0271361D01*
X0539300Y0287613D01*
X0538706Y0289046D01*
X0537609Y0290143D01*
X0525409Y0302343D01*
X0523976Y0302937D01*
X0422216Y0302937D01*
X0427843Y0308564D01*
X0427843Y0304525D01*
X0428722Y0303646D01*
X0433508Y0303646D01*
X0434387Y0304525D01*
X0434387Y0308012D01*
X0438898Y0312775D01*
X0438898Y0310462D01*
X0440283Y0307118D01*
X0442843Y0304559D01*
X0446187Y0303173D01*
X0449807Y0303173D01*
X0453151Y0304559D01*
X0455711Y0307118D01*
X0457096Y0310462D01*
X0457096Y0314082D01*
X0455711Y0317427D01*
X0454838Y0318300D01*
X0463276Y0315893D01*
X0463276Y0313974D01*
X0464155Y0313095D01*
X0468016Y0313095D01*
X0467266Y0312158D01*
X0464155Y0312158D01*
X0463276Y0311280D01*
X0463276Y0304525D01*
X0464155Y0303646D01*
X0468941Y0303646D01*
X0469820Y0304525D01*
X0469820Y0308628D01*
X0474485Y0314454D01*
X0474331Y0314082D01*
X0474331Y0310462D01*
X0475716Y0307118D01*
X0478276Y0304559D01*
X0481620Y0303173D01*
X0485240Y0303173D01*
X0488584Y0304559D01*
X0491144Y0307118D01*
X0492529Y0310462D01*
X0492529Y0314082D01*
X0491144Y0317427D01*
X0489678Y0318893D01*
X0498709Y0316150D01*
X0498709Y0313974D01*
X0499588Y0313095D01*
X0504346Y0313095D01*
X0503409Y0312158D01*
X0499588Y0312158D01*
X0498709Y0311280D01*
X0498709Y0304525D01*
X0499588Y0303646D01*
X0504374Y0303646D01*
X0505253Y0304525D01*
X0505253Y0308346D01*
X0509764Y0312857D01*
X0509764Y0310462D01*
X0511149Y0307118D01*
X0513709Y0304559D01*
X0517053Y0303173D01*
X0520673Y0303173D01*
X0524017Y0304559D01*
X0526577Y0307118D01*
X0527962Y0310462D01*
X0527962Y0314082D01*
X0526577Y0317427D01*
X0524017Y0319986D01*
X0520673Y0321372D01*
X0517053Y0321372D01*
X0516200Y0321018D01*
X0516200Y0325965D01*
X0515028Y0327137D01*
X0510628Y0331537D01*
X0558662Y0331537D01*
X0559058Y0331142D01*
X0563810Y0326389D01*
X0564876Y0325947D01*
X0570280Y0325947D01*
X0570375Y0325593D01*
X0570612Y0325183D01*
X0570947Y0324848D01*
X0571357Y0324611D01*
X0571815Y0324488D01*
X0574414Y0324488D01*
X0574414Y0325857D01*
X0574414Y0325857D01*
X0574414Y0324488D01*
X0574489Y0324488D01*
X0574489Y0313344D01*
X0575368Y0312465D01*
X0588421Y0312465D01*
X0589300Y0313344D01*
X0589300Y0325217D01*
X0588421Y0326095D01*
X0578576Y0326095D01*
X0578576Y0326663D01*
X0578811Y0326897D01*
X0579176Y0327779D01*
X0579176Y0329915D01*
X0578811Y0330797D01*
X0578793Y0330816D01*
X0578811Y0330834D01*
X0579176Y0331716D01*
X0579176Y0333852D01*
X0578811Y0334734D01*
X0578793Y0334753D01*
X0578811Y0334771D01*
X0579176Y0335653D01*
X0579176Y0337505D01*
X0588421Y0337505D01*
X0589300Y0338383D01*
X0589300Y0350256D01*
X0588421Y0351135D01*
X0575368Y0351135D01*
X0574489Y0350256D01*
X0574489Y0339712D01*
X0571575Y0339712D01*
X0571356Y0339621D01*
X0559571Y0339621D01*
X0558885Y0339337D01*
X0522437Y0339337D01*
X0524017Y0339992D01*
X0526577Y0342551D01*
X0527962Y0345896D01*
X0527962Y0349515D01*
X0526577Y0352860D01*
X0524017Y0355419D01*
X0520673Y0356805D01*
X0517053Y0356805D01*
X0515000Y0355954D01*
X0515000Y0358565D01*
X0513828Y0359737D01*
X0506243Y0367322D01*
X0313389Y0367322D01*
X0312618Y0366551D01*
X0311896Y0367272D01*
X0205457Y0367272D01*
X0204285Y0366100D01*
X0192035Y0353851D01*
X0184901Y0347591D01*
X0180690Y0347591D01*
X0179812Y0346713D01*
X0179812Y0339958D01*
X0180433Y0339337D01*
X0168106Y0339337D01*
X0169687Y0339992D01*
X0172246Y0342551D01*
X0173631Y0345896D01*
X0173631Y0349515D01*
X0172246Y0352860D01*
X0169687Y0355419D01*
X0166342Y0356805D01*
X0162722Y0356805D01*
X0161951Y0356485D01*
X0162331Y0356865D01*
X0166669Y0356865D01*
X0179812Y0351795D01*
X0179812Y0349407D01*
X0180690Y0348528D01*
X0185476Y0348528D01*
X0186355Y0349407D01*
X0186355Y0356161D01*
X0185476Y0357040D01*
X0180690Y0357040D01*
X0179910Y0356259D01*
X0168230Y0360765D01*
X0167930Y0361065D01*
X0167451Y0361065D01*
X0167004Y0361238D01*
X0166615Y0361065D01*
X0160592Y0361065D01*
X0159361Y0359835D01*
X0153922Y0354396D01*
X0153789Y0354381D01*
X0153319Y0353793D01*
X0152787Y0353260D01*
X0152787Y0353127D01*
X0150922Y0350793D01*
X0150922Y0356161D01*
X0150043Y0357040D01*
X0145257Y0357040D01*
X0144631Y0356414D01*
X0132909Y0360936D01*
X0132579Y0361265D01*
X0132055Y0361265D01*
X0131566Y0361454D01*
X0131140Y0361265D01*
X0125076Y0361265D01*
X0123728Y0359918D01*
X0118397Y0354587D01*
X0118252Y0354571D01*
X0117737Y0353926D01*
X0117154Y0353343D01*
X0117154Y0353197D01*
X0116389Y0352240D01*
X0116389Y0356018D01*
X0116024Y0356900D01*
X0115348Y0357575D01*
X0114466Y0357940D01*
X0109968Y0357940D01*
X0109086Y0357575D01*
X0108411Y0356900D01*
X0108046Y0356018D01*
X0108046Y0355898D01*
X0102891Y0350743D01*
X0101794Y0349646D01*
X0101200Y0348213D01*
X0101200Y0338661D01*
X0101794Y0337228D01*
X0104335Y0334687D01*
X0097491Y0327843D01*
X0096394Y0326746D01*
X0095800Y0325313D01*
X0095800Y0293660D01*
X0096394Y0292226D01*
X0097491Y0291129D01*
X0108046Y0280574D01*
X0108046Y0278685D01*
X0108411Y0277803D01*
X0109086Y0277128D01*
X0109968Y0276762D01*
X0112486Y0276762D01*
X0112460Y0276725D01*
X0109824Y0276725D01*
X0108946Y0275847D01*
X0108946Y0269092D01*
X0109824Y0268213D01*
X0114610Y0268213D01*
X0115489Y0269092D01*
X0115489Y0273066D01*
X0120625Y0280158D01*
X0120000Y0278649D01*
X0120000Y0275029D01*
X0121385Y0271685D01*
X0123945Y0269125D01*
X0127055Y0267837D01*
X0109124Y0267837D01*
X0107691Y0267243D01*
X0098191Y0257743D01*
X0097094Y0256646D01*
X0096500Y0255213D01*
X0096500Y0222061D01*
X0097094Y0220628D01*
X0108046Y0209676D01*
X0108046Y0207819D01*
X0108411Y0206937D01*
X0109086Y0206261D01*
X0109968Y0205896D01*
X0112486Y0205896D01*
X0112460Y0205859D01*
X0109824Y0205859D01*
X0108946Y0204980D01*
X0108946Y0198226D01*
X0109824Y0197347D01*
X0114610Y0197347D01*
X0115489Y0198226D01*
X0115489Y0202200D01*
X0120625Y0209292D01*
X0120000Y0207783D01*
X0120000Y0204163D01*
X0121385Y0200819D01*
X0123945Y0198259D01*
X0126413Y0197237D01*
X0109324Y0197237D01*
X0107891Y0196643D01*
X0098891Y0187643D01*
X0097794Y0186546D01*
X0097200Y0185113D01*
X0097200Y0152261D01*
X0097794Y0150828D01*
X0098891Y0149731D01*
X0108046Y0140576D01*
X0108046Y0136953D01*
X0108411Y0136070D01*
X0109086Y0135395D01*
X0109968Y0135030D01*
X0112363Y0135030D01*
X0112337Y0134993D01*
X0109824Y0134993D01*
X0108946Y0134114D01*
X0108946Y0127360D01*
X0109824Y0126481D01*
X0114610Y0126481D01*
X0115489Y0127360D01*
X0115489Y0131451D01*
X0120445Y0138712D01*
X0120955Y0139222D01*
X0120000Y0136917D01*
X0120000Y0133297D01*
X0121385Y0129953D01*
X0123945Y0127393D01*
X0127289Y0126008D01*
X0130909Y0126008D01*
X0134253Y0127393D01*
X0136813Y0129953D01*
X0138198Y0133297D01*
X0138198Y0136917D01*
X0136813Y0140261D01*
X0134590Y0142485D01*
X0144379Y0138928D01*
X0144379Y0136809D01*
X0145257Y0135930D01*
X0149464Y0135930D01*
X0148629Y0134993D01*
X0145257Y0134993D01*
X0144379Y0134114D01*
X0144379Y0127360D01*
X0145257Y0126481D01*
X0150043Y0126481D01*
X0150922Y0127360D01*
X0150922Y0131253D01*
X0155433Y0136316D01*
X0155433Y0133297D01*
X0156818Y0129953D01*
X0159378Y0127393D01*
X0162722Y0126008D01*
X0166342Y0126008D01*
X0169687Y0127393D01*
X0172246Y0129953D01*
X0173631Y0133297D01*
X0173631Y0136917D01*
X0172246Y0140261D01*
X0170363Y0142145D01*
X0179812Y0139048D01*
X0179812Y0136809D01*
X0180690Y0135930D01*
X0184887Y0135930D01*
X0184087Y0134993D01*
X0180690Y0134993D01*
X0179812Y0134114D01*
X0179812Y0127360D01*
X0180690Y0126481D01*
X0185476Y0126481D01*
X0186355Y0127360D01*
X0186355Y0131489D01*
X0190866Y0136774D01*
X0190866Y0133297D01*
X0192251Y0129953D01*
X0194811Y0127393D01*
X0198155Y0126008D01*
X0201775Y0126008D01*
X0205120Y0127393D01*
X0207300Y0129574D01*
X0207300Y0128861D01*
X0207894Y0127428D01*
X0210285Y0125037D01*
X0109824Y0125037D01*
X0108391Y0124443D01*
X0098191Y0114243D01*
X0097094Y0113146D01*
X0096500Y0111713D01*
X0096500Y0093761D01*
X0097094Y0092328D01*
X0106691Y0082731D01*
X0104871Y0084551D02*
X0055639Y0084551D01*
X0055639Y0086149D02*
X0103272Y0086149D01*
X0101674Y0087748D02*
X0055639Y0087748D01*
X0055639Y0089346D02*
X0100075Y0089346D01*
X0098477Y0090945D02*
X0055639Y0090945D01*
X0055639Y0092543D02*
X0097004Y0092543D01*
X0096500Y0094142D02*
X0055639Y0094142D01*
X0055639Y0095740D02*
X0096500Y0095740D01*
X0096500Y0097339D02*
X0055639Y0097339D01*
X0055639Y0098937D02*
X0096500Y0098937D01*
X0096500Y0100536D02*
X0055639Y0100536D01*
X0055639Y0102134D02*
X0096500Y0102134D01*
X0096500Y0103733D02*
X0055639Y0103733D01*
X0055639Y0105332D02*
X0096500Y0105332D01*
X0096500Y0106930D02*
X0055639Y0106930D01*
X0055639Y0108529D02*
X0096500Y0108529D01*
X0096500Y0110127D02*
X0055639Y0110127D01*
X0055639Y0111726D02*
X0096505Y0111726D01*
X0097272Y0113324D02*
X0055639Y0113324D01*
X0055639Y0114923D02*
X0098870Y0114923D01*
X0100469Y0116521D02*
X0055639Y0116521D01*
X0055639Y0118120D02*
X0102067Y0118120D01*
X0103666Y0119718D02*
X0055639Y0119718D01*
X0055639Y0121317D02*
X0105264Y0121317D01*
X0106863Y0122915D02*
X0055639Y0122915D01*
X0055639Y0124514D02*
X0108561Y0124514D01*
X0108946Y0127711D02*
X0055639Y0127711D01*
X0055639Y0129309D02*
X0108946Y0129309D01*
X0108946Y0130908D02*
X0055639Y0130908D01*
X0055639Y0132506D02*
X0108946Y0132506D01*
X0108946Y0134105D02*
X0055639Y0134105D01*
X0055639Y0135703D02*
X0108778Y0135703D01*
X0108046Y0137302D02*
X0055639Y0137302D01*
X0055639Y0138900D02*
X0108046Y0138900D01*
X0108046Y0140499D02*
X0055639Y0140499D01*
X0055639Y0142097D02*
X0106524Y0142097D01*
X0104926Y0143696D02*
X0055639Y0143696D01*
X0055639Y0145294D02*
X0103327Y0145294D01*
X0101729Y0146893D02*
X0055639Y0146893D01*
X0055639Y0148491D02*
X0100130Y0148491D01*
X0098532Y0150090D02*
X0055639Y0150090D01*
X0055639Y0151688D02*
X0097437Y0151688D01*
X0097200Y0153287D02*
X0055639Y0153287D01*
X0055639Y0154885D02*
X0097200Y0154885D01*
X0097200Y0156484D02*
X0055639Y0156484D01*
X0055639Y0158082D02*
X0097200Y0158082D01*
X0097200Y0159681D02*
X0055639Y0159681D01*
X0055639Y0161279D02*
X0097200Y0161279D01*
X0097200Y0162878D02*
X0055639Y0162878D01*
X0055639Y0164476D02*
X0097200Y0164476D01*
X0097200Y0166075D02*
X0055639Y0166075D01*
X0055639Y0167673D02*
X0097200Y0167673D01*
X0097200Y0169272D02*
X0055639Y0169272D01*
X0055639Y0170870D02*
X0097200Y0170870D01*
X0097200Y0172469D02*
X0055639Y0172469D01*
X0055639Y0174068D02*
X0097200Y0174068D01*
X0097200Y0175666D02*
X0055639Y0175666D01*
X0055639Y0177265D02*
X0097200Y0177265D01*
X0097200Y0178863D02*
X0055639Y0178863D01*
X0055639Y0180462D02*
X0097200Y0180462D01*
X0097200Y0182060D02*
X0055639Y0182060D01*
X0055639Y0183659D02*
X0097200Y0183659D01*
X0097260Y0185257D02*
X0055639Y0185257D01*
X0055639Y0186856D02*
X0098103Y0186856D01*
X0099702Y0188454D02*
X0055639Y0188454D01*
X0055639Y0190053D02*
X0101300Y0190053D01*
X0102899Y0191651D02*
X0055639Y0191651D01*
X0055639Y0193250D02*
X0104497Y0193250D01*
X0106096Y0194848D02*
X0055639Y0194848D01*
X0055639Y0196447D02*
X0107694Y0196447D01*
X0109126Y0198045D02*
X0055639Y0198045D01*
X0055639Y0199644D02*
X0108946Y0199644D01*
X0108946Y0201242D02*
X0055639Y0201242D01*
X0055639Y0202841D02*
X0108946Y0202841D01*
X0108946Y0204439D02*
X0055639Y0204439D01*
X0055639Y0206038D02*
X0109626Y0206038D01*
X0108121Y0207636D02*
X0055639Y0207636D01*
X0055639Y0209235D02*
X0108046Y0209235D01*
X0106888Y0210833D02*
X0055639Y0210833D01*
X0055639Y0212432D02*
X0105290Y0212432D01*
X0103691Y0214030D02*
X0055639Y0214030D01*
X0055639Y0215629D02*
X0102093Y0215629D01*
X0100494Y0217227D02*
X0055639Y0217227D01*
X0055639Y0218826D02*
X0098896Y0218826D01*
X0097297Y0220424D02*
X0055639Y0220424D01*
X0055639Y0222023D02*
X0096516Y0222023D01*
X0096500Y0223621D02*
X0055639Y0223621D01*
X0055639Y0225220D02*
X0096500Y0225220D01*
X0096500Y0226818D02*
X0055639Y0226818D01*
X0055639Y0228417D02*
X0096500Y0228417D01*
X0096500Y0230015D02*
X0055639Y0230015D01*
X0055639Y0231614D02*
X0096500Y0231614D01*
X0096500Y0233212D02*
X0055639Y0233212D01*
X0055639Y0234811D02*
X0096500Y0234811D01*
X0096500Y0236409D02*
X0055639Y0236409D01*
X0055639Y0238008D02*
X0096500Y0238008D01*
X0096500Y0239606D02*
X0055639Y0239606D01*
X0055639Y0241205D02*
X0096500Y0241205D01*
X0096500Y0242803D02*
X0055639Y0242803D01*
X0055639Y0244402D02*
X0096500Y0244402D01*
X0096500Y0246001D02*
X0055639Y0246001D01*
X0055639Y0247599D02*
X0096500Y0247599D01*
X0096500Y0249198D02*
X0055639Y0249198D01*
X0055639Y0250796D02*
X0096500Y0250796D01*
X0096500Y0252395D02*
X0055639Y0252395D01*
X0055639Y0253993D02*
X0096500Y0253993D01*
X0096657Y0255592D02*
X0055639Y0255592D01*
X0055639Y0257190D02*
X0097638Y0257190D01*
X0099236Y0258789D02*
X0055639Y0258789D01*
X0055639Y0260387D02*
X0100835Y0260387D01*
X0102433Y0261986D02*
X0055639Y0261986D01*
X0055639Y0263584D02*
X0104032Y0263584D01*
X0105630Y0265183D02*
X0055639Y0265183D01*
X0055639Y0266781D02*
X0107229Y0266781D01*
X0109658Y0268380D02*
X0055639Y0268380D01*
X0055639Y0269978D02*
X0108946Y0269978D01*
X0108946Y0271577D02*
X0055639Y0271577D01*
X0055639Y0273175D02*
X0108946Y0273175D01*
X0108946Y0274774D02*
X0055639Y0274774D01*
X0055639Y0276372D02*
X0109471Y0276372D01*
X0108341Y0277971D02*
X0055639Y0277971D01*
X0055639Y0279569D02*
X0108046Y0279569D01*
X0107452Y0281168D02*
X0055639Y0281168D01*
X0055639Y0282766D02*
X0105854Y0282766D01*
X0104255Y0284365D02*
X0055639Y0284365D01*
X0055639Y0285963D02*
X0102657Y0285963D01*
X0101058Y0287562D02*
X0055639Y0287562D01*
X0055639Y0289160D02*
X0099460Y0289160D01*
X0097861Y0290759D02*
X0055639Y0290759D01*
X0055639Y0292357D02*
X0096339Y0292357D01*
X0095800Y0293956D02*
X0055639Y0293956D01*
X0055639Y0295554D02*
X0095800Y0295554D01*
X0095800Y0297153D02*
X0055639Y0297153D01*
X0055639Y0298751D02*
X0095800Y0298751D01*
X0095800Y0300350D02*
X0055639Y0300350D01*
X0055639Y0301948D02*
X0095800Y0301948D01*
X0095800Y0303547D02*
X0055639Y0303547D01*
X0055639Y0305145D02*
X0095800Y0305145D01*
X0095800Y0306744D02*
X0055639Y0306744D01*
X0055639Y0308342D02*
X0095800Y0308342D01*
X0095800Y0309941D02*
X0055639Y0309941D01*
X0055639Y0311539D02*
X0095800Y0311539D01*
X0095800Y0313138D02*
X0055639Y0313138D01*
X0055639Y0314737D02*
X0095800Y0314737D01*
X0095800Y0316335D02*
X0055639Y0316335D01*
X0055639Y0317934D02*
X0095800Y0317934D01*
X0095800Y0319532D02*
X0055639Y0319532D01*
X0055639Y0321131D02*
X0095800Y0321131D01*
X0095800Y0322729D02*
X0055639Y0322729D01*
X0055639Y0324328D02*
X0095800Y0324328D01*
X0096054Y0325926D02*
X0055639Y0325926D01*
X0055639Y0327525D02*
X0097172Y0327525D01*
X0098771Y0329123D02*
X0055639Y0329123D01*
X0055639Y0330722D02*
X0100369Y0330722D01*
X0101968Y0332320D02*
X0055639Y0332320D01*
X0055639Y0333919D02*
X0103566Y0333919D01*
X0103504Y0335517D02*
X0055639Y0335517D01*
X0055639Y0337116D02*
X0101906Y0337116D01*
X0101200Y0338714D02*
X0055639Y0338714D01*
X0055639Y0340313D02*
X0101200Y0340313D01*
X0101200Y0341911D02*
X0055639Y0341911D01*
X0055639Y0343510D02*
X0101200Y0343510D01*
X0101200Y0345108D02*
X0055639Y0345108D01*
X0055639Y0346707D02*
X0101200Y0346707D01*
X0101238Y0348305D02*
X0055639Y0348305D01*
X0055639Y0349904D02*
X0102051Y0349904D01*
X0103650Y0351502D02*
X0055639Y0351502D01*
X0055639Y0353101D02*
X0105248Y0353101D01*
X0106847Y0354699D02*
X0055639Y0354699D01*
X0055639Y0356298D02*
X0108162Y0356298D01*
X0109862Y0357896D02*
X0055639Y0357896D01*
X0055639Y0359495D02*
X0123305Y0359495D01*
X0124904Y0361093D02*
X0055639Y0361093D01*
X0055639Y0362692D02*
X0200876Y0362692D01*
X0199278Y0361093D02*
X0167378Y0361093D01*
X0166678Y0361093D02*
X0132751Y0361093D01*
X0131627Y0358965D02*
X0147650Y0352784D01*
X0150922Y0353101D02*
X0152766Y0353101D01*
X0151489Y0351502D02*
X0150922Y0351502D01*
X0150922Y0354699D02*
X0154226Y0354699D01*
X0155824Y0356298D02*
X0150786Y0356298D01*
X0157423Y0357896D02*
X0140789Y0357896D01*
X0136645Y0359495D02*
X0159021Y0359495D01*
X0167566Y0356298D02*
X0168140Y0356298D01*
X0170407Y0354699D02*
X0172284Y0354699D01*
X0172005Y0353101D02*
X0176428Y0353101D01*
X0179812Y0351502D02*
X0172809Y0351502D01*
X0173471Y0349904D02*
X0179812Y0349904D01*
X0179812Y0346707D02*
X0173631Y0346707D01*
X0173631Y0348305D02*
X0185715Y0348305D01*
X0186355Y0349904D02*
X0187537Y0349904D01*
X0186355Y0351502D02*
X0189359Y0351502D01*
X0191181Y0353101D02*
X0186355Y0353101D01*
X0186355Y0354699D02*
X0192884Y0354699D01*
X0194482Y0356298D02*
X0186219Y0356298D01*
X0179948Y0356298D02*
X0179810Y0356298D01*
X0175666Y0357896D02*
X0196081Y0357896D01*
X0197679Y0359495D02*
X0171522Y0359495D01*
X0173305Y0345108D02*
X0179812Y0345108D01*
X0179812Y0343510D02*
X0172643Y0343510D01*
X0171606Y0341911D02*
X0179812Y0341911D01*
X0179812Y0340313D02*
X0170008Y0340313D01*
X0147650Y0317351D02*
X0133202Y0322351D01*
X0125241Y0322351D01*
X0120241Y0317351D01*
X0112217Y0307902D01*
X0125241Y0288099D02*
X0132020Y0288099D01*
X0147650Y0281918D01*
X0125241Y0288099D02*
X0119060Y0281918D01*
X0112217Y0272469D01*
X0115489Y0271577D02*
X0121494Y0271577D01*
X0120768Y0273175D02*
X0115568Y0273175D01*
X0116726Y0274774D02*
X0120106Y0274774D01*
X0120000Y0276372D02*
X0117883Y0276372D01*
X0119041Y0277971D02*
X0120000Y0277971D01*
X0120199Y0279569D02*
X0120381Y0279569D01*
X0123092Y0269978D02*
X0115489Y0269978D01*
X0114777Y0268380D02*
X0125745Y0268380D01*
X0124060Y0251879D02*
X0132808Y0251879D01*
X0147650Y0246485D01*
X0124060Y0251879D02*
X0118666Y0246485D01*
X0112217Y0237036D01*
X0124454Y0216446D02*
X0132808Y0216446D01*
X0147650Y0211052D01*
X0124454Y0216446D02*
X0119060Y0211052D01*
X0112217Y0201603D01*
X0115489Y0201242D02*
X0121210Y0201242D01*
X0120548Y0202841D02*
X0115953Y0202841D01*
X0117111Y0204439D02*
X0120000Y0204439D01*
X0120000Y0206038D02*
X0118268Y0206038D01*
X0119426Y0207636D02*
X0120000Y0207636D01*
X0120584Y0209235D02*
X0120601Y0209235D01*
X0122561Y0199644D02*
X0115489Y0199644D01*
X0115308Y0198045D02*
X0124462Y0198045D01*
X0124454Y0181406D02*
X0132414Y0181406D01*
X0147650Y0175619D01*
X0124454Y0181406D02*
X0118666Y0175619D01*
X0112217Y0166170D01*
X0124060Y0145580D02*
X0132808Y0145580D01*
X0147650Y0140186D01*
X0144379Y0138900D02*
X0137377Y0138900D01*
X0138039Y0137302D02*
X0144379Y0137302D01*
X0144379Y0134105D02*
X0138198Y0134105D01*
X0138198Y0135703D02*
X0149262Y0135703D01*
X0152039Y0132506D02*
X0155761Y0132506D01*
X0155433Y0134105D02*
X0153463Y0134105D01*
X0154887Y0135703D02*
X0155433Y0135703D01*
X0156423Y0130908D02*
X0150922Y0130908D01*
X0150922Y0129309D02*
X0157462Y0129309D01*
X0159060Y0127711D02*
X0150922Y0127711D01*
X0144379Y0127711D02*
X0134571Y0127711D01*
X0136170Y0129309D02*
X0144379Y0129309D01*
X0144379Y0130908D02*
X0137209Y0130908D01*
X0137871Y0132506D02*
X0144379Y0132506D01*
X0140055Y0140499D02*
X0136576Y0140499D01*
X0135656Y0142097D02*
X0134977Y0142097D01*
X0124060Y0145580D02*
X0118666Y0140186D01*
X0112217Y0130737D01*
X0115489Y0130908D02*
X0120990Y0130908D01*
X0120328Y0132506D02*
X0116209Y0132506D01*
X0117300Y0134105D02*
X0120000Y0134105D01*
X0120000Y0135703D02*
X0118391Y0135703D01*
X0119482Y0137302D02*
X0120159Y0137302D01*
X0120633Y0138900D02*
X0120821Y0138900D01*
X0122029Y0129309D02*
X0115489Y0129309D01*
X0115489Y0127711D02*
X0123627Y0127711D01*
X0127037Y0126112D02*
X0055639Y0126112D01*
X0112217Y0095304D02*
X0119847Y0104753D01*
X0124847Y0109753D01*
X0133202Y0109753D01*
X0147650Y0104753D01*
X0162471Y0126112D02*
X0131161Y0126112D01*
X0166594Y0126112D02*
X0197904Y0126112D01*
X0194494Y0127711D02*
X0186355Y0127711D01*
X0186355Y0129309D02*
X0192895Y0129309D01*
X0191856Y0130908D02*
X0186355Y0130908D01*
X0187223Y0132506D02*
X0191194Y0132506D01*
X0190866Y0134105D02*
X0188588Y0134105D01*
X0189952Y0135703D02*
X0190866Y0135703D01*
X0184693Y0135703D02*
X0173631Y0135703D01*
X0173631Y0134105D02*
X0179812Y0134105D01*
X0179812Y0132506D02*
X0173304Y0132506D01*
X0172642Y0130908D02*
X0179812Y0130908D01*
X0179812Y0129309D02*
X0171603Y0129309D01*
X0170004Y0127711D02*
X0179812Y0127711D01*
X0179812Y0137302D02*
X0173472Y0137302D01*
X0172810Y0138900D02*
X0179812Y0138900D01*
X0175386Y0140499D02*
X0172009Y0140499D01*
X0170508Y0142097D02*
X0170410Y0142097D01*
X0202027Y0126112D02*
X0209209Y0126112D01*
X0207777Y0127711D02*
X0205437Y0127711D01*
X0207036Y0129309D02*
X0207300Y0129309D01*
X0218517Y0130737D02*
X0225753Y0140186D01*
X0231934Y0146367D01*
X0238320Y0146367D01*
X0253950Y0140186D01*
X0250678Y0139006D02*
X0250678Y0136809D01*
X0251557Y0135930D01*
X0255604Y0135930D01*
X0254809Y0134993D01*
X0251557Y0134993D01*
X0250678Y0134114D01*
X0250678Y0127360D01*
X0251557Y0126481D01*
X0256343Y0126481D01*
X0257221Y0127360D01*
X0257221Y0131345D01*
X0261732Y0136658D01*
X0261732Y0133297D01*
X0263118Y0129953D01*
X0265677Y0127393D01*
X0269022Y0126008D01*
X0272641Y0126008D01*
X0275986Y0127393D01*
X0278545Y0129953D01*
X0279931Y0133297D01*
X0279931Y0136917D01*
X0278545Y0140261D01*
X0275988Y0142819D01*
X0286111Y0139140D01*
X0286111Y0136809D01*
X0286990Y0135930D01*
X0289847Y0135930D01*
X0289356Y0134993D01*
X0286990Y0134993D01*
X0286111Y0134114D01*
X0286111Y0127360D01*
X0286990Y0126481D01*
X0291776Y0126481D01*
X0292654Y0127360D01*
X0292654Y0132670D01*
X0301006Y0148599D01*
X0305533Y0148599D01*
X0306018Y0148114D01*
X0305829Y0148004D01*
X0305493Y0147669D01*
X0305257Y0147259D01*
X0305134Y0146801D01*
X0305134Y0145284D01*
X0305134Y0144206D01*
X0304455Y0144206D01*
X0301110Y0142821D01*
X0298551Y0140261D01*
X0297165Y0136917D01*
X0297165Y0133297D01*
X0298551Y0129953D01*
X0301110Y0127393D01*
X0304455Y0126008D01*
X0308075Y0126008D01*
X0311419Y0127393D01*
X0313400Y0129374D01*
X0313400Y0127961D01*
X0313994Y0126528D01*
X0315485Y0125037D01*
X0221315Y0125037D01*
X0219871Y0126481D01*
X0220910Y0126481D01*
X0221788Y0127360D01*
X0221788Y0131226D01*
X0226479Y0137352D01*
X0226299Y0136917D01*
X0226299Y0133297D01*
X0227684Y0129953D01*
X0230244Y0127393D01*
X0233588Y0126008D01*
X0237208Y0126008D01*
X0240553Y0127393D01*
X0243112Y0129953D01*
X0244498Y0133297D01*
X0244498Y0136917D01*
X0243112Y0140261D01*
X0240553Y0142821D01*
X0237545Y0144067D01*
X0237881Y0144067D01*
X0250678Y0139006D01*
X0250678Y0138900D02*
X0243676Y0138900D01*
X0244338Y0137302D02*
X0250678Y0137302D01*
X0250678Y0134105D02*
X0244498Y0134105D01*
X0244498Y0135703D02*
X0255412Y0135703D01*
X0258207Y0132506D02*
X0262060Y0132506D01*
X0261732Y0134105D02*
X0259564Y0134105D01*
X0260922Y0135703D02*
X0261732Y0135703D01*
X0262722Y0130908D02*
X0257221Y0130908D01*
X0257221Y0129309D02*
X0263761Y0129309D01*
X0265360Y0127711D02*
X0257221Y0127711D01*
X0250678Y0127711D02*
X0240870Y0127711D01*
X0242469Y0129309D02*
X0250678Y0129309D01*
X0250678Y0130908D02*
X0243508Y0130908D01*
X0244170Y0132506D02*
X0250678Y0132506D01*
X0246904Y0140499D02*
X0242875Y0140499D01*
X0242862Y0142097D02*
X0241276Y0142097D01*
X0238820Y0143696D02*
X0238441Y0143696D01*
X0226459Y0137302D02*
X0226441Y0137302D01*
X0226299Y0135703D02*
X0225217Y0135703D01*
X0226299Y0134105D02*
X0223993Y0134105D01*
X0222768Y0132506D02*
X0226627Y0132506D01*
X0227289Y0130908D02*
X0221788Y0130908D01*
X0221788Y0129309D02*
X0228328Y0129309D01*
X0229927Y0127711D02*
X0221788Y0127711D01*
X0220240Y0126112D02*
X0233337Y0126112D01*
X0237460Y0126112D02*
X0268770Y0126112D01*
X0272893Y0126112D02*
X0304203Y0126112D01*
X0300793Y0127711D02*
X0292654Y0127711D01*
X0292654Y0129309D02*
X0299194Y0129309D01*
X0298155Y0130908D02*
X0292654Y0130908D01*
X0292654Y0132506D02*
X0297493Y0132506D01*
X0297165Y0134105D02*
X0293406Y0134105D01*
X0294245Y0135703D02*
X0297165Y0135703D01*
X0297325Y0137302D02*
X0295083Y0137302D01*
X0295921Y0138900D02*
X0297987Y0138900D01*
X0298788Y0140499D02*
X0296759Y0140499D01*
X0297597Y0142097D02*
X0300387Y0142097D01*
X0298435Y0143696D02*
X0303222Y0143696D01*
X0305134Y0145284D02*
X0307918Y0145284D01*
X0307918Y0145284D01*
X0307918Y0145284D01*
X0308283Y0145284D01*
X0311068Y0145284D01*
X0311068Y0145284D01*
X0311433Y0145284D01*
X0314217Y0145284D01*
X0314217Y0145284D01*
X0314217Y0145284D01*
X0314217Y0142205D01*
X0312996Y0142205D01*
X0312643Y0142299D01*
X0312289Y0142205D01*
X0312035Y0142205D01*
X0313978Y0140261D01*
X0315364Y0136917D01*
X0315364Y0136249D01*
X0320644Y0141530D01*
X0320644Y0143419D01*
X0321009Y0144301D01*
X0321685Y0144976D01*
X0322567Y0145342D01*
X0327065Y0145342D01*
X0327947Y0144976D01*
X0328622Y0144301D01*
X0328987Y0143419D01*
X0328987Y0139203D01*
X0330539Y0141031D01*
X0330539Y0141139D01*
X0331147Y0141746D01*
X0331703Y0142401D01*
X0331810Y0142410D01*
X0336327Y0146926D01*
X0337674Y0148273D01*
X0344520Y0148273D01*
X0344939Y0148462D01*
X0345435Y0148273D01*
X0345965Y0148273D01*
X0346290Y0147948D01*
X0357213Y0143799D01*
X0357856Y0144442D01*
X0362642Y0144442D01*
X0363520Y0143563D01*
X0363520Y0138131D01*
X0365779Y0140928D01*
X0365779Y0141056D01*
X0366315Y0141592D01*
X0366791Y0142182D01*
X0366919Y0142195D01*
X0370779Y0146056D01*
X0372009Y0147286D01*
X0380750Y0147286D01*
X0381098Y0147455D01*
X0381586Y0147286D01*
X0382103Y0147286D01*
X0382376Y0147012D01*
X0392410Y0143540D01*
X0392410Y0143563D01*
X0393289Y0144442D01*
X0398075Y0144442D01*
X0398954Y0143563D01*
X0398954Y0136837D01*
X0405000Y0142884D01*
X0405000Y0143209D01*
X0399609Y0148599D01*
X0319752Y0148599D01*
X0319267Y0148114D01*
X0319456Y0148004D01*
X0319792Y0147669D01*
X0320029Y0147259D01*
X0320151Y0146801D01*
X0320151Y0145284D01*
X0317367Y0145284D01*
X0317367Y0142205D01*
X0318588Y0142205D01*
X0319046Y0142327D01*
X0319456Y0142564D01*
X0319792Y0142899D01*
X0320029Y0143310D01*
X0320151Y0143768D01*
X0320151Y0145284D01*
X0317367Y0145284D01*
X0317367Y0145284D01*
X0317367Y0145284D01*
X0317367Y0142205D01*
X0316146Y0142205D01*
X0315792Y0142299D01*
X0315439Y0142205D01*
X0314217Y0142205D01*
X0314217Y0145284D01*
X0311068Y0145284D01*
X0311068Y0145284D01*
X0307918Y0145284D01*
X0305134Y0145284D01*
X0305134Y0145294D02*
X0299273Y0145294D01*
X0300111Y0146893D02*
X0305159Y0146893D01*
X0305641Y0148491D02*
X0300949Y0148491D01*
X0312143Y0142097D02*
X0320644Y0142097D01*
X0320759Y0143696D02*
X0320132Y0143696D01*
X0320151Y0145294D02*
X0322452Y0145294D01*
X0320127Y0146893D02*
X0336294Y0146893D01*
X0334695Y0145294D02*
X0327179Y0145294D01*
X0328873Y0143696D02*
X0333097Y0143696D01*
X0331445Y0142097D02*
X0328987Y0142097D01*
X0328987Y0140499D02*
X0330088Y0140499D01*
X0332839Y0140186D02*
X0338627Y0145973D01*
X0345013Y0145973D01*
X0360249Y0140186D01*
X0363520Y0140499D02*
X0365432Y0140499D01*
X0366723Y0142097D02*
X0363520Y0142097D01*
X0363388Y0143696D02*
X0368419Y0143696D01*
X0370017Y0145294D02*
X0353277Y0145294D01*
X0349069Y0146893D02*
X0371616Y0146893D01*
X0364141Y0138900D02*
X0363520Y0138900D01*
X0382722Y0146893D02*
X0401316Y0146893D01*
X0402914Y0145294D02*
X0387341Y0145294D01*
X0391960Y0143696D02*
X0392543Y0143696D01*
X0398821Y0143696D02*
X0404513Y0143696D01*
X0404214Y0142097D02*
X0398954Y0142097D01*
X0398954Y0140499D02*
X0402615Y0140499D01*
X0401017Y0138900D02*
X0398954Y0138900D01*
X0398954Y0137302D02*
X0399418Y0137302D01*
X0399717Y0148491D02*
X0319644Y0148491D01*
X0317367Y0145284D02*
X0317367Y0145284D01*
X0314583Y0145284D01*
X0314217Y0145284D01*
X0314217Y0145284D01*
X0317367Y0145284D01*
X0317367Y0143696D02*
X0317367Y0143696D01*
X0314217Y0143696D02*
X0314217Y0143696D01*
X0313741Y0140499D02*
X0319613Y0140499D01*
X0318015Y0138900D02*
X0314542Y0138900D01*
X0315204Y0137302D02*
X0316416Y0137302D01*
X0313400Y0129309D02*
X0313335Y0129309D01*
X0313504Y0127711D02*
X0311736Y0127711D01*
X0314409Y0126112D02*
X0308326Y0126112D01*
X0324816Y0130737D02*
X0332839Y0140186D01*
X0302291Y0162337D02*
X0292198Y0162337D01*
X0292654Y0162793D01*
X0292654Y0168156D01*
X0300622Y0183639D01*
X0305533Y0183639D01*
X0306018Y0183153D01*
X0305829Y0183044D01*
X0305493Y0182708D01*
X0305257Y0182298D01*
X0305134Y0181840D01*
X0305134Y0180324D01*
X0307918Y0180324D01*
X0307918Y0180324D01*
X0311068Y0180324D01*
X0314217Y0180324D01*
X0314217Y0180324D01*
X0311433Y0180324D01*
X0311068Y0180324D01*
X0311068Y0180324D01*
X0311068Y0180324D01*
X0308283Y0180324D01*
X0307918Y0180324D01*
X0307918Y0180324D01*
X0305134Y0180324D01*
X0305134Y0179639D01*
X0304455Y0179639D01*
X0301110Y0178254D01*
X0298551Y0175694D01*
X0297165Y0172350D01*
X0297165Y0168730D01*
X0298551Y0165386D01*
X0301110Y0162826D01*
X0302291Y0162337D01*
X0301059Y0162878D02*
X0292654Y0162878D01*
X0292654Y0164476D02*
X0299460Y0164476D01*
X0298265Y0166075D02*
X0292654Y0166075D01*
X0292654Y0167673D02*
X0297603Y0167673D01*
X0297165Y0169272D02*
X0293228Y0169272D01*
X0294051Y0170870D02*
X0297165Y0170870D01*
X0297215Y0172469D02*
X0294874Y0172469D01*
X0295696Y0174068D02*
X0297877Y0174068D01*
X0298539Y0175666D02*
X0296519Y0175666D01*
X0297342Y0177265D02*
X0300121Y0177265D01*
X0298165Y0178863D02*
X0302580Y0178863D01*
X0305134Y0180462D02*
X0298987Y0180462D01*
X0299810Y0182060D02*
X0305193Y0182060D01*
X0312399Y0177274D02*
X0312643Y0177339D01*
X0312996Y0177244D01*
X0314217Y0177244D01*
X0314217Y0180323D01*
X0314217Y0180323D01*
X0314217Y0177244D01*
X0315439Y0177244D01*
X0315792Y0177339D01*
X0316146Y0177244D01*
X0317367Y0177244D01*
X0318588Y0177244D01*
X0319046Y0177367D01*
X0319456Y0177604D01*
X0319792Y0177939D01*
X0320029Y0178349D01*
X0320151Y0178807D01*
X0320151Y0180324D01*
X0320151Y0181840D01*
X0320029Y0182298D01*
X0319792Y0182708D01*
X0319456Y0183044D01*
X0319267Y0183153D01*
X0319752Y0183639D01*
X0336425Y0183639D01*
X0335539Y0182753D01*
X0330559Y0177772D01*
X0330354Y0177740D01*
X0329903Y0177116D01*
X0329358Y0176572D01*
X0329358Y0176364D01*
X0328987Y0175852D01*
X0328987Y0178852D01*
X0328622Y0179734D01*
X0327947Y0180409D01*
X0327065Y0180775D01*
X0322567Y0180775D01*
X0321685Y0180409D01*
X0321009Y0179734D01*
X0320644Y0178852D01*
X0320644Y0176963D01*
X0315364Y0171682D01*
X0315364Y0172350D01*
X0313978Y0175694D01*
X0312399Y0177274D01*
X0312408Y0177265D02*
X0312920Y0177265D01*
X0314217Y0177265D02*
X0314217Y0177265D01*
X0315515Y0177265D02*
X0316069Y0177265D01*
X0317367Y0177265D02*
X0317367Y0177265D01*
X0317367Y0177244D02*
X0317367Y0180323D01*
X0317367Y0180323D01*
X0317367Y0177244D01*
X0318664Y0177265D02*
X0320644Y0177265D01*
X0320649Y0178863D02*
X0320151Y0178863D01*
X0320151Y0180324D02*
X0317367Y0180324D01*
X0320151Y0180324D01*
X0320151Y0180462D02*
X0321810Y0180462D01*
X0320092Y0182060D02*
X0334847Y0182060D01*
X0333248Y0180462D02*
X0327821Y0180462D01*
X0328983Y0178863D02*
X0331650Y0178863D01*
X0330010Y0177265D02*
X0328987Y0177265D01*
X0331658Y0175619D02*
X0337839Y0181800D01*
X0344619Y0181800D01*
X0360249Y0175619D01*
X0331658Y0175619D02*
X0324816Y0166170D01*
X0316150Y0172469D02*
X0315315Y0172469D01*
X0314652Y0174068D02*
X0317749Y0174068D01*
X0319347Y0175666D02*
X0313990Y0175666D01*
X0314217Y0178863D02*
X0314217Y0178863D01*
X0314217Y0180324D02*
X0314217Y0180324D01*
X0317367Y0180324D01*
X0317367Y0180324D01*
X0317367Y0180324D01*
X0314583Y0180324D01*
X0314217Y0180324D01*
X0317367Y0178863D02*
X0317367Y0178863D01*
X0303578Y0197237D02*
X0273518Y0197237D01*
X0275986Y0198259D01*
X0278545Y0200819D01*
X0279931Y0204163D01*
X0279931Y0207783D01*
X0278545Y0211128D01*
X0276324Y0213349D01*
X0286111Y0209962D01*
X0286111Y0207675D01*
X0286990Y0206796D01*
X0289924Y0206796D01*
X0289416Y0205859D01*
X0286990Y0205859D01*
X0286111Y0204980D01*
X0286111Y0198226D01*
X0286990Y0197347D01*
X0291776Y0197347D01*
X0292654Y0198226D01*
X0292654Y0203440D01*
X0301774Y0220253D01*
X0305533Y0220253D01*
X0306018Y0219767D01*
X0305829Y0219658D01*
X0305493Y0219323D01*
X0305257Y0218912D01*
X0305134Y0218454D01*
X0305134Y0216938D01*
X0307918Y0216938D01*
X0307918Y0216938D01*
X0311068Y0216938D01*
X0314217Y0216938D01*
X0314217Y0216938D01*
X0311433Y0216938D01*
X0311068Y0216938D01*
X0311068Y0216938D01*
X0311068Y0213858D01*
X0312289Y0213858D01*
X0312643Y0213953D01*
X0312996Y0213858D01*
X0314217Y0213858D01*
X0314217Y0216938D01*
X0314217Y0216938D01*
X0317367Y0216938D01*
X0320151Y0216938D01*
X0320151Y0218454D01*
X0320029Y0218912D01*
X0319792Y0219323D01*
X0319456Y0219658D01*
X0319267Y0219767D01*
X0319752Y0220253D01*
X0396656Y0220253D01*
X0403000Y0213909D01*
X0403000Y0211750D01*
X0398954Y0207703D01*
X0398954Y0214429D01*
X0398075Y0215308D01*
X0393289Y0215308D01*
X0392410Y0214429D01*
X0392410Y0214334D01*
X0382757Y0217498D01*
X0382497Y0217758D01*
X0381962Y0217758D01*
X0381454Y0217925D01*
X0381125Y0217758D01*
X0372796Y0217758D01*
X0371566Y0216528D01*
X0368160Y0213122D01*
X0368117Y0213120D01*
X0367549Y0212511D01*
X0366960Y0211922D01*
X0366960Y0211879D01*
X0363520Y0208191D01*
X0363520Y0214429D01*
X0362642Y0215308D01*
X0357856Y0215308D01*
X0357167Y0214619D01*
X0346672Y0218433D01*
X0346359Y0218746D01*
X0345811Y0218746D01*
X0345296Y0218933D01*
X0344896Y0218746D01*
X0337280Y0218746D01*
X0335933Y0217398D01*
X0331810Y0213276D01*
X0331703Y0213267D01*
X0331147Y0212612D01*
X0330539Y0212005D01*
X0330539Y0211897D01*
X0328987Y0210069D01*
X0328987Y0214285D01*
X0328622Y0215167D01*
X0327947Y0215842D01*
X0327065Y0216208D01*
X0322567Y0216208D01*
X0321685Y0215842D01*
X0321009Y0215167D01*
X0320644Y0214285D01*
X0320644Y0212396D01*
X0315791Y0207542D01*
X0315364Y0207115D01*
X0315364Y0207783D01*
X0313978Y0211128D01*
X0311419Y0213687D01*
X0311006Y0213858D01*
X0311068Y0213858D01*
X0311068Y0216938D01*
X0311068Y0216938D01*
X0311068Y0216938D01*
X0308283Y0216938D01*
X0307918Y0216938D01*
X0307918Y0216938D01*
X0305134Y0216938D01*
X0305134Y0215421D01*
X0305227Y0215072D01*
X0304455Y0215072D01*
X0301110Y0213687D01*
X0298551Y0211128D01*
X0297165Y0207783D01*
X0297165Y0204163D01*
X0298551Y0200819D01*
X0301110Y0198259D01*
X0303578Y0197237D01*
X0301627Y0198045D02*
X0292474Y0198045D01*
X0292654Y0199644D02*
X0299726Y0199644D01*
X0298375Y0201242D02*
X0292654Y0201242D01*
X0292654Y0202841D02*
X0297713Y0202841D01*
X0297165Y0204439D02*
X0293196Y0204439D01*
X0294063Y0206038D02*
X0297165Y0206038D01*
X0297165Y0207636D02*
X0294930Y0207636D01*
X0295797Y0209235D02*
X0297767Y0209235D01*
X0298429Y0210833D02*
X0296665Y0210833D01*
X0297532Y0212432D02*
X0299855Y0212432D01*
X0298399Y0214030D02*
X0301939Y0214030D01*
X0299266Y0215629D02*
X0305134Y0215629D01*
X0305134Y0217227D02*
X0300133Y0217227D01*
X0301000Y0218826D02*
X0305233Y0218826D01*
X0311068Y0215629D02*
X0311068Y0215629D01*
X0311068Y0214030D02*
X0311068Y0214030D01*
X0312674Y0212432D02*
X0320644Y0212432D01*
X0320644Y0214030D02*
X0319131Y0214030D01*
X0319046Y0213981D02*
X0319456Y0214218D01*
X0319792Y0214553D01*
X0320029Y0214963D01*
X0320151Y0215421D01*
X0320151Y0216938D01*
X0317367Y0216938D01*
X0317367Y0216938D01*
X0317367Y0216938D01*
X0314583Y0216938D01*
X0314217Y0216938D01*
X0314217Y0216938D01*
X0314217Y0213858D01*
X0315439Y0213858D01*
X0315792Y0213953D01*
X0316146Y0213858D01*
X0317367Y0213858D01*
X0318588Y0213858D01*
X0319046Y0213981D01*
X0317367Y0214030D02*
X0317367Y0214030D01*
X0317367Y0213858D02*
X0317367Y0216938D01*
X0317367Y0216938D01*
X0317367Y0213858D01*
X0317367Y0215629D02*
X0317367Y0215629D01*
X0320151Y0215629D02*
X0321471Y0215629D01*
X0320151Y0217227D02*
X0335762Y0217227D01*
X0334164Y0215629D02*
X0328161Y0215629D01*
X0328987Y0214030D02*
X0332565Y0214030D01*
X0330966Y0212432D02*
X0328987Y0212432D01*
X0328987Y0210833D02*
X0329636Y0210833D01*
X0332839Y0211052D02*
X0338233Y0216446D01*
X0345406Y0216446D01*
X0360249Y0211052D01*
X0363520Y0210833D02*
X0365985Y0210833D01*
X0367470Y0212432D02*
X0363520Y0212432D01*
X0363520Y0214030D02*
X0369068Y0214030D01*
X0370667Y0215629D02*
X0354388Y0215629D01*
X0349989Y0217227D02*
X0372265Y0217227D01*
X0364494Y0209235D02*
X0363520Y0209235D01*
X0345591Y0218826D02*
X0398083Y0218826D01*
X0399681Y0217227D02*
X0383582Y0217227D01*
X0388460Y0215629D02*
X0401280Y0215629D01*
X0402878Y0214030D02*
X0398954Y0214030D01*
X0398954Y0212432D02*
X0403000Y0212432D01*
X0402084Y0210833D02*
X0398954Y0210833D01*
X0398954Y0209235D02*
X0400485Y0209235D01*
X0431115Y0201603D02*
X0439015Y0211052D01*
X0443335Y0215372D01*
X0452779Y0215372D01*
X0466548Y0211052D01*
X0431115Y0237036D02*
X0438248Y0246485D01*
X0443285Y0251522D01*
X0452062Y0251522D01*
X0466548Y0246485D01*
X0431115Y0272469D02*
X0439181Y0281918D01*
X0443685Y0286422D01*
X0452595Y0286422D01*
X0466548Y0281918D01*
X0463276Y0305145D02*
X0453738Y0305145D01*
X0455337Y0306744D02*
X0463276Y0306744D01*
X0463276Y0308342D02*
X0456218Y0308342D01*
X0456880Y0309941D02*
X0463276Y0309941D01*
X0463536Y0311539D02*
X0457096Y0311539D01*
X0457096Y0313138D02*
X0464112Y0313138D01*
X0463276Y0314737D02*
X0456825Y0314737D01*
X0456163Y0316335D02*
X0461726Y0316335D01*
X0466548Y0317351D02*
X0453328Y0321122D01*
X0443835Y0321122D01*
X0440064Y0317351D01*
X0431115Y0307902D01*
X0427843Y0308342D02*
X0427622Y0308342D01*
X0427843Y0306744D02*
X0426023Y0306744D01*
X0424425Y0305145D02*
X0427843Y0305145D01*
X0422826Y0303547D02*
X0445285Y0303547D01*
X0442256Y0305145D02*
X0434387Y0305145D01*
X0434387Y0306744D02*
X0440657Y0306744D01*
X0439776Y0308342D02*
X0434700Y0308342D01*
X0436214Y0309941D02*
X0439114Y0309941D01*
X0438898Y0311539D02*
X0437728Y0311539D01*
X0450709Y0303547D02*
X0480718Y0303547D01*
X0477689Y0305145D02*
X0469820Y0305145D01*
X0469820Y0306744D02*
X0476090Y0306744D01*
X0475209Y0308342D02*
X0469820Y0308342D01*
X0470871Y0309941D02*
X0474547Y0309941D01*
X0474331Y0311539D02*
X0472151Y0311539D01*
X0473431Y0313138D02*
X0474331Y0313138D01*
X0486142Y0303547D02*
X0516151Y0303547D01*
X0513122Y0305145D02*
X0505253Y0305145D01*
X0505253Y0306744D02*
X0511523Y0306744D01*
X0510642Y0308342D02*
X0505253Y0308342D01*
X0506848Y0309941D02*
X0509980Y0309941D01*
X0509764Y0311539D02*
X0508447Y0311539D01*
X0499545Y0313138D02*
X0492529Y0313138D01*
X0492529Y0311539D02*
X0498969Y0311539D01*
X0498709Y0309941D02*
X0492313Y0309941D01*
X0491651Y0308342D02*
X0498709Y0308342D01*
X0498709Y0306744D02*
X0490770Y0306744D01*
X0489171Y0305145D02*
X0498709Y0305145D01*
X0498709Y0314737D02*
X0492258Y0314737D01*
X0491596Y0316335D02*
X0498100Y0316335D01*
X0492837Y0317934D02*
X0490637Y0317934D01*
X0511444Y0330722D02*
X0559478Y0330722D01*
X0561076Y0329123D02*
X0513042Y0329123D01*
X0514641Y0327525D02*
X0562675Y0327525D01*
X0570285Y0325926D02*
X0516200Y0325926D01*
X0516200Y0324328D02*
X0574489Y0324328D01*
X0574489Y0322729D02*
X0516200Y0322729D01*
X0516200Y0321131D02*
X0516471Y0321131D01*
X0521255Y0321131D02*
X0574489Y0321131D01*
X0574489Y0319532D02*
X0524472Y0319532D01*
X0526070Y0317934D02*
X0574489Y0317934D01*
X0574489Y0316335D02*
X0527029Y0316335D01*
X0527691Y0314737D02*
X0574489Y0314737D01*
X0574695Y0313138D02*
X0527962Y0313138D01*
X0527962Y0311539D02*
X0612008Y0311539D01*
X0612008Y0309941D02*
X0527746Y0309941D01*
X0527084Y0308342D02*
X0612008Y0308342D01*
X0612008Y0306744D02*
X0526203Y0306744D01*
X0524604Y0305145D02*
X0612008Y0305145D01*
X0612008Y0303547D02*
X0521575Y0303547D01*
X0525804Y0301948D02*
X0612008Y0301948D01*
X0612008Y0300350D02*
X0527403Y0300350D01*
X0529001Y0298751D02*
X0612008Y0298751D01*
X0612008Y0297153D02*
X0530600Y0297153D01*
X0532198Y0295554D02*
X0612008Y0295554D01*
X0612008Y0293956D02*
X0533797Y0293956D01*
X0535395Y0292357D02*
X0612008Y0292357D01*
X0612008Y0290759D02*
X0536994Y0290759D01*
X0538592Y0289160D02*
X0612008Y0289160D01*
X0612008Y0287562D02*
X0539300Y0287562D01*
X0539300Y0285963D02*
X0612008Y0285963D01*
X0612008Y0284365D02*
X0539300Y0284365D01*
X0539300Y0282766D02*
X0612008Y0282766D01*
X0612008Y0281168D02*
X0539300Y0281168D01*
X0539300Y0279569D02*
X0612008Y0279569D01*
X0612008Y0277971D02*
X0539300Y0277971D01*
X0539300Y0276372D02*
X0612008Y0276372D01*
X0612008Y0274774D02*
X0539300Y0274774D01*
X0539300Y0273175D02*
X0612008Y0273175D01*
X0612008Y0271577D02*
X0539300Y0271577D01*
X0538727Y0269978D02*
X0612008Y0269978D01*
X0612008Y0268380D02*
X0537158Y0268380D01*
X0535560Y0266781D02*
X0612008Y0266781D01*
X0612008Y0265183D02*
X0533961Y0265183D01*
X0532363Y0263584D02*
X0612008Y0263584D01*
X0612008Y0261986D02*
X0530764Y0261986D01*
X0528821Y0260387D02*
X0612008Y0260387D01*
X0612008Y0258789D02*
X0510677Y0258789D01*
X0512275Y0257190D02*
X0612008Y0257190D01*
X0612008Y0255592D02*
X0513874Y0255592D01*
X0515000Y0253993D02*
X0612008Y0253993D01*
X0612008Y0252395D02*
X0515000Y0252395D01*
X0515000Y0250796D02*
X0612008Y0250796D01*
X0612008Y0249198D02*
X0523831Y0249198D01*
X0525538Y0247599D02*
X0612008Y0247599D01*
X0612008Y0246001D02*
X0526809Y0246001D01*
X0527471Y0244402D02*
X0612008Y0244402D01*
X0612008Y0242803D02*
X0527962Y0242803D01*
X0527962Y0241205D02*
X0612008Y0241205D01*
X0612008Y0239606D02*
X0527962Y0239606D01*
X0527304Y0238008D02*
X0612008Y0238008D01*
X0612008Y0236409D02*
X0526642Y0236409D01*
X0525136Y0234811D02*
X0612008Y0234811D01*
X0612008Y0233212D02*
X0527801Y0233212D01*
X0529639Y0231614D02*
X0612008Y0231614D01*
X0612008Y0230015D02*
X0531237Y0230015D01*
X0532836Y0228417D02*
X0612008Y0228417D01*
X0612008Y0226818D02*
X0534434Y0226818D01*
X0536033Y0225220D02*
X0612008Y0225220D01*
X0612008Y0223621D02*
X0537631Y0223621D01*
X0538396Y0222023D02*
X0612008Y0222023D01*
X0612008Y0220424D02*
X0538400Y0220424D01*
X0538400Y0218826D02*
X0612008Y0218826D01*
X0612008Y0217227D02*
X0538400Y0217227D01*
X0538400Y0215629D02*
X0612008Y0215629D01*
X0612008Y0214030D02*
X0538400Y0214030D01*
X0538400Y0212432D02*
X0612008Y0212432D01*
X0612008Y0210833D02*
X0538400Y0210833D01*
X0538400Y0209235D02*
X0612008Y0209235D01*
X0612008Y0207636D02*
X0538400Y0207636D01*
X0538400Y0206038D02*
X0612008Y0206038D01*
X0612008Y0204439D02*
X0538400Y0204439D01*
X0538400Y0202841D02*
X0612008Y0202841D01*
X0612008Y0201242D02*
X0538400Y0201242D01*
X0537813Y0199644D02*
X0612008Y0199644D01*
X0612008Y0198045D02*
X0536224Y0198045D01*
X0534625Y0196447D02*
X0612008Y0196447D01*
X0612008Y0194848D02*
X0533027Y0194848D01*
X0531428Y0193250D02*
X0612008Y0193250D01*
X0612008Y0191651D02*
X0529830Y0191651D01*
X0528231Y0190053D02*
X0612008Y0190053D01*
X0612008Y0188454D02*
X0507711Y0188454D01*
X0509310Y0186856D02*
X0612008Y0186856D01*
X0612008Y0185257D02*
X0510908Y0185257D01*
X0512507Y0183659D02*
X0612008Y0183659D01*
X0612008Y0182060D02*
X0513600Y0182060D01*
X0513600Y0180462D02*
X0612008Y0180462D01*
X0612008Y0178863D02*
X0522547Y0178863D01*
X0525007Y0177265D02*
X0612008Y0177265D01*
X0612008Y0175666D02*
X0526589Y0175666D01*
X0527251Y0174068D02*
X0612008Y0174068D01*
X0612008Y0172469D02*
X0527913Y0172469D01*
X0527962Y0170870D02*
X0612008Y0170870D01*
X0612008Y0169272D02*
X0527962Y0169272D01*
X0527524Y0167673D02*
X0612008Y0167673D01*
X0612008Y0166075D02*
X0526862Y0166075D01*
X0525667Y0164476D02*
X0612008Y0164476D01*
X0612008Y0162878D02*
X0524069Y0162878D01*
X0529373Y0161279D02*
X0612008Y0161279D01*
X0612008Y0159681D02*
X0530972Y0159681D01*
X0532570Y0158082D02*
X0612008Y0158082D01*
X0612008Y0156484D02*
X0534169Y0156484D01*
X0535767Y0154885D02*
X0612008Y0154885D01*
X0612008Y0153287D02*
X0537366Y0153287D01*
X0538696Y0151688D02*
X0612008Y0151688D01*
X0612008Y0150090D02*
X0539100Y0150090D01*
X0539100Y0148491D02*
X0612008Y0148491D01*
X0612008Y0146893D02*
X0539100Y0146893D01*
X0539100Y0145294D02*
X0612008Y0145294D01*
X0612008Y0143696D02*
X0539100Y0143696D01*
X0539100Y0142097D02*
X0612008Y0142097D01*
X0612008Y0140499D02*
X0539100Y0140499D01*
X0539100Y0138900D02*
X0612008Y0138900D01*
X0612008Y0137302D02*
X0539100Y0137302D01*
X0539100Y0135703D02*
X0612008Y0135703D01*
X0612008Y0134105D02*
X0539100Y0134105D01*
X0539100Y0132506D02*
X0612008Y0132506D01*
X0612008Y0130908D02*
X0539100Y0130908D01*
X0539100Y0129309D02*
X0612008Y0129309D01*
X0612008Y0127711D02*
X0538831Y0127711D01*
X0537691Y0126112D02*
X0612008Y0126112D01*
X0612008Y0124514D02*
X0536092Y0124514D01*
X0534494Y0122915D02*
X0612008Y0122915D01*
X0612008Y0121317D02*
X0532895Y0121317D01*
X0531297Y0119718D02*
X0612008Y0119718D01*
X0612008Y0118120D02*
X0529698Y0118120D01*
X0524475Y0106930D02*
X0612008Y0106930D01*
X0612008Y0105332D02*
X0526074Y0105332D01*
X0527031Y0103733D02*
X0612008Y0103733D01*
X0612008Y0102134D02*
X0527693Y0102134D01*
X0527962Y0100536D02*
X0612008Y0100536D01*
X0612008Y0098937D02*
X0527962Y0098937D01*
X0527745Y0097339D02*
X0612008Y0097339D01*
X0612008Y0095740D02*
X0527083Y0095740D01*
X0526199Y0094142D02*
X0612008Y0094142D01*
X0612008Y0092543D02*
X0524601Y0092543D01*
X0521566Y0090945D02*
X0612008Y0090945D01*
X0612008Y0089346D02*
X0429611Y0089346D01*
X0429700Y0090945D02*
X0445293Y0090945D01*
X0442259Y0092543D02*
X0434387Y0092543D01*
X0434387Y0094142D02*
X0440661Y0094142D01*
X0439777Y0095740D02*
X0434448Y0095740D01*
X0435759Y0097339D02*
X0439115Y0097339D01*
X0438898Y0098937D02*
X0437070Y0098937D01*
X0438382Y0100536D02*
X0438898Y0100536D01*
X0438866Y0104753D02*
X0444635Y0110522D01*
X0451330Y0110522D01*
X0466548Y0104753D01*
X0462750Y0103733D02*
X0456164Y0103733D01*
X0456827Y0102134D02*
X0463276Y0102134D01*
X0464116Y0100536D02*
X0457096Y0100536D01*
X0457096Y0098937D02*
X0463533Y0098937D01*
X0463276Y0097339D02*
X0456879Y0097339D01*
X0456216Y0095740D02*
X0463276Y0095740D01*
X0463276Y0094142D02*
X0455333Y0094142D01*
X0453734Y0092543D02*
X0463276Y0092543D01*
X0469820Y0092543D02*
X0477692Y0092543D01*
X0476094Y0094142D02*
X0469820Y0094142D01*
X0469828Y0095740D02*
X0475210Y0095740D01*
X0474548Y0097339D02*
X0471319Y0097339D01*
X0472811Y0098937D02*
X0474331Y0098937D01*
X0474303Y0100536D02*
X0474331Y0100536D01*
X0480726Y0090945D02*
X0450700Y0090945D01*
X0455208Y0105332D02*
X0458533Y0105332D01*
X0454317Y0106930D02*
X0453609Y0106930D01*
X0438866Y0104753D02*
X0431115Y0095304D01*
X0428726Y0087748D02*
X0612008Y0087748D01*
X0612008Y0086149D02*
X0427128Y0086149D01*
X0425529Y0084551D02*
X0612008Y0084551D01*
X0612008Y0082952D02*
X0423931Y0082952D01*
X0360249Y0104753D02*
X0345013Y0110540D01*
X0338627Y0110540D01*
X0332839Y0104753D01*
X0324816Y0095304D01*
X0315364Y0100816D02*
X0315364Y0101484D01*
X0313978Y0104828D01*
X0312399Y0106408D01*
X0312643Y0106473D01*
X0312996Y0106378D01*
X0314217Y0106378D01*
X0314217Y0109457D01*
X0314217Y0109457D01*
X0311433Y0109457D01*
X0311068Y0109457D01*
X0311068Y0109458D01*
X0314217Y0109458D01*
X0314217Y0109457D01*
X0314217Y0106378D01*
X0315439Y0106378D01*
X0315792Y0106473D01*
X0316146Y0106378D01*
X0317367Y0106378D01*
X0318588Y0106378D01*
X0319046Y0106501D01*
X0319456Y0106738D01*
X0319792Y0107073D01*
X0320029Y0107483D01*
X0320151Y0107941D01*
X0320151Y0109457D01*
X0317367Y0109457D01*
X0317367Y0106378D01*
X0317367Y0109457D01*
X0317367Y0109457D01*
X0317367Y0109458D01*
X0320151Y0109458D01*
X0320151Y0110974D01*
X0320029Y0111432D01*
X0319792Y0111842D01*
X0319456Y0112177D01*
X0319267Y0112287D01*
X0319752Y0112772D01*
X0337606Y0112772D01*
X0336327Y0111493D01*
X0331810Y0106976D01*
X0331703Y0106968D01*
X0331147Y0106313D01*
X0330539Y0105705D01*
X0330539Y0105598D01*
X0328987Y0103770D01*
X0328987Y0107986D01*
X0328622Y0108868D01*
X0327947Y0109543D01*
X0327065Y0109909D01*
X0322567Y0109909D01*
X0321685Y0109543D01*
X0321009Y0108868D01*
X0320644Y0107986D01*
X0320644Y0106097D01*
X0315364Y0100816D01*
X0315094Y0102134D02*
X0316682Y0102134D01*
X0318281Y0103733D02*
X0314432Y0103733D01*
X0313475Y0105332D02*
X0319879Y0105332D01*
X0319649Y0106930D02*
X0320644Y0106930D01*
X0320869Y0108529D02*
X0320151Y0108529D01*
X0320151Y0110127D02*
X0334961Y0110127D01*
X0333362Y0108529D02*
X0328763Y0108529D01*
X0328987Y0106930D02*
X0331671Y0106930D01*
X0330313Y0105332D02*
X0328987Y0105332D01*
X0336560Y0111726D02*
X0319859Y0111726D01*
X0317367Y0109458D02*
X0317367Y0109457D01*
X0314583Y0109457D01*
X0314217Y0109457D01*
X0314217Y0109458D01*
X0317367Y0109458D01*
X0317367Y0108529D02*
X0317367Y0108529D01*
X0317367Y0106930D02*
X0317367Y0106930D01*
X0314217Y0106930D02*
X0314217Y0106930D01*
X0314217Y0108529D02*
X0314217Y0108529D01*
X0311068Y0109457D02*
X0308283Y0109457D01*
X0307918Y0109457D01*
X0305134Y0109457D01*
X0305134Y0108773D01*
X0304455Y0108773D01*
X0301110Y0107388D01*
X0298551Y0104828D01*
X0297165Y0101484D01*
X0297165Y0097864D01*
X0298551Y0094520D01*
X0301110Y0091960D01*
X0304455Y0090575D01*
X0305122Y0090575D01*
X0304485Y0089937D01*
X0209216Y0089937D01*
X0215245Y0095966D01*
X0215245Y0091927D01*
X0216124Y0091048D01*
X0220910Y0091048D01*
X0221788Y0091927D01*
X0221788Y0095900D01*
X0226924Y0102993D01*
X0226299Y0101484D01*
X0226299Y0097864D01*
X0227684Y0094520D01*
X0230244Y0091960D01*
X0233588Y0090575D01*
X0237208Y0090575D01*
X0240553Y0091960D01*
X0243112Y0094520D01*
X0244498Y0097864D01*
X0244498Y0101484D01*
X0243112Y0104828D01*
X0240889Y0107052D01*
X0250678Y0103495D01*
X0250678Y0101376D01*
X0251557Y0100497D01*
X0255444Y0100497D01*
X0254687Y0099560D01*
X0251557Y0099560D01*
X0250678Y0098681D01*
X0250678Y0091927D01*
X0251557Y0091048D01*
X0256343Y0091048D01*
X0257221Y0091927D01*
X0257221Y0096013D01*
X0261830Y0101721D01*
X0261732Y0101484D01*
X0261732Y0097864D01*
X0263118Y0094520D01*
X0265677Y0091960D01*
X0269022Y0090575D01*
X0272641Y0090575D01*
X0275986Y0091960D01*
X0278545Y0094520D01*
X0279931Y0097864D01*
X0279931Y0101484D01*
X0278545Y0104828D01*
X0276324Y0107049D01*
X0286111Y0103663D01*
X0286111Y0101376D01*
X0286990Y0100497D01*
X0289806Y0100497D01*
X0289324Y0099560D01*
X0286990Y0099560D01*
X0286111Y0098681D01*
X0286111Y0091927D01*
X0286990Y0091048D01*
X0291776Y0091048D01*
X0292654Y0091927D01*
X0292654Y0097290D01*
X0300622Y0112772D01*
X0305533Y0112772D01*
X0306018Y0112287D01*
X0305829Y0112177D01*
X0305493Y0111842D01*
X0305257Y0111432D01*
X0305134Y0110974D01*
X0305134Y0109458D01*
X0307918Y0109458D01*
X0307918Y0109457D01*
X0307918Y0109458D01*
X0311068Y0109458D01*
X0311068Y0109457D01*
X0305134Y0110127D02*
X0299261Y0110127D01*
X0300084Y0111726D02*
X0305426Y0111726D01*
X0303864Y0108529D02*
X0298438Y0108529D01*
X0297616Y0106930D02*
X0300652Y0106930D01*
X0299054Y0105332D02*
X0296793Y0105332D01*
X0295970Y0103733D02*
X0298097Y0103733D01*
X0297435Y0102134D02*
X0295147Y0102134D01*
X0294325Y0100536D02*
X0297165Y0100536D01*
X0297165Y0098937D02*
X0293502Y0098937D01*
X0292679Y0097339D02*
X0297383Y0097339D01*
X0298045Y0095740D02*
X0292654Y0095740D01*
X0292654Y0094142D02*
X0298928Y0094142D01*
X0300527Y0092543D02*
X0292654Y0092543D01*
X0286111Y0092543D02*
X0276569Y0092543D01*
X0278168Y0094142D02*
X0286111Y0094142D01*
X0286111Y0095740D02*
X0279051Y0095740D01*
X0279713Y0097339D02*
X0286111Y0097339D01*
X0286367Y0098937D02*
X0279931Y0098937D01*
X0279931Y0100536D02*
X0286951Y0100536D01*
X0286111Y0102134D02*
X0279661Y0102134D01*
X0278999Y0103733D02*
X0285908Y0103733D01*
X0281289Y0105332D02*
X0278042Y0105332D01*
X0276669Y0106930D02*
X0276444Y0106930D01*
X0261732Y0100536D02*
X0260874Y0100536D01*
X0261732Y0098937D02*
X0259583Y0098937D01*
X0258292Y0097339D02*
X0261950Y0097339D01*
X0262612Y0095740D02*
X0257221Y0095740D01*
X0257221Y0094142D02*
X0263495Y0094142D01*
X0265094Y0092543D02*
X0257221Y0092543D01*
X0250678Y0092543D02*
X0241136Y0092543D01*
X0242735Y0094142D02*
X0250678Y0094142D01*
X0250678Y0095740D02*
X0243618Y0095740D01*
X0244280Y0097339D02*
X0250678Y0097339D01*
X0250934Y0098937D02*
X0244498Y0098937D01*
X0244498Y0100536D02*
X0251517Y0100536D01*
X0250678Y0102134D02*
X0244228Y0102134D01*
X0243566Y0103733D02*
X0250022Y0103733D01*
X0253950Y0104753D02*
X0239107Y0110146D01*
X0230753Y0110146D01*
X0225359Y0104753D01*
X0218517Y0095304D01*
X0221788Y0095740D02*
X0227179Y0095740D01*
X0226517Y0097339D02*
X0222830Y0097339D01*
X0223988Y0098937D02*
X0226299Y0098937D01*
X0226299Y0100536D02*
X0225145Y0100536D01*
X0226303Y0102134D02*
X0226569Y0102134D01*
X0228062Y0094142D02*
X0221788Y0094142D01*
X0221788Y0092543D02*
X0229661Y0092543D01*
X0232695Y0090945D02*
X0210224Y0090945D01*
X0211823Y0092543D02*
X0215245Y0092543D01*
X0215245Y0094142D02*
X0213421Y0094142D01*
X0215020Y0095740D02*
X0215245Y0095740D01*
X0238102Y0090945D02*
X0268128Y0090945D01*
X0273535Y0090945D02*
X0303561Y0090945D01*
X0286111Y0127711D02*
X0276303Y0127711D01*
X0277902Y0129309D02*
X0286111Y0129309D01*
X0286111Y0130908D02*
X0278941Y0130908D01*
X0279603Y0132506D02*
X0286111Y0132506D01*
X0286111Y0134105D02*
X0279931Y0134105D01*
X0279931Y0135703D02*
X0289728Y0135703D01*
X0286111Y0137302D02*
X0279771Y0137302D01*
X0279109Y0138900D02*
X0286111Y0138900D01*
X0282373Y0140499D02*
X0278308Y0140499D01*
X0277974Y0142097D02*
X0276710Y0142097D01*
X0253950Y0175619D02*
X0239107Y0181013D01*
X0231540Y0181013D01*
X0226146Y0175619D01*
X0218517Y0166170D01*
X0218517Y0201603D02*
X0224178Y0211052D01*
X0230753Y0217627D01*
X0237926Y0217627D01*
X0253950Y0211052D01*
X0277241Y0212432D02*
X0278974Y0212432D01*
X0278667Y0210833D02*
X0283593Y0210833D01*
X0286111Y0209235D02*
X0279329Y0209235D01*
X0279931Y0207636D02*
X0286150Y0207636D01*
X0286111Y0204439D02*
X0279931Y0204439D01*
X0279931Y0206038D02*
X0289513Y0206038D01*
X0286111Y0202841D02*
X0279383Y0202841D01*
X0278721Y0201242D02*
X0286111Y0201242D01*
X0286111Y0199644D02*
X0277370Y0199644D01*
X0275469Y0198045D02*
X0286292Y0198045D01*
X0314763Y0209235D02*
X0317483Y0209235D01*
X0319082Y0210833D02*
X0314100Y0210833D01*
X0314217Y0214030D02*
X0314217Y0214030D01*
X0314217Y0215629D02*
X0314217Y0215629D01*
X0320052Y0218826D02*
X0345067Y0218826D01*
X0332839Y0211052D02*
X0324816Y0201603D01*
X0315885Y0207636D02*
X0315364Y0207636D01*
X0301244Y0233637D02*
X0292632Y0233637D01*
X0292654Y0233659D01*
X0292654Y0238969D01*
X0301006Y0254898D01*
X0305533Y0254898D01*
X0306018Y0254413D01*
X0305829Y0254303D01*
X0305493Y0253968D01*
X0305257Y0253558D01*
X0305134Y0253100D01*
X0305134Y0251584D01*
X0307918Y0251584D01*
X0307918Y0251583D01*
X0305134Y0251583D01*
X0305134Y0250505D01*
X0304455Y0250505D01*
X0301110Y0249120D01*
X0298551Y0246561D01*
X0297165Y0243216D01*
X0297165Y0239596D01*
X0298551Y0236252D01*
X0301110Y0233692D01*
X0301244Y0233637D01*
X0299992Y0234811D02*
X0292654Y0234811D01*
X0292654Y0236409D02*
X0298485Y0236409D01*
X0297823Y0238008D02*
X0292654Y0238008D01*
X0292988Y0239606D02*
X0297165Y0239606D01*
X0297165Y0241205D02*
X0293826Y0241205D01*
X0294665Y0242803D02*
X0297165Y0242803D01*
X0297657Y0244402D02*
X0295503Y0244402D01*
X0296341Y0246001D02*
X0298319Y0246001D01*
X0297179Y0247599D02*
X0299589Y0247599D01*
X0298017Y0249198D02*
X0301297Y0249198D01*
X0298855Y0250796D02*
X0305134Y0250796D01*
X0305134Y0252395D02*
X0299693Y0252395D01*
X0300531Y0253993D02*
X0305518Y0253993D01*
X0307918Y0251584D02*
X0311068Y0251584D01*
X0314217Y0251584D01*
X0314217Y0251583D01*
X0314217Y0251583D01*
X0314217Y0248504D01*
X0312996Y0248504D01*
X0312643Y0248599D01*
X0312289Y0248504D01*
X0312035Y0248504D01*
X0313978Y0246561D01*
X0315364Y0243216D01*
X0315364Y0242548D01*
X0320644Y0247829D01*
X0320644Y0249718D01*
X0321009Y0250600D01*
X0321685Y0251276D01*
X0322567Y0251641D01*
X0327065Y0251641D01*
X0327947Y0251276D01*
X0328622Y0250600D01*
X0328987Y0249718D01*
X0328987Y0246718D01*
X0329358Y0247230D01*
X0329358Y0247438D01*
X0329903Y0247982D01*
X0330354Y0248606D01*
X0330559Y0248638D01*
X0334358Y0252438D01*
X0335706Y0253785D01*
X0345271Y0253785D01*
X0345652Y0253970D01*
X0346187Y0253785D01*
X0346753Y0253785D01*
X0347052Y0253486D01*
X0357117Y0250002D01*
X0357856Y0250741D01*
X0362642Y0250741D01*
X0363520Y0249862D01*
X0363520Y0244430D01*
X0365779Y0247227D01*
X0365779Y0247355D01*
X0366315Y0247891D01*
X0366791Y0248481D01*
X0366919Y0248495D01*
X0370779Y0252355D01*
X0372009Y0253585D01*
X0380750Y0253585D01*
X0381098Y0253754D01*
X0381586Y0253585D01*
X0382103Y0253585D01*
X0382376Y0253312D01*
X0392410Y0249839D01*
X0392410Y0249862D01*
X0393289Y0250741D01*
X0398075Y0250741D01*
X0398954Y0249862D01*
X0398954Y0243136D01*
X0404700Y0248883D01*
X0404700Y0249609D01*
X0399410Y0254898D01*
X0319752Y0254898D01*
X0319267Y0254413D01*
X0319456Y0254303D01*
X0319792Y0253968D01*
X0320029Y0253558D01*
X0320151Y0253100D01*
X0320151Y0251584D01*
X0317367Y0251584D01*
X0317367Y0251583D01*
X0317367Y0248504D01*
X0318588Y0248504D01*
X0319046Y0248627D01*
X0319456Y0248864D01*
X0319792Y0249199D01*
X0320029Y0249609D01*
X0320151Y0250067D01*
X0320151Y0251583D01*
X0317367Y0251583D01*
X0317367Y0251583D01*
X0317367Y0248504D01*
X0316146Y0248504D01*
X0315792Y0248599D01*
X0315439Y0248504D01*
X0314217Y0248504D01*
X0314217Y0251583D01*
X0311433Y0251583D01*
X0311068Y0251583D01*
X0311068Y0251584D01*
X0311068Y0251583D01*
X0308283Y0251583D01*
X0307918Y0251583D01*
X0307918Y0251584D01*
X0314217Y0251584D02*
X0317367Y0251584D01*
X0317367Y0251583D01*
X0314583Y0251583D01*
X0314217Y0251583D01*
X0314217Y0251584D01*
X0314217Y0250796D02*
X0314217Y0250796D01*
X0314217Y0249198D02*
X0314217Y0249198D01*
X0312940Y0247599D02*
X0320414Y0247599D01*
X0320644Y0249198D02*
X0319790Y0249198D01*
X0320151Y0250796D02*
X0321205Y0250796D01*
X0320151Y0252395D02*
X0334315Y0252395D01*
X0332717Y0250796D02*
X0328426Y0250796D01*
X0328987Y0249198D02*
X0331118Y0249198D01*
X0329520Y0247599D02*
X0328987Y0247599D01*
X0331658Y0246485D02*
X0336658Y0251485D01*
X0345800Y0251485D01*
X0360249Y0246485D01*
X0363520Y0246001D02*
X0364788Y0246001D01*
X0366023Y0247599D02*
X0363520Y0247599D01*
X0363520Y0249198D02*
X0367621Y0249198D01*
X0369220Y0250796D02*
X0354824Y0250796D01*
X0350205Y0252395D02*
X0370818Y0252395D01*
X0385026Y0252395D02*
X0401914Y0252395D01*
X0400316Y0253993D02*
X0319767Y0253993D01*
X0317367Y0250796D02*
X0317367Y0250796D01*
X0317367Y0249198D02*
X0317367Y0249198D01*
X0318816Y0246001D02*
X0314210Y0246001D01*
X0314873Y0244402D02*
X0317217Y0244402D01*
X0315619Y0242803D02*
X0315364Y0242803D01*
X0324816Y0237036D02*
X0331658Y0246485D01*
X0304221Y0267837D02*
X0272875Y0267837D01*
X0275986Y0269125D01*
X0278545Y0271685D01*
X0279931Y0275029D01*
X0279931Y0278649D01*
X0278545Y0281994D01*
X0275986Y0284553D01*
X0272641Y0285939D01*
X0269022Y0285939D01*
X0268250Y0285619D01*
X0268630Y0285999D01*
X0273353Y0285999D01*
X0286111Y0280954D01*
X0286111Y0278541D01*
X0286990Y0277662D01*
X0289806Y0277662D01*
X0289324Y0276725D01*
X0286990Y0276725D01*
X0286111Y0275847D01*
X0286111Y0269092D01*
X0286990Y0268213D01*
X0291776Y0268213D01*
X0292654Y0269092D01*
X0292654Y0274456D01*
X0300622Y0289938D01*
X0305533Y0289938D01*
X0306018Y0289452D01*
X0305829Y0289343D01*
X0305493Y0289008D01*
X0305257Y0288597D01*
X0305134Y0288139D01*
X0305134Y0286623D01*
X0307918Y0286623D01*
X0307918Y0286623D01*
X0305134Y0286623D01*
X0305134Y0285939D01*
X0304455Y0285939D01*
X0301110Y0284553D01*
X0298551Y0281994D01*
X0297165Y0278649D01*
X0297165Y0275029D01*
X0298551Y0271685D01*
X0301110Y0269125D01*
X0304221Y0267837D01*
X0302911Y0268380D02*
X0291942Y0268380D01*
X0292654Y0269978D02*
X0300258Y0269978D01*
X0298659Y0271577D02*
X0292654Y0271577D01*
X0292654Y0273175D02*
X0297933Y0273175D01*
X0297271Y0274774D02*
X0292818Y0274774D01*
X0293641Y0276372D02*
X0297165Y0276372D01*
X0297165Y0277971D02*
X0294463Y0277971D01*
X0295286Y0279569D02*
X0297546Y0279569D01*
X0298209Y0281168D02*
X0296109Y0281168D01*
X0296931Y0282766D02*
X0299323Y0282766D01*
X0297754Y0284365D02*
X0300922Y0284365D01*
X0298577Y0285963D02*
X0305134Y0285963D01*
X0305134Y0287562D02*
X0299400Y0287562D01*
X0300222Y0289160D02*
X0305646Y0289160D01*
X0307918Y0286623D02*
X0311068Y0286623D01*
X0314217Y0286623D01*
X0314217Y0286623D01*
X0311433Y0286623D01*
X0311068Y0286623D01*
X0311068Y0286623D01*
X0311068Y0286623D01*
X0308283Y0286623D01*
X0307918Y0286623D01*
X0307918Y0286623D01*
X0312399Y0283573D02*
X0312643Y0283638D01*
X0312996Y0283543D01*
X0314217Y0283543D01*
X0314217Y0286623D01*
X0314217Y0286623D01*
X0317367Y0286623D01*
X0320151Y0286623D01*
X0320151Y0288139D01*
X0320029Y0288597D01*
X0319792Y0289008D01*
X0319456Y0289343D01*
X0319267Y0289452D01*
X0319752Y0289938D01*
X0398271Y0289938D01*
X0404296Y0283912D01*
X0398954Y0278569D01*
X0398954Y0285295D01*
X0398075Y0286174D01*
X0393289Y0286174D01*
X0392444Y0285329D01*
X0381995Y0289126D01*
X0381709Y0289412D01*
X0381209Y0289412D01*
X0380739Y0289583D01*
X0380373Y0289412D01*
X0373190Y0289412D01*
X0371960Y0288182D01*
X0367747Y0283969D01*
X0367677Y0283964D01*
X0367138Y0283360D01*
X0366566Y0282788D01*
X0366566Y0282718D01*
X0363520Y0279299D01*
X0363520Y0285295D01*
X0362642Y0286174D01*
X0357856Y0286174D01*
X0357167Y0285485D01*
X0346672Y0289299D01*
X0346359Y0289612D01*
X0345811Y0289612D01*
X0345296Y0289799D01*
X0344896Y0289612D01*
X0335706Y0289612D01*
X0334358Y0288264D01*
X0330140Y0284047D01*
X0329902Y0284002D01*
X0329486Y0283392D01*
X0328987Y0282894D01*
X0328987Y0285151D01*
X0328622Y0286034D01*
X0327947Y0286709D01*
X0327065Y0287074D01*
X0322567Y0287074D01*
X0321685Y0286709D01*
X0321009Y0286034D01*
X0320644Y0285151D01*
X0320644Y0283262D01*
X0315791Y0278409D01*
X0315364Y0277982D01*
X0315364Y0278649D01*
X0313978Y0281994D01*
X0312399Y0283573D01*
X0313206Y0282766D02*
X0320148Y0282766D01*
X0319456Y0283903D02*
X0319046Y0283666D01*
X0318588Y0283543D01*
X0317367Y0283543D01*
X0317367Y0286623D01*
X0317367Y0286623D01*
X0317367Y0286623D01*
X0320151Y0286623D01*
X0320151Y0285106D01*
X0320029Y0284649D01*
X0319792Y0284238D01*
X0319456Y0283903D01*
X0319865Y0284365D02*
X0320644Y0284365D01*
X0320980Y0285963D02*
X0320151Y0285963D01*
X0320151Y0287562D02*
X0333656Y0287562D01*
X0335254Y0289160D02*
X0319639Y0289160D01*
X0317367Y0286623D02*
X0317367Y0286623D01*
X0314583Y0286623D01*
X0314217Y0286623D01*
X0314217Y0286623D01*
X0314217Y0283543D01*
X0315439Y0283543D01*
X0315792Y0283638D01*
X0316146Y0283543D01*
X0317367Y0283543D01*
X0317367Y0286623D01*
X0317367Y0285963D02*
X0317367Y0285963D01*
X0317367Y0284365D02*
X0317367Y0284365D01*
X0314217Y0284365D02*
X0314217Y0284365D01*
X0314217Y0285963D02*
X0314217Y0285963D01*
X0314321Y0281168D02*
X0318550Y0281168D01*
X0316951Y0279569D02*
X0314983Y0279569D01*
X0324816Y0272469D02*
X0331265Y0281918D01*
X0336658Y0287312D01*
X0345406Y0287312D01*
X0360249Y0281918D01*
X0363520Y0281168D02*
X0365185Y0281168D01*
X0366566Y0282766D02*
X0363520Y0282766D01*
X0363520Y0284365D02*
X0368143Y0284365D01*
X0369741Y0285963D02*
X0362852Y0285963D01*
X0357645Y0285963D02*
X0355851Y0285963D01*
X0351452Y0287562D02*
X0371340Y0287562D01*
X0372939Y0289160D02*
X0347054Y0289160D01*
X0363520Y0279569D02*
X0363761Y0279569D01*
X0381961Y0289160D02*
X0399048Y0289160D01*
X0400647Y0287562D02*
X0386300Y0287562D01*
X0390699Y0285963D02*
X0393078Y0285963D01*
X0398286Y0285963D02*
X0402245Y0285963D01*
X0403844Y0284365D02*
X0398954Y0284365D01*
X0398954Y0282766D02*
X0403150Y0282766D01*
X0401552Y0281168D02*
X0398954Y0281168D01*
X0398954Y0279569D02*
X0399953Y0279569D01*
X0403513Y0250796D02*
X0389646Y0250796D01*
X0398954Y0249198D02*
X0404700Y0249198D01*
X0403416Y0247599D02*
X0398954Y0247599D01*
X0398954Y0246001D02*
X0401818Y0246001D01*
X0400219Y0244402D02*
X0398954Y0244402D01*
X0332057Y0285963D02*
X0328651Y0285963D01*
X0328987Y0284365D02*
X0330459Y0284365D01*
X0305122Y0303173D02*
X0304886Y0302937D01*
X0209618Y0302937D01*
X0215245Y0308564D01*
X0215245Y0304525D01*
X0216124Y0303646D01*
X0220910Y0303646D01*
X0221788Y0304525D01*
X0221788Y0308499D01*
X0226924Y0315591D01*
X0226299Y0314082D01*
X0226299Y0310462D01*
X0227684Y0307118D01*
X0230244Y0304559D01*
X0233588Y0303173D01*
X0237208Y0303173D01*
X0240553Y0304559D01*
X0243112Y0307118D01*
X0244498Y0310462D01*
X0244498Y0314082D01*
X0243112Y0317427D01*
X0241215Y0319324D01*
X0250678Y0316050D01*
X0250678Y0313974D01*
X0251557Y0313095D01*
X0256173Y0313095D01*
X0255236Y0312158D01*
X0251557Y0312158D01*
X0250678Y0311280D01*
X0250678Y0304525D01*
X0251557Y0303646D01*
X0256343Y0303646D01*
X0257221Y0304525D01*
X0257221Y0308204D01*
X0261732Y0312715D01*
X0261732Y0310462D01*
X0263118Y0307118D01*
X0265677Y0304559D01*
X0269022Y0303173D01*
X0272641Y0303173D01*
X0275986Y0304559D01*
X0278545Y0307118D01*
X0279931Y0310462D01*
X0279931Y0314082D01*
X0278545Y0317427D01*
X0276504Y0319468D01*
X0277409Y0319468D01*
X0286111Y0316306D01*
X0286111Y0313974D01*
X0286990Y0313095D01*
X0289886Y0313095D01*
X0289386Y0312158D01*
X0286990Y0312158D01*
X0286111Y0311280D01*
X0286111Y0304525D01*
X0286990Y0303646D01*
X0291776Y0303646D01*
X0292654Y0304525D01*
X0292654Y0309786D01*
X0301390Y0326158D01*
X0305533Y0326158D01*
X0306018Y0325673D01*
X0305829Y0325563D01*
X0305493Y0325228D01*
X0305257Y0324818D01*
X0305134Y0324360D01*
X0305134Y0322843D01*
X0305134Y0321372D01*
X0304455Y0321372D01*
X0301110Y0319986D01*
X0298551Y0317427D01*
X0297165Y0314082D01*
X0297165Y0310462D01*
X0298551Y0307118D01*
X0301110Y0304559D01*
X0304455Y0303173D01*
X0305122Y0303173D01*
X0303552Y0303547D02*
X0273544Y0303547D01*
X0276573Y0305145D02*
X0286111Y0305145D01*
X0286111Y0306744D02*
X0278171Y0306744D01*
X0279053Y0308342D02*
X0286111Y0308342D01*
X0286111Y0309941D02*
X0279715Y0309941D01*
X0279931Y0311539D02*
X0286371Y0311539D01*
X0286947Y0313138D02*
X0279931Y0313138D01*
X0279660Y0314737D02*
X0286111Y0314737D01*
X0286030Y0316335D02*
X0278998Y0316335D01*
X0278039Y0317934D02*
X0281632Y0317934D01*
X0293590Y0311539D02*
X0297165Y0311539D01*
X0297165Y0313138D02*
X0294443Y0313138D01*
X0295296Y0314737D02*
X0297436Y0314737D01*
X0298098Y0316335D02*
X0296149Y0316335D01*
X0297001Y0317934D02*
X0299057Y0317934D01*
X0297854Y0319532D02*
X0300656Y0319532D01*
X0298707Y0321131D02*
X0303873Y0321131D01*
X0305134Y0322729D02*
X0299560Y0322729D01*
X0300413Y0324328D02*
X0305134Y0324328D01*
X0305134Y0322843D02*
X0307918Y0322843D01*
X0305134Y0322843D01*
X0307918Y0322843D02*
X0307918Y0322843D01*
X0307918Y0322843D01*
X0308283Y0322843D01*
X0311068Y0322843D01*
X0311068Y0322843D01*
X0311433Y0322843D01*
X0314217Y0322843D01*
X0314217Y0322843D01*
X0314217Y0322843D01*
X0314217Y0319764D01*
X0312996Y0319764D01*
X0312643Y0319859D01*
X0312289Y0319764D01*
X0311641Y0319764D01*
X0313978Y0317427D01*
X0315364Y0314082D01*
X0315364Y0313415D01*
X0320644Y0318695D01*
X0320644Y0320584D01*
X0321009Y0321467D01*
X0321685Y0322142D01*
X0322567Y0322507D01*
X0327065Y0322507D01*
X0327947Y0322142D01*
X0328622Y0321467D01*
X0328987Y0320584D01*
X0328987Y0317132D01*
X0329752Y0318131D01*
X0329752Y0318304D01*
X0330318Y0318870D01*
X0330805Y0319506D01*
X0330977Y0319529D01*
X0335933Y0324485D01*
X0337280Y0325832D01*
X0344142Y0325832D01*
X0344579Y0326021D01*
X0345057Y0325832D01*
X0345572Y0325832D01*
X0345908Y0325496D01*
X0357257Y0321008D01*
X0357856Y0321607D01*
X0362642Y0321607D01*
X0363520Y0320728D01*
X0363520Y0314144D01*
X0371943Y0322566D01*
X0371943Y0322566D01*
X0373173Y0323796D01*
X0383259Y0323796D01*
X0383625Y0323967D01*
X0384095Y0323796D01*
X0384595Y0323796D01*
X0384881Y0323511D01*
X0392444Y0320762D01*
X0393289Y0321607D01*
X0398075Y0321607D01*
X0398954Y0320728D01*
X0398954Y0314002D01*
X0403700Y0318749D01*
X0403700Y0319109D01*
X0396650Y0326158D01*
X0319752Y0326158D01*
X0319267Y0325673D01*
X0319456Y0325563D01*
X0319792Y0325228D01*
X0320029Y0324818D01*
X0320151Y0324360D01*
X0320151Y0322843D01*
X0317367Y0322843D01*
X0317367Y0319764D01*
X0318588Y0319764D01*
X0319046Y0319886D01*
X0319456Y0320123D01*
X0319792Y0320459D01*
X0320029Y0320869D01*
X0320151Y0321327D01*
X0320151Y0322843D01*
X0317367Y0322843D01*
X0317367Y0322843D01*
X0317367Y0319764D01*
X0316146Y0319764D01*
X0315792Y0319859D01*
X0315439Y0319764D01*
X0314217Y0319764D01*
X0314217Y0322843D01*
X0311068Y0322843D01*
X0311068Y0322843D01*
X0307918Y0322843D01*
X0305765Y0325926D02*
X0301266Y0325926D01*
X0311873Y0319532D02*
X0320644Y0319532D01*
X0320870Y0321131D02*
X0320099Y0321131D01*
X0320151Y0322729D02*
X0334177Y0322729D01*
X0332579Y0321131D02*
X0328761Y0321131D01*
X0328987Y0319532D02*
X0330980Y0319532D01*
X0329601Y0317934D02*
X0328987Y0317934D01*
X0332052Y0317351D02*
X0338233Y0323532D01*
X0344619Y0323532D01*
X0360249Y0317351D01*
X0363520Y0317934D02*
X0367310Y0317934D01*
X0368909Y0319532D02*
X0363520Y0319532D01*
X0363118Y0321131D02*
X0370507Y0321131D01*
X0372106Y0322729D02*
X0352904Y0322729D01*
X0348862Y0324328D02*
X0398481Y0324328D01*
X0396882Y0325926D02*
X0344820Y0325926D01*
X0344359Y0325926D02*
X0319520Y0325926D01*
X0320151Y0324328D02*
X0335776Y0324328D01*
X0332052Y0317351D02*
X0324816Y0307902D01*
X0316686Y0314737D02*
X0315093Y0314737D01*
X0314431Y0316335D02*
X0318284Y0316335D01*
X0319883Y0317934D02*
X0313472Y0317934D01*
X0314217Y0321131D02*
X0314217Y0321131D01*
X0314217Y0322729D02*
X0314217Y0322729D01*
X0314217Y0322843D02*
X0314217Y0322843D01*
X0314583Y0322843D01*
X0317367Y0322843D01*
X0317367Y0322843D01*
X0317367Y0322843D01*
X0314217Y0322843D01*
X0317367Y0322729D02*
X0317367Y0322729D01*
X0317367Y0321131D02*
X0317367Y0321131D01*
X0297381Y0309941D02*
X0292737Y0309941D01*
X0292654Y0308342D02*
X0298043Y0308342D01*
X0298925Y0306744D02*
X0292654Y0306744D01*
X0292654Y0305145D02*
X0300523Y0305145D01*
X0277486Y0284365D02*
X0276174Y0284365D01*
X0277773Y0282766D02*
X0281528Y0282766D01*
X0278888Y0281168D02*
X0285570Y0281168D01*
X0286111Y0279569D02*
X0279550Y0279569D01*
X0279931Y0277971D02*
X0286681Y0277971D01*
X0286637Y0276372D02*
X0279931Y0276372D01*
X0279825Y0274774D02*
X0286111Y0274774D01*
X0286111Y0273175D02*
X0279163Y0273175D01*
X0278437Y0271577D02*
X0286111Y0271577D01*
X0286111Y0269978D02*
X0276839Y0269978D01*
X0274185Y0268380D02*
X0286823Y0268380D01*
X0273443Y0285963D02*
X0268595Y0285963D01*
X0253950Y0281918D02*
X0239501Y0286918D01*
X0229965Y0286918D01*
X0224965Y0281918D01*
X0218517Y0272469D01*
X0231540Y0252666D02*
X0238320Y0252666D01*
X0253950Y0246485D01*
X0231540Y0252666D02*
X0225359Y0246485D01*
X0218517Y0237036D01*
X0210228Y0303547D02*
X0232686Y0303547D01*
X0229657Y0305145D02*
X0221788Y0305145D01*
X0221788Y0306744D02*
X0228059Y0306744D01*
X0227177Y0308342D02*
X0221788Y0308342D01*
X0222833Y0309941D02*
X0226515Y0309941D01*
X0226299Y0311539D02*
X0223990Y0311539D01*
X0225148Y0313138D02*
X0226299Y0313138D01*
X0226305Y0314737D02*
X0226570Y0314737D01*
X0225359Y0317351D02*
X0230359Y0322351D01*
X0239501Y0322351D01*
X0253950Y0317351D01*
X0250678Y0314737D02*
X0244227Y0314737D01*
X0244498Y0313138D02*
X0251514Y0313138D01*
X0250938Y0311539D02*
X0244498Y0311539D01*
X0244282Y0309941D02*
X0250678Y0309941D01*
X0250678Y0308342D02*
X0243619Y0308342D01*
X0242738Y0306744D02*
X0250678Y0306744D01*
X0250678Y0305145D02*
X0241140Y0305145D01*
X0238111Y0303547D02*
X0268119Y0303547D01*
X0265090Y0305145D02*
X0257221Y0305145D01*
X0257221Y0306744D02*
X0263492Y0306744D01*
X0262610Y0308342D02*
X0257360Y0308342D01*
X0258958Y0309941D02*
X0261948Y0309941D01*
X0261732Y0311539D02*
X0260557Y0311539D01*
X0249853Y0316335D02*
X0243565Y0316335D01*
X0242606Y0317934D02*
X0245234Y0317934D01*
X0225359Y0317351D02*
X0218517Y0307902D01*
X0215245Y0308342D02*
X0215023Y0308342D01*
X0215245Y0306744D02*
X0213425Y0306744D01*
X0211826Y0305145D02*
X0215245Y0305145D01*
X0218517Y0343335D02*
X0224178Y0352391D01*
X0231146Y0359359D01*
X0237532Y0359359D01*
X0253950Y0352784D01*
X0292033Y0339337D02*
X0292654Y0339958D01*
X0292654Y0345212D01*
X0300994Y0360804D01*
X0305533Y0360804D01*
X0306018Y0360318D01*
X0305829Y0360209D01*
X0305493Y0359874D01*
X0305257Y0359463D01*
X0305134Y0359005D01*
X0305134Y0357489D01*
X0307918Y0357489D01*
X0307918Y0357489D01*
X0305134Y0357489D01*
X0305134Y0356805D01*
X0304455Y0356805D01*
X0301110Y0355419D01*
X0298551Y0352860D01*
X0297165Y0349515D01*
X0297165Y0345896D01*
X0298551Y0342551D01*
X0301110Y0339992D01*
X0302691Y0339337D01*
X0292033Y0339337D01*
X0292654Y0340313D02*
X0300789Y0340313D01*
X0299191Y0341911D02*
X0292654Y0341911D01*
X0292654Y0343510D02*
X0298154Y0343510D01*
X0297491Y0345108D02*
X0292654Y0345108D01*
X0293454Y0346707D02*
X0297165Y0346707D01*
X0297165Y0348305D02*
X0294309Y0348305D01*
X0295164Y0349904D02*
X0297326Y0349904D01*
X0297988Y0351502D02*
X0296019Y0351502D01*
X0296874Y0353101D02*
X0298792Y0353101D01*
X0297729Y0354699D02*
X0300390Y0354699D01*
X0298584Y0356298D02*
X0303231Y0356298D01*
X0305134Y0357896D02*
X0299439Y0357896D01*
X0300294Y0359495D02*
X0305275Y0359495D01*
X0307918Y0357489D02*
X0311068Y0357489D01*
X0314217Y0357489D01*
X0314217Y0357489D01*
X0311433Y0357489D01*
X0311068Y0357489D01*
X0311068Y0357489D01*
X0308283Y0357489D01*
X0307918Y0357489D01*
X0307918Y0357489D01*
X0311068Y0357489D02*
X0311068Y0357489D01*
X0314217Y0357489D02*
X0314217Y0354409D01*
X0312996Y0354409D01*
X0312643Y0354504D01*
X0312399Y0354439D01*
X0313978Y0352860D01*
X0315364Y0349515D01*
X0315364Y0348484D01*
X0320644Y0354053D01*
X0320644Y0356018D01*
X0321009Y0356900D01*
X0321685Y0357575D01*
X0322567Y0357940D01*
X0327065Y0357940D01*
X0327947Y0357575D01*
X0328622Y0356900D01*
X0328987Y0356018D01*
X0328987Y0352240D01*
X0329752Y0353197D01*
X0329752Y0353343D01*
X0330335Y0353926D01*
X0330850Y0354571D01*
X0330996Y0354587D01*
X0335933Y0359524D01*
X0337213Y0360804D01*
X0319752Y0360804D01*
X0319267Y0360318D01*
X0319456Y0360209D01*
X0319792Y0359874D01*
X0320029Y0359463D01*
X0320151Y0359005D01*
X0320151Y0357489D01*
X0317367Y0357489D01*
X0317367Y0357489D01*
X0320151Y0357489D01*
X0320151Y0355972D01*
X0320029Y0355515D01*
X0319792Y0355104D01*
X0319456Y0354769D01*
X0319046Y0354532D01*
X0318588Y0354409D01*
X0317367Y0354409D01*
X0317367Y0357489D01*
X0317367Y0357489D01*
X0317367Y0357489D01*
X0314217Y0357489D01*
X0314217Y0357489D01*
X0314217Y0354409D01*
X0315439Y0354409D01*
X0315792Y0354504D01*
X0316146Y0354409D01*
X0317367Y0354409D01*
X0317367Y0357489D01*
X0314583Y0357489D01*
X0314217Y0357489D01*
X0314217Y0357489D01*
X0314217Y0356298D02*
X0314217Y0356298D01*
X0314217Y0354699D02*
X0314217Y0354699D01*
X0313738Y0353101D02*
X0319741Y0353101D01*
X0319336Y0354699D02*
X0320644Y0354699D01*
X0320760Y0356298D02*
X0320151Y0356298D01*
X0320151Y0357896D02*
X0322461Y0357896D01*
X0320010Y0359495D02*
X0335904Y0359495D01*
X0334305Y0357896D02*
X0327171Y0357896D01*
X0328871Y0356298D02*
X0332707Y0356298D01*
X0331108Y0354699D02*
X0328987Y0354699D01*
X0328987Y0353101D02*
X0329675Y0353101D01*
X0332052Y0352391D02*
X0338233Y0358572D01*
X0344619Y0358572D01*
X0360249Y0352784D01*
X0332052Y0352391D02*
X0324816Y0343335D01*
X0316710Y0349904D02*
X0315203Y0349904D01*
X0314541Y0351502D02*
X0318225Y0351502D01*
X0317367Y0354699D02*
X0317367Y0354699D01*
X0317367Y0356298D02*
X0317367Y0356298D01*
X0356946Y0321131D02*
X0357379Y0321131D01*
X0363520Y0316335D02*
X0365712Y0316335D01*
X0364113Y0314737D02*
X0363520Y0314737D01*
X0387031Y0322729D02*
X0400080Y0322729D01*
X0398551Y0321131D02*
X0401678Y0321131D01*
X0403277Y0319532D02*
X0398954Y0319532D01*
X0398954Y0317934D02*
X0402885Y0317934D01*
X0401286Y0316335D02*
X0398954Y0316335D01*
X0398954Y0314737D02*
X0399688Y0314737D01*
X0392812Y0321131D02*
X0391430Y0321131D01*
X0431115Y0343335D02*
X0438904Y0352391D01*
X0444385Y0357872D01*
X0451618Y0357872D01*
X0466548Y0352784D01*
X0507677Y0365889D02*
X0612008Y0365889D01*
X0612008Y0367487D02*
X0102402Y0367487D01*
X0102374Y0367365D02*
X0103063Y0370383D01*
X0102374Y0373401D01*
X0100444Y0375821D01*
X0097655Y0377164D01*
X0094559Y0377164D01*
X0091770Y0375821D01*
X0089840Y0373401D01*
X0089152Y0370383D01*
X0089152Y0370383D01*
X0089840Y0367365D01*
X0089840Y0367365D01*
X0091770Y0364945D01*
X0094559Y0363602D01*
X0097655Y0363602D01*
X0100444Y0364945D01*
X0102374Y0367365D01*
X0102374Y0367365D01*
X0102767Y0369086D02*
X0612008Y0369086D01*
X0612008Y0370684D02*
X0102994Y0370684D01*
X0102629Y0372283D02*
X0612008Y0372283D01*
X0612008Y0373881D02*
X0101990Y0373881D01*
X0102374Y0373401D02*
X0102374Y0373401D01*
X0100716Y0375480D02*
X0612008Y0375480D01*
X0612008Y0377078D02*
X0097832Y0377078D01*
X0100444Y0375821D02*
X0100444Y0375821D01*
X0094382Y0377078D02*
X0055639Y0377078D01*
X0055639Y0375480D02*
X0091499Y0375480D01*
X0091770Y0375821D02*
X0091770Y0375821D01*
X0091770Y0375821D01*
X0090224Y0373881D02*
X0055639Y0373881D01*
X0055639Y0372283D02*
X0089585Y0372283D01*
X0089840Y0373401D02*
X0089840Y0373401D01*
X0089220Y0370684D02*
X0055639Y0370684D01*
X0055639Y0369086D02*
X0089448Y0369086D01*
X0089812Y0367487D02*
X0055639Y0367487D01*
X0055639Y0365889D02*
X0091017Y0365889D01*
X0091770Y0364945D02*
X0091770Y0364945D01*
X0093129Y0364290D02*
X0055639Y0364290D01*
X0055639Y0378677D02*
X0612008Y0378677D01*
X0612008Y0380275D02*
X0055639Y0380275D01*
X0055639Y0381874D02*
X0612008Y0381874D01*
X0612008Y0383472D02*
X0062345Y0383472D01*
X0062294Y0383421D02*
X0063083Y0384210D01*
X0063510Y0385241D01*
X0063511Y0386357D01*
X0063084Y0387388D01*
X0062295Y0388177D01*
X0061265Y0388605D01*
X0060707Y0388605D01*
X0060699Y0388605D01*
X0060141Y0388605D01*
X0059110Y0388177D01*
X0058321Y0387388D01*
X0057895Y0386357D01*
X0057895Y0385241D01*
X0058323Y0384210D01*
X0059112Y0383421D01*
X0060143Y0382995D01*
X0060701Y0382995D01*
X0060705Y0382995D01*
X0061263Y0382995D01*
X0062294Y0383421D01*
X0063440Y0385071D02*
X0612008Y0385071D01*
X0612008Y0386670D02*
X0063382Y0386670D01*
X0062077Y0388268D02*
X0612008Y0388268D01*
X0612008Y0389867D02*
X0055639Y0389867D01*
X0055639Y0391465D02*
X0612008Y0391465D01*
X0612008Y0393064D02*
X0055639Y0393064D01*
X0055639Y0394662D02*
X0612008Y0394662D01*
X0611987Y0396261D02*
X0608397Y0396261D01*
X0609995Y0397859D02*
X0611884Y0397859D01*
X0611519Y0399458D02*
X0611099Y0399458D01*
X0597676Y0396261D02*
X0069971Y0396261D01*
X0071570Y0397859D02*
X0596077Y0397859D01*
X0594973Y0399458D02*
X0072674Y0399458D01*
X0073336Y0401056D02*
X0594311Y0401056D01*
X0593937Y0402655D02*
X0073710Y0402655D01*
X0073710Y0404253D02*
X0593937Y0404253D01*
X0594050Y0405852D02*
X0073597Y0405852D01*
X0072935Y0407450D02*
X0594712Y0407450D01*
X0595448Y0409049D02*
X0072199Y0409049D01*
X0070601Y0410647D02*
X0597047Y0410647D01*
X0598751Y0412246D02*
X0068897Y0412246D01*
X0056548Y0399458D02*
X0056128Y0399458D01*
X0055763Y0397859D02*
X0057652Y0397859D01*
X0059251Y0396261D02*
X0055660Y0396261D01*
X0055639Y0388268D02*
X0059329Y0388268D01*
X0058024Y0386670D02*
X0055639Y0386670D01*
X0055639Y0385071D02*
X0057966Y0385071D01*
X0059061Y0383472D02*
X0055639Y0383472D01*
X0099085Y0364290D02*
X0202475Y0364290D01*
X0204073Y0365889D02*
X0101197Y0365889D01*
X0100444Y0364945D02*
X0100444Y0364945D01*
X0100444Y0364945D01*
X0114572Y0357896D02*
X0121707Y0357896D01*
X0120108Y0356298D02*
X0116273Y0356298D01*
X0116389Y0354699D02*
X0118510Y0354699D01*
X0117077Y0353101D02*
X0116389Y0353101D01*
X0119454Y0352391D02*
X0126028Y0358965D01*
X0131627Y0358965D01*
X0119454Y0352391D02*
X0112217Y0343335D01*
X0431115Y0166170D02*
X0438832Y0175619D01*
X0443885Y0180672D01*
X0452046Y0180672D01*
X0466548Y0175619D01*
X0451713Y0145572D02*
X0444635Y0145572D01*
X0439249Y0140186D01*
X0431115Y0130737D01*
X0451713Y0145572D02*
X0466548Y0140186D01*
X0506944Y0116521D02*
X0612008Y0116521D01*
X0612008Y0114923D02*
X0508543Y0114923D01*
X0510141Y0113324D02*
X0612008Y0113324D01*
X0612008Y0111726D02*
X0511740Y0111726D01*
X0512400Y0110127D02*
X0612008Y0110127D01*
X0612008Y0108529D02*
X0521264Y0108529D01*
X0516462Y0108529D02*
X0512400Y0108529D01*
X0512400Y0106930D02*
X0513251Y0106930D01*
X0510033Y0102134D02*
X0509746Y0102134D01*
X0509764Y0100536D02*
X0508148Y0100536D01*
X0506549Y0098937D02*
X0509764Y0098937D01*
X0509981Y0097339D02*
X0504951Y0097339D01*
X0503686Y0095740D02*
X0510643Y0095740D01*
X0511527Y0094142D02*
X0503686Y0094142D01*
X0503686Y0092543D02*
X0513125Y0092543D01*
X0516159Y0090945D02*
X0486133Y0090945D01*
X0489168Y0092543D02*
X0497143Y0092543D01*
X0497143Y0094142D02*
X0490766Y0094142D01*
X0491649Y0095740D02*
X0497143Y0095740D01*
X0497143Y0097339D02*
X0492312Y0097339D01*
X0492529Y0098937D02*
X0497143Y0098937D01*
X0497143Y0102134D02*
X0492260Y0102134D01*
X0492529Y0100536D02*
X0502491Y0100536D01*
X0497143Y0103733D02*
X0491598Y0103733D01*
X0491908Y0105332D02*
X0490641Y0105332D01*
X0558344Y0078125D02*
X0558344Y0078125D01*
X0515179Y0178863D02*
X0513600Y0178863D01*
X0589094Y0313138D02*
X0612008Y0313138D01*
X0612008Y0314737D02*
X0589300Y0314737D01*
X0589300Y0316335D02*
X0612008Y0316335D01*
X0612008Y0317934D02*
X0589300Y0317934D01*
X0589300Y0319532D02*
X0612008Y0319532D01*
X0612008Y0321131D02*
X0589300Y0321131D01*
X0589300Y0322729D02*
X0612008Y0322729D01*
X0612008Y0324328D02*
X0589300Y0324328D01*
X0588591Y0325926D02*
X0612008Y0325926D01*
X0612008Y0327525D02*
X0579071Y0327525D01*
X0579176Y0329123D02*
X0612008Y0329123D01*
X0612008Y0330722D02*
X0578842Y0330722D01*
X0579176Y0332320D02*
X0612008Y0332320D01*
X0612008Y0333919D02*
X0579149Y0333919D01*
X0579120Y0335517D02*
X0612008Y0335517D01*
X0612008Y0337116D02*
X0579176Y0337116D01*
X0574489Y0340313D02*
X0524338Y0340313D01*
X0525937Y0341911D02*
X0574489Y0341911D01*
X0574489Y0343510D02*
X0526974Y0343510D01*
X0527636Y0345108D02*
X0574489Y0345108D01*
X0574489Y0346707D02*
X0527962Y0346707D01*
X0527962Y0348305D02*
X0574489Y0348305D01*
X0574489Y0349904D02*
X0527801Y0349904D01*
X0527139Y0351502D02*
X0612008Y0351502D01*
X0612008Y0349904D02*
X0589300Y0349904D01*
X0589300Y0348305D02*
X0612008Y0348305D01*
X0612008Y0346707D02*
X0589300Y0346707D01*
X0589300Y0345108D02*
X0612008Y0345108D01*
X0612008Y0343510D02*
X0589300Y0343510D01*
X0589300Y0341911D02*
X0612008Y0341911D01*
X0612008Y0340313D02*
X0589300Y0340313D01*
X0589300Y0338714D02*
X0612008Y0338714D01*
X0612008Y0353101D02*
X0526336Y0353101D01*
X0524737Y0354699D02*
X0612008Y0354699D01*
X0612008Y0356298D02*
X0521897Y0356298D01*
X0515829Y0356298D02*
X0515000Y0356298D01*
X0515000Y0357896D02*
X0612008Y0357896D01*
X0612008Y0359495D02*
X0514071Y0359495D01*
X0512472Y0361093D02*
X0612008Y0361093D01*
X0612008Y0362692D02*
X0510874Y0362692D01*
X0509275Y0364290D02*
X0612008Y0364290D01*
X0456122Y0317934D02*
X0455204Y0317934D01*
X0241224Y0106930D02*
X0241011Y0106930D01*
X0242609Y0105332D02*
X0245623Y0105332D01*
D16*
X0301535Y0109122D03*
X0302585Y0144972D03*
X0301785Y0180222D03*
X0302485Y0216022D03*
X0302235Y0251372D03*
X0301785Y0286472D03*
X0301535Y0322822D03*
X0301685Y0358122D03*
X0085077Y0387085D03*
X0544800Y0366800D03*
X0553800Y0368800D03*
X0553800Y0361800D03*
X0585800Y0331800D03*
X0556800Y0317800D03*
X0556800Y0310800D03*
X0548800Y0313800D03*
X0081963Y0061173D03*
D17*
X0183083Y0095304D02*
X0192616Y0104753D01*
X0204035Y0116922D01*
X0311068Y0116922D01*
X0311068Y0114772D01*
X0314217Y0114772D02*
X0314217Y0117022D01*
X0503615Y0117022D01*
X0510400Y0110237D01*
X0510400Y0105617D01*
X0500414Y0095631D01*
X0501981Y0130737D02*
X0510500Y0139256D01*
X0510500Y0147037D01*
X0504315Y0153222D01*
X0314217Y0153222D01*
X0314217Y0150599D01*
X0311068Y0150599D02*
X0311068Y0153322D01*
X0204285Y0153322D01*
X0191149Y0140186D01*
X0183083Y0130737D01*
X0183083Y0166170D02*
X0192232Y0175619D01*
X0204485Y0187872D01*
X0311068Y0187872D01*
X0311068Y0185639D01*
X0314217Y0185639D02*
X0314217Y0188122D01*
X0505215Y0188122D01*
X0511600Y0181737D01*
X0511600Y0175789D01*
X0501981Y0166170D01*
X0501981Y0201603D02*
X0511900Y0211522D01*
X0511900Y0217337D01*
X0504665Y0224572D01*
X0314217Y0224572D01*
X0314217Y0222253D01*
X0311068Y0222253D02*
X0311068Y0224372D01*
X0206535Y0224372D01*
X0193215Y0211052D01*
X0183083Y0201603D01*
X0183083Y0237036D02*
X0192648Y0246485D01*
X0205135Y0258972D01*
X0311068Y0258972D01*
X0311068Y0256898D01*
X0314217Y0256898D02*
X0314217Y0259022D01*
X0507615Y0259022D01*
X0513000Y0253637D01*
X0513000Y0248055D01*
X0501981Y0237036D01*
X0501981Y0272469D02*
X0513000Y0283488D01*
X0513000Y0287137D01*
X0505665Y0294472D01*
X0314217Y0294472D01*
X0314217Y0291938D01*
X0311068Y0291938D02*
X0311068Y0294422D01*
X0205185Y0294422D01*
X0192131Y0281918D01*
X0183083Y0272469D01*
X0183083Y0307902D02*
X0192814Y0317351D01*
X0206485Y0330422D01*
X0311068Y0330422D01*
X0311068Y0328158D01*
X0314217Y0328158D02*
X0314217Y0330372D01*
X0508965Y0330372D01*
X0514200Y0325137D01*
X0514200Y0320121D01*
X0501981Y0307902D01*
X0501981Y0343335D02*
X0513000Y0353961D01*
X0513000Y0357737D01*
X0505415Y0365322D01*
X0314217Y0365322D01*
X0314217Y0362804D01*
X0311068Y0362804D02*
X0311068Y0365272D01*
X0206285Y0365272D01*
X0193404Y0352391D01*
X0183083Y0343335D01*
X0289383Y0343335D02*
X0299796Y0362804D01*
X0307918Y0362804D01*
X0317367Y0362804D02*
X0400133Y0362804D01*
X0406400Y0356537D01*
X0406400Y0353660D01*
X0395682Y0343335D01*
X0397479Y0328158D02*
X0405700Y0319937D01*
X0405700Y0317920D01*
X0395682Y0307902D01*
X0399099Y0291938D02*
X0406300Y0284737D01*
X0406300Y0283087D01*
X0395682Y0272469D01*
X0400239Y0256898D02*
X0406700Y0250437D01*
X0406700Y0248054D01*
X0395682Y0237036D01*
X0397484Y0222253D02*
X0405000Y0214737D01*
X0405000Y0210921D01*
X0395682Y0201603D01*
X0400898Y0185639D02*
X0407100Y0179437D01*
X0407100Y0177588D01*
X0395682Y0166170D01*
X0400438Y0150599D02*
X0407000Y0144037D01*
X0407000Y0142055D01*
X0395682Y0130737D01*
X0399865Y0114772D02*
X0405600Y0109037D01*
X0405600Y0105222D01*
X0395682Y0095304D01*
X0399865Y0114772D02*
X0317367Y0114772D01*
X0307918Y0114772D02*
X0299402Y0114772D01*
X0289383Y0095304D01*
X0289383Y0130737D02*
X0299796Y0150599D01*
X0307918Y0150599D01*
X0317367Y0150599D02*
X0400438Y0150599D01*
X0400898Y0185639D02*
X0317367Y0185639D01*
X0307918Y0185639D02*
X0299402Y0185639D01*
X0289383Y0166170D01*
X0289383Y0201603D02*
X0300583Y0222253D01*
X0307918Y0222253D01*
X0317367Y0222253D02*
X0397484Y0222253D01*
X0400239Y0256898D02*
X0317367Y0256898D01*
X0307918Y0256898D02*
X0299796Y0256898D01*
X0289383Y0237036D01*
X0289383Y0272469D02*
X0299402Y0291938D01*
X0307918Y0291938D01*
X0317367Y0291938D02*
X0399099Y0291938D01*
X0397479Y0328158D02*
X0317367Y0328158D01*
X0307918Y0328158D02*
X0300190Y0328158D01*
X0289383Y0307902D01*
X0558863Y0335437D02*
X0559650Y0334650D01*
X0561516Y0332784D01*
X0565453Y0328847D01*
X0574414Y0328847D01*
X0574414Y0326879D02*
X0580879Y0326879D01*
X0585800Y0331800D01*
X0584816Y0330816D01*
X0574414Y0330816D01*
X0574414Y0332784D02*
X0561516Y0332784D01*
X0558863Y0335437D02*
X0560148Y0336721D01*
X0574414Y0336721D01*
X0574414Y0334753D02*
X0582847Y0334753D01*
X0585800Y0331800D01*
D18*
X0558863Y0335437D02*
X0429700Y0335437D01*
X0424100Y0341037D01*
X0424100Y0345376D01*
X0431115Y0352784D01*
X0429700Y0335437D02*
X0323700Y0335437D01*
X0317600Y0341537D01*
X0317600Y0345175D01*
X0324816Y0352784D01*
X0323700Y0335437D02*
X0216700Y0335437D01*
X0210800Y0341337D01*
X0210800Y0346137D01*
X0217800Y0353137D01*
X0217800Y0353107D01*
X0218517Y0352784D01*
X0216700Y0335437D02*
X0130303Y0335437D01*
X0112217Y0317351D01*
X0099700Y0324537D02*
X0099700Y0308937D01*
X0099700Y0294435D01*
X0112217Y0281918D01*
X0109600Y0299037D02*
X0200202Y0299037D01*
X0218517Y0317351D01*
X0200202Y0299037D02*
X0306502Y0299037D01*
X0324816Y0317351D01*
X0306502Y0299037D02*
X0412801Y0299037D01*
X0431115Y0317351D01*
X0412801Y0299037D02*
X0523200Y0299037D01*
X0535400Y0286837D01*
X0535400Y0272137D01*
X0527200Y0263937D01*
X0430700Y0263937D01*
X0424400Y0270237D01*
X0424400Y0275203D01*
X0431115Y0281918D01*
X0430700Y0263937D02*
X0323400Y0263937D01*
X0318000Y0269337D01*
X0318000Y0275102D01*
X0324816Y0281918D01*
X0323400Y0263937D02*
X0218200Y0263937D01*
X0211200Y0270937D01*
X0211200Y0274602D01*
X0218517Y0281918D01*
X0218200Y0263937D02*
X0128500Y0263937D01*
X0111500Y0246937D01*
X0111765Y0246937D01*
X0112217Y0246485D01*
X0100400Y0254437D02*
X0100400Y0234437D01*
X0100400Y0222837D01*
X0111500Y0211737D01*
X0111532Y0211737D01*
X0112217Y0211052D01*
X0110100Y0193337D02*
X0101100Y0184337D01*
X0101100Y0164337D01*
X0101100Y0153037D01*
X0112500Y0141637D01*
X0112500Y0140469D01*
X0112217Y0140186D01*
X0107000Y0158437D02*
X0201800Y0158437D01*
X0201800Y0158902D01*
X0218517Y0175619D01*
X0217800Y0193337D02*
X0211900Y0199237D01*
X0211900Y0204435D01*
X0218517Y0211052D01*
X0217800Y0193337D02*
X0130100Y0193337D01*
X0113600Y0176837D01*
X0113435Y0176837D01*
X0112217Y0175619D01*
X0101100Y0164337D02*
X0107000Y0158437D01*
X0110100Y0193337D02*
X0130100Y0193337D01*
X0105100Y0229737D02*
X0203000Y0229737D01*
X0203000Y0230969D01*
X0218517Y0246485D01*
X0203000Y0229737D02*
X0308068Y0229737D01*
X0324816Y0246485D01*
X0308068Y0229737D02*
X0414367Y0229737D01*
X0431115Y0246485D01*
X0414367Y0229737D02*
X0526000Y0229737D01*
X0534500Y0221237D01*
X0534500Y0201837D01*
X0526000Y0193337D01*
X0429600Y0193337D01*
X0422700Y0200237D01*
X0422700Y0202637D01*
X0431115Y0211052D01*
X0429600Y0193337D02*
X0325100Y0193337D01*
X0318000Y0200437D01*
X0318000Y0204236D01*
X0324816Y0211052D01*
X0325100Y0193337D02*
X0217800Y0193337D01*
X0201800Y0158437D02*
X0307634Y0158437D01*
X0324816Y0175619D01*
X0307634Y0158437D02*
X0413933Y0158437D01*
X0431115Y0175619D01*
X0413933Y0158437D02*
X0526700Y0158437D01*
X0535200Y0149937D01*
X0535200Y0129137D01*
X0527200Y0121137D01*
X0433100Y0121137D01*
X0423900Y0130337D01*
X0423900Y0132971D01*
X0431115Y0140186D01*
X0433100Y0121137D02*
X0324900Y0121137D01*
X0317300Y0128737D01*
X0317300Y0132670D01*
X0324816Y0140186D01*
X0324900Y0121137D02*
X0219700Y0121137D01*
X0211200Y0129637D01*
X0211200Y0132869D01*
X0218517Y0140186D01*
X0219700Y0121137D02*
X0127300Y0121137D01*
X0112000Y0105837D01*
X0112000Y0104970D01*
X0112217Y0104753D01*
X0100400Y0110937D02*
X0100400Y0094537D01*
X0108900Y0086037D01*
X0199900Y0086037D01*
X0199900Y0086136D01*
X0218517Y0104753D01*
X0199900Y0086037D02*
X0306100Y0086037D01*
X0324816Y0104753D01*
X0306100Y0086037D02*
X0421500Y0086037D01*
X0425800Y0090337D01*
X0425800Y0098037D01*
X0431115Y0103352D01*
X0431115Y0104753D01*
X0127300Y0121137D02*
X0110600Y0121137D01*
X0100400Y0110937D01*
X0105100Y0229737D02*
X0100400Y0234437D01*
X0100400Y0254437D02*
X0109900Y0263937D01*
X0128500Y0263937D01*
X0109600Y0299037D02*
X0099700Y0308937D01*
X0099700Y0324537D02*
X0110600Y0335437D01*
X0109100Y0335437D01*
X0105100Y0339437D01*
X0105100Y0347437D01*
X0111000Y0353337D01*
X0111271Y0353337D01*
X0112217Y0352784D01*
X0110600Y0335437D02*
X0130303Y0335437D01*
D19*
X0147650Y0343335D02*
X0154887Y0352391D01*
X0161461Y0358965D01*
X0167060Y0358965D01*
X0183083Y0352784D01*
X0168241Y0322745D02*
X0160280Y0322745D01*
X0154887Y0317351D01*
X0147650Y0307902D01*
X0168241Y0322745D02*
X0183083Y0317351D01*
X0168635Y0286918D02*
X0162099Y0286918D01*
X0147650Y0272469D01*
X0168635Y0286918D02*
X0183083Y0281918D01*
X0169422Y0250698D02*
X0160280Y0250698D01*
X0156068Y0246485D01*
X0147650Y0237036D01*
X0169422Y0250698D02*
X0183083Y0246485D01*
X0167847Y0216839D02*
X0161461Y0216839D01*
X0155674Y0211052D01*
X0147650Y0201603D01*
X0167847Y0216839D02*
X0183083Y0211052D01*
X0169422Y0179831D02*
X0159887Y0179831D01*
X0155674Y0175619D01*
X0147650Y0166170D01*
X0169422Y0179831D02*
X0183083Y0175619D01*
X0169028Y0144792D02*
X0160674Y0144792D01*
X0156068Y0140186D01*
X0147650Y0130737D01*
X0169028Y0144792D02*
X0183083Y0140186D01*
X0169422Y0108965D02*
X0161461Y0108965D01*
X0157249Y0104753D01*
X0147650Y0095304D01*
X0169422Y0108965D02*
X0183083Y0104753D01*
X0253950Y0095304D02*
X0261580Y0104753D01*
X0266580Y0109753D01*
X0274934Y0109753D01*
X0289383Y0104753D01*
X0253950Y0130737D02*
X0261973Y0140186D01*
X0267367Y0145580D01*
X0274540Y0145580D01*
X0289383Y0140186D01*
X0253950Y0166170D02*
X0261973Y0175619D01*
X0266580Y0180225D01*
X0275328Y0180225D01*
X0289383Y0175619D01*
X0253950Y0201603D02*
X0261186Y0211052D01*
X0266186Y0216052D01*
X0274934Y0216052D01*
X0289383Y0211052D01*
X0253950Y0237036D02*
X0261186Y0246485D01*
X0266186Y0251485D01*
X0274934Y0251485D01*
X0289383Y0246485D01*
X0253950Y0272469D02*
X0261580Y0281918D01*
X0267761Y0288099D01*
X0273753Y0288099D01*
X0289383Y0281918D01*
X0253950Y0307902D02*
X0267615Y0321568D01*
X0277779Y0321568D01*
X0289383Y0317351D01*
X0253950Y0343335D02*
X0261580Y0352391D01*
X0267367Y0358178D01*
X0274146Y0358178D01*
X0289383Y0352784D01*
X0360249Y0343335D02*
X0367485Y0352391D01*
X0374454Y0359359D01*
X0379265Y0359359D01*
X0395682Y0352784D01*
X0383725Y0321696D02*
X0374043Y0321696D01*
X0360249Y0307902D01*
X0383725Y0321696D02*
X0395682Y0317351D01*
X0380839Y0287312D02*
X0374060Y0287312D01*
X0368666Y0281918D01*
X0360249Y0272469D01*
X0380839Y0287312D02*
X0395682Y0281918D01*
X0381233Y0251485D02*
X0372879Y0251485D01*
X0367879Y0246485D01*
X0360249Y0237036D01*
X0381233Y0251485D02*
X0395682Y0246485D01*
X0381627Y0215658D02*
X0373666Y0215658D01*
X0369060Y0211052D01*
X0360249Y0201603D01*
X0381627Y0215658D02*
X0395682Y0211052D01*
X0381233Y0180619D02*
X0373272Y0180619D01*
X0368272Y0175619D01*
X0360249Y0166170D01*
X0381233Y0180619D02*
X0395682Y0175619D01*
X0381233Y0145186D02*
X0372879Y0145186D01*
X0367879Y0140186D01*
X0360249Y0130737D01*
X0381233Y0145186D02*
X0395682Y0140186D01*
X0382020Y0108965D02*
X0373272Y0108965D01*
X0369060Y0104753D01*
X0360249Y0095304D01*
X0382020Y0108965D02*
X0395682Y0104753D01*
X0466548Y0095304D02*
X0475366Y0104753D01*
X0479485Y0108872D01*
X0487173Y0108872D01*
X0500414Y0105080D01*
X0466548Y0130737D02*
X0474649Y0140186D01*
X0478935Y0144472D01*
X0488246Y0144472D01*
X0501981Y0140186D01*
X0466548Y0166170D02*
X0474082Y0175619D01*
X0478385Y0179922D01*
X0488229Y0179922D01*
X0501981Y0175619D01*
X0466548Y0201603D02*
X0474315Y0211052D01*
X0478235Y0214972D01*
X0488612Y0214972D01*
X0501981Y0211052D01*
X0466548Y0237036D02*
X0474798Y0246485D01*
X0478935Y0250622D01*
X0488395Y0250622D01*
X0501981Y0246485D01*
X0466548Y0272469D02*
X0474481Y0281918D01*
X0479335Y0286772D01*
X0487678Y0286772D01*
X0501981Y0281918D01*
X0466548Y0307902D02*
X0474114Y0317351D01*
X0478235Y0321472D01*
X0488411Y0321472D01*
X0501981Y0317351D01*
X0466548Y0343335D02*
X0474204Y0352391D01*
X0479135Y0357322D01*
X0487601Y0357322D01*
X0501981Y0352784D01*
M02*
