%
M48
M72
T01C0.02362
T02C0.05118
T03C0.12598
%
T01
X81963Y61173
X301535Y109122
X302585Y144972
X301785Y180222
X302485Y216022
X302235Y251372
X301785Y286472
X301535Y322822
X301685Y358122
X85077Y387085
T02
X598371Y304709
X598371Y284709
T03
X64611Y43611
X129099Y99674
X164532Y99674
X199965Y99674
X235398Y99674
X270831Y99674
X306265Y99674
X341698Y99674
X377131Y99674
X412564Y99674
X447997Y99674
X483430Y99674
X518863Y99674
X518863Y135107
X483430Y135107
X447997Y135107
X412564Y135107
X377131Y135107
X341698Y135107
X306265Y135107
X270831Y135107
X235398Y135107
X199965Y135107
X164532Y135107
X129099Y135107
X129099Y170540
X164532Y170540
X199965Y170540
X235398Y170540
X270831Y170540
X306265Y170540
X341698Y170540
X377131Y170540
X412564Y170540
X447997Y170540
X483430Y170540
X518863Y170540
X518863Y205973
X483430Y205973
X447997Y205973
X412564Y205973
X377131Y205973
X341698Y205973
X306265Y205973
X270831Y205973
X235398Y205973
X199965Y205973
X164532Y205973
X129099Y205973
X129099Y241406
X164532Y241406
X199965Y241406
X235398Y241406
X270831Y241406
X306265Y241406
X341698Y241406
X377131Y241406
X412564Y241406
X447997Y241406
X483430Y241406
X518863Y241406
X518863Y276839
X483430Y276839
X447997Y276839
X412564Y276839
X377131Y276839
X341698Y276839
X306265Y276839
X270831Y276839
X235398Y276839
X199965Y276839
X164532Y276839
X129099Y276839
X129099Y312272
X164532Y312272
X199965Y312272
X235398Y312272
X270831Y312272
X306265Y312272
X341698Y312272
X377131Y312272
X412564Y312272
X447997Y312272
X483430Y312272
X518863Y312272
X518863Y347706
X483430Y347706
X447997Y347706
X412564Y347706
X377131Y347706
X341698Y347706
X306265Y347706
X270831Y347706
X235398Y347706
X199965Y347706
X164532Y347706
X129099Y347706
X64611Y403769
X603036Y403769
X603036Y43611
M30
