G75*
%MOIN*%
%OFA0B0*%
%FSLAX25Y25*%
%IPPOS*%
%LPD*%
%AMOC8*
5,1,8,0,0,1.08239X$1,22.5*
%
%ADD10C,0.01600*%
%ADD11R,0.03962X0.03962*%
D10*
X0056277Y0047269D02*
X0055745Y0049599D01*
X0055639Y0051485D01*
X0055639Y0395894D01*
X0055745Y0397781D01*
X0056277Y0400111D01*
X0056897Y0398614D01*
X0059457Y0396055D01*
X0062801Y0394669D01*
X0066421Y0394669D01*
X0069765Y0396055D01*
X0072325Y0398614D01*
X0073710Y0401959D01*
X0073710Y0405578D01*
X0072325Y0408923D01*
X0069765Y0411482D01*
X0068269Y0412102D01*
X0070599Y0412634D01*
X0072485Y0412740D01*
X0595162Y0412740D01*
X0597048Y0412634D01*
X0599379Y0412102D01*
X0597882Y0411482D01*
X0595322Y0408923D01*
X0593937Y0405578D01*
X0593937Y0401959D01*
X0595322Y0398614D01*
X0597882Y0396055D01*
X0601226Y0394669D01*
X0604846Y0394669D01*
X0608191Y0396055D01*
X0610750Y0398614D01*
X0611370Y0400111D01*
X0611902Y0397781D01*
X0612008Y0395894D01*
X0612008Y0051485D01*
X0611902Y0049599D01*
X0611370Y0047269D01*
X0610750Y0048765D01*
X0608191Y0051325D01*
X0604846Y0052710D01*
X0601226Y0052710D01*
X0597882Y0051325D01*
X0595322Y0048765D01*
X0593937Y0045421D01*
X0593937Y0041801D01*
X0595322Y0038457D01*
X0597882Y0035897D01*
X0599379Y0035277D01*
X0597048Y0034745D01*
X0595162Y0034639D01*
X0072485Y0034639D01*
X0070599Y0034745D01*
X0068269Y0035277D01*
X0069765Y0035897D01*
X0072325Y0038457D01*
X0073710Y0041801D01*
X0073710Y0045421D01*
X0072325Y0048765D01*
X0069765Y0051325D01*
X0066421Y0052710D01*
X0062801Y0052710D01*
X0059457Y0051325D01*
X0056897Y0048765D01*
X0056277Y0047269D01*
X0056159Y0047785D02*
X0056491Y0047785D01*
X0055794Y0049384D02*
X0057515Y0049384D01*
X0059114Y0050982D02*
X0055668Y0050982D01*
X0055639Y0052581D02*
X0062488Y0052581D01*
X0066734Y0052581D02*
X0600913Y0052581D01*
X0597539Y0050982D02*
X0070108Y0050982D01*
X0071707Y0049384D02*
X0595941Y0049384D01*
X0594916Y0047785D02*
X0072731Y0047785D01*
X0073393Y0046187D02*
X0594254Y0046187D01*
X0593937Y0044588D02*
X0073710Y0044588D01*
X0073710Y0042990D02*
X0593937Y0042990D01*
X0594107Y0041391D02*
X0073540Y0041391D01*
X0072878Y0039793D02*
X0594769Y0039793D01*
X0595585Y0038194D02*
X0072062Y0038194D01*
X0070464Y0036596D02*
X0597183Y0036596D01*
X0598151Y0034997D02*
X0069496Y0034997D01*
X0055639Y0054179D02*
X0612008Y0054179D01*
X0612008Y0052581D02*
X0605159Y0052581D01*
X0608533Y0050982D02*
X0611980Y0050982D01*
X0611853Y0049384D02*
X0610132Y0049384D01*
X0611156Y0047785D02*
X0611488Y0047785D01*
X0612008Y0055778D02*
X0055639Y0055778D01*
X0055639Y0057376D02*
X0612008Y0057376D01*
X0612008Y0058975D02*
X0055639Y0058975D01*
X0055639Y0060573D02*
X0612008Y0060573D01*
X0612008Y0062172D02*
X0055639Y0062172D01*
X0055639Y0063770D02*
X0612008Y0063770D01*
X0612008Y0065369D02*
X0055639Y0065369D01*
X0055639Y0066967D02*
X0612008Y0066967D01*
X0612008Y0068566D02*
X0055639Y0068566D01*
X0055639Y0070164D02*
X0612008Y0070164D01*
X0612008Y0071763D02*
X0055639Y0071763D01*
X0055639Y0073361D02*
X0612008Y0073361D01*
X0612008Y0074960D02*
X0055639Y0074960D01*
X0055639Y0076558D02*
X0612008Y0076558D01*
X0612008Y0078157D02*
X0055639Y0078157D01*
X0055639Y0079755D02*
X0612008Y0079755D01*
X0612008Y0081354D02*
X0055639Y0081354D01*
X0055639Y0082952D02*
X0612008Y0082952D01*
X0612008Y0084551D02*
X0055639Y0084551D01*
X0055639Y0086149D02*
X0612008Y0086149D01*
X0612008Y0087748D02*
X0055639Y0087748D01*
X0055639Y0089346D02*
X0612008Y0089346D01*
X0612008Y0090945D02*
X0521566Y0090945D01*
X0520673Y0090575D02*
X0524017Y0091960D01*
X0526577Y0094520D01*
X0527962Y0097864D01*
X0527962Y0101484D01*
X0526577Y0104828D01*
X0524017Y0107388D01*
X0520673Y0108773D01*
X0517053Y0108773D01*
X0513709Y0107388D01*
X0511149Y0104828D01*
X0509764Y0101484D01*
X0509764Y0097864D01*
X0511149Y0094520D01*
X0513709Y0091960D01*
X0517053Y0090575D01*
X0520673Y0090575D01*
X0524601Y0092543D02*
X0612008Y0092543D01*
X0612008Y0094142D02*
X0526199Y0094142D01*
X0527083Y0095740D02*
X0612008Y0095740D01*
X0612008Y0097339D02*
X0527745Y0097339D01*
X0527962Y0098937D02*
X0612008Y0098937D01*
X0612008Y0100536D02*
X0527962Y0100536D01*
X0527693Y0102134D02*
X0612008Y0102134D01*
X0612008Y0103733D02*
X0527031Y0103733D01*
X0526074Y0105332D02*
X0612008Y0105332D01*
X0612008Y0106930D02*
X0524475Y0106930D01*
X0521264Y0108529D02*
X0612008Y0108529D01*
X0612008Y0110127D02*
X0055639Y0110127D01*
X0055639Y0108529D02*
X0126699Y0108529D01*
X0127289Y0108773D02*
X0123945Y0107388D01*
X0121385Y0104828D01*
X0120000Y0101484D01*
X0120000Y0097864D01*
X0121385Y0094520D01*
X0123945Y0091960D01*
X0127289Y0090575D01*
X0130909Y0090575D01*
X0134253Y0091960D01*
X0136813Y0094520D01*
X0138198Y0097864D01*
X0138198Y0101484D01*
X0136813Y0104828D01*
X0134253Y0107388D01*
X0130909Y0108773D01*
X0127289Y0108773D01*
X0131500Y0108529D02*
X0162132Y0108529D01*
X0162722Y0108773D02*
X0159378Y0107388D01*
X0156818Y0104828D01*
X0155433Y0101484D01*
X0155433Y0097864D01*
X0156818Y0094520D01*
X0159378Y0091960D01*
X0162722Y0090575D01*
X0166342Y0090575D01*
X0169687Y0091960D01*
X0172246Y0094520D01*
X0173631Y0097864D01*
X0173631Y0101484D01*
X0172246Y0104828D01*
X0169687Y0107388D01*
X0166342Y0108773D01*
X0162722Y0108773D01*
X0166933Y0108529D02*
X0197565Y0108529D01*
X0198155Y0108773D02*
X0194811Y0107388D01*
X0192251Y0104828D01*
X0190866Y0101484D01*
X0190866Y0097864D01*
X0192251Y0094520D01*
X0194811Y0091960D01*
X0198155Y0090575D01*
X0201775Y0090575D01*
X0205120Y0091960D01*
X0207679Y0094520D01*
X0209065Y0097864D01*
X0209065Y0101484D01*
X0207679Y0104828D01*
X0205120Y0107388D01*
X0201775Y0108773D01*
X0198155Y0108773D01*
X0202366Y0108529D02*
X0232998Y0108529D01*
X0233588Y0108773D02*
X0230244Y0107388D01*
X0227684Y0104828D01*
X0226299Y0101484D01*
X0226299Y0097864D01*
X0227684Y0094520D01*
X0230244Y0091960D01*
X0233588Y0090575D01*
X0237208Y0090575D01*
X0240553Y0091960D01*
X0243112Y0094520D01*
X0244498Y0097864D01*
X0244498Y0101484D01*
X0243112Y0104828D01*
X0240553Y0107388D01*
X0237208Y0108773D01*
X0233588Y0108773D01*
X0237799Y0108529D02*
X0268431Y0108529D01*
X0269022Y0108773D02*
X0265677Y0107388D01*
X0263118Y0104828D01*
X0261732Y0101484D01*
X0261732Y0097864D01*
X0263118Y0094520D01*
X0265677Y0091960D01*
X0269022Y0090575D01*
X0272641Y0090575D01*
X0275986Y0091960D01*
X0278545Y0094520D01*
X0279931Y0097864D01*
X0279931Y0101484D01*
X0278545Y0104828D01*
X0275986Y0107388D01*
X0272641Y0108773D01*
X0269022Y0108773D01*
X0273232Y0108529D02*
X0303864Y0108529D01*
X0304455Y0108773D02*
X0301110Y0107388D01*
X0298551Y0104828D01*
X0297165Y0101484D01*
X0297165Y0097864D01*
X0298551Y0094520D01*
X0301110Y0091960D01*
X0304455Y0090575D01*
X0308075Y0090575D01*
X0311419Y0091960D01*
X0313978Y0094520D01*
X0315364Y0097864D01*
X0315364Y0101484D01*
X0313978Y0104828D01*
X0311419Y0107388D01*
X0308075Y0108773D01*
X0304455Y0108773D01*
X0308665Y0108529D02*
X0339297Y0108529D01*
X0339888Y0108773D02*
X0336543Y0107388D01*
X0333984Y0104828D01*
X0332598Y0101484D01*
X0332598Y0097864D01*
X0333984Y0094520D01*
X0336543Y0091960D01*
X0339888Y0090575D01*
X0343508Y0090575D01*
X0346852Y0091960D01*
X0349412Y0094520D01*
X0350797Y0097864D01*
X0350797Y0101484D01*
X0349412Y0104828D01*
X0346852Y0107388D01*
X0343508Y0108773D01*
X0339888Y0108773D01*
X0344098Y0108529D02*
X0374730Y0108529D01*
X0375321Y0108773D02*
X0371976Y0107388D01*
X0369417Y0104828D01*
X0368031Y0101484D01*
X0368031Y0097864D01*
X0369417Y0094520D01*
X0371976Y0091960D01*
X0375321Y0090575D01*
X0378941Y0090575D01*
X0382285Y0091960D01*
X0384845Y0094520D01*
X0386230Y0097864D01*
X0386230Y0101484D01*
X0384845Y0104828D01*
X0382285Y0107388D01*
X0378941Y0108773D01*
X0375321Y0108773D01*
X0379531Y0108529D02*
X0410163Y0108529D01*
X0410754Y0108773D02*
X0407409Y0107388D01*
X0404850Y0104828D01*
X0403465Y0101484D01*
X0403465Y0097864D01*
X0404850Y0094520D01*
X0407409Y0091960D01*
X0410754Y0090575D01*
X0414374Y0090575D01*
X0417718Y0091960D01*
X0420278Y0094520D01*
X0421663Y0097864D01*
X0421663Y0101484D01*
X0420278Y0104828D01*
X0417718Y0107388D01*
X0414374Y0108773D01*
X0410754Y0108773D01*
X0414964Y0108529D02*
X0445596Y0108529D01*
X0446187Y0108773D02*
X0442843Y0107388D01*
X0440283Y0104828D01*
X0438898Y0101484D01*
X0438898Y0097864D01*
X0440283Y0094520D01*
X0442843Y0091960D01*
X0446187Y0090575D01*
X0449807Y0090575D01*
X0453151Y0091960D01*
X0455711Y0094520D01*
X0457096Y0097864D01*
X0457096Y0101484D01*
X0455711Y0104828D01*
X0453151Y0107388D01*
X0449807Y0108773D01*
X0446187Y0108773D01*
X0450397Y0108529D02*
X0481029Y0108529D01*
X0481620Y0108773D02*
X0478276Y0107388D01*
X0475716Y0104828D01*
X0474331Y0101484D01*
X0474331Y0097864D01*
X0475716Y0094520D01*
X0478276Y0091960D01*
X0481620Y0090575D01*
X0485240Y0090575D01*
X0488584Y0091960D01*
X0491144Y0094520D01*
X0492529Y0097864D01*
X0492529Y0101484D01*
X0491144Y0104828D01*
X0488584Y0107388D01*
X0485240Y0108773D01*
X0481620Y0108773D01*
X0485831Y0108529D02*
X0516462Y0108529D01*
X0513251Y0106930D02*
X0489042Y0106930D01*
X0490641Y0105332D02*
X0511652Y0105332D01*
X0510695Y0103733D02*
X0491598Y0103733D01*
X0492260Y0102134D02*
X0510033Y0102134D01*
X0509764Y0100536D02*
X0492529Y0100536D01*
X0492529Y0098937D02*
X0509764Y0098937D01*
X0509981Y0097339D02*
X0492312Y0097339D01*
X0491649Y0095740D02*
X0510643Y0095740D01*
X0511527Y0094142D02*
X0490766Y0094142D01*
X0489168Y0092543D02*
X0513125Y0092543D01*
X0516159Y0090945D02*
X0486133Y0090945D01*
X0480726Y0090945D02*
X0450700Y0090945D01*
X0453734Y0092543D02*
X0477692Y0092543D01*
X0476094Y0094142D02*
X0455333Y0094142D01*
X0456216Y0095740D02*
X0475210Y0095740D01*
X0474548Y0097339D02*
X0456879Y0097339D01*
X0457096Y0098937D02*
X0474331Y0098937D01*
X0474331Y0100536D02*
X0457096Y0100536D01*
X0456827Y0102134D02*
X0474600Y0102134D01*
X0475262Y0103733D02*
X0456164Y0103733D01*
X0455208Y0105332D02*
X0476219Y0105332D01*
X0477818Y0106930D02*
X0453609Y0106930D01*
X0442385Y0106930D02*
X0418176Y0106930D01*
X0419774Y0105332D02*
X0440786Y0105332D01*
X0439829Y0103733D02*
X0420731Y0103733D01*
X0421394Y0102134D02*
X0439167Y0102134D01*
X0438898Y0100536D02*
X0421663Y0100536D01*
X0421663Y0098937D02*
X0438898Y0098937D01*
X0439115Y0097339D02*
X0421445Y0097339D01*
X0420783Y0095740D02*
X0439777Y0095740D01*
X0440661Y0094142D02*
X0419900Y0094142D01*
X0418301Y0092543D02*
X0442259Y0092543D01*
X0445293Y0090945D02*
X0415267Y0090945D01*
X0409860Y0090945D02*
X0379834Y0090945D01*
X0382868Y0092543D02*
X0406826Y0092543D01*
X0405228Y0094142D02*
X0384467Y0094142D01*
X0385350Y0095740D02*
X0404344Y0095740D01*
X0403682Y0097339D02*
X0386012Y0097339D01*
X0386230Y0098937D02*
X0403465Y0098937D01*
X0403465Y0100536D02*
X0386230Y0100536D01*
X0385960Y0102134D02*
X0403734Y0102134D01*
X0404396Y0103733D02*
X0385298Y0103733D01*
X0384341Y0105332D02*
X0405353Y0105332D01*
X0406952Y0106930D02*
X0382743Y0106930D01*
X0371519Y0106930D02*
X0347310Y0106930D01*
X0348908Y0105332D02*
X0369920Y0105332D01*
X0368963Y0103733D02*
X0349865Y0103733D01*
X0350527Y0102134D02*
X0368301Y0102134D01*
X0368031Y0100536D02*
X0350797Y0100536D01*
X0350797Y0098937D02*
X0368031Y0098937D01*
X0368249Y0097339D02*
X0350579Y0097339D01*
X0349917Y0095740D02*
X0368911Y0095740D01*
X0369795Y0094142D02*
X0349034Y0094142D01*
X0347435Y0092543D02*
X0371393Y0092543D01*
X0374427Y0090945D02*
X0344401Y0090945D01*
X0338994Y0090945D02*
X0308968Y0090945D01*
X0312002Y0092543D02*
X0335960Y0092543D01*
X0334361Y0094142D02*
X0313601Y0094142D01*
X0314484Y0095740D02*
X0333478Y0095740D01*
X0332816Y0097339D02*
X0315146Y0097339D01*
X0315364Y0098937D02*
X0332598Y0098937D01*
X0332598Y0100536D02*
X0315364Y0100536D01*
X0315094Y0102134D02*
X0332868Y0102134D01*
X0333530Y0103733D02*
X0314432Y0103733D01*
X0313475Y0105332D02*
X0334487Y0105332D01*
X0336085Y0106930D02*
X0311877Y0106930D01*
X0300652Y0106930D02*
X0276444Y0106930D01*
X0278042Y0105332D02*
X0299054Y0105332D01*
X0298097Y0103733D02*
X0278999Y0103733D01*
X0279661Y0102134D02*
X0297435Y0102134D01*
X0297165Y0100536D02*
X0279931Y0100536D01*
X0279931Y0098937D02*
X0297165Y0098937D01*
X0297383Y0097339D02*
X0279713Y0097339D01*
X0279051Y0095740D02*
X0298045Y0095740D01*
X0298928Y0094142D02*
X0278168Y0094142D01*
X0276569Y0092543D02*
X0300527Y0092543D01*
X0303561Y0090945D02*
X0273535Y0090945D01*
X0268128Y0090945D02*
X0238102Y0090945D01*
X0241136Y0092543D02*
X0265094Y0092543D01*
X0263495Y0094142D02*
X0242735Y0094142D01*
X0243618Y0095740D02*
X0262612Y0095740D01*
X0261950Y0097339D02*
X0244280Y0097339D01*
X0244498Y0098937D02*
X0261732Y0098937D01*
X0261732Y0100536D02*
X0244498Y0100536D01*
X0244228Y0102134D02*
X0262002Y0102134D01*
X0262664Y0103733D02*
X0243566Y0103733D01*
X0242609Y0105332D02*
X0263621Y0105332D01*
X0265219Y0106930D02*
X0241011Y0106930D01*
X0229786Y0106930D02*
X0205578Y0106930D01*
X0207176Y0105332D02*
X0228188Y0105332D01*
X0227231Y0103733D02*
X0208133Y0103733D01*
X0208795Y0102134D02*
X0226569Y0102134D01*
X0226299Y0100536D02*
X0209065Y0100536D01*
X0209065Y0098937D02*
X0226299Y0098937D01*
X0226517Y0097339D02*
X0208847Y0097339D01*
X0208185Y0095740D02*
X0227179Y0095740D01*
X0228062Y0094142D02*
X0207302Y0094142D01*
X0205703Y0092543D02*
X0229661Y0092543D01*
X0232695Y0090945D02*
X0202669Y0090945D01*
X0197262Y0090945D02*
X0167236Y0090945D01*
X0170270Y0092543D02*
X0194228Y0092543D01*
X0192629Y0094142D02*
X0171868Y0094142D01*
X0172752Y0095740D02*
X0191746Y0095740D01*
X0191084Y0097339D02*
X0173414Y0097339D01*
X0173631Y0098937D02*
X0190866Y0098937D01*
X0190866Y0100536D02*
X0173631Y0100536D01*
X0173362Y0102134D02*
X0191136Y0102134D01*
X0191798Y0103733D02*
X0172700Y0103733D01*
X0171743Y0105332D02*
X0192755Y0105332D01*
X0194353Y0106930D02*
X0170144Y0106930D01*
X0158920Y0106930D02*
X0134711Y0106930D01*
X0136310Y0105332D02*
X0157322Y0105332D01*
X0156365Y0103733D02*
X0137267Y0103733D01*
X0137929Y0102134D02*
X0155703Y0102134D01*
X0155433Y0100536D02*
X0138198Y0100536D01*
X0138198Y0098937D02*
X0155433Y0098937D01*
X0155651Y0097339D02*
X0137981Y0097339D01*
X0137319Y0095740D02*
X0156313Y0095740D01*
X0157196Y0094142D02*
X0136435Y0094142D01*
X0134837Y0092543D02*
X0158795Y0092543D01*
X0161829Y0090945D02*
X0131803Y0090945D01*
X0126396Y0090945D02*
X0055639Y0090945D01*
X0055639Y0092543D02*
X0123362Y0092543D01*
X0121763Y0094142D02*
X0055639Y0094142D01*
X0055639Y0095740D02*
X0120880Y0095740D01*
X0120217Y0097339D02*
X0055639Y0097339D01*
X0055639Y0098937D02*
X0120000Y0098937D01*
X0120000Y0100536D02*
X0055639Y0100536D01*
X0055639Y0102134D02*
X0120269Y0102134D01*
X0120932Y0103733D02*
X0055639Y0103733D01*
X0055639Y0105332D02*
X0121888Y0105332D01*
X0123487Y0106930D02*
X0055639Y0106930D01*
X0055639Y0111726D02*
X0612008Y0111726D01*
X0612008Y0113324D02*
X0055639Y0113324D01*
X0055639Y0114923D02*
X0612008Y0114923D01*
X0612008Y0116521D02*
X0055639Y0116521D01*
X0055639Y0118120D02*
X0612008Y0118120D01*
X0612008Y0119718D02*
X0055639Y0119718D01*
X0055639Y0121317D02*
X0612008Y0121317D01*
X0612008Y0122915D02*
X0055639Y0122915D01*
X0055639Y0124514D02*
X0612008Y0124514D01*
X0612008Y0126112D02*
X0520925Y0126112D01*
X0520673Y0126008D02*
X0524017Y0127393D01*
X0526577Y0129953D01*
X0527962Y0133297D01*
X0527962Y0136917D01*
X0526577Y0140261D01*
X0524017Y0142821D01*
X0520673Y0144206D01*
X0517053Y0144206D01*
X0513709Y0142821D01*
X0511149Y0140261D01*
X0509764Y0136917D01*
X0509764Y0133297D01*
X0511149Y0129953D01*
X0513709Y0127393D01*
X0517053Y0126008D01*
X0520673Y0126008D01*
X0516801Y0126112D02*
X0485492Y0126112D01*
X0485240Y0126008D02*
X0488584Y0127393D01*
X0491144Y0129953D01*
X0492529Y0133297D01*
X0492529Y0136917D01*
X0491144Y0140261D01*
X0488584Y0142821D01*
X0485240Y0144206D01*
X0481620Y0144206D01*
X0478276Y0142821D01*
X0475716Y0140261D01*
X0474331Y0136917D01*
X0474331Y0133297D01*
X0475716Y0129953D01*
X0478276Y0127393D01*
X0481620Y0126008D01*
X0485240Y0126008D01*
X0481368Y0126112D02*
X0450059Y0126112D01*
X0449807Y0126008D02*
X0453151Y0127393D01*
X0455711Y0129953D01*
X0457096Y0133297D01*
X0457096Y0136917D01*
X0455711Y0140261D01*
X0453151Y0142821D01*
X0449807Y0144206D01*
X0446187Y0144206D01*
X0442843Y0142821D01*
X0440283Y0140261D01*
X0438898Y0136917D01*
X0438898Y0133297D01*
X0440283Y0129953D01*
X0442843Y0127393D01*
X0446187Y0126008D01*
X0449807Y0126008D01*
X0445935Y0126112D02*
X0414626Y0126112D01*
X0414374Y0126008D02*
X0417718Y0127393D01*
X0420278Y0129953D01*
X0421663Y0133297D01*
X0421663Y0136917D01*
X0420278Y0140261D01*
X0417718Y0142821D01*
X0414374Y0144206D01*
X0410754Y0144206D01*
X0407409Y0142821D01*
X0404850Y0140261D01*
X0403465Y0136917D01*
X0403465Y0133297D01*
X0404850Y0129953D01*
X0407409Y0127393D01*
X0410754Y0126008D01*
X0414374Y0126008D01*
X0410502Y0126112D02*
X0379192Y0126112D01*
X0378941Y0126008D02*
X0382285Y0127393D01*
X0384845Y0129953D01*
X0386230Y0133297D01*
X0386230Y0136917D01*
X0384845Y0140261D01*
X0382285Y0142821D01*
X0378941Y0144206D01*
X0375321Y0144206D01*
X0371976Y0142821D01*
X0369417Y0140261D01*
X0368031Y0136917D01*
X0368031Y0133297D01*
X0369417Y0129953D01*
X0371976Y0127393D01*
X0375321Y0126008D01*
X0378941Y0126008D01*
X0375069Y0126112D02*
X0343759Y0126112D01*
X0343508Y0126008D02*
X0346852Y0127393D01*
X0349412Y0129953D01*
X0350797Y0133297D01*
X0350797Y0136917D01*
X0349412Y0140261D01*
X0346852Y0142821D01*
X0343508Y0144206D01*
X0339888Y0144206D01*
X0336543Y0142821D01*
X0333984Y0140261D01*
X0332598Y0136917D01*
X0332598Y0133297D01*
X0333984Y0129953D01*
X0336543Y0127393D01*
X0339888Y0126008D01*
X0343508Y0126008D01*
X0339636Y0126112D02*
X0308326Y0126112D01*
X0308075Y0126008D02*
X0311419Y0127393D01*
X0313978Y0129953D01*
X0315364Y0133297D01*
X0315364Y0136917D01*
X0313978Y0140261D01*
X0311419Y0142821D01*
X0308075Y0144206D01*
X0304455Y0144206D01*
X0301110Y0142821D01*
X0298551Y0140261D01*
X0297165Y0136917D01*
X0297165Y0133297D01*
X0298551Y0129953D01*
X0301110Y0127393D01*
X0304455Y0126008D01*
X0308075Y0126008D01*
X0304203Y0126112D02*
X0272893Y0126112D01*
X0272641Y0126008D02*
X0275986Y0127393D01*
X0278545Y0129953D01*
X0279931Y0133297D01*
X0279931Y0136917D01*
X0278545Y0140261D01*
X0275986Y0142821D01*
X0272641Y0144206D01*
X0269022Y0144206D01*
X0265677Y0142821D01*
X0263118Y0140261D01*
X0261732Y0136917D01*
X0261732Y0133297D01*
X0263118Y0129953D01*
X0265677Y0127393D01*
X0269022Y0126008D01*
X0272641Y0126008D01*
X0268770Y0126112D02*
X0237460Y0126112D01*
X0237208Y0126008D02*
X0240553Y0127393D01*
X0243112Y0129953D01*
X0244498Y0133297D01*
X0244498Y0136917D01*
X0243112Y0140261D01*
X0240553Y0142821D01*
X0237208Y0144206D01*
X0233588Y0144206D01*
X0230244Y0142821D01*
X0227684Y0140261D01*
X0226299Y0136917D01*
X0226299Y0133297D01*
X0227684Y0129953D01*
X0230244Y0127393D01*
X0233588Y0126008D01*
X0237208Y0126008D01*
X0233337Y0126112D02*
X0202027Y0126112D01*
X0201775Y0126008D02*
X0205120Y0127393D01*
X0207679Y0129953D01*
X0209065Y0133297D01*
X0209065Y0136917D01*
X0207679Y0140261D01*
X0205120Y0142821D01*
X0201775Y0144206D01*
X0198155Y0144206D01*
X0194811Y0142821D01*
X0192251Y0140261D01*
X0190866Y0136917D01*
X0190866Y0133297D01*
X0192251Y0129953D01*
X0194811Y0127393D01*
X0198155Y0126008D01*
X0201775Y0126008D01*
X0197904Y0126112D02*
X0166594Y0126112D01*
X0166342Y0126008D02*
X0169687Y0127393D01*
X0172246Y0129953D01*
X0173631Y0133297D01*
X0173631Y0136917D01*
X0172246Y0140261D01*
X0169687Y0142821D01*
X0166342Y0144206D01*
X0162722Y0144206D01*
X0159378Y0142821D01*
X0156818Y0140261D01*
X0155433Y0136917D01*
X0155433Y0133297D01*
X0156818Y0129953D01*
X0159378Y0127393D01*
X0162722Y0126008D01*
X0166342Y0126008D01*
X0162471Y0126112D02*
X0131161Y0126112D01*
X0130909Y0126008D02*
X0134253Y0127393D01*
X0136813Y0129953D01*
X0138198Y0133297D01*
X0138198Y0136917D01*
X0136813Y0140261D01*
X0134253Y0142821D01*
X0130909Y0144206D01*
X0127289Y0144206D01*
X0123945Y0142821D01*
X0121385Y0140261D01*
X0120000Y0136917D01*
X0120000Y0133297D01*
X0121385Y0129953D01*
X0123945Y0127393D01*
X0127289Y0126008D01*
X0130909Y0126008D01*
X0127037Y0126112D02*
X0055639Y0126112D01*
X0055639Y0127711D02*
X0123627Y0127711D01*
X0122029Y0129309D02*
X0055639Y0129309D01*
X0055639Y0130908D02*
X0120990Y0130908D01*
X0120328Y0132506D02*
X0055639Y0132506D01*
X0055639Y0134105D02*
X0120000Y0134105D01*
X0120000Y0135703D02*
X0055639Y0135703D01*
X0055639Y0137302D02*
X0120159Y0137302D01*
X0120821Y0138900D02*
X0055639Y0138900D01*
X0055639Y0140499D02*
X0121623Y0140499D01*
X0123221Y0142097D02*
X0055639Y0142097D01*
X0055639Y0143696D02*
X0126057Y0143696D01*
X0132142Y0143696D02*
X0161490Y0143696D01*
X0158654Y0142097D02*
X0134977Y0142097D01*
X0136576Y0140499D02*
X0157056Y0140499D01*
X0156255Y0138900D02*
X0137377Y0138900D01*
X0138039Y0137302D02*
X0155592Y0137302D01*
X0155433Y0135703D02*
X0138198Y0135703D01*
X0138198Y0134105D02*
X0155433Y0134105D01*
X0155761Y0132506D02*
X0137871Y0132506D01*
X0137209Y0130908D02*
X0156423Y0130908D01*
X0157462Y0129309D02*
X0136170Y0129309D01*
X0134571Y0127711D02*
X0159060Y0127711D01*
X0170004Y0127711D02*
X0194494Y0127711D01*
X0192895Y0129309D02*
X0171603Y0129309D01*
X0172642Y0130908D02*
X0191856Y0130908D01*
X0191194Y0132506D02*
X0173304Y0132506D01*
X0173631Y0134105D02*
X0190866Y0134105D01*
X0190866Y0135703D02*
X0173631Y0135703D01*
X0173472Y0137302D02*
X0191026Y0137302D01*
X0191688Y0138900D02*
X0172810Y0138900D01*
X0172009Y0140499D02*
X0192489Y0140499D01*
X0194087Y0142097D02*
X0170410Y0142097D01*
X0167575Y0143696D02*
X0196923Y0143696D01*
X0203008Y0143696D02*
X0232356Y0143696D01*
X0229520Y0142097D02*
X0205843Y0142097D01*
X0207442Y0140499D02*
X0227922Y0140499D01*
X0227121Y0138900D02*
X0208243Y0138900D01*
X0208905Y0137302D02*
X0226459Y0137302D01*
X0226299Y0135703D02*
X0209065Y0135703D01*
X0209065Y0134105D02*
X0226299Y0134105D01*
X0226627Y0132506D02*
X0208737Y0132506D01*
X0208075Y0130908D02*
X0227289Y0130908D01*
X0228328Y0129309D02*
X0207036Y0129309D01*
X0205437Y0127711D02*
X0229927Y0127711D01*
X0240870Y0127711D02*
X0265360Y0127711D01*
X0263761Y0129309D02*
X0242469Y0129309D01*
X0243508Y0130908D02*
X0262722Y0130908D01*
X0262060Y0132506D02*
X0244170Y0132506D01*
X0244498Y0134105D02*
X0261732Y0134105D01*
X0261732Y0135703D02*
X0244498Y0135703D01*
X0244338Y0137302D02*
X0261892Y0137302D01*
X0262554Y0138900D02*
X0243676Y0138900D01*
X0242875Y0140499D02*
X0263355Y0140499D01*
X0264953Y0142097D02*
X0241276Y0142097D01*
X0238441Y0143696D02*
X0267789Y0143696D01*
X0273874Y0143696D02*
X0303222Y0143696D01*
X0300387Y0142097D02*
X0276710Y0142097D01*
X0278308Y0140499D02*
X0298788Y0140499D01*
X0297987Y0138900D02*
X0279109Y0138900D01*
X0279771Y0137302D02*
X0297325Y0137302D01*
X0297165Y0135703D02*
X0279931Y0135703D01*
X0279931Y0134105D02*
X0297165Y0134105D01*
X0297493Y0132506D02*
X0279603Y0132506D01*
X0278941Y0130908D02*
X0298155Y0130908D01*
X0299194Y0129309D02*
X0277902Y0129309D01*
X0276303Y0127711D02*
X0300793Y0127711D01*
X0311736Y0127711D02*
X0336226Y0127711D01*
X0334627Y0129309D02*
X0313335Y0129309D01*
X0314374Y0130908D02*
X0333588Y0130908D01*
X0332926Y0132506D02*
X0315036Y0132506D01*
X0315364Y0134105D02*
X0332598Y0134105D01*
X0332598Y0135703D02*
X0315364Y0135703D01*
X0315204Y0137302D02*
X0332758Y0137302D01*
X0333420Y0138900D02*
X0314542Y0138900D01*
X0313741Y0140499D02*
X0334221Y0140499D01*
X0335820Y0142097D02*
X0312143Y0142097D01*
X0309307Y0143696D02*
X0338655Y0143696D01*
X0344740Y0143696D02*
X0374088Y0143696D01*
X0371253Y0142097D02*
X0347576Y0142097D01*
X0349174Y0140499D02*
X0369654Y0140499D01*
X0368853Y0138900D02*
X0349975Y0138900D01*
X0350637Y0137302D02*
X0368191Y0137302D01*
X0368031Y0135703D02*
X0350797Y0135703D01*
X0350797Y0134105D02*
X0368031Y0134105D01*
X0368359Y0132506D02*
X0350469Y0132506D01*
X0349807Y0130908D02*
X0369021Y0130908D01*
X0370060Y0129309D02*
X0348768Y0129309D01*
X0347169Y0127711D02*
X0371659Y0127711D01*
X0382603Y0127711D02*
X0407092Y0127711D01*
X0405493Y0129309D02*
X0384201Y0129309D01*
X0385240Y0130908D02*
X0404454Y0130908D01*
X0403792Y0132506D02*
X0385902Y0132506D01*
X0386230Y0134105D02*
X0403465Y0134105D01*
X0403465Y0135703D02*
X0386230Y0135703D01*
X0386071Y0137302D02*
X0403624Y0137302D01*
X0404286Y0138900D02*
X0385408Y0138900D01*
X0384607Y0140499D02*
X0405087Y0140499D01*
X0406686Y0142097D02*
X0383009Y0142097D01*
X0380173Y0143696D02*
X0409521Y0143696D01*
X0415606Y0143696D02*
X0444954Y0143696D01*
X0442119Y0142097D02*
X0418442Y0142097D01*
X0420040Y0140499D02*
X0440520Y0140499D01*
X0439719Y0138900D02*
X0420841Y0138900D01*
X0421504Y0137302D02*
X0439057Y0137302D01*
X0438898Y0135703D02*
X0421663Y0135703D01*
X0421663Y0134105D02*
X0438898Y0134105D01*
X0439225Y0132506D02*
X0421335Y0132506D01*
X0420673Y0130908D02*
X0439887Y0130908D01*
X0440927Y0129309D02*
X0419634Y0129309D01*
X0418036Y0127711D02*
X0442525Y0127711D01*
X0453469Y0127711D02*
X0477958Y0127711D01*
X0476360Y0129309D02*
X0455067Y0129309D01*
X0456106Y0130908D02*
X0475320Y0130908D01*
X0474658Y0132506D02*
X0456768Y0132506D01*
X0457096Y0134105D02*
X0474331Y0134105D01*
X0474331Y0135703D02*
X0457096Y0135703D01*
X0456937Y0137302D02*
X0474490Y0137302D01*
X0475152Y0138900D02*
X0456275Y0138900D01*
X0455473Y0140499D02*
X0475953Y0140499D01*
X0477552Y0142097D02*
X0453875Y0142097D01*
X0451039Y0143696D02*
X0480388Y0143696D01*
X0486472Y0143696D02*
X0515821Y0143696D01*
X0512985Y0142097D02*
X0489308Y0142097D01*
X0490906Y0140499D02*
X0511386Y0140499D01*
X0510585Y0138900D02*
X0491708Y0138900D01*
X0492370Y0137302D02*
X0509923Y0137302D01*
X0509764Y0135703D02*
X0492529Y0135703D01*
X0492529Y0134105D02*
X0509764Y0134105D01*
X0510091Y0132506D02*
X0492202Y0132506D01*
X0491539Y0130908D02*
X0510754Y0130908D01*
X0511793Y0129309D02*
X0490500Y0129309D01*
X0488902Y0127711D02*
X0513391Y0127711D01*
X0524335Y0127711D02*
X0612008Y0127711D01*
X0612008Y0129309D02*
X0525933Y0129309D01*
X0526972Y0130908D02*
X0612008Y0130908D01*
X0612008Y0132506D02*
X0527635Y0132506D01*
X0527962Y0134105D02*
X0612008Y0134105D01*
X0612008Y0135703D02*
X0527962Y0135703D01*
X0527803Y0137302D02*
X0612008Y0137302D01*
X0612008Y0138900D02*
X0527141Y0138900D01*
X0526340Y0140499D02*
X0612008Y0140499D01*
X0612008Y0142097D02*
X0524741Y0142097D01*
X0521905Y0143696D02*
X0612008Y0143696D01*
X0612008Y0145294D02*
X0055639Y0145294D01*
X0055639Y0146893D02*
X0612008Y0146893D01*
X0612008Y0148491D02*
X0055639Y0148491D01*
X0055639Y0150090D02*
X0612008Y0150090D01*
X0612008Y0151688D02*
X0055639Y0151688D01*
X0055639Y0153287D02*
X0612008Y0153287D01*
X0612008Y0154885D02*
X0055639Y0154885D01*
X0055639Y0156484D02*
X0612008Y0156484D01*
X0612008Y0158082D02*
X0055639Y0158082D01*
X0055639Y0159681D02*
X0612008Y0159681D01*
X0612008Y0161279D02*
X0055639Y0161279D01*
X0055639Y0162878D02*
X0123893Y0162878D01*
X0123945Y0162826D02*
X0127289Y0161441D01*
X0130909Y0161441D01*
X0134253Y0162826D01*
X0136813Y0165386D01*
X0138198Y0168730D01*
X0138198Y0172350D01*
X0136813Y0175694D01*
X0134253Y0178254D01*
X0130909Y0179639D01*
X0127289Y0179639D01*
X0123945Y0178254D01*
X0121385Y0175694D01*
X0120000Y0172350D01*
X0120000Y0168730D01*
X0121385Y0165386D01*
X0123945Y0162826D01*
X0122295Y0164476D02*
X0055639Y0164476D01*
X0055639Y0166075D02*
X0121100Y0166075D01*
X0120438Y0167673D02*
X0055639Y0167673D01*
X0055639Y0169272D02*
X0120000Y0169272D01*
X0120000Y0170870D02*
X0055639Y0170870D01*
X0055639Y0172469D02*
X0120049Y0172469D01*
X0120711Y0174068D02*
X0055639Y0174068D01*
X0055639Y0175666D02*
X0121374Y0175666D01*
X0122955Y0177265D02*
X0055639Y0177265D01*
X0055639Y0178863D02*
X0125415Y0178863D01*
X0132783Y0178863D02*
X0160848Y0178863D01*
X0159378Y0178254D02*
X0162722Y0179639D01*
X0166342Y0179639D01*
X0169687Y0178254D01*
X0172246Y0175694D01*
X0173631Y0172350D01*
X0173631Y0168730D01*
X0172246Y0165386D01*
X0169687Y0162826D01*
X0166342Y0161441D01*
X0162722Y0161441D01*
X0159378Y0162826D01*
X0156818Y0165386D01*
X0155433Y0168730D01*
X0155433Y0172350D01*
X0156818Y0175694D01*
X0159378Y0178254D01*
X0158388Y0177265D02*
X0135243Y0177265D01*
X0136825Y0175666D02*
X0156807Y0175666D01*
X0156144Y0174068D02*
X0137487Y0174068D01*
X0138149Y0172469D02*
X0155482Y0172469D01*
X0155433Y0170870D02*
X0138198Y0170870D01*
X0138198Y0169272D02*
X0155433Y0169272D01*
X0155871Y0167673D02*
X0137761Y0167673D01*
X0137099Y0166075D02*
X0156533Y0166075D01*
X0157728Y0164476D02*
X0135904Y0164476D01*
X0134305Y0162878D02*
X0159326Y0162878D01*
X0169738Y0162878D02*
X0194759Y0162878D01*
X0194811Y0162826D02*
X0198155Y0161441D01*
X0201775Y0161441D01*
X0205120Y0162826D01*
X0207679Y0165386D01*
X0209065Y0168730D01*
X0209065Y0172350D01*
X0207679Y0175694D01*
X0205120Y0178254D01*
X0201775Y0179639D01*
X0198155Y0179639D01*
X0194811Y0178254D01*
X0192251Y0175694D01*
X0190866Y0172350D01*
X0190866Y0168730D01*
X0192251Y0165386D01*
X0194811Y0162826D01*
X0193161Y0164476D02*
X0171337Y0164476D01*
X0172532Y0166075D02*
X0191966Y0166075D01*
X0191304Y0167673D02*
X0173194Y0167673D01*
X0173631Y0169272D02*
X0190866Y0169272D01*
X0190866Y0170870D02*
X0173631Y0170870D01*
X0173582Y0172469D02*
X0190915Y0172469D01*
X0191578Y0174068D02*
X0172920Y0174068D01*
X0172258Y0175666D02*
X0192240Y0175666D01*
X0193822Y0177265D02*
X0170676Y0177265D01*
X0168216Y0178863D02*
X0196281Y0178863D01*
X0203649Y0178863D02*
X0231714Y0178863D01*
X0230244Y0178254D02*
X0227684Y0175694D01*
X0226299Y0172350D01*
X0226299Y0168730D01*
X0227684Y0165386D01*
X0230244Y0162826D01*
X0233588Y0161441D01*
X0237208Y0161441D01*
X0240553Y0162826D01*
X0243112Y0165386D01*
X0244498Y0168730D01*
X0244498Y0172350D01*
X0243112Y0175694D01*
X0240553Y0178254D01*
X0237208Y0179639D01*
X0233588Y0179639D01*
X0230244Y0178254D01*
X0229255Y0177265D02*
X0206109Y0177265D01*
X0207691Y0175666D02*
X0227673Y0175666D01*
X0227011Y0174068D02*
X0208353Y0174068D01*
X0209015Y0172469D02*
X0226348Y0172469D01*
X0226299Y0170870D02*
X0209065Y0170870D01*
X0209065Y0169272D02*
X0226299Y0169272D01*
X0226737Y0167673D02*
X0208627Y0167673D01*
X0207965Y0166075D02*
X0227399Y0166075D01*
X0228594Y0164476D02*
X0206770Y0164476D01*
X0205171Y0162878D02*
X0230192Y0162878D01*
X0240604Y0162878D02*
X0265625Y0162878D01*
X0265677Y0162826D02*
X0269022Y0161441D01*
X0272641Y0161441D01*
X0275986Y0162826D01*
X0278545Y0165386D01*
X0279931Y0168730D01*
X0279931Y0172350D01*
X0278545Y0175694D01*
X0275986Y0178254D01*
X0272641Y0179639D01*
X0269022Y0179639D01*
X0265677Y0178254D01*
X0263118Y0175694D01*
X0261732Y0172350D01*
X0261732Y0168730D01*
X0263118Y0165386D01*
X0265677Y0162826D01*
X0264027Y0164476D02*
X0242203Y0164476D01*
X0243398Y0166075D02*
X0262832Y0166075D01*
X0262170Y0167673D02*
X0244060Y0167673D01*
X0244498Y0169272D02*
X0261732Y0169272D01*
X0261732Y0170870D02*
X0244498Y0170870D01*
X0244448Y0172469D02*
X0261782Y0172469D01*
X0262444Y0174068D02*
X0243786Y0174068D01*
X0243124Y0175666D02*
X0263106Y0175666D01*
X0264688Y0177265D02*
X0241542Y0177265D01*
X0239083Y0178863D02*
X0267147Y0178863D01*
X0274516Y0178863D02*
X0302580Y0178863D01*
X0301110Y0178254D02*
X0298551Y0175694D01*
X0297165Y0172350D01*
X0297165Y0168730D01*
X0298551Y0165386D01*
X0301110Y0162826D01*
X0304455Y0161441D01*
X0308075Y0161441D01*
X0311419Y0162826D01*
X0313978Y0165386D01*
X0315364Y0168730D01*
X0315364Y0172350D01*
X0313978Y0175694D01*
X0311419Y0178254D01*
X0308075Y0179639D01*
X0304455Y0179639D01*
X0301110Y0178254D01*
X0300121Y0177265D02*
X0276975Y0177265D01*
X0278557Y0175666D02*
X0298539Y0175666D01*
X0297877Y0174068D02*
X0279219Y0174068D01*
X0279881Y0172469D02*
X0297215Y0172469D01*
X0297165Y0170870D02*
X0279931Y0170870D01*
X0279931Y0169272D02*
X0297165Y0169272D01*
X0297603Y0167673D02*
X0279493Y0167673D01*
X0278831Y0166075D02*
X0298265Y0166075D01*
X0299460Y0164476D02*
X0277636Y0164476D01*
X0276037Y0162878D02*
X0301059Y0162878D01*
X0311471Y0162878D02*
X0336492Y0162878D01*
X0336543Y0162826D02*
X0339888Y0161441D01*
X0343508Y0161441D01*
X0346852Y0162826D01*
X0349412Y0165386D01*
X0350797Y0168730D01*
X0350797Y0172350D01*
X0349412Y0175694D01*
X0346852Y0178254D01*
X0343508Y0179639D01*
X0339888Y0179639D01*
X0336543Y0178254D01*
X0333984Y0175694D01*
X0332598Y0172350D01*
X0332598Y0168730D01*
X0333984Y0165386D01*
X0336543Y0162826D01*
X0334893Y0164476D02*
X0313069Y0164476D01*
X0314264Y0166075D02*
X0333698Y0166075D01*
X0333036Y0167673D02*
X0314926Y0167673D01*
X0315364Y0169272D02*
X0332598Y0169272D01*
X0332598Y0170870D02*
X0315364Y0170870D01*
X0315315Y0172469D02*
X0332648Y0172469D01*
X0333310Y0174068D02*
X0314652Y0174068D01*
X0313990Y0175666D02*
X0333972Y0175666D01*
X0335554Y0177265D02*
X0312408Y0177265D01*
X0309949Y0178863D02*
X0338013Y0178863D01*
X0345382Y0178863D02*
X0373447Y0178863D01*
X0371976Y0178254D02*
X0375321Y0179639D01*
X0378941Y0179639D01*
X0382285Y0178254D01*
X0384845Y0175694D01*
X0386230Y0172350D01*
X0386230Y0168730D01*
X0384845Y0165386D01*
X0382285Y0162826D01*
X0378941Y0161441D01*
X0375321Y0161441D01*
X0371976Y0162826D01*
X0369417Y0165386D01*
X0368031Y0168730D01*
X0368031Y0172350D01*
X0369417Y0175694D01*
X0371976Y0178254D01*
X0370987Y0177265D02*
X0347841Y0177265D01*
X0349423Y0175666D02*
X0369405Y0175666D01*
X0368743Y0174068D02*
X0350085Y0174068D01*
X0350748Y0172469D02*
X0368081Y0172469D01*
X0368031Y0170870D02*
X0350797Y0170870D01*
X0350797Y0169272D02*
X0368031Y0169272D01*
X0368469Y0167673D02*
X0350359Y0167673D01*
X0349697Y0166075D02*
X0369131Y0166075D01*
X0370326Y0164476D02*
X0348502Y0164476D01*
X0346904Y0162878D02*
X0371925Y0162878D01*
X0382337Y0162878D02*
X0407358Y0162878D01*
X0407409Y0162826D02*
X0410754Y0161441D01*
X0414374Y0161441D01*
X0417718Y0162826D01*
X0420278Y0165386D01*
X0421663Y0168730D01*
X0421663Y0172350D01*
X0420278Y0175694D01*
X0417718Y0178254D01*
X0414374Y0179639D01*
X0410754Y0179639D01*
X0407409Y0178254D01*
X0404850Y0175694D01*
X0403465Y0172350D01*
X0403465Y0168730D01*
X0404850Y0165386D01*
X0407409Y0162826D01*
X0405759Y0164476D02*
X0383935Y0164476D01*
X0385130Y0166075D02*
X0404564Y0166075D01*
X0403902Y0167673D02*
X0385792Y0167673D01*
X0386230Y0169272D02*
X0403465Y0169272D01*
X0403465Y0170870D02*
X0386230Y0170870D01*
X0386181Y0172469D02*
X0403514Y0172469D01*
X0404176Y0174068D02*
X0385519Y0174068D01*
X0384856Y0175666D02*
X0404838Y0175666D01*
X0406420Y0177265D02*
X0383275Y0177265D01*
X0380815Y0178863D02*
X0408880Y0178863D01*
X0416248Y0178863D02*
X0444313Y0178863D01*
X0442843Y0178254D02*
X0440283Y0175694D01*
X0438898Y0172350D01*
X0438898Y0168730D01*
X0440283Y0165386D01*
X0442843Y0162826D01*
X0446187Y0161441D01*
X0449807Y0161441D01*
X0453151Y0162826D01*
X0455711Y0165386D01*
X0457096Y0168730D01*
X0457096Y0172350D01*
X0455711Y0175694D01*
X0453151Y0178254D01*
X0449807Y0179639D01*
X0446187Y0179639D01*
X0442843Y0178254D01*
X0441853Y0177265D02*
X0418708Y0177265D01*
X0420289Y0175666D02*
X0440271Y0175666D01*
X0439609Y0174068D02*
X0420952Y0174068D01*
X0421614Y0172469D02*
X0438947Y0172469D01*
X0438898Y0170870D02*
X0421663Y0170870D01*
X0421663Y0169272D02*
X0438898Y0169272D01*
X0439335Y0167673D02*
X0421225Y0167673D01*
X0420563Y0166075D02*
X0439997Y0166075D01*
X0441192Y0164476D02*
X0419368Y0164476D01*
X0417770Y0162878D02*
X0442791Y0162878D01*
X0453203Y0162878D02*
X0478224Y0162878D01*
X0478276Y0162826D02*
X0481620Y0161441D01*
X0485240Y0161441D01*
X0488584Y0162826D01*
X0491144Y0165386D01*
X0492529Y0168730D01*
X0492529Y0172350D01*
X0491144Y0175694D01*
X0488584Y0178254D01*
X0485240Y0179639D01*
X0481620Y0179639D01*
X0478276Y0178254D01*
X0475716Y0175694D01*
X0474331Y0172350D01*
X0474331Y0168730D01*
X0475716Y0165386D01*
X0478276Y0162826D01*
X0476625Y0164476D02*
X0454801Y0164476D01*
X0455996Y0166075D02*
X0475431Y0166075D01*
X0474768Y0167673D02*
X0456658Y0167673D01*
X0457096Y0169272D02*
X0474331Y0169272D01*
X0474331Y0170870D02*
X0457096Y0170870D01*
X0457047Y0172469D02*
X0474380Y0172469D01*
X0475042Y0174068D02*
X0456385Y0174068D01*
X0455723Y0175666D02*
X0475704Y0175666D01*
X0477286Y0177265D02*
X0454141Y0177265D01*
X0451681Y0178863D02*
X0479746Y0178863D01*
X0487114Y0178863D02*
X0515179Y0178863D01*
X0513709Y0178254D02*
X0511149Y0175694D01*
X0509764Y0172350D01*
X0509764Y0168730D01*
X0511149Y0165386D01*
X0513709Y0162826D01*
X0517053Y0161441D01*
X0520673Y0161441D01*
X0524017Y0162826D01*
X0526577Y0165386D01*
X0527962Y0168730D01*
X0527962Y0172350D01*
X0526577Y0175694D01*
X0524017Y0178254D01*
X0520673Y0179639D01*
X0517053Y0179639D01*
X0513709Y0178254D01*
X0512719Y0177265D02*
X0489574Y0177265D01*
X0491156Y0175666D02*
X0511137Y0175666D01*
X0510475Y0174068D02*
X0491818Y0174068D01*
X0492480Y0172469D02*
X0509813Y0172469D01*
X0509764Y0170870D02*
X0492529Y0170870D01*
X0492529Y0169272D02*
X0509764Y0169272D01*
X0510201Y0167673D02*
X0492091Y0167673D01*
X0491429Y0166075D02*
X0510864Y0166075D01*
X0512058Y0164476D02*
X0490234Y0164476D01*
X0488636Y0162878D02*
X0513657Y0162878D01*
X0524069Y0162878D02*
X0612008Y0162878D01*
X0612008Y0164476D02*
X0525667Y0164476D01*
X0526862Y0166075D02*
X0612008Y0166075D01*
X0612008Y0167673D02*
X0527524Y0167673D01*
X0527962Y0169272D02*
X0612008Y0169272D01*
X0612008Y0170870D02*
X0527962Y0170870D01*
X0527913Y0172469D02*
X0612008Y0172469D01*
X0612008Y0174068D02*
X0527251Y0174068D01*
X0526589Y0175666D02*
X0612008Y0175666D01*
X0612008Y0177265D02*
X0525007Y0177265D01*
X0522547Y0178863D02*
X0612008Y0178863D01*
X0612008Y0180462D02*
X0055639Y0180462D01*
X0055639Y0182060D02*
X0612008Y0182060D01*
X0612008Y0183659D02*
X0055639Y0183659D01*
X0055639Y0185257D02*
X0612008Y0185257D01*
X0612008Y0186856D02*
X0055639Y0186856D01*
X0055639Y0188454D02*
X0612008Y0188454D01*
X0612008Y0190053D02*
X0055639Y0190053D01*
X0055639Y0191651D02*
X0612008Y0191651D01*
X0612008Y0193250D02*
X0055639Y0193250D01*
X0055639Y0194848D02*
X0612008Y0194848D01*
X0612008Y0196447D02*
X0055639Y0196447D01*
X0055639Y0198045D02*
X0124462Y0198045D01*
X0123945Y0198259D02*
X0127289Y0196874D01*
X0130909Y0196874D01*
X0134253Y0198259D01*
X0136813Y0200819D01*
X0138198Y0204163D01*
X0138198Y0207783D01*
X0136813Y0211128D01*
X0134253Y0213687D01*
X0130909Y0215072D01*
X0127289Y0215072D01*
X0123945Y0213687D01*
X0121385Y0211128D01*
X0120000Y0207783D01*
X0120000Y0204163D01*
X0121385Y0200819D01*
X0123945Y0198259D01*
X0122561Y0199644D02*
X0055639Y0199644D01*
X0055639Y0201242D02*
X0121210Y0201242D01*
X0120548Y0202841D02*
X0055639Y0202841D01*
X0055639Y0204439D02*
X0120000Y0204439D01*
X0120000Y0206038D02*
X0055639Y0206038D01*
X0055639Y0207636D02*
X0120000Y0207636D01*
X0120601Y0209235D02*
X0055639Y0209235D01*
X0055639Y0210833D02*
X0121263Y0210833D01*
X0122690Y0212432D02*
X0055639Y0212432D01*
X0055639Y0214030D02*
X0124773Y0214030D01*
X0133425Y0214030D02*
X0160206Y0214030D01*
X0159378Y0213687D02*
X0162722Y0215072D01*
X0166342Y0215072D01*
X0169687Y0213687D01*
X0172246Y0211128D01*
X0173631Y0207783D01*
X0173631Y0204163D01*
X0172246Y0200819D01*
X0169687Y0198259D01*
X0166342Y0196874D01*
X0162722Y0196874D01*
X0159378Y0198259D01*
X0156818Y0200819D01*
X0155433Y0204163D01*
X0155433Y0207783D01*
X0156818Y0211128D01*
X0159378Y0213687D01*
X0158123Y0212432D02*
X0135509Y0212432D01*
X0136935Y0210833D02*
X0156696Y0210833D01*
X0156034Y0209235D02*
X0137597Y0209235D01*
X0138198Y0207636D02*
X0155433Y0207636D01*
X0155433Y0206038D02*
X0138198Y0206038D01*
X0138198Y0204439D02*
X0155433Y0204439D01*
X0155981Y0202841D02*
X0137651Y0202841D01*
X0136988Y0201242D02*
X0156643Y0201242D01*
X0157994Y0199644D02*
X0135638Y0199644D01*
X0133737Y0198045D02*
X0159895Y0198045D01*
X0169170Y0198045D02*
X0195328Y0198045D01*
X0194811Y0198259D02*
X0198155Y0196874D01*
X0201775Y0196874D01*
X0205120Y0198259D01*
X0207679Y0200819D01*
X0209065Y0204163D01*
X0209065Y0207783D01*
X0207679Y0211128D01*
X0205120Y0213687D01*
X0201775Y0215072D01*
X0198155Y0215072D01*
X0194811Y0213687D01*
X0192251Y0211128D01*
X0190866Y0207783D01*
X0190866Y0204163D01*
X0192251Y0200819D01*
X0194811Y0198259D01*
X0193427Y0199644D02*
X0171071Y0199644D01*
X0172422Y0201242D02*
X0192076Y0201242D01*
X0191414Y0202841D02*
X0173084Y0202841D01*
X0173631Y0204439D02*
X0190866Y0204439D01*
X0190866Y0206038D02*
X0173631Y0206038D01*
X0173631Y0207636D02*
X0190866Y0207636D01*
X0191467Y0209235D02*
X0173030Y0209235D01*
X0172368Y0210833D02*
X0192130Y0210833D01*
X0193556Y0212432D02*
X0170942Y0212432D01*
X0168858Y0214030D02*
X0195639Y0214030D01*
X0204291Y0214030D02*
X0231073Y0214030D01*
X0230244Y0213687D02*
X0227684Y0211128D01*
X0226299Y0207783D01*
X0226299Y0204163D01*
X0227684Y0200819D01*
X0230244Y0198259D01*
X0233588Y0196874D01*
X0237208Y0196874D01*
X0240553Y0198259D01*
X0243112Y0200819D01*
X0244498Y0204163D01*
X0244498Y0207783D01*
X0243112Y0211128D01*
X0240553Y0213687D01*
X0237208Y0215072D01*
X0233588Y0215072D01*
X0230244Y0213687D01*
X0228989Y0212432D02*
X0206375Y0212432D01*
X0207801Y0210833D02*
X0227563Y0210833D01*
X0226900Y0209235D02*
X0208463Y0209235D01*
X0209065Y0207636D02*
X0226299Y0207636D01*
X0226299Y0206038D02*
X0209065Y0206038D01*
X0209065Y0204439D02*
X0226299Y0204439D01*
X0226847Y0202841D02*
X0208517Y0202841D01*
X0207855Y0201242D02*
X0227509Y0201242D01*
X0228860Y0199644D02*
X0206504Y0199644D01*
X0204603Y0198045D02*
X0230761Y0198045D01*
X0240036Y0198045D02*
X0266194Y0198045D01*
X0265677Y0198259D02*
X0269022Y0196874D01*
X0272641Y0196874D01*
X0275986Y0198259D01*
X0278545Y0200819D01*
X0279931Y0204163D01*
X0279931Y0207783D01*
X0278545Y0211128D01*
X0275986Y0213687D01*
X0272641Y0215072D01*
X0269022Y0215072D01*
X0265677Y0213687D01*
X0263118Y0211128D01*
X0261732Y0207783D01*
X0261732Y0204163D01*
X0263118Y0200819D01*
X0265677Y0198259D01*
X0264293Y0199644D02*
X0241937Y0199644D01*
X0243288Y0201242D02*
X0262942Y0201242D01*
X0262280Y0202841D02*
X0243950Y0202841D01*
X0244498Y0204439D02*
X0261732Y0204439D01*
X0261732Y0206038D02*
X0244498Y0206038D01*
X0244498Y0207636D02*
X0261732Y0207636D01*
X0262334Y0209235D02*
X0243896Y0209235D01*
X0243234Y0210833D02*
X0262996Y0210833D01*
X0264422Y0212432D02*
X0241808Y0212432D01*
X0239724Y0214030D02*
X0266506Y0214030D01*
X0275157Y0214030D02*
X0301939Y0214030D01*
X0301110Y0213687D02*
X0298551Y0211128D01*
X0297165Y0207783D01*
X0297165Y0204163D01*
X0298551Y0200819D01*
X0301110Y0198259D01*
X0304455Y0196874D01*
X0308075Y0196874D01*
X0311419Y0198259D01*
X0313978Y0200819D01*
X0315364Y0204163D01*
X0315364Y0207783D01*
X0313978Y0211128D01*
X0311419Y0213687D01*
X0308075Y0215072D01*
X0304455Y0215072D01*
X0301110Y0213687D01*
X0299855Y0212432D02*
X0277241Y0212432D01*
X0278667Y0210833D02*
X0298429Y0210833D01*
X0297767Y0209235D02*
X0279329Y0209235D01*
X0279931Y0207636D02*
X0297165Y0207636D01*
X0297165Y0206038D02*
X0279931Y0206038D01*
X0279931Y0204439D02*
X0297165Y0204439D01*
X0297713Y0202841D02*
X0279383Y0202841D01*
X0278721Y0201242D02*
X0298375Y0201242D01*
X0299726Y0199644D02*
X0277370Y0199644D01*
X0275469Y0198045D02*
X0301627Y0198045D01*
X0310902Y0198045D02*
X0337060Y0198045D01*
X0336543Y0198259D02*
X0339888Y0196874D01*
X0343508Y0196874D01*
X0346852Y0198259D01*
X0349412Y0200819D01*
X0350797Y0204163D01*
X0350797Y0207783D01*
X0349412Y0211128D01*
X0346852Y0213687D01*
X0343508Y0215072D01*
X0339888Y0215072D01*
X0336543Y0213687D01*
X0333984Y0211128D01*
X0332598Y0207783D01*
X0332598Y0204163D01*
X0333984Y0200819D01*
X0336543Y0198259D01*
X0335159Y0199644D02*
X0312803Y0199644D01*
X0314154Y0201242D02*
X0333808Y0201242D01*
X0333146Y0202841D02*
X0314816Y0202841D01*
X0315364Y0204439D02*
X0332598Y0204439D01*
X0332598Y0206038D02*
X0315364Y0206038D01*
X0315364Y0207636D02*
X0332598Y0207636D01*
X0333200Y0209235D02*
X0314763Y0209235D01*
X0314100Y0210833D02*
X0333862Y0210833D01*
X0335288Y0212432D02*
X0312674Y0212432D01*
X0310590Y0214030D02*
X0337372Y0214030D01*
X0346024Y0214030D02*
X0372805Y0214030D01*
X0371976Y0213687D02*
X0375321Y0215072D01*
X0378941Y0215072D01*
X0382285Y0213687D01*
X0384845Y0211128D01*
X0386230Y0207783D01*
X0386230Y0204163D01*
X0384845Y0200819D01*
X0382285Y0198259D01*
X0378941Y0196874D01*
X0375321Y0196874D01*
X0371976Y0198259D01*
X0369417Y0200819D01*
X0368031Y0204163D01*
X0368031Y0207783D01*
X0369417Y0211128D01*
X0371976Y0213687D01*
X0370721Y0212432D02*
X0348107Y0212432D01*
X0349533Y0210833D02*
X0369295Y0210833D01*
X0368633Y0209235D02*
X0350196Y0209235D01*
X0350797Y0207636D02*
X0368031Y0207636D01*
X0368031Y0206038D02*
X0350797Y0206038D01*
X0350797Y0204439D02*
X0368031Y0204439D01*
X0368579Y0202841D02*
X0350249Y0202841D01*
X0349587Y0201242D02*
X0369241Y0201242D01*
X0370592Y0199644D02*
X0348236Y0199644D01*
X0346335Y0198045D02*
X0372493Y0198045D01*
X0381768Y0198045D02*
X0407926Y0198045D01*
X0407409Y0198259D02*
X0410754Y0196874D01*
X0414374Y0196874D01*
X0417718Y0198259D01*
X0420278Y0200819D01*
X0421663Y0204163D01*
X0421663Y0207783D01*
X0420278Y0211128D01*
X0417718Y0213687D01*
X0414374Y0215072D01*
X0410754Y0215072D01*
X0407409Y0213687D01*
X0404850Y0211128D01*
X0403465Y0207783D01*
X0403465Y0204163D01*
X0404850Y0200819D01*
X0407409Y0198259D01*
X0406025Y0199644D02*
X0383669Y0199644D01*
X0385020Y0201242D02*
X0404675Y0201242D01*
X0404012Y0202841D02*
X0385682Y0202841D01*
X0386230Y0204439D02*
X0403465Y0204439D01*
X0403465Y0206038D02*
X0386230Y0206038D01*
X0386230Y0207636D02*
X0403465Y0207636D01*
X0404066Y0209235D02*
X0385629Y0209235D01*
X0384967Y0210833D02*
X0404728Y0210833D01*
X0406154Y0212432D02*
X0383540Y0212432D01*
X0381457Y0214030D02*
X0408238Y0214030D01*
X0416890Y0214030D02*
X0443671Y0214030D01*
X0442843Y0213687D02*
X0440283Y0211128D01*
X0438898Y0207783D01*
X0438898Y0204163D01*
X0440283Y0200819D01*
X0442843Y0198259D01*
X0446187Y0196874D01*
X0449807Y0196874D01*
X0453151Y0198259D01*
X0455711Y0200819D01*
X0457096Y0204163D01*
X0457096Y0207783D01*
X0455711Y0211128D01*
X0453151Y0213687D01*
X0449807Y0215072D01*
X0446187Y0215072D01*
X0442843Y0213687D01*
X0441587Y0212432D02*
X0418973Y0212432D01*
X0420400Y0210833D02*
X0440161Y0210833D01*
X0439499Y0209235D02*
X0421062Y0209235D01*
X0421663Y0207636D02*
X0438898Y0207636D01*
X0438898Y0206038D02*
X0421663Y0206038D01*
X0421663Y0204439D02*
X0438898Y0204439D01*
X0439445Y0202841D02*
X0421115Y0202841D01*
X0420453Y0201242D02*
X0440108Y0201242D01*
X0441458Y0199644D02*
X0419102Y0199644D01*
X0417201Y0198045D02*
X0443359Y0198045D01*
X0452634Y0198045D02*
X0478793Y0198045D01*
X0478276Y0198259D02*
X0481620Y0196874D01*
X0485240Y0196874D01*
X0488584Y0198259D01*
X0491144Y0200819D01*
X0492529Y0204163D01*
X0492529Y0207783D01*
X0491144Y0211128D01*
X0488584Y0213687D01*
X0485240Y0215072D01*
X0481620Y0215072D01*
X0478276Y0213687D01*
X0475716Y0211128D01*
X0474331Y0207783D01*
X0474331Y0204163D01*
X0475716Y0200819D01*
X0478276Y0198259D01*
X0476891Y0199644D02*
X0454536Y0199644D01*
X0455886Y0201242D02*
X0475541Y0201242D01*
X0474879Y0202841D02*
X0456548Y0202841D01*
X0457096Y0204439D02*
X0474331Y0204439D01*
X0474331Y0206038D02*
X0457096Y0206038D01*
X0457096Y0207636D02*
X0474331Y0207636D01*
X0474932Y0209235D02*
X0456495Y0209235D01*
X0455833Y0210833D02*
X0475594Y0210833D01*
X0477020Y0212432D02*
X0454407Y0212432D01*
X0452323Y0214030D02*
X0479104Y0214030D01*
X0487756Y0214030D02*
X0514537Y0214030D01*
X0513709Y0213687D02*
X0511149Y0211128D01*
X0509764Y0207783D01*
X0509764Y0204163D01*
X0511149Y0200819D01*
X0513709Y0198259D01*
X0517053Y0196874D01*
X0520673Y0196874D01*
X0524017Y0198259D01*
X0526577Y0200819D01*
X0527962Y0204163D01*
X0527962Y0207783D01*
X0526577Y0211128D01*
X0524017Y0213687D01*
X0520673Y0215072D01*
X0517053Y0215072D01*
X0513709Y0213687D01*
X0512453Y0212432D02*
X0489840Y0212432D01*
X0491266Y0210833D02*
X0511027Y0210833D01*
X0510365Y0209235D02*
X0491928Y0209235D01*
X0492529Y0207636D02*
X0509764Y0207636D01*
X0509764Y0206038D02*
X0492529Y0206038D01*
X0492529Y0204439D02*
X0509764Y0204439D01*
X0510312Y0202841D02*
X0491981Y0202841D01*
X0491319Y0201242D02*
X0510974Y0201242D01*
X0512324Y0199644D02*
X0489969Y0199644D01*
X0488067Y0198045D02*
X0514226Y0198045D01*
X0523500Y0198045D02*
X0612008Y0198045D01*
X0612008Y0199644D02*
X0525402Y0199644D01*
X0526752Y0201242D02*
X0612008Y0201242D01*
X0612008Y0202841D02*
X0527414Y0202841D01*
X0527962Y0204439D02*
X0612008Y0204439D01*
X0612008Y0206038D02*
X0527962Y0206038D01*
X0527962Y0207636D02*
X0612008Y0207636D01*
X0612008Y0209235D02*
X0527361Y0209235D01*
X0526699Y0210833D02*
X0612008Y0210833D01*
X0612008Y0212432D02*
X0525273Y0212432D01*
X0523189Y0214030D02*
X0612008Y0214030D01*
X0612008Y0215629D02*
X0055639Y0215629D01*
X0055639Y0217227D02*
X0612008Y0217227D01*
X0612008Y0218826D02*
X0055639Y0218826D01*
X0055639Y0220424D02*
X0612008Y0220424D01*
X0612008Y0222023D02*
X0055639Y0222023D01*
X0055639Y0223621D02*
X0612008Y0223621D01*
X0612008Y0225220D02*
X0055639Y0225220D01*
X0055639Y0226818D02*
X0612008Y0226818D01*
X0612008Y0228417D02*
X0055639Y0228417D01*
X0055639Y0230015D02*
X0612008Y0230015D01*
X0612008Y0231614D02*
X0055639Y0231614D01*
X0055639Y0233212D02*
X0125104Y0233212D01*
X0123945Y0233692D02*
X0127289Y0232307D01*
X0130909Y0232307D01*
X0134253Y0233692D01*
X0136813Y0236252D01*
X0138198Y0239596D01*
X0138198Y0243216D01*
X0136813Y0246561D01*
X0134253Y0249120D01*
X0130909Y0250505D01*
X0127289Y0250505D01*
X0123945Y0249120D01*
X0121385Y0246561D01*
X0120000Y0243216D01*
X0120000Y0239596D01*
X0121385Y0236252D01*
X0123945Y0233692D01*
X0122826Y0234811D02*
X0055639Y0234811D01*
X0055639Y0236409D02*
X0121320Y0236409D01*
X0120658Y0238008D02*
X0055639Y0238008D01*
X0055639Y0239606D02*
X0120000Y0239606D01*
X0120000Y0241205D02*
X0055639Y0241205D01*
X0055639Y0242803D02*
X0120000Y0242803D01*
X0120491Y0244402D02*
X0055639Y0244402D01*
X0055639Y0246001D02*
X0121153Y0246001D01*
X0122424Y0247599D02*
X0055639Y0247599D01*
X0055639Y0249198D02*
X0124132Y0249198D01*
X0134067Y0249198D02*
X0159565Y0249198D01*
X0159378Y0249120D02*
X0156818Y0246561D01*
X0155433Y0243216D01*
X0155433Y0239596D01*
X0156818Y0236252D01*
X0159378Y0233692D01*
X0162722Y0232307D01*
X0166342Y0232307D01*
X0169687Y0233692D01*
X0172246Y0236252D01*
X0173631Y0239596D01*
X0173631Y0243216D01*
X0172246Y0246561D01*
X0169687Y0249120D01*
X0166342Y0250505D01*
X0162722Y0250505D01*
X0159378Y0249120D01*
X0157857Y0247599D02*
X0135775Y0247599D01*
X0137045Y0246001D02*
X0156586Y0246001D01*
X0155924Y0244402D02*
X0137707Y0244402D01*
X0138198Y0242803D02*
X0155433Y0242803D01*
X0155433Y0241205D02*
X0138198Y0241205D01*
X0138198Y0239606D02*
X0155433Y0239606D01*
X0156091Y0238008D02*
X0137540Y0238008D01*
X0136878Y0236409D02*
X0156753Y0236409D01*
X0158259Y0234811D02*
X0135372Y0234811D01*
X0133095Y0233212D02*
X0160537Y0233212D01*
X0168528Y0233212D02*
X0195970Y0233212D01*
X0194811Y0233692D02*
X0198155Y0232307D01*
X0201775Y0232307D01*
X0205120Y0233692D01*
X0207679Y0236252D01*
X0209065Y0239596D01*
X0209065Y0243216D01*
X0207679Y0246561D01*
X0205120Y0249120D01*
X0201775Y0250505D01*
X0198155Y0250505D01*
X0194811Y0249120D01*
X0192251Y0246561D01*
X0190866Y0243216D01*
X0190866Y0239596D01*
X0192251Y0236252D01*
X0194811Y0233692D01*
X0193692Y0234811D02*
X0170805Y0234811D01*
X0172311Y0236409D02*
X0192186Y0236409D01*
X0191524Y0238008D02*
X0172974Y0238008D01*
X0173631Y0239606D02*
X0190866Y0239606D01*
X0190866Y0241205D02*
X0173631Y0241205D01*
X0173631Y0242803D02*
X0190866Y0242803D01*
X0191357Y0244402D02*
X0173140Y0244402D01*
X0172478Y0246001D02*
X0192019Y0246001D01*
X0193290Y0247599D02*
X0171208Y0247599D01*
X0169500Y0249198D02*
X0194998Y0249198D01*
X0204933Y0249198D02*
X0230431Y0249198D01*
X0230244Y0249120D02*
X0227684Y0246561D01*
X0226299Y0243216D01*
X0226299Y0239596D01*
X0227684Y0236252D01*
X0230244Y0233692D01*
X0233588Y0232307D01*
X0237208Y0232307D01*
X0240553Y0233692D01*
X0243112Y0236252D01*
X0244498Y0239596D01*
X0244498Y0243216D01*
X0243112Y0246561D01*
X0240553Y0249120D01*
X0237208Y0250505D01*
X0233588Y0250505D01*
X0230244Y0249120D01*
X0228723Y0247599D02*
X0206641Y0247599D01*
X0207911Y0246001D02*
X0227453Y0246001D01*
X0226790Y0244402D02*
X0208573Y0244402D01*
X0209065Y0242803D02*
X0226299Y0242803D01*
X0226299Y0241205D02*
X0209065Y0241205D01*
X0209065Y0239606D02*
X0226299Y0239606D01*
X0226957Y0238008D02*
X0208407Y0238008D01*
X0207744Y0236409D02*
X0227619Y0236409D01*
X0229126Y0234811D02*
X0206238Y0234811D01*
X0203961Y0233212D02*
X0231403Y0233212D01*
X0239394Y0233212D02*
X0266836Y0233212D01*
X0265677Y0233692D02*
X0269022Y0232307D01*
X0272641Y0232307D01*
X0275986Y0233692D01*
X0278545Y0236252D01*
X0279931Y0239596D01*
X0279931Y0243216D01*
X0278545Y0246561D01*
X0275986Y0249120D01*
X0272641Y0250505D01*
X0269022Y0250505D01*
X0265677Y0249120D01*
X0263118Y0246561D01*
X0261732Y0243216D01*
X0261732Y0239596D01*
X0263118Y0236252D01*
X0265677Y0233692D01*
X0264559Y0234811D02*
X0241671Y0234811D01*
X0243178Y0236409D02*
X0263052Y0236409D01*
X0262390Y0238008D02*
X0243840Y0238008D01*
X0244498Y0239606D02*
X0261732Y0239606D01*
X0261732Y0241205D02*
X0244498Y0241205D01*
X0244498Y0242803D02*
X0261732Y0242803D01*
X0262223Y0244402D02*
X0244006Y0244402D01*
X0243344Y0246001D02*
X0262886Y0246001D01*
X0264156Y0247599D02*
X0242074Y0247599D01*
X0240366Y0249198D02*
X0265864Y0249198D01*
X0275799Y0249198D02*
X0301297Y0249198D01*
X0301110Y0249120D02*
X0298551Y0246561D01*
X0297165Y0243216D01*
X0297165Y0239596D01*
X0298551Y0236252D01*
X0301110Y0233692D01*
X0304455Y0232307D01*
X0308075Y0232307D01*
X0311419Y0233692D01*
X0313978Y0236252D01*
X0315364Y0239596D01*
X0315364Y0243216D01*
X0313978Y0246561D01*
X0311419Y0249120D01*
X0308075Y0250505D01*
X0304455Y0250505D01*
X0301110Y0249120D01*
X0299589Y0247599D02*
X0277507Y0247599D01*
X0278777Y0246001D02*
X0298319Y0246001D01*
X0297657Y0244402D02*
X0279440Y0244402D01*
X0279931Y0242803D02*
X0297165Y0242803D01*
X0297165Y0241205D02*
X0279931Y0241205D01*
X0279931Y0239606D02*
X0297165Y0239606D01*
X0297823Y0238008D02*
X0279273Y0238008D01*
X0278611Y0236409D02*
X0298485Y0236409D01*
X0299992Y0234811D02*
X0277104Y0234811D01*
X0274827Y0233212D02*
X0302269Y0233212D01*
X0310260Y0233212D02*
X0337702Y0233212D01*
X0336543Y0233692D02*
X0339888Y0232307D01*
X0343508Y0232307D01*
X0346852Y0233692D01*
X0349412Y0236252D01*
X0350797Y0239596D01*
X0350797Y0243216D01*
X0349412Y0246561D01*
X0346852Y0249120D01*
X0343508Y0250505D01*
X0339888Y0250505D01*
X0336543Y0249120D01*
X0333984Y0246561D01*
X0332598Y0243216D01*
X0332598Y0239596D01*
X0333984Y0236252D01*
X0336543Y0233692D01*
X0335425Y0234811D02*
X0312537Y0234811D01*
X0314044Y0236409D02*
X0333918Y0236409D01*
X0333256Y0238008D02*
X0314706Y0238008D01*
X0315364Y0239606D02*
X0332598Y0239606D01*
X0332598Y0241205D02*
X0315364Y0241205D01*
X0315364Y0242803D02*
X0332598Y0242803D01*
X0333090Y0244402D02*
X0314873Y0244402D01*
X0314210Y0246001D02*
X0333752Y0246001D01*
X0335022Y0247599D02*
X0312940Y0247599D01*
X0311232Y0249198D02*
X0336730Y0249198D01*
X0346665Y0249198D02*
X0372163Y0249198D01*
X0371976Y0249120D02*
X0369417Y0246561D01*
X0368031Y0243216D01*
X0368031Y0239596D01*
X0369417Y0236252D01*
X0371976Y0233692D01*
X0375321Y0232307D01*
X0378941Y0232307D01*
X0382285Y0233692D01*
X0384845Y0236252D01*
X0386230Y0239596D01*
X0386230Y0243216D01*
X0384845Y0246561D01*
X0382285Y0249120D01*
X0378941Y0250505D01*
X0375321Y0250505D01*
X0371976Y0249120D01*
X0370455Y0247599D02*
X0348373Y0247599D01*
X0349644Y0246001D02*
X0369185Y0246001D01*
X0368523Y0244402D02*
X0350306Y0244402D01*
X0350797Y0242803D02*
X0368031Y0242803D01*
X0368031Y0241205D02*
X0350797Y0241205D01*
X0350797Y0239606D02*
X0368031Y0239606D01*
X0368689Y0238008D02*
X0350139Y0238008D01*
X0349477Y0236409D02*
X0369352Y0236409D01*
X0370858Y0234811D02*
X0347970Y0234811D01*
X0345693Y0233212D02*
X0373135Y0233212D01*
X0381126Y0233212D02*
X0408568Y0233212D01*
X0407409Y0233692D02*
X0410754Y0232307D01*
X0414374Y0232307D01*
X0417718Y0233692D01*
X0420278Y0236252D01*
X0421663Y0239596D01*
X0421663Y0243216D01*
X0420278Y0246561D01*
X0417718Y0249120D01*
X0414374Y0250505D01*
X0410754Y0250505D01*
X0407409Y0249120D01*
X0404850Y0246561D01*
X0403465Y0243216D01*
X0403465Y0239596D01*
X0404850Y0236252D01*
X0407409Y0233692D01*
X0406291Y0234811D02*
X0383404Y0234811D01*
X0384910Y0236409D02*
X0404785Y0236409D01*
X0404122Y0238008D02*
X0385572Y0238008D01*
X0386230Y0239606D02*
X0403465Y0239606D01*
X0403465Y0241205D02*
X0386230Y0241205D01*
X0386230Y0242803D02*
X0403465Y0242803D01*
X0403956Y0244402D02*
X0385739Y0244402D01*
X0385077Y0246001D02*
X0404618Y0246001D01*
X0405888Y0247599D02*
X0383806Y0247599D01*
X0382098Y0249198D02*
X0407596Y0249198D01*
X0417531Y0249198D02*
X0443029Y0249198D01*
X0442843Y0249120D02*
X0440283Y0246561D01*
X0438898Y0243216D01*
X0438898Y0239596D01*
X0440283Y0236252D01*
X0442843Y0233692D01*
X0446187Y0232307D01*
X0449807Y0232307D01*
X0453151Y0233692D01*
X0455711Y0236252D01*
X0457096Y0239596D01*
X0457096Y0243216D01*
X0455711Y0246561D01*
X0453151Y0249120D01*
X0449807Y0250505D01*
X0446187Y0250505D01*
X0442843Y0249120D01*
X0441321Y0247599D02*
X0419239Y0247599D01*
X0420510Y0246001D02*
X0440051Y0246001D01*
X0439389Y0244402D02*
X0421172Y0244402D01*
X0421663Y0242803D02*
X0438898Y0242803D01*
X0438898Y0241205D02*
X0421663Y0241205D01*
X0421663Y0239606D02*
X0438898Y0239606D01*
X0439556Y0238008D02*
X0421005Y0238008D01*
X0420343Y0236409D02*
X0440218Y0236409D01*
X0441724Y0234811D02*
X0418837Y0234811D01*
X0416559Y0233212D02*
X0444001Y0233212D01*
X0451992Y0233212D02*
X0479434Y0233212D01*
X0478276Y0233692D02*
X0481620Y0232307D01*
X0485240Y0232307D01*
X0488584Y0233692D01*
X0491144Y0236252D01*
X0492529Y0239596D01*
X0492529Y0243216D01*
X0491144Y0246561D01*
X0488584Y0249120D01*
X0485240Y0250505D01*
X0481620Y0250505D01*
X0478276Y0249120D01*
X0475716Y0246561D01*
X0474331Y0243216D01*
X0474331Y0239596D01*
X0475716Y0236252D01*
X0478276Y0233692D01*
X0477157Y0234811D02*
X0454270Y0234811D01*
X0455776Y0236409D02*
X0475651Y0236409D01*
X0474989Y0238008D02*
X0456438Y0238008D01*
X0457096Y0239606D02*
X0474331Y0239606D01*
X0474331Y0241205D02*
X0457096Y0241205D01*
X0457096Y0242803D02*
X0474331Y0242803D01*
X0474822Y0244402D02*
X0456605Y0244402D01*
X0455943Y0246001D02*
X0475484Y0246001D01*
X0476754Y0247599D02*
X0454672Y0247599D01*
X0452964Y0249198D02*
X0478462Y0249198D01*
X0488398Y0249198D02*
X0513895Y0249198D01*
X0513709Y0249120D02*
X0511149Y0246561D01*
X0509764Y0243216D01*
X0509764Y0239596D01*
X0511149Y0236252D01*
X0513709Y0233692D01*
X0517053Y0232307D01*
X0520673Y0232307D01*
X0524017Y0233692D01*
X0526577Y0236252D01*
X0527962Y0239596D01*
X0527962Y0243216D01*
X0526577Y0246561D01*
X0524017Y0249120D01*
X0520673Y0250505D01*
X0517053Y0250505D01*
X0513709Y0249120D01*
X0512187Y0247599D02*
X0490105Y0247599D01*
X0491376Y0246001D02*
X0510917Y0246001D01*
X0510255Y0244402D02*
X0492038Y0244402D01*
X0492529Y0242803D02*
X0509764Y0242803D01*
X0509764Y0241205D02*
X0492529Y0241205D01*
X0492529Y0239606D02*
X0509764Y0239606D01*
X0510422Y0238008D02*
X0491871Y0238008D01*
X0491209Y0236409D02*
X0511084Y0236409D01*
X0512590Y0234811D02*
X0489703Y0234811D01*
X0487426Y0233212D02*
X0514867Y0233212D01*
X0522859Y0233212D02*
X0612008Y0233212D01*
X0612008Y0234811D02*
X0525136Y0234811D01*
X0526642Y0236409D02*
X0612008Y0236409D01*
X0612008Y0238008D02*
X0527304Y0238008D01*
X0527962Y0239606D02*
X0612008Y0239606D01*
X0612008Y0241205D02*
X0527962Y0241205D01*
X0527962Y0242803D02*
X0612008Y0242803D01*
X0612008Y0244402D02*
X0527471Y0244402D01*
X0526809Y0246001D02*
X0612008Y0246001D01*
X0612008Y0247599D02*
X0525538Y0247599D01*
X0523831Y0249198D02*
X0612008Y0249198D01*
X0612008Y0250796D02*
X0055639Y0250796D01*
X0055639Y0252395D02*
X0612008Y0252395D01*
X0612008Y0253993D02*
X0055639Y0253993D01*
X0055639Y0255592D02*
X0612008Y0255592D01*
X0612008Y0257190D02*
X0055639Y0257190D01*
X0055639Y0258789D02*
X0612008Y0258789D01*
X0612008Y0260387D02*
X0055639Y0260387D01*
X0055639Y0261986D02*
X0612008Y0261986D01*
X0612008Y0263584D02*
X0055639Y0263584D01*
X0055639Y0265183D02*
X0612008Y0265183D01*
X0612008Y0266781D02*
X0055639Y0266781D01*
X0055639Y0268380D02*
X0125745Y0268380D01*
X0127289Y0267740D02*
X0123945Y0269125D01*
X0121385Y0271685D01*
X0120000Y0275029D01*
X0120000Y0278649D01*
X0121385Y0281994D01*
X0123945Y0284553D01*
X0127289Y0285939D01*
X0130909Y0285939D01*
X0134253Y0284553D01*
X0136813Y0281994D01*
X0138198Y0278649D01*
X0138198Y0275029D01*
X0136813Y0271685D01*
X0134253Y0269125D01*
X0130909Y0267740D01*
X0127289Y0267740D01*
X0123092Y0269978D02*
X0055639Y0269978D01*
X0055639Y0271577D02*
X0121494Y0271577D01*
X0120768Y0273175D02*
X0055639Y0273175D01*
X0055639Y0274774D02*
X0120106Y0274774D01*
X0120000Y0276372D02*
X0055639Y0276372D01*
X0055639Y0277971D02*
X0120000Y0277971D01*
X0120381Y0279569D02*
X0055639Y0279569D01*
X0055639Y0281168D02*
X0121043Y0281168D01*
X0122158Y0282766D02*
X0055639Y0282766D01*
X0055639Y0284365D02*
X0123756Y0284365D01*
X0134442Y0284365D02*
X0159189Y0284365D01*
X0159378Y0284553D02*
X0156818Y0281994D01*
X0155433Y0278649D01*
X0155433Y0275029D01*
X0156818Y0271685D01*
X0159378Y0269125D01*
X0162722Y0267740D01*
X0166342Y0267740D01*
X0169687Y0269125D01*
X0172246Y0271685D01*
X0173631Y0275029D01*
X0173631Y0278649D01*
X0172246Y0281994D01*
X0169687Y0284553D01*
X0166342Y0285939D01*
X0162722Y0285939D01*
X0159378Y0284553D01*
X0157591Y0282766D02*
X0136041Y0282766D01*
X0137155Y0281168D02*
X0156476Y0281168D01*
X0155814Y0279569D02*
X0137817Y0279569D01*
X0138198Y0277971D02*
X0155433Y0277971D01*
X0155433Y0276372D02*
X0138198Y0276372D01*
X0138092Y0274774D02*
X0155539Y0274774D01*
X0156201Y0273175D02*
X0137430Y0273175D01*
X0136705Y0271577D02*
X0156927Y0271577D01*
X0158525Y0269978D02*
X0135106Y0269978D01*
X0132453Y0268380D02*
X0161178Y0268380D01*
X0167886Y0268380D02*
X0196611Y0268380D01*
X0198155Y0267740D02*
X0201775Y0267740D01*
X0205120Y0269125D01*
X0207679Y0271685D01*
X0209065Y0275029D01*
X0209065Y0278649D01*
X0207679Y0281994D01*
X0205120Y0284553D01*
X0201775Y0285939D01*
X0198155Y0285939D01*
X0194811Y0284553D01*
X0192251Y0281994D01*
X0190866Y0278649D01*
X0190866Y0275029D01*
X0192251Y0271685D01*
X0194811Y0269125D01*
X0198155Y0267740D01*
X0193958Y0269978D02*
X0170539Y0269978D01*
X0172138Y0271577D02*
X0192360Y0271577D01*
X0191634Y0273175D02*
X0172863Y0273175D01*
X0173526Y0274774D02*
X0190972Y0274774D01*
X0190866Y0276372D02*
X0173631Y0276372D01*
X0173631Y0277971D02*
X0190866Y0277971D01*
X0191247Y0279569D02*
X0173250Y0279569D01*
X0172588Y0281168D02*
X0191909Y0281168D01*
X0193024Y0282766D02*
X0171474Y0282766D01*
X0169875Y0284365D02*
X0194623Y0284365D01*
X0205308Y0284365D02*
X0230056Y0284365D01*
X0230244Y0284553D02*
X0227684Y0281994D01*
X0226299Y0278649D01*
X0226299Y0275029D01*
X0227684Y0271685D01*
X0230244Y0269125D01*
X0233588Y0267740D01*
X0237208Y0267740D01*
X0240553Y0269125D01*
X0243112Y0271685D01*
X0244498Y0275029D01*
X0244498Y0278649D01*
X0243112Y0281994D01*
X0240553Y0284553D01*
X0237208Y0285939D01*
X0233588Y0285939D01*
X0230244Y0284553D01*
X0228457Y0282766D02*
X0206907Y0282766D01*
X0208021Y0281168D02*
X0227342Y0281168D01*
X0226680Y0279569D02*
X0208684Y0279569D01*
X0209065Y0277971D02*
X0226299Y0277971D01*
X0226299Y0276372D02*
X0209065Y0276372D01*
X0208959Y0274774D02*
X0226405Y0274774D01*
X0227067Y0273175D02*
X0208297Y0273175D01*
X0207571Y0271577D02*
X0227793Y0271577D01*
X0229391Y0269978D02*
X0205972Y0269978D01*
X0203319Y0268380D02*
X0232045Y0268380D01*
X0238752Y0268380D02*
X0267478Y0268380D01*
X0269022Y0267740D02*
X0272641Y0267740D01*
X0275986Y0269125D01*
X0278545Y0271685D01*
X0279931Y0275029D01*
X0279931Y0278649D01*
X0278545Y0281994D01*
X0275986Y0284553D01*
X0272641Y0285939D01*
X0269022Y0285939D01*
X0265677Y0284553D01*
X0263118Y0281994D01*
X0261732Y0278649D01*
X0261732Y0275029D01*
X0263118Y0271685D01*
X0265677Y0269125D01*
X0269022Y0267740D01*
X0264824Y0269978D02*
X0241405Y0269978D01*
X0243004Y0271577D02*
X0263226Y0271577D01*
X0262500Y0273175D02*
X0243730Y0273175D01*
X0244392Y0274774D02*
X0261838Y0274774D01*
X0261732Y0276372D02*
X0244498Y0276372D01*
X0244498Y0277971D02*
X0261732Y0277971D01*
X0262113Y0279569D02*
X0244117Y0279569D01*
X0243454Y0281168D02*
X0262775Y0281168D01*
X0263890Y0282766D02*
X0242340Y0282766D01*
X0240741Y0284365D02*
X0265489Y0284365D01*
X0276174Y0284365D02*
X0300922Y0284365D01*
X0301110Y0284553D02*
X0298551Y0281994D01*
X0297165Y0278649D01*
X0297165Y0275029D01*
X0298551Y0271685D01*
X0301110Y0269125D01*
X0304455Y0267740D01*
X0308075Y0267740D01*
X0311419Y0269125D01*
X0313978Y0271685D01*
X0315364Y0275029D01*
X0315364Y0278649D01*
X0313978Y0281994D01*
X0311419Y0284553D01*
X0308075Y0285939D01*
X0304455Y0285939D01*
X0301110Y0284553D01*
X0299323Y0282766D02*
X0277773Y0282766D01*
X0278888Y0281168D02*
X0298209Y0281168D01*
X0297546Y0279569D02*
X0279550Y0279569D01*
X0279931Y0277971D02*
X0297165Y0277971D01*
X0297165Y0276372D02*
X0279931Y0276372D01*
X0279825Y0274774D02*
X0297271Y0274774D01*
X0297933Y0273175D02*
X0279163Y0273175D01*
X0278437Y0271577D02*
X0298659Y0271577D01*
X0300258Y0269978D02*
X0276839Y0269978D01*
X0274185Y0268380D02*
X0302911Y0268380D01*
X0309618Y0268380D02*
X0338344Y0268380D01*
X0339888Y0267740D02*
X0336543Y0269125D01*
X0333984Y0271685D01*
X0332598Y0275029D01*
X0332598Y0278649D01*
X0333984Y0281994D01*
X0336543Y0284553D01*
X0339888Y0285939D01*
X0343508Y0285939D01*
X0346852Y0284553D01*
X0349412Y0281994D01*
X0350797Y0278649D01*
X0350797Y0275029D01*
X0349412Y0271685D01*
X0346852Y0269125D01*
X0343508Y0267740D01*
X0339888Y0267740D01*
X0335691Y0269978D02*
X0312272Y0269978D01*
X0313870Y0271577D02*
X0334092Y0271577D01*
X0333366Y0273175D02*
X0314596Y0273175D01*
X0315258Y0274774D02*
X0332704Y0274774D01*
X0332598Y0276372D02*
X0315364Y0276372D01*
X0315364Y0277971D02*
X0332598Y0277971D01*
X0332979Y0279569D02*
X0314983Y0279569D01*
X0314321Y0281168D02*
X0333642Y0281168D01*
X0334756Y0282766D02*
X0313206Y0282766D01*
X0311607Y0284365D02*
X0336355Y0284365D01*
X0347040Y0284365D02*
X0371788Y0284365D01*
X0371976Y0284553D02*
X0369417Y0281994D01*
X0368031Y0278649D01*
X0368031Y0275029D01*
X0369417Y0271685D01*
X0371976Y0269125D01*
X0375321Y0267740D01*
X0378941Y0267740D01*
X0382285Y0269125D01*
X0384845Y0271685D01*
X0386230Y0275029D01*
X0386230Y0278649D01*
X0384845Y0281994D01*
X0382285Y0284553D01*
X0378941Y0285939D01*
X0375321Y0285939D01*
X0371976Y0284553D01*
X0370189Y0282766D02*
X0348639Y0282766D01*
X0349754Y0281168D02*
X0369075Y0281168D01*
X0368413Y0279569D02*
X0350416Y0279569D01*
X0350797Y0277971D02*
X0368031Y0277971D01*
X0368031Y0276372D02*
X0350797Y0276372D01*
X0350691Y0274774D02*
X0368137Y0274774D01*
X0368800Y0273175D02*
X0350029Y0273175D01*
X0349303Y0271577D02*
X0369525Y0271577D01*
X0371124Y0269978D02*
X0347705Y0269978D01*
X0345052Y0268380D02*
X0373777Y0268380D01*
X0380485Y0268380D02*
X0409210Y0268380D01*
X0410754Y0267740D02*
X0414374Y0267740D01*
X0417718Y0269125D01*
X0420278Y0271685D01*
X0421663Y0275029D01*
X0421663Y0278649D01*
X0420278Y0281994D01*
X0417718Y0284553D01*
X0414374Y0285939D01*
X0410754Y0285939D01*
X0407409Y0284553D01*
X0404850Y0281994D01*
X0403465Y0278649D01*
X0403465Y0275029D01*
X0404850Y0271685D01*
X0407409Y0269125D01*
X0410754Y0267740D01*
X0406557Y0269978D02*
X0383138Y0269978D01*
X0384736Y0271577D02*
X0404958Y0271577D01*
X0404233Y0273175D02*
X0385462Y0273175D01*
X0386124Y0274774D02*
X0403570Y0274774D01*
X0403465Y0276372D02*
X0386230Y0276372D01*
X0386230Y0277971D02*
X0403465Y0277971D01*
X0403846Y0279569D02*
X0385849Y0279569D01*
X0385187Y0281168D02*
X0404508Y0281168D01*
X0405622Y0282766D02*
X0384072Y0282766D01*
X0382473Y0284365D02*
X0407221Y0284365D01*
X0417907Y0284365D02*
X0442654Y0284365D01*
X0442843Y0284553D02*
X0440283Y0281994D01*
X0438898Y0278649D01*
X0438898Y0275029D01*
X0440283Y0271685D01*
X0442843Y0269125D01*
X0446187Y0267740D01*
X0449807Y0267740D01*
X0453151Y0269125D01*
X0455711Y0271685D01*
X0457096Y0275029D01*
X0457096Y0278649D01*
X0455711Y0281994D01*
X0453151Y0284553D01*
X0449807Y0285939D01*
X0446187Y0285939D01*
X0442843Y0284553D01*
X0441056Y0282766D02*
X0419505Y0282766D01*
X0420620Y0281168D02*
X0439941Y0281168D01*
X0439279Y0279569D02*
X0421282Y0279569D01*
X0421663Y0277971D02*
X0438898Y0277971D01*
X0438898Y0276372D02*
X0421663Y0276372D01*
X0421557Y0274774D02*
X0439004Y0274774D01*
X0439666Y0273175D02*
X0420895Y0273175D01*
X0420169Y0271577D02*
X0440391Y0271577D01*
X0441990Y0269978D02*
X0418571Y0269978D01*
X0415918Y0268380D02*
X0444643Y0268380D01*
X0451351Y0268380D02*
X0480076Y0268380D01*
X0481620Y0267740D02*
X0485240Y0267740D01*
X0488584Y0269125D01*
X0491144Y0271685D01*
X0492529Y0275029D01*
X0492529Y0278649D01*
X0491144Y0281994D01*
X0488584Y0284553D01*
X0485240Y0285939D01*
X0481620Y0285939D01*
X0478276Y0284553D01*
X0475716Y0281994D01*
X0474331Y0278649D01*
X0474331Y0275029D01*
X0475716Y0271685D01*
X0478276Y0269125D01*
X0481620Y0267740D01*
X0477423Y0269978D02*
X0454004Y0269978D01*
X0455602Y0271577D02*
X0475824Y0271577D01*
X0475099Y0273175D02*
X0456328Y0273175D01*
X0456990Y0274774D02*
X0474437Y0274774D01*
X0474331Y0276372D02*
X0457096Y0276372D01*
X0457096Y0277971D02*
X0474331Y0277971D01*
X0474712Y0279569D02*
X0456715Y0279569D01*
X0456053Y0281168D02*
X0475374Y0281168D01*
X0476489Y0282766D02*
X0454938Y0282766D01*
X0453340Y0284365D02*
X0478087Y0284365D01*
X0488773Y0284365D02*
X0513520Y0284365D01*
X0513709Y0284553D02*
X0511149Y0281994D01*
X0509764Y0278649D01*
X0509764Y0275029D01*
X0511149Y0271685D01*
X0513709Y0269125D01*
X0517053Y0267740D01*
X0520673Y0267740D01*
X0524017Y0269125D01*
X0526577Y0271685D01*
X0527962Y0275029D01*
X0527962Y0278649D01*
X0526577Y0281994D01*
X0524017Y0284553D01*
X0520673Y0285939D01*
X0517053Y0285939D01*
X0513709Y0284553D01*
X0511922Y0282766D02*
X0490371Y0282766D01*
X0491486Y0281168D02*
X0510807Y0281168D01*
X0510145Y0279569D02*
X0492148Y0279569D01*
X0492529Y0277971D02*
X0509764Y0277971D01*
X0509764Y0276372D02*
X0492529Y0276372D01*
X0492423Y0274774D02*
X0509870Y0274774D01*
X0510532Y0273175D02*
X0491761Y0273175D01*
X0491035Y0271577D02*
X0511257Y0271577D01*
X0512856Y0269978D02*
X0489437Y0269978D01*
X0486784Y0268380D02*
X0515509Y0268380D01*
X0522217Y0268380D02*
X0612008Y0268380D01*
X0612008Y0269978D02*
X0524870Y0269978D01*
X0526469Y0271577D02*
X0612008Y0271577D01*
X0612008Y0273175D02*
X0527194Y0273175D01*
X0527856Y0274774D02*
X0612008Y0274774D01*
X0612008Y0276372D02*
X0527962Y0276372D01*
X0527962Y0277971D02*
X0612008Y0277971D01*
X0612008Y0279569D02*
X0527581Y0279569D01*
X0526919Y0281168D02*
X0612008Y0281168D01*
X0612008Y0282766D02*
X0525804Y0282766D01*
X0524206Y0284365D02*
X0612008Y0284365D01*
X0612008Y0285963D02*
X0055639Y0285963D01*
X0055639Y0287562D02*
X0612008Y0287562D01*
X0612008Y0289160D02*
X0055639Y0289160D01*
X0055639Y0290759D02*
X0612008Y0290759D01*
X0612008Y0292357D02*
X0055639Y0292357D01*
X0055639Y0293956D02*
X0612008Y0293956D01*
X0612008Y0295554D02*
X0055639Y0295554D01*
X0055639Y0297153D02*
X0612008Y0297153D01*
X0612008Y0298751D02*
X0055639Y0298751D01*
X0055639Y0300350D02*
X0612008Y0300350D01*
X0612008Y0301948D02*
X0055639Y0301948D01*
X0055639Y0303547D02*
X0126387Y0303547D01*
X0127289Y0303173D02*
X0130909Y0303173D01*
X0134253Y0304559D01*
X0136813Y0307118D01*
X0138198Y0310462D01*
X0138198Y0314082D01*
X0136813Y0317427D01*
X0134253Y0319986D01*
X0130909Y0321372D01*
X0127289Y0321372D01*
X0123945Y0319986D01*
X0121385Y0317427D01*
X0120000Y0314082D01*
X0120000Y0310462D01*
X0121385Y0307118D01*
X0123945Y0304559D01*
X0127289Y0303173D01*
X0123358Y0305145D02*
X0055639Y0305145D01*
X0055639Y0306744D02*
X0121759Y0306744D01*
X0120878Y0308342D02*
X0055639Y0308342D01*
X0055639Y0309941D02*
X0120216Y0309941D01*
X0120000Y0311539D02*
X0055639Y0311539D01*
X0055639Y0313138D02*
X0120000Y0313138D01*
X0120271Y0314737D02*
X0055639Y0314737D01*
X0055639Y0316335D02*
X0120933Y0316335D01*
X0121892Y0317934D02*
X0055639Y0317934D01*
X0055639Y0319532D02*
X0123491Y0319532D01*
X0126707Y0321131D02*
X0055639Y0321131D01*
X0055639Y0322729D02*
X0612008Y0322729D01*
X0612008Y0321131D02*
X0521255Y0321131D01*
X0520673Y0321372D02*
X0517053Y0321372D01*
X0513709Y0319986D01*
X0511149Y0317427D01*
X0509764Y0314082D01*
X0509764Y0310462D01*
X0511149Y0307118D01*
X0513709Y0304559D01*
X0517053Y0303173D01*
X0520673Y0303173D01*
X0524017Y0304559D01*
X0526577Y0307118D01*
X0527962Y0310462D01*
X0527962Y0314082D01*
X0526577Y0317427D01*
X0524017Y0319986D01*
X0520673Y0321372D01*
X0516471Y0321131D02*
X0485822Y0321131D01*
X0485240Y0321372D02*
X0488584Y0319986D01*
X0491144Y0317427D01*
X0492529Y0314082D01*
X0492529Y0310462D01*
X0491144Y0307118D01*
X0488584Y0304559D01*
X0485240Y0303173D01*
X0481620Y0303173D01*
X0478276Y0304559D01*
X0475716Y0307118D01*
X0474331Y0310462D01*
X0474331Y0314082D01*
X0475716Y0317427D01*
X0478276Y0319986D01*
X0481620Y0321372D01*
X0485240Y0321372D01*
X0481038Y0321131D02*
X0450389Y0321131D01*
X0449807Y0321372D02*
X0446187Y0321372D01*
X0442843Y0319986D01*
X0440283Y0317427D01*
X0438898Y0314082D01*
X0438898Y0310462D01*
X0440283Y0307118D01*
X0442843Y0304559D01*
X0446187Y0303173D01*
X0449807Y0303173D01*
X0453151Y0304559D01*
X0455711Y0307118D01*
X0457096Y0310462D01*
X0457096Y0314082D01*
X0455711Y0317427D01*
X0453151Y0319986D01*
X0449807Y0321372D01*
X0445605Y0321131D02*
X0414956Y0321131D01*
X0414374Y0321372D02*
X0410754Y0321372D01*
X0407409Y0319986D01*
X0404850Y0317427D01*
X0403465Y0314082D01*
X0403465Y0310462D01*
X0404850Y0307118D01*
X0407409Y0304559D01*
X0410754Y0303173D01*
X0414374Y0303173D01*
X0417718Y0304559D01*
X0420278Y0307118D01*
X0421663Y0310462D01*
X0421663Y0314082D01*
X0420278Y0317427D01*
X0417718Y0319986D01*
X0414374Y0321372D01*
X0410172Y0321131D02*
X0379523Y0321131D01*
X0378941Y0321372D02*
X0382285Y0319986D01*
X0384845Y0317427D01*
X0386230Y0314082D01*
X0386230Y0310462D01*
X0384845Y0307118D01*
X0382285Y0304559D01*
X0378941Y0303173D01*
X0375321Y0303173D01*
X0371976Y0304559D01*
X0369417Y0307118D01*
X0368031Y0310462D01*
X0368031Y0314082D01*
X0369417Y0317427D01*
X0371976Y0319986D01*
X0375321Y0321372D01*
X0378941Y0321372D01*
X0374739Y0321131D02*
X0344090Y0321131D01*
X0343508Y0321372D02*
X0339888Y0321372D01*
X0336543Y0319986D01*
X0333984Y0317427D01*
X0332598Y0314082D01*
X0332598Y0310462D01*
X0333984Y0307118D01*
X0336543Y0304559D01*
X0339888Y0303173D01*
X0343508Y0303173D01*
X0346852Y0304559D01*
X0349412Y0307118D01*
X0350797Y0310462D01*
X0350797Y0314082D01*
X0349412Y0317427D01*
X0346852Y0319986D01*
X0343508Y0321372D01*
X0339306Y0321131D02*
X0308657Y0321131D01*
X0308075Y0321372D02*
X0304455Y0321372D01*
X0301110Y0319986D01*
X0298551Y0317427D01*
X0297165Y0314082D01*
X0297165Y0310462D01*
X0298551Y0307118D01*
X0301110Y0304559D01*
X0304455Y0303173D01*
X0308075Y0303173D01*
X0311419Y0304559D01*
X0313978Y0307118D01*
X0315364Y0310462D01*
X0315364Y0314082D01*
X0313978Y0317427D01*
X0311419Y0319986D01*
X0308075Y0321372D01*
X0303873Y0321131D02*
X0273223Y0321131D01*
X0272641Y0321372D02*
X0269022Y0321372D01*
X0265677Y0319986D01*
X0263118Y0317427D01*
X0261732Y0314082D01*
X0261732Y0310462D01*
X0263118Y0307118D01*
X0265677Y0304559D01*
X0269022Y0303173D01*
X0272641Y0303173D01*
X0275986Y0304559D01*
X0278545Y0307118D01*
X0279931Y0310462D01*
X0279931Y0314082D01*
X0278545Y0317427D01*
X0275986Y0319986D01*
X0272641Y0321372D01*
X0268440Y0321131D02*
X0237790Y0321131D01*
X0237208Y0321372D02*
X0233588Y0321372D01*
X0230244Y0319986D01*
X0227684Y0317427D01*
X0226299Y0314082D01*
X0226299Y0310462D01*
X0227684Y0307118D01*
X0230244Y0304559D01*
X0233588Y0303173D01*
X0237208Y0303173D01*
X0240553Y0304559D01*
X0243112Y0307118D01*
X0244498Y0310462D01*
X0244498Y0314082D01*
X0243112Y0317427D01*
X0240553Y0319986D01*
X0237208Y0321372D01*
X0233006Y0321131D02*
X0202357Y0321131D01*
X0201775Y0321372D02*
X0198155Y0321372D01*
X0194811Y0319986D01*
X0192251Y0317427D01*
X0190866Y0314082D01*
X0190866Y0310462D01*
X0192251Y0307118D01*
X0194811Y0304559D01*
X0198155Y0303173D01*
X0201775Y0303173D01*
X0205120Y0304559D01*
X0207679Y0307118D01*
X0209065Y0310462D01*
X0209065Y0314082D01*
X0207679Y0317427D01*
X0205120Y0319986D01*
X0201775Y0321372D01*
X0197573Y0321131D02*
X0166924Y0321131D01*
X0166342Y0321372D02*
X0162722Y0321372D01*
X0159378Y0319986D01*
X0156818Y0317427D01*
X0155433Y0314082D01*
X0155433Y0310462D01*
X0156818Y0307118D01*
X0159378Y0304559D01*
X0162722Y0303173D01*
X0166342Y0303173D01*
X0169687Y0304559D01*
X0172246Y0307118D01*
X0173631Y0310462D01*
X0173631Y0314082D01*
X0172246Y0317427D01*
X0169687Y0319986D01*
X0166342Y0321372D01*
X0162140Y0321131D02*
X0131491Y0321131D01*
X0134708Y0319532D02*
X0158924Y0319532D01*
X0157325Y0317934D02*
X0136306Y0317934D01*
X0137265Y0316335D02*
X0156366Y0316335D01*
X0155704Y0314737D02*
X0137927Y0314737D01*
X0138198Y0313138D02*
X0155433Y0313138D01*
X0155433Y0311539D02*
X0138198Y0311539D01*
X0137982Y0309941D02*
X0155649Y0309941D01*
X0156311Y0308342D02*
X0137320Y0308342D01*
X0136439Y0306744D02*
X0157193Y0306744D01*
X0158791Y0305145D02*
X0134840Y0305145D01*
X0131811Y0303547D02*
X0161820Y0303547D01*
X0167244Y0303547D02*
X0197253Y0303547D01*
X0194224Y0305145D02*
X0170273Y0305145D01*
X0171872Y0306744D02*
X0192626Y0306744D01*
X0191744Y0308342D02*
X0172753Y0308342D01*
X0173415Y0309941D02*
X0191082Y0309941D01*
X0190866Y0311539D02*
X0173631Y0311539D01*
X0173631Y0313138D02*
X0190866Y0313138D01*
X0191137Y0314737D02*
X0173361Y0314737D01*
X0172698Y0316335D02*
X0191799Y0316335D01*
X0192758Y0317934D02*
X0171739Y0317934D01*
X0170141Y0319532D02*
X0194357Y0319532D01*
X0205574Y0319532D02*
X0229790Y0319532D01*
X0228191Y0317934D02*
X0207172Y0317934D01*
X0208131Y0316335D02*
X0227232Y0316335D01*
X0226570Y0314737D02*
X0208794Y0314737D01*
X0209065Y0313138D02*
X0226299Y0313138D01*
X0226299Y0311539D02*
X0209065Y0311539D01*
X0208849Y0309941D02*
X0226515Y0309941D01*
X0227177Y0308342D02*
X0208186Y0308342D01*
X0207305Y0306744D02*
X0228059Y0306744D01*
X0229657Y0305145D02*
X0205707Y0305145D01*
X0202677Y0303547D02*
X0232686Y0303547D01*
X0238111Y0303547D02*
X0268119Y0303547D01*
X0265090Y0305145D02*
X0241140Y0305145D01*
X0242738Y0306744D02*
X0263492Y0306744D01*
X0262610Y0308342D02*
X0243619Y0308342D01*
X0244282Y0309941D02*
X0261948Y0309941D01*
X0261732Y0311539D02*
X0244498Y0311539D01*
X0244498Y0313138D02*
X0261732Y0313138D01*
X0262003Y0314737D02*
X0244227Y0314737D01*
X0243565Y0316335D02*
X0262665Y0316335D01*
X0263624Y0317934D02*
X0242606Y0317934D01*
X0241007Y0319532D02*
X0265223Y0319532D01*
X0276440Y0319532D02*
X0300656Y0319532D01*
X0299057Y0317934D02*
X0278039Y0317934D01*
X0278998Y0316335D02*
X0298098Y0316335D01*
X0297436Y0314737D02*
X0279660Y0314737D01*
X0279931Y0313138D02*
X0297165Y0313138D01*
X0297165Y0311539D02*
X0279931Y0311539D01*
X0279715Y0309941D02*
X0297381Y0309941D01*
X0298043Y0308342D02*
X0279053Y0308342D01*
X0278171Y0306744D02*
X0298925Y0306744D01*
X0300523Y0305145D02*
X0276573Y0305145D01*
X0273544Y0303547D02*
X0303552Y0303547D01*
X0308977Y0303547D02*
X0338985Y0303547D01*
X0335956Y0305145D02*
X0312006Y0305145D01*
X0313604Y0306744D02*
X0334358Y0306744D01*
X0333477Y0308342D02*
X0314486Y0308342D01*
X0315148Y0309941D02*
X0332814Y0309941D01*
X0332598Y0311539D02*
X0315364Y0311539D01*
X0315364Y0313138D02*
X0332598Y0313138D01*
X0332869Y0314737D02*
X0315093Y0314737D01*
X0314431Y0316335D02*
X0333532Y0316335D01*
X0334491Y0317934D02*
X0313472Y0317934D01*
X0311873Y0319532D02*
X0336089Y0319532D01*
X0347306Y0319532D02*
X0371522Y0319532D01*
X0369924Y0317934D02*
X0348905Y0317934D01*
X0349864Y0316335D02*
X0368965Y0316335D01*
X0368302Y0314737D02*
X0350526Y0314737D01*
X0350797Y0313138D02*
X0368031Y0313138D01*
X0368031Y0311539D02*
X0350797Y0311539D01*
X0350581Y0309941D02*
X0368248Y0309941D01*
X0368910Y0308342D02*
X0349919Y0308342D01*
X0349037Y0306744D02*
X0369791Y0306744D01*
X0371389Y0305145D02*
X0347439Y0305145D01*
X0344410Y0303547D02*
X0374419Y0303547D01*
X0379843Y0303547D02*
X0409852Y0303547D01*
X0406823Y0305145D02*
X0382872Y0305145D01*
X0384470Y0306744D02*
X0405224Y0306744D01*
X0404343Y0308342D02*
X0385352Y0308342D01*
X0386014Y0309941D02*
X0403681Y0309941D01*
X0403465Y0311539D02*
X0386230Y0311539D01*
X0386230Y0313138D02*
X0403465Y0313138D01*
X0403736Y0314737D02*
X0385959Y0314737D01*
X0385297Y0316335D02*
X0404398Y0316335D01*
X0405357Y0317934D02*
X0384338Y0317934D01*
X0382739Y0319532D02*
X0406955Y0319532D01*
X0418172Y0319532D02*
X0442388Y0319532D01*
X0440790Y0317934D02*
X0419771Y0317934D01*
X0420730Y0316335D02*
X0439831Y0316335D01*
X0439169Y0314737D02*
X0421392Y0314737D01*
X0421663Y0313138D02*
X0438898Y0313138D01*
X0438898Y0311539D02*
X0421663Y0311539D01*
X0421447Y0309941D02*
X0439114Y0309941D01*
X0439776Y0308342D02*
X0420785Y0308342D01*
X0419904Y0306744D02*
X0440657Y0306744D01*
X0442256Y0305145D02*
X0418305Y0305145D01*
X0415276Y0303547D02*
X0445285Y0303547D01*
X0450709Y0303547D02*
X0480718Y0303547D01*
X0477689Y0305145D02*
X0453738Y0305145D01*
X0455337Y0306744D02*
X0476090Y0306744D01*
X0475209Y0308342D02*
X0456218Y0308342D01*
X0456880Y0309941D02*
X0474547Y0309941D01*
X0474331Y0311539D02*
X0457096Y0311539D01*
X0457096Y0313138D02*
X0474331Y0313138D01*
X0474602Y0314737D02*
X0456825Y0314737D01*
X0456163Y0316335D02*
X0475264Y0316335D01*
X0476223Y0317934D02*
X0455204Y0317934D01*
X0453605Y0319532D02*
X0477821Y0319532D01*
X0489039Y0319532D02*
X0513254Y0319532D01*
X0511656Y0317934D02*
X0490637Y0317934D01*
X0491596Y0316335D02*
X0510697Y0316335D01*
X0510035Y0314737D02*
X0492258Y0314737D01*
X0492529Y0313138D02*
X0509764Y0313138D01*
X0509764Y0311539D02*
X0492529Y0311539D01*
X0492313Y0309941D02*
X0509980Y0309941D01*
X0510642Y0308342D02*
X0491651Y0308342D01*
X0490770Y0306744D02*
X0511523Y0306744D01*
X0513122Y0305145D02*
X0489171Y0305145D01*
X0486142Y0303547D02*
X0516151Y0303547D01*
X0521575Y0303547D02*
X0612008Y0303547D01*
X0612008Y0305145D02*
X0524604Y0305145D01*
X0526203Y0306744D02*
X0612008Y0306744D01*
X0612008Y0308342D02*
X0527084Y0308342D01*
X0527746Y0309941D02*
X0612008Y0309941D01*
X0612008Y0311539D02*
X0527962Y0311539D01*
X0527962Y0313138D02*
X0612008Y0313138D01*
X0612008Y0314737D02*
X0527691Y0314737D01*
X0527029Y0316335D02*
X0612008Y0316335D01*
X0612008Y0317934D02*
X0526070Y0317934D01*
X0524472Y0319532D02*
X0612008Y0319532D01*
X0612008Y0324328D02*
X0055639Y0324328D01*
X0055639Y0325926D02*
X0612008Y0325926D01*
X0612008Y0327525D02*
X0055639Y0327525D01*
X0055639Y0329123D02*
X0612008Y0329123D01*
X0612008Y0330722D02*
X0055639Y0330722D01*
X0055639Y0332320D02*
X0612008Y0332320D01*
X0612008Y0333919D02*
X0055639Y0333919D01*
X0055639Y0335517D02*
X0612008Y0335517D01*
X0612008Y0337116D02*
X0055639Y0337116D01*
X0055639Y0338714D02*
X0127029Y0338714D01*
X0127289Y0338606D02*
X0130909Y0338606D01*
X0134253Y0339992D01*
X0136813Y0342551D01*
X0138198Y0345896D01*
X0138198Y0349515D01*
X0136813Y0352860D01*
X0134253Y0355419D01*
X0130909Y0356805D01*
X0127289Y0356805D01*
X0123945Y0355419D01*
X0121385Y0352860D01*
X0120000Y0349515D01*
X0120000Y0345896D01*
X0121385Y0342551D01*
X0123945Y0339992D01*
X0127289Y0338606D01*
X0131170Y0338714D02*
X0162462Y0338714D01*
X0162722Y0338606D02*
X0166342Y0338606D01*
X0169687Y0339992D01*
X0172246Y0342551D01*
X0173631Y0345896D01*
X0173631Y0349515D01*
X0172246Y0352860D01*
X0169687Y0355419D01*
X0166342Y0356805D01*
X0162722Y0356805D01*
X0159378Y0355419D01*
X0156818Y0352860D01*
X0155433Y0349515D01*
X0155433Y0345896D01*
X0156818Y0342551D01*
X0159378Y0339992D01*
X0162722Y0338606D01*
X0166603Y0338714D02*
X0197895Y0338714D01*
X0198155Y0338606D02*
X0201775Y0338606D01*
X0205120Y0339992D01*
X0207679Y0342551D01*
X0209065Y0345896D01*
X0209065Y0349515D01*
X0207679Y0352860D01*
X0205120Y0355419D01*
X0201775Y0356805D01*
X0198155Y0356805D01*
X0194811Y0355419D01*
X0192251Y0352860D01*
X0190866Y0349515D01*
X0190866Y0345896D01*
X0192251Y0342551D01*
X0194811Y0339992D01*
X0198155Y0338606D01*
X0202036Y0338714D02*
X0233328Y0338714D01*
X0233588Y0338606D02*
X0237208Y0338606D01*
X0240553Y0339992D01*
X0243112Y0342551D01*
X0244498Y0345896D01*
X0244498Y0349515D01*
X0243112Y0352860D01*
X0240553Y0355419D01*
X0237208Y0356805D01*
X0233588Y0356805D01*
X0230244Y0355419D01*
X0227684Y0352860D01*
X0226299Y0349515D01*
X0226299Y0345896D01*
X0227684Y0342551D01*
X0230244Y0339992D01*
X0233588Y0338606D01*
X0237469Y0338714D02*
X0268761Y0338714D01*
X0269022Y0338606D02*
X0272641Y0338606D01*
X0275986Y0339992D01*
X0278545Y0342551D01*
X0279931Y0345896D01*
X0279931Y0349515D01*
X0278545Y0352860D01*
X0275986Y0355419D01*
X0272641Y0356805D01*
X0269022Y0356805D01*
X0265677Y0355419D01*
X0263118Y0352860D01*
X0261732Y0349515D01*
X0261732Y0345896D01*
X0263118Y0342551D01*
X0265677Y0339992D01*
X0269022Y0338606D01*
X0272902Y0338714D02*
X0304194Y0338714D01*
X0304455Y0338606D02*
X0308075Y0338606D01*
X0311419Y0339992D01*
X0313978Y0342551D01*
X0315364Y0345896D01*
X0315364Y0349515D01*
X0313978Y0352860D01*
X0311419Y0355419D01*
X0308075Y0356805D01*
X0304455Y0356805D01*
X0301110Y0355419D01*
X0298551Y0352860D01*
X0297165Y0349515D01*
X0297165Y0345896D01*
X0298551Y0342551D01*
X0301110Y0339992D01*
X0304455Y0338606D01*
X0308335Y0338714D02*
X0339627Y0338714D01*
X0339888Y0338606D02*
X0343508Y0338606D01*
X0346852Y0339992D01*
X0349412Y0342551D01*
X0350797Y0345896D01*
X0350797Y0349515D01*
X0349412Y0352860D01*
X0346852Y0355419D01*
X0343508Y0356805D01*
X0339888Y0356805D01*
X0336543Y0355419D01*
X0333984Y0352860D01*
X0332598Y0349515D01*
X0332598Y0345896D01*
X0333984Y0342551D01*
X0336543Y0339992D01*
X0339888Y0338606D01*
X0343768Y0338714D02*
X0375060Y0338714D01*
X0375321Y0338606D02*
X0378941Y0338606D01*
X0382285Y0339992D01*
X0384845Y0342551D01*
X0386230Y0345896D01*
X0386230Y0349515D01*
X0384845Y0352860D01*
X0382285Y0355419D01*
X0378941Y0356805D01*
X0375321Y0356805D01*
X0371976Y0355419D01*
X0369417Y0352860D01*
X0368031Y0349515D01*
X0368031Y0345896D01*
X0369417Y0342551D01*
X0371976Y0339992D01*
X0375321Y0338606D01*
X0379201Y0338714D02*
X0410493Y0338714D01*
X0410754Y0338606D02*
X0414374Y0338606D01*
X0417718Y0339992D01*
X0420278Y0342551D01*
X0421663Y0345896D01*
X0421663Y0349515D01*
X0420278Y0352860D01*
X0417718Y0355419D01*
X0414374Y0356805D01*
X0410754Y0356805D01*
X0407409Y0355419D01*
X0404850Y0352860D01*
X0403465Y0349515D01*
X0403465Y0345896D01*
X0404850Y0342551D01*
X0407409Y0339992D01*
X0410754Y0338606D01*
X0414634Y0338714D02*
X0445926Y0338714D01*
X0446187Y0338606D02*
X0449807Y0338606D01*
X0453151Y0339992D01*
X0455711Y0342551D01*
X0457096Y0345896D01*
X0457096Y0349515D01*
X0455711Y0352860D01*
X0453151Y0355419D01*
X0449807Y0356805D01*
X0446187Y0356805D01*
X0442843Y0355419D01*
X0440283Y0352860D01*
X0438898Y0349515D01*
X0438898Y0345896D01*
X0440283Y0342551D01*
X0442843Y0339992D01*
X0446187Y0338606D01*
X0450067Y0338714D02*
X0481360Y0338714D01*
X0481620Y0338606D02*
X0485240Y0338606D01*
X0488584Y0339992D01*
X0491144Y0342551D01*
X0492529Y0345896D01*
X0492529Y0349515D01*
X0491144Y0352860D01*
X0488584Y0355419D01*
X0485240Y0356805D01*
X0481620Y0356805D01*
X0478276Y0355419D01*
X0475716Y0352860D01*
X0474331Y0349515D01*
X0474331Y0345896D01*
X0475716Y0342551D01*
X0478276Y0339992D01*
X0481620Y0338606D01*
X0485500Y0338714D02*
X0516793Y0338714D01*
X0517053Y0338606D02*
X0520673Y0338606D01*
X0524017Y0339992D01*
X0526577Y0342551D01*
X0527962Y0345896D01*
X0527962Y0349515D01*
X0526577Y0352860D01*
X0524017Y0355419D01*
X0520673Y0356805D01*
X0517053Y0356805D01*
X0513709Y0355419D01*
X0511149Y0352860D01*
X0509764Y0349515D01*
X0509764Y0345896D01*
X0511149Y0342551D01*
X0513709Y0339992D01*
X0517053Y0338606D01*
X0520933Y0338714D02*
X0612008Y0338714D01*
X0612008Y0340313D02*
X0524338Y0340313D01*
X0525937Y0341911D02*
X0612008Y0341911D01*
X0612008Y0343510D02*
X0526974Y0343510D01*
X0527636Y0345108D02*
X0612008Y0345108D01*
X0612008Y0346707D02*
X0527962Y0346707D01*
X0527962Y0348305D02*
X0612008Y0348305D01*
X0612008Y0349904D02*
X0527801Y0349904D01*
X0527139Y0351502D02*
X0612008Y0351502D01*
X0612008Y0353101D02*
X0526336Y0353101D01*
X0524737Y0354699D02*
X0612008Y0354699D01*
X0612008Y0356298D02*
X0521897Y0356298D01*
X0515829Y0356298D02*
X0486464Y0356298D01*
X0489304Y0354699D02*
X0512989Y0354699D01*
X0511390Y0353101D02*
X0490903Y0353101D01*
X0491706Y0351502D02*
X0510587Y0351502D01*
X0509925Y0349904D02*
X0492368Y0349904D01*
X0492529Y0348305D02*
X0509764Y0348305D01*
X0509764Y0346707D02*
X0492529Y0346707D01*
X0492203Y0345108D02*
X0510090Y0345108D01*
X0510752Y0343510D02*
X0491541Y0343510D01*
X0490504Y0341911D02*
X0511789Y0341911D01*
X0513388Y0340313D02*
X0488905Y0340313D01*
X0477955Y0340313D02*
X0453472Y0340313D01*
X0455071Y0341911D02*
X0476356Y0341911D01*
X0475319Y0343510D02*
X0456108Y0343510D01*
X0456770Y0345108D02*
X0474657Y0345108D01*
X0474331Y0346707D02*
X0457096Y0346707D01*
X0457096Y0348305D02*
X0474331Y0348305D01*
X0474492Y0349904D02*
X0456935Y0349904D01*
X0456273Y0351502D02*
X0475154Y0351502D01*
X0475957Y0353101D02*
X0455470Y0353101D01*
X0453871Y0354699D02*
X0477555Y0354699D01*
X0480396Y0356298D02*
X0451031Y0356298D01*
X0444963Y0356298D02*
X0415598Y0356298D01*
X0418438Y0354699D02*
X0442122Y0354699D01*
X0440524Y0353101D02*
X0420037Y0353101D01*
X0420840Y0351502D02*
X0439721Y0351502D01*
X0439058Y0349904D02*
X0421502Y0349904D01*
X0421663Y0348305D02*
X0438898Y0348305D01*
X0438898Y0346707D02*
X0421663Y0346707D01*
X0421337Y0345108D02*
X0439224Y0345108D01*
X0439886Y0343510D02*
X0420675Y0343510D01*
X0419638Y0341911D02*
X0440923Y0341911D01*
X0442521Y0340313D02*
X0418039Y0340313D01*
X0407088Y0340313D02*
X0382606Y0340313D01*
X0384205Y0341911D02*
X0405490Y0341911D01*
X0404453Y0343510D02*
X0385242Y0343510D01*
X0385904Y0345108D02*
X0403791Y0345108D01*
X0403465Y0346707D02*
X0386230Y0346707D01*
X0386230Y0348305D02*
X0403465Y0348305D01*
X0403625Y0349904D02*
X0386069Y0349904D01*
X0385407Y0351502D02*
X0404288Y0351502D01*
X0405091Y0353101D02*
X0384604Y0353101D01*
X0383005Y0354699D02*
X0406689Y0354699D01*
X0409530Y0356298D02*
X0380164Y0356298D01*
X0374097Y0356298D02*
X0344731Y0356298D01*
X0347572Y0354699D02*
X0371256Y0354699D01*
X0369658Y0353101D02*
X0349171Y0353101D01*
X0349974Y0351502D02*
X0368854Y0351502D01*
X0368192Y0349904D02*
X0350636Y0349904D01*
X0350797Y0348305D02*
X0368031Y0348305D01*
X0368031Y0346707D02*
X0350797Y0346707D01*
X0350471Y0345108D02*
X0368358Y0345108D01*
X0369020Y0343510D02*
X0349809Y0343510D01*
X0348772Y0341911D02*
X0370057Y0341911D01*
X0371655Y0340313D02*
X0347173Y0340313D01*
X0336222Y0340313D02*
X0311740Y0340313D01*
X0313338Y0341911D02*
X0334624Y0341911D01*
X0333587Y0343510D02*
X0314376Y0343510D01*
X0315038Y0345108D02*
X0332925Y0345108D01*
X0332598Y0346707D02*
X0315364Y0346707D01*
X0315364Y0348305D02*
X0332598Y0348305D01*
X0332759Y0349904D02*
X0315203Y0349904D01*
X0314541Y0351502D02*
X0333421Y0351502D01*
X0334225Y0353101D02*
X0313738Y0353101D01*
X0312139Y0354699D02*
X0335823Y0354699D01*
X0338664Y0356298D02*
X0309298Y0356298D01*
X0303231Y0356298D02*
X0273865Y0356298D01*
X0276706Y0354699D02*
X0300390Y0354699D01*
X0298792Y0353101D02*
X0278304Y0353101D01*
X0279108Y0351502D02*
X0297988Y0351502D01*
X0297326Y0349904D02*
X0279770Y0349904D01*
X0279931Y0348305D02*
X0297165Y0348305D01*
X0297165Y0346707D02*
X0279931Y0346707D01*
X0279605Y0345108D02*
X0297491Y0345108D01*
X0298154Y0343510D02*
X0278942Y0343510D01*
X0277905Y0341911D02*
X0299191Y0341911D01*
X0300789Y0340313D02*
X0276307Y0340313D01*
X0265356Y0340313D02*
X0240874Y0340313D01*
X0242472Y0341911D02*
X0263758Y0341911D01*
X0262721Y0343510D02*
X0243509Y0343510D01*
X0244171Y0345108D02*
X0262058Y0345108D01*
X0261732Y0346707D02*
X0244498Y0346707D01*
X0244498Y0348305D02*
X0261732Y0348305D01*
X0261893Y0349904D02*
X0244337Y0349904D01*
X0243675Y0351502D02*
X0262555Y0351502D01*
X0263359Y0353101D02*
X0242871Y0353101D01*
X0241273Y0354699D02*
X0264957Y0354699D01*
X0267798Y0356298D02*
X0238432Y0356298D01*
X0232365Y0356298D02*
X0202999Y0356298D01*
X0205840Y0354699D02*
X0229524Y0354699D01*
X0227925Y0353101D02*
X0207438Y0353101D01*
X0208242Y0351502D02*
X0227122Y0351502D01*
X0226460Y0349904D02*
X0208904Y0349904D01*
X0209065Y0348305D02*
X0226299Y0348305D01*
X0226299Y0346707D02*
X0209065Y0346707D01*
X0208738Y0345108D02*
X0226625Y0345108D01*
X0227287Y0343510D02*
X0208076Y0343510D01*
X0207039Y0341911D02*
X0228325Y0341911D01*
X0229923Y0340313D02*
X0205441Y0340313D01*
X0194490Y0340313D02*
X0170008Y0340313D01*
X0171606Y0341911D02*
X0192891Y0341911D01*
X0191854Y0343510D02*
X0172643Y0343510D01*
X0173305Y0345108D02*
X0191192Y0345108D01*
X0190866Y0346707D02*
X0173631Y0346707D01*
X0173631Y0348305D02*
X0190866Y0348305D01*
X0191027Y0349904D02*
X0173471Y0349904D01*
X0172809Y0351502D02*
X0191689Y0351502D01*
X0192492Y0353101D02*
X0172005Y0353101D01*
X0170407Y0354699D02*
X0194091Y0354699D01*
X0196932Y0356298D02*
X0167566Y0356298D01*
X0161499Y0356298D02*
X0132133Y0356298D01*
X0134974Y0354699D02*
X0158658Y0354699D01*
X0157059Y0353101D02*
X0136572Y0353101D01*
X0137375Y0351502D02*
X0156256Y0351502D01*
X0155594Y0349904D02*
X0138038Y0349904D01*
X0138198Y0348305D02*
X0155433Y0348305D01*
X0155433Y0346707D02*
X0138198Y0346707D01*
X0137872Y0345108D02*
X0155759Y0345108D01*
X0156421Y0343510D02*
X0137210Y0343510D01*
X0136173Y0341911D02*
X0157458Y0341911D01*
X0159057Y0340313D02*
X0134575Y0340313D01*
X0123624Y0340313D02*
X0055639Y0340313D01*
X0055639Y0341911D02*
X0122025Y0341911D01*
X0120988Y0343510D02*
X0055639Y0343510D01*
X0055639Y0345108D02*
X0120326Y0345108D01*
X0120000Y0346707D02*
X0055639Y0346707D01*
X0055639Y0348305D02*
X0120000Y0348305D01*
X0120161Y0349904D02*
X0055639Y0349904D01*
X0055639Y0351502D02*
X0120823Y0351502D01*
X0121626Y0353101D02*
X0055639Y0353101D01*
X0055639Y0354699D02*
X0123225Y0354699D01*
X0126065Y0356298D02*
X0055639Y0356298D01*
X0055639Y0357896D02*
X0612008Y0357896D01*
X0612008Y0359495D02*
X0055639Y0359495D01*
X0055639Y0361093D02*
X0612008Y0361093D01*
X0612008Y0362692D02*
X0055639Y0362692D01*
X0055639Y0364290D02*
X0612008Y0364290D01*
X0612008Y0365889D02*
X0055639Y0365889D01*
X0055639Y0367487D02*
X0612008Y0367487D01*
X0612008Y0369086D02*
X0055639Y0369086D01*
X0055639Y0370684D02*
X0612008Y0370684D01*
X0612008Y0372283D02*
X0055639Y0372283D01*
X0055639Y0373881D02*
X0612008Y0373881D01*
X0612008Y0375480D02*
X0055639Y0375480D01*
X0055639Y0377078D02*
X0612008Y0377078D01*
X0612008Y0378677D02*
X0055639Y0378677D01*
X0055639Y0380275D02*
X0612008Y0380275D01*
X0612008Y0381874D02*
X0055639Y0381874D01*
X0055639Y0383472D02*
X0059061Y0383472D01*
X0059112Y0383421D02*
X0060143Y0382995D01*
X0060701Y0382995D01*
X0060705Y0382995D01*
X0061263Y0382995D01*
X0062294Y0383421D01*
X0063083Y0384210D01*
X0063510Y0385241D01*
X0063511Y0386357D01*
X0063084Y0387388D01*
X0062295Y0388177D01*
X0061265Y0388605D01*
X0060707Y0388605D01*
X0060699Y0388605D01*
X0060141Y0388605D01*
X0059110Y0388177D01*
X0058321Y0387388D01*
X0057895Y0386357D01*
X0057895Y0385241D01*
X0058323Y0384210D01*
X0059112Y0383421D01*
X0057966Y0385071D02*
X0055639Y0385071D01*
X0055639Y0386670D02*
X0058024Y0386670D01*
X0059329Y0388268D02*
X0055639Y0388268D01*
X0055639Y0389867D02*
X0612008Y0389867D01*
X0612008Y0391465D02*
X0055639Y0391465D01*
X0055639Y0393064D02*
X0612008Y0393064D01*
X0612008Y0394662D02*
X0055639Y0394662D01*
X0055660Y0396261D02*
X0059251Y0396261D01*
X0057652Y0397859D02*
X0055763Y0397859D01*
X0056128Y0399458D02*
X0056548Y0399458D01*
X0069971Y0396261D02*
X0597676Y0396261D01*
X0596077Y0397859D02*
X0071570Y0397859D01*
X0072674Y0399458D02*
X0594973Y0399458D01*
X0594311Y0401056D02*
X0073336Y0401056D01*
X0073710Y0402655D02*
X0593937Y0402655D01*
X0593937Y0404253D02*
X0073710Y0404253D01*
X0073597Y0405852D02*
X0594050Y0405852D01*
X0594712Y0407450D02*
X0072935Y0407450D01*
X0072199Y0409049D02*
X0595448Y0409049D01*
X0597047Y0410647D02*
X0070601Y0410647D01*
X0068897Y0412246D02*
X0598751Y0412246D01*
X0597048Y0412634D02*
X0597048Y0412634D01*
X0611099Y0399458D02*
X0611519Y0399458D01*
X0611884Y0397859D02*
X0609995Y0397859D01*
X0608397Y0396261D02*
X0611987Y0396261D01*
X0612008Y0388268D02*
X0062077Y0388268D01*
X0063382Y0386670D02*
X0612008Y0386670D01*
X0612008Y0385071D02*
X0063440Y0385071D01*
X0062345Y0383472D02*
X0612008Y0383472D01*
D11*
X0553800Y0368800D03*
X0553800Y0361800D03*
X0544800Y0366800D03*
X0585800Y0331800D03*
X0556800Y0317800D03*
X0556800Y0310800D03*
X0548800Y0313800D03*
X0301535Y0322822D03*
X0301685Y0358122D03*
X0301785Y0286472D03*
X0302235Y0251372D03*
X0302485Y0216022D03*
X0301785Y0180222D03*
X0302585Y0144972D03*
X0301535Y0109122D03*
X0081963Y0061173D03*
X0085077Y0387085D03*
M02*
