%
M48
M72
T01C0.0236
T02C0.1260
%
T01
X8196Y6117
X30154Y10912
X30259Y14497
X30179Y18022
X30249Y21602
X30224Y25137
X30179Y28647
X30154Y32282
X30169Y35812
X8508Y38709
X54480Y36680
X55380Y36880
X55380Y36180
X58580Y33180
X55680Y31780
X55680Y31080
X54880Y31380
T02
X6461Y4361
X12910Y9967
X16453Y9967
X19997Y9967
X23540Y9967
X27083Y9967
X30626Y9967
X34170Y9967
X37713Y9967
X41256Y9967
X44800Y9967
X48343Y9967
X51886Y9967
X51886Y13511
X48343Y13511
X44800Y13511
X41256Y13511
X37713Y13511
X34170Y13511
X30626Y13511
X27083Y13511
X23540Y13511
X19997Y13511
X16453Y13511
X12910Y13511
X12910Y17054
X16453Y17054
X19997Y17054
X23540Y17054
X27083Y17054
X30626Y17054
X34170Y17054
X37713Y17054
X41256Y17054
X44800Y17054
X48343Y17054
X51886Y17054
X51886Y20597
X48343Y20597
X44800Y20597
X41256Y20597
X37713Y20597
X34170Y20597
X30626Y20597
X27083Y20597
X23540Y20597
X19997Y20597
X16453Y20597
X12910Y20597
X12910Y24141
X16453Y24141
X19997Y24141
X23540Y24141
X27083Y24141
X30626Y24141
X34170Y24141
X37713Y24141
X41256Y24141
X44800Y24141
X48343Y24141
X51886Y24141
X51886Y27684
X48343Y27684
X44800Y27684
X41256Y27684
X37713Y27684
X34170Y27684
X30626Y27684
X27083Y27684
X23540Y27684
X19997Y27684
X16453Y27684
X12910Y27684
X12910Y31227
X16453Y31227
X19997Y31227
X23540Y31227
X27083Y31227
X30626Y31227
X34170Y31227
X37713Y31227
X41256Y31227
X44800Y31227
X48343Y31227
X51886Y31227
X51886Y34771
X48343Y34771
X44800Y34771
X41256Y34771
X37713Y34771
X34170Y34771
X30626Y34771
X27083Y34771
X23540Y34771
X19997Y34771
X16453Y34771
X12910Y34771
X6461Y40377
X60304Y40377
X60304Y4361
M30
