G75*
%MOIN*%
%OFA0B0*%
%FSLAX25Y25*%
%IPPOS*%
%LPD*%
%AMOC8*
5,1,8,0,0,1.08239X$1,22.5*
%
%ADD10C,0.00600*%
%ADD11C,0.01100*%
%ADD12C,0.00591*%
%ADD13C,0.00400*%
%ADD14C,0.00500*%
D10*
X0063221Y0200289D02*
X0069626Y0200289D01*
X0069626Y0204559D01*
X0069626Y0206734D02*
X0069626Y0211005D01*
X0069626Y0213180D02*
X0063221Y0213180D01*
X0063221Y0216383D01*
X0064288Y0217450D01*
X0068558Y0217450D01*
X0069626Y0216383D01*
X0069626Y0213180D01*
X0066423Y0208870D02*
X0066423Y0206734D01*
X0063221Y0206734D02*
X0069626Y0206734D01*
X0063221Y0206734D02*
X0063221Y0211005D01*
X0064288Y0226071D02*
X0063221Y0227139D01*
X0063221Y0229274D01*
X0064288Y0230341D01*
X0068558Y0226071D01*
X0069626Y0227139D01*
X0069626Y0229274D01*
X0068558Y0230341D01*
X0064288Y0230341D01*
X0064288Y0232516D02*
X0063221Y0233584D01*
X0063221Y0235719D01*
X0064288Y0236787D01*
X0068558Y0232516D01*
X0069626Y0233584D01*
X0069626Y0235719D01*
X0068558Y0236787D01*
X0064288Y0236787D01*
X0063221Y0238962D02*
X0066423Y0238962D01*
X0065356Y0241097D01*
X0065356Y0242165D01*
X0066423Y0243232D01*
X0068558Y0243232D01*
X0069626Y0242165D01*
X0069626Y0240030D01*
X0068558Y0238962D01*
X0063221Y0238962D02*
X0063221Y0243232D01*
X0064288Y0232516D02*
X0068558Y0232516D01*
X0068558Y0226071D02*
X0064288Y0226071D01*
D11*
X0272683Y0402002D02*
X0272683Y0407907D01*
X0274651Y0405939D01*
X0276620Y0407907D01*
X0276620Y0402002D01*
X0279129Y0402002D02*
X0281097Y0402002D01*
X0280113Y0402002D02*
X0280113Y0405939D01*
X0279129Y0405939D01*
X0280113Y0407907D02*
X0280113Y0408892D01*
X0283426Y0405939D02*
X0283426Y0402002D01*
X0283426Y0403971D02*
X0285394Y0405939D01*
X0286378Y0405939D01*
X0288797Y0405939D02*
X0289781Y0405939D01*
X0289781Y0402002D01*
X0288797Y0402002D02*
X0290765Y0402002D01*
X0293094Y0402987D02*
X0294078Y0403971D01*
X0297030Y0403971D01*
X0297030Y0404955D02*
X0297030Y0402002D01*
X0294078Y0402002D01*
X0293094Y0402987D01*
X0294078Y0405939D02*
X0296046Y0405939D01*
X0297030Y0404955D01*
X0299539Y0405939D02*
X0299539Y0402002D01*
X0301508Y0402002D02*
X0301508Y0404955D01*
X0302492Y0405939D01*
X0303476Y0404955D01*
X0303476Y0402002D01*
X0301508Y0404955D02*
X0300523Y0405939D01*
X0299539Y0405939D01*
X0289781Y0407907D02*
X0289781Y0408892D01*
X0279041Y0047597D02*
X0279041Y0046613D01*
X0279041Y0044645D02*
X0279041Y0040708D01*
X0278057Y0040708D02*
X0280025Y0040708D01*
X0282354Y0041692D02*
X0283338Y0040708D01*
X0286291Y0040708D01*
X0288799Y0041692D02*
X0288799Y0043661D01*
X0289784Y0044645D01*
X0291752Y0044645D01*
X0292736Y0043661D01*
X0292736Y0042677D01*
X0288799Y0042677D01*
X0288799Y0041692D02*
X0289784Y0040708D01*
X0291752Y0040708D01*
X0295245Y0040708D02*
X0295245Y0044645D01*
X0298197Y0044645D01*
X0299182Y0043661D01*
X0299182Y0040708D01*
X0301690Y0040708D02*
X0304643Y0040708D01*
X0305627Y0041692D01*
X0304643Y0042677D01*
X0302675Y0042677D01*
X0301690Y0043661D01*
X0302675Y0044645D01*
X0305627Y0044645D01*
X0308136Y0043661D02*
X0309120Y0044645D01*
X0311088Y0044645D01*
X0312073Y0043661D01*
X0312073Y0042677D01*
X0308136Y0042677D01*
X0308136Y0043661D02*
X0308136Y0041692D01*
X0309120Y0040708D01*
X0311088Y0040708D01*
X0314581Y0041692D02*
X0314581Y0043661D01*
X0315566Y0044645D01*
X0318518Y0044645D01*
X0318518Y0046613D02*
X0318518Y0040708D01*
X0315566Y0040708D01*
X0314581Y0041692D01*
X0327472Y0041692D02*
X0328457Y0040708D01*
X0331409Y0040708D01*
X0331409Y0044645D01*
X0333918Y0044645D02*
X0333918Y0040708D01*
X0337855Y0040708D02*
X0337855Y0043661D01*
X0336870Y0044645D01*
X0333918Y0044645D01*
X0327472Y0044645D02*
X0327472Y0041692D01*
X0340363Y0041692D02*
X0340363Y0043661D01*
X0341348Y0044645D01*
X0344300Y0044645D01*
X0344300Y0046613D02*
X0344300Y0040708D01*
X0341348Y0040708D01*
X0340363Y0041692D01*
X0346809Y0041692D02*
X0346809Y0043661D01*
X0347793Y0044645D01*
X0349761Y0044645D01*
X0350746Y0043661D01*
X0350746Y0042677D01*
X0346809Y0042677D01*
X0346809Y0041692D02*
X0347793Y0040708D01*
X0349761Y0040708D01*
X0353254Y0040708D02*
X0353254Y0044645D01*
X0353254Y0042677D02*
X0355223Y0044645D01*
X0356207Y0044645D01*
X0365071Y0045629D02*
X0365071Y0041692D01*
X0366055Y0040708D01*
X0368024Y0040708D01*
X0369008Y0041692D01*
X0371517Y0040708D02*
X0375453Y0040708D01*
X0377962Y0040708D02*
X0377962Y0046613D01*
X0380915Y0046613D01*
X0381899Y0045629D01*
X0381899Y0043661D01*
X0380915Y0042677D01*
X0377962Y0042677D01*
X0379930Y0042677D02*
X0381899Y0040708D01*
X0384408Y0040708D02*
X0384408Y0046613D01*
X0388344Y0040708D01*
X0388344Y0046613D01*
X0397299Y0045629D02*
X0397299Y0041692D01*
X0398283Y0040708D01*
X0400251Y0040708D01*
X0401235Y0041692D01*
X0401235Y0045629D01*
X0400251Y0046613D01*
X0398283Y0046613D01*
X0397299Y0045629D01*
X0403744Y0046613D02*
X0403744Y0040708D01*
X0403744Y0043661D02*
X0407681Y0043661D01*
X0407681Y0046613D02*
X0407681Y0040708D01*
X0410190Y0040708D02*
X0414126Y0040708D01*
X0410190Y0040708D02*
X0410190Y0046613D01*
X0423081Y0044645D02*
X0425049Y0040708D01*
X0427017Y0044645D01*
X0429526Y0041692D02*
X0430510Y0041692D01*
X0430510Y0040708D01*
X0429526Y0040708D01*
X0429526Y0041692D01*
X0432749Y0040708D02*
X0436686Y0040708D01*
X0434717Y0040708D02*
X0434717Y0046613D01*
X0432749Y0044645D01*
X0439194Y0041692D02*
X0440179Y0041692D01*
X0440179Y0040708D01*
X0439194Y0040708D01*
X0439194Y0041692D01*
X0442417Y0040708D02*
X0446354Y0044645D01*
X0446354Y0045629D01*
X0445370Y0046613D01*
X0443401Y0046613D01*
X0442417Y0045629D01*
X0442417Y0040708D02*
X0446354Y0040708D01*
X0375453Y0046613D02*
X0371517Y0046613D01*
X0371517Y0040708D01*
X0371517Y0043661D02*
X0373485Y0043661D01*
X0369008Y0045629D02*
X0368024Y0046613D01*
X0366055Y0046613D01*
X0365071Y0045629D01*
X0286291Y0044645D02*
X0283338Y0044645D01*
X0282354Y0043661D01*
X0282354Y0041692D01*
X0279041Y0044645D02*
X0278057Y0044645D01*
X0275548Y0040708D02*
X0271611Y0040708D01*
X0271611Y0046613D01*
X0262657Y0045629D02*
X0261673Y0046613D01*
X0259705Y0046613D01*
X0258720Y0045629D01*
X0256212Y0045629D02*
X0255227Y0046613D01*
X0253259Y0046613D01*
X0252275Y0045629D01*
X0249766Y0045629D02*
X0249766Y0044645D01*
X0248782Y0043661D01*
X0249766Y0042677D01*
X0249766Y0041692D01*
X0248782Y0040708D01*
X0246814Y0040708D01*
X0245829Y0041692D01*
X0243321Y0041692D02*
X0242336Y0040708D01*
X0240368Y0040708D01*
X0239384Y0041692D01*
X0243321Y0045629D01*
X0243321Y0041692D01*
X0239384Y0041692D02*
X0239384Y0045629D01*
X0240368Y0046613D01*
X0242336Y0046613D01*
X0243321Y0045629D01*
X0245829Y0045629D02*
X0246814Y0046613D01*
X0248782Y0046613D01*
X0249766Y0045629D01*
X0248782Y0043661D02*
X0247798Y0043661D01*
X0252275Y0040708D02*
X0256212Y0044645D01*
X0256212Y0045629D01*
X0256212Y0040708D02*
X0252275Y0040708D01*
X0258720Y0040708D02*
X0262657Y0044645D01*
X0262657Y0045629D01*
X0262657Y0040708D02*
X0258720Y0040708D01*
X0236875Y0041692D02*
X0236875Y0042677D01*
X0235891Y0043661D01*
X0232938Y0043661D01*
X0232938Y0041692D01*
X0233923Y0040708D01*
X0235891Y0040708D01*
X0236875Y0041692D01*
X0234907Y0045629D02*
X0232938Y0043661D01*
X0234907Y0045629D02*
X0236875Y0046613D01*
X0228461Y0046613D02*
X0228461Y0040708D01*
X0226493Y0040708D02*
X0230430Y0040708D01*
X0226493Y0044645D02*
X0228461Y0046613D01*
X0223984Y0045629D02*
X0220047Y0041692D01*
X0221032Y0040708D01*
X0223000Y0040708D01*
X0223984Y0041692D01*
X0223984Y0045629D01*
X0223000Y0046613D01*
X0221032Y0046613D01*
X0220047Y0045629D01*
X0220047Y0041692D01*
X0217539Y0040708D02*
X0213602Y0040708D01*
X0217539Y0044645D01*
X0217539Y0045629D01*
X0216554Y0046613D01*
X0214586Y0046613D01*
X0213602Y0045629D01*
D12*
X0116154Y0094517D02*
X0111430Y0094517D01*
X0111430Y0098060D01*
X0116154Y0098060D01*
X0116154Y0094517D01*
X0116154Y0098060D02*
X0116154Y0099241D01*
X0113792Y0101603D01*
X0111430Y0099241D01*
X0111430Y0101997D01*
X0116154Y0101997D01*
X0116154Y0099241D01*
X0116154Y0101997D02*
X0116154Y0105540D01*
X0111430Y0105540D01*
X0111430Y0101997D01*
X0111430Y0099241D02*
X0111430Y0098060D01*
X0146863Y0098060D02*
X0146863Y0094517D01*
X0151587Y0094517D01*
X0151587Y0098060D01*
X0146863Y0098060D01*
X0146863Y0099241D01*
X0149225Y0101603D01*
X0151587Y0099241D01*
X0151587Y0098060D01*
X0151587Y0099241D02*
X0151587Y0101997D01*
X0146863Y0101997D01*
X0146863Y0105540D01*
X0151587Y0105540D01*
X0151587Y0101997D01*
X0146863Y0101997D02*
X0146863Y0099241D01*
X0182296Y0099241D02*
X0184658Y0101603D01*
X0187020Y0099241D01*
X0187020Y0098060D01*
X0182296Y0098060D01*
X0182296Y0099241D01*
X0182296Y0101997D01*
X0187020Y0101997D01*
X0187020Y0099241D01*
X0187020Y0098060D02*
X0187020Y0094517D01*
X0182296Y0094517D01*
X0182296Y0098060D01*
X0182296Y0101997D02*
X0182296Y0105540D01*
X0187020Y0105540D01*
X0187020Y0101997D01*
X0217729Y0101997D02*
X0217729Y0099241D01*
X0220091Y0101603D01*
X0222454Y0099241D01*
X0222454Y0098060D01*
X0217729Y0098060D01*
X0217729Y0099241D01*
X0217729Y0098060D02*
X0217729Y0094517D01*
X0222454Y0094517D01*
X0222454Y0098060D01*
X0222454Y0099241D02*
X0222454Y0101997D01*
X0217729Y0101997D01*
X0217729Y0105540D01*
X0222454Y0105540D01*
X0222454Y0101997D01*
X0253162Y0101997D02*
X0253162Y0099241D01*
X0255524Y0101603D01*
X0257887Y0099241D01*
X0257887Y0098060D01*
X0253162Y0098060D01*
X0253162Y0099241D01*
X0253162Y0098060D02*
X0253162Y0094517D01*
X0257887Y0094517D01*
X0257887Y0098060D01*
X0257887Y0099241D02*
X0257887Y0101997D01*
X0253162Y0101997D01*
X0253162Y0105540D01*
X0257887Y0105540D01*
X0257887Y0101997D01*
X0288595Y0101997D02*
X0288595Y0099241D01*
X0290957Y0101603D01*
X0293320Y0099241D01*
X0293320Y0098060D01*
X0288595Y0098060D01*
X0288595Y0099241D01*
X0288595Y0098060D02*
X0288595Y0094517D01*
X0293320Y0094517D01*
X0293320Y0098060D01*
X0293320Y0099241D02*
X0293320Y0101997D01*
X0288595Y0101997D01*
X0288595Y0105540D01*
X0293320Y0105540D01*
X0293320Y0101997D01*
X0324028Y0101997D02*
X0324028Y0099241D01*
X0326391Y0101603D01*
X0328753Y0099241D01*
X0328753Y0098060D01*
X0324028Y0098060D01*
X0324028Y0099241D01*
X0324028Y0098060D02*
X0324028Y0094517D01*
X0328753Y0094517D01*
X0328753Y0098060D01*
X0328753Y0099241D02*
X0328753Y0101997D01*
X0324028Y0101997D01*
X0324028Y0105540D01*
X0328753Y0105540D01*
X0328753Y0101997D01*
X0359461Y0101997D02*
X0359461Y0099241D01*
X0361824Y0101603D01*
X0364186Y0099241D01*
X0364186Y0098060D01*
X0359461Y0098060D01*
X0359461Y0099241D01*
X0359461Y0098060D02*
X0359461Y0094517D01*
X0364186Y0094517D01*
X0364186Y0098060D01*
X0364186Y0099241D02*
X0364186Y0101997D01*
X0359461Y0101997D01*
X0359461Y0105540D01*
X0364186Y0105540D01*
X0364186Y0101997D01*
X0394894Y0101997D02*
X0394894Y0099241D01*
X0397257Y0101603D01*
X0399619Y0099241D01*
X0399619Y0098060D01*
X0394894Y0098060D01*
X0394894Y0099241D01*
X0394894Y0098060D02*
X0394894Y0094517D01*
X0399619Y0094517D01*
X0399619Y0098060D01*
X0399619Y0099241D02*
X0399619Y0101997D01*
X0394894Y0101997D01*
X0394894Y0105540D01*
X0399619Y0105540D01*
X0399619Y0101997D01*
X0430328Y0101997D02*
X0430328Y0099241D01*
X0432690Y0101603D01*
X0435052Y0099241D01*
X0435052Y0098060D01*
X0430328Y0098060D01*
X0430328Y0099241D01*
X0430328Y0098060D02*
X0430328Y0094517D01*
X0435052Y0094517D01*
X0435052Y0098060D01*
X0435052Y0099241D02*
X0435052Y0101997D01*
X0430328Y0101997D01*
X0430328Y0105540D01*
X0435052Y0105540D01*
X0435052Y0101997D01*
X0465761Y0101997D02*
X0465761Y0099241D01*
X0468123Y0101603D01*
X0470485Y0099241D01*
X0470485Y0098060D01*
X0465761Y0098060D01*
X0465761Y0099241D01*
X0465761Y0098060D02*
X0465761Y0094517D01*
X0470485Y0094517D01*
X0470485Y0098060D01*
X0470485Y0099241D02*
X0470485Y0101997D01*
X0465761Y0101997D01*
X0465761Y0105540D01*
X0470485Y0105540D01*
X0470485Y0101997D01*
X0499627Y0102324D02*
X0499627Y0099568D01*
X0501989Y0101930D01*
X0504351Y0099568D01*
X0504351Y0098387D01*
X0499627Y0098387D01*
X0499627Y0099568D01*
X0499627Y0098387D02*
X0499627Y0094843D01*
X0504351Y0094843D01*
X0504351Y0098387D01*
X0504351Y0099568D02*
X0504351Y0102324D01*
X0499627Y0102324D01*
X0499627Y0105867D01*
X0504351Y0105867D01*
X0504351Y0102324D01*
X0505918Y0129950D02*
X0501194Y0129950D01*
X0501194Y0133493D01*
X0505918Y0133493D01*
X0505918Y0129950D01*
X0505918Y0133493D02*
X0505918Y0134674D01*
X0503556Y0137036D01*
X0501194Y0134674D01*
X0501194Y0137430D01*
X0505918Y0137430D01*
X0505918Y0134674D01*
X0505918Y0137430D02*
X0505918Y0140973D01*
X0501194Y0140973D01*
X0501194Y0137430D01*
X0501194Y0134674D02*
X0501194Y0133493D01*
X0470485Y0133493D02*
X0470485Y0129950D01*
X0465761Y0129950D01*
X0465761Y0133493D01*
X0470485Y0133493D01*
X0470485Y0134674D01*
X0468123Y0137036D01*
X0465761Y0134674D01*
X0465761Y0137430D01*
X0470485Y0137430D01*
X0470485Y0134674D01*
X0470485Y0137430D02*
X0470485Y0140973D01*
X0465761Y0140973D01*
X0465761Y0137430D01*
X0465761Y0134674D02*
X0465761Y0133493D01*
X0435052Y0133493D02*
X0435052Y0129950D01*
X0430328Y0129950D01*
X0430328Y0133493D01*
X0435052Y0133493D01*
X0435052Y0134674D01*
X0432690Y0137036D01*
X0430328Y0134674D01*
X0430328Y0137430D01*
X0435052Y0137430D01*
X0435052Y0134674D01*
X0435052Y0137430D02*
X0435052Y0140973D01*
X0430328Y0140973D01*
X0430328Y0137430D01*
X0430328Y0134674D02*
X0430328Y0133493D01*
X0399619Y0133493D02*
X0399619Y0129950D01*
X0394894Y0129950D01*
X0394894Y0133493D01*
X0399619Y0133493D01*
X0399619Y0134674D01*
X0397257Y0137036D01*
X0394894Y0134674D01*
X0394894Y0137430D01*
X0399619Y0137430D01*
X0399619Y0134674D01*
X0399619Y0137430D02*
X0399619Y0140973D01*
X0394894Y0140973D01*
X0394894Y0137430D01*
X0394894Y0134674D02*
X0394894Y0133493D01*
X0364186Y0133493D02*
X0364186Y0129950D01*
X0359461Y0129950D01*
X0359461Y0133493D01*
X0364186Y0133493D01*
X0364186Y0134674D01*
X0361824Y0137036D01*
X0359461Y0134674D01*
X0359461Y0137430D01*
X0364186Y0137430D01*
X0364186Y0134674D01*
X0364186Y0137430D02*
X0364186Y0140973D01*
X0359461Y0140973D01*
X0359461Y0137430D01*
X0359461Y0134674D02*
X0359461Y0133493D01*
X0328753Y0133493D02*
X0328753Y0129950D01*
X0324028Y0129950D01*
X0324028Y0133493D01*
X0328753Y0133493D01*
X0328753Y0134674D01*
X0326391Y0137036D01*
X0324028Y0134674D01*
X0324028Y0137430D01*
X0328753Y0137430D01*
X0328753Y0134674D01*
X0328753Y0137430D02*
X0328753Y0140973D01*
X0324028Y0140973D01*
X0324028Y0137430D01*
X0324028Y0134674D02*
X0324028Y0133493D01*
X0293320Y0133493D02*
X0293320Y0129950D01*
X0288595Y0129950D01*
X0288595Y0133493D01*
X0293320Y0133493D01*
X0293320Y0134674D01*
X0290957Y0137036D01*
X0288595Y0134674D01*
X0288595Y0137430D01*
X0293320Y0137430D01*
X0293320Y0134674D01*
X0293320Y0137430D02*
X0293320Y0140973D01*
X0288595Y0140973D01*
X0288595Y0137430D01*
X0288595Y0134674D02*
X0288595Y0133493D01*
X0257887Y0133493D02*
X0257887Y0129950D01*
X0253162Y0129950D01*
X0253162Y0133493D01*
X0257887Y0133493D01*
X0257887Y0134674D01*
X0255524Y0137036D01*
X0253162Y0134674D01*
X0253162Y0137430D01*
X0257887Y0137430D01*
X0257887Y0134674D01*
X0257887Y0137430D02*
X0257887Y0140973D01*
X0253162Y0140973D01*
X0253162Y0137430D01*
X0253162Y0134674D02*
X0253162Y0133493D01*
X0222454Y0133493D02*
X0222454Y0129950D01*
X0217729Y0129950D01*
X0217729Y0133493D01*
X0222454Y0133493D01*
X0222454Y0134674D01*
X0220091Y0137036D01*
X0217729Y0134674D01*
X0217729Y0137430D01*
X0222454Y0137430D01*
X0222454Y0134674D01*
X0222454Y0137430D02*
X0222454Y0140973D01*
X0217729Y0140973D01*
X0217729Y0137430D01*
X0217729Y0134674D02*
X0217729Y0133493D01*
X0187020Y0133493D02*
X0187020Y0129950D01*
X0182296Y0129950D01*
X0182296Y0133493D01*
X0187020Y0133493D01*
X0187020Y0134674D01*
X0184658Y0137036D01*
X0182296Y0134674D01*
X0182296Y0137430D01*
X0187020Y0137430D01*
X0187020Y0134674D01*
X0187020Y0137430D02*
X0187020Y0140973D01*
X0182296Y0140973D01*
X0182296Y0137430D01*
X0182296Y0134674D02*
X0182296Y0133493D01*
X0151587Y0133493D02*
X0151587Y0129950D01*
X0146863Y0129950D01*
X0146863Y0133493D01*
X0151587Y0133493D01*
X0151587Y0134674D01*
X0149225Y0137036D01*
X0146863Y0134674D01*
X0146863Y0137430D01*
X0151587Y0137430D01*
X0151587Y0134674D01*
X0151587Y0137430D02*
X0151587Y0140973D01*
X0146863Y0140973D01*
X0146863Y0137430D01*
X0146863Y0134674D02*
X0146863Y0133493D01*
X0116154Y0133493D02*
X0116154Y0129950D01*
X0111430Y0129950D01*
X0111430Y0133493D01*
X0116154Y0133493D01*
X0116154Y0134674D01*
X0113792Y0137036D01*
X0111430Y0134674D01*
X0111430Y0137430D01*
X0116154Y0137430D01*
X0116154Y0134674D01*
X0116154Y0137430D02*
X0116154Y0140973D01*
X0111430Y0140973D01*
X0111430Y0137430D01*
X0111430Y0134674D02*
X0111430Y0133493D01*
X0111430Y0165383D02*
X0116154Y0165383D01*
X0116154Y0168926D01*
X0111430Y0168926D01*
X0111430Y0170107D01*
X0113792Y0172469D01*
X0116154Y0170107D01*
X0116154Y0168926D01*
X0116154Y0170107D02*
X0116154Y0172863D01*
X0111430Y0172863D01*
X0111430Y0176406D01*
X0116154Y0176406D01*
X0116154Y0172863D01*
X0111430Y0172863D02*
X0111430Y0170107D01*
X0111430Y0168926D02*
X0111430Y0165383D01*
X0146863Y0165383D02*
X0151587Y0165383D01*
X0151587Y0168926D01*
X0146863Y0168926D01*
X0146863Y0170107D01*
X0149225Y0172469D01*
X0151587Y0170107D01*
X0151587Y0168926D01*
X0151587Y0170107D02*
X0151587Y0172863D01*
X0146863Y0172863D01*
X0146863Y0176406D01*
X0151587Y0176406D01*
X0151587Y0172863D01*
X0146863Y0172863D02*
X0146863Y0170107D01*
X0146863Y0168926D02*
X0146863Y0165383D01*
X0182296Y0165383D02*
X0187020Y0165383D01*
X0187020Y0168926D01*
X0182296Y0168926D01*
X0182296Y0170107D01*
X0184658Y0172469D01*
X0187020Y0170107D01*
X0187020Y0168926D01*
X0187020Y0170107D02*
X0187020Y0172863D01*
X0182296Y0172863D01*
X0182296Y0176406D01*
X0187020Y0176406D01*
X0187020Y0172863D01*
X0182296Y0172863D02*
X0182296Y0170107D01*
X0182296Y0168926D02*
X0182296Y0165383D01*
X0217729Y0165383D02*
X0222454Y0165383D01*
X0222454Y0168926D01*
X0217729Y0168926D01*
X0217729Y0170107D01*
X0220091Y0172469D01*
X0222454Y0170107D01*
X0222454Y0168926D01*
X0222454Y0170107D02*
X0222454Y0172863D01*
X0217729Y0172863D01*
X0217729Y0176406D01*
X0222454Y0176406D01*
X0222454Y0172863D01*
X0217729Y0172863D02*
X0217729Y0170107D01*
X0217729Y0168926D02*
X0217729Y0165383D01*
X0253162Y0165383D02*
X0257887Y0165383D01*
X0257887Y0168926D01*
X0253162Y0168926D01*
X0253162Y0170107D01*
X0255524Y0172469D01*
X0257887Y0170107D01*
X0257887Y0168926D01*
X0257887Y0170107D02*
X0257887Y0172863D01*
X0253162Y0172863D01*
X0253162Y0176406D01*
X0257887Y0176406D01*
X0257887Y0172863D01*
X0253162Y0172863D02*
X0253162Y0170107D01*
X0253162Y0168926D02*
X0253162Y0165383D01*
X0288595Y0165383D02*
X0293320Y0165383D01*
X0293320Y0168926D01*
X0288595Y0168926D01*
X0288595Y0170107D01*
X0290957Y0172469D01*
X0293320Y0170107D01*
X0293320Y0168926D01*
X0293320Y0170107D02*
X0293320Y0172863D01*
X0288595Y0172863D01*
X0288595Y0176406D01*
X0293320Y0176406D01*
X0293320Y0172863D01*
X0288595Y0172863D02*
X0288595Y0170107D01*
X0288595Y0168926D02*
X0288595Y0165383D01*
X0324028Y0165383D02*
X0328753Y0165383D01*
X0328753Y0168926D01*
X0324028Y0168926D01*
X0324028Y0170107D01*
X0326391Y0172469D01*
X0328753Y0170107D01*
X0328753Y0168926D01*
X0328753Y0170107D02*
X0328753Y0172863D01*
X0324028Y0172863D01*
X0324028Y0176406D01*
X0328753Y0176406D01*
X0328753Y0172863D01*
X0324028Y0172863D02*
X0324028Y0170107D01*
X0324028Y0168926D02*
X0324028Y0165383D01*
X0359461Y0165383D02*
X0364186Y0165383D01*
X0364186Y0168926D01*
X0359461Y0168926D01*
X0359461Y0170107D01*
X0361824Y0172469D01*
X0364186Y0170107D01*
X0364186Y0168926D01*
X0364186Y0170107D02*
X0364186Y0172863D01*
X0359461Y0172863D01*
X0359461Y0176406D01*
X0364186Y0176406D01*
X0364186Y0172863D01*
X0359461Y0172863D02*
X0359461Y0170107D01*
X0359461Y0168926D02*
X0359461Y0165383D01*
X0394894Y0165383D02*
X0399619Y0165383D01*
X0399619Y0168926D01*
X0394894Y0168926D01*
X0394894Y0170107D01*
X0397257Y0172469D01*
X0399619Y0170107D01*
X0399619Y0168926D01*
X0399619Y0170107D02*
X0399619Y0172863D01*
X0394894Y0172863D01*
X0394894Y0176406D01*
X0399619Y0176406D01*
X0399619Y0172863D01*
X0394894Y0172863D02*
X0394894Y0170107D01*
X0394894Y0168926D02*
X0394894Y0165383D01*
X0430328Y0165383D02*
X0435052Y0165383D01*
X0435052Y0168926D01*
X0430328Y0168926D01*
X0430328Y0170107D01*
X0432690Y0172469D01*
X0435052Y0170107D01*
X0435052Y0168926D01*
X0435052Y0170107D02*
X0435052Y0172863D01*
X0430328Y0172863D01*
X0430328Y0176406D01*
X0435052Y0176406D01*
X0435052Y0172863D01*
X0430328Y0172863D02*
X0430328Y0170107D01*
X0430328Y0168926D02*
X0430328Y0165383D01*
X0465761Y0165383D02*
X0470485Y0165383D01*
X0470485Y0168926D01*
X0465761Y0168926D01*
X0465761Y0170107D01*
X0468123Y0172469D01*
X0470485Y0170107D01*
X0470485Y0168926D01*
X0470485Y0170107D02*
X0470485Y0172863D01*
X0465761Y0172863D01*
X0465761Y0176406D01*
X0470485Y0176406D01*
X0470485Y0172863D01*
X0465761Y0172863D02*
X0465761Y0170107D01*
X0465761Y0168926D02*
X0465761Y0165383D01*
X0501194Y0165383D02*
X0505918Y0165383D01*
X0505918Y0168926D01*
X0501194Y0168926D01*
X0501194Y0170107D01*
X0503556Y0172469D01*
X0505918Y0170107D01*
X0505918Y0168926D01*
X0505918Y0170107D02*
X0505918Y0172863D01*
X0501194Y0172863D01*
X0501194Y0176406D01*
X0505918Y0176406D01*
X0505918Y0172863D01*
X0501194Y0172863D02*
X0501194Y0170107D01*
X0501194Y0168926D02*
X0501194Y0165383D01*
X0501194Y0200816D02*
X0505918Y0200816D01*
X0505918Y0204359D01*
X0501194Y0204359D01*
X0501194Y0205540D01*
X0503556Y0207902D01*
X0505918Y0205540D01*
X0505918Y0204359D01*
X0505918Y0205540D02*
X0505918Y0208296D01*
X0501194Y0208296D01*
X0501194Y0211839D01*
X0505918Y0211839D01*
X0505918Y0208296D01*
X0501194Y0208296D02*
X0501194Y0205540D01*
X0501194Y0204359D02*
X0501194Y0200816D01*
X0470485Y0200816D02*
X0465761Y0200816D01*
X0465761Y0204359D01*
X0470485Y0204359D01*
X0470485Y0200816D01*
X0470485Y0204359D02*
X0470485Y0205540D01*
X0468123Y0207902D01*
X0465761Y0205540D01*
X0465761Y0208296D01*
X0470485Y0208296D01*
X0470485Y0205540D01*
X0470485Y0208296D02*
X0470485Y0211839D01*
X0465761Y0211839D01*
X0465761Y0208296D01*
X0465761Y0205540D02*
X0465761Y0204359D01*
X0435052Y0204359D02*
X0435052Y0200816D01*
X0430328Y0200816D01*
X0430328Y0204359D01*
X0435052Y0204359D01*
X0435052Y0205540D01*
X0432690Y0207902D01*
X0430328Y0205540D01*
X0430328Y0208296D01*
X0435052Y0208296D01*
X0435052Y0205540D01*
X0435052Y0208296D02*
X0435052Y0211839D01*
X0430328Y0211839D01*
X0430328Y0208296D01*
X0430328Y0205540D02*
X0430328Y0204359D01*
X0399619Y0204359D02*
X0399619Y0200816D01*
X0394894Y0200816D01*
X0394894Y0204359D01*
X0399619Y0204359D01*
X0399619Y0205540D01*
X0397257Y0207902D01*
X0394894Y0205540D01*
X0394894Y0208296D01*
X0399619Y0208296D01*
X0399619Y0205540D01*
X0399619Y0208296D02*
X0399619Y0211839D01*
X0394894Y0211839D01*
X0394894Y0208296D01*
X0394894Y0205540D02*
X0394894Y0204359D01*
X0364186Y0204359D02*
X0364186Y0200816D01*
X0359461Y0200816D01*
X0359461Y0204359D01*
X0364186Y0204359D01*
X0364186Y0205540D01*
X0361824Y0207902D01*
X0359461Y0205540D01*
X0359461Y0208296D01*
X0364186Y0208296D01*
X0364186Y0205540D01*
X0364186Y0208296D02*
X0364186Y0211839D01*
X0359461Y0211839D01*
X0359461Y0208296D01*
X0359461Y0205540D02*
X0359461Y0204359D01*
X0328753Y0204359D02*
X0328753Y0200816D01*
X0324028Y0200816D01*
X0324028Y0204359D01*
X0328753Y0204359D01*
X0328753Y0205540D01*
X0326391Y0207902D01*
X0324028Y0205540D01*
X0324028Y0208296D01*
X0328753Y0208296D01*
X0328753Y0205540D01*
X0328753Y0208296D02*
X0328753Y0211839D01*
X0324028Y0211839D01*
X0324028Y0208296D01*
X0324028Y0205540D02*
X0324028Y0204359D01*
X0293320Y0204359D02*
X0293320Y0200816D01*
X0288595Y0200816D01*
X0288595Y0204359D01*
X0293320Y0204359D01*
X0293320Y0205540D01*
X0290957Y0207902D01*
X0288595Y0205540D01*
X0288595Y0208296D01*
X0293320Y0208296D01*
X0293320Y0205540D01*
X0293320Y0208296D02*
X0293320Y0211839D01*
X0288595Y0211839D01*
X0288595Y0208296D01*
X0288595Y0205540D02*
X0288595Y0204359D01*
X0257887Y0204359D02*
X0257887Y0200816D01*
X0253162Y0200816D01*
X0253162Y0204359D01*
X0257887Y0204359D01*
X0257887Y0205540D01*
X0255524Y0207902D01*
X0253162Y0205540D01*
X0253162Y0208296D01*
X0257887Y0208296D01*
X0257887Y0205540D01*
X0257887Y0208296D02*
X0257887Y0211839D01*
X0253162Y0211839D01*
X0253162Y0208296D01*
X0253162Y0205540D02*
X0253162Y0204359D01*
X0222454Y0204359D02*
X0222454Y0200816D01*
X0217729Y0200816D01*
X0217729Y0204359D01*
X0222454Y0204359D01*
X0222454Y0205540D01*
X0220091Y0207902D01*
X0217729Y0205540D01*
X0217729Y0208296D01*
X0222454Y0208296D01*
X0222454Y0205540D01*
X0222454Y0208296D02*
X0222454Y0211839D01*
X0217729Y0211839D01*
X0217729Y0208296D01*
X0217729Y0205540D02*
X0217729Y0204359D01*
X0187020Y0204359D02*
X0187020Y0200816D01*
X0182296Y0200816D01*
X0182296Y0204359D01*
X0187020Y0204359D01*
X0187020Y0205540D01*
X0184658Y0207902D01*
X0182296Y0205540D01*
X0182296Y0208296D01*
X0187020Y0208296D01*
X0187020Y0205540D01*
X0187020Y0208296D02*
X0187020Y0211839D01*
X0182296Y0211839D01*
X0182296Y0208296D01*
X0182296Y0205540D02*
X0182296Y0204359D01*
X0151587Y0204359D02*
X0151587Y0200816D01*
X0146863Y0200816D01*
X0146863Y0204359D01*
X0151587Y0204359D01*
X0151587Y0205540D01*
X0149225Y0207902D01*
X0146863Y0205540D01*
X0146863Y0208296D01*
X0151587Y0208296D01*
X0151587Y0205540D01*
X0151587Y0208296D02*
X0151587Y0211839D01*
X0146863Y0211839D01*
X0146863Y0208296D01*
X0146863Y0205540D02*
X0146863Y0204359D01*
X0116154Y0204359D02*
X0116154Y0200816D01*
X0111430Y0200816D01*
X0111430Y0204359D01*
X0116154Y0204359D01*
X0116154Y0205540D01*
X0113792Y0207902D01*
X0111430Y0205540D01*
X0111430Y0208296D01*
X0116154Y0208296D01*
X0116154Y0205540D01*
X0116154Y0208296D02*
X0116154Y0211839D01*
X0111430Y0211839D01*
X0111430Y0208296D01*
X0111430Y0205540D02*
X0111430Y0204359D01*
X0111430Y0236249D02*
X0116154Y0236249D01*
X0116154Y0239792D01*
X0111430Y0239792D01*
X0111430Y0240973D01*
X0113792Y0243335D01*
X0116154Y0240973D01*
X0116154Y0239792D01*
X0116154Y0240973D02*
X0116154Y0243729D01*
X0111430Y0243729D01*
X0111430Y0247272D01*
X0116154Y0247272D01*
X0116154Y0243729D01*
X0111430Y0243729D02*
X0111430Y0240973D01*
X0111430Y0239792D02*
X0111430Y0236249D01*
X0146863Y0236249D02*
X0151587Y0236249D01*
X0151587Y0239792D01*
X0146863Y0239792D01*
X0146863Y0240973D01*
X0149225Y0243335D01*
X0151587Y0240973D01*
X0151587Y0239792D01*
X0151587Y0240973D02*
X0151587Y0243729D01*
X0146863Y0243729D01*
X0146863Y0247272D01*
X0151587Y0247272D01*
X0151587Y0243729D01*
X0146863Y0243729D02*
X0146863Y0240973D01*
X0146863Y0239792D02*
X0146863Y0236249D01*
X0182296Y0236249D02*
X0187020Y0236249D01*
X0187020Y0239792D01*
X0182296Y0239792D01*
X0182296Y0240973D01*
X0184658Y0243335D01*
X0187020Y0240973D01*
X0187020Y0239792D01*
X0187020Y0240973D02*
X0187020Y0243729D01*
X0182296Y0243729D01*
X0182296Y0247272D01*
X0187020Y0247272D01*
X0187020Y0243729D01*
X0182296Y0243729D02*
X0182296Y0240973D01*
X0182296Y0239792D02*
X0182296Y0236249D01*
X0217729Y0236249D02*
X0222454Y0236249D01*
X0222454Y0239792D01*
X0217729Y0239792D01*
X0217729Y0240973D01*
X0220091Y0243335D01*
X0222454Y0240973D01*
X0222454Y0239792D01*
X0222454Y0240973D02*
X0222454Y0243729D01*
X0217729Y0243729D01*
X0217729Y0247272D01*
X0222454Y0247272D01*
X0222454Y0243729D01*
X0217729Y0243729D02*
X0217729Y0240973D01*
X0217729Y0239792D02*
X0217729Y0236249D01*
X0253162Y0236249D02*
X0257887Y0236249D01*
X0257887Y0239792D01*
X0253162Y0239792D01*
X0253162Y0240973D01*
X0255524Y0243335D01*
X0257887Y0240973D01*
X0257887Y0239792D01*
X0257887Y0240973D02*
X0257887Y0243729D01*
X0253162Y0243729D01*
X0253162Y0247272D01*
X0257887Y0247272D01*
X0257887Y0243729D01*
X0253162Y0243729D02*
X0253162Y0240973D01*
X0253162Y0239792D02*
X0253162Y0236249D01*
X0288595Y0236249D02*
X0293320Y0236249D01*
X0293320Y0239792D01*
X0288595Y0239792D01*
X0288595Y0240973D01*
X0290957Y0243335D01*
X0293320Y0240973D01*
X0293320Y0239792D01*
X0293320Y0240973D02*
X0293320Y0243729D01*
X0288595Y0243729D01*
X0288595Y0247272D01*
X0293320Y0247272D01*
X0293320Y0243729D01*
X0288595Y0243729D02*
X0288595Y0240973D01*
X0288595Y0239792D02*
X0288595Y0236249D01*
X0324028Y0236249D02*
X0328753Y0236249D01*
X0328753Y0239792D01*
X0324028Y0239792D01*
X0324028Y0240973D01*
X0326391Y0243335D01*
X0328753Y0240973D01*
X0328753Y0239792D01*
X0328753Y0240973D02*
X0328753Y0243729D01*
X0324028Y0243729D01*
X0324028Y0247272D01*
X0328753Y0247272D01*
X0328753Y0243729D01*
X0324028Y0243729D02*
X0324028Y0240973D01*
X0324028Y0239792D02*
X0324028Y0236249D01*
X0359461Y0236249D02*
X0364186Y0236249D01*
X0364186Y0239792D01*
X0359461Y0239792D01*
X0359461Y0240973D01*
X0361824Y0243335D01*
X0364186Y0240973D01*
X0364186Y0239792D01*
X0364186Y0240973D02*
X0364186Y0243729D01*
X0359461Y0243729D01*
X0359461Y0247272D01*
X0364186Y0247272D01*
X0364186Y0243729D01*
X0359461Y0243729D02*
X0359461Y0240973D01*
X0359461Y0239792D02*
X0359461Y0236249D01*
X0394894Y0236249D02*
X0399619Y0236249D01*
X0399619Y0239792D01*
X0394894Y0239792D01*
X0394894Y0240973D01*
X0397257Y0243335D01*
X0399619Y0240973D01*
X0399619Y0239792D01*
X0399619Y0240973D02*
X0399619Y0243729D01*
X0394894Y0243729D01*
X0394894Y0247272D01*
X0399619Y0247272D01*
X0399619Y0243729D01*
X0394894Y0243729D02*
X0394894Y0240973D01*
X0394894Y0239792D02*
X0394894Y0236249D01*
X0430328Y0236249D02*
X0435052Y0236249D01*
X0435052Y0239792D01*
X0430328Y0239792D01*
X0430328Y0240973D01*
X0432690Y0243335D01*
X0435052Y0240973D01*
X0435052Y0239792D01*
X0435052Y0240973D02*
X0435052Y0243729D01*
X0430328Y0243729D01*
X0430328Y0247272D01*
X0435052Y0247272D01*
X0435052Y0243729D01*
X0430328Y0243729D02*
X0430328Y0240973D01*
X0430328Y0239792D02*
X0430328Y0236249D01*
X0465761Y0236249D02*
X0470485Y0236249D01*
X0470485Y0239792D01*
X0465761Y0239792D01*
X0465761Y0240973D01*
X0468123Y0243335D01*
X0470485Y0240973D01*
X0470485Y0239792D01*
X0470485Y0240973D02*
X0470485Y0243729D01*
X0465761Y0243729D01*
X0465761Y0247272D01*
X0470485Y0247272D01*
X0470485Y0243729D01*
X0465761Y0243729D02*
X0465761Y0240973D01*
X0465761Y0239792D02*
X0465761Y0236249D01*
X0501194Y0236249D02*
X0505918Y0236249D01*
X0505918Y0239792D01*
X0501194Y0239792D01*
X0501194Y0240973D01*
X0503556Y0243335D01*
X0505918Y0240973D01*
X0505918Y0239792D01*
X0505918Y0240973D02*
X0505918Y0243729D01*
X0501194Y0243729D01*
X0501194Y0247272D01*
X0505918Y0247272D01*
X0505918Y0243729D01*
X0501194Y0243729D02*
X0501194Y0240973D01*
X0501194Y0239792D02*
X0501194Y0236249D01*
X0501194Y0271682D02*
X0505918Y0271682D01*
X0505918Y0275225D01*
X0501194Y0275225D01*
X0501194Y0276406D01*
X0503556Y0278769D01*
X0505918Y0276406D01*
X0505918Y0275225D01*
X0505918Y0276406D02*
X0505918Y0279162D01*
X0501194Y0279162D01*
X0501194Y0282706D01*
X0505918Y0282706D01*
X0505918Y0279162D01*
X0501194Y0279162D02*
X0501194Y0276406D01*
X0501194Y0275225D02*
X0501194Y0271682D01*
X0470485Y0271682D02*
X0465761Y0271682D01*
X0465761Y0275225D01*
X0470485Y0275225D01*
X0470485Y0271682D01*
X0470485Y0275225D02*
X0470485Y0276406D01*
X0468123Y0278769D01*
X0465761Y0276406D01*
X0465761Y0279162D01*
X0470485Y0279162D01*
X0470485Y0276406D01*
X0470485Y0279162D02*
X0470485Y0282706D01*
X0465761Y0282706D01*
X0465761Y0279162D01*
X0465761Y0276406D02*
X0465761Y0275225D01*
X0435052Y0275225D02*
X0435052Y0271682D01*
X0430328Y0271682D01*
X0430328Y0275225D01*
X0435052Y0275225D01*
X0435052Y0276406D01*
X0432690Y0278769D01*
X0430328Y0276406D01*
X0430328Y0279162D01*
X0435052Y0279162D01*
X0435052Y0276406D01*
X0435052Y0279162D02*
X0435052Y0282706D01*
X0430328Y0282706D01*
X0430328Y0279162D01*
X0430328Y0276406D02*
X0430328Y0275225D01*
X0399619Y0275225D02*
X0399619Y0271682D01*
X0394894Y0271682D01*
X0394894Y0275225D01*
X0399619Y0275225D01*
X0399619Y0276406D01*
X0397257Y0278769D01*
X0394894Y0276406D01*
X0394894Y0279162D01*
X0399619Y0279162D01*
X0399619Y0276406D01*
X0399619Y0279162D02*
X0399619Y0282706D01*
X0394894Y0282706D01*
X0394894Y0279162D01*
X0394894Y0276406D02*
X0394894Y0275225D01*
X0364186Y0275225D02*
X0364186Y0271682D01*
X0359461Y0271682D01*
X0359461Y0275225D01*
X0364186Y0275225D01*
X0364186Y0276406D01*
X0361824Y0278769D01*
X0359461Y0276406D01*
X0359461Y0279162D01*
X0364186Y0279162D01*
X0364186Y0276406D01*
X0364186Y0279162D02*
X0364186Y0282706D01*
X0359461Y0282706D01*
X0359461Y0279162D01*
X0359461Y0276406D02*
X0359461Y0275225D01*
X0328753Y0275225D02*
X0328753Y0271682D01*
X0324028Y0271682D01*
X0324028Y0275225D01*
X0328753Y0275225D01*
X0328753Y0276406D01*
X0326391Y0278769D01*
X0324028Y0276406D01*
X0324028Y0279162D01*
X0328753Y0279162D01*
X0328753Y0276406D01*
X0328753Y0279162D02*
X0328753Y0282706D01*
X0324028Y0282706D01*
X0324028Y0279162D01*
X0324028Y0276406D02*
X0324028Y0275225D01*
X0293320Y0275225D02*
X0293320Y0271682D01*
X0288595Y0271682D01*
X0288595Y0275225D01*
X0293320Y0275225D01*
X0293320Y0276406D01*
X0290957Y0278769D01*
X0288595Y0276406D01*
X0288595Y0279162D01*
X0293320Y0279162D01*
X0293320Y0276406D01*
X0293320Y0279162D02*
X0293320Y0282706D01*
X0288595Y0282706D01*
X0288595Y0279162D01*
X0288595Y0276406D02*
X0288595Y0275225D01*
X0257887Y0275225D02*
X0257887Y0271682D01*
X0253162Y0271682D01*
X0253162Y0275225D01*
X0257887Y0275225D01*
X0257887Y0276406D01*
X0255524Y0278769D01*
X0253162Y0276406D01*
X0253162Y0279162D01*
X0257887Y0279162D01*
X0257887Y0276406D01*
X0257887Y0279162D02*
X0257887Y0282706D01*
X0253162Y0282706D01*
X0253162Y0279162D01*
X0253162Y0276406D02*
X0253162Y0275225D01*
X0222454Y0275225D02*
X0222454Y0271682D01*
X0217729Y0271682D01*
X0217729Y0275225D01*
X0222454Y0275225D01*
X0222454Y0276406D01*
X0220091Y0278769D01*
X0217729Y0276406D01*
X0217729Y0279162D01*
X0222454Y0279162D01*
X0222454Y0276406D01*
X0222454Y0279162D02*
X0222454Y0282706D01*
X0217729Y0282706D01*
X0217729Y0279162D01*
X0217729Y0276406D02*
X0217729Y0275225D01*
X0187020Y0275225D02*
X0187020Y0271682D01*
X0182296Y0271682D01*
X0182296Y0275225D01*
X0187020Y0275225D01*
X0187020Y0276406D01*
X0184658Y0278769D01*
X0182296Y0276406D01*
X0182296Y0279162D01*
X0187020Y0279162D01*
X0187020Y0276406D01*
X0187020Y0279162D02*
X0187020Y0282706D01*
X0182296Y0282706D01*
X0182296Y0279162D01*
X0182296Y0276406D02*
X0182296Y0275225D01*
X0151587Y0275225D02*
X0151587Y0271682D01*
X0146863Y0271682D01*
X0146863Y0275225D01*
X0151587Y0275225D01*
X0151587Y0276406D01*
X0149225Y0278769D01*
X0146863Y0276406D01*
X0146863Y0279162D01*
X0151587Y0279162D01*
X0151587Y0276406D01*
X0151587Y0279162D02*
X0151587Y0282706D01*
X0146863Y0282706D01*
X0146863Y0279162D01*
X0146863Y0276406D02*
X0146863Y0275225D01*
X0116154Y0275225D02*
X0116154Y0271682D01*
X0111430Y0271682D01*
X0111430Y0275225D01*
X0116154Y0275225D01*
X0116154Y0276406D01*
X0113792Y0278769D01*
X0111430Y0276406D01*
X0111430Y0279162D01*
X0116154Y0279162D01*
X0116154Y0276406D01*
X0116154Y0279162D02*
X0116154Y0282706D01*
X0111430Y0282706D01*
X0111430Y0279162D01*
X0111430Y0276406D02*
X0111430Y0275225D01*
X0111430Y0307115D02*
X0116154Y0307115D01*
X0116154Y0310658D01*
X0111430Y0310658D01*
X0111430Y0311839D01*
X0113792Y0314202D01*
X0116154Y0311839D01*
X0116154Y0310658D01*
X0116154Y0311839D02*
X0116154Y0314595D01*
X0111430Y0314595D01*
X0111430Y0318139D01*
X0116154Y0318139D01*
X0116154Y0314595D01*
X0111430Y0314595D02*
X0111430Y0311839D01*
X0111430Y0310658D02*
X0111430Y0307115D01*
X0146863Y0307115D02*
X0151587Y0307115D01*
X0151587Y0310658D01*
X0146863Y0310658D01*
X0146863Y0311839D01*
X0149225Y0314202D01*
X0151587Y0311839D01*
X0151587Y0310658D01*
X0151587Y0311839D02*
X0151587Y0314595D01*
X0146863Y0314595D01*
X0146863Y0318139D01*
X0151587Y0318139D01*
X0151587Y0314595D01*
X0146863Y0314595D02*
X0146863Y0311839D01*
X0146863Y0310658D02*
X0146863Y0307115D01*
X0182296Y0307115D02*
X0187020Y0307115D01*
X0187020Y0310658D01*
X0182296Y0310658D01*
X0182296Y0311839D01*
X0184658Y0314202D01*
X0187020Y0311839D01*
X0187020Y0310658D01*
X0187020Y0311839D02*
X0187020Y0314595D01*
X0182296Y0314595D01*
X0182296Y0318139D01*
X0187020Y0318139D01*
X0187020Y0314595D01*
X0182296Y0314595D02*
X0182296Y0311839D01*
X0182296Y0310658D02*
X0182296Y0307115D01*
X0217729Y0307115D02*
X0222454Y0307115D01*
X0222454Y0310658D01*
X0217729Y0310658D01*
X0217729Y0311839D01*
X0220091Y0314202D01*
X0222454Y0311839D01*
X0222454Y0310658D01*
X0222454Y0311839D02*
X0222454Y0314595D01*
X0217729Y0314595D01*
X0217729Y0318139D01*
X0222454Y0318139D01*
X0222454Y0314595D01*
X0217729Y0314595D02*
X0217729Y0311839D01*
X0217729Y0310658D02*
X0217729Y0307115D01*
X0253162Y0307115D02*
X0257887Y0307115D01*
X0257887Y0310658D01*
X0253162Y0310658D01*
X0253162Y0311839D01*
X0255524Y0314202D01*
X0257887Y0311839D01*
X0257887Y0310658D01*
X0257887Y0311839D02*
X0257887Y0314595D01*
X0253162Y0314595D01*
X0253162Y0318139D01*
X0257887Y0318139D01*
X0257887Y0314595D01*
X0253162Y0314595D02*
X0253162Y0311839D01*
X0253162Y0310658D02*
X0253162Y0307115D01*
X0288595Y0307115D02*
X0293320Y0307115D01*
X0293320Y0310658D01*
X0288595Y0310658D01*
X0288595Y0311839D01*
X0290957Y0314202D01*
X0293320Y0311839D01*
X0293320Y0310658D01*
X0293320Y0311839D02*
X0293320Y0314595D01*
X0288595Y0314595D01*
X0288595Y0318139D01*
X0293320Y0318139D01*
X0293320Y0314595D01*
X0288595Y0314595D02*
X0288595Y0311839D01*
X0288595Y0310658D02*
X0288595Y0307115D01*
X0324028Y0307115D02*
X0328753Y0307115D01*
X0328753Y0310658D01*
X0324028Y0310658D01*
X0324028Y0311839D01*
X0326391Y0314202D01*
X0328753Y0311839D01*
X0328753Y0310658D01*
X0328753Y0311839D02*
X0328753Y0314595D01*
X0324028Y0314595D01*
X0324028Y0318139D01*
X0328753Y0318139D01*
X0328753Y0314595D01*
X0324028Y0314595D02*
X0324028Y0311839D01*
X0324028Y0310658D02*
X0324028Y0307115D01*
X0359461Y0307115D02*
X0364186Y0307115D01*
X0364186Y0310658D01*
X0359461Y0310658D01*
X0359461Y0311839D01*
X0361824Y0314202D01*
X0364186Y0311839D01*
X0364186Y0310658D01*
X0364186Y0311839D02*
X0364186Y0314595D01*
X0359461Y0314595D01*
X0359461Y0318139D01*
X0364186Y0318139D01*
X0364186Y0314595D01*
X0359461Y0314595D02*
X0359461Y0311839D01*
X0359461Y0310658D02*
X0359461Y0307115D01*
X0394894Y0307115D02*
X0399619Y0307115D01*
X0399619Y0310658D01*
X0394894Y0310658D01*
X0394894Y0311839D01*
X0397257Y0314202D01*
X0399619Y0311839D01*
X0399619Y0310658D01*
X0399619Y0311839D02*
X0399619Y0314595D01*
X0394894Y0314595D01*
X0394894Y0318139D01*
X0399619Y0318139D01*
X0399619Y0314595D01*
X0394894Y0314595D02*
X0394894Y0311839D01*
X0394894Y0310658D02*
X0394894Y0307115D01*
X0430328Y0307115D02*
X0435052Y0307115D01*
X0435052Y0310658D01*
X0430328Y0310658D01*
X0430328Y0311839D01*
X0432690Y0314202D01*
X0435052Y0311839D01*
X0435052Y0310658D01*
X0435052Y0311839D02*
X0435052Y0314595D01*
X0430328Y0314595D01*
X0430328Y0318139D01*
X0435052Y0318139D01*
X0435052Y0314595D01*
X0430328Y0314595D02*
X0430328Y0311839D01*
X0430328Y0310658D02*
X0430328Y0307115D01*
X0465761Y0307115D02*
X0470485Y0307115D01*
X0470485Y0310658D01*
X0465761Y0310658D01*
X0465761Y0311839D01*
X0468123Y0314202D01*
X0470485Y0311839D01*
X0470485Y0310658D01*
X0470485Y0311839D02*
X0470485Y0314595D01*
X0465761Y0314595D01*
X0465761Y0318139D01*
X0470485Y0318139D01*
X0470485Y0314595D01*
X0465761Y0314595D02*
X0465761Y0311839D01*
X0465761Y0310658D02*
X0465761Y0307115D01*
X0501194Y0307115D02*
X0505918Y0307115D01*
X0505918Y0310658D01*
X0501194Y0310658D01*
X0501194Y0311839D01*
X0503556Y0314202D01*
X0505918Y0311839D01*
X0505918Y0310658D01*
X0505918Y0311839D02*
X0505918Y0314595D01*
X0501194Y0314595D01*
X0501194Y0318139D01*
X0505918Y0318139D01*
X0505918Y0314595D01*
X0501194Y0314595D02*
X0501194Y0311839D01*
X0501194Y0310658D02*
X0501194Y0307115D01*
X0501194Y0342548D02*
X0505918Y0342548D01*
X0505918Y0346091D01*
X0501194Y0346091D01*
X0501194Y0347272D01*
X0503556Y0349635D01*
X0505918Y0347272D01*
X0505918Y0346091D01*
X0505918Y0347272D02*
X0505918Y0350028D01*
X0501194Y0350028D01*
X0501194Y0353572D01*
X0505918Y0353572D01*
X0505918Y0350028D01*
X0501194Y0350028D02*
X0501194Y0347272D01*
X0501194Y0346091D02*
X0501194Y0342548D01*
X0470485Y0342548D02*
X0465761Y0342548D01*
X0465761Y0346091D01*
X0470485Y0346091D01*
X0470485Y0342548D01*
X0470485Y0346091D02*
X0470485Y0347272D01*
X0468123Y0349635D01*
X0465761Y0347272D01*
X0465761Y0350028D01*
X0470485Y0350028D01*
X0470485Y0347272D01*
X0470485Y0350028D02*
X0470485Y0353572D01*
X0465761Y0353572D01*
X0465761Y0350028D01*
X0465761Y0347272D02*
X0465761Y0346091D01*
X0435052Y0346091D02*
X0435052Y0342548D01*
X0430328Y0342548D01*
X0430328Y0346091D01*
X0435052Y0346091D01*
X0435052Y0347272D01*
X0432690Y0349635D01*
X0430328Y0347272D01*
X0430328Y0350028D01*
X0435052Y0350028D01*
X0435052Y0347272D01*
X0435052Y0350028D02*
X0435052Y0353572D01*
X0430328Y0353572D01*
X0430328Y0350028D01*
X0430328Y0347272D02*
X0430328Y0346091D01*
X0399619Y0346091D02*
X0399619Y0342548D01*
X0394894Y0342548D01*
X0394894Y0346091D01*
X0399619Y0346091D01*
X0399619Y0347272D01*
X0397257Y0349635D01*
X0394894Y0347272D01*
X0394894Y0350028D01*
X0399619Y0350028D01*
X0399619Y0347272D01*
X0399619Y0350028D02*
X0399619Y0353572D01*
X0394894Y0353572D01*
X0394894Y0350028D01*
X0394894Y0347272D02*
X0394894Y0346091D01*
X0364186Y0346091D02*
X0364186Y0342548D01*
X0359461Y0342548D01*
X0359461Y0346091D01*
X0364186Y0346091D01*
X0364186Y0347272D01*
X0361824Y0349635D01*
X0359461Y0347272D01*
X0359461Y0350028D01*
X0364186Y0350028D01*
X0364186Y0347272D01*
X0364186Y0350028D02*
X0364186Y0353572D01*
X0359461Y0353572D01*
X0359461Y0350028D01*
X0359461Y0347272D02*
X0359461Y0346091D01*
X0328753Y0346091D02*
X0328753Y0342548D01*
X0324028Y0342548D01*
X0324028Y0346091D01*
X0328753Y0346091D01*
X0328753Y0347272D01*
X0326391Y0349635D01*
X0324028Y0347272D01*
X0324028Y0350028D01*
X0328753Y0350028D01*
X0328753Y0347272D01*
X0328753Y0350028D02*
X0328753Y0353572D01*
X0324028Y0353572D01*
X0324028Y0350028D01*
X0324028Y0347272D02*
X0324028Y0346091D01*
X0293320Y0346091D02*
X0293320Y0342548D01*
X0288595Y0342548D01*
X0288595Y0346091D01*
X0293320Y0346091D01*
X0293320Y0347272D01*
X0290957Y0349635D01*
X0288595Y0347272D01*
X0288595Y0350028D01*
X0293320Y0350028D01*
X0293320Y0347272D01*
X0293320Y0350028D02*
X0293320Y0353572D01*
X0288595Y0353572D01*
X0288595Y0350028D01*
X0288595Y0347272D02*
X0288595Y0346091D01*
X0257887Y0346091D02*
X0257887Y0342548D01*
X0253162Y0342548D01*
X0253162Y0346091D01*
X0257887Y0346091D01*
X0257887Y0347272D01*
X0255524Y0349635D01*
X0253162Y0347272D01*
X0253162Y0350028D01*
X0257887Y0350028D01*
X0257887Y0347272D01*
X0257887Y0350028D02*
X0257887Y0353572D01*
X0253162Y0353572D01*
X0253162Y0350028D01*
X0253162Y0347272D02*
X0253162Y0346091D01*
X0222454Y0346091D02*
X0222454Y0342548D01*
X0217729Y0342548D01*
X0217729Y0346091D01*
X0222454Y0346091D01*
X0222454Y0347272D01*
X0220091Y0349635D01*
X0217729Y0347272D01*
X0217729Y0350028D01*
X0222454Y0350028D01*
X0222454Y0347272D01*
X0222454Y0350028D02*
X0222454Y0353572D01*
X0217729Y0353572D01*
X0217729Y0350028D01*
X0217729Y0347272D02*
X0217729Y0346091D01*
X0187020Y0346091D02*
X0187020Y0342548D01*
X0182296Y0342548D01*
X0182296Y0346091D01*
X0187020Y0346091D01*
X0187020Y0347272D01*
X0184658Y0349635D01*
X0182296Y0347272D01*
X0182296Y0350028D01*
X0187020Y0350028D01*
X0187020Y0347272D01*
X0187020Y0350028D02*
X0187020Y0353572D01*
X0182296Y0353572D01*
X0182296Y0350028D01*
X0182296Y0347272D02*
X0182296Y0346091D01*
X0151587Y0346091D02*
X0151587Y0342548D01*
X0146863Y0342548D01*
X0146863Y0346091D01*
X0151587Y0346091D01*
X0151587Y0347272D01*
X0149225Y0349635D01*
X0146863Y0347272D01*
X0146863Y0350028D01*
X0151587Y0350028D01*
X0151587Y0347272D01*
X0151587Y0350028D02*
X0151587Y0353572D01*
X0146863Y0353572D01*
X0146863Y0350028D01*
X0146863Y0347272D02*
X0146863Y0346091D01*
X0116154Y0346091D02*
X0116154Y0342548D01*
X0111430Y0342548D01*
X0111430Y0346091D01*
X0116154Y0346091D01*
X0116154Y0347272D01*
X0113792Y0349635D01*
X0111430Y0347272D01*
X0111430Y0350028D01*
X0116154Y0350028D01*
X0116154Y0347272D01*
X0116154Y0350028D02*
X0116154Y0353572D01*
X0111430Y0353572D01*
X0111430Y0350028D01*
X0111430Y0347272D02*
X0111430Y0346091D01*
D13*
X0109303Y0357748D02*
X0106234Y0357748D01*
X0107768Y0357748D02*
X0107768Y0362352D01*
X0106234Y0360817D01*
X0104699Y0357748D02*
X0101630Y0357748D01*
X0101630Y0362352D01*
X0137063Y0362352D02*
X0137063Y0357748D01*
X0140132Y0357748D01*
X0141667Y0357748D02*
X0144736Y0360817D01*
X0144736Y0361585D01*
X0143969Y0362352D01*
X0142434Y0362352D01*
X0141667Y0361585D01*
X0141667Y0357748D02*
X0144736Y0357748D01*
X0172496Y0357748D02*
X0175565Y0357748D01*
X0177100Y0358515D02*
X0177867Y0357748D01*
X0179402Y0357748D01*
X0180169Y0358515D01*
X0180169Y0359283D01*
X0179402Y0360050D01*
X0178635Y0360050D01*
X0179402Y0360050D02*
X0180169Y0360817D01*
X0180169Y0361585D01*
X0179402Y0362352D01*
X0177867Y0362352D01*
X0177100Y0361585D01*
X0172496Y0362352D02*
X0172496Y0357748D01*
X0207929Y0357748D02*
X0210998Y0357748D01*
X0212533Y0360050D02*
X0215602Y0360050D01*
X0214835Y0362352D02*
X0212533Y0360050D01*
X0214835Y0357748D02*
X0214835Y0362352D01*
X0207929Y0362352D02*
X0207929Y0357748D01*
X0243362Y0357748D02*
X0246431Y0357748D01*
X0247966Y0358515D02*
X0248733Y0357748D01*
X0250268Y0357748D01*
X0251035Y0358515D01*
X0251035Y0360050D01*
X0250268Y0360817D01*
X0249501Y0360817D01*
X0247966Y0360050D01*
X0247966Y0362352D01*
X0251035Y0362352D01*
X0243362Y0362352D02*
X0243362Y0357748D01*
X0278795Y0357748D02*
X0281865Y0357748D01*
X0283399Y0358515D02*
X0284167Y0357748D01*
X0285701Y0357748D01*
X0286468Y0358515D01*
X0286468Y0359283D01*
X0285701Y0360050D01*
X0283399Y0360050D01*
X0283399Y0358515D01*
X0283399Y0360050D02*
X0284934Y0361585D01*
X0286468Y0362352D01*
X0278795Y0362352D02*
X0278795Y0357748D01*
X0314228Y0357748D02*
X0317298Y0357748D01*
X0318832Y0357748D02*
X0318832Y0358515D01*
X0321902Y0361585D01*
X0321902Y0362352D01*
X0318832Y0362352D01*
X0314228Y0362352D02*
X0314228Y0357748D01*
X0349661Y0357748D02*
X0352731Y0357748D01*
X0354265Y0358515D02*
X0354265Y0359283D01*
X0355033Y0360050D01*
X0356567Y0360050D01*
X0357335Y0359283D01*
X0357335Y0358515D01*
X0356567Y0357748D01*
X0355033Y0357748D01*
X0354265Y0358515D01*
X0355033Y0360050D02*
X0354265Y0360817D01*
X0354265Y0361585D01*
X0355033Y0362352D01*
X0356567Y0362352D01*
X0357335Y0361585D01*
X0357335Y0360817D01*
X0356567Y0360050D01*
X0349661Y0362352D02*
X0349661Y0357748D01*
X0385094Y0357748D02*
X0388164Y0357748D01*
X0389698Y0358515D02*
X0390466Y0357748D01*
X0392000Y0357748D01*
X0392768Y0358515D01*
X0392768Y0361585D01*
X0392000Y0362352D01*
X0390466Y0362352D01*
X0389698Y0361585D01*
X0389698Y0360817D01*
X0390466Y0360050D01*
X0392768Y0360050D01*
X0385094Y0362352D02*
X0385094Y0357748D01*
X0420528Y0357748D02*
X0423597Y0357748D01*
X0425131Y0357748D02*
X0428201Y0357748D01*
X0426666Y0357748D02*
X0426666Y0362352D01*
X0425131Y0360817D01*
X0429735Y0361585D02*
X0429735Y0358515D01*
X0432805Y0361585D01*
X0432805Y0358515D01*
X0432037Y0357748D01*
X0430503Y0357748D01*
X0429735Y0358515D01*
X0429735Y0361585D02*
X0430503Y0362352D01*
X0432037Y0362352D01*
X0432805Y0361585D01*
X0420528Y0362352D02*
X0420528Y0357748D01*
X0455961Y0357748D02*
X0459030Y0357748D01*
X0460565Y0357748D02*
X0463634Y0357748D01*
X0465168Y0357748D02*
X0468238Y0357748D01*
X0466703Y0357748D02*
X0466703Y0362352D01*
X0465168Y0360817D01*
X0462099Y0362352D02*
X0462099Y0357748D01*
X0460565Y0360817D02*
X0462099Y0362352D01*
X0455961Y0362352D02*
X0455961Y0357748D01*
X0491394Y0357748D02*
X0494463Y0357748D01*
X0495998Y0357748D02*
X0499067Y0357748D01*
X0500602Y0357748D02*
X0503671Y0360817D01*
X0503671Y0361585D01*
X0502904Y0362352D01*
X0501369Y0362352D01*
X0500602Y0361585D01*
X0497532Y0362352D02*
X0497532Y0357748D01*
X0500602Y0357748D02*
X0503671Y0357748D01*
X0497532Y0362352D02*
X0495998Y0360817D01*
X0491394Y0362352D02*
X0491394Y0357748D01*
X0491394Y0326919D02*
X0491394Y0322315D01*
X0494463Y0322315D01*
X0495998Y0322315D02*
X0499067Y0325384D01*
X0499067Y0326152D01*
X0498300Y0326919D01*
X0496765Y0326919D01*
X0495998Y0326152D01*
X0495998Y0322315D02*
X0499067Y0322315D01*
X0500602Y0324617D02*
X0503671Y0324617D01*
X0502904Y0326919D02*
X0500602Y0324617D01*
X0502904Y0322315D02*
X0502904Y0326919D01*
X0468238Y0326152D02*
X0468238Y0325384D01*
X0467470Y0324617D01*
X0468238Y0323850D01*
X0468238Y0323082D01*
X0467470Y0322315D01*
X0465936Y0322315D01*
X0465168Y0323082D01*
X0463634Y0322315D02*
X0460565Y0322315D01*
X0463634Y0325384D01*
X0463634Y0326152D01*
X0462867Y0326919D01*
X0461332Y0326919D01*
X0460565Y0326152D01*
X0459030Y0322315D02*
X0455961Y0322315D01*
X0455961Y0326919D01*
X0465168Y0326152D02*
X0465936Y0326919D01*
X0467470Y0326919D01*
X0468238Y0326152D01*
X0467470Y0324617D02*
X0466703Y0324617D01*
X0432805Y0325384D02*
X0432805Y0326152D01*
X0432037Y0326919D01*
X0430503Y0326919D01*
X0429735Y0326152D01*
X0428201Y0326152D02*
X0427433Y0326919D01*
X0425899Y0326919D01*
X0425131Y0326152D01*
X0428201Y0326152D02*
X0428201Y0325384D01*
X0425131Y0322315D01*
X0428201Y0322315D01*
X0429735Y0322315D02*
X0432805Y0325384D01*
X0432805Y0322315D02*
X0429735Y0322315D01*
X0423597Y0322315D02*
X0420528Y0322315D01*
X0420528Y0326919D01*
X0397372Y0322315D02*
X0394302Y0322315D01*
X0392768Y0322315D02*
X0389698Y0322315D01*
X0392768Y0325384D01*
X0392768Y0326152D01*
X0392000Y0326919D01*
X0390466Y0326919D01*
X0389698Y0326152D01*
X0388164Y0322315D02*
X0385094Y0322315D01*
X0385094Y0326919D01*
X0394302Y0325384D02*
X0395837Y0326919D01*
X0395837Y0322315D01*
X0361939Y0323082D02*
X0361171Y0322315D01*
X0359637Y0322315D01*
X0358869Y0323082D01*
X0361939Y0326152D01*
X0361939Y0323082D01*
X0361939Y0326152D02*
X0361171Y0326919D01*
X0359637Y0326919D01*
X0358869Y0326152D01*
X0358869Y0323082D01*
X0357335Y0322315D02*
X0354265Y0322315D01*
X0357335Y0325384D01*
X0357335Y0326152D01*
X0356567Y0326919D01*
X0355033Y0326919D01*
X0354265Y0326152D01*
X0352731Y0322315D02*
X0349661Y0322315D01*
X0349661Y0326919D01*
X0326505Y0326152D02*
X0326505Y0323082D01*
X0325738Y0322315D01*
X0324204Y0322315D01*
X0323436Y0323082D01*
X0321902Y0322315D02*
X0318832Y0322315D01*
X0317298Y0322315D02*
X0314228Y0322315D01*
X0314228Y0326919D01*
X0318832Y0325384D02*
X0320367Y0326919D01*
X0320367Y0322315D01*
X0323436Y0325384D02*
X0324204Y0324617D01*
X0326505Y0324617D01*
X0326505Y0326152D02*
X0325738Y0326919D01*
X0324204Y0326919D01*
X0323436Y0326152D01*
X0323436Y0325384D01*
X0291072Y0325384D02*
X0290305Y0324617D01*
X0288770Y0324617D01*
X0288003Y0325384D01*
X0288003Y0326152D01*
X0288770Y0326919D01*
X0290305Y0326919D01*
X0291072Y0326152D01*
X0291072Y0325384D01*
X0290305Y0324617D02*
X0291072Y0323850D01*
X0291072Y0323082D01*
X0290305Y0322315D01*
X0288770Y0322315D01*
X0288003Y0323082D01*
X0288003Y0323850D01*
X0288770Y0324617D01*
X0286468Y0322315D02*
X0283399Y0322315D01*
X0281865Y0322315D02*
X0278795Y0322315D01*
X0278795Y0326919D01*
X0283399Y0325384D02*
X0284934Y0326919D01*
X0284934Y0322315D01*
X0255639Y0326152D02*
X0252570Y0323082D01*
X0252570Y0322315D01*
X0251035Y0322315D02*
X0247966Y0322315D01*
X0246431Y0322315D02*
X0243362Y0322315D01*
X0243362Y0326919D01*
X0247966Y0325384D02*
X0249501Y0326919D01*
X0249501Y0322315D01*
X0252570Y0326919D02*
X0255639Y0326919D01*
X0255639Y0326152D01*
X0220206Y0326919D02*
X0218672Y0326152D01*
X0217137Y0324617D01*
X0219439Y0324617D01*
X0220206Y0323850D01*
X0220206Y0323082D01*
X0219439Y0322315D01*
X0217904Y0322315D01*
X0217137Y0323082D01*
X0217137Y0324617D01*
X0215602Y0322315D02*
X0212533Y0322315D01*
X0210998Y0322315D02*
X0207929Y0322315D01*
X0207929Y0326919D01*
X0212533Y0325384D02*
X0214068Y0326919D01*
X0214068Y0322315D01*
X0184773Y0323082D02*
X0184006Y0322315D01*
X0182471Y0322315D01*
X0181704Y0323082D01*
X0181704Y0324617D02*
X0183239Y0325384D01*
X0184006Y0325384D01*
X0184773Y0324617D01*
X0184773Y0323082D01*
X0181704Y0324617D02*
X0181704Y0326919D01*
X0184773Y0326919D01*
X0178635Y0326919D02*
X0178635Y0322315D01*
X0180169Y0322315D02*
X0177100Y0322315D01*
X0175565Y0322315D02*
X0172496Y0322315D01*
X0172496Y0326919D01*
X0177100Y0325384D02*
X0178635Y0326919D01*
X0149340Y0324617D02*
X0146271Y0324617D01*
X0148573Y0326919D01*
X0148573Y0322315D01*
X0144736Y0322315D02*
X0141667Y0322315D01*
X0143202Y0322315D02*
X0143202Y0326919D01*
X0141667Y0325384D01*
X0140132Y0322315D02*
X0137063Y0322315D01*
X0137063Y0326919D01*
X0113907Y0326152D02*
X0113907Y0325384D01*
X0113140Y0324617D01*
X0113907Y0323850D01*
X0113907Y0323082D01*
X0113140Y0322315D01*
X0111605Y0322315D01*
X0110838Y0323082D01*
X0109303Y0322315D02*
X0106234Y0322315D01*
X0107768Y0322315D02*
X0107768Y0326919D01*
X0106234Y0325384D01*
X0104699Y0322315D02*
X0101630Y0322315D01*
X0101630Y0326919D01*
X0110838Y0326152D02*
X0111605Y0326919D01*
X0113140Y0326919D01*
X0113907Y0326152D01*
X0113140Y0324617D02*
X0112372Y0324617D01*
X0110838Y0291486D02*
X0110838Y0289184D01*
X0112372Y0289951D01*
X0113140Y0289951D01*
X0113907Y0289184D01*
X0113907Y0287649D01*
X0113140Y0286882D01*
X0111605Y0286882D01*
X0110838Y0287649D01*
X0109303Y0286882D02*
X0106234Y0286882D01*
X0109303Y0289951D01*
X0109303Y0290718D01*
X0108536Y0291486D01*
X0107001Y0291486D01*
X0106234Y0290718D01*
X0104699Y0286882D02*
X0101630Y0286882D01*
X0101630Y0291486D01*
X0110838Y0291486D02*
X0113907Y0291486D01*
X0137063Y0291486D02*
X0137063Y0286882D01*
X0140132Y0286882D01*
X0141667Y0286882D02*
X0144736Y0289951D01*
X0144736Y0290718D01*
X0143969Y0291486D01*
X0142434Y0291486D01*
X0141667Y0290718D01*
X0141667Y0286882D02*
X0144736Y0286882D01*
X0146271Y0287649D02*
X0147038Y0286882D01*
X0148573Y0286882D01*
X0149340Y0287649D01*
X0149340Y0288417D01*
X0148573Y0289184D01*
X0146271Y0289184D01*
X0146271Y0287649D01*
X0146271Y0289184D02*
X0147805Y0290718D01*
X0149340Y0291486D01*
X0172496Y0291486D02*
X0172496Y0286882D01*
X0175565Y0286882D01*
X0177100Y0286882D02*
X0180169Y0289951D01*
X0180169Y0290718D01*
X0179402Y0291486D01*
X0177867Y0291486D01*
X0177100Y0290718D01*
X0177100Y0286882D02*
X0180169Y0286882D01*
X0181704Y0286882D02*
X0181704Y0287649D01*
X0184773Y0290718D01*
X0184773Y0291486D01*
X0181704Y0291486D01*
X0207929Y0291486D02*
X0207929Y0286882D01*
X0210998Y0286882D01*
X0212533Y0286882D02*
X0215602Y0289951D01*
X0215602Y0290718D01*
X0214835Y0291486D01*
X0213300Y0291486D01*
X0212533Y0290718D01*
X0212533Y0286882D02*
X0215602Y0286882D01*
X0217137Y0287649D02*
X0217137Y0288417D01*
X0217904Y0289184D01*
X0219439Y0289184D01*
X0220206Y0288417D01*
X0220206Y0287649D01*
X0219439Y0286882D01*
X0217904Y0286882D01*
X0217137Y0287649D01*
X0217904Y0289184D02*
X0217137Y0289951D01*
X0217137Y0290718D01*
X0217904Y0291486D01*
X0219439Y0291486D01*
X0220206Y0290718D01*
X0220206Y0289951D01*
X0219439Y0289184D01*
X0243362Y0291486D02*
X0243362Y0286882D01*
X0246431Y0286882D01*
X0247966Y0286882D02*
X0251035Y0289951D01*
X0251035Y0290718D01*
X0250268Y0291486D01*
X0248733Y0291486D01*
X0247966Y0290718D01*
X0247966Y0286882D02*
X0251035Y0286882D01*
X0252570Y0287649D02*
X0253337Y0286882D01*
X0254872Y0286882D01*
X0255639Y0287649D01*
X0255639Y0290718D01*
X0254872Y0291486D01*
X0253337Y0291486D01*
X0252570Y0290718D01*
X0252570Y0289951D01*
X0253337Y0289184D01*
X0255639Y0289184D01*
X0278795Y0291486D02*
X0278795Y0286882D01*
X0281865Y0286882D01*
X0283399Y0287649D02*
X0284167Y0286882D01*
X0285701Y0286882D01*
X0286468Y0287649D01*
X0286468Y0288417D01*
X0285701Y0289184D01*
X0284934Y0289184D01*
X0285701Y0289184D02*
X0286468Y0289951D01*
X0286468Y0290718D01*
X0285701Y0291486D01*
X0284167Y0291486D01*
X0283399Y0290718D01*
X0288003Y0290718D02*
X0288003Y0287649D01*
X0291072Y0290718D01*
X0291072Y0287649D01*
X0290305Y0286882D01*
X0288770Y0286882D01*
X0288003Y0287649D01*
X0288003Y0290718D02*
X0288770Y0291486D01*
X0290305Y0291486D01*
X0291072Y0290718D01*
X0314228Y0291486D02*
X0314228Y0286882D01*
X0317298Y0286882D01*
X0318832Y0287649D02*
X0319600Y0286882D01*
X0321134Y0286882D01*
X0321902Y0287649D01*
X0321902Y0288417D01*
X0321134Y0289184D01*
X0320367Y0289184D01*
X0321134Y0289184D02*
X0321902Y0289951D01*
X0321902Y0290718D01*
X0321134Y0291486D01*
X0319600Y0291486D01*
X0318832Y0290718D01*
X0323436Y0289951D02*
X0324971Y0291486D01*
X0324971Y0286882D01*
X0326505Y0286882D02*
X0323436Y0286882D01*
X0349661Y0286882D02*
X0352731Y0286882D01*
X0354265Y0287649D02*
X0355033Y0286882D01*
X0356567Y0286882D01*
X0357335Y0287649D01*
X0357335Y0288417D01*
X0356567Y0289184D01*
X0355800Y0289184D01*
X0356567Y0289184D02*
X0357335Y0289951D01*
X0357335Y0290718D01*
X0356567Y0291486D01*
X0355033Y0291486D01*
X0354265Y0290718D01*
X0358869Y0290718D02*
X0359637Y0291486D01*
X0361171Y0291486D01*
X0361939Y0290718D01*
X0361939Y0289951D01*
X0358869Y0286882D01*
X0361939Y0286882D01*
X0349661Y0286882D02*
X0349661Y0291486D01*
X0385094Y0291486D02*
X0385094Y0286882D01*
X0388164Y0286882D01*
X0389698Y0287649D02*
X0390466Y0286882D01*
X0392000Y0286882D01*
X0392768Y0287649D01*
X0392768Y0288417D01*
X0392000Y0289184D01*
X0391233Y0289184D01*
X0392000Y0289184D02*
X0392768Y0289951D01*
X0392768Y0290718D01*
X0392000Y0291486D01*
X0390466Y0291486D01*
X0389698Y0290718D01*
X0394302Y0290718D02*
X0395070Y0291486D01*
X0396604Y0291486D01*
X0397372Y0290718D01*
X0397372Y0289951D01*
X0396604Y0289184D01*
X0397372Y0288417D01*
X0397372Y0287649D01*
X0396604Y0286882D01*
X0395070Y0286882D01*
X0394302Y0287649D01*
X0395837Y0289184D02*
X0396604Y0289184D01*
X0420528Y0291486D02*
X0420528Y0286882D01*
X0423597Y0286882D01*
X0425131Y0287649D02*
X0425899Y0286882D01*
X0427433Y0286882D01*
X0428201Y0287649D01*
X0428201Y0288417D01*
X0427433Y0289184D01*
X0426666Y0289184D01*
X0427433Y0289184D02*
X0428201Y0289951D01*
X0428201Y0290718D01*
X0427433Y0291486D01*
X0425899Y0291486D01*
X0425131Y0290718D01*
X0429735Y0289184D02*
X0432805Y0289184D01*
X0432037Y0286882D02*
X0432037Y0291486D01*
X0429735Y0289184D01*
X0455961Y0291486D02*
X0455961Y0286882D01*
X0459030Y0286882D01*
X0460565Y0287649D02*
X0461332Y0286882D01*
X0462867Y0286882D01*
X0463634Y0287649D01*
X0463634Y0288417D01*
X0462867Y0289184D01*
X0462099Y0289184D01*
X0462867Y0289184D02*
X0463634Y0289951D01*
X0463634Y0290718D01*
X0462867Y0291486D01*
X0461332Y0291486D01*
X0460565Y0290718D01*
X0465168Y0291486D02*
X0465168Y0289184D01*
X0466703Y0289951D01*
X0467470Y0289951D01*
X0468238Y0289184D01*
X0468238Y0287649D01*
X0467470Y0286882D01*
X0465936Y0286882D01*
X0465168Y0287649D01*
X0465168Y0291486D02*
X0468238Y0291486D01*
X0491394Y0291486D02*
X0491394Y0286882D01*
X0494463Y0286882D01*
X0495998Y0287649D02*
X0496765Y0286882D01*
X0498300Y0286882D01*
X0499067Y0287649D01*
X0499067Y0288417D01*
X0498300Y0289184D01*
X0497532Y0289184D01*
X0498300Y0289184D02*
X0499067Y0289951D01*
X0499067Y0290718D01*
X0498300Y0291486D01*
X0496765Y0291486D01*
X0495998Y0290718D01*
X0500602Y0289184D02*
X0500602Y0287649D01*
X0501369Y0286882D01*
X0502904Y0286882D01*
X0503671Y0287649D01*
X0503671Y0288417D01*
X0502904Y0289184D01*
X0500602Y0289184D01*
X0502136Y0290718D01*
X0503671Y0291486D01*
X0502904Y0256053D02*
X0503671Y0255285D01*
X0503671Y0254518D01*
X0502904Y0253751D01*
X0501369Y0253751D01*
X0500602Y0254518D01*
X0500602Y0255285D01*
X0501369Y0256053D01*
X0502904Y0256053D01*
X0502904Y0253751D02*
X0503671Y0252983D01*
X0503671Y0252216D01*
X0502904Y0251449D01*
X0501369Y0251449D01*
X0500602Y0252216D01*
X0500602Y0252983D01*
X0501369Y0253751D01*
X0499067Y0253751D02*
X0495998Y0253751D01*
X0498300Y0256053D01*
X0498300Y0251449D01*
X0494463Y0251449D02*
X0491394Y0251449D01*
X0491394Y0256053D01*
X0468238Y0256053D02*
X0468238Y0255285D01*
X0465168Y0252216D01*
X0465168Y0251449D01*
X0462867Y0251449D02*
X0462867Y0256053D01*
X0460565Y0253751D01*
X0463634Y0253751D01*
X0465168Y0256053D02*
X0468238Y0256053D01*
X0459030Y0251449D02*
X0455961Y0251449D01*
X0455961Y0256053D01*
X0432805Y0256053D02*
X0431270Y0255285D01*
X0429735Y0253751D01*
X0432037Y0253751D01*
X0432805Y0252983D01*
X0432805Y0252216D01*
X0432037Y0251449D01*
X0430503Y0251449D01*
X0429735Y0252216D01*
X0429735Y0253751D01*
X0428201Y0253751D02*
X0425131Y0253751D01*
X0427433Y0256053D01*
X0427433Y0251449D01*
X0423597Y0251449D02*
X0420528Y0251449D01*
X0420528Y0256053D01*
X0397372Y0256053D02*
X0394302Y0256053D01*
X0394302Y0253751D01*
X0395837Y0254518D01*
X0396604Y0254518D01*
X0397372Y0253751D01*
X0397372Y0252216D01*
X0396604Y0251449D01*
X0395070Y0251449D01*
X0394302Y0252216D01*
X0392768Y0253751D02*
X0389698Y0253751D01*
X0392000Y0256053D01*
X0392000Y0251449D01*
X0388164Y0251449D02*
X0385094Y0251449D01*
X0385094Y0256053D01*
X0361939Y0253751D02*
X0358869Y0253751D01*
X0361171Y0256053D01*
X0361171Y0251449D01*
X0357335Y0253751D02*
X0354265Y0253751D01*
X0356567Y0256053D01*
X0356567Y0251449D01*
X0352731Y0251449D02*
X0349661Y0251449D01*
X0349661Y0256053D01*
X0326505Y0255285D02*
X0326505Y0254518D01*
X0325738Y0253751D01*
X0326505Y0252983D01*
X0326505Y0252216D01*
X0325738Y0251449D01*
X0324204Y0251449D01*
X0323436Y0252216D01*
X0321902Y0253751D02*
X0318832Y0253751D01*
X0321134Y0256053D01*
X0321134Y0251449D01*
X0317298Y0251449D02*
X0314228Y0251449D01*
X0314228Y0256053D01*
X0323436Y0255285D02*
X0324204Y0256053D01*
X0325738Y0256053D01*
X0326505Y0255285D01*
X0325738Y0253751D02*
X0324971Y0253751D01*
X0291072Y0254518D02*
X0288003Y0251449D01*
X0291072Y0251449D01*
X0291072Y0254518D02*
X0291072Y0255285D01*
X0290305Y0256053D01*
X0288770Y0256053D01*
X0288003Y0255285D01*
X0286468Y0253751D02*
X0283399Y0253751D01*
X0285701Y0256053D01*
X0285701Y0251449D01*
X0281865Y0251449D02*
X0278795Y0251449D01*
X0278795Y0256053D01*
X0255639Y0251449D02*
X0252570Y0251449D01*
X0254105Y0251449D02*
X0254105Y0256053D01*
X0252570Y0254518D01*
X0251035Y0253751D02*
X0247966Y0253751D01*
X0250268Y0256053D01*
X0250268Y0251449D01*
X0246431Y0251449D02*
X0243362Y0251449D01*
X0243362Y0256053D01*
X0220206Y0255285D02*
X0220206Y0252216D01*
X0219439Y0251449D01*
X0217904Y0251449D01*
X0217137Y0252216D01*
X0220206Y0255285D01*
X0219439Y0256053D01*
X0217904Y0256053D01*
X0217137Y0255285D01*
X0217137Y0252216D01*
X0215602Y0253751D02*
X0212533Y0253751D01*
X0214835Y0256053D01*
X0214835Y0251449D01*
X0210998Y0251449D02*
X0207929Y0251449D01*
X0207929Y0256053D01*
X0184773Y0255285D02*
X0184773Y0252216D01*
X0184006Y0251449D01*
X0182471Y0251449D01*
X0181704Y0252216D01*
X0180169Y0252216D02*
X0179402Y0251449D01*
X0177867Y0251449D01*
X0177100Y0252216D01*
X0175565Y0251449D02*
X0172496Y0251449D01*
X0172496Y0256053D01*
X0177100Y0255285D02*
X0177867Y0256053D01*
X0179402Y0256053D01*
X0180169Y0255285D01*
X0180169Y0254518D01*
X0179402Y0253751D01*
X0180169Y0252983D01*
X0180169Y0252216D01*
X0179402Y0253751D02*
X0178635Y0253751D01*
X0181704Y0254518D02*
X0182471Y0253751D01*
X0184773Y0253751D01*
X0184773Y0255285D02*
X0184006Y0256053D01*
X0182471Y0256053D01*
X0181704Y0255285D01*
X0181704Y0254518D01*
X0149340Y0254518D02*
X0148573Y0253751D01*
X0147038Y0253751D01*
X0146271Y0254518D01*
X0146271Y0255285D01*
X0147038Y0256053D01*
X0148573Y0256053D01*
X0149340Y0255285D01*
X0149340Y0254518D01*
X0148573Y0253751D02*
X0149340Y0252983D01*
X0149340Y0252216D01*
X0148573Y0251449D01*
X0147038Y0251449D01*
X0146271Y0252216D01*
X0146271Y0252983D01*
X0147038Y0253751D01*
X0144736Y0254518D02*
X0143969Y0253751D01*
X0144736Y0252983D01*
X0144736Y0252216D01*
X0143969Y0251449D01*
X0142434Y0251449D01*
X0141667Y0252216D01*
X0140132Y0251449D02*
X0137063Y0251449D01*
X0137063Y0256053D01*
X0141667Y0255285D02*
X0142434Y0256053D01*
X0143969Y0256053D01*
X0144736Y0255285D01*
X0144736Y0254518D01*
X0143969Y0253751D02*
X0143202Y0253751D01*
X0113907Y0255285D02*
X0110838Y0252216D01*
X0110838Y0251449D01*
X0109303Y0252216D02*
X0108536Y0251449D01*
X0107001Y0251449D01*
X0106234Y0252216D01*
X0104699Y0251449D02*
X0101630Y0251449D01*
X0101630Y0256053D01*
X0106234Y0255285D02*
X0107001Y0256053D01*
X0108536Y0256053D01*
X0109303Y0255285D01*
X0109303Y0254518D01*
X0108536Y0253751D01*
X0109303Y0252983D01*
X0109303Y0252216D01*
X0108536Y0253751D02*
X0107768Y0253751D01*
X0110838Y0256053D02*
X0113907Y0256053D01*
X0113907Y0255285D01*
X0113140Y0220620D02*
X0111605Y0220620D01*
X0110838Y0219852D01*
X0110838Y0219085D01*
X0111605Y0218318D01*
X0113907Y0218318D01*
X0113907Y0219852D02*
X0113140Y0220620D01*
X0113907Y0219852D02*
X0113907Y0216783D01*
X0113140Y0216016D01*
X0111605Y0216016D01*
X0110838Y0216783D01*
X0109303Y0218318D02*
X0106234Y0218318D01*
X0108536Y0220620D01*
X0108536Y0216016D01*
X0104699Y0216016D02*
X0101630Y0216016D01*
X0101630Y0220620D01*
X0137063Y0220620D02*
X0137063Y0216016D01*
X0140132Y0216016D01*
X0141667Y0216783D02*
X0142434Y0216016D01*
X0143969Y0216016D01*
X0144736Y0216783D01*
X0144736Y0218318D01*
X0143969Y0219085D01*
X0143202Y0219085D01*
X0141667Y0218318D01*
X0141667Y0220620D01*
X0144736Y0220620D01*
X0146271Y0219852D02*
X0147038Y0220620D01*
X0148573Y0220620D01*
X0149340Y0219852D01*
X0146271Y0216783D01*
X0147038Y0216016D01*
X0148573Y0216016D01*
X0149340Y0216783D01*
X0149340Y0219852D01*
X0146271Y0219852D02*
X0146271Y0216783D01*
X0172496Y0216016D02*
X0175565Y0216016D01*
X0177100Y0216783D02*
X0177867Y0216016D01*
X0179402Y0216016D01*
X0180169Y0216783D01*
X0180169Y0218318D01*
X0179402Y0219085D01*
X0178635Y0219085D01*
X0177100Y0218318D01*
X0177100Y0220620D01*
X0180169Y0220620D01*
X0181704Y0219085D02*
X0183239Y0220620D01*
X0183239Y0216016D01*
X0184773Y0216016D02*
X0181704Y0216016D01*
X0172496Y0216016D02*
X0172496Y0220620D01*
X0207929Y0220620D02*
X0207929Y0216016D01*
X0210998Y0216016D01*
X0212533Y0216783D02*
X0213300Y0216016D01*
X0214835Y0216016D01*
X0215602Y0216783D01*
X0215602Y0218318D01*
X0214835Y0219085D01*
X0214068Y0219085D01*
X0212533Y0218318D01*
X0212533Y0220620D01*
X0215602Y0220620D01*
X0217137Y0219852D02*
X0217904Y0220620D01*
X0219439Y0220620D01*
X0220206Y0219852D01*
X0220206Y0219085D01*
X0217137Y0216016D01*
X0220206Y0216016D01*
X0243362Y0216016D02*
X0246431Y0216016D01*
X0247966Y0216783D02*
X0248733Y0216016D01*
X0250268Y0216016D01*
X0251035Y0216783D01*
X0251035Y0218318D01*
X0250268Y0219085D01*
X0249501Y0219085D01*
X0247966Y0218318D01*
X0247966Y0220620D01*
X0251035Y0220620D01*
X0252570Y0219852D02*
X0253337Y0220620D01*
X0254872Y0220620D01*
X0255639Y0219852D01*
X0255639Y0219085D01*
X0254872Y0218318D01*
X0255639Y0217550D01*
X0255639Y0216783D01*
X0254872Y0216016D01*
X0253337Y0216016D01*
X0252570Y0216783D01*
X0254105Y0218318D02*
X0254872Y0218318D01*
X0243362Y0220620D02*
X0243362Y0216016D01*
X0278795Y0216016D02*
X0281865Y0216016D01*
X0283399Y0216783D02*
X0284167Y0216016D01*
X0285701Y0216016D01*
X0286468Y0216783D01*
X0286468Y0218318D01*
X0285701Y0219085D01*
X0284934Y0219085D01*
X0283399Y0218318D01*
X0283399Y0220620D01*
X0286468Y0220620D01*
X0288003Y0218318D02*
X0291072Y0218318D01*
X0290305Y0220620D02*
X0288003Y0218318D01*
X0290305Y0216016D02*
X0290305Y0220620D01*
X0278795Y0220620D02*
X0278795Y0216016D01*
X0314228Y0216016D02*
X0317298Y0216016D01*
X0318832Y0216783D02*
X0319600Y0216016D01*
X0321134Y0216016D01*
X0321902Y0216783D01*
X0321902Y0218318D01*
X0321134Y0219085D01*
X0320367Y0219085D01*
X0318832Y0218318D01*
X0318832Y0220620D01*
X0321902Y0220620D01*
X0323436Y0220620D02*
X0323436Y0218318D01*
X0324971Y0219085D01*
X0325738Y0219085D01*
X0326505Y0218318D01*
X0326505Y0216783D01*
X0325738Y0216016D01*
X0324204Y0216016D01*
X0323436Y0216783D01*
X0323436Y0220620D02*
X0326505Y0220620D01*
X0314228Y0220620D02*
X0314228Y0216016D01*
X0349661Y0216016D02*
X0352731Y0216016D01*
X0354265Y0216783D02*
X0355033Y0216016D01*
X0356567Y0216016D01*
X0357335Y0216783D01*
X0357335Y0218318D01*
X0356567Y0219085D01*
X0355800Y0219085D01*
X0354265Y0218318D01*
X0354265Y0220620D01*
X0357335Y0220620D01*
X0358869Y0218318D02*
X0361171Y0218318D01*
X0361939Y0217550D01*
X0361939Y0216783D01*
X0361171Y0216016D01*
X0359637Y0216016D01*
X0358869Y0216783D01*
X0358869Y0218318D01*
X0360404Y0219852D01*
X0361939Y0220620D01*
X0349661Y0220620D02*
X0349661Y0216016D01*
X0385094Y0216016D02*
X0388164Y0216016D01*
X0389698Y0216783D02*
X0390466Y0216016D01*
X0392000Y0216016D01*
X0392768Y0216783D01*
X0392768Y0218318D01*
X0392000Y0219085D01*
X0391233Y0219085D01*
X0389698Y0218318D01*
X0389698Y0220620D01*
X0392768Y0220620D01*
X0394302Y0220620D02*
X0397372Y0220620D01*
X0397372Y0219852D01*
X0394302Y0216783D01*
X0394302Y0216016D01*
X0385094Y0216016D02*
X0385094Y0220620D01*
X0420528Y0220620D02*
X0420528Y0216016D01*
X0423597Y0216016D01*
X0425131Y0216783D02*
X0425899Y0216016D01*
X0427433Y0216016D01*
X0428201Y0216783D01*
X0428201Y0218318D01*
X0427433Y0219085D01*
X0426666Y0219085D01*
X0425131Y0218318D01*
X0425131Y0220620D01*
X0428201Y0220620D01*
X0429735Y0219852D02*
X0429735Y0219085D01*
X0430503Y0218318D01*
X0432037Y0218318D01*
X0432805Y0217550D01*
X0432805Y0216783D01*
X0432037Y0216016D01*
X0430503Y0216016D01*
X0429735Y0216783D01*
X0429735Y0217550D01*
X0430503Y0218318D01*
X0432037Y0218318D02*
X0432805Y0219085D01*
X0432805Y0219852D01*
X0432037Y0220620D01*
X0430503Y0220620D01*
X0429735Y0219852D01*
X0455961Y0220620D02*
X0455961Y0216016D01*
X0459030Y0216016D01*
X0460565Y0216783D02*
X0461332Y0216016D01*
X0462867Y0216016D01*
X0463634Y0216783D01*
X0463634Y0218318D01*
X0462867Y0219085D01*
X0462099Y0219085D01*
X0460565Y0218318D01*
X0460565Y0220620D01*
X0463634Y0220620D01*
X0465168Y0219852D02*
X0465168Y0219085D01*
X0465936Y0218318D01*
X0468238Y0218318D01*
X0468238Y0219852D02*
X0467470Y0220620D01*
X0465936Y0220620D01*
X0465168Y0219852D01*
X0465168Y0216783D02*
X0465936Y0216016D01*
X0467470Y0216016D01*
X0468238Y0216783D01*
X0468238Y0219852D01*
X0491394Y0220620D02*
X0491394Y0216016D01*
X0494463Y0216016D01*
X0495998Y0216783D02*
X0496765Y0216016D01*
X0498300Y0216016D01*
X0499067Y0216783D01*
X0499067Y0217550D01*
X0498300Y0218318D01*
X0495998Y0218318D01*
X0495998Y0216783D01*
X0495998Y0218318D02*
X0497532Y0219852D01*
X0499067Y0220620D01*
X0500602Y0219852D02*
X0501369Y0220620D01*
X0502904Y0220620D01*
X0503671Y0219852D01*
X0500602Y0216783D01*
X0501369Y0216016D01*
X0502904Y0216016D01*
X0503671Y0216783D01*
X0503671Y0219852D01*
X0500602Y0219852D02*
X0500602Y0216783D01*
X0501369Y0185187D02*
X0500602Y0184419D01*
X0501369Y0185187D02*
X0502904Y0185187D01*
X0503671Y0184419D01*
X0503671Y0183652D01*
X0500602Y0180583D01*
X0503671Y0180583D01*
X0499067Y0184419D02*
X0495998Y0181350D01*
X0495998Y0180583D01*
X0494463Y0180583D02*
X0491394Y0180583D01*
X0491394Y0185187D01*
X0495998Y0185187D02*
X0499067Y0185187D01*
X0499067Y0184419D01*
X0468238Y0180583D02*
X0465168Y0180583D01*
X0466703Y0180583D02*
X0466703Y0185187D01*
X0465168Y0183652D01*
X0463634Y0184419D02*
X0460565Y0181350D01*
X0460565Y0180583D01*
X0459030Y0180583D02*
X0455961Y0180583D01*
X0455961Y0185187D01*
X0460565Y0185187D02*
X0463634Y0185187D01*
X0463634Y0184419D01*
X0432805Y0184419D02*
X0432805Y0181350D01*
X0432037Y0180583D01*
X0430503Y0180583D01*
X0429735Y0181350D01*
X0432805Y0184419D01*
X0432037Y0185187D01*
X0430503Y0185187D01*
X0429735Y0184419D01*
X0429735Y0181350D01*
X0428201Y0184419D02*
X0425131Y0181350D01*
X0425131Y0180583D01*
X0423597Y0180583D02*
X0420528Y0180583D01*
X0420528Y0185187D01*
X0425131Y0185187D02*
X0428201Y0185187D01*
X0428201Y0184419D01*
X0397372Y0184419D02*
X0397372Y0181350D01*
X0396604Y0180583D01*
X0395070Y0180583D01*
X0394302Y0181350D01*
X0392768Y0181350D02*
X0392768Y0182117D01*
X0392000Y0182885D01*
X0389698Y0182885D01*
X0389698Y0181350D01*
X0390466Y0180583D01*
X0392000Y0180583D01*
X0392768Y0181350D01*
X0395070Y0182885D02*
X0397372Y0182885D01*
X0397372Y0184419D02*
X0396604Y0185187D01*
X0395070Y0185187D01*
X0394302Y0184419D01*
X0394302Y0183652D01*
X0395070Y0182885D01*
X0392768Y0185187D02*
X0391233Y0184419D01*
X0389698Y0182885D01*
X0388164Y0180583D02*
X0385094Y0180583D01*
X0385094Y0185187D01*
X0361939Y0184419D02*
X0361939Y0183652D01*
X0361171Y0182885D01*
X0359637Y0182885D01*
X0358869Y0183652D01*
X0358869Y0184419D01*
X0359637Y0185187D01*
X0361171Y0185187D01*
X0361939Y0184419D01*
X0361171Y0182885D02*
X0361939Y0182117D01*
X0361939Y0181350D01*
X0361171Y0180583D01*
X0359637Y0180583D01*
X0358869Y0181350D01*
X0358869Y0182117D01*
X0359637Y0182885D01*
X0357335Y0182117D02*
X0357335Y0181350D01*
X0356567Y0180583D01*
X0355033Y0180583D01*
X0354265Y0181350D01*
X0354265Y0182885D01*
X0356567Y0182885D01*
X0357335Y0182117D01*
X0355800Y0184419D02*
X0354265Y0182885D01*
X0355800Y0184419D02*
X0357335Y0185187D01*
X0352731Y0180583D02*
X0349661Y0180583D01*
X0349661Y0185187D01*
X0326505Y0185187D02*
X0326505Y0184419D01*
X0323436Y0181350D01*
X0323436Y0180583D01*
X0321902Y0181350D02*
X0321902Y0182117D01*
X0321134Y0182885D01*
X0318832Y0182885D01*
X0318832Y0181350D01*
X0319600Y0180583D01*
X0321134Y0180583D01*
X0321902Y0181350D01*
X0320367Y0184419D02*
X0318832Y0182885D01*
X0320367Y0184419D02*
X0321902Y0185187D01*
X0323436Y0185187D02*
X0326505Y0185187D01*
X0317298Y0180583D02*
X0314228Y0180583D01*
X0314228Y0185187D01*
X0291072Y0185187D02*
X0289538Y0184419D01*
X0288003Y0182885D01*
X0290305Y0182885D01*
X0291072Y0182117D01*
X0291072Y0181350D01*
X0290305Y0180583D01*
X0288770Y0180583D01*
X0288003Y0181350D01*
X0288003Y0182885D01*
X0286468Y0182117D02*
X0285701Y0182885D01*
X0283399Y0182885D01*
X0283399Y0181350D01*
X0284167Y0180583D01*
X0285701Y0180583D01*
X0286468Y0181350D01*
X0286468Y0182117D01*
X0284934Y0184419D02*
X0286468Y0185187D01*
X0284934Y0184419D02*
X0283399Y0182885D01*
X0281865Y0180583D02*
X0278795Y0180583D01*
X0278795Y0185187D01*
X0255639Y0185187D02*
X0252570Y0185187D01*
X0252570Y0182885D01*
X0254105Y0183652D01*
X0254872Y0183652D01*
X0255639Y0182885D01*
X0255639Y0181350D01*
X0254872Y0180583D01*
X0253337Y0180583D01*
X0252570Y0181350D01*
X0251035Y0181350D02*
X0251035Y0182117D01*
X0250268Y0182885D01*
X0247966Y0182885D01*
X0247966Y0181350D01*
X0248733Y0180583D01*
X0250268Y0180583D01*
X0251035Y0181350D01*
X0249501Y0184419D02*
X0247966Y0182885D01*
X0249501Y0184419D02*
X0251035Y0185187D01*
X0246431Y0180583D02*
X0243362Y0180583D01*
X0243362Y0185187D01*
X0220206Y0182885D02*
X0217137Y0182885D01*
X0219439Y0185187D01*
X0219439Y0180583D01*
X0215602Y0181350D02*
X0215602Y0182117D01*
X0214835Y0182885D01*
X0212533Y0182885D01*
X0212533Y0181350D01*
X0213300Y0180583D01*
X0214835Y0180583D01*
X0215602Y0181350D01*
X0214068Y0184419D02*
X0212533Y0182885D01*
X0214068Y0184419D02*
X0215602Y0185187D01*
X0210998Y0180583D02*
X0207929Y0180583D01*
X0207929Y0185187D01*
X0184773Y0184419D02*
X0184773Y0183652D01*
X0184006Y0182885D01*
X0184773Y0182117D01*
X0184773Y0181350D01*
X0184006Y0180583D01*
X0182471Y0180583D01*
X0181704Y0181350D01*
X0180169Y0181350D02*
X0180169Y0182117D01*
X0179402Y0182885D01*
X0177100Y0182885D01*
X0177100Y0181350D01*
X0177867Y0180583D01*
X0179402Y0180583D01*
X0180169Y0181350D01*
X0178635Y0184419D02*
X0177100Y0182885D01*
X0178635Y0184419D02*
X0180169Y0185187D01*
X0181704Y0184419D02*
X0182471Y0185187D01*
X0184006Y0185187D01*
X0184773Y0184419D01*
X0184006Y0182885D02*
X0183239Y0182885D01*
X0175565Y0180583D02*
X0172496Y0180583D01*
X0172496Y0185187D01*
X0149340Y0184419D02*
X0148573Y0185187D01*
X0147038Y0185187D01*
X0146271Y0184419D01*
X0144736Y0185187D02*
X0143202Y0184419D01*
X0141667Y0182885D01*
X0143969Y0182885D01*
X0144736Y0182117D01*
X0144736Y0181350D01*
X0143969Y0180583D01*
X0142434Y0180583D01*
X0141667Y0181350D01*
X0141667Y0182885D01*
X0140132Y0180583D02*
X0137063Y0180583D01*
X0137063Y0185187D01*
X0146271Y0180583D02*
X0149340Y0183652D01*
X0149340Y0184419D01*
X0149340Y0180583D02*
X0146271Y0180583D01*
X0113907Y0180583D02*
X0110838Y0180583D01*
X0112372Y0180583D02*
X0112372Y0185187D01*
X0110838Y0183652D01*
X0109303Y0185187D02*
X0107768Y0184419D01*
X0106234Y0182885D01*
X0108536Y0182885D01*
X0109303Y0182117D01*
X0109303Y0181350D01*
X0108536Y0180583D01*
X0107001Y0180583D01*
X0106234Y0181350D01*
X0106234Y0182885D01*
X0104699Y0180583D02*
X0101630Y0180583D01*
X0101630Y0185187D01*
X0101630Y0149754D02*
X0101630Y0145150D01*
X0104699Y0145150D01*
X0106234Y0145150D02*
X0106234Y0145917D01*
X0109303Y0148986D01*
X0109303Y0149754D01*
X0106234Y0149754D01*
X0110838Y0148986D02*
X0111605Y0149754D01*
X0113140Y0149754D01*
X0113907Y0148986D01*
X0113907Y0148219D01*
X0113140Y0147452D01*
X0113907Y0146684D01*
X0113907Y0145917D01*
X0113140Y0145150D01*
X0111605Y0145150D01*
X0110838Y0145917D01*
X0112372Y0147452D02*
X0113140Y0147452D01*
X0137063Y0149754D02*
X0137063Y0145150D01*
X0140132Y0145150D01*
X0141667Y0145150D02*
X0141667Y0145917D01*
X0144736Y0148986D01*
X0144736Y0149754D01*
X0141667Y0149754D01*
X0146271Y0147452D02*
X0149340Y0147452D01*
X0148573Y0149754D02*
X0146271Y0147452D01*
X0148573Y0145150D02*
X0148573Y0149754D01*
X0172496Y0149754D02*
X0172496Y0145150D01*
X0175565Y0145150D01*
X0177100Y0145150D02*
X0177100Y0145917D01*
X0180169Y0148986D01*
X0180169Y0149754D01*
X0177100Y0149754D01*
X0181704Y0149754D02*
X0181704Y0147452D01*
X0183239Y0148219D01*
X0184006Y0148219D01*
X0184773Y0147452D01*
X0184773Y0145917D01*
X0184006Y0145150D01*
X0182471Y0145150D01*
X0181704Y0145917D01*
X0181704Y0149754D02*
X0184773Y0149754D01*
X0207929Y0149754D02*
X0207929Y0145150D01*
X0210998Y0145150D01*
X0212533Y0145150D02*
X0212533Y0145917D01*
X0215602Y0148986D01*
X0215602Y0149754D01*
X0212533Y0149754D01*
X0217137Y0147452D02*
X0217137Y0145917D01*
X0217904Y0145150D01*
X0219439Y0145150D01*
X0220206Y0145917D01*
X0220206Y0146684D01*
X0219439Y0147452D01*
X0217137Y0147452D01*
X0218672Y0148986D01*
X0220206Y0149754D01*
X0243362Y0149754D02*
X0243362Y0145150D01*
X0246431Y0145150D01*
X0247966Y0145150D02*
X0247966Y0145917D01*
X0251035Y0148986D01*
X0251035Y0149754D01*
X0247966Y0149754D01*
X0252570Y0149754D02*
X0255639Y0149754D01*
X0255639Y0148986D01*
X0252570Y0145917D01*
X0252570Y0145150D01*
X0278795Y0145150D02*
X0281865Y0145150D01*
X0283399Y0145150D02*
X0283399Y0145917D01*
X0286468Y0148986D01*
X0286468Y0149754D01*
X0283399Y0149754D01*
X0278795Y0149754D02*
X0278795Y0145150D01*
X0288003Y0145917D02*
X0288003Y0146684D01*
X0288770Y0147452D01*
X0290305Y0147452D01*
X0291072Y0146684D01*
X0291072Y0145917D01*
X0290305Y0145150D01*
X0288770Y0145150D01*
X0288003Y0145917D01*
X0288770Y0147452D02*
X0288003Y0148219D01*
X0288003Y0148986D01*
X0288770Y0149754D01*
X0290305Y0149754D01*
X0291072Y0148986D01*
X0291072Y0148219D01*
X0290305Y0147452D01*
X0314228Y0149754D02*
X0314228Y0145150D01*
X0317298Y0145150D01*
X0318832Y0145150D02*
X0318832Y0145917D01*
X0321902Y0148986D01*
X0321902Y0149754D01*
X0318832Y0149754D01*
X0323436Y0148986D02*
X0323436Y0148219D01*
X0324204Y0147452D01*
X0326505Y0147452D01*
X0326505Y0148986D02*
X0325738Y0149754D01*
X0324204Y0149754D01*
X0323436Y0148986D01*
X0323436Y0145917D02*
X0324204Y0145150D01*
X0325738Y0145150D01*
X0326505Y0145917D01*
X0326505Y0148986D01*
X0349661Y0149754D02*
X0349661Y0145150D01*
X0352731Y0145150D01*
X0354265Y0145917D02*
X0354265Y0146684D01*
X0355033Y0147452D01*
X0356567Y0147452D01*
X0357335Y0146684D01*
X0357335Y0145917D01*
X0356567Y0145150D01*
X0355033Y0145150D01*
X0354265Y0145917D01*
X0355033Y0147452D02*
X0354265Y0148219D01*
X0354265Y0148986D01*
X0355033Y0149754D01*
X0356567Y0149754D01*
X0357335Y0148986D01*
X0357335Y0148219D01*
X0356567Y0147452D01*
X0358869Y0148986D02*
X0359637Y0149754D01*
X0361171Y0149754D01*
X0361939Y0148986D01*
X0358869Y0145917D01*
X0359637Y0145150D01*
X0361171Y0145150D01*
X0361939Y0145917D01*
X0361939Y0148986D01*
X0358869Y0148986D02*
X0358869Y0145917D01*
X0385094Y0145150D02*
X0388164Y0145150D01*
X0389698Y0145917D02*
X0389698Y0146684D01*
X0390466Y0147452D01*
X0392000Y0147452D01*
X0392768Y0146684D01*
X0392768Y0145917D01*
X0392000Y0145150D01*
X0390466Y0145150D01*
X0389698Y0145917D01*
X0390466Y0147452D02*
X0389698Y0148219D01*
X0389698Y0148986D01*
X0390466Y0149754D01*
X0392000Y0149754D01*
X0392768Y0148986D01*
X0392768Y0148219D01*
X0392000Y0147452D01*
X0394302Y0148219D02*
X0395837Y0149754D01*
X0395837Y0145150D01*
X0394302Y0145150D02*
X0397372Y0145150D01*
X0385094Y0145150D02*
X0385094Y0149754D01*
X0420528Y0149754D02*
X0420528Y0145150D01*
X0423597Y0145150D01*
X0425131Y0145917D02*
X0425131Y0146684D01*
X0425899Y0147452D01*
X0427433Y0147452D01*
X0428201Y0146684D01*
X0428201Y0145917D01*
X0427433Y0145150D01*
X0425899Y0145150D01*
X0425131Y0145917D01*
X0425899Y0147452D02*
X0425131Y0148219D01*
X0425131Y0148986D01*
X0425899Y0149754D01*
X0427433Y0149754D01*
X0428201Y0148986D01*
X0428201Y0148219D01*
X0427433Y0147452D01*
X0429735Y0148986D02*
X0430503Y0149754D01*
X0432037Y0149754D01*
X0432805Y0148986D01*
X0432805Y0148219D01*
X0429735Y0145150D01*
X0432805Y0145150D01*
X0455961Y0145150D02*
X0459030Y0145150D01*
X0460565Y0145917D02*
X0460565Y0146684D01*
X0461332Y0147452D01*
X0462867Y0147452D01*
X0463634Y0146684D01*
X0463634Y0145917D01*
X0462867Y0145150D01*
X0461332Y0145150D01*
X0460565Y0145917D01*
X0461332Y0147452D02*
X0460565Y0148219D01*
X0460565Y0148986D01*
X0461332Y0149754D01*
X0462867Y0149754D01*
X0463634Y0148986D01*
X0463634Y0148219D01*
X0462867Y0147452D01*
X0465168Y0148986D02*
X0465936Y0149754D01*
X0467470Y0149754D01*
X0468238Y0148986D01*
X0468238Y0148219D01*
X0467470Y0147452D01*
X0468238Y0146684D01*
X0468238Y0145917D01*
X0467470Y0145150D01*
X0465936Y0145150D01*
X0465168Y0145917D01*
X0466703Y0147452D02*
X0467470Y0147452D01*
X0455961Y0149754D02*
X0455961Y0145150D01*
X0491394Y0145150D02*
X0494463Y0145150D01*
X0495998Y0145917D02*
X0495998Y0146684D01*
X0496765Y0147452D01*
X0498300Y0147452D01*
X0499067Y0146684D01*
X0499067Y0145917D01*
X0498300Y0145150D01*
X0496765Y0145150D01*
X0495998Y0145917D01*
X0496765Y0147452D02*
X0495998Y0148219D01*
X0495998Y0148986D01*
X0496765Y0149754D01*
X0498300Y0149754D01*
X0499067Y0148986D01*
X0499067Y0148219D01*
X0498300Y0147452D01*
X0500602Y0147452D02*
X0503671Y0147452D01*
X0502904Y0149754D02*
X0500602Y0147452D01*
X0502904Y0145150D02*
X0502904Y0149754D01*
X0491394Y0149754D02*
X0491394Y0145150D01*
X0489827Y0114647D02*
X0489827Y0110043D01*
X0492896Y0110043D01*
X0494431Y0110811D02*
X0495198Y0110043D01*
X0496733Y0110043D01*
X0497500Y0110811D01*
X0497500Y0113880D01*
X0496733Y0114647D01*
X0495198Y0114647D01*
X0494431Y0113880D01*
X0494431Y0113113D01*
X0495198Y0112345D01*
X0497500Y0112345D01*
X0499035Y0112345D02*
X0501337Y0112345D01*
X0502104Y0111578D01*
X0502104Y0110811D01*
X0501337Y0110043D01*
X0499802Y0110043D01*
X0499035Y0110811D01*
X0499035Y0112345D01*
X0500569Y0113880D01*
X0502104Y0114647D01*
X0468238Y0114320D02*
X0465168Y0114320D01*
X0465168Y0112018D01*
X0466703Y0112786D01*
X0467470Y0112786D01*
X0468238Y0112018D01*
X0468238Y0110484D01*
X0467470Y0109717D01*
X0465936Y0109717D01*
X0465168Y0110484D01*
X0463634Y0110484D02*
X0463634Y0113553D01*
X0462867Y0114320D01*
X0461332Y0114320D01*
X0460565Y0113553D01*
X0460565Y0112786D01*
X0461332Y0112018D01*
X0463634Y0112018D01*
X0463634Y0110484D02*
X0462867Y0109717D01*
X0461332Y0109717D01*
X0460565Y0110484D01*
X0459030Y0109717D02*
X0455961Y0109717D01*
X0455961Y0114320D01*
X0432805Y0112018D02*
X0429735Y0112018D01*
X0432037Y0114320D01*
X0432037Y0109717D01*
X0428201Y0110484D02*
X0428201Y0113553D01*
X0427433Y0114320D01*
X0425899Y0114320D01*
X0425131Y0113553D01*
X0425131Y0112786D01*
X0425899Y0112018D01*
X0428201Y0112018D01*
X0428201Y0110484D02*
X0427433Y0109717D01*
X0425899Y0109717D01*
X0425131Y0110484D01*
X0423597Y0109717D02*
X0420528Y0109717D01*
X0420528Y0114320D01*
X0397372Y0113553D02*
X0397372Y0112786D01*
X0396604Y0112018D01*
X0397372Y0111251D01*
X0397372Y0110484D01*
X0396604Y0109717D01*
X0395070Y0109717D01*
X0394302Y0110484D01*
X0392768Y0110484D02*
X0392768Y0113553D01*
X0392000Y0114320D01*
X0390466Y0114320D01*
X0389698Y0113553D01*
X0389698Y0112786D01*
X0390466Y0112018D01*
X0392768Y0112018D01*
X0392768Y0110484D02*
X0392000Y0109717D01*
X0390466Y0109717D01*
X0389698Y0110484D01*
X0388164Y0109717D02*
X0385094Y0109717D01*
X0385094Y0114320D01*
X0394302Y0113553D02*
X0395070Y0114320D01*
X0396604Y0114320D01*
X0397372Y0113553D01*
X0396604Y0112018D02*
X0395837Y0112018D01*
X0361939Y0112786D02*
X0361939Y0113553D01*
X0361171Y0114320D01*
X0359637Y0114320D01*
X0358869Y0113553D01*
X0357335Y0113553D02*
X0356567Y0114320D01*
X0355033Y0114320D01*
X0354265Y0113553D01*
X0354265Y0112786D01*
X0355033Y0112018D01*
X0357335Y0112018D01*
X0357335Y0110484D02*
X0357335Y0113553D01*
X0357335Y0110484D02*
X0356567Y0109717D01*
X0355033Y0109717D01*
X0354265Y0110484D01*
X0352731Y0109717D02*
X0349661Y0109717D01*
X0349661Y0114320D01*
X0358869Y0109717D02*
X0361939Y0112786D01*
X0361939Y0109717D02*
X0358869Y0109717D01*
X0326505Y0109717D02*
X0323436Y0109717D01*
X0324971Y0109717D02*
X0324971Y0114320D01*
X0323436Y0112786D01*
X0321902Y0113553D02*
X0321134Y0114320D01*
X0319600Y0114320D01*
X0318832Y0113553D01*
X0318832Y0112786D01*
X0319600Y0112018D01*
X0321902Y0112018D01*
X0321902Y0110484D02*
X0321902Y0113553D01*
X0321902Y0110484D02*
X0321134Y0109717D01*
X0319600Y0109717D01*
X0318832Y0110484D01*
X0317298Y0109717D02*
X0314228Y0109717D01*
X0314228Y0114320D01*
X0291072Y0113553D02*
X0288003Y0110484D01*
X0288770Y0109717D01*
X0290305Y0109717D01*
X0291072Y0110484D01*
X0291072Y0113553D01*
X0290305Y0114320D01*
X0288770Y0114320D01*
X0288003Y0113553D01*
X0288003Y0110484D01*
X0286468Y0110484D02*
X0286468Y0113553D01*
X0285701Y0114320D01*
X0284167Y0114320D01*
X0283399Y0113553D01*
X0283399Y0112786D01*
X0284167Y0112018D01*
X0286468Y0112018D01*
X0286468Y0110484D02*
X0285701Y0109717D01*
X0284167Y0109717D01*
X0283399Y0110484D01*
X0281865Y0109717D02*
X0278795Y0109717D01*
X0278795Y0114320D01*
X0255639Y0113553D02*
X0255639Y0110484D01*
X0254872Y0109717D01*
X0253337Y0109717D01*
X0252570Y0110484D01*
X0251035Y0110484D02*
X0250268Y0109717D01*
X0248733Y0109717D01*
X0247966Y0110484D01*
X0247966Y0111251D01*
X0248733Y0112018D01*
X0250268Y0112018D01*
X0251035Y0111251D01*
X0251035Y0110484D01*
X0250268Y0112018D02*
X0251035Y0112786D01*
X0251035Y0113553D01*
X0250268Y0114320D01*
X0248733Y0114320D01*
X0247966Y0113553D01*
X0247966Y0112786D01*
X0248733Y0112018D01*
X0246431Y0109717D02*
X0243362Y0109717D01*
X0243362Y0114320D01*
X0252570Y0113553D02*
X0252570Y0112786D01*
X0253337Y0112018D01*
X0255639Y0112018D01*
X0255639Y0113553D02*
X0254872Y0114320D01*
X0253337Y0114320D01*
X0252570Y0113553D01*
X0220206Y0113553D02*
X0220206Y0112786D01*
X0219439Y0112018D01*
X0217904Y0112018D01*
X0217137Y0112786D01*
X0217137Y0113553D01*
X0217904Y0114320D01*
X0219439Y0114320D01*
X0220206Y0113553D01*
X0219439Y0112018D02*
X0220206Y0111251D01*
X0220206Y0110484D01*
X0219439Y0109717D01*
X0217904Y0109717D01*
X0217137Y0110484D01*
X0217137Y0111251D01*
X0217904Y0112018D01*
X0215602Y0111251D02*
X0215602Y0110484D01*
X0214835Y0109717D01*
X0213300Y0109717D01*
X0212533Y0110484D01*
X0212533Y0111251D01*
X0213300Y0112018D01*
X0214835Y0112018D01*
X0215602Y0111251D01*
X0214835Y0112018D02*
X0215602Y0112786D01*
X0215602Y0113553D01*
X0214835Y0114320D01*
X0213300Y0114320D01*
X0212533Y0113553D01*
X0212533Y0112786D01*
X0213300Y0112018D01*
X0210998Y0109717D02*
X0207929Y0109717D01*
X0207929Y0114320D01*
X0184773Y0114320D02*
X0184773Y0113553D01*
X0181704Y0110484D01*
X0181704Y0109717D01*
X0180169Y0110484D02*
X0179402Y0109717D01*
X0177867Y0109717D01*
X0177100Y0110484D01*
X0177100Y0111251D01*
X0177867Y0112018D01*
X0179402Y0112018D01*
X0180169Y0111251D01*
X0180169Y0110484D01*
X0179402Y0112018D02*
X0180169Y0112786D01*
X0180169Y0113553D01*
X0179402Y0114320D01*
X0177867Y0114320D01*
X0177100Y0113553D01*
X0177100Y0112786D01*
X0177867Y0112018D01*
X0175565Y0109717D02*
X0172496Y0109717D01*
X0172496Y0114320D01*
X0181704Y0114320D02*
X0184773Y0114320D01*
X0149340Y0114320D02*
X0147805Y0113553D01*
X0146271Y0112018D01*
X0148573Y0112018D01*
X0149340Y0111251D01*
X0149340Y0110484D01*
X0148573Y0109717D01*
X0147038Y0109717D01*
X0146271Y0110484D01*
X0146271Y0112018D01*
X0144736Y0111251D02*
X0144736Y0110484D01*
X0143969Y0109717D01*
X0142434Y0109717D01*
X0141667Y0110484D01*
X0141667Y0111251D01*
X0142434Y0112018D01*
X0143969Y0112018D01*
X0144736Y0111251D01*
X0143969Y0112018D02*
X0144736Y0112786D01*
X0144736Y0113553D01*
X0143969Y0114320D01*
X0142434Y0114320D01*
X0141667Y0113553D01*
X0141667Y0112786D01*
X0142434Y0112018D01*
X0140132Y0109717D02*
X0137063Y0109717D01*
X0137063Y0114320D01*
X0113907Y0114320D02*
X0110838Y0114320D01*
X0110838Y0112018D01*
X0112372Y0112786D01*
X0113140Y0112786D01*
X0113907Y0112018D01*
X0113907Y0110484D01*
X0113140Y0109717D01*
X0111605Y0109717D01*
X0110838Y0110484D01*
X0109303Y0110484D02*
X0108536Y0109717D01*
X0107001Y0109717D01*
X0106234Y0110484D01*
X0106234Y0111251D01*
X0107001Y0112018D01*
X0108536Y0112018D01*
X0109303Y0111251D01*
X0109303Y0110484D01*
X0108536Y0112018D02*
X0109303Y0112786D01*
X0109303Y0113553D01*
X0108536Y0114320D01*
X0107001Y0114320D01*
X0106234Y0113553D01*
X0106234Y0112786D01*
X0107001Y0112018D01*
X0104699Y0109717D02*
X0101630Y0109717D01*
X0101630Y0114320D01*
X0564020Y0321999D02*
X0564020Y0323534D01*
X0564020Y0322767D02*
X0567856Y0322767D01*
X0568624Y0321999D01*
X0568624Y0321232D01*
X0567856Y0320465D01*
X0568624Y0325068D02*
X0568624Y0328138D01*
X0568624Y0326603D02*
X0564020Y0326603D01*
X0565554Y0325068D01*
D14*
X0575989Y0313296D02*
X0592918Y0313296D01*
X0592918Y0350304D01*
X0575989Y0350304D01*
X0318863Y0334110D02*
X0318112Y0334861D01*
X0316611Y0334861D01*
X0315860Y0334110D01*
X0314259Y0334861D02*
X0314259Y0330357D01*
X0311256Y0334861D01*
X0311256Y0330357D01*
X0309655Y0330357D02*
X0308154Y0331858D01*
X0308904Y0331858D02*
X0306652Y0331858D01*
X0306652Y0330357D02*
X0306652Y0334861D01*
X0308904Y0334861D01*
X0309655Y0334110D01*
X0309655Y0332609D01*
X0308904Y0331858D01*
X0315860Y0330357D02*
X0318863Y0333360D01*
X0318863Y0334110D01*
X0318863Y0330357D02*
X0315860Y0330357D01*
X0316335Y0298719D02*
X0317837Y0298719D01*
X0318587Y0297969D01*
X0318587Y0297218D01*
X0317837Y0296467D01*
X0318587Y0295717D01*
X0318587Y0294966D01*
X0317837Y0294215D01*
X0316335Y0294215D01*
X0315585Y0294966D01*
X0313983Y0294215D02*
X0313983Y0298719D01*
X0315585Y0297969D02*
X0316335Y0298719D01*
X0317086Y0296467D02*
X0317837Y0296467D01*
X0313983Y0294215D02*
X0310981Y0298719D01*
X0310981Y0294215D01*
X0309379Y0294215D02*
X0307878Y0295717D01*
X0308629Y0295717D02*
X0306377Y0295717D01*
X0306377Y0294215D02*
X0306377Y0298719D01*
X0308629Y0298719D01*
X0309379Y0297969D01*
X0309379Y0296467D01*
X0308629Y0295717D01*
X0308944Y0264664D02*
X0309694Y0263913D01*
X0309694Y0262412D01*
X0308944Y0261662D01*
X0306692Y0261662D01*
X0308193Y0261662D02*
X0309694Y0260160D01*
X0311296Y0260160D02*
X0311296Y0264664D01*
X0314298Y0260160D01*
X0314298Y0264664D01*
X0315900Y0262412D02*
X0318902Y0262412D01*
X0318152Y0260160D02*
X0318152Y0264664D01*
X0315900Y0262412D01*
X0308944Y0264664D02*
X0306692Y0264664D01*
X0306692Y0260160D01*
X0306259Y0229074D02*
X0308511Y0229074D01*
X0309261Y0228323D01*
X0309261Y0226822D01*
X0308511Y0226071D01*
X0306259Y0226071D01*
X0307760Y0226071D02*
X0309261Y0224570D01*
X0310863Y0224570D02*
X0310863Y0229074D01*
X0313865Y0224570D01*
X0313865Y0229074D01*
X0315467Y0229074D02*
X0315467Y0226822D01*
X0316968Y0227572D01*
X0317718Y0227572D01*
X0318469Y0226822D01*
X0318469Y0225320D01*
X0317718Y0224570D01*
X0316217Y0224570D01*
X0315467Y0225320D01*
X0315467Y0229074D02*
X0318469Y0229074D01*
X0306259Y0229074D02*
X0306259Y0224570D01*
X0306975Y0193444D02*
X0304723Y0193444D01*
X0304723Y0188940D01*
X0304723Y0190441D02*
X0306975Y0190441D01*
X0307726Y0191192D01*
X0307726Y0192693D01*
X0306975Y0193444D01*
X0309327Y0193444D02*
X0312330Y0188940D01*
X0312330Y0193444D01*
X0313931Y0191192D02*
X0313931Y0189690D01*
X0314682Y0188940D01*
X0316183Y0188940D01*
X0316934Y0189690D01*
X0316934Y0190441D01*
X0316183Y0191192D01*
X0313931Y0191192D01*
X0315432Y0192693D01*
X0316934Y0193444D01*
X0309327Y0193444D02*
X0309327Y0188940D01*
X0307726Y0188940D02*
X0306225Y0190441D01*
X0306298Y0159034D02*
X0308550Y0159034D01*
X0309301Y0158284D01*
X0309301Y0156782D01*
X0308550Y0156032D01*
X0306298Y0156032D01*
X0307799Y0156032D02*
X0309301Y0154530D01*
X0310902Y0154530D02*
X0310902Y0159034D01*
X0313905Y0154530D01*
X0313905Y0159034D01*
X0315506Y0159034D02*
X0318508Y0159034D01*
X0318508Y0158284D01*
X0315506Y0155281D01*
X0315506Y0154530D01*
X0306298Y0154530D02*
X0306298Y0159034D01*
X0306574Y0122774D02*
X0308826Y0122774D01*
X0309576Y0122024D01*
X0309576Y0120522D01*
X0308826Y0119772D01*
X0306574Y0119772D01*
X0308075Y0119772D02*
X0309576Y0118270D01*
X0311178Y0118270D02*
X0311178Y0122774D01*
X0314180Y0118270D01*
X0314180Y0122774D01*
X0315781Y0122024D02*
X0315781Y0121273D01*
X0316532Y0120522D01*
X0318033Y0120522D01*
X0318784Y0119772D01*
X0318784Y0119021D01*
X0318033Y0118270D01*
X0316532Y0118270D01*
X0315781Y0119021D01*
X0315781Y0119772D01*
X0316532Y0120522D01*
X0318033Y0120522D02*
X0318784Y0121273D01*
X0318784Y0122024D01*
X0318033Y0122774D01*
X0316532Y0122774D01*
X0315781Y0122024D01*
X0306574Y0122774D02*
X0306574Y0118270D01*
X0306141Y0365711D02*
X0306141Y0370215D01*
X0308392Y0370215D01*
X0309143Y0369465D01*
X0309143Y0367963D01*
X0308392Y0367213D01*
X0306141Y0367213D01*
X0307642Y0367213D02*
X0309143Y0365711D01*
X0310744Y0365711D02*
X0310744Y0370215D01*
X0313747Y0365711D01*
X0313747Y0370215D01*
X0315348Y0368714D02*
X0316850Y0370215D01*
X0316850Y0365711D01*
X0318351Y0365711D02*
X0315348Y0365711D01*
M02*
