G75*
%MOIN*%
%OFA0B0*%
%FSLAX25Y25*%
%IPPOS*%
%LPD*%
%AMOC8*
5,1,8,0,0,1.08239X$1,22.5*
%
%ADD10C,0.20800*%
%ADD11C,0.13398*%
%ADD12C,0.08600*%
%ADD13C,0.04800*%
%ADD14R,0.05450X0.06225*%
%ADD15R,0.05524X0.01981*%
%ADD16R,0.12611X0.11430*%
%ADD17OC8,0.06800*%
D10*
X0130197Y0112661D03*
X0165630Y0112661D03*
X0201063Y0112661D03*
X0236496Y0112661D03*
X0271929Y0112661D03*
X0307362Y0112661D03*
X0342795Y0112661D03*
X0378228Y0112661D03*
X0413661Y0112661D03*
X0449094Y0112661D03*
X0484528Y0112661D03*
X0519961Y0112661D03*
X0519961Y0148094D03*
X0484528Y0148094D03*
X0449094Y0148094D03*
X0413661Y0148094D03*
X0378228Y0148094D03*
X0342795Y0148094D03*
X0307362Y0148094D03*
X0271929Y0148094D03*
X0236496Y0148094D03*
X0201063Y0148094D03*
X0165630Y0148094D03*
X0130197Y0148094D03*
X0130197Y0183528D03*
X0165630Y0183528D03*
X0201063Y0183528D03*
X0236496Y0183528D03*
X0271929Y0183528D03*
X0307362Y0183528D03*
X0342795Y0183528D03*
X0378228Y0183528D03*
X0413661Y0183528D03*
X0449094Y0183528D03*
X0484528Y0183528D03*
X0519961Y0183528D03*
X0519961Y0218961D03*
X0484528Y0218961D03*
X0449094Y0218961D03*
X0413661Y0218961D03*
X0378228Y0218961D03*
X0342795Y0218961D03*
X0307362Y0218961D03*
X0271929Y0218961D03*
X0236496Y0218961D03*
X0201063Y0218961D03*
X0165630Y0218961D03*
X0130197Y0218961D03*
X0130197Y0254394D03*
X0165630Y0254394D03*
X0201063Y0254394D03*
X0236496Y0254394D03*
X0271929Y0254394D03*
X0307362Y0254394D03*
X0342795Y0254394D03*
X0378228Y0254394D03*
X0413661Y0254394D03*
X0449094Y0254394D03*
X0484528Y0254394D03*
X0519961Y0254394D03*
X0519961Y0289827D03*
X0484528Y0289827D03*
X0449094Y0289827D03*
X0413661Y0289827D03*
X0378228Y0289827D03*
X0342795Y0289827D03*
X0307362Y0289827D03*
X0271929Y0289827D03*
X0236496Y0289827D03*
X0201063Y0289827D03*
X0165630Y0289827D03*
X0130197Y0289827D03*
X0130197Y0325260D03*
X0165630Y0325260D03*
X0201063Y0325260D03*
X0236496Y0325260D03*
X0271929Y0325260D03*
X0307362Y0325260D03*
X0342795Y0325260D03*
X0378228Y0325260D03*
X0413661Y0325260D03*
X0449094Y0325260D03*
X0484528Y0325260D03*
X0519961Y0325260D03*
X0519961Y0360693D03*
X0484528Y0360693D03*
X0449094Y0360693D03*
X0413661Y0360693D03*
X0378228Y0360693D03*
X0342795Y0360693D03*
X0307362Y0360693D03*
X0271929Y0360693D03*
X0236496Y0360693D03*
X0201063Y0360693D03*
X0165630Y0360693D03*
X0130197Y0360693D03*
D11*
X0065709Y0056598D03*
X0065709Y0416756D03*
X0604134Y0416756D03*
X0604134Y0056598D03*
D12*
X0579488Y0076283D02*
X0579490Y0076371D01*
X0579496Y0076459D01*
X0579506Y0076547D01*
X0579520Y0076635D01*
X0579537Y0076721D01*
X0579559Y0076807D01*
X0579584Y0076891D01*
X0579614Y0076975D01*
X0579646Y0077057D01*
X0579683Y0077137D01*
X0579723Y0077216D01*
X0579767Y0077293D01*
X0579814Y0077368D01*
X0579864Y0077440D01*
X0579918Y0077511D01*
X0579974Y0077578D01*
X0580034Y0077644D01*
X0580096Y0077706D01*
X0580162Y0077766D01*
X0580229Y0077822D01*
X0580300Y0077876D01*
X0580372Y0077926D01*
X0580447Y0077973D01*
X0580524Y0078017D01*
X0580603Y0078057D01*
X0580683Y0078094D01*
X0580765Y0078126D01*
X0580849Y0078156D01*
X0580933Y0078181D01*
X0581019Y0078203D01*
X0581105Y0078220D01*
X0581193Y0078234D01*
X0581281Y0078244D01*
X0581369Y0078250D01*
X0581457Y0078252D01*
X0581545Y0078250D01*
X0581633Y0078244D01*
X0581721Y0078234D01*
X0581809Y0078220D01*
X0581895Y0078203D01*
X0581981Y0078181D01*
X0582065Y0078156D01*
X0582149Y0078126D01*
X0582231Y0078094D01*
X0582311Y0078057D01*
X0582390Y0078017D01*
X0582467Y0077973D01*
X0582542Y0077926D01*
X0582614Y0077876D01*
X0582685Y0077822D01*
X0582752Y0077766D01*
X0582818Y0077706D01*
X0582880Y0077644D01*
X0582940Y0077578D01*
X0582996Y0077511D01*
X0583050Y0077440D01*
X0583100Y0077368D01*
X0583147Y0077293D01*
X0583191Y0077216D01*
X0583231Y0077137D01*
X0583268Y0077057D01*
X0583300Y0076975D01*
X0583330Y0076891D01*
X0583355Y0076807D01*
X0583377Y0076721D01*
X0583394Y0076635D01*
X0583408Y0076547D01*
X0583418Y0076459D01*
X0583424Y0076371D01*
X0583426Y0076283D01*
X0583424Y0076195D01*
X0583418Y0076107D01*
X0583408Y0076019D01*
X0583394Y0075931D01*
X0583377Y0075845D01*
X0583355Y0075759D01*
X0583330Y0075675D01*
X0583300Y0075591D01*
X0583268Y0075509D01*
X0583231Y0075429D01*
X0583191Y0075350D01*
X0583147Y0075273D01*
X0583100Y0075198D01*
X0583050Y0075126D01*
X0582996Y0075055D01*
X0582940Y0074988D01*
X0582880Y0074922D01*
X0582818Y0074860D01*
X0582752Y0074800D01*
X0582685Y0074744D01*
X0582614Y0074690D01*
X0582542Y0074640D01*
X0582467Y0074593D01*
X0582390Y0074549D01*
X0582311Y0074509D01*
X0582231Y0074472D01*
X0582149Y0074440D01*
X0582065Y0074410D01*
X0581981Y0074385D01*
X0581895Y0074363D01*
X0581809Y0074346D01*
X0581721Y0074332D01*
X0581633Y0074322D01*
X0581545Y0074316D01*
X0581457Y0074314D01*
X0581369Y0074316D01*
X0581281Y0074322D01*
X0581193Y0074332D01*
X0581105Y0074346D01*
X0581019Y0074363D01*
X0580933Y0074385D01*
X0580849Y0074410D01*
X0580765Y0074440D01*
X0580683Y0074472D01*
X0580603Y0074509D01*
X0580524Y0074549D01*
X0580447Y0074593D01*
X0580372Y0074640D01*
X0580300Y0074690D01*
X0580229Y0074744D01*
X0580162Y0074800D01*
X0580096Y0074860D01*
X0580034Y0074922D01*
X0579974Y0074988D01*
X0579918Y0075055D01*
X0579864Y0075126D01*
X0579814Y0075198D01*
X0579767Y0075273D01*
X0579723Y0075350D01*
X0579683Y0075429D01*
X0579646Y0075509D01*
X0579614Y0075591D01*
X0579584Y0075675D01*
X0579559Y0075759D01*
X0579537Y0075845D01*
X0579520Y0075931D01*
X0579506Y0076019D01*
X0579496Y0076107D01*
X0579490Y0076195D01*
X0579488Y0076283D01*
X0083425Y0076283D02*
X0083427Y0076371D01*
X0083433Y0076459D01*
X0083443Y0076547D01*
X0083457Y0076635D01*
X0083474Y0076721D01*
X0083496Y0076807D01*
X0083521Y0076891D01*
X0083551Y0076975D01*
X0083583Y0077057D01*
X0083620Y0077137D01*
X0083660Y0077216D01*
X0083704Y0077293D01*
X0083751Y0077368D01*
X0083801Y0077440D01*
X0083855Y0077511D01*
X0083911Y0077578D01*
X0083971Y0077644D01*
X0084033Y0077706D01*
X0084099Y0077766D01*
X0084166Y0077822D01*
X0084237Y0077876D01*
X0084309Y0077926D01*
X0084384Y0077973D01*
X0084461Y0078017D01*
X0084540Y0078057D01*
X0084620Y0078094D01*
X0084702Y0078126D01*
X0084786Y0078156D01*
X0084870Y0078181D01*
X0084956Y0078203D01*
X0085042Y0078220D01*
X0085130Y0078234D01*
X0085218Y0078244D01*
X0085306Y0078250D01*
X0085394Y0078252D01*
X0085482Y0078250D01*
X0085570Y0078244D01*
X0085658Y0078234D01*
X0085746Y0078220D01*
X0085832Y0078203D01*
X0085918Y0078181D01*
X0086002Y0078156D01*
X0086086Y0078126D01*
X0086168Y0078094D01*
X0086248Y0078057D01*
X0086327Y0078017D01*
X0086404Y0077973D01*
X0086479Y0077926D01*
X0086551Y0077876D01*
X0086622Y0077822D01*
X0086689Y0077766D01*
X0086755Y0077706D01*
X0086817Y0077644D01*
X0086877Y0077578D01*
X0086933Y0077511D01*
X0086987Y0077440D01*
X0087037Y0077368D01*
X0087084Y0077293D01*
X0087128Y0077216D01*
X0087168Y0077137D01*
X0087205Y0077057D01*
X0087237Y0076975D01*
X0087267Y0076891D01*
X0087292Y0076807D01*
X0087314Y0076721D01*
X0087331Y0076635D01*
X0087345Y0076547D01*
X0087355Y0076459D01*
X0087361Y0076371D01*
X0087363Y0076283D01*
X0087361Y0076195D01*
X0087355Y0076107D01*
X0087345Y0076019D01*
X0087331Y0075931D01*
X0087314Y0075845D01*
X0087292Y0075759D01*
X0087267Y0075675D01*
X0087237Y0075591D01*
X0087205Y0075509D01*
X0087168Y0075429D01*
X0087128Y0075350D01*
X0087084Y0075273D01*
X0087037Y0075198D01*
X0086987Y0075126D01*
X0086933Y0075055D01*
X0086877Y0074988D01*
X0086817Y0074922D01*
X0086755Y0074860D01*
X0086689Y0074800D01*
X0086622Y0074744D01*
X0086551Y0074690D01*
X0086479Y0074640D01*
X0086404Y0074593D01*
X0086327Y0074549D01*
X0086248Y0074509D01*
X0086168Y0074472D01*
X0086086Y0074440D01*
X0086002Y0074410D01*
X0085918Y0074385D01*
X0085832Y0074363D01*
X0085746Y0074346D01*
X0085658Y0074332D01*
X0085570Y0074322D01*
X0085482Y0074316D01*
X0085394Y0074314D01*
X0085306Y0074316D01*
X0085218Y0074322D01*
X0085130Y0074332D01*
X0085042Y0074346D01*
X0084956Y0074363D01*
X0084870Y0074385D01*
X0084786Y0074410D01*
X0084702Y0074440D01*
X0084620Y0074472D01*
X0084540Y0074509D01*
X0084461Y0074549D01*
X0084384Y0074593D01*
X0084309Y0074640D01*
X0084237Y0074690D01*
X0084166Y0074744D01*
X0084099Y0074800D01*
X0084033Y0074860D01*
X0083971Y0074922D01*
X0083911Y0074988D01*
X0083855Y0075055D01*
X0083801Y0075126D01*
X0083751Y0075198D01*
X0083704Y0075273D01*
X0083660Y0075350D01*
X0083620Y0075429D01*
X0083583Y0075509D01*
X0083551Y0075591D01*
X0083521Y0075675D01*
X0083496Y0075759D01*
X0083474Y0075845D01*
X0083457Y0075931D01*
X0083443Y0076019D01*
X0083433Y0076107D01*
X0083427Y0076195D01*
X0083425Y0076283D01*
X0083425Y0399118D02*
X0083427Y0399206D01*
X0083433Y0399294D01*
X0083443Y0399382D01*
X0083457Y0399470D01*
X0083474Y0399556D01*
X0083496Y0399642D01*
X0083521Y0399726D01*
X0083551Y0399810D01*
X0083583Y0399892D01*
X0083620Y0399972D01*
X0083660Y0400051D01*
X0083704Y0400128D01*
X0083751Y0400203D01*
X0083801Y0400275D01*
X0083855Y0400346D01*
X0083911Y0400413D01*
X0083971Y0400479D01*
X0084033Y0400541D01*
X0084099Y0400601D01*
X0084166Y0400657D01*
X0084237Y0400711D01*
X0084309Y0400761D01*
X0084384Y0400808D01*
X0084461Y0400852D01*
X0084540Y0400892D01*
X0084620Y0400929D01*
X0084702Y0400961D01*
X0084786Y0400991D01*
X0084870Y0401016D01*
X0084956Y0401038D01*
X0085042Y0401055D01*
X0085130Y0401069D01*
X0085218Y0401079D01*
X0085306Y0401085D01*
X0085394Y0401087D01*
X0085482Y0401085D01*
X0085570Y0401079D01*
X0085658Y0401069D01*
X0085746Y0401055D01*
X0085832Y0401038D01*
X0085918Y0401016D01*
X0086002Y0400991D01*
X0086086Y0400961D01*
X0086168Y0400929D01*
X0086248Y0400892D01*
X0086327Y0400852D01*
X0086404Y0400808D01*
X0086479Y0400761D01*
X0086551Y0400711D01*
X0086622Y0400657D01*
X0086689Y0400601D01*
X0086755Y0400541D01*
X0086817Y0400479D01*
X0086877Y0400413D01*
X0086933Y0400346D01*
X0086987Y0400275D01*
X0087037Y0400203D01*
X0087084Y0400128D01*
X0087128Y0400051D01*
X0087168Y0399972D01*
X0087205Y0399892D01*
X0087237Y0399810D01*
X0087267Y0399726D01*
X0087292Y0399642D01*
X0087314Y0399556D01*
X0087331Y0399470D01*
X0087345Y0399382D01*
X0087355Y0399294D01*
X0087361Y0399206D01*
X0087363Y0399118D01*
X0087361Y0399030D01*
X0087355Y0398942D01*
X0087345Y0398854D01*
X0087331Y0398766D01*
X0087314Y0398680D01*
X0087292Y0398594D01*
X0087267Y0398510D01*
X0087237Y0398426D01*
X0087205Y0398344D01*
X0087168Y0398264D01*
X0087128Y0398185D01*
X0087084Y0398108D01*
X0087037Y0398033D01*
X0086987Y0397961D01*
X0086933Y0397890D01*
X0086877Y0397823D01*
X0086817Y0397757D01*
X0086755Y0397695D01*
X0086689Y0397635D01*
X0086622Y0397579D01*
X0086551Y0397525D01*
X0086479Y0397475D01*
X0086404Y0397428D01*
X0086327Y0397384D01*
X0086248Y0397344D01*
X0086168Y0397307D01*
X0086086Y0397275D01*
X0086002Y0397245D01*
X0085918Y0397220D01*
X0085832Y0397198D01*
X0085746Y0397181D01*
X0085658Y0397167D01*
X0085570Y0397157D01*
X0085482Y0397151D01*
X0085394Y0397149D01*
X0085306Y0397151D01*
X0085218Y0397157D01*
X0085130Y0397167D01*
X0085042Y0397181D01*
X0084956Y0397198D01*
X0084870Y0397220D01*
X0084786Y0397245D01*
X0084702Y0397275D01*
X0084620Y0397307D01*
X0084540Y0397344D01*
X0084461Y0397384D01*
X0084384Y0397428D01*
X0084309Y0397475D01*
X0084237Y0397525D01*
X0084166Y0397579D01*
X0084099Y0397635D01*
X0084033Y0397695D01*
X0083971Y0397757D01*
X0083911Y0397823D01*
X0083855Y0397890D01*
X0083801Y0397961D01*
X0083751Y0398033D01*
X0083704Y0398108D01*
X0083660Y0398185D01*
X0083620Y0398264D01*
X0083583Y0398344D01*
X0083551Y0398426D01*
X0083521Y0398510D01*
X0083496Y0398594D01*
X0083474Y0398680D01*
X0083457Y0398766D01*
X0083443Y0398854D01*
X0083433Y0398942D01*
X0083427Y0399030D01*
X0083425Y0399118D01*
D13*
X0085394Y0399118D03*
X0085394Y0076283D03*
X0581457Y0076283D03*
D14*
X0327926Y0237109D03*
X0320839Y0237109D03*
D15*
X0565917Y0237672D03*
X0565917Y0239640D03*
X0565917Y0241609D03*
X0565917Y0235703D03*
X0565917Y0233735D03*
X0565917Y0231766D03*
D16*
X0573398Y0224168D03*
X0573398Y0249207D03*
D17*
X0595698Y0337387D03*
X0597598Y0129687D03*
M02*
