G75*
%MOIN*%
%OFA0B0*%
%FSLAX25Y25*%
%IPPOS*%
%LPD*%
%AMOC8*
5,1,8,0,0,1.08239X$1,22.5*
%
%ADD10C,0.00400*%
%ADD11C,0.01000*%
%ADD12C,0.01100*%
%ADD13C,0.00800*%
D10*
X0570085Y0205396D02*
X0573155Y0205396D01*
X0571620Y0203861D02*
X0571620Y0206931D01*
X0570853Y0208465D02*
X0569318Y0210000D01*
X0573922Y0210000D01*
X0573922Y0208465D02*
X0573922Y0211535D01*
X0573922Y0213069D02*
X0570853Y0216139D01*
X0570085Y0216139D01*
X0569318Y0215371D01*
X0569318Y0213837D01*
X0570085Y0213069D01*
X0573922Y0213069D02*
X0573922Y0216139D01*
X0572387Y0217673D02*
X0573922Y0219208D01*
X0572387Y0220742D01*
X0569318Y0220742D01*
X0569318Y0217673D02*
X0572387Y0217673D01*
X0568609Y0224137D02*
X0568609Y0227206D01*
X0568609Y0225672D02*
X0573213Y0225672D01*
X0573213Y0228741D02*
X0568609Y0228741D01*
X0570144Y0229508D02*
X0570144Y0231043D01*
X0570911Y0231810D01*
X0573213Y0231810D01*
X0572446Y0233345D02*
X0570911Y0233345D01*
X0570144Y0234112D01*
X0570144Y0235647D01*
X0570911Y0236414D01*
X0571679Y0236414D01*
X0571679Y0233345D01*
X0572446Y0233345D02*
X0573213Y0234112D01*
X0573213Y0235647D01*
X0573213Y0237949D02*
X0570144Y0237949D01*
X0570144Y0239483D02*
X0570144Y0240251D01*
X0570144Y0239483D02*
X0571679Y0237949D01*
X0573213Y0241785D02*
X0570144Y0241785D01*
X0570144Y0242553D01*
X0570911Y0243320D01*
X0570144Y0244087D01*
X0570911Y0244855D01*
X0573213Y0244855D01*
X0573213Y0243320D02*
X0570911Y0243320D01*
X0572367Y0249531D02*
X0569298Y0249531D01*
X0568531Y0250298D01*
X0568531Y0251833D01*
X0569298Y0252600D01*
X0570833Y0252600D02*
X0570833Y0251065D01*
X0570833Y0252600D02*
X0572367Y0252600D01*
X0573135Y0251833D01*
X0573135Y0250298D01*
X0572367Y0249531D01*
X0573135Y0254135D02*
X0568531Y0254135D01*
X0573135Y0257204D01*
X0568531Y0257204D01*
X0568531Y0258739D02*
X0568531Y0261041D01*
X0569298Y0261808D01*
X0572367Y0261808D01*
X0573135Y0261041D01*
X0573135Y0258739D01*
X0568531Y0258739D01*
X0571226Y0267641D02*
X0571226Y0270710D01*
X0570459Y0272245D02*
X0568924Y0273780D01*
X0573528Y0273780D01*
X0573528Y0275314D02*
X0573528Y0272245D01*
X0572761Y0269176D02*
X0569692Y0269176D01*
X0569692Y0276849D02*
X0568924Y0277616D01*
X0568924Y0279151D01*
X0569692Y0279918D01*
X0570459Y0279918D01*
X0573528Y0276849D01*
X0573528Y0279918D01*
X0571994Y0281453D02*
X0573528Y0282987D01*
X0571994Y0284522D01*
X0568924Y0284522D01*
X0568924Y0281453D02*
X0571994Y0281453D01*
X0570144Y0229508D02*
X0570911Y0228741D01*
X0581867Y0205078D02*
X0581867Y0202008D01*
X0581867Y0200474D02*
X0577263Y0197404D01*
X0577263Y0200474D02*
X0581867Y0197404D01*
X0578798Y0202008D02*
X0577263Y0203543D01*
X0581867Y0203543D01*
D11*
X0595648Y0044787D02*
X0595748Y0044787D01*
D12*
X0229684Y0059274D02*
X0225748Y0055337D01*
X0229684Y0055337D01*
X0232193Y0056322D02*
X0236130Y0060258D01*
X0236130Y0056322D01*
X0235146Y0055337D01*
X0233177Y0055337D01*
X0232193Y0056322D01*
X0232193Y0060258D01*
X0233177Y0061242D01*
X0235146Y0061242D01*
X0236130Y0060258D01*
X0238639Y0059274D02*
X0240607Y0061242D01*
X0240607Y0055337D01*
X0238639Y0055337D02*
X0242575Y0055337D01*
X0245084Y0056322D02*
X0246068Y0055337D01*
X0248037Y0055337D01*
X0249021Y0056322D01*
X0249021Y0058290D01*
X0248037Y0059274D01*
X0247052Y0059274D01*
X0245084Y0058290D01*
X0245084Y0061242D01*
X0249021Y0061242D01*
X0251530Y0060258D02*
X0252514Y0061242D01*
X0254482Y0061242D01*
X0255466Y0060258D01*
X0251530Y0056322D01*
X0252514Y0055337D01*
X0254482Y0055337D01*
X0255466Y0056322D01*
X0255466Y0060258D01*
X0257975Y0060258D02*
X0257975Y0059274D01*
X0258959Y0058290D01*
X0261912Y0058290D01*
X0261912Y0060258D02*
X0260928Y0061242D01*
X0258959Y0061242D01*
X0257975Y0060258D01*
X0257975Y0056322D02*
X0258959Y0055337D01*
X0260928Y0055337D01*
X0261912Y0056322D01*
X0261912Y0060258D01*
X0264421Y0059274D02*
X0266389Y0061242D01*
X0266389Y0055337D01*
X0264421Y0055337D02*
X0268357Y0055337D01*
X0270866Y0055337D02*
X0274803Y0055337D01*
X0272834Y0055337D02*
X0272834Y0061242D01*
X0270866Y0059274D01*
X0283757Y0061242D02*
X0283757Y0055337D01*
X0287694Y0055337D01*
X0290203Y0055337D02*
X0292171Y0055337D01*
X0291187Y0055337D02*
X0291187Y0059274D01*
X0290203Y0059274D01*
X0291187Y0061242D02*
X0291187Y0062227D01*
X0294500Y0058290D02*
X0294500Y0056322D01*
X0295484Y0055337D01*
X0298436Y0055337D01*
X0300945Y0056322D02*
X0300945Y0058290D01*
X0301929Y0059274D01*
X0303898Y0059274D01*
X0304882Y0058290D01*
X0304882Y0057306D01*
X0300945Y0057306D01*
X0300945Y0056322D02*
X0301929Y0055337D01*
X0303898Y0055337D01*
X0307391Y0055337D02*
X0307391Y0059274D01*
X0310343Y0059274D01*
X0311327Y0058290D01*
X0311327Y0055337D01*
X0313836Y0055337D02*
X0316789Y0055337D01*
X0317773Y0056322D01*
X0316789Y0057306D01*
X0314820Y0057306D01*
X0313836Y0058290D01*
X0314820Y0059274D01*
X0317773Y0059274D01*
X0320282Y0058290D02*
X0321266Y0059274D01*
X0323234Y0059274D01*
X0324218Y0058290D01*
X0324218Y0057306D01*
X0320282Y0057306D01*
X0320282Y0056322D02*
X0320282Y0058290D01*
X0320282Y0056322D02*
X0321266Y0055337D01*
X0323234Y0055337D01*
X0326727Y0056322D02*
X0326727Y0058290D01*
X0327711Y0059274D01*
X0330664Y0059274D01*
X0330664Y0061242D02*
X0330664Y0055337D01*
X0327711Y0055337D01*
X0326727Y0056322D01*
X0339618Y0056322D02*
X0340602Y0055337D01*
X0343555Y0055337D01*
X0343555Y0059274D01*
X0346064Y0059274D02*
X0346064Y0055337D01*
X0350000Y0055337D02*
X0350000Y0058290D01*
X0349016Y0059274D01*
X0346064Y0059274D01*
X0339618Y0059274D02*
X0339618Y0056322D01*
X0352509Y0056322D02*
X0353493Y0055337D01*
X0356446Y0055337D01*
X0356446Y0061242D01*
X0356446Y0059274D02*
X0353493Y0059274D01*
X0352509Y0058290D01*
X0352509Y0056322D01*
X0358955Y0056322D02*
X0359939Y0055337D01*
X0361907Y0055337D01*
X0362891Y0057306D02*
X0358955Y0057306D01*
X0358955Y0058290D02*
X0359939Y0059274D01*
X0361907Y0059274D01*
X0362891Y0058290D01*
X0362891Y0057306D01*
X0365400Y0057306D02*
X0367368Y0059274D01*
X0368353Y0059274D01*
X0365400Y0059274D02*
X0365400Y0055337D01*
X0358955Y0056322D02*
X0358955Y0058290D01*
X0377217Y0060258D02*
X0377217Y0056322D01*
X0378201Y0055337D01*
X0380169Y0055337D01*
X0381154Y0056322D01*
X0383662Y0055337D02*
X0387599Y0055337D01*
X0390108Y0055337D02*
X0390108Y0061242D01*
X0393060Y0061242D01*
X0394045Y0060258D01*
X0394045Y0058290D01*
X0393060Y0057306D01*
X0390108Y0057306D01*
X0392076Y0057306D02*
X0394045Y0055337D01*
X0396553Y0055337D02*
X0396553Y0061242D01*
X0400490Y0055337D01*
X0400490Y0061242D01*
X0409444Y0060258D02*
X0409444Y0056322D01*
X0410428Y0055337D01*
X0412397Y0055337D01*
X0413381Y0056322D01*
X0413381Y0060258D01*
X0412397Y0061242D01*
X0410428Y0061242D01*
X0409444Y0060258D01*
X0415890Y0061242D02*
X0415890Y0055337D01*
X0415890Y0058290D02*
X0419826Y0058290D01*
X0419826Y0061242D02*
X0419826Y0055337D01*
X0422335Y0055337D02*
X0426272Y0055337D01*
X0422335Y0055337D02*
X0422335Y0061242D01*
X0435226Y0059274D02*
X0437195Y0055337D01*
X0439163Y0059274D01*
X0441672Y0056322D02*
X0442656Y0056322D01*
X0442656Y0055337D01*
X0441672Y0055337D01*
X0441672Y0056322D01*
X0444895Y0055337D02*
X0448831Y0055337D01*
X0446863Y0055337D02*
X0446863Y0061242D01*
X0444895Y0059274D01*
X0451340Y0056322D02*
X0451340Y0055337D01*
X0452324Y0055337D01*
X0452324Y0056322D01*
X0451340Y0056322D01*
X0454563Y0055337D02*
X0458499Y0059274D01*
X0458499Y0060258D01*
X0457515Y0061242D01*
X0455547Y0061242D01*
X0454563Y0060258D01*
X0454563Y0055337D02*
X0458499Y0055337D01*
X0387599Y0061242D02*
X0383662Y0061242D01*
X0383662Y0055337D01*
X0383662Y0058290D02*
X0385631Y0058290D01*
X0381154Y0060258D02*
X0380169Y0061242D01*
X0378201Y0061242D01*
X0377217Y0060258D01*
X0298436Y0059274D02*
X0295484Y0059274D01*
X0294500Y0058290D01*
X0251530Y0056322D02*
X0251530Y0060258D01*
X0229684Y0060258D02*
X0228700Y0061242D01*
X0226732Y0061242D01*
X0225748Y0060258D01*
X0229684Y0060258D02*
X0229684Y0059274D01*
X0070141Y0193048D02*
X0064236Y0193048D01*
X0070141Y0193048D02*
X0070141Y0196985D01*
X0069157Y0199494D02*
X0070141Y0200478D01*
X0070141Y0202446D01*
X0069157Y0203431D01*
X0067189Y0203431D01*
X0066205Y0202446D01*
X0066205Y0200478D01*
X0067189Y0199494D01*
X0069157Y0199494D01*
X0069157Y0205939D02*
X0066205Y0205939D01*
X0069157Y0205939D02*
X0070141Y0206924D01*
X0069157Y0207908D01*
X0070141Y0208892D01*
X0069157Y0209876D01*
X0066205Y0209876D01*
X0067189Y0212385D02*
X0066205Y0213369D01*
X0066205Y0215337D01*
X0067189Y0216322D01*
X0068173Y0216322D01*
X0068173Y0212385D01*
X0069157Y0212385D02*
X0067189Y0212385D01*
X0069157Y0212385D02*
X0070141Y0213369D01*
X0070141Y0215337D01*
X0070141Y0218830D02*
X0066205Y0218830D01*
X0068173Y0218830D02*
X0066205Y0220799D01*
X0066205Y0221783D01*
X0067189Y0230647D02*
X0066205Y0231631D01*
X0066205Y0233600D01*
X0067189Y0234584D01*
X0070141Y0234584D01*
X0069157Y0237093D02*
X0067189Y0237093D01*
X0066205Y0238077D01*
X0066205Y0240045D01*
X0067189Y0241029D01*
X0068173Y0241029D01*
X0068173Y0237093D01*
X0069157Y0237093D02*
X0070141Y0238077D01*
X0070141Y0240045D01*
X0069157Y0243538D02*
X0068173Y0244522D01*
X0068173Y0247475D01*
X0067189Y0247475D02*
X0070141Y0247475D01*
X0070141Y0244522D01*
X0069157Y0243538D01*
X0066205Y0244522D02*
X0066205Y0246491D01*
X0067189Y0247475D01*
X0066205Y0249984D02*
X0066205Y0251952D01*
X0065220Y0250968D02*
X0069157Y0250968D01*
X0070141Y0251952D01*
X0069157Y0254281D02*
X0067189Y0254281D01*
X0066205Y0255265D01*
X0066205Y0257233D01*
X0067189Y0258217D01*
X0068173Y0258217D01*
X0068173Y0254281D01*
X0069157Y0254281D02*
X0070141Y0255265D01*
X0070141Y0257233D01*
X0070141Y0260726D02*
X0066205Y0260726D01*
X0068173Y0260726D02*
X0066205Y0262694D01*
X0066205Y0263679D01*
X0065220Y0272543D02*
X0064236Y0273527D01*
X0064236Y0275495D01*
X0065220Y0276480D01*
X0069157Y0272543D01*
X0070141Y0273527D01*
X0070141Y0275495D01*
X0069157Y0276480D01*
X0065220Y0276480D01*
X0065220Y0278988D02*
X0064236Y0279973D01*
X0064236Y0281941D01*
X0065220Y0282925D01*
X0069157Y0278988D01*
X0070141Y0279973D01*
X0070141Y0281941D01*
X0069157Y0282925D01*
X0065220Y0282925D01*
X0065220Y0285434D02*
X0066205Y0285434D01*
X0067189Y0286418D01*
X0067189Y0289371D01*
X0069157Y0289371D02*
X0065220Y0289371D01*
X0064236Y0288386D01*
X0064236Y0286418D01*
X0065220Y0285434D01*
X0069157Y0285434D02*
X0070141Y0286418D01*
X0070141Y0288386D01*
X0069157Y0289371D01*
X0069157Y0278988D02*
X0065220Y0278988D01*
X0065220Y0272543D02*
X0069157Y0272543D01*
X0070141Y0230647D02*
X0064236Y0230647D01*
X0308403Y0414050D02*
X0308403Y0419955D01*
X0310371Y0417987D01*
X0312339Y0419955D01*
X0312339Y0414050D01*
X0314848Y0414050D02*
X0316817Y0414050D01*
X0315832Y0414050D02*
X0315832Y0417987D01*
X0314848Y0417987D01*
X0315832Y0419955D02*
X0315832Y0420939D01*
X0319145Y0417987D02*
X0319145Y0414050D01*
X0319145Y0416018D02*
X0321114Y0417987D01*
X0322098Y0417987D01*
X0324516Y0417987D02*
X0325501Y0417987D01*
X0325501Y0414050D01*
X0326485Y0414050D02*
X0324516Y0414050D01*
X0328813Y0415034D02*
X0329798Y0416018D01*
X0332750Y0416018D01*
X0332750Y0417003D02*
X0332750Y0414050D01*
X0329798Y0414050D01*
X0328813Y0415034D01*
X0329798Y0417987D02*
X0331766Y0417987D01*
X0332750Y0417003D01*
X0335259Y0417987D02*
X0335259Y0414050D01*
X0337227Y0414050D02*
X0337227Y0417003D01*
X0338212Y0417987D01*
X0339196Y0417003D01*
X0339196Y0414050D01*
X0337227Y0417003D02*
X0336243Y0417987D01*
X0335259Y0417987D01*
X0325501Y0419955D02*
X0325501Y0420939D01*
D13*
X0583622Y0275826D02*
X0583622Y0195826D01*
X0589629Y0195826D01*
X0591530Y0195826D01*
X0607266Y0195826D01*
X0609204Y0195826D01*
X0609204Y0275826D01*
X0611881Y0275826D01*
X0614331Y0275826D01*
X0615512Y0275826D01*
X0615512Y0195826D01*
X0614331Y0195826D01*
X0614331Y0275826D01*
X0611881Y0275826D02*
X0611881Y0195826D01*
X0612665Y0195826D01*
X0614331Y0195826D01*
X0613256Y0194618D02*
X0612665Y0195320D01*
X0612665Y0195826D01*
X0611881Y0195826D02*
X0611035Y0195826D01*
X0609204Y0195826D01*
X0610445Y0194618D02*
X0611035Y0195320D01*
X0611035Y0195826D01*
X0610445Y0194618D02*
X0610445Y0193582D01*
X0613256Y0193582D01*
X0613256Y0194618D01*
X0591930Y0205826D02*
X0591932Y0206011D01*
X0591939Y0206196D01*
X0591950Y0206381D01*
X0591966Y0206565D01*
X0591987Y0206749D01*
X0592012Y0206932D01*
X0592041Y0207115D01*
X0592075Y0207297D01*
X0592113Y0207478D01*
X0592156Y0207658D01*
X0592203Y0207837D01*
X0592255Y0208014D01*
X0592311Y0208191D01*
X0592371Y0208366D01*
X0592435Y0208539D01*
X0592504Y0208711D01*
X0592577Y0208881D01*
X0592654Y0209049D01*
X0592735Y0209216D01*
X0592820Y0209380D01*
X0592909Y0209542D01*
X0593003Y0209702D01*
X0593100Y0209859D01*
X0593201Y0210014D01*
X0593305Y0210167D01*
X0593414Y0210317D01*
X0593526Y0210464D01*
X0593641Y0210609D01*
X0593760Y0210750D01*
X0593883Y0210889D01*
X0594009Y0211024D01*
X0594138Y0211157D01*
X0594271Y0211286D01*
X0594406Y0211412D01*
X0594545Y0211535D01*
X0594686Y0211654D01*
X0594831Y0211769D01*
X0594978Y0211881D01*
X0595128Y0211990D01*
X0595281Y0212094D01*
X0595436Y0212195D01*
X0595593Y0212292D01*
X0595753Y0212386D01*
X0595915Y0212475D01*
X0596079Y0212560D01*
X0596246Y0212641D01*
X0596414Y0212718D01*
X0596584Y0212791D01*
X0596756Y0212860D01*
X0596929Y0212924D01*
X0597104Y0212984D01*
X0597281Y0213040D01*
X0597458Y0213092D01*
X0597637Y0213139D01*
X0597817Y0213182D01*
X0597998Y0213220D01*
X0598180Y0213254D01*
X0598363Y0213283D01*
X0598546Y0213308D01*
X0598730Y0213329D01*
X0598914Y0213345D01*
X0599099Y0213356D01*
X0599284Y0213363D01*
X0599469Y0213365D01*
X0599654Y0213363D01*
X0599839Y0213356D01*
X0600024Y0213345D01*
X0600208Y0213329D01*
X0600392Y0213308D01*
X0600575Y0213283D01*
X0600758Y0213254D01*
X0600940Y0213220D01*
X0601121Y0213182D01*
X0601301Y0213139D01*
X0601480Y0213092D01*
X0601657Y0213040D01*
X0601834Y0212984D01*
X0602009Y0212924D01*
X0602182Y0212860D01*
X0602354Y0212791D01*
X0602524Y0212718D01*
X0602692Y0212641D01*
X0602859Y0212560D01*
X0603023Y0212475D01*
X0603185Y0212386D01*
X0603345Y0212292D01*
X0603502Y0212195D01*
X0603657Y0212094D01*
X0603810Y0211990D01*
X0603960Y0211881D01*
X0604107Y0211769D01*
X0604252Y0211654D01*
X0604393Y0211535D01*
X0604532Y0211412D01*
X0604667Y0211286D01*
X0604800Y0211157D01*
X0604929Y0211024D01*
X0605055Y0210889D01*
X0605178Y0210750D01*
X0605297Y0210609D01*
X0605412Y0210464D01*
X0605524Y0210317D01*
X0605633Y0210167D01*
X0605737Y0210014D01*
X0605838Y0209859D01*
X0605935Y0209702D01*
X0606029Y0209542D01*
X0606118Y0209380D01*
X0606203Y0209216D01*
X0606284Y0209049D01*
X0606361Y0208881D01*
X0606434Y0208711D01*
X0606503Y0208539D01*
X0606567Y0208366D01*
X0606627Y0208191D01*
X0606683Y0208014D01*
X0606735Y0207837D01*
X0606782Y0207658D01*
X0606825Y0207478D01*
X0606863Y0207297D01*
X0606897Y0207115D01*
X0606926Y0206932D01*
X0606951Y0206749D01*
X0606972Y0206565D01*
X0606988Y0206381D01*
X0606999Y0206196D01*
X0607006Y0206011D01*
X0607008Y0205826D01*
X0607006Y0205641D01*
X0606999Y0205456D01*
X0606988Y0205271D01*
X0606972Y0205087D01*
X0606951Y0204903D01*
X0606926Y0204720D01*
X0606897Y0204537D01*
X0606863Y0204355D01*
X0606825Y0204174D01*
X0606782Y0203994D01*
X0606735Y0203815D01*
X0606683Y0203638D01*
X0606627Y0203461D01*
X0606567Y0203286D01*
X0606503Y0203113D01*
X0606434Y0202941D01*
X0606361Y0202771D01*
X0606284Y0202603D01*
X0606203Y0202436D01*
X0606118Y0202272D01*
X0606029Y0202110D01*
X0605935Y0201950D01*
X0605838Y0201793D01*
X0605737Y0201638D01*
X0605633Y0201485D01*
X0605524Y0201335D01*
X0605412Y0201188D01*
X0605297Y0201043D01*
X0605178Y0200902D01*
X0605055Y0200763D01*
X0604929Y0200628D01*
X0604800Y0200495D01*
X0604667Y0200366D01*
X0604532Y0200240D01*
X0604393Y0200117D01*
X0604252Y0199998D01*
X0604107Y0199883D01*
X0603960Y0199771D01*
X0603810Y0199662D01*
X0603657Y0199558D01*
X0603502Y0199457D01*
X0603345Y0199360D01*
X0603185Y0199266D01*
X0603023Y0199177D01*
X0602859Y0199092D01*
X0602692Y0199011D01*
X0602524Y0198934D01*
X0602354Y0198861D01*
X0602182Y0198792D01*
X0602009Y0198728D01*
X0601834Y0198668D01*
X0601657Y0198612D01*
X0601480Y0198560D01*
X0601301Y0198513D01*
X0601121Y0198470D01*
X0600940Y0198432D01*
X0600758Y0198398D01*
X0600575Y0198369D01*
X0600392Y0198344D01*
X0600208Y0198323D01*
X0600024Y0198307D01*
X0599839Y0198296D01*
X0599654Y0198289D01*
X0599469Y0198287D01*
X0599284Y0198289D01*
X0599099Y0198296D01*
X0598914Y0198307D01*
X0598730Y0198323D01*
X0598546Y0198344D01*
X0598363Y0198369D01*
X0598180Y0198398D01*
X0597998Y0198432D01*
X0597817Y0198470D01*
X0597637Y0198513D01*
X0597458Y0198560D01*
X0597281Y0198612D01*
X0597104Y0198668D01*
X0596929Y0198728D01*
X0596756Y0198792D01*
X0596584Y0198861D01*
X0596414Y0198934D01*
X0596246Y0199011D01*
X0596079Y0199092D01*
X0595915Y0199177D01*
X0595753Y0199266D01*
X0595593Y0199360D01*
X0595436Y0199457D01*
X0595281Y0199558D01*
X0595128Y0199662D01*
X0594978Y0199771D01*
X0594831Y0199883D01*
X0594686Y0199998D01*
X0594545Y0200117D01*
X0594406Y0200240D01*
X0594271Y0200366D01*
X0594138Y0200495D01*
X0594009Y0200628D01*
X0593883Y0200763D01*
X0593760Y0200902D01*
X0593641Y0201043D01*
X0593526Y0201188D01*
X0593414Y0201335D01*
X0593305Y0201485D01*
X0593201Y0201638D01*
X0593100Y0201793D01*
X0593003Y0201950D01*
X0592909Y0202110D01*
X0592820Y0202272D01*
X0592735Y0202436D01*
X0592654Y0202603D01*
X0592577Y0202771D01*
X0592504Y0202941D01*
X0592435Y0203113D01*
X0592371Y0203286D01*
X0592311Y0203461D01*
X0592255Y0203638D01*
X0592203Y0203815D01*
X0592156Y0203994D01*
X0592113Y0204174D01*
X0592075Y0204355D01*
X0592041Y0204537D01*
X0592012Y0204720D01*
X0591987Y0204903D01*
X0591966Y0205087D01*
X0591950Y0205271D01*
X0591939Y0205456D01*
X0591932Y0205641D01*
X0591930Y0205826D01*
X0589629Y0195826D02*
X0589629Y0275826D01*
X0583622Y0275826D01*
X0589629Y0275826D02*
X0591530Y0275826D01*
X0607266Y0275826D01*
X0609204Y0275826D01*
X0591930Y0265826D02*
X0591932Y0266011D01*
X0591939Y0266196D01*
X0591950Y0266381D01*
X0591966Y0266565D01*
X0591987Y0266749D01*
X0592012Y0266932D01*
X0592041Y0267115D01*
X0592075Y0267297D01*
X0592113Y0267478D01*
X0592156Y0267658D01*
X0592203Y0267837D01*
X0592255Y0268014D01*
X0592311Y0268191D01*
X0592371Y0268366D01*
X0592435Y0268539D01*
X0592504Y0268711D01*
X0592577Y0268881D01*
X0592654Y0269049D01*
X0592735Y0269216D01*
X0592820Y0269380D01*
X0592909Y0269542D01*
X0593003Y0269702D01*
X0593100Y0269859D01*
X0593201Y0270014D01*
X0593305Y0270167D01*
X0593414Y0270317D01*
X0593526Y0270464D01*
X0593641Y0270609D01*
X0593760Y0270750D01*
X0593883Y0270889D01*
X0594009Y0271024D01*
X0594138Y0271157D01*
X0594271Y0271286D01*
X0594406Y0271412D01*
X0594545Y0271535D01*
X0594686Y0271654D01*
X0594831Y0271769D01*
X0594978Y0271881D01*
X0595128Y0271990D01*
X0595281Y0272094D01*
X0595436Y0272195D01*
X0595593Y0272292D01*
X0595753Y0272386D01*
X0595915Y0272475D01*
X0596079Y0272560D01*
X0596246Y0272641D01*
X0596414Y0272718D01*
X0596584Y0272791D01*
X0596756Y0272860D01*
X0596929Y0272924D01*
X0597104Y0272984D01*
X0597281Y0273040D01*
X0597458Y0273092D01*
X0597637Y0273139D01*
X0597817Y0273182D01*
X0597998Y0273220D01*
X0598180Y0273254D01*
X0598363Y0273283D01*
X0598546Y0273308D01*
X0598730Y0273329D01*
X0598914Y0273345D01*
X0599099Y0273356D01*
X0599284Y0273363D01*
X0599469Y0273365D01*
X0599654Y0273363D01*
X0599839Y0273356D01*
X0600024Y0273345D01*
X0600208Y0273329D01*
X0600392Y0273308D01*
X0600575Y0273283D01*
X0600758Y0273254D01*
X0600940Y0273220D01*
X0601121Y0273182D01*
X0601301Y0273139D01*
X0601480Y0273092D01*
X0601657Y0273040D01*
X0601834Y0272984D01*
X0602009Y0272924D01*
X0602182Y0272860D01*
X0602354Y0272791D01*
X0602524Y0272718D01*
X0602692Y0272641D01*
X0602859Y0272560D01*
X0603023Y0272475D01*
X0603185Y0272386D01*
X0603345Y0272292D01*
X0603502Y0272195D01*
X0603657Y0272094D01*
X0603810Y0271990D01*
X0603960Y0271881D01*
X0604107Y0271769D01*
X0604252Y0271654D01*
X0604393Y0271535D01*
X0604532Y0271412D01*
X0604667Y0271286D01*
X0604800Y0271157D01*
X0604929Y0271024D01*
X0605055Y0270889D01*
X0605178Y0270750D01*
X0605297Y0270609D01*
X0605412Y0270464D01*
X0605524Y0270317D01*
X0605633Y0270167D01*
X0605737Y0270014D01*
X0605838Y0269859D01*
X0605935Y0269702D01*
X0606029Y0269542D01*
X0606118Y0269380D01*
X0606203Y0269216D01*
X0606284Y0269049D01*
X0606361Y0268881D01*
X0606434Y0268711D01*
X0606503Y0268539D01*
X0606567Y0268366D01*
X0606627Y0268191D01*
X0606683Y0268014D01*
X0606735Y0267837D01*
X0606782Y0267658D01*
X0606825Y0267478D01*
X0606863Y0267297D01*
X0606897Y0267115D01*
X0606926Y0266932D01*
X0606951Y0266749D01*
X0606972Y0266565D01*
X0606988Y0266381D01*
X0606999Y0266196D01*
X0607006Y0266011D01*
X0607008Y0265826D01*
X0607006Y0265641D01*
X0606999Y0265456D01*
X0606988Y0265271D01*
X0606972Y0265087D01*
X0606951Y0264903D01*
X0606926Y0264720D01*
X0606897Y0264537D01*
X0606863Y0264355D01*
X0606825Y0264174D01*
X0606782Y0263994D01*
X0606735Y0263815D01*
X0606683Y0263638D01*
X0606627Y0263461D01*
X0606567Y0263286D01*
X0606503Y0263113D01*
X0606434Y0262941D01*
X0606361Y0262771D01*
X0606284Y0262603D01*
X0606203Y0262436D01*
X0606118Y0262272D01*
X0606029Y0262110D01*
X0605935Y0261950D01*
X0605838Y0261793D01*
X0605737Y0261638D01*
X0605633Y0261485D01*
X0605524Y0261335D01*
X0605412Y0261188D01*
X0605297Y0261043D01*
X0605178Y0260902D01*
X0605055Y0260763D01*
X0604929Y0260628D01*
X0604800Y0260495D01*
X0604667Y0260366D01*
X0604532Y0260240D01*
X0604393Y0260117D01*
X0604252Y0259998D01*
X0604107Y0259883D01*
X0603960Y0259771D01*
X0603810Y0259662D01*
X0603657Y0259558D01*
X0603502Y0259457D01*
X0603345Y0259360D01*
X0603185Y0259266D01*
X0603023Y0259177D01*
X0602859Y0259092D01*
X0602692Y0259011D01*
X0602524Y0258934D01*
X0602354Y0258861D01*
X0602182Y0258792D01*
X0602009Y0258728D01*
X0601834Y0258668D01*
X0601657Y0258612D01*
X0601480Y0258560D01*
X0601301Y0258513D01*
X0601121Y0258470D01*
X0600940Y0258432D01*
X0600758Y0258398D01*
X0600575Y0258369D01*
X0600392Y0258344D01*
X0600208Y0258323D01*
X0600024Y0258307D01*
X0599839Y0258296D01*
X0599654Y0258289D01*
X0599469Y0258287D01*
X0599284Y0258289D01*
X0599099Y0258296D01*
X0598914Y0258307D01*
X0598730Y0258323D01*
X0598546Y0258344D01*
X0598363Y0258369D01*
X0598180Y0258398D01*
X0597998Y0258432D01*
X0597817Y0258470D01*
X0597637Y0258513D01*
X0597458Y0258560D01*
X0597281Y0258612D01*
X0597104Y0258668D01*
X0596929Y0258728D01*
X0596756Y0258792D01*
X0596584Y0258861D01*
X0596414Y0258934D01*
X0596246Y0259011D01*
X0596079Y0259092D01*
X0595915Y0259177D01*
X0595753Y0259266D01*
X0595593Y0259360D01*
X0595436Y0259457D01*
X0595281Y0259558D01*
X0595128Y0259662D01*
X0594978Y0259771D01*
X0594831Y0259883D01*
X0594686Y0259998D01*
X0594545Y0260117D01*
X0594406Y0260240D01*
X0594271Y0260366D01*
X0594138Y0260495D01*
X0594009Y0260628D01*
X0593883Y0260763D01*
X0593760Y0260902D01*
X0593641Y0261043D01*
X0593526Y0261188D01*
X0593414Y0261335D01*
X0593305Y0261485D01*
X0593201Y0261638D01*
X0593100Y0261793D01*
X0593003Y0261950D01*
X0592909Y0262110D01*
X0592820Y0262272D01*
X0592735Y0262436D01*
X0592654Y0262603D01*
X0592577Y0262771D01*
X0592504Y0262941D01*
X0592435Y0263113D01*
X0592371Y0263286D01*
X0592311Y0263461D01*
X0592255Y0263638D01*
X0592203Y0263815D01*
X0592156Y0263994D01*
X0592113Y0264174D01*
X0592075Y0264355D01*
X0592041Y0264537D01*
X0592012Y0264720D01*
X0591987Y0264903D01*
X0591966Y0265087D01*
X0591950Y0265271D01*
X0591939Y0265456D01*
X0591932Y0265641D01*
X0591930Y0265826D01*
X0591930Y0245826D02*
X0591932Y0246011D01*
X0591939Y0246196D01*
X0591950Y0246381D01*
X0591966Y0246565D01*
X0591987Y0246749D01*
X0592012Y0246932D01*
X0592041Y0247115D01*
X0592075Y0247297D01*
X0592113Y0247478D01*
X0592156Y0247658D01*
X0592203Y0247837D01*
X0592255Y0248014D01*
X0592311Y0248191D01*
X0592371Y0248366D01*
X0592435Y0248539D01*
X0592504Y0248711D01*
X0592577Y0248881D01*
X0592654Y0249049D01*
X0592735Y0249216D01*
X0592820Y0249380D01*
X0592909Y0249542D01*
X0593003Y0249702D01*
X0593100Y0249859D01*
X0593201Y0250014D01*
X0593305Y0250167D01*
X0593414Y0250317D01*
X0593526Y0250464D01*
X0593641Y0250609D01*
X0593760Y0250750D01*
X0593883Y0250889D01*
X0594009Y0251024D01*
X0594138Y0251157D01*
X0594271Y0251286D01*
X0594406Y0251412D01*
X0594545Y0251535D01*
X0594686Y0251654D01*
X0594831Y0251769D01*
X0594978Y0251881D01*
X0595128Y0251990D01*
X0595281Y0252094D01*
X0595436Y0252195D01*
X0595593Y0252292D01*
X0595753Y0252386D01*
X0595915Y0252475D01*
X0596079Y0252560D01*
X0596246Y0252641D01*
X0596414Y0252718D01*
X0596584Y0252791D01*
X0596756Y0252860D01*
X0596929Y0252924D01*
X0597104Y0252984D01*
X0597281Y0253040D01*
X0597458Y0253092D01*
X0597637Y0253139D01*
X0597817Y0253182D01*
X0597998Y0253220D01*
X0598180Y0253254D01*
X0598363Y0253283D01*
X0598546Y0253308D01*
X0598730Y0253329D01*
X0598914Y0253345D01*
X0599099Y0253356D01*
X0599284Y0253363D01*
X0599469Y0253365D01*
X0599654Y0253363D01*
X0599839Y0253356D01*
X0600024Y0253345D01*
X0600208Y0253329D01*
X0600392Y0253308D01*
X0600575Y0253283D01*
X0600758Y0253254D01*
X0600940Y0253220D01*
X0601121Y0253182D01*
X0601301Y0253139D01*
X0601480Y0253092D01*
X0601657Y0253040D01*
X0601834Y0252984D01*
X0602009Y0252924D01*
X0602182Y0252860D01*
X0602354Y0252791D01*
X0602524Y0252718D01*
X0602692Y0252641D01*
X0602859Y0252560D01*
X0603023Y0252475D01*
X0603185Y0252386D01*
X0603345Y0252292D01*
X0603502Y0252195D01*
X0603657Y0252094D01*
X0603810Y0251990D01*
X0603960Y0251881D01*
X0604107Y0251769D01*
X0604252Y0251654D01*
X0604393Y0251535D01*
X0604532Y0251412D01*
X0604667Y0251286D01*
X0604800Y0251157D01*
X0604929Y0251024D01*
X0605055Y0250889D01*
X0605178Y0250750D01*
X0605297Y0250609D01*
X0605412Y0250464D01*
X0605524Y0250317D01*
X0605633Y0250167D01*
X0605737Y0250014D01*
X0605838Y0249859D01*
X0605935Y0249702D01*
X0606029Y0249542D01*
X0606118Y0249380D01*
X0606203Y0249216D01*
X0606284Y0249049D01*
X0606361Y0248881D01*
X0606434Y0248711D01*
X0606503Y0248539D01*
X0606567Y0248366D01*
X0606627Y0248191D01*
X0606683Y0248014D01*
X0606735Y0247837D01*
X0606782Y0247658D01*
X0606825Y0247478D01*
X0606863Y0247297D01*
X0606897Y0247115D01*
X0606926Y0246932D01*
X0606951Y0246749D01*
X0606972Y0246565D01*
X0606988Y0246381D01*
X0606999Y0246196D01*
X0607006Y0246011D01*
X0607008Y0245826D01*
X0607006Y0245641D01*
X0606999Y0245456D01*
X0606988Y0245271D01*
X0606972Y0245087D01*
X0606951Y0244903D01*
X0606926Y0244720D01*
X0606897Y0244537D01*
X0606863Y0244355D01*
X0606825Y0244174D01*
X0606782Y0243994D01*
X0606735Y0243815D01*
X0606683Y0243638D01*
X0606627Y0243461D01*
X0606567Y0243286D01*
X0606503Y0243113D01*
X0606434Y0242941D01*
X0606361Y0242771D01*
X0606284Y0242603D01*
X0606203Y0242436D01*
X0606118Y0242272D01*
X0606029Y0242110D01*
X0605935Y0241950D01*
X0605838Y0241793D01*
X0605737Y0241638D01*
X0605633Y0241485D01*
X0605524Y0241335D01*
X0605412Y0241188D01*
X0605297Y0241043D01*
X0605178Y0240902D01*
X0605055Y0240763D01*
X0604929Y0240628D01*
X0604800Y0240495D01*
X0604667Y0240366D01*
X0604532Y0240240D01*
X0604393Y0240117D01*
X0604252Y0239998D01*
X0604107Y0239883D01*
X0603960Y0239771D01*
X0603810Y0239662D01*
X0603657Y0239558D01*
X0603502Y0239457D01*
X0603345Y0239360D01*
X0603185Y0239266D01*
X0603023Y0239177D01*
X0602859Y0239092D01*
X0602692Y0239011D01*
X0602524Y0238934D01*
X0602354Y0238861D01*
X0602182Y0238792D01*
X0602009Y0238728D01*
X0601834Y0238668D01*
X0601657Y0238612D01*
X0601480Y0238560D01*
X0601301Y0238513D01*
X0601121Y0238470D01*
X0600940Y0238432D01*
X0600758Y0238398D01*
X0600575Y0238369D01*
X0600392Y0238344D01*
X0600208Y0238323D01*
X0600024Y0238307D01*
X0599839Y0238296D01*
X0599654Y0238289D01*
X0599469Y0238287D01*
X0599284Y0238289D01*
X0599099Y0238296D01*
X0598914Y0238307D01*
X0598730Y0238323D01*
X0598546Y0238344D01*
X0598363Y0238369D01*
X0598180Y0238398D01*
X0597998Y0238432D01*
X0597817Y0238470D01*
X0597637Y0238513D01*
X0597458Y0238560D01*
X0597281Y0238612D01*
X0597104Y0238668D01*
X0596929Y0238728D01*
X0596756Y0238792D01*
X0596584Y0238861D01*
X0596414Y0238934D01*
X0596246Y0239011D01*
X0596079Y0239092D01*
X0595915Y0239177D01*
X0595753Y0239266D01*
X0595593Y0239360D01*
X0595436Y0239457D01*
X0595281Y0239558D01*
X0595128Y0239662D01*
X0594978Y0239771D01*
X0594831Y0239883D01*
X0594686Y0239998D01*
X0594545Y0240117D01*
X0594406Y0240240D01*
X0594271Y0240366D01*
X0594138Y0240495D01*
X0594009Y0240628D01*
X0593883Y0240763D01*
X0593760Y0240902D01*
X0593641Y0241043D01*
X0593526Y0241188D01*
X0593414Y0241335D01*
X0593305Y0241485D01*
X0593201Y0241638D01*
X0593100Y0241793D01*
X0593003Y0241950D01*
X0592909Y0242110D01*
X0592820Y0242272D01*
X0592735Y0242436D01*
X0592654Y0242603D01*
X0592577Y0242771D01*
X0592504Y0242941D01*
X0592435Y0243113D01*
X0592371Y0243286D01*
X0592311Y0243461D01*
X0592255Y0243638D01*
X0592203Y0243815D01*
X0592156Y0243994D01*
X0592113Y0244174D01*
X0592075Y0244355D01*
X0592041Y0244537D01*
X0592012Y0244720D01*
X0591987Y0244903D01*
X0591966Y0245087D01*
X0591950Y0245271D01*
X0591939Y0245456D01*
X0591932Y0245641D01*
X0591930Y0245826D01*
X0591930Y0225826D02*
X0591932Y0226011D01*
X0591939Y0226196D01*
X0591950Y0226381D01*
X0591966Y0226565D01*
X0591987Y0226749D01*
X0592012Y0226932D01*
X0592041Y0227115D01*
X0592075Y0227297D01*
X0592113Y0227478D01*
X0592156Y0227658D01*
X0592203Y0227837D01*
X0592255Y0228014D01*
X0592311Y0228191D01*
X0592371Y0228366D01*
X0592435Y0228539D01*
X0592504Y0228711D01*
X0592577Y0228881D01*
X0592654Y0229049D01*
X0592735Y0229216D01*
X0592820Y0229380D01*
X0592909Y0229542D01*
X0593003Y0229702D01*
X0593100Y0229859D01*
X0593201Y0230014D01*
X0593305Y0230167D01*
X0593414Y0230317D01*
X0593526Y0230464D01*
X0593641Y0230609D01*
X0593760Y0230750D01*
X0593883Y0230889D01*
X0594009Y0231024D01*
X0594138Y0231157D01*
X0594271Y0231286D01*
X0594406Y0231412D01*
X0594545Y0231535D01*
X0594686Y0231654D01*
X0594831Y0231769D01*
X0594978Y0231881D01*
X0595128Y0231990D01*
X0595281Y0232094D01*
X0595436Y0232195D01*
X0595593Y0232292D01*
X0595753Y0232386D01*
X0595915Y0232475D01*
X0596079Y0232560D01*
X0596246Y0232641D01*
X0596414Y0232718D01*
X0596584Y0232791D01*
X0596756Y0232860D01*
X0596929Y0232924D01*
X0597104Y0232984D01*
X0597281Y0233040D01*
X0597458Y0233092D01*
X0597637Y0233139D01*
X0597817Y0233182D01*
X0597998Y0233220D01*
X0598180Y0233254D01*
X0598363Y0233283D01*
X0598546Y0233308D01*
X0598730Y0233329D01*
X0598914Y0233345D01*
X0599099Y0233356D01*
X0599284Y0233363D01*
X0599469Y0233365D01*
X0599654Y0233363D01*
X0599839Y0233356D01*
X0600024Y0233345D01*
X0600208Y0233329D01*
X0600392Y0233308D01*
X0600575Y0233283D01*
X0600758Y0233254D01*
X0600940Y0233220D01*
X0601121Y0233182D01*
X0601301Y0233139D01*
X0601480Y0233092D01*
X0601657Y0233040D01*
X0601834Y0232984D01*
X0602009Y0232924D01*
X0602182Y0232860D01*
X0602354Y0232791D01*
X0602524Y0232718D01*
X0602692Y0232641D01*
X0602859Y0232560D01*
X0603023Y0232475D01*
X0603185Y0232386D01*
X0603345Y0232292D01*
X0603502Y0232195D01*
X0603657Y0232094D01*
X0603810Y0231990D01*
X0603960Y0231881D01*
X0604107Y0231769D01*
X0604252Y0231654D01*
X0604393Y0231535D01*
X0604532Y0231412D01*
X0604667Y0231286D01*
X0604800Y0231157D01*
X0604929Y0231024D01*
X0605055Y0230889D01*
X0605178Y0230750D01*
X0605297Y0230609D01*
X0605412Y0230464D01*
X0605524Y0230317D01*
X0605633Y0230167D01*
X0605737Y0230014D01*
X0605838Y0229859D01*
X0605935Y0229702D01*
X0606029Y0229542D01*
X0606118Y0229380D01*
X0606203Y0229216D01*
X0606284Y0229049D01*
X0606361Y0228881D01*
X0606434Y0228711D01*
X0606503Y0228539D01*
X0606567Y0228366D01*
X0606627Y0228191D01*
X0606683Y0228014D01*
X0606735Y0227837D01*
X0606782Y0227658D01*
X0606825Y0227478D01*
X0606863Y0227297D01*
X0606897Y0227115D01*
X0606926Y0226932D01*
X0606951Y0226749D01*
X0606972Y0226565D01*
X0606988Y0226381D01*
X0606999Y0226196D01*
X0607006Y0226011D01*
X0607008Y0225826D01*
X0607006Y0225641D01*
X0606999Y0225456D01*
X0606988Y0225271D01*
X0606972Y0225087D01*
X0606951Y0224903D01*
X0606926Y0224720D01*
X0606897Y0224537D01*
X0606863Y0224355D01*
X0606825Y0224174D01*
X0606782Y0223994D01*
X0606735Y0223815D01*
X0606683Y0223638D01*
X0606627Y0223461D01*
X0606567Y0223286D01*
X0606503Y0223113D01*
X0606434Y0222941D01*
X0606361Y0222771D01*
X0606284Y0222603D01*
X0606203Y0222436D01*
X0606118Y0222272D01*
X0606029Y0222110D01*
X0605935Y0221950D01*
X0605838Y0221793D01*
X0605737Y0221638D01*
X0605633Y0221485D01*
X0605524Y0221335D01*
X0605412Y0221188D01*
X0605297Y0221043D01*
X0605178Y0220902D01*
X0605055Y0220763D01*
X0604929Y0220628D01*
X0604800Y0220495D01*
X0604667Y0220366D01*
X0604532Y0220240D01*
X0604393Y0220117D01*
X0604252Y0219998D01*
X0604107Y0219883D01*
X0603960Y0219771D01*
X0603810Y0219662D01*
X0603657Y0219558D01*
X0603502Y0219457D01*
X0603345Y0219360D01*
X0603185Y0219266D01*
X0603023Y0219177D01*
X0602859Y0219092D01*
X0602692Y0219011D01*
X0602524Y0218934D01*
X0602354Y0218861D01*
X0602182Y0218792D01*
X0602009Y0218728D01*
X0601834Y0218668D01*
X0601657Y0218612D01*
X0601480Y0218560D01*
X0601301Y0218513D01*
X0601121Y0218470D01*
X0600940Y0218432D01*
X0600758Y0218398D01*
X0600575Y0218369D01*
X0600392Y0218344D01*
X0600208Y0218323D01*
X0600024Y0218307D01*
X0599839Y0218296D01*
X0599654Y0218289D01*
X0599469Y0218287D01*
X0599284Y0218289D01*
X0599099Y0218296D01*
X0598914Y0218307D01*
X0598730Y0218323D01*
X0598546Y0218344D01*
X0598363Y0218369D01*
X0598180Y0218398D01*
X0597998Y0218432D01*
X0597817Y0218470D01*
X0597637Y0218513D01*
X0597458Y0218560D01*
X0597281Y0218612D01*
X0597104Y0218668D01*
X0596929Y0218728D01*
X0596756Y0218792D01*
X0596584Y0218861D01*
X0596414Y0218934D01*
X0596246Y0219011D01*
X0596079Y0219092D01*
X0595915Y0219177D01*
X0595753Y0219266D01*
X0595593Y0219360D01*
X0595436Y0219457D01*
X0595281Y0219558D01*
X0595128Y0219662D01*
X0594978Y0219771D01*
X0594831Y0219883D01*
X0594686Y0219998D01*
X0594545Y0220117D01*
X0594406Y0220240D01*
X0594271Y0220366D01*
X0594138Y0220495D01*
X0594009Y0220628D01*
X0593883Y0220763D01*
X0593760Y0220902D01*
X0593641Y0221043D01*
X0593526Y0221188D01*
X0593414Y0221335D01*
X0593305Y0221485D01*
X0593201Y0221638D01*
X0593100Y0221793D01*
X0593003Y0221950D01*
X0592909Y0222110D01*
X0592820Y0222272D01*
X0592735Y0222436D01*
X0592654Y0222603D01*
X0592577Y0222771D01*
X0592504Y0222941D01*
X0592435Y0223113D01*
X0592371Y0223286D01*
X0592311Y0223461D01*
X0592255Y0223638D01*
X0592203Y0223815D01*
X0592156Y0223994D01*
X0592113Y0224174D01*
X0592075Y0224355D01*
X0592041Y0224537D01*
X0592012Y0224720D01*
X0591987Y0224903D01*
X0591966Y0225087D01*
X0591950Y0225271D01*
X0591939Y0225456D01*
X0591932Y0225641D01*
X0591930Y0225826D01*
M02*
