G75*
%MOIN*%
%OFA0B0*%
%FSLAX25Y25*%
%IPPOS*%
%LPD*%
%AMOC8*
5,1,8,0,0,1.08239X$1,22.5*
%
%ADD10C,0.01000*%
%ADD11C,0.01100*%
D10*
X0595648Y0044787D02*
X0595748Y0044787D01*
D11*
X0229684Y0059274D02*
X0225748Y0055337D01*
X0229684Y0055337D01*
X0232193Y0056322D02*
X0236130Y0060258D01*
X0236130Y0056322D01*
X0235146Y0055337D01*
X0233177Y0055337D01*
X0232193Y0056322D01*
X0232193Y0060258D01*
X0233177Y0061242D01*
X0235146Y0061242D01*
X0236130Y0060258D01*
X0238639Y0059274D02*
X0240607Y0061242D01*
X0240607Y0055337D01*
X0238639Y0055337D02*
X0242575Y0055337D01*
X0245084Y0056322D02*
X0246068Y0055337D01*
X0248037Y0055337D01*
X0249021Y0056322D01*
X0249021Y0058290D01*
X0248037Y0059274D01*
X0247052Y0059274D01*
X0245084Y0058290D01*
X0245084Y0061242D01*
X0249021Y0061242D01*
X0251530Y0060258D02*
X0252514Y0061242D01*
X0254482Y0061242D01*
X0255466Y0060258D01*
X0251530Y0056322D01*
X0252514Y0055337D01*
X0254482Y0055337D01*
X0255466Y0056322D01*
X0255466Y0060258D01*
X0257975Y0060258D02*
X0257975Y0059274D01*
X0258959Y0058290D01*
X0261912Y0058290D01*
X0261912Y0060258D02*
X0260928Y0061242D01*
X0258959Y0061242D01*
X0257975Y0060258D01*
X0257975Y0056322D02*
X0258959Y0055337D01*
X0260928Y0055337D01*
X0261912Y0056322D01*
X0261912Y0060258D01*
X0264421Y0059274D02*
X0266389Y0061242D01*
X0266389Y0055337D01*
X0264421Y0055337D02*
X0268357Y0055337D01*
X0270866Y0055337D02*
X0274803Y0055337D01*
X0272834Y0055337D02*
X0272834Y0061242D01*
X0270866Y0059274D01*
X0283757Y0061242D02*
X0283757Y0055337D01*
X0287694Y0055337D01*
X0290203Y0055337D02*
X0292171Y0055337D01*
X0291187Y0055337D02*
X0291187Y0059274D01*
X0290203Y0059274D01*
X0291187Y0061242D02*
X0291187Y0062227D01*
X0294500Y0058290D02*
X0294500Y0056322D01*
X0295484Y0055337D01*
X0298436Y0055337D01*
X0300945Y0056322D02*
X0300945Y0058290D01*
X0301929Y0059274D01*
X0303898Y0059274D01*
X0304882Y0058290D01*
X0304882Y0057306D01*
X0300945Y0057306D01*
X0300945Y0056322D02*
X0301929Y0055337D01*
X0303898Y0055337D01*
X0307391Y0055337D02*
X0307391Y0059274D01*
X0310343Y0059274D01*
X0311327Y0058290D01*
X0311327Y0055337D01*
X0313836Y0055337D02*
X0316789Y0055337D01*
X0317773Y0056322D01*
X0316789Y0057306D01*
X0314820Y0057306D01*
X0313836Y0058290D01*
X0314820Y0059274D01*
X0317773Y0059274D01*
X0320282Y0058290D02*
X0321266Y0059274D01*
X0323234Y0059274D01*
X0324218Y0058290D01*
X0324218Y0057306D01*
X0320282Y0057306D01*
X0320282Y0056322D02*
X0320282Y0058290D01*
X0320282Y0056322D02*
X0321266Y0055337D01*
X0323234Y0055337D01*
X0326727Y0056322D02*
X0326727Y0058290D01*
X0327711Y0059274D01*
X0330664Y0059274D01*
X0330664Y0061242D02*
X0330664Y0055337D01*
X0327711Y0055337D01*
X0326727Y0056322D01*
X0339618Y0056322D02*
X0340602Y0055337D01*
X0343555Y0055337D01*
X0343555Y0059274D01*
X0346064Y0059274D02*
X0346064Y0055337D01*
X0350000Y0055337D02*
X0350000Y0058290D01*
X0349016Y0059274D01*
X0346064Y0059274D01*
X0339618Y0059274D02*
X0339618Y0056322D01*
X0352509Y0056322D02*
X0353493Y0055337D01*
X0356446Y0055337D01*
X0356446Y0061242D01*
X0356446Y0059274D02*
X0353493Y0059274D01*
X0352509Y0058290D01*
X0352509Y0056322D01*
X0358955Y0056322D02*
X0359939Y0055337D01*
X0361907Y0055337D01*
X0362891Y0057306D02*
X0358955Y0057306D01*
X0358955Y0058290D02*
X0359939Y0059274D01*
X0361907Y0059274D01*
X0362891Y0058290D01*
X0362891Y0057306D01*
X0365400Y0057306D02*
X0367368Y0059274D01*
X0368353Y0059274D01*
X0365400Y0059274D02*
X0365400Y0055337D01*
X0358955Y0056322D02*
X0358955Y0058290D01*
X0377217Y0060258D02*
X0377217Y0056322D01*
X0378201Y0055337D01*
X0380169Y0055337D01*
X0381154Y0056322D01*
X0383662Y0055337D02*
X0387599Y0055337D01*
X0390108Y0055337D02*
X0390108Y0061242D01*
X0393060Y0061242D01*
X0394045Y0060258D01*
X0394045Y0058290D01*
X0393060Y0057306D01*
X0390108Y0057306D01*
X0392076Y0057306D02*
X0394045Y0055337D01*
X0396553Y0055337D02*
X0396553Y0061242D01*
X0400490Y0055337D01*
X0400490Y0061242D01*
X0409444Y0060258D02*
X0409444Y0056322D01*
X0410428Y0055337D01*
X0412397Y0055337D01*
X0413381Y0056322D01*
X0413381Y0060258D01*
X0412397Y0061242D01*
X0410428Y0061242D01*
X0409444Y0060258D01*
X0415890Y0061242D02*
X0415890Y0055337D01*
X0415890Y0058290D02*
X0419826Y0058290D01*
X0419826Y0061242D02*
X0419826Y0055337D01*
X0422335Y0055337D02*
X0426272Y0055337D01*
X0422335Y0055337D02*
X0422335Y0061242D01*
X0435226Y0059274D02*
X0437195Y0055337D01*
X0439163Y0059274D01*
X0441672Y0056322D02*
X0442656Y0056322D01*
X0442656Y0055337D01*
X0441672Y0055337D01*
X0441672Y0056322D01*
X0444895Y0055337D02*
X0448831Y0055337D01*
X0446863Y0055337D02*
X0446863Y0061242D01*
X0444895Y0059274D01*
X0451340Y0056322D02*
X0451340Y0055337D01*
X0452324Y0055337D01*
X0452324Y0056322D01*
X0451340Y0056322D01*
X0454563Y0055337D02*
X0458499Y0059274D01*
X0458499Y0060258D01*
X0457515Y0061242D01*
X0455547Y0061242D01*
X0454563Y0060258D01*
X0454563Y0055337D02*
X0458499Y0055337D01*
X0387599Y0061242D02*
X0383662Y0061242D01*
X0383662Y0055337D01*
X0383662Y0058290D02*
X0385631Y0058290D01*
X0381154Y0060258D02*
X0380169Y0061242D01*
X0378201Y0061242D01*
X0377217Y0060258D01*
X0298436Y0059274D02*
X0295484Y0059274D01*
X0294500Y0058290D01*
X0251530Y0056322D02*
X0251530Y0060258D01*
X0229684Y0060258D02*
X0228700Y0061242D01*
X0226732Y0061242D01*
X0225748Y0060258D01*
X0229684Y0060258D02*
X0229684Y0059274D01*
X0070141Y0193048D02*
X0064236Y0193048D01*
X0070141Y0193048D02*
X0070141Y0196985D01*
X0069157Y0199494D02*
X0070141Y0200478D01*
X0070141Y0202446D01*
X0069157Y0203431D01*
X0067189Y0203431D01*
X0066205Y0202446D01*
X0066205Y0200478D01*
X0067189Y0199494D01*
X0069157Y0199494D01*
X0069157Y0205939D02*
X0066205Y0205939D01*
X0069157Y0205939D02*
X0070141Y0206924D01*
X0069157Y0207908D01*
X0070141Y0208892D01*
X0069157Y0209876D01*
X0066205Y0209876D01*
X0067189Y0212385D02*
X0066205Y0213369D01*
X0066205Y0215337D01*
X0067189Y0216322D01*
X0068173Y0216322D01*
X0068173Y0212385D01*
X0069157Y0212385D02*
X0067189Y0212385D01*
X0069157Y0212385D02*
X0070141Y0213369D01*
X0070141Y0215337D01*
X0070141Y0218830D02*
X0066205Y0218830D01*
X0068173Y0218830D02*
X0066205Y0220799D01*
X0066205Y0221783D01*
X0067189Y0230647D02*
X0066205Y0231631D01*
X0066205Y0233600D01*
X0067189Y0234584D01*
X0070141Y0234584D01*
X0069157Y0237093D02*
X0067189Y0237093D01*
X0066205Y0238077D01*
X0066205Y0240045D01*
X0067189Y0241029D01*
X0068173Y0241029D01*
X0068173Y0237093D01*
X0069157Y0237093D02*
X0070141Y0238077D01*
X0070141Y0240045D01*
X0069157Y0243538D02*
X0068173Y0244522D01*
X0068173Y0247475D01*
X0067189Y0247475D02*
X0070141Y0247475D01*
X0070141Y0244522D01*
X0069157Y0243538D01*
X0066205Y0244522D02*
X0066205Y0246491D01*
X0067189Y0247475D01*
X0066205Y0249984D02*
X0066205Y0251952D01*
X0065220Y0250968D02*
X0069157Y0250968D01*
X0070141Y0251952D01*
X0069157Y0254281D02*
X0067189Y0254281D01*
X0066205Y0255265D01*
X0066205Y0257233D01*
X0067189Y0258217D01*
X0068173Y0258217D01*
X0068173Y0254281D01*
X0069157Y0254281D02*
X0070141Y0255265D01*
X0070141Y0257233D01*
X0070141Y0260726D02*
X0066205Y0260726D01*
X0068173Y0260726D02*
X0066205Y0262694D01*
X0066205Y0263679D01*
X0065220Y0272543D02*
X0064236Y0273527D01*
X0064236Y0275495D01*
X0065220Y0276480D01*
X0069157Y0272543D01*
X0070141Y0273527D01*
X0070141Y0275495D01*
X0069157Y0276480D01*
X0065220Y0276480D01*
X0066205Y0278988D02*
X0064236Y0280957D01*
X0070141Y0280957D01*
X0070141Y0282925D02*
X0070141Y0278988D01*
X0069157Y0285434D02*
X0065220Y0285434D01*
X0064236Y0286418D01*
X0064236Y0288386D01*
X0065220Y0289371D01*
X0069157Y0285434D01*
X0070141Y0286418D01*
X0070141Y0288386D01*
X0069157Y0289371D01*
X0065220Y0289371D01*
X0065220Y0272543D02*
X0069157Y0272543D01*
X0070141Y0230647D02*
X0064236Y0230647D01*
X0308403Y0414050D02*
X0308403Y0419955D01*
X0310371Y0417987D01*
X0312339Y0419955D01*
X0312339Y0414050D01*
X0314848Y0414050D02*
X0316817Y0414050D01*
X0315832Y0414050D02*
X0315832Y0417987D01*
X0314848Y0417987D01*
X0315832Y0419955D02*
X0315832Y0420939D01*
X0319145Y0417987D02*
X0319145Y0414050D01*
X0319145Y0416018D02*
X0321114Y0417987D01*
X0322098Y0417987D01*
X0324516Y0417987D02*
X0325501Y0417987D01*
X0325501Y0414050D01*
X0326485Y0414050D02*
X0324516Y0414050D01*
X0328813Y0415034D02*
X0329798Y0416018D01*
X0332750Y0416018D01*
X0332750Y0417003D02*
X0332750Y0414050D01*
X0329798Y0414050D01*
X0328813Y0415034D01*
X0329798Y0417987D02*
X0331766Y0417987D01*
X0332750Y0417003D01*
X0335259Y0417987D02*
X0335259Y0414050D01*
X0337227Y0414050D02*
X0337227Y0417003D01*
X0338212Y0417987D01*
X0339196Y0417003D01*
X0339196Y0414050D01*
X0337227Y0417003D02*
X0336243Y0417987D01*
X0335259Y0417987D01*
X0325501Y0419955D02*
X0325501Y0420939D01*
M02*
