%
M48
M72
T01C0.0400
T02C0.1260
T03C0.2000
%
T01
X59760Y12969
X59570Y33739
T02
X6571Y5660
X6571Y41676
X60413Y41676
X60413Y5660
T03
X51996Y11266
X48453Y11266
X44909Y11266
X41366Y11266
X37823Y11266
X34280Y11266
X30736Y11266
X27193Y11266
X23650Y11266
X20106Y11266
X16563Y11266
X13020Y11266
X13020Y14809
X16563Y14809
X20106Y14809
X23650Y14809
X27193Y14809
X30736Y14809
X34280Y14809
X37823Y14809
X41366Y14809
X44909Y14809
X48453Y14809
X51996Y14809
X51996Y18353
X48453Y18353
X44909Y18353
X41366Y18353
X37823Y18353
X34280Y18353
X30736Y18353
X27193Y18353
X23650Y18353
X20106Y18353
X16563Y18353
X13020Y18353
X13020Y21896
X16563Y21896
X20106Y21896
X23650Y21896
X27193Y21896
X30736Y21896
X34280Y21896
X37823Y21896
X41366Y21896
X44909Y21896
X48453Y21896
X51996Y21896
X51996Y25439
X48453Y25439
X44909Y25439
X41366Y25439
X37823Y25439
X34280Y25439
X30736Y25439
X27193Y25439
X23650Y25439
X20106Y25439
X16563Y25439
X13020Y25439
X13020Y28983
X16563Y28983
X20106Y28983
X23650Y28983
X27193Y28983
X30736Y28983
X34280Y28983
X37823Y28983
X41366Y28983
X44909Y28983
X48453Y28983
X51996Y28983
X51996Y32526
X48453Y32526
X44909Y32526
X41366Y32526
X37823Y32526
X34280Y32526
X30736Y32526
X27193Y32526
X23650Y32526
X20106Y32526
X16563Y32526
X13020Y32526
X13020Y36069
X16563Y36069
X20106Y36069
X23650Y36069
X27193Y36069
X30736Y36069
X34280Y36069
X37823Y36069
X41366Y36069
X44909Y36069
X48453Y36069
X51996Y36069
M30
