%
M48
M72
T01C0.05118
T02C0.12598
T03C0.20000
%
T01
X599469Y205826
X599469Y225826
X599469Y245826
X599469Y265826
T02
X65709Y56598
X65709Y416756
X604134Y416756
X604134Y56598
T03
X519961Y112661
X484528Y112661
X449094Y112661
X413661Y112661
X378228Y112661
X342795Y112661
X307362Y112661
X271929Y112661
X236496Y112661
X201063Y112661
X165630Y112661
X130197Y112661
X130197Y148094
X165630Y148094
X201063Y148094
X236496Y148094
X271929Y148094
X307362Y148094
X342795Y148094
X378228Y148094
X413661Y148094
X449094Y148094
X484528Y148094
X519961Y148094
X519961Y183528
X484528Y183528
X449094Y183528
X413661Y183528
X378228Y183528
X342795Y183528
X307362Y183528
X271929Y183528
X236496Y183528
X201063Y183528
X165630Y183528
X130197Y183528
X130197Y218961
X165630Y218961
X201063Y218961
X236496Y218961
X271929Y218961
X307362Y218961
X342795Y218961
X378228Y218961
X413661Y218961
X449094Y218961
X484528Y218961
X519961Y218961
X519961Y254394
X484528Y254394
X449094Y254394
X413661Y254394
X378228Y254394
X342795Y254394
X307362Y254394
X271929Y254394
X236496Y254394
X201063Y254394
X165630Y254394
X130197Y254394
X130197Y289827
X165630Y289827
X201063Y289827
X236496Y289827
X271929Y289827
X307362Y289827
X342795Y289827
X378228Y289827
X413661Y289827
X449094Y289827
X484528Y289827
X519961Y289827
X519961Y325260
X484528Y325260
X449094Y325260
X413661Y325260
X378228Y325260
X342795Y325260
X307362Y325260
X271929Y325260
X236496Y325260
X201063Y325260
X165630Y325260
X130197Y325260
X130197Y360693
X165630Y360693
X201063Y360693
X236496Y360693
X271929Y360693
X307362Y360693
X342795Y360693
X378228Y360693
X413661Y360693
X449094Y360693
X484528Y360693
X519961Y360693
M30
