G75*
%MOIN*%
%OFA0B0*%
%FSLAX25Y25*%
%IPPOS*%
%LPD*%
%AMOC8*
5,1,8,0,0,1.08239X$1,22.5*
%
%ADD10R,0.09449X0.09449*%
%ADD11R,0.05512X0.11811*%
%ADD12R,0.03937X0.04331*%
%ADD13R,0.04331X0.03937*%
%ADD14R,0.08000X0.15000*%
%ADD15R,0.45000X0.35000*%
%ADD16R,0.08000X0.05000*%
%ADD17R,0.05906X0.07677*%
%ADD18R,0.04800X0.08800*%
%ADD19R,0.14173X0.08661*%
%ADD20R,0.11811X0.05512*%
%ADD21R,0.04724X0.01181*%
%ADD22R,0.11811X0.10630*%
%ADD23R,0.01181X0.04724*%
%ADD24R,0.10630X0.11811*%
%ADD25R,0.15000X0.08000*%
%ADD26R,0.35000X0.45000*%
%ADD27R,0.05000X0.08000*%
D10*
X0324209Y0068770D03*
X0341532Y0068770D03*
X0085430Y0203022D03*
X0085430Y0220345D03*
D11*
X0058540Y0222234D03*
X0058540Y0203337D03*
D12*
X0058461Y0189833D03*
X0058461Y0183140D03*
X0105509Y0116014D03*
X0105509Y0109321D03*
X0287527Y0116949D03*
X0294220Y0116949D03*
X0328423Y0106960D03*
X0335116Y0106960D03*
X0335216Y0098060D03*
X0328523Y0098060D03*
X0328623Y0089160D03*
X0335316Y0089160D03*
X0294342Y0096280D03*
X0287649Y0096280D03*
X0294076Y0180244D03*
X0300769Y0180244D03*
X0301217Y0195148D03*
X0294524Y0195148D03*
X0294524Y0204754D03*
X0301217Y0204754D03*
D13*
X0230312Y0195384D03*
X0230312Y0188691D03*
X0210036Y0189006D03*
X0210036Y0195699D03*
X0177813Y0195632D03*
X0177813Y0188939D03*
X0158260Y0188939D03*
X0158260Y0195632D03*
X0145574Y0195732D03*
X0145574Y0189039D03*
X0125620Y0189039D03*
X0125620Y0195732D03*
X0150821Y0118123D03*
X0150821Y0111430D03*
X0294403Y0151949D03*
X0301096Y0151949D03*
X0363737Y0069990D03*
X0363737Y0063297D03*
X0382674Y0064282D03*
X0382674Y0070974D03*
D14*
X0240292Y0190541D03*
X0219859Y0190541D03*
X0188166Y0190581D03*
X0167733Y0190581D03*
X0136001Y0190581D03*
X0115568Y0190581D03*
D15*
X0125784Y0145738D03*
X0177949Y0145738D03*
X0230075Y0145699D03*
D16*
X0250955Y0182635D03*
X0250955Y0195635D03*
X0198364Y0196417D03*
X0198364Y0183417D03*
X0104501Y0182545D03*
X0104501Y0195545D03*
D17*
X0353304Y0075010D03*
X0353304Y0064183D03*
X0371453Y0065167D03*
X0371453Y0075994D03*
D18*
X0280370Y0185760D03*
X0271270Y0185760D03*
X0262170Y0185760D03*
X0071301Y0129995D03*
X0062201Y0129995D03*
X0053101Y0129995D03*
D19*
X0062201Y0154396D03*
X0271270Y0161359D03*
D20*
X0263074Y0138612D03*
X0281972Y0138612D03*
X0178934Y0110305D03*
X0160036Y0110305D03*
D21*
X0114515Y0063895D03*
X0114515Y0065863D03*
X0114515Y0067832D03*
X0114515Y0069800D03*
X0114515Y0071769D03*
X0114515Y0073737D03*
X0114515Y0102671D03*
X0114515Y0104639D03*
X0114515Y0106608D03*
X0114515Y0108576D03*
X0114515Y0110545D03*
X0114515Y0112513D03*
X0222683Y0112164D03*
X0222683Y0110196D03*
X0222683Y0108227D03*
X0222683Y0106259D03*
X0222683Y0104290D03*
X0222683Y0102322D03*
X0222683Y0073519D03*
X0222683Y0071550D03*
X0222683Y0069582D03*
X0222683Y0067613D03*
X0222683Y0065645D03*
X0222683Y0063676D03*
D22*
X0215203Y0056078D03*
X0215203Y0081117D03*
X0215203Y0094723D03*
X0215203Y0119763D03*
X0121995Y0120111D03*
X0121995Y0095072D03*
X0121995Y0081336D03*
X0121995Y0056297D03*
D23*
X0164149Y0089094D03*
X0166118Y0089094D03*
X0168086Y0089094D03*
X0170055Y0089094D03*
X0172023Y0089094D03*
X0173992Y0089094D03*
D24*
X0181590Y0081614D03*
X0156551Y0081614D03*
D25*
X0301532Y0086309D03*
X0301532Y0106742D03*
D26*
X0256690Y0096526D03*
D27*
X0297139Y0075197D03*
X0310139Y0075197D03*
M02*
