G75*
%MOIN*%
%OFA0B0*%
%FSLAX25Y25*%
%IPPOS*%
%LPD*%
%AMOC8*
5,1,8,0,0,1.08239X$1,22.5*
%
%ADD10C,0.12998*%
%ADD11C,0.06000*%
%ADD12OC8,0.07000*%
%ADD13R,0.08668X0.08668*%
%ADD14C,0.12211*%
%ADD15C,0.06337*%
%ADD16C,0.00985*%
%ADD17C,0.07400*%
%ADD18C,0.00591*%
%ADD19C,0.00434*%
%ADD20C,0.00840*%
%ADD21C,0.03540*%
%ADD22C,0.00540*%
%ADD23C,0.00631*%
%ADD24C,0.00520*%
%ADD25C,0.00906*%
%ADD26C,0.05156*%
%ADD27OC8,0.06000*%
D10*
X0063059Y0015500D03*
X0268059Y0035500D03*
X0388059Y0015500D03*
X0268059Y0145500D03*
X0363059Y0205500D03*
X0068059Y0205500D03*
D11*
X0082059Y0203820D02*
X0082059Y0207180D01*
X0092059Y0207180D02*
X0092059Y0203820D01*
X0102059Y0203820D02*
X0102059Y0207180D01*
X0112059Y0207180D02*
X0112059Y0203820D01*
X0122059Y0203820D02*
X0122059Y0207180D01*
X0132059Y0207180D02*
X0132059Y0203820D01*
X0142059Y0203820D02*
X0142059Y0207180D01*
X0152059Y0207180D02*
X0152059Y0203820D01*
X0162059Y0203820D02*
X0162059Y0207180D01*
X0172059Y0207180D02*
X0172059Y0203820D01*
X0188059Y0203820D02*
X0188059Y0207180D01*
X0198059Y0207180D02*
X0198059Y0203820D01*
X0208059Y0203820D02*
X0208059Y0207180D01*
X0218059Y0207180D02*
X0218059Y0203820D01*
X0228059Y0203820D02*
X0228059Y0207180D01*
X0238059Y0207180D02*
X0238059Y0203820D01*
X0248059Y0203820D02*
X0248059Y0207180D01*
X0258059Y0207180D02*
X0258059Y0203820D01*
X0278059Y0203820D02*
X0278059Y0207180D01*
X0288059Y0207180D02*
X0288059Y0203820D01*
X0298059Y0203820D02*
X0298059Y0207180D01*
X0308059Y0207180D02*
X0308059Y0203820D01*
X0318059Y0203820D02*
X0318059Y0207180D01*
X0328059Y0207180D02*
X0328059Y0203820D01*
X0338059Y0203820D02*
X0338059Y0207180D01*
X0348059Y0207180D02*
X0348059Y0203820D01*
X0348059Y0017180D02*
X0348059Y0013820D01*
X0338059Y0013820D02*
X0338059Y0017180D01*
X0328059Y0017180D02*
X0328059Y0013820D01*
X0318059Y0013820D02*
X0318059Y0017180D01*
X0308059Y0017180D02*
X0308059Y0013820D01*
X0298059Y0013820D02*
X0298059Y0017180D01*
X0278059Y0017180D02*
X0278059Y0013820D01*
X0268059Y0013820D02*
X0268059Y0017180D01*
X0258059Y0017180D02*
X0258059Y0013820D01*
X0248059Y0013820D02*
X0248059Y0017180D01*
X0238059Y0017180D02*
X0238059Y0013820D01*
X0228059Y0013820D02*
X0228059Y0017180D01*
X0218059Y0017180D02*
X0218059Y0013820D01*
X0208059Y0013820D02*
X0208059Y0017180D01*
X0188059Y0017180D02*
X0188059Y0013820D01*
X0178059Y0013820D02*
X0178059Y0017180D01*
X0168059Y0017180D02*
X0168059Y0013820D01*
X0158059Y0013820D02*
X0158059Y0017180D01*
X0148059Y0017180D02*
X0148059Y0013820D01*
X0138059Y0013820D02*
X0138059Y0017180D01*
X0128059Y0017180D02*
X0128059Y0013820D01*
X0118059Y0013820D02*
X0118059Y0017180D01*
X0358059Y0017180D02*
X0358059Y0013820D01*
X0368059Y0013820D02*
X0368059Y0017180D01*
D12*
X0378059Y0035500D03*
X0388059Y0035500D03*
X0388059Y0045500D03*
X0378059Y0045500D03*
X0378059Y0055500D03*
X0388059Y0055500D03*
X0388059Y0065500D03*
X0378059Y0065500D03*
X0378059Y0075500D03*
X0388059Y0075500D03*
X0388059Y0085500D03*
X0378059Y0085500D03*
X0378059Y0095500D03*
X0388059Y0095500D03*
X0388059Y0105500D03*
X0378059Y0105500D03*
X0378059Y0115500D03*
X0388059Y0115500D03*
X0388059Y0125500D03*
X0378059Y0125500D03*
X0378059Y0135500D03*
X0388059Y0135500D03*
X0388059Y0145500D03*
X0378059Y0145500D03*
X0378059Y0155500D03*
X0388059Y0155500D03*
X0388059Y0165500D03*
X0378059Y0165500D03*
X0378059Y0175500D03*
X0388059Y0175500D03*
X0388059Y0185500D03*
X0378059Y0185500D03*
X0378059Y0195500D03*
X0388059Y0195500D03*
X0388059Y0205500D03*
X0378059Y0205500D03*
D13*
X0041327Y0184634D03*
X0019673Y0184634D03*
X0019673Y0168098D03*
X0041327Y0168098D03*
X0041327Y0151563D03*
X0019673Y0151563D03*
X0019673Y0135028D03*
X0041327Y0135028D03*
X0041327Y0118492D03*
X0019673Y0118492D03*
X0019673Y0101957D03*
X0041327Y0101957D03*
X0041327Y0085421D03*
X0019673Y0085421D03*
X0019673Y0068886D03*
X0041327Y0068886D03*
X0041327Y0052350D03*
X0019673Y0052350D03*
X0019673Y0035815D03*
X0041327Y0035815D03*
D14*
X0039516Y0017311D03*
X0039516Y0203138D03*
D15*
X0084122Y0157872D02*
X0084122Y0154309D01*
X0094122Y0154309D02*
X0094122Y0157872D01*
X0104122Y0157872D02*
X0104122Y0154309D01*
X0114122Y0154309D02*
X0114122Y0157872D01*
X0114240Y0131297D02*
X0114240Y0127735D01*
X0104240Y0127735D02*
X0104240Y0131297D01*
X0094240Y0131297D02*
X0094240Y0127735D01*
X0084240Y0127735D02*
X0084240Y0131297D01*
X0084437Y0103265D02*
X0084437Y0099703D01*
X0094437Y0099703D02*
X0094437Y0103265D01*
X0094859Y0060881D02*
X0094859Y0057319D01*
X0084859Y0057319D02*
X0084859Y0060881D01*
X0115343Y0060903D02*
X0115343Y0057341D01*
X0125343Y0057341D02*
X0125343Y0060903D01*
X0135343Y0060903D02*
X0135343Y0057341D01*
X0145343Y0057341D02*
X0145343Y0060903D01*
X0155343Y0060903D02*
X0155343Y0057341D01*
X0165343Y0057341D02*
X0165343Y0060903D01*
X0175343Y0060903D02*
X0175343Y0057341D01*
X0185343Y0057341D02*
X0185343Y0060903D01*
X0195343Y0060903D02*
X0195343Y0057341D01*
X0205343Y0057341D02*
X0205343Y0060903D01*
D16*
X0180208Y0042609D02*
X0171344Y0042609D01*
X0180208Y0042609D02*
X0180208Y0033745D01*
X0171344Y0033745D01*
X0171344Y0042609D01*
X0171344Y0034729D02*
X0180208Y0034729D01*
X0180208Y0035713D02*
X0171344Y0035713D01*
X0171344Y0036697D02*
X0180208Y0036697D01*
X0180208Y0037681D02*
X0171344Y0037681D01*
X0171344Y0038665D02*
X0180208Y0038665D01*
X0180208Y0039649D02*
X0171344Y0039649D01*
X0171344Y0040633D02*
X0180208Y0040633D01*
X0180208Y0041617D02*
X0171344Y0041617D01*
X0171344Y0042601D02*
X0180208Y0042601D01*
X0162885Y0042609D02*
X0154021Y0042609D01*
X0162885Y0042609D02*
X0162885Y0033745D01*
X0154021Y0033745D01*
X0154021Y0042609D01*
X0154021Y0034729D02*
X0162885Y0034729D01*
X0162885Y0035713D02*
X0154021Y0035713D01*
X0154021Y0036697D02*
X0162885Y0036697D01*
X0162885Y0037681D02*
X0154021Y0037681D01*
X0154021Y0038665D02*
X0162885Y0038665D01*
X0162885Y0039649D02*
X0154021Y0039649D01*
X0154021Y0040633D02*
X0162885Y0040633D01*
X0162885Y0041617D02*
X0154021Y0041617D01*
X0154021Y0042601D02*
X0162885Y0042601D01*
X0077452Y0161698D02*
X0077452Y0170562D01*
X0077452Y0161698D02*
X0068588Y0161698D01*
X0068588Y0170562D01*
X0077452Y0170562D01*
X0077452Y0162682D02*
X0068588Y0162682D01*
X0068588Y0163666D02*
X0077452Y0163666D01*
X0077452Y0164650D02*
X0068588Y0164650D01*
X0068588Y0165634D02*
X0077452Y0165634D01*
X0077452Y0166618D02*
X0068588Y0166618D01*
X0068588Y0167602D02*
X0077452Y0167602D01*
X0077452Y0168586D02*
X0068588Y0168586D01*
X0068588Y0169570D02*
X0077452Y0169570D01*
X0077452Y0170554D02*
X0068588Y0170554D01*
X0077452Y0179021D02*
X0077452Y0187885D01*
X0077452Y0179021D02*
X0068588Y0179021D01*
X0068588Y0187885D01*
X0077452Y0187885D01*
X0077452Y0180005D02*
X0068588Y0180005D01*
X0068588Y0180989D02*
X0077452Y0180989D01*
X0077452Y0181973D02*
X0068588Y0181973D01*
X0068588Y0182957D02*
X0077452Y0182957D01*
X0077452Y0183941D02*
X0068588Y0183941D01*
X0068588Y0184925D02*
X0077452Y0184925D01*
X0077452Y0185909D02*
X0068588Y0185909D01*
X0068588Y0186893D02*
X0077452Y0186893D01*
X0077452Y0187877D02*
X0068588Y0187877D01*
D17*
X0059372Y0192035D02*
X0055172Y0192035D01*
X0055172Y0152035D02*
X0059372Y0152035D01*
D18*
X0065169Y0143672D02*
X0065169Y0132052D01*
X0059847Y0132052D01*
X0059847Y0143672D01*
X0065169Y0143672D01*
X0065169Y0132642D02*
X0059847Y0132642D01*
X0059847Y0133232D02*
X0065169Y0133232D01*
X0065169Y0133822D02*
X0059847Y0133822D01*
X0059847Y0134412D02*
X0065169Y0134412D01*
X0065169Y0135002D02*
X0059847Y0135002D01*
X0059847Y0135592D02*
X0065169Y0135592D01*
X0065169Y0136182D02*
X0059847Y0136182D01*
X0059847Y0136772D02*
X0065169Y0136772D01*
X0065169Y0137362D02*
X0059847Y0137362D01*
X0059847Y0137952D02*
X0065169Y0137952D01*
X0065169Y0138542D02*
X0059847Y0138542D01*
X0059847Y0139132D02*
X0065169Y0139132D01*
X0065169Y0139722D02*
X0059847Y0139722D01*
X0059847Y0140312D02*
X0065169Y0140312D01*
X0065169Y0140902D02*
X0059847Y0140902D01*
X0059847Y0141492D02*
X0065169Y0141492D01*
X0065169Y0142082D02*
X0059847Y0142082D01*
X0059847Y0142672D02*
X0065169Y0142672D01*
X0065169Y0143262D02*
X0059847Y0143262D01*
X0065169Y0124775D02*
X0065169Y0113155D01*
X0059847Y0113155D01*
X0059847Y0124775D01*
X0065169Y0124775D01*
X0065169Y0113745D02*
X0059847Y0113745D01*
X0059847Y0114335D02*
X0065169Y0114335D01*
X0065169Y0114925D02*
X0059847Y0114925D01*
X0059847Y0115515D02*
X0065169Y0115515D01*
X0065169Y0116105D02*
X0059847Y0116105D01*
X0059847Y0116695D02*
X0065169Y0116695D01*
X0065169Y0117285D02*
X0059847Y0117285D01*
X0059847Y0117875D02*
X0065169Y0117875D01*
X0065169Y0118465D02*
X0059847Y0118465D01*
X0059847Y0119055D02*
X0065169Y0119055D01*
X0065169Y0119645D02*
X0059847Y0119645D01*
X0059847Y0120235D02*
X0065169Y0120235D01*
X0065169Y0120825D02*
X0059847Y0120825D01*
X0059847Y0121415D02*
X0065169Y0121415D01*
X0065169Y0122005D02*
X0059847Y0122005D01*
X0059847Y0122595D02*
X0065169Y0122595D01*
X0065169Y0123185D02*
X0059847Y0123185D01*
X0059847Y0123775D02*
X0065169Y0123775D01*
X0065169Y0124365D02*
X0059847Y0124365D01*
X0060516Y0076271D02*
X0060516Y0064651D01*
X0060516Y0076271D02*
X0065838Y0076271D01*
X0065838Y0064651D01*
X0060516Y0064651D01*
X0060516Y0065241D02*
X0065838Y0065241D01*
X0065838Y0065831D02*
X0060516Y0065831D01*
X0060516Y0066421D02*
X0065838Y0066421D01*
X0065838Y0067011D02*
X0060516Y0067011D01*
X0060516Y0067601D02*
X0065838Y0067601D01*
X0065838Y0068191D02*
X0060516Y0068191D01*
X0060516Y0068781D02*
X0065838Y0068781D01*
X0065838Y0069371D02*
X0060516Y0069371D01*
X0060516Y0069961D02*
X0065838Y0069961D01*
X0065838Y0070551D02*
X0060516Y0070551D01*
X0060516Y0071141D02*
X0065838Y0071141D01*
X0065838Y0071731D02*
X0060516Y0071731D01*
X0060516Y0072321D02*
X0065838Y0072321D01*
X0065838Y0072911D02*
X0060516Y0072911D01*
X0060516Y0073501D02*
X0065838Y0073501D01*
X0065838Y0074091D02*
X0060516Y0074091D01*
X0060516Y0074681D02*
X0065838Y0074681D01*
X0065838Y0075271D02*
X0060516Y0075271D01*
X0060516Y0075861D02*
X0065838Y0075861D01*
X0060516Y0057373D02*
X0060516Y0045753D01*
X0060516Y0057373D02*
X0065838Y0057373D01*
X0065838Y0045753D01*
X0060516Y0045753D01*
X0060516Y0046343D02*
X0065838Y0046343D01*
X0065838Y0046933D02*
X0060516Y0046933D01*
X0060516Y0047523D02*
X0065838Y0047523D01*
X0065838Y0048113D02*
X0060516Y0048113D01*
X0060516Y0048703D02*
X0065838Y0048703D01*
X0065838Y0049293D02*
X0060516Y0049293D01*
X0060516Y0049883D02*
X0065838Y0049883D01*
X0065838Y0050473D02*
X0060516Y0050473D01*
X0060516Y0051063D02*
X0065838Y0051063D01*
X0065838Y0051653D02*
X0060516Y0051653D01*
X0060516Y0052243D02*
X0065838Y0052243D01*
X0065838Y0052833D02*
X0060516Y0052833D01*
X0060516Y0053423D02*
X0065838Y0053423D01*
X0065838Y0054013D02*
X0060516Y0054013D01*
X0060516Y0054603D02*
X0065838Y0054603D01*
X0065838Y0055193D02*
X0060516Y0055193D01*
X0060516Y0055783D02*
X0065838Y0055783D01*
X0065838Y0056373D02*
X0060516Y0056373D01*
X0060516Y0056963D02*
X0065838Y0056963D01*
X0223200Y0112839D02*
X0234820Y0112839D01*
X0223200Y0112839D02*
X0223200Y0118161D01*
X0234820Y0118161D01*
X0234820Y0112839D01*
X0234820Y0113429D02*
X0223200Y0113429D01*
X0223200Y0114019D02*
X0234820Y0114019D01*
X0234820Y0114609D02*
X0223200Y0114609D01*
X0223200Y0115199D02*
X0234820Y0115199D01*
X0234820Y0115789D02*
X0223200Y0115789D01*
X0223200Y0116379D02*
X0234820Y0116379D01*
X0234820Y0116969D02*
X0223200Y0116969D01*
X0223200Y0117559D02*
X0234820Y0117559D01*
X0234820Y0118149D02*
X0223200Y0118149D01*
X0242098Y0112839D02*
X0253718Y0112839D01*
X0242098Y0112839D02*
X0242098Y0118161D01*
X0253718Y0118161D01*
X0253718Y0112839D01*
X0253718Y0113429D02*
X0242098Y0113429D01*
X0242098Y0114019D02*
X0253718Y0114019D01*
X0253718Y0114609D02*
X0242098Y0114609D01*
X0242098Y0115199D02*
X0253718Y0115199D01*
X0253718Y0115789D02*
X0242098Y0115789D01*
X0242098Y0116379D02*
X0253718Y0116379D01*
X0253718Y0116969D02*
X0242098Y0116969D01*
X0242098Y0117559D02*
X0253718Y0117559D01*
X0253718Y0118149D02*
X0242098Y0118149D01*
D19*
X0250508Y0130206D02*
X0250508Y0134502D01*
X0254410Y0134502D01*
X0254410Y0130206D01*
X0250508Y0130206D01*
X0250508Y0130639D02*
X0254410Y0130639D01*
X0254410Y0131072D02*
X0250508Y0131072D01*
X0250508Y0131505D02*
X0254410Y0131505D01*
X0254410Y0131938D02*
X0250508Y0131938D01*
X0250508Y0132371D02*
X0254410Y0132371D01*
X0254410Y0132804D02*
X0250508Y0132804D01*
X0250508Y0133237D02*
X0254410Y0133237D01*
X0254410Y0133670D02*
X0250508Y0133670D01*
X0250508Y0134103D02*
X0254410Y0134103D01*
X0250508Y0136898D02*
X0250508Y0141194D01*
X0254410Y0141194D01*
X0254410Y0136898D01*
X0250508Y0136898D01*
X0250508Y0137331D02*
X0254410Y0137331D01*
X0254410Y0137764D02*
X0250508Y0137764D01*
X0250508Y0138197D02*
X0254410Y0138197D01*
X0254410Y0138630D02*
X0250508Y0138630D01*
X0250508Y0139063D02*
X0254410Y0139063D01*
X0254410Y0139496D02*
X0250508Y0139496D01*
X0250508Y0139929D02*
X0254410Y0139929D01*
X0254410Y0140362D02*
X0250508Y0140362D01*
X0250508Y0140795D02*
X0254410Y0140795D01*
X0258062Y0156952D02*
X0261964Y0156952D01*
X0258062Y0156952D02*
X0258062Y0161248D01*
X0261964Y0161248D01*
X0261964Y0156952D01*
X0261964Y0157385D02*
X0258062Y0157385D01*
X0258062Y0157818D02*
X0261964Y0157818D01*
X0261964Y0158251D02*
X0258062Y0158251D01*
X0258062Y0158684D02*
X0261964Y0158684D01*
X0261964Y0159117D02*
X0258062Y0159117D01*
X0258062Y0159550D02*
X0261964Y0159550D01*
X0261964Y0159983D02*
X0258062Y0159983D01*
X0258062Y0160416D02*
X0261964Y0160416D01*
X0261964Y0160849D02*
X0258062Y0160849D01*
X0264755Y0156952D02*
X0268657Y0156952D01*
X0264755Y0156952D02*
X0264755Y0161248D01*
X0268657Y0161248D01*
X0268657Y0156952D01*
X0268657Y0157385D02*
X0264755Y0157385D01*
X0264755Y0157818D02*
X0268657Y0157818D01*
X0268657Y0158251D02*
X0264755Y0158251D01*
X0264755Y0158684D02*
X0268657Y0158684D01*
X0268657Y0159117D02*
X0264755Y0159117D01*
X0264755Y0159550D02*
X0268657Y0159550D01*
X0268657Y0159983D02*
X0264755Y0159983D01*
X0264755Y0160416D02*
X0268657Y0160416D01*
X0268657Y0160849D02*
X0264755Y0160849D01*
X0265364Y0172840D02*
X0261462Y0172840D01*
X0261462Y0177136D01*
X0265364Y0177136D01*
X0265364Y0172840D01*
X0265364Y0173273D02*
X0261462Y0173273D01*
X0261462Y0173706D02*
X0265364Y0173706D01*
X0265364Y0174139D02*
X0261462Y0174139D01*
X0261462Y0174572D02*
X0265364Y0174572D01*
X0265364Y0175005D02*
X0261462Y0175005D01*
X0261462Y0175438D02*
X0265364Y0175438D01*
X0265364Y0175871D02*
X0261462Y0175871D01*
X0261462Y0176304D02*
X0265364Y0176304D01*
X0265364Y0176737D02*
X0261462Y0176737D01*
X0268155Y0172840D02*
X0272057Y0172840D01*
X0268155Y0172840D02*
X0268155Y0177136D01*
X0272057Y0177136D01*
X0272057Y0172840D01*
X0272057Y0173273D02*
X0268155Y0173273D01*
X0268155Y0173706D02*
X0272057Y0173706D01*
X0272057Y0174139D02*
X0268155Y0174139D01*
X0268155Y0174572D02*
X0272057Y0174572D01*
X0272057Y0175005D02*
X0268155Y0175005D01*
X0268155Y0175438D02*
X0272057Y0175438D01*
X0272057Y0175871D02*
X0268155Y0175871D01*
X0268155Y0176304D02*
X0272057Y0176304D01*
X0272057Y0176737D02*
X0268155Y0176737D01*
X0268155Y0182446D02*
X0272057Y0182446D01*
X0268155Y0182446D02*
X0268155Y0186742D01*
X0272057Y0186742D01*
X0272057Y0182446D01*
X0272057Y0182879D02*
X0268155Y0182879D01*
X0268155Y0183312D02*
X0272057Y0183312D01*
X0272057Y0183745D02*
X0268155Y0183745D01*
X0268155Y0184178D02*
X0272057Y0184178D01*
X0272057Y0184611D02*
X0268155Y0184611D01*
X0268155Y0185044D02*
X0272057Y0185044D01*
X0272057Y0185477D02*
X0268155Y0185477D01*
X0268155Y0185910D02*
X0272057Y0185910D01*
X0272057Y0186343D02*
X0268155Y0186343D01*
X0265364Y0182446D02*
X0261462Y0182446D01*
X0261462Y0186742D01*
X0265364Y0186742D01*
X0265364Y0182446D01*
X0265364Y0182879D02*
X0261462Y0182879D01*
X0261462Y0183312D02*
X0265364Y0183312D01*
X0265364Y0183745D02*
X0261462Y0183745D01*
X0261462Y0184178D02*
X0265364Y0184178D01*
X0265364Y0184611D02*
X0261462Y0184611D01*
X0261462Y0185044D02*
X0265364Y0185044D01*
X0265364Y0185477D02*
X0261462Y0185477D01*
X0261462Y0185910D02*
X0265364Y0185910D01*
X0265364Y0186343D02*
X0261462Y0186343D01*
X0216764Y0176439D02*
X0216764Y0172537D01*
X0212468Y0172537D01*
X0212468Y0176439D01*
X0216764Y0176439D01*
X0216764Y0172970D02*
X0212468Y0172970D01*
X0212468Y0173403D02*
X0216764Y0173403D01*
X0216764Y0173836D02*
X0212468Y0173836D01*
X0212468Y0174269D02*
X0216764Y0174269D01*
X0216764Y0174702D02*
X0212468Y0174702D01*
X0212468Y0175135D02*
X0216764Y0175135D01*
X0216764Y0175568D02*
X0212468Y0175568D01*
X0212468Y0176001D02*
X0216764Y0176001D01*
X0216764Y0176434D02*
X0212468Y0176434D01*
X0216764Y0169746D02*
X0216764Y0165844D01*
X0212468Y0165844D01*
X0212468Y0169746D01*
X0216764Y0169746D01*
X0216764Y0166277D02*
X0212468Y0166277D01*
X0212468Y0166710D02*
X0216764Y0166710D01*
X0216764Y0167143D02*
X0212468Y0167143D01*
X0212468Y0167576D02*
X0216764Y0167576D01*
X0216764Y0168009D02*
X0212468Y0168009D01*
X0212468Y0168442D02*
X0216764Y0168442D01*
X0216764Y0168875D02*
X0212468Y0168875D01*
X0212468Y0169308D02*
X0216764Y0169308D01*
X0216764Y0169741D02*
X0212468Y0169741D01*
X0192914Y0169746D02*
X0192914Y0165844D01*
X0192914Y0169746D02*
X0197210Y0169746D01*
X0197210Y0165844D01*
X0192914Y0165844D01*
X0192914Y0166277D02*
X0197210Y0166277D01*
X0197210Y0166710D02*
X0192914Y0166710D01*
X0192914Y0167143D02*
X0197210Y0167143D01*
X0197210Y0167576D02*
X0192914Y0167576D01*
X0192914Y0168009D02*
X0197210Y0168009D01*
X0197210Y0168442D02*
X0192914Y0168442D01*
X0192914Y0168875D02*
X0197210Y0168875D01*
X0197210Y0169308D02*
X0192914Y0169308D01*
X0192914Y0169741D02*
X0197210Y0169741D01*
X0192914Y0172537D02*
X0192914Y0176439D01*
X0197210Y0176439D01*
X0197210Y0172537D01*
X0192914Y0172537D01*
X0192914Y0172970D02*
X0197210Y0172970D01*
X0197210Y0173403D02*
X0192914Y0173403D01*
X0192914Y0173836D02*
X0197210Y0173836D01*
X0197210Y0174269D02*
X0192914Y0174269D01*
X0192914Y0174702D02*
X0197210Y0174702D01*
X0197210Y0175135D02*
X0192914Y0175135D01*
X0192914Y0175568D02*
X0197210Y0175568D01*
X0197210Y0176001D02*
X0192914Y0176001D01*
X0192914Y0176434D02*
X0197210Y0176434D01*
X0162512Y0176539D02*
X0162512Y0172637D01*
X0162512Y0176539D02*
X0166808Y0176539D01*
X0166808Y0172637D01*
X0162512Y0172637D01*
X0162512Y0173070D02*
X0166808Y0173070D01*
X0166808Y0173503D02*
X0162512Y0173503D01*
X0162512Y0173936D02*
X0166808Y0173936D01*
X0166808Y0174369D02*
X0162512Y0174369D01*
X0162512Y0174802D02*
X0166808Y0174802D01*
X0166808Y0175235D02*
X0162512Y0175235D01*
X0162512Y0175668D02*
X0166808Y0175668D01*
X0166808Y0176101D02*
X0162512Y0176101D01*
X0162512Y0176534D02*
X0166808Y0176534D01*
X0162512Y0169846D02*
X0162512Y0165944D01*
X0162512Y0169846D02*
X0166808Y0169846D01*
X0166808Y0165944D01*
X0162512Y0165944D01*
X0162512Y0166377D02*
X0166808Y0166377D01*
X0166808Y0166810D02*
X0162512Y0166810D01*
X0162512Y0167243D02*
X0166808Y0167243D01*
X0166808Y0167676D02*
X0162512Y0167676D01*
X0162512Y0168109D02*
X0166808Y0168109D01*
X0166808Y0168542D02*
X0162512Y0168542D01*
X0162512Y0168975D02*
X0166808Y0168975D01*
X0166808Y0169408D02*
X0162512Y0169408D01*
X0162512Y0169841D02*
X0166808Y0169841D01*
X0142558Y0169846D02*
X0142558Y0165944D01*
X0142558Y0169846D02*
X0146854Y0169846D01*
X0146854Y0165944D01*
X0142558Y0165944D01*
X0142558Y0166377D02*
X0146854Y0166377D01*
X0146854Y0166810D02*
X0142558Y0166810D01*
X0142558Y0167243D02*
X0146854Y0167243D01*
X0146854Y0167676D02*
X0142558Y0167676D01*
X0142558Y0168109D02*
X0146854Y0168109D01*
X0146854Y0168542D02*
X0142558Y0168542D01*
X0142558Y0168975D02*
X0146854Y0168975D01*
X0146854Y0169408D02*
X0142558Y0169408D01*
X0142558Y0169841D02*
X0146854Y0169841D01*
X0142558Y0172637D02*
X0142558Y0176539D01*
X0146854Y0176539D01*
X0146854Y0172637D01*
X0142558Y0172637D01*
X0142558Y0173070D02*
X0146854Y0173070D01*
X0146854Y0173503D02*
X0142558Y0173503D01*
X0142558Y0173936D02*
X0146854Y0173936D01*
X0146854Y0174369D02*
X0142558Y0174369D01*
X0142558Y0174802D02*
X0146854Y0174802D01*
X0146854Y0175235D02*
X0142558Y0175235D01*
X0142558Y0175668D02*
X0146854Y0175668D01*
X0146854Y0176101D02*
X0142558Y0176101D01*
X0142558Y0176534D02*
X0146854Y0176534D01*
X0071069Y0153908D02*
X0071069Y0149612D01*
X0071069Y0153908D02*
X0074971Y0153908D01*
X0074971Y0149612D01*
X0071069Y0149612D01*
X0071069Y0150045D02*
X0074971Y0150045D01*
X0074971Y0150478D02*
X0071069Y0150478D01*
X0071069Y0150911D02*
X0074971Y0150911D01*
X0074971Y0151344D02*
X0071069Y0151344D01*
X0071069Y0151777D02*
X0074971Y0151777D01*
X0074971Y0152210D02*
X0071069Y0152210D01*
X0071069Y0152643D02*
X0074971Y0152643D01*
X0074971Y0153076D02*
X0071069Y0153076D01*
X0071069Y0153509D02*
X0074971Y0153509D01*
X0071069Y0147215D02*
X0071069Y0142919D01*
X0071069Y0147215D02*
X0074971Y0147215D01*
X0074971Y0142919D01*
X0071069Y0142919D01*
X0071069Y0143352D02*
X0074971Y0143352D01*
X0074971Y0143785D02*
X0071069Y0143785D01*
X0071069Y0144218D02*
X0074971Y0144218D01*
X0074971Y0144651D02*
X0071069Y0144651D01*
X0071069Y0145084D02*
X0074971Y0145084D01*
X0074971Y0145517D02*
X0071069Y0145517D01*
X0071069Y0145950D02*
X0074971Y0145950D01*
X0074971Y0146383D02*
X0071069Y0146383D01*
X0071069Y0146816D02*
X0074971Y0146816D01*
X0274769Y0072643D02*
X0278671Y0072643D01*
X0274769Y0072643D02*
X0274769Y0076939D01*
X0278671Y0076939D01*
X0278671Y0072643D01*
X0278671Y0073076D02*
X0274769Y0073076D01*
X0274769Y0073509D02*
X0278671Y0073509D01*
X0278671Y0073942D02*
X0274769Y0073942D01*
X0274769Y0074375D02*
X0278671Y0074375D01*
X0278671Y0074808D02*
X0274769Y0074808D01*
X0274769Y0075241D02*
X0278671Y0075241D01*
X0278671Y0075674D02*
X0274769Y0075674D01*
X0274769Y0076107D02*
X0278671Y0076107D01*
X0278671Y0076540D02*
X0274769Y0076540D01*
X0281462Y0072643D02*
X0285364Y0072643D01*
X0281462Y0072643D02*
X0281462Y0076939D01*
X0285364Y0076939D01*
X0285364Y0072643D01*
X0285364Y0073076D02*
X0281462Y0073076D01*
X0281462Y0073509D02*
X0285364Y0073509D01*
X0285364Y0073942D02*
X0281462Y0073942D01*
X0281462Y0074375D02*
X0285364Y0074375D01*
X0285364Y0074808D02*
X0281462Y0074808D01*
X0281462Y0075241D02*
X0285364Y0075241D01*
X0285364Y0075674D02*
X0281462Y0075674D01*
X0281462Y0076107D02*
X0285364Y0076107D01*
X0285364Y0076540D02*
X0281462Y0076540D01*
X0295462Y0075752D02*
X0299364Y0075752D01*
X0295462Y0075752D02*
X0295462Y0080048D01*
X0299364Y0080048D01*
X0299364Y0075752D01*
X0299364Y0076185D02*
X0295462Y0076185D01*
X0295462Y0076618D02*
X0299364Y0076618D01*
X0299364Y0077051D02*
X0295462Y0077051D01*
X0295462Y0077484D02*
X0299364Y0077484D01*
X0299364Y0077917D02*
X0295462Y0077917D01*
X0295462Y0078350D02*
X0299364Y0078350D01*
X0299364Y0078783D02*
X0295462Y0078783D01*
X0295462Y0079216D02*
X0299364Y0079216D01*
X0299364Y0079649D02*
X0295462Y0079649D01*
X0302155Y0075752D02*
X0306057Y0075752D01*
X0302155Y0075752D02*
X0302155Y0080048D01*
X0306057Y0080048D01*
X0306057Y0075752D01*
X0306057Y0076185D02*
X0302155Y0076185D01*
X0302155Y0076618D02*
X0306057Y0076618D01*
X0306057Y0077051D02*
X0302155Y0077051D01*
X0302155Y0077484D02*
X0306057Y0077484D01*
X0306057Y0077917D02*
X0302155Y0077917D01*
X0302155Y0078350D02*
X0306057Y0078350D01*
X0306057Y0078783D02*
X0302155Y0078783D01*
X0302155Y0079216D02*
X0306057Y0079216D01*
X0306057Y0079649D02*
X0302155Y0079649D01*
X0302055Y0084652D02*
X0305957Y0084652D01*
X0302055Y0084652D02*
X0302055Y0088948D01*
X0305957Y0088948D01*
X0305957Y0084652D01*
X0305957Y0085085D02*
X0302055Y0085085D01*
X0302055Y0085518D02*
X0305957Y0085518D01*
X0305957Y0085951D02*
X0302055Y0085951D01*
X0302055Y0086384D02*
X0305957Y0086384D01*
X0305957Y0086817D02*
X0302055Y0086817D01*
X0302055Y0087250D02*
X0305957Y0087250D01*
X0305957Y0087683D02*
X0302055Y0087683D01*
X0302055Y0088116D02*
X0305957Y0088116D01*
X0305957Y0088549D02*
X0302055Y0088549D01*
X0299264Y0084652D02*
X0295362Y0084652D01*
X0295362Y0088948D01*
X0299264Y0088948D01*
X0299264Y0084652D01*
X0299264Y0085085D02*
X0295362Y0085085D01*
X0295362Y0085518D02*
X0299264Y0085518D01*
X0299264Y0085951D02*
X0295362Y0085951D01*
X0295362Y0086384D02*
X0299264Y0086384D01*
X0299264Y0086817D02*
X0295362Y0086817D01*
X0295362Y0087250D02*
X0299264Y0087250D01*
X0299264Y0087683D02*
X0295362Y0087683D01*
X0295362Y0088116D02*
X0299264Y0088116D01*
X0299264Y0088549D02*
X0295362Y0088549D01*
X0295562Y0071148D02*
X0299464Y0071148D01*
X0299464Y0066852D01*
X0295562Y0066852D01*
X0295562Y0071148D01*
X0295562Y0067285D02*
X0299464Y0067285D01*
X0299464Y0067718D02*
X0295562Y0067718D01*
X0295562Y0068151D02*
X0299464Y0068151D01*
X0299464Y0068584D02*
X0295562Y0068584D01*
X0295562Y0069017D02*
X0299464Y0069017D01*
X0299464Y0069450D02*
X0295562Y0069450D01*
X0295562Y0069883D02*
X0299464Y0069883D01*
X0299464Y0070316D02*
X0295562Y0070316D01*
X0295562Y0070749D02*
X0299464Y0070749D01*
X0302255Y0071148D02*
X0306157Y0071148D01*
X0306157Y0066852D01*
X0302255Y0066852D01*
X0302255Y0071148D01*
X0302255Y0067285D02*
X0306157Y0067285D01*
X0306157Y0067718D02*
X0302255Y0067718D01*
X0302255Y0068151D02*
X0306157Y0068151D01*
X0306157Y0068584D02*
X0302255Y0068584D01*
X0302255Y0069017D02*
X0306157Y0069017D01*
X0306157Y0069450D02*
X0302255Y0069450D01*
X0302255Y0069883D02*
X0306157Y0069883D01*
X0306157Y0070316D02*
X0302255Y0070316D01*
X0302255Y0070749D02*
X0306157Y0070749D01*
X0334774Y0066545D02*
X0334774Y0062643D01*
X0330478Y0062643D01*
X0330478Y0066545D01*
X0334774Y0066545D01*
X0334774Y0063076D02*
X0330478Y0063076D01*
X0330478Y0063509D02*
X0334774Y0063509D01*
X0334774Y0063942D02*
X0330478Y0063942D01*
X0330478Y0064375D02*
X0334774Y0064375D01*
X0334774Y0064808D02*
X0330478Y0064808D01*
X0330478Y0065241D02*
X0334774Y0065241D01*
X0334774Y0065674D02*
X0330478Y0065674D01*
X0330478Y0066107D02*
X0334774Y0066107D01*
X0334774Y0066540D02*
X0330478Y0066540D01*
X0334774Y0059853D02*
X0334774Y0055951D01*
X0330478Y0055951D01*
X0330478Y0059853D01*
X0334774Y0059853D01*
X0334774Y0056384D02*
X0330478Y0056384D01*
X0330478Y0056817D02*
X0334774Y0056817D01*
X0334774Y0057250D02*
X0330478Y0057250D01*
X0330478Y0057683D02*
X0334774Y0057683D01*
X0334774Y0058116D02*
X0330478Y0058116D01*
X0330478Y0058549D02*
X0334774Y0058549D01*
X0334774Y0058982D02*
X0330478Y0058982D01*
X0330478Y0059415D02*
X0334774Y0059415D01*
X0334774Y0059848D02*
X0330478Y0059848D01*
X0353711Y0059853D02*
X0353711Y0055951D01*
X0349415Y0055951D01*
X0349415Y0059853D01*
X0353711Y0059853D01*
X0353711Y0056384D02*
X0349415Y0056384D01*
X0349415Y0056817D02*
X0353711Y0056817D01*
X0353711Y0057250D02*
X0349415Y0057250D01*
X0349415Y0057683D02*
X0353711Y0057683D01*
X0353711Y0058116D02*
X0349415Y0058116D01*
X0349415Y0058549D02*
X0353711Y0058549D01*
X0353711Y0058982D02*
X0349415Y0058982D01*
X0349415Y0059415D02*
X0353711Y0059415D01*
X0353711Y0059848D02*
X0349415Y0059848D01*
X0353711Y0062643D02*
X0353711Y0066545D01*
X0353711Y0062643D02*
X0349415Y0062643D01*
X0349415Y0066545D01*
X0353711Y0066545D01*
X0353711Y0063076D02*
X0349415Y0063076D01*
X0349415Y0063509D02*
X0353711Y0063509D01*
X0353711Y0063942D02*
X0349415Y0063942D01*
X0349415Y0064375D02*
X0353711Y0064375D01*
X0353711Y0064808D02*
X0349415Y0064808D01*
X0349415Y0065241D02*
X0353711Y0065241D01*
X0353711Y0065674D02*
X0349415Y0065674D01*
X0349415Y0066107D02*
X0353711Y0066107D01*
X0353711Y0066540D02*
X0349415Y0066540D01*
X0285049Y0057648D02*
X0281147Y0057648D01*
X0285049Y0057648D02*
X0285049Y0053352D01*
X0281147Y0053352D01*
X0281147Y0057648D01*
X0281147Y0053785D02*
X0285049Y0053785D01*
X0285049Y0054218D02*
X0281147Y0054218D01*
X0281147Y0054651D02*
X0285049Y0054651D01*
X0285049Y0055084D02*
X0281147Y0055084D01*
X0281147Y0055517D02*
X0285049Y0055517D01*
X0285049Y0055950D02*
X0281147Y0055950D01*
X0281147Y0056383D02*
X0285049Y0056383D01*
X0285049Y0056816D02*
X0281147Y0056816D01*
X0281147Y0057249D02*
X0285049Y0057249D01*
X0278357Y0057648D02*
X0274455Y0057648D01*
X0278357Y0057648D02*
X0278357Y0053352D01*
X0274455Y0053352D01*
X0274455Y0057648D01*
X0274455Y0053785D02*
X0278357Y0053785D01*
X0278357Y0054218D02*
X0274455Y0054218D01*
X0274455Y0054651D02*
X0278357Y0054651D01*
X0278357Y0055084D02*
X0274455Y0055084D01*
X0274455Y0055517D02*
X0278357Y0055517D01*
X0278357Y0055950D02*
X0274455Y0055950D01*
X0274455Y0056383D02*
X0278357Y0056383D01*
X0278357Y0056816D02*
X0274455Y0056816D01*
X0274455Y0057249D02*
X0278357Y0057249D01*
X0067097Y0038553D02*
X0062801Y0038553D01*
X0067097Y0038553D02*
X0067097Y0034651D01*
X0062801Y0034651D01*
X0062801Y0038553D01*
X0062801Y0035084D02*
X0067097Y0035084D01*
X0067097Y0035517D02*
X0062801Y0035517D01*
X0062801Y0035950D02*
X0067097Y0035950D01*
X0067097Y0036383D02*
X0062801Y0036383D01*
X0062801Y0036816D02*
X0067097Y0036816D01*
X0067097Y0037249D02*
X0062801Y0037249D01*
X0062801Y0037682D02*
X0067097Y0037682D01*
X0067097Y0038115D02*
X0062801Y0038115D01*
X0062801Y0038548D02*
X0067097Y0038548D01*
X0060404Y0038553D02*
X0056108Y0038553D01*
X0060404Y0038553D02*
X0060404Y0034651D01*
X0056108Y0034651D01*
X0056108Y0038553D01*
X0056108Y0035084D02*
X0060404Y0035084D01*
X0060404Y0035517D02*
X0056108Y0035517D01*
X0056108Y0035950D02*
X0060404Y0035950D01*
X0060404Y0036383D02*
X0056108Y0036383D01*
X0056108Y0036816D02*
X0060404Y0036816D01*
X0060404Y0037249D02*
X0056108Y0037249D01*
X0056108Y0037682D02*
X0060404Y0037682D01*
X0060404Y0038115D02*
X0056108Y0038115D01*
X0056108Y0038548D02*
X0060404Y0038548D01*
X0060264Y0028748D02*
X0056362Y0028748D01*
X0060264Y0028748D02*
X0060264Y0024452D01*
X0056362Y0024452D01*
X0056362Y0028748D01*
X0056362Y0024885D02*
X0060264Y0024885D01*
X0060264Y0025318D02*
X0056362Y0025318D01*
X0056362Y0025751D02*
X0060264Y0025751D01*
X0060264Y0026184D02*
X0056362Y0026184D01*
X0056362Y0026617D02*
X0060264Y0026617D01*
X0060264Y0027050D02*
X0056362Y0027050D01*
X0056362Y0027483D02*
X0060264Y0027483D01*
X0060264Y0027916D02*
X0056362Y0027916D01*
X0056362Y0028349D02*
X0060264Y0028349D01*
X0063055Y0028748D02*
X0066957Y0028748D01*
X0066957Y0024452D01*
X0063055Y0024452D01*
X0063055Y0028748D01*
X0063055Y0024885D02*
X0066957Y0024885D01*
X0066957Y0025318D02*
X0063055Y0025318D01*
X0063055Y0025751D02*
X0066957Y0025751D01*
X0066957Y0026184D02*
X0063055Y0026184D01*
X0063055Y0026617D02*
X0066957Y0026617D01*
X0066957Y0027050D02*
X0063055Y0027050D01*
X0063055Y0027483D02*
X0066957Y0027483D01*
X0066957Y0027916D02*
X0063055Y0027916D01*
X0063055Y0028349D02*
X0066957Y0028349D01*
D20*
X0285536Y0061425D02*
X0285536Y0068985D01*
X0285536Y0061425D02*
X0270976Y0061425D01*
X0270976Y0068985D01*
X0285536Y0068985D01*
X0285536Y0062264D02*
X0270976Y0062264D01*
X0270976Y0063103D02*
X0285536Y0063103D01*
X0285536Y0063942D02*
X0270976Y0063942D01*
X0270976Y0064781D02*
X0285536Y0064781D01*
X0285536Y0065620D02*
X0270976Y0065620D01*
X0270976Y0066459D02*
X0285536Y0066459D01*
X0285536Y0067298D02*
X0270976Y0067298D01*
X0270976Y0068137D02*
X0285536Y0068137D01*
X0285536Y0068976D02*
X0270976Y0068976D01*
X0285536Y0081858D02*
X0285536Y0089418D01*
X0285536Y0081858D02*
X0270976Y0081858D01*
X0270976Y0089418D01*
X0285536Y0089418D01*
X0285536Y0082697D02*
X0270976Y0082697D01*
X0270976Y0083536D02*
X0285536Y0083536D01*
X0285536Y0084375D02*
X0270976Y0084375D01*
X0270976Y0085214D02*
X0285536Y0085214D01*
X0285536Y0086053D02*
X0270976Y0086053D01*
X0270976Y0086892D02*
X0285536Y0086892D01*
X0285536Y0087731D02*
X0270976Y0087731D01*
X0270976Y0088570D02*
X0285536Y0088570D01*
X0285536Y0089409D02*
X0270976Y0089409D01*
X0209059Y0176782D02*
X0201499Y0176782D01*
X0209059Y0176782D02*
X0209059Y0162222D01*
X0201499Y0162222D01*
X0201499Y0176782D01*
X0201499Y0163061D02*
X0209059Y0163061D01*
X0209059Y0163900D02*
X0201499Y0163900D01*
X0201499Y0164739D02*
X0209059Y0164739D01*
X0209059Y0165578D02*
X0201499Y0165578D01*
X0201499Y0166417D02*
X0209059Y0166417D01*
X0209059Y0167256D02*
X0201499Y0167256D01*
X0201499Y0168095D02*
X0209059Y0168095D01*
X0209059Y0168934D02*
X0201499Y0168934D01*
X0201499Y0169773D02*
X0209059Y0169773D01*
X0209059Y0170612D02*
X0201499Y0170612D01*
X0201499Y0171451D02*
X0209059Y0171451D01*
X0209059Y0172290D02*
X0201499Y0172290D01*
X0201499Y0173129D02*
X0209059Y0173129D01*
X0209059Y0173968D02*
X0201499Y0173968D01*
X0201499Y0174807D02*
X0209059Y0174807D01*
X0209059Y0175646D02*
X0201499Y0175646D01*
X0201499Y0176485D02*
X0209059Y0176485D01*
X0188626Y0176782D02*
X0181066Y0176782D01*
X0188626Y0176782D02*
X0188626Y0162222D01*
X0181066Y0162222D01*
X0181066Y0176782D01*
X0181066Y0163061D02*
X0188626Y0163061D01*
X0188626Y0163900D02*
X0181066Y0163900D01*
X0181066Y0164739D02*
X0188626Y0164739D01*
X0188626Y0165578D02*
X0181066Y0165578D01*
X0181066Y0166417D02*
X0188626Y0166417D01*
X0188626Y0167256D02*
X0181066Y0167256D01*
X0181066Y0168095D02*
X0188626Y0168095D01*
X0188626Y0168934D02*
X0181066Y0168934D01*
X0181066Y0169773D02*
X0188626Y0169773D01*
X0188626Y0170612D02*
X0181066Y0170612D01*
X0181066Y0171451D02*
X0188626Y0171451D01*
X0188626Y0172290D02*
X0181066Y0172290D01*
X0181066Y0173129D02*
X0188626Y0173129D01*
X0188626Y0173968D02*
X0181066Y0173968D01*
X0181066Y0174807D02*
X0188626Y0174807D01*
X0188626Y0175646D02*
X0181066Y0175646D01*
X0181066Y0176485D02*
X0188626Y0176485D01*
X0159203Y0176882D02*
X0151643Y0176882D01*
X0159203Y0176882D02*
X0159203Y0162322D01*
X0151643Y0162322D01*
X0151643Y0176882D01*
X0151643Y0163161D02*
X0159203Y0163161D01*
X0159203Y0164000D02*
X0151643Y0164000D01*
X0151643Y0164839D02*
X0159203Y0164839D01*
X0159203Y0165678D02*
X0151643Y0165678D01*
X0151643Y0166517D02*
X0159203Y0166517D01*
X0159203Y0167356D02*
X0151643Y0167356D01*
X0151643Y0168195D02*
X0159203Y0168195D01*
X0159203Y0169034D02*
X0151643Y0169034D01*
X0151643Y0169873D02*
X0159203Y0169873D01*
X0159203Y0170712D02*
X0151643Y0170712D01*
X0151643Y0171551D02*
X0159203Y0171551D01*
X0159203Y0172390D02*
X0151643Y0172390D01*
X0151643Y0173229D02*
X0159203Y0173229D01*
X0159203Y0174068D02*
X0151643Y0174068D01*
X0151643Y0174907D02*
X0159203Y0174907D01*
X0159203Y0175746D02*
X0151643Y0175746D01*
X0151643Y0176585D02*
X0159203Y0176585D01*
X0138770Y0176882D02*
X0131210Y0176882D01*
X0138770Y0176882D02*
X0138770Y0162322D01*
X0131210Y0162322D01*
X0131210Y0176882D01*
X0131210Y0163161D02*
X0138770Y0163161D01*
X0138770Y0164000D02*
X0131210Y0164000D01*
X0131210Y0164839D02*
X0138770Y0164839D01*
X0138770Y0165678D02*
X0131210Y0165678D01*
X0131210Y0166517D02*
X0138770Y0166517D01*
X0138770Y0167356D02*
X0131210Y0167356D01*
X0131210Y0168195D02*
X0138770Y0168195D01*
X0138770Y0169034D02*
X0131210Y0169034D01*
X0131210Y0169873D02*
X0138770Y0169873D01*
X0138770Y0170712D02*
X0131210Y0170712D01*
X0131210Y0171551D02*
X0138770Y0171551D01*
X0138770Y0172390D02*
X0131210Y0172390D01*
X0131210Y0173229D02*
X0138770Y0173229D01*
X0138770Y0174068D02*
X0131210Y0174068D01*
X0131210Y0174907D02*
X0138770Y0174907D01*
X0138770Y0175746D02*
X0131210Y0175746D01*
X0131210Y0176585D02*
X0138770Y0176585D01*
D21*
X0124276Y0140690D02*
X0166136Y0140690D01*
X0166136Y0108830D01*
X0124276Y0108830D01*
X0124276Y0140690D01*
X0124276Y0112369D02*
X0166136Y0112369D01*
X0166136Y0115908D02*
X0124276Y0115908D01*
X0124276Y0119447D02*
X0166136Y0119447D01*
X0166136Y0122986D02*
X0124276Y0122986D01*
X0124276Y0126525D02*
X0166136Y0126525D01*
X0166136Y0130064D02*
X0124276Y0130064D01*
X0124276Y0133603D02*
X0166136Y0133603D01*
X0166136Y0137142D02*
X0124276Y0137142D01*
X0124276Y0140681D02*
X0166136Y0140681D01*
X0174132Y0140590D02*
X0215992Y0140590D01*
X0215992Y0108730D01*
X0174132Y0108730D01*
X0174132Y0140590D01*
X0174132Y0112269D02*
X0215992Y0112269D01*
X0215992Y0115808D02*
X0174132Y0115808D01*
X0174132Y0119347D02*
X0215992Y0119347D01*
X0215992Y0122886D02*
X0174132Y0122886D01*
X0174132Y0126425D02*
X0215992Y0126425D01*
X0215992Y0129964D02*
X0174132Y0129964D01*
X0174132Y0133503D02*
X0215992Y0133503D01*
X0215992Y0137042D02*
X0174132Y0137042D01*
X0174132Y0140581D02*
X0215992Y0140581D01*
X0249343Y0096351D02*
X0249343Y0054491D01*
X0217483Y0054491D01*
X0217483Y0096351D01*
X0249343Y0096351D01*
X0249343Y0058030D02*
X0217483Y0058030D01*
X0217483Y0061569D02*
X0249343Y0061569D01*
X0249343Y0065108D02*
X0217483Y0065108D01*
X0217483Y0068647D02*
X0249343Y0068647D01*
X0249343Y0072186D02*
X0217483Y0072186D01*
X0217483Y0075725D02*
X0249343Y0075725D01*
X0249343Y0079264D02*
X0217483Y0079264D01*
X0217483Y0082803D02*
X0249343Y0082803D01*
X0249343Y0086342D02*
X0217483Y0086342D01*
X0217483Y0089881D02*
X0249343Y0089881D01*
X0249343Y0093420D02*
X0217483Y0093420D01*
D22*
X0153890Y0093905D02*
X0153890Y0086045D01*
X0149030Y0086045D01*
X0149030Y0093905D01*
X0153890Y0093905D01*
X0153890Y0086584D02*
X0149030Y0086584D01*
X0149030Y0087123D02*
X0153890Y0087123D01*
X0153890Y0087662D02*
X0149030Y0087662D01*
X0149030Y0088201D02*
X0153890Y0088201D01*
X0153890Y0088740D02*
X0149030Y0088740D01*
X0149030Y0089279D02*
X0153890Y0089279D01*
X0153890Y0089818D02*
X0149030Y0089818D01*
X0149030Y0090357D02*
X0153890Y0090357D01*
X0153890Y0090896D02*
X0149030Y0090896D01*
X0149030Y0091435D02*
X0153890Y0091435D01*
X0153890Y0091974D02*
X0149030Y0091974D01*
X0149030Y0092513D02*
X0153890Y0092513D01*
X0153890Y0093052D02*
X0149030Y0093052D01*
X0149030Y0093591D02*
X0153890Y0093591D01*
X0153687Y0096313D02*
X0153687Y0104173D01*
X0153687Y0096313D02*
X0148827Y0096313D01*
X0148827Y0104173D01*
X0153687Y0104173D01*
X0153687Y0096852D02*
X0148827Y0096852D01*
X0148827Y0097391D02*
X0153687Y0097391D01*
X0153687Y0097930D02*
X0148827Y0097930D01*
X0148827Y0098469D02*
X0153687Y0098469D01*
X0153687Y0099008D02*
X0148827Y0099008D01*
X0148827Y0099547D02*
X0153687Y0099547D01*
X0153687Y0100086D02*
X0148827Y0100086D01*
X0148827Y0100625D02*
X0153687Y0100625D01*
X0153687Y0101164D02*
X0148827Y0101164D01*
X0148827Y0101703D02*
X0153687Y0101703D01*
X0153687Y0102242D02*
X0148827Y0102242D01*
X0148827Y0102781D02*
X0153687Y0102781D01*
X0153687Y0103320D02*
X0148827Y0103320D01*
X0148827Y0103859D02*
X0153687Y0103859D01*
X0140687Y0104173D02*
X0140687Y0096313D01*
X0135827Y0096313D01*
X0135827Y0104173D01*
X0140687Y0104173D01*
X0140687Y0096852D02*
X0135827Y0096852D01*
X0135827Y0097391D02*
X0140687Y0097391D01*
X0140687Y0097930D02*
X0135827Y0097930D01*
X0135827Y0098469D02*
X0140687Y0098469D01*
X0140687Y0099008D02*
X0135827Y0099008D01*
X0135827Y0099547D02*
X0140687Y0099547D01*
X0140687Y0100086D02*
X0135827Y0100086D01*
X0135827Y0100625D02*
X0140687Y0100625D01*
X0140687Y0101164D02*
X0135827Y0101164D01*
X0135827Y0101703D02*
X0140687Y0101703D01*
X0140687Y0102242D02*
X0135827Y0102242D01*
X0135827Y0102781D02*
X0140687Y0102781D01*
X0140687Y0103320D02*
X0135827Y0103320D01*
X0135827Y0103859D02*
X0140687Y0103859D01*
X0140890Y0093905D02*
X0140890Y0086045D01*
X0136030Y0086045D01*
X0136030Y0093905D01*
X0140890Y0093905D01*
X0140890Y0086584D02*
X0136030Y0086584D01*
X0136030Y0087123D02*
X0140890Y0087123D01*
X0140890Y0087662D02*
X0136030Y0087662D01*
X0136030Y0088201D02*
X0140890Y0088201D01*
X0140890Y0088740D02*
X0136030Y0088740D01*
X0136030Y0089279D02*
X0140890Y0089279D01*
X0140890Y0089818D02*
X0136030Y0089818D01*
X0136030Y0090357D02*
X0140890Y0090357D01*
X0140890Y0090896D02*
X0136030Y0090896D01*
X0136030Y0091435D02*
X0140890Y0091435D01*
X0140890Y0091974D02*
X0136030Y0091974D01*
X0136030Y0092513D02*
X0140890Y0092513D01*
X0140890Y0093052D02*
X0136030Y0093052D01*
X0136030Y0093591D02*
X0140890Y0093591D01*
X0128502Y0166784D02*
X0120642Y0166784D01*
X0128502Y0166784D02*
X0128502Y0161924D01*
X0120642Y0161924D01*
X0120642Y0166784D01*
X0120642Y0162463D02*
X0128502Y0162463D01*
X0128502Y0163002D02*
X0120642Y0163002D01*
X0120642Y0163541D02*
X0128502Y0163541D01*
X0128502Y0164080D02*
X0120642Y0164080D01*
X0120642Y0164619D02*
X0128502Y0164619D01*
X0128502Y0165158D02*
X0120642Y0165158D01*
X0120642Y0165697D02*
X0128502Y0165697D01*
X0128502Y0166236D02*
X0120642Y0166236D01*
X0120642Y0166775D02*
X0128502Y0166775D01*
X0128502Y0179784D02*
X0120642Y0179784D01*
X0128502Y0179784D02*
X0128502Y0174924D01*
X0120642Y0174924D01*
X0120642Y0179784D01*
X0120642Y0175463D02*
X0128502Y0175463D01*
X0128502Y0176002D02*
X0120642Y0176002D01*
X0120642Y0176541D02*
X0128502Y0176541D01*
X0128502Y0177080D02*
X0120642Y0177080D01*
X0120642Y0177619D02*
X0128502Y0177619D01*
X0128502Y0178158D02*
X0120642Y0178158D01*
X0120642Y0178697D02*
X0128502Y0178697D01*
X0128502Y0179236D02*
X0120642Y0179236D01*
X0120642Y0179775D02*
X0128502Y0179775D01*
D23*
X0319355Y0070384D02*
X0319355Y0062938D01*
X0319355Y0070384D02*
X0325031Y0070384D01*
X0325031Y0062938D01*
X0319355Y0062938D01*
X0319355Y0063568D02*
X0325031Y0063568D01*
X0325031Y0064198D02*
X0319355Y0064198D01*
X0319355Y0064828D02*
X0325031Y0064828D01*
X0325031Y0065458D02*
X0319355Y0065458D01*
X0319355Y0066088D02*
X0325031Y0066088D01*
X0325031Y0066718D02*
X0319355Y0066718D01*
X0319355Y0067348D02*
X0325031Y0067348D01*
X0325031Y0067978D02*
X0319355Y0067978D01*
X0319355Y0068608D02*
X0325031Y0068608D01*
X0325031Y0069238D02*
X0319355Y0069238D01*
X0319355Y0069868D02*
X0325031Y0069868D01*
X0338489Y0070384D02*
X0338489Y0062938D01*
X0338489Y0070384D02*
X0344165Y0070384D01*
X0344165Y0062938D01*
X0338489Y0062938D01*
X0338489Y0063568D02*
X0344165Y0063568D01*
X0344165Y0064198D02*
X0338489Y0064198D01*
X0338489Y0064828D02*
X0344165Y0064828D01*
X0344165Y0065458D02*
X0338489Y0065458D01*
X0338489Y0066088D02*
X0344165Y0066088D01*
X0344165Y0066718D02*
X0338489Y0066718D01*
X0338489Y0067348D02*
X0344165Y0067348D01*
X0344165Y0067978D02*
X0338489Y0067978D01*
X0338489Y0068608D02*
X0344165Y0068608D01*
X0344165Y0069238D02*
X0338489Y0069238D01*
X0338489Y0069868D02*
X0344165Y0069868D01*
X0338489Y0059558D02*
X0338489Y0052112D01*
X0338489Y0059558D02*
X0344165Y0059558D01*
X0344165Y0052112D01*
X0338489Y0052112D01*
X0338489Y0052742D02*
X0344165Y0052742D01*
X0344165Y0053372D02*
X0338489Y0053372D01*
X0338489Y0054002D02*
X0344165Y0054002D01*
X0344165Y0054632D02*
X0338489Y0054632D01*
X0338489Y0055262D02*
X0344165Y0055262D01*
X0344165Y0055892D02*
X0338489Y0055892D01*
X0338489Y0056522D02*
X0344165Y0056522D01*
X0344165Y0057152D02*
X0338489Y0057152D01*
X0338489Y0057782D02*
X0344165Y0057782D01*
X0344165Y0058412D02*
X0338489Y0058412D01*
X0338489Y0059042D02*
X0344165Y0059042D01*
X0319355Y0059558D02*
X0319355Y0052112D01*
X0319355Y0059558D02*
X0325031Y0059558D01*
X0325031Y0052112D01*
X0319355Y0052112D01*
X0319355Y0052742D02*
X0325031Y0052742D01*
X0325031Y0053372D02*
X0319355Y0053372D01*
X0319355Y0054002D02*
X0325031Y0054002D01*
X0325031Y0054632D02*
X0319355Y0054632D01*
X0319355Y0055262D02*
X0325031Y0055262D01*
X0325031Y0055892D02*
X0319355Y0055892D01*
X0319355Y0056522D02*
X0325031Y0056522D01*
X0325031Y0057152D02*
X0319355Y0057152D01*
X0319355Y0057782D02*
X0325031Y0057782D01*
X0325031Y0058412D02*
X0319355Y0058412D01*
X0319355Y0059042D02*
X0325031Y0059042D01*
D24*
X0251599Y0169940D02*
X0246919Y0169940D01*
X0251599Y0169940D02*
X0251599Y0161260D01*
X0246919Y0161260D01*
X0246919Y0169940D01*
X0246919Y0161779D02*
X0251599Y0161779D01*
X0251599Y0162298D02*
X0246919Y0162298D01*
X0246919Y0162817D02*
X0251599Y0162817D01*
X0251599Y0163336D02*
X0246919Y0163336D01*
X0246919Y0163855D02*
X0251599Y0163855D01*
X0251599Y0164374D02*
X0246919Y0164374D01*
X0246919Y0164893D02*
X0251599Y0164893D01*
X0251599Y0165412D02*
X0246919Y0165412D01*
X0246919Y0165931D02*
X0251599Y0165931D01*
X0251599Y0166450D02*
X0246919Y0166450D01*
X0246919Y0166969D02*
X0251599Y0166969D01*
X0251599Y0167488D02*
X0246919Y0167488D01*
X0246919Y0168007D02*
X0251599Y0168007D01*
X0251599Y0168526D02*
X0246919Y0168526D01*
X0246919Y0169045D02*
X0251599Y0169045D01*
X0251599Y0169564D02*
X0246919Y0169564D01*
X0242499Y0169940D02*
X0237819Y0169940D01*
X0242499Y0169940D02*
X0242499Y0161260D01*
X0237819Y0161260D01*
X0237819Y0169940D01*
X0237819Y0161779D02*
X0242499Y0161779D01*
X0242499Y0162298D02*
X0237819Y0162298D01*
X0237819Y0162817D02*
X0242499Y0162817D01*
X0242499Y0163336D02*
X0237819Y0163336D01*
X0237819Y0163855D02*
X0242499Y0163855D01*
X0242499Y0164374D02*
X0237819Y0164374D01*
X0237819Y0164893D02*
X0242499Y0164893D01*
X0242499Y0165412D02*
X0237819Y0165412D01*
X0237819Y0165931D02*
X0242499Y0165931D01*
X0242499Y0166450D02*
X0237819Y0166450D01*
X0237819Y0166969D02*
X0242499Y0166969D01*
X0242499Y0167488D02*
X0237819Y0167488D01*
X0237819Y0168007D02*
X0242499Y0168007D01*
X0242499Y0168526D02*
X0237819Y0168526D01*
X0237819Y0169045D02*
X0242499Y0169045D01*
X0242499Y0169564D02*
X0237819Y0169564D01*
X0233399Y0169940D02*
X0228719Y0169940D01*
X0233399Y0169940D02*
X0233399Y0161260D01*
X0228719Y0161260D01*
X0228719Y0169940D01*
X0228719Y0161779D02*
X0233399Y0161779D01*
X0233399Y0162298D02*
X0228719Y0162298D01*
X0228719Y0162817D02*
X0233399Y0162817D01*
X0233399Y0163336D02*
X0228719Y0163336D01*
X0228719Y0163855D02*
X0233399Y0163855D01*
X0233399Y0164374D02*
X0228719Y0164374D01*
X0228719Y0164893D02*
X0233399Y0164893D01*
X0233399Y0165412D02*
X0228719Y0165412D01*
X0228719Y0165931D02*
X0233399Y0165931D01*
X0233399Y0166450D02*
X0228719Y0166450D01*
X0228719Y0166969D02*
X0233399Y0166969D01*
X0233399Y0167488D02*
X0228719Y0167488D01*
X0228719Y0168007D02*
X0233399Y0168007D01*
X0233399Y0168526D02*
X0228719Y0168526D01*
X0228719Y0169045D02*
X0233399Y0169045D01*
X0233399Y0169564D02*
X0228719Y0169564D01*
X0108851Y0042924D02*
X0108851Y0038244D01*
X0100171Y0038244D01*
X0100171Y0042924D01*
X0108851Y0042924D01*
X0108851Y0038763D02*
X0100171Y0038763D01*
X0100171Y0039282D02*
X0108851Y0039282D01*
X0108851Y0039801D02*
X0100171Y0039801D01*
X0100171Y0040320D02*
X0108851Y0040320D01*
X0108851Y0040839D02*
X0100171Y0040839D01*
X0100171Y0041358D02*
X0108851Y0041358D01*
X0108851Y0041877D02*
X0100171Y0041877D01*
X0100171Y0042396D02*
X0108851Y0042396D01*
X0108851Y0042915D02*
X0100171Y0042915D01*
X0108851Y0033824D02*
X0108851Y0029144D01*
X0100171Y0029144D01*
X0100171Y0033824D01*
X0108851Y0033824D01*
X0108851Y0029663D02*
X0100171Y0029663D01*
X0100171Y0030182D02*
X0108851Y0030182D01*
X0108851Y0030701D02*
X0100171Y0030701D01*
X0100171Y0031220D02*
X0108851Y0031220D01*
X0108851Y0031739D02*
X0100171Y0031739D01*
X0100171Y0032258D02*
X0108851Y0032258D01*
X0108851Y0032777D02*
X0100171Y0032777D01*
X0100171Y0033296D02*
X0108851Y0033296D01*
X0108851Y0033815D02*
X0100171Y0033815D01*
X0108851Y0024724D02*
X0108851Y0020044D01*
X0100171Y0020044D01*
X0100171Y0024724D01*
X0108851Y0024724D01*
X0108851Y0020563D02*
X0100171Y0020563D01*
X0100171Y0021082D02*
X0108851Y0021082D01*
X0108851Y0021601D02*
X0100171Y0021601D01*
X0100171Y0022120D02*
X0108851Y0022120D01*
X0108851Y0022639D02*
X0100171Y0022639D01*
X0100171Y0023158D02*
X0108851Y0023158D01*
X0108851Y0023677D02*
X0100171Y0023677D01*
X0100171Y0024196D02*
X0108851Y0024196D01*
X0108851Y0024715D02*
X0100171Y0024715D01*
D25*
X0084187Y0024651D02*
X0084187Y0038317D01*
X0084187Y0024651D02*
X0076033Y0024651D01*
X0076033Y0038317D01*
X0084187Y0038317D01*
X0084187Y0025556D02*
X0076033Y0025556D01*
X0076033Y0026461D02*
X0084187Y0026461D01*
X0084187Y0027366D02*
X0076033Y0027366D01*
X0076033Y0028271D02*
X0084187Y0028271D01*
X0084187Y0029176D02*
X0076033Y0029176D01*
X0076033Y0030081D02*
X0084187Y0030081D01*
X0084187Y0030986D02*
X0076033Y0030986D01*
X0076033Y0031891D02*
X0084187Y0031891D01*
X0084187Y0032796D02*
X0076033Y0032796D01*
X0076033Y0033701D02*
X0084187Y0033701D01*
X0084187Y0034606D02*
X0076033Y0034606D01*
X0076033Y0035511D02*
X0084187Y0035511D01*
X0084187Y0036416D02*
X0076033Y0036416D01*
X0076033Y0037321D02*
X0084187Y0037321D01*
X0084187Y0038226D02*
X0076033Y0038226D01*
X0233326Y0145276D02*
X0246992Y0145276D01*
X0246992Y0137122D01*
X0233326Y0137122D01*
X0233326Y0145276D01*
X0233326Y0138027D02*
X0246992Y0138027D01*
X0246992Y0138932D02*
X0233326Y0138932D01*
X0233326Y0139837D02*
X0246992Y0139837D01*
X0246992Y0140742D02*
X0233326Y0140742D01*
X0233326Y0141647D02*
X0246992Y0141647D01*
X0246992Y0142552D02*
X0233326Y0142552D01*
X0233326Y0143457D02*
X0246992Y0143457D01*
X0246992Y0144362D02*
X0233326Y0144362D01*
X0233326Y0145267D02*
X0246992Y0145267D01*
D26*
X0283350Y0146161D02*
X0288106Y0146161D01*
X0288106Y0154035D02*
X0283350Y0154035D01*
X0283350Y0138287D02*
X0288106Y0138287D01*
X0288106Y0130413D02*
X0283350Y0130413D01*
X0283350Y0122539D02*
X0288106Y0122539D01*
X0288106Y0114665D02*
X0283350Y0114665D01*
X0283350Y0106791D02*
X0288106Y0106791D01*
X0288106Y0098917D02*
X0283350Y0098917D01*
X0343224Y0098917D02*
X0347980Y0098917D01*
X0347980Y0106791D02*
X0343224Y0106791D01*
X0343224Y0114665D02*
X0347980Y0114665D01*
X0347980Y0122539D02*
X0343224Y0122539D01*
X0343224Y0130413D02*
X0347980Y0130413D01*
X0347980Y0138287D02*
X0343224Y0138287D01*
X0343224Y0146161D02*
X0347980Y0146161D01*
X0347980Y0154035D02*
X0343224Y0154035D01*
D27*
X0230859Y0177700D03*
X0226159Y0182700D03*
X0138559Y0182600D03*
X0132059Y0182600D03*
X0127459Y0100400D03*
X0121359Y0100400D03*
X0085359Y0083200D03*
X0089459Y0078700D03*
X0116059Y0040300D03*
X0122659Y0040300D03*
X0142559Y0040300D03*
X0148859Y0040400D03*
X0162559Y0082100D03*
X0169459Y0082000D03*
X0170802Y0100400D03*
X0164602Y0100300D03*
M02*
