%
M48
M72
T01C0.0157
T02C0.0197
T03C0.0236
T04C0.0276
T05C0.0315
T06C0.0320
T07C0.0335
T08C0.0374
T09C0.0394
T10C0.0669
T11C0.0866
T12C0.1260
%
T01
X13760Y6405
X16811Y7192
X14448Y10834
X14252Y11129
X14055Y11424
X13858Y11719
X19271Y11719
X23897Y5322
X24882Y5322
X25866Y5322
X26850Y5322
X27933Y5322
X28917Y5322
X21437Y20086
X17992Y20086
X14842Y20086
T02
X16417Y7389
T03
X14547Y10342
X11102Y9653
X10315Y12113
X8740Y13294
X13464Y12113
X15137Y12507
X23504Y10342
X28622Y10735
X30197Y11719
X29212Y12901
X32067Y10538
X34724Y8570
X36004Y8373
X37775Y8668
X37775Y7684
X35905Y5716
X31968Y3649
X31181Y6011
X28425Y7192
X28523Y8471
X36594Y12212
X36496Y12605
X24094Y17428
X21929Y17822
X18779Y17527
X16712Y17822
X13661Y17527
X11496Y17625
X12578Y20184
X9823Y21168
X7559Y22743
X6476Y21365
X5098Y21365
X6378Y16936
X16023Y20086
X21141Y22546
X27047Y19987
X29901Y22546
X11102Y5912
X13956Y3550
X22815Y3550
X40826Y4042
T04
X37434Y11908
X37434Y12695
X37434Y13482
X37434Y14270
X37434Y15057
X37434Y15845
X37434Y16632
X37434Y17419
X31922Y17419
X31922Y16632
X31922Y15845
X31922Y15057
X31922Y14270
X31922Y13482
X31922Y12695
X31922Y11908
T05
X18090Y12212
X9921Y13393
X9173Y11542
X8641Y9613
X7204Y9456
X7204Y7487
X8641Y7330
X9173Y5401
X12578Y6503
T06
X9035Y14818
X9035Y18818
T07
X11317Y22566
X12317Y22566
X13317Y22566
X14317Y22566
X15317Y22566
X16317Y22566
X17317Y22566
X18317Y22566
X19317Y22566
X20317Y22566
X21917Y22566
X22917Y22566
X23917Y22566
X24917Y22566
X25917Y22566
X26917Y22566
X27917Y22566
X28917Y22566
X30917Y22566
X31917Y22566
X32917Y22566
X33917Y22566
X34917Y22566
X35917Y22566
X36917Y22566
X37917Y22566
X37917Y3566
X36917Y3566
X35917Y3566
X34917Y3566
X33917Y3566
X32917Y3566
X30917Y3566
X29917Y3566
X28917Y3566
X27917Y3566
X26917Y3566
X25917Y3566
X24917Y3566
X23917Y3566
X21917Y3566
X20917Y3566
X19917Y3566
X18917Y3566
X17917Y3566
X16917Y3566
X15917Y3566
X14917Y3566
X38917Y3566
X39917Y3566
T08
X40917Y5566
X41917Y5566
X41917Y6566
X40917Y6566
X40917Y7566
X41917Y7566
X41917Y8566
X40917Y8566
X40917Y9566
X41917Y9566
X41917Y10566
X40917Y10566
X40917Y11566
X41917Y11566
X41917Y12566
X40917Y12566
X40917Y13566
X41917Y13566
X41917Y14566
X40917Y14566
X40917Y15566
X41917Y15566
X41917Y16566
X40917Y16566
X40917Y17566
X41917Y17566
X41917Y18566
X40917Y18566
X40917Y19566
X41917Y19566
X41917Y20566
X40917Y20566
X40917Y21566
X41917Y21566
X41917Y22566
X40917Y22566
T09
X22913Y11818
X28228Y6601
X36889Y9448
X36889Y10448
X18779Y6503
X5039Y8471
T10
X5826Y7487
X5826Y9456
T11
X5826Y11542
X5826Y5401
T12
X9417Y3566
X29917Y5566
X41917Y3566
X29917Y16566
X39417Y22566
X9917Y22566
M30
