G75*
%MOIN*%
%OFA0B0*%
%FSLAX25Y25*%
%IPPOS*%
%LPD*%
%AMOC8*
5,1,8,0,0,1.08239X$1,22.5*
%
%ADD10C,0.13398*%
%ADD11C,0.06400*%
%ADD12OC8,0.07400*%
%ADD13R,0.10249X0.10249*%
%ADD14C,0.07800*%
%ADD15R,0.06312X0.12611*%
%ADD16R,0.04737X0.05131*%
%ADD17R,0.05131X0.04737*%
%ADD18R,0.08800X0.15800*%
%ADD19R,0.45800X0.35800*%
%ADD20R,0.08800X0.05800*%
%ADD21R,0.06706X0.08477*%
%ADD22R,0.05600X0.09600*%
%ADD23R,0.14973X0.09461*%
%ADD24R,0.12611X0.06312*%
%ADD25C,0.04556*%
%ADD26R,0.05524X0.01981*%
%ADD27R,0.12611X0.11430*%
%ADD28R,0.01981X0.05524*%
%ADD29R,0.11430X0.12611*%
%ADD30C,0.09461*%
%ADD31C,0.07493*%
%ADD32C,0.06312*%
%ADD33C,0.07099*%
%ADD34R,0.15800X0.08800*%
%ADD35R,0.35800X0.45800*%
%ADD36R,0.05800X0.08800*%
%ADD37C,0.05737*%
%ADD38OC8,0.04162*%
%ADD39OC8,0.03375*%
%ADD40OC8,0.05737*%
%ADD41OC8,0.03769*%
%ADD42OC8,0.04950*%
D10*
X0094170Y0035660D03*
X0299170Y0055660D03*
X0419170Y0035660D03*
X0299170Y0165660D03*
X0394170Y0225660D03*
X0099170Y0225660D03*
D11*
X0113170Y0222860D02*
X0113170Y0228460D01*
X0123170Y0228460D02*
X0123170Y0222860D01*
X0133170Y0222860D02*
X0133170Y0228460D01*
X0143170Y0228460D02*
X0143170Y0222860D01*
X0153170Y0222860D02*
X0153170Y0228460D01*
X0163170Y0228460D02*
X0163170Y0222860D01*
X0173170Y0222860D02*
X0173170Y0228460D01*
X0183170Y0228460D02*
X0183170Y0222860D01*
X0193170Y0222860D02*
X0193170Y0228460D01*
X0203170Y0228460D02*
X0203170Y0222860D01*
X0219170Y0222860D02*
X0219170Y0228460D01*
X0229170Y0228460D02*
X0229170Y0222860D01*
X0239170Y0222860D02*
X0239170Y0228460D01*
X0249170Y0228460D02*
X0249170Y0222860D01*
X0259170Y0222860D02*
X0259170Y0228460D01*
X0269170Y0228460D02*
X0269170Y0222860D01*
X0279170Y0222860D02*
X0279170Y0228460D01*
X0289170Y0228460D02*
X0289170Y0222860D01*
X0309170Y0222860D02*
X0309170Y0228460D01*
X0319170Y0228460D02*
X0319170Y0222860D01*
X0329170Y0222860D02*
X0329170Y0228460D01*
X0339170Y0228460D02*
X0339170Y0222860D01*
X0349170Y0222860D02*
X0349170Y0228460D01*
X0359170Y0228460D02*
X0359170Y0222860D01*
X0369170Y0222860D02*
X0369170Y0228460D01*
X0379170Y0228460D02*
X0379170Y0222860D01*
X0379170Y0038460D02*
X0379170Y0032860D01*
X0369170Y0032860D02*
X0369170Y0038460D01*
X0359170Y0038460D02*
X0359170Y0032860D01*
X0349170Y0032860D02*
X0349170Y0038460D01*
X0339170Y0038460D02*
X0339170Y0032860D01*
X0329170Y0032860D02*
X0329170Y0038460D01*
X0309170Y0038460D02*
X0309170Y0032860D01*
X0299170Y0032860D02*
X0299170Y0038460D01*
X0289170Y0038460D02*
X0289170Y0032860D01*
X0279170Y0032860D02*
X0279170Y0038460D01*
X0269170Y0038460D02*
X0269170Y0032860D01*
X0259170Y0032860D02*
X0259170Y0038460D01*
X0249170Y0038460D02*
X0249170Y0032860D01*
X0239170Y0032860D02*
X0239170Y0038460D01*
X0219170Y0038460D02*
X0219170Y0032860D01*
X0209170Y0032860D02*
X0209170Y0038460D01*
X0199170Y0038460D02*
X0199170Y0032860D01*
X0189170Y0032860D02*
X0189170Y0038460D01*
X0179170Y0038460D02*
X0179170Y0032860D01*
X0169170Y0032860D02*
X0169170Y0038460D01*
X0159170Y0038460D02*
X0159170Y0032860D01*
X0149170Y0032860D02*
X0149170Y0038460D01*
X0389170Y0038460D02*
X0389170Y0032860D01*
X0399170Y0032860D02*
X0399170Y0038460D01*
D12*
X0409170Y0055660D03*
X0419170Y0055660D03*
X0419170Y0065660D03*
X0409170Y0065660D03*
X0409170Y0075660D03*
X0419170Y0075660D03*
X0419170Y0085660D03*
X0409170Y0085660D03*
X0409170Y0095660D03*
X0419170Y0095660D03*
X0419170Y0105660D03*
X0409170Y0105660D03*
X0409170Y0115660D03*
X0419170Y0115660D03*
X0419170Y0125660D03*
X0409170Y0125660D03*
X0409170Y0135660D03*
X0419170Y0135660D03*
X0419170Y0145660D03*
X0409170Y0145660D03*
X0409170Y0155660D03*
X0419170Y0155660D03*
X0419170Y0165660D03*
X0409170Y0165660D03*
X0409170Y0175660D03*
X0419170Y0175660D03*
X0419170Y0185660D03*
X0409170Y0185660D03*
X0409170Y0195660D03*
X0419170Y0195660D03*
X0419170Y0205660D03*
X0409170Y0205660D03*
X0409170Y0215660D03*
X0419170Y0215660D03*
X0419170Y0225660D03*
X0409170Y0225660D03*
D13*
X0341532Y0068770D03*
X0324209Y0068770D03*
X0085430Y0203022D03*
X0085430Y0220345D03*
D14*
X0086851Y0188179D02*
X0093851Y0188179D01*
X0093851Y0148179D02*
X0086851Y0148179D01*
D15*
X0058540Y0203337D03*
X0058540Y0222234D03*
D16*
X0058461Y0189833D03*
X0058461Y0183140D03*
X0105509Y0116014D03*
X0105509Y0109321D03*
X0287527Y0116949D03*
X0294220Y0116949D03*
X0328423Y0106960D03*
X0335116Y0106960D03*
X0335216Y0098060D03*
X0328523Y0098060D03*
X0328623Y0089160D03*
X0335316Y0089160D03*
X0294342Y0096280D03*
X0287649Y0096280D03*
X0294076Y0180244D03*
X0300769Y0180244D03*
X0301217Y0195148D03*
X0294524Y0195148D03*
X0294524Y0204754D03*
X0301217Y0204754D03*
D17*
X0230312Y0195384D03*
X0230312Y0188691D03*
X0210036Y0189006D03*
X0210036Y0195699D03*
X0177813Y0195632D03*
X0177813Y0188939D03*
X0158260Y0188939D03*
X0158260Y0195632D03*
X0145574Y0195732D03*
X0145574Y0189039D03*
X0125620Y0189039D03*
X0125620Y0195732D03*
X0150821Y0118123D03*
X0150821Y0111430D03*
X0294403Y0151949D03*
X0301096Y0151949D03*
X0363737Y0069990D03*
X0363737Y0063297D03*
X0382674Y0064282D03*
X0382674Y0070974D03*
D18*
X0240292Y0190541D03*
X0219859Y0190541D03*
X0188166Y0190581D03*
X0167733Y0190581D03*
X0136001Y0190581D03*
X0115568Y0190581D03*
D19*
X0125784Y0145738D03*
X0177949Y0145738D03*
X0230075Y0145699D03*
D20*
X0250955Y0182635D03*
X0250955Y0195635D03*
X0198364Y0196417D03*
X0198364Y0183417D03*
X0104501Y0182545D03*
X0104501Y0195545D03*
D21*
X0353304Y0075010D03*
X0353304Y0064183D03*
X0371453Y0065167D03*
X0371453Y0075994D03*
D22*
X0280370Y0185760D03*
X0271270Y0185760D03*
X0262170Y0185760D03*
X0071301Y0129995D03*
X0062201Y0129995D03*
X0053101Y0129995D03*
D23*
X0062201Y0154396D03*
X0271270Y0161359D03*
D24*
X0263074Y0138612D03*
X0281972Y0138612D03*
X0178934Y0110305D03*
X0160036Y0110305D03*
D25*
X0315461Y0119076D02*
X0319217Y0119076D01*
X0319217Y0126950D02*
X0315461Y0126950D01*
X0315461Y0134824D02*
X0319217Y0134824D01*
X0319217Y0142698D02*
X0315461Y0142698D01*
X0315461Y0150572D02*
X0319217Y0150572D01*
X0319217Y0158446D02*
X0315461Y0158446D01*
X0315461Y0166320D02*
X0319217Y0166320D01*
X0319217Y0174194D02*
X0315461Y0174194D01*
X0374335Y0174194D02*
X0378091Y0174194D01*
X0378091Y0166320D02*
X0374335Y0166320D01*
X0374335Y0158446D02*
X0378091Y0158446D01*
X0378091Y0150572D02*
X0374335Y0150572D01*
X0374335Y0142698D02*
X0378091Y0142698D01*
X0378091Y0134824D02*
X0374335Y0134824D01*
X0374335Y0126950D02*
X0378091Y0126950D01*
X0378091Y0119076D02*
X0374335Y0119076D01*
D26*
X0222683Y0112164D03*
X0222683Y0110196D03*
X0222683Y0108227D03*
X0222683Y0106259D03*
X0222683Y0104290D03*
X0222683Y0102322D03*
X0222683Y0073519D03*
X0222683Y0071550D03*
X0222683Y0069582D03*
X0222683Y0067613D03*
X0222683Y0065645D03*
X0222683Y0063676D03*
X0114515Y0063895D03*
X0114515Y0065863D03*
X0114515Y0067832D03*
X0114515Y0069800D03*
X0114515Y0071769D03*
X0114515Y0073737D03*
X0114515Y0102671D03*
X0114515Y0104639D03*
X0114515Y0106608D03*
X0114515Y0108576D03*
X0114515Y0110545D03*
X0114515Y0112513D03*
D27*
X0121995Y0120111D03*
X0121995Y0095072D03*
X0121995Y0081336D03*
X0121995Y0056297D03*
X0215203Y0056078D03*
X0215203Y0081117D03*
X0215203Y0094723D03*
X0215203Y0119763D03*
D28*
X0173992Y0089094D03*
X0172023Y0089094D03*
X0170055Y0089094D03*
X0168086Y0089094D03*
X0166118Y0089094D03*
X0164149Y0089094D03*
D29*
X0156551Y0081614D03*
X0181590Y0081614D03*
D30*
X0058264Y0054006D03*
X0058264Y0115423D03*
D31*
X0058264Y0094557D03*
X0058264Y0074872D03*
D32*
X0050390Y0081959D02*
X0050390Y0087471D01*
X0069288Y0094557D02*
X0074800Y0094557D01*
X0083658Y0096132D02*
X0089170Y0096132D01*
X0074800Y0074872D02*
X0069288Y0074872D01*
X0083658Y0073297D02*
X0089170Y0073297D01*
D33*
X0088579Y0054006D02*
X0094879Y0054006D01*
X0094879Y0115423D02*
X0088579Y0115423D01*
D34*
X0301532Y0106742D03*
X0301532Y0086309D03*
D35*
X0256690Y0096526D03*
D36*
X0297139Y0075197D03*
X0310139Y0075197D03*
D37*
X0366426Y0094478D02*
X0371363Y0094478D01*
X0371363Y0104478D02*
X0366426Y0104478D01*
D38*
X0365942Y0122116D03*
X0364957Y0126053D03*
X0320666Y0105384D03*
X0301965Y0117195D03*
X0286217Y0107352D03*
X0292123Y0129006D03*
X0235036Y0103415D03*
X0285233Y0084715D03*
X0284249Y0071919D03*
X0311808Y0060108D03*
X0319682Y0036486D03*
X0359052Y0057156D03*
X0377753Y0076841D03*
X0377753Y0086683D03*
X0360036Y0083730D03*
X0347241Y0085699D03*
X0408264Y0040423D03*
X0228146Y0035502D03*
X0139564Y0035502D03*
X0111020Y0059124D03*
X0111020Y0096526D03*
X0145469Y0103415D03*
X0134642Y0121132D03*
X0151375Y0125069D03*
X0103146Y0121132D03*
X0087398Y0132943D03*
X0063776Y0169360D03*
X0114957Y0176250D03*
X0136611Y0175266D03*
X0167123Y0178219D03*
X0187792Y0175266D03*
X0219288Y0178219D03*
X0240942Y0174282D03*
X0270469Y0199872D03*
X0299012Y0225463D03*
X0211414Y0225463D03*
X0160233Y0200856D03*
X0125784Y0201841D03*
X0098225Y0211683D03*
X0075587Y0227431D03*
X0064760Y0213652D03*
X0050981Y0213652D03*
D39*
X0148422Y0200856D03*
X0179918Y0200856D03*
X0214367Y0200856D03*
X0192713Y0117195D03*
X0144485Y0108337D03*
X0142516Y0111289D03*
X0140548Y0114242D03*
X0138579Y0117195D03*
X0168107Y0071919D03*
X0137595Y0064045D03*
X0238973Y0053219D03*
X0248816Y0053219D03*
X0258658Y0053219D03*
X0268501Y0053219D03*
X0279327Y0053219D03*
X0289170Y0053219D03*
D40*
X0282280Y0066014D03*
X0187792Y0065030D03*
X0229131Y0118179D03*
D41*
X0164170Y0073888D03*
D42*
X0125784Y0065030D03*
X0180902Y0122116D03*
X0099209Y0133927D03*
M02*
