G75*
%MOIN*%
%OFA0B0*%
%FSLAX25Y25*%
%IPPOS*%
%LPD*%
%AMOC8*
5,1,8,0,0,1.08239X$1,22.5*
%
%ADD10C,0.04346*%
%ADD11C,0.04740*%
%ADD12C,0.04200*%
%ADD13C,0.03756*%
%ADD14C,0.04150*%
%ADD15C,0.04937*%
%ADD16C,0.03362*%
%ADD17C,0.02575*%
%ADD18C,0.01575*%
%ADD19C,0.02969*%
%ADD20C,0.03150*%
%ADD21C,0.02362*%
%ADD22C,0.01181*%
D10*
X0149170Y0035660D03*
X0159170Y0035660D03*
X0169170Y0035660D03*
X0179170Y0035660D03*
X0189170Y0035660D03*
X0199170Y0035660D03*
X0209170Y0035660D03*
X0219170Y0035660D03*
X0239170Y0035660D03*
X0249170Y0035660D03*
X0259170Y0035660D03*
X0269170Y0035660D03*
X0279170Y0035660D03*
X0289170Y0035660D03*
X0299170Y0035660D03*
X0309170Y0035660D03*
X0329170Y0035660D03*
X0339170Y0035660D03*
X0349170Y0035660D03*
X0359170Y0035660D03*
X0369170Y0035660D03*
X0379170Y0035660D03*
X0389170Y0035660D03*
X0399170Y0035660D03*
X0379170Y0225660D03*
X0369170Y0225660D03*
X0359170Y0225660D03*
X0349170Y0225660D03*
X0339170Y0225660D03*
X0329170Y0225660D03*
X0319170Y0225660D03*
X0309170Y0225660D03*
X0289170Y0225660D03*
X0279170Y0225660D03*
X0269170Y0225660D03*
X0259170Y0225660D03*
X0249170Y0225660D03*
X0239170Y0225660D03*
X0229170Y0225660D03*
X0219170Y0225660D03*
X0203170Y0225660D03*
X0193170Y0225660D03*
X0183170Y0225660D03*
X0173170Y0225660D03*
X0163170Y0225660D03*
X0153170Y0225660D03*
X0143170Y0225660D03*
X0133170Y0225660D03*
X0123170Y0225660D03*
X0113170Y0225660D03*
D11*
X0409170Y0225660D03*
X0419170Y0225660D03*
X0419170Y0215660D03*
X0409170Y0215660D03*
X0409170Y0205660D03*
X0419170Y0205660D03*
X0419170Y0195660D03*
X0409170Y0195660D03*
X0409170Y0185660D03*
X0419170Y0185660D03*
X0419170Y0175660D03*
X0409170Y0175660D03*
X0409170Y0165660D03*
X0419170Y0165660D03*
X0419170Y0155660D03*
X0409170Y0155660D03*
X0409170Y0145660D03*
X0419170Y0145660D03*
X0419170Y0135660D03*
X0409170Y0135660D03*
X0409170Y0125660D03*
X0419170Y0125660D03*
X0419170Y0115660D03*
X0409170Y0115660D03*
X0409170Y0105660D03*
X0419170Y0105660D03*
X0419170Y0095660D03*
X0409170Y0095660D03*
X0409170Y0085660D03*
X0419170Y0085660D03*
X0419170Y0075660D03*
X0409170Y0075660D03*
X0409170Y0065660D03*
X0419170Y0065660D03*
X0419170Y0055660D03*
X0409170Y0055660D03*
D12*
X0090351Y0148179D03*
X0090351Y0188179D03*
D13*
X0319217Y0174194D03*
X0319217Y0166320D03*
X0319217Y0158446D03*
X0319217Y0150572D03*
X0319217Y0142698D03*
X0319217Y0134824D03*
X0319217Y0126950D03*
X0319217Y0119076D03*
X0374335Y0119076D03*
X0374335Y0126950D03*
X0374335Y0134824D03*
X0374335Y0142698D03*
X0374335Y0150572D03*
X0374335Y0158446D03*
X0374335Y0166320D03*
X0374335Y0174194D03*
D14*
X0091729Y0054006D03*
X0086414Y0073297D03*
X0072044Y0074872D03*
X0072044Y0094557D03*
X0086414Y0096132D03*
X0091729Y0115423D03*
X0099209Y0133927D03*
X0180902Y0122116D03*
X0125784Y0065030D03*
D15*
X0187792Y0065030D03*
X0282280Y0066014D03*
X0368894Y0094478D03*
X0368894Y0104478D03*
X0229131Y0118179D03*
X0050390Y0084715D03*
D16*
X0111020Y0096526D03*
X0145469Y0103415D03*
X0134642Y0121132D03*
X0151375Y0125069D03*
X0103146Y0121132D03*
X0087398Y0132943D03*
X0063776Y0169360D03*
X0114957Y0176250D03*
X0136611Y0175266D03*
X0167123Y0178219D03*
X0187792Y0175266D03*
X0219288Y0178219D03*
X0240942Y0174282D03*
X0270469Y0199872D03*
X0299012Y0225463D03*
X0211414Y0225463D03*
X0160233Y0200856D03*
X0125784Y0201841D03*
X0098225Y0211683D03*
X0075587Y0227431D03*
X0064760Y0213652D03*
X0050981Y0213652D03*
X0235036Y0103415D03*
X0286217Y0107352D03*
X0301965Y0117195D03*
X0292123Y0129006D03*
X0320666Y0105384D03*
X0347241Y0085699D03*
X0360036Y0083730D03*
X0377753Y0086683D03*
X0377753Y0076841D03*
X0359052Y0057156D03*
X0319682Y0036486D03*
X0311808Y0060108D03*
X0284249Y0071919D03*
X0285233Y0084715D03*
X0365942Y0122116D03*
X0364957Y0126053D03*
X0408264Y0040423D03*
X0228146Y0035502D03*
X0139564Y0035502D03*
X0111020Y0059124D03*
D17*
X0137595Y0064045D03*
X0168107Y0071919D03*
X0144485Y0108337D03*
X0142516Y0111289D03*
X0140548Y0114242D03*
X0138579Y0117195D03*
X0192713Y0117195D03*
X0238973Y0053219D03*
X0248816Y0053219D03*
X0258658Y0053219D03*
X0268501Y0053219D03*
X0279327Y0053219D03*
X0289170Y0053219D03*
X0214367Y0200856D03*
X0179918Y0200856D03*
X0148422Y0200856D03*
D18*
X0359170Y0189360D02*
X0374335Y0174194D01*
X0359170Y0189360D02*
X0359170Y0225660D01*
D19*
X0164170Y0073888D03*
D20*
X0170075Y0084715D02*
X0137595Y0084715D01*
X0131690Y0078809D01*
X0131690Y0068967D01*
X0127753Y0065030D01*
X0125784Y0065030D01*
X0170075Y0084715D02*
X0180902Y0095541D01*
X0180902Y0122116D01*
D21*
X0192713Y0117195D02*
X0214367Y0117195D01*
X0219288Y0112274D01*
X0260627Y0112274D01*
X0275390Y0097510D01*
X0346257Y0097510D01*
X0360036Y0083730D01*
D22*
X0338501Y0046329D02*
X0349170Y0035660D01*
X0339170Y0035660D02*
X0331453Y0043376D01*
X0143501Y0043376D01*
X0137595Y0049282D01*
X0137595Y0064045D01*
X0168107Y0070935D02*
X0168107Y0071919D01*
X0168107Y0070935D02*
X0179918Y0059124D01*
X0189760Y0059124D01*
X0202556Y0046329D01*
X0338501Y0046329D01*
M02*
