G75*
%MOIN*%
%OFA0B0*%
%FSLAX25Y25*%
%IPPOS*%
%LPD*%
%AMOC8*
5,1,8,0,0,1.08239X$1,22.5*
%
%ADD10C,0.01200*%
%ADD11C,0.01000*%
%ADD12C,0.01600*%
%ADD13C,0.00600*%
%ADD14C,0.00700*%
%ADD15C,0.00900*%
%ADD16C,0.00400*%
%ADD17C,0.00800*%
%ADD18C,0.00500*%
%ADD19C,0.00200*%
%ADD20R,0.02400X0.01400*%
%ADD21C,0.00300*%
%ADD22R,0.03400X0.03000*%
%ADD23R,0.03000X0.03400*%
%ADD24C,0.02400*%
D10*
X0212559Y0037500D02*
X0220559Y0037500D01*
X0294059Y0037500D02*
X0362559Y0037500D01*
X0366059Y0034000D01*
X0378059Y0028000D02*
X0378059Y0026000D01*
X0388059Y0026000D01*
X0388059Y0028000D01*
X0361559Y0046000D02*
X0357559Y0050000D01*
X0357559Y0096000D01*
X0357559Y0137500D02*
X0357559Y0191500D01*
X0361559Y0195500D01*
X0378059Y0210500D02*
X0378059Y0213000D01*
X0388059Y0213000D01*
X0388059Y0210500D01*
X0238059Y0187000D02*
X0234059Y0183000D01*
X0190059Y0183000D01*
X0168059Y0183000D02*
X0127059Y0183000D01*
X0123559Y0186500D01*
D11*
X0119122Y0168591D02*
X0119122Y0151091D01*
X0079122Y0151091D01*
X0079122Y0168591D01*
X0119122Y0168591D01*
X0119122Y0151091D02*
X0119122Y0143591D01*
X0079122Y0143591D01*
X0079122Y0151091D01*
X0079240Y0142016D02*
X0119240Y0142016D01*
X0119240Y0124516D01*
X0079240Y0124516D01*
X0079240Y0142016D01*
X0079240Y0124516D02*
X0079240Y0117016D01*
X0119240Y0117016D01*
X0119240Y0124516D01*
X0099437Y0113984D02*
X0099437Y0096484D01*
X0079437Y0096484D01*
X0079437Y0113984D01*
X0099437Y0113984D01*
X0099437Y0096484D02*
X0099437Y0088984D01*
X0079437Y0088984D01*
X0079437Y0096484D01*
X0079859Y0071600D02*
X0099859Y0071600D01*
X0099859Y0054100D01*
X0079859Y0054100D01*
X0079859Y0071600D01*
X0110343Y0071622D02*
X0210343Y0071622D01*
X0210343Y0054122D01*
X0110343Y0054122D01*
X0110343Y0071622D01*
X0110343Y0054122D02*
X0110343Y0046622D01*
X0210343Y0046622D01*
X0210343Y0054122D01*
X0226059Y0038737D02*
X0227927Y0040605D01*
X0229796Y0038737D01*
X0229796Y0035000D01*
X0232136Y0035000D02*
X0232136Y0040605D01*
X0235873Y0035000D01*
X0235873Y0040605D01*
X0238213Y0038737D02*
X0240082Y0040605D01*
X0241950Y0038737D01*
X0241950Y0035000D01*
X0244291Y0035000D02*
X0248027Y0035000D01*
X0250368Y0035934D02*
X0251302Y0035000D01*
X0253170Y0035000D01*
X0254104Y0035934D01*
X0254104Y0039671D01*
X0253170Y0040605D01*
X0251302Y0040605D01*
X0250368Y0039671D01*
X0250368Y0035934D01*
X0244291Y0035000D02*
X0244291Y0040605D01*
X0241950Y0037802D02*
X0238213Y0037802D01*
X0238213Y0038737D02*
X0238213Y0035000D01*
X0229796Y0037802D02*
X0226059Y0037802D01*
X0226059Y0038737D02*
X0226059Y0035000D01*
X0212559Y0037500D02*
X0208559Y0033500D01*
X0256445Y0035934D02*
X0257379Y0035000D01*
X0259247Y0035000D01*
X0260182Y0035934D01*
X0260182Y0037802D01*
X0258313Y0037802D01*
X0256445Y0035934D02*
X0256445Y0039671D01*
X0257379Y0040605D01*
X0259247Y0040605D01*
X0260182Y0039671D01*
X0280754Y0040605D02*
X0282622Y0040605D01*
X0281688Y0040605D02*
X0281688Y0035000D01*
X0280754Y0035000D02*
X0282622Y0035000D01*
X0284805Y0035000D02*
X0284805Y0040605D01*
X0288542Y0035000D01*
X0288542Y0040605D01*
X0354454Y0098500D02*
X0354454Y0101302D01*
X0355388Y0102237D01*
X0359125Y0102237D01*
X0360059Y0101302D01*
X0360059Y0098500D01*
X0354454Y0098500D01*
X0354454Y0104577D02*
X0354454Y0106445D01*
X0354454Y0105511D02*
X0360059Y0105511D01*
X0360059Y0104577D02*
X0360059Y0106445D01*
X0359125Y0108629D02*
X0355388Y0108629D01*
X0354454Y0109563D01*
X0354454Y0111431D01*
X0355388Y0112365D01*
X0357257Y0112365D02*
X0357257Y0110497D01*
X0357257Y0112365D02*
X0359125Y0112365D01*
X0360059Y0111431D01*
X0360059Y0109563D01*
X0359125Y0108629D01*
X0360059Y0114706D02*
X0360059Y0116574D01*
X0360059Y0115640D02*
X0354454Y0115640D01*
X0354454Y0114706D02*
X0354454Y0116574D01*
X0354454Y0118757D02*
X0354454Y0122494D01*
X0354454Y0120626D02*
X0360059Y0120626D01*
X0360059Y0124834D02*
X0356323Y0124834D01*
X0354454Y0126703D01*
X0356323Y0128571D01*
X0360059Y0128571D01*
X0360059Y0130912D02*
X0354454Y0130912D01*
X0357257Y0128571D02*
X0357257Y0124834D01*
X0360059Y0130912D02*
X0360059Y0134648D01*
X0186950Y0181969D02*
X0186950Y0187573D01*
X0185082Y0185705D01*
X0183213Y0187573D01*
X0183213Y0181969D01*
X0180873Y0181969D02*
X0179005Y0183837D01*
X0177136Y0181969D01*
X0177136Y0187573D01*
X0174796Y0186639D02*
X0174796Y0184771D01*
X0173861Y0183837D01*
X0171059Y0183837D01*
X0171059Y0181969D02*
X0171059Y0187573D01*
X0173861Y0187573D01*
X0174796Y0186639D01*
X0180873Y0187573D02*
X0180873Y0181969D01*
X0048217Y0194870D02*
X0011209Y0194870D01*
X0011209Y0025579D01*
X0017508Y0025579D01*
X0017510Y0025487D01*
X0017516Y0025395D01*
X0017526Y0025304D01*
X0017539Y0025213D01*
X0017557Y0025123D01*
X0017578Y0025033D01*
X0017603Y0024945D01*
X0017632Y0024858D01*
X0017664Y0024772D01*
X0017700Y0024687D01*
X0017740Y0024604D01*
X0017783Y0024523D01*
X0017829Y0024444D01*
X0017879Y0024367D01*
X0017932Y0024292D01*
X0017989Y0024219D01*
X0018048Y0024149D01*
X0018110Y0024081D01*
X0018175Y0024016D01*
X0018243Y0023954D01*
X0018313Y0023895D01*
X0018386Y0023838D01*
X0018461Y0023785D01*
X0018538Y0023735D01*
X0018617Y0023689D01*
X0018698Y0023646D01*
X0018781Y0023606D01*
X0018866Y0023570D01*
X0018952Y0023538D01*
X0019039Y0023509D01*
X0019127Y0023484D01*
X0019217Y0023463D01*
X0019307Y0023445D01*
X0019398Y0023432D01*
X0019489Y0023422D01*
X0019581Y0023416D01*
X0019673Y0023414D01*
X0019765Y0023416D01*
X0019857Y0023422D01*
X0019948Y0023432D01*
X0020039Y0023445D01*
X0020129Y0023463D01*
X0020219Y0023484D01*
X0020307Y0023509D01*
X0020394Y0023538D01*
X0020480Y0023570D01*
X0020565Y0023606D01*
X0020648Y0023646D01*
X0020729Y0023689D01*
X0020808Y0023735D01*
X0020885Y0023785D01*
X0020960Y0023838D01*
X0021033Y0023895D01*
X0021103Y0023954D01*
X0021171Y0024016D01*
X0021236Y0024081D01*
X0021298Y0024149D01*
X0021357Y0024219D01*
X0021414Y0024292D01*
X0021467Y0024367D01*
X0021517Y0024444D01*
X0021563Y0024523D01*
X0021606Y0024604D01*
X0021646Y0024687D01*
X0021682Y0024772D01*
X0021714Y0024858D01*
X0021743Y0024945D01*
X0021768Y0025033D01*
X0021789Y0025123D01*
X0021807Y0025213D01*
X0021820Y0025304D01*
X0021830Y0025395D01*
X0021836Y0025487D01*
X0021838Y0025579D01*
X0021839Y0025579D02*
X0048217Y0025579D01*
X0048217Y0194870D01*
X0043492Y0195264D02*
X0043492Y0198020D01*
X0036012Y0197627D02*
X0035879Y0197715D01*
X0035748Y0197806D01*
X0035619Y0197900D01*
X0035492Y0197998D01*
X0035368Y0198098D01*
X0035247Y0198202D01*
X0035128Y0198308D01*
X0035011Y0198418D01*
X0034897Y0198530D01*
X0034786Y0198645D01*
X0034678Y0198762D01*
X0034573Y0198882D01*
X0034471Y0199005D01*
X0034372Y0199130D01*
X0034276Y0199258D01*
X0034183Y0199388D01*
X0034093Y0199520D01*
X0034006Y0199654D01*
X0033923Y0199790D01*
X0033843Y0199929D01*
X0033766Y0200069D01*
X0033693Y0200211D01*
X0033624Y0200354D01*
X0033558Y0200500D01*
X0033495Y0200647D01*
X0033436Y0200795D01*
X0033381Y0200945D01*
X0033329Y0201096D01*
X0033281Y0201249D01*
X0033237Y0201402D01*
X0033197Y0201557D01*
X0033160Y0201712D01*
X0033127Y0201868D01*
X0033098Y0202025D01*
X0033073Y0202183D01*
X0033052Y0202341D01*
X0033034Y0202500D01*
X0033021Y0202659D01*
X0033011Y0202819D01*
X0033005Y0202978D01*
X0033003Y0203138D01*
X0033005Y0203298D01*
X0033011Y0203457D01*
X0033021Y0203617D01*
X0033034Y0203776D01*
X0033052Y0203935D01*
X0033073Y0204093D01*
X0033098Y0204251D01*
X0033127Y0204408D01*
X0033160Y0204564D01*
X0033197Y0204719D01*
X0033237Y0204874D01*
X0033281Y0205027D01*
X0033329Y0205180D01*
X0033381Y0205331D01*
X0033436Y0205481D01*
X0033495Y0205629D01*
X0033558Y0205776D01*
X0033624Y0205922D01*
X0033693Y0206065D01*
X0033766Y0206207D01*
X0033843Y0206347D01*
X0033923Y0206486D01*
X0034006Y0206622D01*
X0034093Y0206756D01*
X0034183Y0206888D01*
X0034276Y0207018D01*
X0034372Y0207146D01*
X0034471Y0207271D01*
X0034573Y0207394D01*
X0034678Y0207514D01*
X0034786Y0207631D01*
X0034897Y0207746D01*
X0035011Y0207858D01*
X0035128Y0207968D01*
X0035247Y0208074D01*
X0035368Y0208178D01*
X0035492Y0208278D01*
X0035619Y0208376D01*
X0035748Y0208470D01*
X0035879Y0208561D01*
X0036012Y0208649D01*
X0036012Y0208650D02*
X0043098Y0208650D01*
X0043098Y0208649D02*
X0043231Y0208561D01*
X0043362Y0208470D01*
X0043491Y0208376D01*
X0043618Y0208278D01*
X0043742Y0208178D01*
X0043863Y0208074D01*
X0043982Y0207968D01*
X0044099Y0207858D01*
X0044213Y0207746D01*
X0044324Y0207631D01*
X0044432Y0207514D01*
X0044537Y0207394D01*
X0044639Y0207271D01*
X0044738Y0207146D01*
X0044834Y0207018D01*
X0044927Y0206888D01*
X0045017Y0206756D01*
X0045104Y0206622D01*
X0045187Y0206486D01*
X0045267Y0206347D01*
X0045344Y0206207D01*
X0045417Y0206065D01*
X0045486Y0205922D01*
X0045552Y0205776D01*
X0045615Y0205629D01*
X0045674Y0205481D01*
X0045729Y0205331D01*
X0045781Y0205180D01*
X0045829Y0205027D01*
X0045873Y0204874D01*
X0045913Y0204719D01*
X0045950Y0204564D01*
X0045983Y0204408D01*
X0046012Y0204251D01*
X0046037Y0204093D01*
X0046058Y0203935D01*
X0046076Y0203776D01*
X0046089Y0203617D01*
X0046099Y0203457D01*
X0046105Y0203298D01*
X0046107Y0203138D01*
X0046105Y0202978D01*
X0046099Y0202819D01*
X0046089Y0202659D01*
X0046076Y0202500D01*
X0046058Y0202341D01*
X0046037Y0202183D01*
X0046012Y0202025D01*
X0045983Y0201868D01*
X0045950Y0201712D01*
X0045913Y0201557D01*
X0045873Y0201402D01*
X0045829Y0201249D01*
X0045781Y0201096D01*
X0045729Y0200945D01*
X0045674Y0200795D01*
X0045615Y0200647D01*
X0045552Y0200500D01*
X0045486Y0200354D01*
X0045417Y0200211D01*
X0045344Y0200069D01*
X0045267Y0199929D01*
X0045187Y0199790D01*
X0045104Y0199654D01*
X0045017Y0199520D01*
X0044927Y0199388D01*
X0044834Y0199258D01*
X0044738Y0199130D01*
X0044639Y0199005D01*
X0044537Y0198882D01*
X0044432Y0198762D01*
X0044324Y0198645D01*
X0044213Y0198530D01*
X0044099Y0198418D01*
X0043982Y0198308D01*
X0043863Y0198202D01*
X0043742Y0198098D01*
X0043618Y0197998D01*
X0043491Y0197900D01*
X0043362Y0197806D01*
X0043231Y0197715D01*
X0043098Y0197627D01*
X0035618Y0198020D02*
X0035618Y0195264D01*
X0079859Y0054100D02*
X0079859Y0046600D01*
X0099859Y0046600D01*
X0099859Y0054100D01*
X0043492Y0025185D02*
X0043492Y0022429D01*
X0035618Y0022429D02*
X0035618Y0025185D01*
X0043098Y0022822D02*
X0043231Y0022734D01*
X0043362Y0022643D01*
X0043491Y0022549D01*
X0043618Y0022451D01*
X0043742Y0022351D01*
X0043863Y0022247D01*
X0043982Y0022141D01*
X0044099Y0022031D01*
X0044213Y0021919D01*
X0044324Y0021804D01*
X0044432Y0021687D01*
X0044537Y0021567D01*
X0044639Y0021444D01*
X0044738Y0021319D01*
X0044834Y0021191D01*
X0044927Y0021061D01*
X0045017Y0020929D01*
X0045104Y0020795D01*
X0045187Y0020659D01*
X0045267Y0020520D01*
X0045344Y0020380D01*
X0045417Y0020238D01*
X0045486Y0020095D01*
X0045552Y0019949D01*
X0045615Y0019802D01*
X0045674Y0019654D01*
X0045729Y0019504D01*
X0045781Y0019353D01*
X0045829Y0019200D01*
X0045873Y0019047D01*
X0045913Y0018892D01*
X0045950Y0018737D01*
X0045983Y0018581D01*
X0046012Y0018424D01*
X0046037Y0018266D01*
X0046058Y0018108D01*
X0046076Y0017949D01*
X0046089Y0017790D01*
X0046099Y0017630D01*
X0046105Y0017471D01*
X0046107Y0017311D01*
X0046105Y0017151D01*
X0046099Y0016992D01*
X0046089Y0016832D01*
X0046076Y0016673D01*
X0046058Y0016514D01*
X0046037Y0016356D01*
X0046012Y0016198D01*
X0045983Y0016041D01*
X0045950Y0015885D01*
X0045913Y0015730D01*
X0045873Y0015575D01*
X0045829Y0015422D01*
X0045781Y0015269D01*
X0045729Y0015118D01*
X0045674Y0014968D01*
X0045615Y0014820D01*
X0045552Y0014673D01*
X0045486Y0014527D01*
X0045417Y0014384D01*
X0045344Y0014242D01*
X0045267Y0014102D01*
X0045187Y0013963D01*
X0045104Y0013827D01*
X0045017Y0013693D01*
X0044927Y0013561D01*
X0044834Y0013431D01*
X0044738Y0013303D01*
X0044639Y0013178D01*
X0044537Y0013055D01*
X0044432Y0012935D01*
X0044324Y0012818D01*
X0044213Y0012703D01*
X0044099Y0012591D01*
X0043982Y0012481D01*
X0043863Y0012375D01*
X0043742Y0012271D01*
X0043618Y0012171D01*
X0043491Y0012073D01*
X0043362Y0011979D01*
X0043231Y0011888D01*
X0043098Y0011800D01*
X0043098Y0011799D02*
X0036012Y0011799D01*
X0036012Y0011800D02*
X0035879Y0011888D01*
X0035748Y0011979D01*
X0035619Y0012073D01*
X0035492Y0012171D01*
X0035368Y0012271D01*
X0035247Y0012375D01*
X0035128Y0012481D01*
X0035011Y0012591D01*
X0034897Y0012703D01*
X0034786Y0012818D01*
X0034678Y0012935D01*
X0034573Y0013055D01*
X0034471Y0013178D01*
X0034372Y0013303D01*
X0034276Y0013431D01*
X0034183Y0013561D01*
X0034093Y0013693D01*
X0034006Y0013827D01*
X0033923Y0013963D01*
X0033843Y0014102D01*
X0033766Y0014242D01*
X0033693Y0014384D01*
X0033624Y0014527D01*
X0033558Y0014673D01*
X0033495Y0014820D01*
X0033436Y0014968D01*
X0033381Y0015118D01*
X0033329Y0015269D01*
X0033281Y0015422D01*
X0033237Y0015575D01*
X0033197Y0015730D01*
X0033160Y0015885D01*
X0033127Y0016041D01*
X0033098Y0016198D01*
X0033073Y0016356D01*
X0033052Y0016514D01*
X0033034Y0016673D01*
X0033021Y0016832D01*
X0033011Y0016992D01*
X0033005Y0017151D01*
X0033003Y0017311D01*
X0033005Y0017471D01*
X0033011Y0017630D01*
X0033021Y0017790D01*
X0033034Y0017949D01*
X0033052Y0018108D01*
X0033073Y0018266D01*
X0033098Y0018424D01*
X0033127Y0018581D01*
X0033160Y0018737D01*
X0033197Y0018892D01*
X0033237Y0019047D01*
X0033281Y0019200D01*
X0033329Y0019353D01*
X0033381Y0019504D01*
X0033436Y0019654D01*
X0033495Y0019802D01*
X0033558Y0019949D01*
X0033624Y0020095D01*
X0033693Y0020238D01*
X0033766Y0020380D01*
X0033843Y0020520D01*
X0033923Y0020659D01*
X0034006Y0020795D01*
X0034093Y0020929D01*
X0034183Y0021061D01*
X0034276Y0021191D01*
X0034372Y0021319D01*
X0034471Y0021444D01*
X0034573Y0021567D01*
X0034678Y0021687D01*
X0034786Y0021804D01*
X0034897Y0021919D01*
X0035011Y0022031D01*
X0035128Y0022141D01*
X0035247Y0022247D01*
X0035368Y0022351D01*
X0035492Y0022451D01*
X0035619Y0022549D01*
X0035748Y0022643D01*
X0035879Y0022734D01*
X0036012Y0022822D01*
D12*
X0245559Y0185500D02*
X0248059Y0188000D01*
X0250559Y0185500D01*
X0248059Y0185500D01*
X0248059Y0188000D01*
X0248059Y0190500D02*
X0250559Y0185500D01*
X0248059Y0185500D02*
X0245559Y0185500D01*
X0248059Y0190500D01*
X0255559Y0190500D02*
X0258059Y0188000D01*
X0258059Y0190500D01*
X0260559Y0190500D01*
X0258059Y0188000D01*
X0258059Y0185500D02*
X0255559Y0190500D01*
X0258059Y0190500D01*
X0260559Y0190500D02*
X0258059Y0185500D01*
D13*
X0255559Y0200500D02*
X0253059Y0203000D01*
X0250559Y0200500D01*
X0245559Y0200500D01*
X0243059Y0203000D01*
X0243059Y0208000D01*
X0245559Y0210500D01*
X0250559Y0210500D01*
X0253059Y0208000D01*
X0255559Y0210500D01*
X0260559Y0210500D01*
X0263059Y0208000D01*
X0263059Y0203000D01*
X0260559Y0200500D01*
X0255559Y0200500D01*
X0253059Y0203000D02*
X0253059Y0208000D01*
X0243059Y0208000D02*
X0240559Y0210500D01*
X0235559Y0210500D01*
X0233059Y0208000D01*
X0230559Y0210500D01*
X0225559Y0210500D01*
X0223059Y0208000D01*
X0220559Y0210500D01*
X0215559Y0210500D01*
X0213059Y0208000D01*
X0213059Y0203000D01*
X0215559Y0200500D01*
X0220559Y0200500D01*
X0223059Y0203000D01*
X0223059Y0208000D01*
X0233059Y0208000D02*
X0233059Y0203000D01*
X0230559Y0200500D01*
X0225559Y0200500D01*
X0223059Y0203000D01*
X0233059Y0203000D02*
X0235559Y0200500D01*
X0240559Y0200500D01*
X0243059Y0203000D01*
X0273059Y0203000D02*
X0275559Y0200500D01*
X0280559Y0200500D01*
X0283059Y0203000D01*
X0283059Y0208000D01*
X0280559Y0210500D01*
X0275559Y0210500D01*
X0273059Y0208000D01*
X0273059Y0203000D01*
X0283059Y0203000D02*
X0285559Y0200500D01*
X0290559Y0200500D01*
X0293059Y0203000D01*
X0293059Y0208000D01*
X0290559Y0210500D01*
X0285559Y0210500D01*
X0283059Y0208000D01*
X0293059Y0208000D02*
X0295559Y0210500D01*
X0300559Y0210500D01*
X0303059Y0208000D01*
X0305559Y0210500D01*
X0310559Y0210500D01*
X0313059Y0208000D01*
X0315559Y0210500D01*
X0320559Y0210500D01*
X0323059Y0208000D01*
X0325559Y0210500D01*
X0330559Y0210500D01*
X0333059Y0208000D01*
X0335559Y0210500D01*
X0340559Y0210500D01*
X0343059Y0208000D01*
X0345559Y0210500D01*
X0350559Y0210500D01*
X0353059Y0208000D01*
X0353059Y0203000D01*
X0350559Y0200500D01*
X0345559Y0200500D01*
X0343059Y0203000D01*
X0340559Y0200500D01*
X0335559Y0200500D01*
X0333059Y0203000D01*
X0333059Y0208000D01*
X0323059Y0208000D02*
X0323059Y0203000D01*
X0320559Y0200500D01*
X0315559Y0200500D01*
X0313059Y0203000D01*
X0310559Y0200500D01*
X0305559Y0200500D01*
X0303059Y0203000D01*
X0303059Y0208000D01*
X0313059Y0208000D02*
X0313059Y0203000D01*
X0303059Y0203000D02*
X0300559Y0200500D01*
X0295559Y0200500D01*
X0293059Y0203000D01*
X0323059Y0203000D02*
X0325559Y0200500D01*
X0330559Y0200500D01*
X0333059Y0203000D01*
X0343059Y0203000D02*
X0343059Y0208000D01*
X0373059Y0208000D02*
X0373059Y0203000D01*
X0375559Y0200500D01*
X0390559Y0200500D01*
X0393059Y0198000D01*
X0393059Y0193000D01*
X0390559Y0190500D01*
X0375559Y0190500D01*
X0373059Y0188000D01*
X0373059Y0183000D01*
X0375559Y0180500D01*
X0390559Y0180500D01*
X0393059Y0178000D01*
X0393059Y0173000D01*
X0390559Y0170500D01*
X0375559Y0170500D01*
X0373059Y0168000D01*
X0373059Y0163000D01*
X0375559Y0160500D01*
X0390559Y0160500D01*
X0393059Y0158000D01*
X0393059Y0153000D01*
X0390559Y0150500D01*
X0375559Y0150500D01*
X0373059Y0148000D01*
X0373059Y0143000D01*
X0375559Y0140500D01*
X0390559Y0140500D01*
X0393059Y0138000D01*
X0393059Y0133000D01*
X0390559Y0130500D01*
X0375559Y0130500D01*
X0373059Y0133000D01*
X0373059Y0138000D01*
X0375559Y0140500D01*
X0390559Y0140500D02*
X0393059Y0143000D01*
X0393059Y0148000D01*
X0390559Y0150500D01*
X0375559Y0150500D02*
X0373059Y0153000D01*
X0373059Y0158000D01*
X0375559Y0160500D01*
X0390559Y0160500D02*
X0393059Y0163000D01*
X0393059Y0168000D01*
X0390559Y0170500D01*
X0375559Y0170500D02*
X0373059Y0173000D01*
X0373059Y0178000D01*
X0375559Y0180500D01*
X0390559Y0180500D02*
X0393059Y0183000D01*
X0393059Y0188000D01*
X0390559Y0190500D01*
X0375559Y0190500D02*
X0373059Y0193000D01*
X0373059Y0198000D01*
X0375559Y0200500D01*
X0390559Y0200500D02*
X0393059Y0203000D01*
X0393059Y0208000D01*
X0390559Y0210500D01*
X0375559Y0210500D01*
X0373059Y0208000D01*
X0375559Y0130500D02*
X0373059Y0128000D01*
X0373059Y0123000D01*
X0375559Y0120500D01*
X0390559Y0120500D01*
X0393059Y0118000D01*
X0393059Y0113000D01*
X0390559Y0110500D01*
X0375559Y0110500D01*
X0373059Y0113000D01*
X0373059Y0118000D01*
X0375559Y0120500D01*
X0390559Y0120500D02*
X0393059Y0123000D01*
X0393059Y0128000D01*
X0390559Y0130500D01*
X0390559Y0110500D02*
X0393059Y0108000D01*
X0393059Y0103000D01*
X0390559Y0100500D01*
X0375559Y0100500D01*
X0373059Y0103000D01*
X0373059Y0108000D01*
X0375559Y0110500D01*
X0375559Y0100500D02*
X0373059Y0098000D01*
X0373059Y0093000D01*
X0375559Y0090500D01*
X0390559Y0090500D01*
X0393059Y0088000D01*
X0393059Y0083000D01*
X0390559Y0080500D01*
X0375559Y0080500D01*
X0373059Y0083000D01*
X0373059Y0088000D01*
X0375559Y0090500D01*
X0390559Y0090500D02*
X0393059Y0093000D01*
X0393059Y0098000D01*
X0390559Y0100500D01*
X0390559Y0080500D02*
X0393059Y0078000D01*
X0393059Y0073000D01*
X0390559Y0070500D01*
X0375559Y0070500D01*
X0373059Y0073000D01*
X0373059Y0078000D01*
X0375559Y0080500D01*
X0375559Y0070500D02*
X0373059Y0068000D01*
X0373059Y0063000D01*
X0375559Y0060500D01*
X0390559Y0060500D01*
X0393059Y0058000D01*
X0393059Y0053000D01*
X0390559Y0050500D01*
X0375559Y0050500D01*
X0373059Y0053000D01*
X0373059Y0058000D01*
X0375559Y0060500D01*
X0390559Y0060500D02*
X0393059Y0063000D01*
X0393059Y0068000D01*
X0390559Y0070500D01*
X0390559Y0050500D02*
X0393059Y0048000D01*
X0393059Y0043000D01*
X0390559Y0040500D01*
X0375559Y0040500D01*
X0373059Y0043000D01*
X0373059Y0048000D01*
X0375559Y0050500D01*
X0375559Y0040500D02*
X0373059Y0038000D01*
X0373059Y0033000D01*
X0375559Y0030500D01*
X0390559Y0030500D01*
X0393059Y0033000D01*
X0393059Y0038000D01*
X0390559Y0040500D01*
X0370559Y0020500D02*
X0365559Y0020500D01*
X0363059Y0018000D01*
X0363059Y0013000D01*
X0365559Y0010500D01*
X0370559Y0010500D01*
X0373059Y0013000D01*
X0373059Y0018000D01*
X0370559Y0020500D01*
X0363059Y0018000D02*
X0360559Y0020500D01*
X0355559Y0020500D01*
X0353059Y0018000D01*
X0353059Y0013000D01*
X0355559Y0010500D01*
X0360559Y0010500D01*
X0363059Y0013000D01*
X0353059Y0013000D02*
X0350559Y0010500D01*
X0345559Y0010500D01*
X0343059Y0013000D01*
X0340559Y0010500D01*
X0335559Y0010500D01*
X0333059Y0013000D01*
X0330559Y0010500D01*
X0325559Y0010500D01*
X0323059Y0013000D01*
X0320559Y0010500D01*
X0315559Y0010500D01*
X0313059Y0013000D01*
X0310559Y0010500D01*
X0305559Y0010500D01*
X0303059Y0013000D01*
X0300559Y0010500D01*
X0295559Y0010500D01*
X0293059Y0013000D01*
X0293059Y0018000D01*
X0295559Y0020500D01*
X0300559Y0020500D01*
X0303059Y0018000D01*
X0305559Y0020500D01*
X0310559Y0020500D01*
X0313059Y0018000D01*
X0313059Y0013000D01*
X0303059Y0013000D02*
X0303059Y0018000D01*
X0313059Y0018000D02*
X0315559Y0020500D01*
X0320559Y0020500D01*
X0323059Y0018000D01*
X0325559Y0020500D01*
X0330559Y0020500D01*
X0333059Y0018000D01*
X0335559Y0020500D01*
X0340559Y0020500D01*
X0343059Y0018000D01*
X0343059Y0013000D01*
X0343059Y0018000D02*
X0345559Y0020500D01*
X0350559Y0020500D01*
X0353059Y0018000D01*
X0333059Y0018000D02*
X0333059Y0013000D01*
X0323059Y0013000D02*
X0323059Y0018000D01*
X0320759Y0024300D02*
X0320759Y0027636D01*
X0320759Y0025968D02*
X0315755Y0025968D01*
X0317423Y0024300D01*
X0316589Y0029456D02*
X0315755Y0030290D01*
X0315755Y0031959D01*
X0316589Y0032793D01*
X0319925Y0029456D01*
X0320759Y0030290D01*
X0320759Y0031959D01*
X0319925Y0032793D01*
X0316589Y0032793D01*
X0316589Y0029456D02*
X0319925Y0029456D01*
X0283059Y0018000D02*
X0283059Y0013000D01*
X0280559Y0010500D01*
X0275559Y0010500D01*
X0273059Y0013000D01*
X0270559Y0010500D01*
X0265559Y0010500D01*
X0263059Y0013000D01*
X0260559Y0010500D01*
X0255559Y0010500D01*
X0253059Y0013000D01*
X0250559Y0010500D01*
X0245559Y0010500D01*
X0243059Y0013000D01*
X0240559Y0010500D01*
X0235559Y0010500D01*
X0233059Y0013000D01*
X0230559Y0010500D01*
X0225559Y0010500D01*
X0223059Y0013000D01*
X0220559Y0010500D01*
X0215559Y0010500D01*
X0213059Y0013000D01*
X0210559Y0010500D01*
X0205559Y0010500D01*
X0203059Y0013000D01*
X0203059Y0018000D01*
X0205559Y0020500D01*
X0210559Y0020500D01*
X0213059Y0018000D01*
X0215559Y0020500D01*
X0220559Y0020500D01*
X0223059Y0018000D01*
X0223059Y0013000D01*
X0233059Y0013000D02*
X0233059Y0018000D01*
X0235559Y0020500D01*
X0240559Y0020500D01*
X0243059Y0018000D01*
X0245559Y0020500D01*
X0250559Y0020500D01*
X0253059Y0018000D01*
X0253059Y0013000D01*
X0243059Y0013000D02*
X0243059Y0018000D01*
X0253059Y0018000D02*
X0255559Y0020500D01*
X0260559Y0020500D01*
X0263059Y0018000D01*
X0265559Y0020500D01*
X0270559Y0020500D01*
X0273059Y0018000D01*
X0275559Y0020500D01*
X0280559Y0020500D01*
X0283059Y0018000D01*
X0273059Y0018000D02*
X0273059Y0013000D01*
X0263059Y0013000D02*
X0263059Y0018000D01*
X0233059Y0018000D02*
X0230559Y0020500D01*
X0225559Y0020500D01*
X0223059Y0018000D01*
X0213059Y0018000D02*
X0213059Y0013000D01*
X0193059Y0013000D02*
X0190559Y0010500D01*
X0185559Y0010500D01*
X0183059Y0013000D01*
X0180559Y0010500D01*
X0175559Y0010500D01*
X0173059Y0013000D01*
X0170559Y0010500D01*
X0165559Y0010500D01*
X0163059Y0013000D01*
X0160559Y0010500D01*
X0155559Y0010500D01*
X0153059Y0013000D01*
X0150559Y0010500D01*
X0145559Y0010500D01*
X0143059Y0013000D01*
X0140559Y0010500D01*
X0135559Y0010500D01*
X0133059Y0013000D01*
X0130559Y0010500D01*
X0125559Y0010500D01*
X0123059Y0013000D01*
X0120559Y0010500D01*
X0115559Y0010500D01*
X0113059Y0013000D01*
X0113059Y0018000D01*
X0115559Y0020500D01*
X0120559Y0020500D01*
X0123059Y0018000D01*
X0125559Y0020500D01*
X0130559Y0020500D01*
X0133059Y0018000D01*
X0133059Y0013000D01*
X0143059Y0013000D02*
X0143059Y0018000D01*
X0145559Y0020500D01*
X0150559Y0020500D01*
X0153059Y0018000D01*
X0155559Y0020500D01*
X0160559Y0020500D01*
X0163059Y0018000D01*
X0163059Y0013000D01*
X0153059Y0013000D02*
X0153059Y0018000D01*
X0163059Y0018000D02*
X0165559Y0020500D01*
X0170559Y0020500D01*
X0173059Y0018000D01*
X0175559Y0020500D01*
X0180559Y0020500D01*
X0183059Y0018000D01*
X0185559Y0020500D01*
X0190559Y0020500D01*
X0193059Y0018000D01*
X0193059Y0013000D01*
X0183059Y0013000D02*
X0183059Y0018000D01*
X0173059Y0018000D02*
X0173059Y0013000D01*
X0143059Y0018000D02*
X0140559Y0020500D01*
X0135559Y0020500D01*
X0133059Y0018000D01*
X0130142Y0022548D02*
X0130142Y0024016D01*
X0130142Y0023282D02*
X0125738Y0023282D01*
X0125738Y0022548D02*
X0125738Y0024016D01*
X0126472Y0025617D02*
X0129408Y0025617D01*
X0130142Y0026351D01*
X0130142Y0027819D01*
X0129408Y0028553D01*
X0126472Y0028553D01*
X0125738Y0027819D01*
X0125738Y0026351D01*
X0126472Y0025617D01*
X0125738Y0030221D02*
X0125738Y0032423D01*
X0126472Y0033157D01*
X0127940Y0033157D01*
X0128674Y0032423D01*
X0128674Y0030221D01*
X0130142Y0030221D02*
X0125738Y0030221D01*
X0128674Y0031689D02*
X0130142Y0033157D01*
X0130142Y0034825D02*
X0130142Y0037761D01*
X0130142Y0039429D02*
X0125738Y0039429D01*
X0125738Y0042365D01*
X0127940Y0040897D02*
X0127940Y0039429D01*
X0125738Y0037761D02*
X0125738Y0034825D01*
X0130142Y0034825D01*
X0127940Y0034825D02*
X0127940Y0036293D01*
X0136238Y0036360D02*
X0140642Y0036360D01*
X0140642Y0039296D01*
X0138440Y0037828D02*
X0138440Y0036360D01*
X0139174Y0034692D02*
X0139908Y0034692D01*
X0140642Y0033958D01*
X0140642Y0032490D01*
X0139908Y0031756D01*
X0138440Y0032490D02*
X0138440Y0033958D01*
X0139174Y0034692D01*
X0136972Y0034692D02*
X0136238Y0033958D01*
X0136238Y0032490D01*
X0136972Y0031756D01*
X0137706Y0031756D01*
X0138440Y0032490D01*
X0140642Y0030088D02*
X0140642Y0027152D01*
X0136238Y0027152D01*
X0136238Y0030088D01*
X0138440Y0028620D02*
X0138440Y0027152D01*
X0138440Y0025484D02*
X0139174Y0024750D01*
X0139174Y0022548D01*
X0140642Y0022548D02*
X0136238Y0022548D01*
X0136238Y0024750D01*
X0136972Y0025484D01*
X0138440Y0025484D01*
X0139174Y0024016D02*
X0140642Y0025484D01*
X0136238Y0036360D02*
X0136238Y0039296D01*
X0136238Y0040964D02*
X0136238Y0043900D01*
X0136238Y0042432D02*
X0140642Y0042432D01*
X0123059Y0018000D02*
X0123059Y0013000D01*
X0061305Y0081333D02*
X0059036Y0083602D01*
X0058469Y0083602D01*
X0057902Y0083035D01*
X0057902Y0081900D01*
X0058469Y0081333D01*
X0061305Y0081333D02*
X0061305Y0083602D01*
X0060738Y0085016D02*
X0058469Y0087285D01*
X0060738Y0087285D01*
X0061305Y0086718D01*
X0061305Y0085583D01*
X0060738Y0085016D01*
X0058469Y0085016D01*
X0057902Y0085583D01*
X0057902Y0086718D01*
X0058469Y0087285D01*
X0059036Y0088699D02*
X0057902Y0089834D01*
X0061305Y0089834D01*
X0061305Y0090968D02*
X0061305Y0088699D01*
X0060738Y0092383D02*
X0061305Y0092950D01*
X0061305Y0094084D01*
X0060738Y0094651D01*
X0059603Y0094651D01*
X0059036Y0094084D01*
X0059036Y0093517D01*
X0059603Y0092383D01*
X0057902Y0092383D01*
X0057902Y0094651D01*
X0058469Y0096066D02*
X0057902Y0096633D01*
X0057902Y0097767D01*
X0058469Y0098334D01*
X0060738Y0096066D01*
X0061305Y0096633D01*
X0061305Y0097767D01*
X0060738Y0098334D01*
X0058469Y0098334D01*
X0058469Y0099749D02*
X0059036Y0099749D01*
X0059603Y0100316D01*
X0059603Y0102017D01*
X0058469Y0102017D02*
X0057902Y0101450D01*
X0057902Y0100316D01*
X0058469Y0099749D01*
X0058469Y0102017D02*
X0060738Y0102017D01*
X0061305Y0101450D01*
X0061305Y0100316D01*
X0060738Y0099749D01*
X0061305Y0103432D02*
X0059036Y0105701D01*
X0058469Y0105701D01*
X0057902Y0105133D01*
X0057902Y0103999D01*
X0058469Y0103432D01*
X0061305Y0103432D02*
X0061305Y0105701D01*
X0060738Y0107115D02*
X0061305Y0107682D01*
X0061305Y0108817D01*
X0060738Y0109384D01*
X0060170Y0109384D01*
X0059603Y0108817D01*
X0059603Y0108249D01*
X0059603Y0108817D02*
X0059036Y0109384D01*
X0058469Y0109384D01*
X0057902Y0108817D01*
X0057902Y0107682D01*
X0058469Y0107115D01*
X0058469Y0096066D02*
X0060738Y0096066D01*
X0059272Y0158035D02*
X0055272Y0158035D01*
X0050272Y0161535D01*
X0050272Y0182535D01*
X0055272Y0186035D01*
X0059272Y0186035D01*
X0064272Y0182535D01*
X0064272Y0161535D01*
X0059272Y0158035D01*
X0100738Y0182791D02*
X0102206Y0184259D01*
X0105142Y0184259D01*
X0105142Y0185927D02*
X0100738Y0185927D01*
X0100738Y0188129D01*
X0101472Y0188863D01*
X0102940Y0188863D01*
X0103674Y0188129D01*
X0103674Y0185927D01*
X0103674Y0187395D02*
X0105142Y0188863D01*
X0105142Y0190531D02*
X0100738Y0190531D01*
X0100738Y0193467D01*
X0100738Y0195135D02*
X0100738Y0198070D01*
X0102940Y0196603D02*
X0102940Y0195135D01*
X0105142Y0195135D02*
X0100738Y0195135D01*
X0105142Y0193467D02*
X0105142Y0190531D01*
X0102940Y0190531D02*
X0102940Y0191999D01*
X0095004Y0191399D02*
X0095004Y0188897D01*
X0090000Y0188897D01*
X0090000Y0191399D01*
X0090834Y0192233D01*
X0094170Y0192233D01*
X0095004Y0191399D01*
X0095004Y0194053D02*
X0091668Y0194053D01*
X0090000Y0195721D01*
X0091668Y0197389D01*
X0095004Y0197389D01*
X0092502Y0197389D02*
X0092502Y0194053D01*
X0085972Y0194553D02*
X0085972Y0197889D01*
X0084559Y0200500D02*
X0079559Y0200500D01*
X0077059Y0203000D01*
X0077059Y0208000D01*
X0079559Y0210500D01*
X0084559Y0210500D01*
X0087059Y0208000D01*
X0089559Y0210500D01*
X0094559Y0210500D01*
X0097059Y0208000D01*
X0097059Y0203000D01*
X0094559Y0200500D01*
X0089559Y0200500D01*
X0087059Y0203000D01*
X0084559Y0200500D01*
X0087059Y0203000D02*
X0087059Y0208000D01*
X0097059Y0208000D02*
X0099559Y0210500D01*
X0104559Y0210500D01*
X0107059Y0208000D01*
X0109559Y0210500D01*
X0114559Y0210500D01*
X0117059Y0208000D01*
X0119559Y0210500D01*
X0124559Y0210500D01*
X0127059Y0208000D01*
X0127059Y0203000D01*
X0124559Y0200500D01*
X0119559Y0200500D01*
X0117059Y0203000D01*
X0114559Y0200500D01*
X0109559Y0200500D01*
X0107059Y0203000D01*
X0104559Y0200500D01*
X0099559Y0200500D01*
X0097059Y0203000D01*
X0107059Y0203000D02*
X0107059Y0208000D01*
X0117059Y0208000D02*
X0117059Y0203000D01*
X0127059Y0203000D02*
X0129559Y0200500D01*
X0134559Y0200500D01*
X0137059Y0203000D01*
X0139559Y0200500D01*
X0144559Y0200500D01*
X0147059Y0203000D01*
X0149559Y0200500D01*
X0154559Y0200500D01*
X0157059Y0203000D01*
X0157059Y0208000D01*
X0154559Y0210500D01*
X0149559Y0210500D01*
X0147059Y0208000D01*
X0147059Y0203000D01*
X0137059Y0203000D02*
X0137059Y0208000D01*
X0139559Y0210500D01*
X0144559Y0210500D01*
X0147059Y0208000D01*
X0137059Y0208000D02*
X0134559Y0210500D01*
X0129559Y0210500D01*
X0127059Y0208000D01*
X0157059Y0208000D02*
X0159559Y0210500D01*
X0164559Y0210500D01*
X0167059Y0208000D01*
X0169559Y0210500D01*
X0174559Y0210500D01*
X0177059Y0208000D01*
X0177059Y0203000D01*
X0174559Y0200500D01*
X0169559Y0200500D01*
X0167059Y0203000D01*
X0164559Y0200500D01*
X0159559Y0200500D01*
X0157059Y0203000D01*
X0167059Y0203000D02*
X0167059Y0208000D01*
X0183059Y0208000D02*
X0183059Y0203000D01*
X0185559Y0200500D01*
X0190559Y0200500D01*
X0193059Y0203000D01*
X0193059Y0208000D01*
X0190559Y0210500D01*
X0185559Y0210500D01*
X0183059Y0208000D01*
X0193059Y0208000D02*
X0195559Y0210500D01*
X0200559Y0210500D01*
X0203059Y0208000D01*
X0205559Y0210500D01*
X0210559Y0210500D01*
X0213059Y0208000D01*
X0203059Y0208000D02*
X0203059Y0203000D01*
X0200559Y0200500D01*
X0195559Y0200500D01*
X0193059Y0203000D01*
X0203059Y0203000D02*
X0205559Y0200500D01*
X0210559Y0200500D01*
X0213059Y0203000D01*
X0105142Y0181323D02*
X0102206Y0181323D01*
X0100738Y0182791D01*
X0102940Y0181323D02*
X0102940Y0184259D01*
X0095004Y0184574D02*
X0095004Y0186242D01*
X0094170Y0187076D01*
X0093336Y0187076D01*
X0092502Y0186242D01*
X0092502Y0184574D01*
X0091668Y0183740D01*
X0090834Y0183740D01*
X0090000Y0184574D01*
X0090000Y0186242D01*
X0090834Y0187076D01*
X0094170Y0183740D02*
X0095004Y0184574D01*
X0085972Y0185074D02*
X0085138Y0184240D01*
X0085972Y0185074D02*
X0085972Y0186742D01*
X0085138Y0187576D01*
X0084304Y0187576D01*
X0083470Y0186742D01*
X0083470Y0185074D01*
X0082636Y0184240D01*
X0081802Y0184240D01*
X0080968Y0185074D01*
X0080968Y0186742D01*
X0081802Y0187576D01*
X0081802Y0189397D02*
X0085138Y0189397D01*
X0085972Y0190231D01*
X0085972Y0191899D01*
X0085138Y0192733D01*
X0085972Y0194553D02*
X0080968Y0194553D01*
X0081802Y0192733D02*
X0080968Y0191899D01*
X0080968Y0190231D01*
X0081802Y0189397D01*
D14*
X0110730Y0190054D02*
X0115634Y0193324D01*
X0110730Y0193324D01*
X0110730Y0195211D02*
X0110730Y0197663D01*
X0111547Y0198480D01*
X0114817Y0198480D01*
X0115634Y0197663D01*
X0115634Y0195211D01*
X0110730Y0195211D01*
X0110730Y0190054D02*
X0115634Y0190054D01*
X0114817Y0188167D02*
X0115634Y0187350D01*
X0115634Y0185715D01*
X0114817Y0184898D01*
X0111547Y0184898D01*
X0110730Y0185715D01*
X0110730Y0187350D01*
X0111547Y0188167D01*
X0113182Y0188167D02*
X0113182Y0186533D01*
X0113182Y0188167D02*
X0114817Y0188167D01*
X0120305Y0189985D02*
X0125209Y0189985D01*
X0125209Y0191619D02*
X0125209Y0188350D01*
X0121940Y0188350D02*
X0120305Y0189985D01*
X0121122Y0193506D02*
X0120305Y0194324D01*
X0120305Y0195958D01*
X0121122Y0196776D01*
X0121940Y0196776D01*
X0122757Y0195958D01*
X0123574Y0196776D01*
X0124392Y0196776D01*
X0125209Y0195958D01*
X0125209Y0194324D01*
X0124392Y0193506D01*
X0122757Y0195141D02*
X0122757Y0195958D01*
X0130305Y0195958D02*
X0130305Y0194324D01*
X0131122Y0193506D01*
X0130305Y0195958D02*
X0131122Y0196776D01*
X0131940Y0196776D01*
X0135209Y0193506D01*
X0135209Y0196776D01*
X0140305Y0195141D02*
X0141940Y0193506D01*
X0140305Y0195141D02*
X0145209Y0195141D01*
X0145209Y0193506D02*
X0145209Y0196776D01*
X0150305Y0195958D02*
X0151122Y0196776D01*
X0154392Y0193506D01*
X0155209Y0194324D01*
X0155209Y0195958D01*
X0154392Y0196776D01*
X0151122Y0196776D01*
X0150305Y0195958D02*
X0150305Y0194324D01*
X0151122Y0193506D01*
X0154392Y0193506D01*
X0155209Y0191619D02*
X0155209Y0188350D01*
X0155209Y0189985D02*
X0150305Y0189985D01*
X0151940Y0188350D01*
X0145209Y0188350D02*
X0145209Y0191619D01*
X0145209Y0189985D02*
X0140305Y0189985D01*
X0141940Y0188350D01*
X0135209Y0188350D02*
X0135209Y0191619D01*
X0135209Y0189985D02*
X0130305Y0189985D01*
X0131940Y0188350D01*
X0160305Y0194167D02*
X0161122Y0193350D01*
X0161940Y0193350D01*
X0162757Y0194167D01*
X0162757Y0196619D01*
X0164392Y0196619D02*
X0161122Y0196619D01*
X0160305Y0195802D01*
X0160305Y0194167D01*
X0164392Y0193350D02*
X0165209Y0194167D01*
X0165209Y0195802D01*
X0164392Y0196619D01*
X0170305Y0195802D02*
X0170305Y0194167D01*
X0171122Y0193350D01*
X0171940Y0193350D01*
X0172757Y0194167D01*
X0172757Y0195802D01*
X0173574Y0196619D01*
X0174392Y0196619D01*
X0175209Y0195802D01*
X0175209Y0194167D01*
X0174392Y0193350D01*
X0173574Y0193350D01*
X0172757Y0194167D01*
X0172757Y0195802D02*
X0171940Y0196619D01*
X0171122Y0196619D01*
X0170305Y0195802D01*
X0185305Y0196619D02*
X0185305Y0193350D01*
X0185305Y0196619D02*
X0186122Y0196619D01*
X0189392Y0193350D01*
X0190209Y0193350D01*
X0195305Y0196619D02*
X0196122Y0194985D01*
X0197757Y0193350D01*
X0197757Y0195802D01*
X0198574Y0196619D01*
X0199392Y0196619D01*
X0200209Y0195802D01*
X0200209Y0194167D01*
X0199392Y0193350D01*
X0197757Y0193350D01*
X0205305Y0193350D02*
X0205305Y0196619D01*
X0206940Y0195802D02*
X0207757Y0196619D01*
X0209392Y0196619D01*
X0210209Y0195802D01*
X0210209Y0194167D01*
X0209392Y0193350D01*
X0207757Y0193350D02*
X0206940Y0194985D01*
X0206940Y0195802D01*
X0207757Y0193350D02*
X0205305Y0193350D01*
X0215305Y0195802D02*
X0217757Y0193350D01*
X0217757Y0196619D01*
X0220209Y0195802D02*
X0215305Y0195802D01*
X0225305Y0195802D02*
X0225305Y0194167D01*
X0226122Y0193350D01*
X0227757Y0194985D02*
X0227757Y0195802D01*
X0228574Y0196619D01*
X0229392Y0196619D01*
X0230209Y0195802D01*
X0230209Y0194167D01*
X0229392Y0193350D01*
X0227757Y0195802D02*
X0226940Y0196619D01*
X0226122Y0196619D01*
X0225305Y0195802D01*
X0235305Y0195802D02*
X0235305Y0194167D01*
X0236122Y0193350D01*
X0235305Y0195802D02*
X0236122Y0196619D01*
X0236940Y0196619D01*
X0240209Y0193350D01*
X0240209Y0196619D01*
X0245305Y0194985D02*
X0246940Y0193350D01*
X0245305Y0194985D02*
X0250209Y0194985D01*
X0250209Y0196619D02*
X0250209Y0193350D01*
X0255305Y0194167D02*
X0255305Y0195802D01*
X0256122Y0196619D01*
X0259392Y0193350D01*
X0260209Y0194167D01*
X0260209Y0195802D01*
X0259392Y0196619D01*
X0256122Y0196619D01*
X0255305Y0194167D02*
X0256122Y0193350D01*
X0259392Y0193350D01*
X0275305Y0191485D02*
X0280209Y0191485D01*
X0280209Y0193119D02*
X0280209Y0189850D01*
X0276940Y0189850D02*
X0275305Y0191485D01*
X0277757Y0195006D02*
X0277757Y0198276D01*
X0280209Y0197458D02*
X0275305Y0197458D01*
X0277757Y0195006D01*
X0285305Y0195006D02*
X0287757Y0195006D01*
X0286940Y0196641D01*
X0286940Y0197458D01*
X0287757Y0198276D01*
X0289392Y0198276D01*
X0290209Y0197458D01*
X0290209Y0195824D01*
X0289392Y0195006D01*
X0290209Y0193119D02*
X0290209Y0189850D01*
X0290209Y0191485D02*
X0285305Y0191485D01*
X0286940Y0189850D01*
X0295305Y0191485D02*
X0300209Y0191485D01*
X0300209Y0193119D02*
X0300209Y0189850D01*
X0296940Y0189850D02*
X0295305Y0191485D01*
X0297757Y0195006D02*
X0296122Y0196641D01*
X0295305Y0198276D01*
X0297757Y0197458D02*
X0297757Y0195006D01*
X0299392Y0195006D01*
X0300209Y0195824D01*
X0300209Y0197458D01*
X0299392Y0198276D01*
X0298574Y0198276D01*
X0297757Y0197458D01*
X0305305Y0198276D02*
X0305305Y0195006D01*
X0305305Y0198276D02*
X0306122Y0198276D01*
X0309392Y0195006D01*
X0310209Y0195006D01*
X0310209Y0193119D02*
X0310209Y0189850D01*
X0310209Y0191485D02*
X0305305Y0191485D01*
X0306940Y0189850D01*
X0315305Y0191485D02*
X0316940Y0189850D01*
X0315305Y0191485D02*
X0320209Y0191485D01*
X0320209Y0193119D02*
X0320209Y0189850D01*
X0325305Y0191485D02*
X0330209Y0191485D01*
X0330209Y0193119D02*
X0330209Y0189850D01*
X0326940Y0189850D02*
X0325305Y0191485D01*
X0326122Y0195006D02*
X0325305Y0195824D01*
X0325305Y0197458D01*
X0326122Y0198276D01*
X0329392Y0198276D01*
X0330209Y0197458D01*
X0330209Y0195824D01*
X0329392Y0195006D01*
X0327757Y0195824D02*
X0327757Y0198276D01*
X0327757Y0195824D02*
X0326940Y0195006D01*
X0326122Y0195006D01*
X0320209Y0195824D02*
X0319392Y0195006D01*
X0318574Y0195006D01*
X0317757Y0195824D01*
X0317757Y0197458D01*
X0318574Y0198276D01*
X0319392Y0198276D01*
X0320209Y0197458D01*
X0320209Y0195824D01*
X0317757Y0195824D02*
X0316940Y0195006D01*
X0316122Y0195006D01*
X0315305Y0195824D01*
X0315305Y0197458D01*
X0316122Y0198276D01*
X0316940Y0198276D01*
X0317757Y0197458D01*
X0335305Y0197458D02*
X0335305Y0195824D01*
X0336122Y0195006D01*
X0339392Y0195006D01*
X0336122Y0198276D01*
X0339392Y0198276D01*
X0340209Y0197458D01*
X0340209Y0195824D01*
X0339392Y0195006D01*
X0340209Y0193119D02*
X0340209Y0189850D01*
X0336940Y0193119D01*
X0336122Y0193119D01*
X0335305Y0192302D01*
X0335305Y0190667D01*
X0336122Y0189850D01*
X0345305Y0190667D02*
X0345305Y0192302D01*
X0346122Y0193119D01*
X0346940Y0193119D01*
X0350209Y0189850D01*
X0350209Y0193119D01*
X0350209Y0195006D02*
X0350209Y0198276D01*
X0350209Y0196641D02*
X0345305Y0196641D01*
X0346940Y0195006D01*
X0345305Y0190667D02*
X0346122Y0189850D01*
X0336122Y0198276D02*
X0335305Y0197458D01*
X0363409Y0197437D02*
X0364226Y0198254D01*
X0365861Y0198254D01*
X0366679Y0197437D01*
X0366679Y0196619D01*
X0363409Y0193350D01*
X0366679Y0193350D01*
X0368565Y0193350D02*
X0371835Y0196619D01*
X0371835Y0197437D01*
X0371018Y0198254D01*
X0369383Y0198254D01*
X0368565Y0197437D01*
X0368565Y0193350D02*
X0371835Y0193350D01*
X0371018Y0188254D02*
X0368565Y0185802D01*
X0371835Y0185802D01*
X0371018Y0183350D02*
X0371018Y0188254D01*
X0366679Y0187437D02*
X0365861Y0188254D01*
X0364226Y0188254D01*
X0363409Y0187437D01*
X0366679Y0187437D02*
X0366679Y0186619D01*
X0363409Y0183350D01*
X0366679Y0183350D01*
X0365861Y0178254D02*
X0364226Y0178254D01*
X0363409Y0177437D01*
X0365861Y0178254D02*
X0366679Y0177437D01*
X0366679Y0176619D01*
X0363409Y0173350D01*
X0366679Y0173350D01*
X0368565Y0174167D02*
X0369383Y0173350D01*
X0371018Y0173350D01*
X0371835Y0174167D01*
X0371835Y0174985D01*
X0371018Y0175802D01*
X0368565Y0175802D01*
X0368565Y0174167D01*
X0368565Y0175802D02*
X0370200Y0177437D01*
X0371835Y0178254D01*
X0371018Y0168254D02*
X0369383Y0168254D01*
X0368565Y0167437D01*
X0368565Y0166619D01*
X0369383Y0165802D01*
X0371018Y0165802D01*
X0371835Y0164985D01*
X0371835Y0164167D01*
X0371018Y0163350D01*
X0369383Y0163350D01*
X0368565Y0164167D01*
X0368565Y0164985D01*
X0369383Y0165802D01*
X0371018Y0165802D02*
X0371835Y0166619D01*
X0371835Y0167437D01*
X0371018Y0168254D01*
X0366679Y0167437D02*
X0365861Y0168254D01*
X0364226Y0168254D01*
X0363409Y0167437D01*
X0366679Y0167437D02*
X0366679Y0166619D01*
X0363409Y0163350D01*
X0366679Y0163350D01*
X0365861Y0158254D02*
X0366679Y0157437D01*
X0366679Y0156619D01*
X0365861Y0155802D01*
X0366679Y0154985D01*
X0366679Y0154167D01*
X0365861Y0153350D01*
X0364226Y0153350D01*
X0363409Y0154167D01*
X0365044Y0155802D02*
X0365861Y0155802D01*
X0365861Y0158254D02*
X0364226Y0158254D01*
X0363409Y0157437D01*
X0368565Y0157437D02*
X0369383Y0158254D01*
X0371018Y0158254D01*
X0371835Y0157437D01*
X0368565Y0154167D01*
X0369383Y0153350D01*
X0371018Y0153350D01*
X0371835Y0154167D01*
X0371835Y0157437D01*
X0368565Y0157437D02*
X0368565Y0154167D01*
X0369383Y0148254D02*
X0368565Y0147437D01*
X0369383Y0148254D02*
X0371018Y0148254D01*
X0371835Y0147437D01*
X0371835Y0146619D01*
X0368565Y0143350D01*
X0371835Y0143350D01*
X0366679Y0144167D02*
X0365861Y0143350D01*
X0364226Y0143350D01*
X0363409Y0144167D01*
X0365044Y0145802D02*
X0365861Y0145802D01*
X0366679Y0144985D01*
X0366679Y0144167D01*
X0365861Y0145802D02*
X0366679Y0146619D01*
X0366679Y0147437D01*
X0365861Y0148254D01*
X0364226Y0148254D01*
X0363409Y0147437D01*
X0364226Y0138254D02*
X0365861Y0138254D01*
X0366679Y0137437D01*
X0366679Y0136619D01*
X0365861Y0135802D01*
X0366679Y0134985D01*
X0366679Y0134167D01*
X0365861Y0133350D01*
X0364226Y0133350D01*
X0363409Y0134167D01*
X0365044Y0135802D02*
X0365861Y0135802D01*
X0368565Y0135802D02*
X0371835Y0135802D01*
X0371018Y0133350D02*
X0371018Y0138254D01*
X0368565Y0135802D01*
X0364226Y0138254D02*
X0363409Y0137437D01*
X0364226Y0128254D02*
X0365861Y0128254D01*
X0366679Y0127437D01*
X0366679Y0126619D01*
X0365861Y0125802D01*
X0366679Y0124985D01*
X0366679Y0124167D01*
X0365861Y0123350D01*
X0364226Y0123350D01*
X0363409Y0124167D01*
X0365044Y0125802D02*
X0365861Y0125802D01*
X0368565Y0125802D02*
X0370200Y0127437D01*
X0371835Y0128254D01*
X0371018Y0125802D02*
X0368565Y0125802D01*
X0368565Y0124167D01*
X0369383Y0123350D01*
X0371018Y0123350D01*
X0371835Y0124167D01*
X0371835Y0124985D01*
X0371018Y0125802D01*
X0364226Y0128254D02*
X0363409Y0127437D01*
X0364226Y0118254D02*
X0365861Y0118254D01*
X0366679Y0117437D01*
X0366679Y0116619D01*
X0365861Y0115802D01*
X0366679Y0114985D01*
X0366679Y0114167D01*
X0365861Y0113350D01*
X0364226Y0113350D01*
X0363409Y0114167D01*
X0365044Y0115802D02*
X0365861Y0115802D01*
X0368565Y0114985D02*
X0368565Y0114167D01*
X0369383Y0113350D01*
X0371018Y0113350D01*
X0371835Y0114167D01*
X0371835Y0114985D01*
X0371018Y0115802D01*
X0369383Y0115802D01*
X0368565Y0116619D01*
X0368565Y0117437D01*
X0369383Y0118254D01*
X0371018Y0118254D01*
X0371835Y0117437D01*
X0371835Y0116619D01*
X0371018Y0115802D01*
X0369383Y0115802D02*
X0368565Y0114985D01*
X0364226Y0118254D02*
X0363409Y0117437D01*
X0365861Y0108254D02*
X0363409Y0105802D01*
X0366679Y0105802D01*
X0368565Y0104167D02*
X0371835Y0107437D01*
X0371835Y0104167D01*
X0371018Y0103350D01*
X0369383Y0103350D01*
X0368565Y0104167D01*
X0368565Y0107437D01*
X0369383Y0108254D01*
X0371018Y0108254D01*
X0371835Y0107437D01*
X0365861Y0108254D02*
X0365861Y0103350D01*
X0365861Y0098254D02*
X0363409Y0095802D01*
X0366679Y0095802D01*
X0368565Y0097437D02*
X0369383Y0098254D01*
X0371018Y0098254D01*
X0371835Y0097437D01*
X0371835Y0096619D01*
X0368565Y0093350D01*
X0371835Y0093350D01*
X0365861Y0093350D02*
X0365861Y0098254D01*
X0365861Y0088254D02*
X0363409Y0085802D01*
X0366679Y0085802D01*
X0368565Y0085802D02*
X0371835Y0085802D01*
X0371018Y0083350D02*
X0371018Y0088254D01*
X0368565Y0085802D01*
X0365861Y0083350D02*
X0365861Y0088254D01*
X0365861Y0078254D02*
X0363409Y0075802D01*
X0366679Y0075802D01*
X0368565Y0075802D02*
X0371018Y0075802D01*
X0371835Y0074985D01*
X0371835Y0074167D01*
X0371018Y0073350D01*
X0369383Y0073350D01*
X0368565Y0074167D01*
X0368565Y0075802D01*
X0370200Y0077437D01*
X0371835Y0078254D01*
X0365861Y0078254D02*
X0365861Y0073350D01*
X0365861Y0068254D02*
X0363409Y0065802D01*
X0366679Y0065802D01*
X0368565Y0064985D02*
X0369383Y0065802D01*
X0371018Y0065802D01*
X0371835Y0064985D01*
X0371835Y0064167D01*
X0371018Y0063350D01*
X0369383Y0063350D01*
X0368565Y0064167D01*
X0368565Y0064985D01*
X0369383Y0065802D02*
X0368565Y0066619D01*
X0368565Y0067437D01*
X0369383Y0068254D01*
X0371018Y0068254D01*
X0371835Y0067437D01*
X0371835Y0066619D01*
X0371018Y0065802D01*
X0365861Y0063350D02*
X0365861Y0068254D01*
X0366679Y0058254D02*
X0363409Y0058254D01*
X0363409Y0055802D01*
X0365044Y0056619D01*
X0365861Y0056619D01*
X0366679Y0055802D01*
X0366679Y0054167D01*
X0365861Y0053350D01*
X0364226Y0053350D01*
X0363409Y0054167D01*
X0368565Y0054167D02*
X0368565Y0057437D01*
X0369383Y0058254D01*
X0371018Y0058254D01*
X0371835Y0057437D01*
X0368565Y0054167D01*
X0369383Y0053350D01*
X0371018Y0053350D01*
X0371835Y0054167D01*
X0371835Y0057437D01*
X0371018Y0048254D02*
X0369383Y0048254D01*
X0368565Y0047437D01*
X0366679Y0048254D02*
X0363409Y0048254D01*
X0363409Y0045802D01*
X0365044Y0046619D01*
X0365861Y0046619D01*
X0366679Y0045802D01*
X0366679Y0044167D01*
X0365861Y0043350D01*
X0364226Y0043350D01*
X0363409Y0044167D01*
X0368565Y0043350D02*
X0371835Y0046619D01*
X0371835Y0047437D01*
X0371018Y0048254D01*
X0371835Y0043350D02*
X0368565Y0043350D01*
X0367757Y0032776D02*
X0369392Y0032776D01*
X0370209Y0031958D01*
X0370209Y0030324D01*
X0369392Y0029506D01*
X0367757Y0029506D02*
X0366940Y0031141D01*
X0366940Y0031958D01*
X0367757Y0032776D01*
X0365305Y0032776D02*
X0365305Y0029506D01*
X0367757Y0029506D01*
X0370209Y0027619D02*
X0370209Y0024350D01*
X0370209Y0025985D02*
X0365305Y0025985D01*
X0366940Y0024350D01*
X0360709Y0024350D02*
X0360709Y0027619D01*
X0360709Y0025985D02*
X0355805Y0025985D01*
X0357440Y0024350D01*
X0350709Y0024350D02*
X0350709Y0027619D01*
X0350709Y0025985D02*
X0345805Y0025985D01*
X0347440Y0024350D01*
X0346622Y0029506D02*
X0345805Y0030324D01*
X0345805Y0031958D01*
X0346622Y0032776D01*
X0347440Y0032776D01*
X0348257Y0031958D01*
X0349074Y0032776D01*
X0349892Y0032776D01*
X0350709Y0031958D01*
X0350709Y0030324D01*
X0349892Y0029506D01*
X0348257Y0031141D02*
X0348257Y0031958D01*
X0355805Y0031958D02*
X0358257Y0029506D01*
X0358257Y0032776D01*
X0360709Y0031958D02*
X0355805Y0031958D01*
X0340709Y0032776D02*
X0340709Y0029506D01*
X0337440Y0032776D01*
X0336622Y0032776D01*
X0335805Y0031958D01*
X0335805Y0030324D01*
X0336622Y0029506D01*
X0340709Y0027619D02*
X0340709Y0024350D01*
X0340709Y0025985D02*
X0335805Y0025985D01*
X0337440Y0024350D01*
X0330709Y0024350D02*
X0330709Y0027619D01*
X0330709Y0025985D02*
X0325805Y0025985D01*
X0327440Y0024350D01*
X0327440Y0029506D02*
X0325805Y0031141D01*
X0330709Y0031141D01*
X0330709Y0029506D02*
X0330709Y0032776D01*
X0310709Y0026802D02*
X0310709Y0025167D01*
X0309892Y0024350D01*
X0308257Y0025167D02*
X0308257Y0027619D01*
X0309892Y0027619D02*
X0306622Y0027619D01*
X0305805Y0026802D01*
X0305805Y0025167D01*
X0306622Y0024350D01*
X0307440Y0024350D01*
X0308257Y0025167D01*
X0310709Y0026802D02*
X0309892Y0027619D01*
X0300709Y0026802D02*
X0300709Y0025167D01*
X0299892Y0024350D01*
X0299074Y0024350D01*
X0298257Y0025167D01*
X0298257Y0026802D01*
X0299074Y0027619D01*
X0299892Y0027619D01*
X0300709Y0026802D01*
X0298257Y0026802D02*
X0297440Y0027619D01*
X0296622Y0027619D01*
X0295805Y0026802D01*
X0295805Y0025167D01*
X0296622Y0024350D01*
X0297440Y0024350D01*
X0298257Y0025167D01*
X0280709Y0024350D02*
X0279892Y0024350D01*
X0276622Y0027619D01*
X0275805Y0027619D01*
X0275805Y0024350D01*
X0270209Y0025167D02*
X0270209Y0026802D01*
X0269392Y0027619D01*
X0268574Y0027619D01*
X0267757Y0026802D01*
X0267757Y0024350D01*
X0269392Y0024350D01*
X0270209Y0025167D01*
X0267757Y0024350D02*
X0266122Y0025985D01*
X0265305Y0027619D01*
X0260209Y0026802D02*
X0260209Y0025167D01*
X0259392Y0024350D01*
X0257757Y0024350D02*
X0256940Y0025985D01*
X0256940Y0026802D01*
X0257757Y0027619D01*
X0259392Y0027619D01*
X0260209Y0026802D01*
X0257757Y0024350D02*
X0255305Y0024350D01*
X0255305Y0027619D01*
X0250709Y0026802D02*
X0245805Y0026802D01*
X0248257Y0024350D01*
X0248257Y0027619D01*
X0240709Y0026802D02*
X0240709Y0025167D01*
X0239892Y0024350D01*
X0238257Y0025985D02*
X0238257Y0026802D01*
X0239074Y0027619D01*
X0239892Y0027619D01*
X0240709Y0026802D01*
X0238257Y0026802D02*
X0237440Y0027619D01*
X0236622Y0027619D01*
X0235805Y0026802D01*
X0235805Y0025167D01*
X0236622Y0024350D01*
X0230709Y0024350D02*
X0230709Y0027619D01*
X0230709Y0024350D02*
X0227440Y0027619D01*
X0226622Y0027619D01*
X0225805Y0026802D01*
X0225805Y0025167D01*
X0226622Y0024350D01*
X0219709Y0024350D02*
X0219709Y0027619D01*
X0219709Y0025985D02*
X0214805Y0025985D01*
X0216440Y0024350D01*
X0210709Y0025167D02*
X0210709Y0026802D01*
X0209892Y0027619D01*
X0206622Y0027619D01*
X0209892Y0024350D01*
X0210709Y0025167D01*
X0209892Y0024350D02*
X0206622Y0024350D01*
X0205805Y0025167D01*
X0205805Y0026802D01*
X0206622Y0027619D01*
X0195421Y0027572D02*
X0195421Y0022667D01*
X0192151Y0027572D01*
X0192151Y0022667D01*
X0190348Y0022667D02*
X0188713Y0022667D01*
X0189531Y0022667D02*
X0189531Y0027572D01*
X0190348Y0027572D02*
X0188713Y0027572D01*
X0186827Y0027572D02*
X0186827Y0024302D01*
X0185192Y0022667D01*
X0183557Y0024302D01*
X0183557Y0027572D01*
X0179939Y0026754D02*
X0179122Y0027572D01*
X0176670Y0027572D01*
X0176670Y0022667D01*
X0179122Y0022667D01*
X0179939Y0023485D01*
X0179939Y0026754D01*
X0174783Y0027572D02*
X0174783Y0022667D01*
X0171513Y0027572D01*
X0171513Y0022667D01*
X0169627Y0023485D02*
X0169627Y0025119D01*
X0167992Y0025119D01*
X0169627Y0023485D02*
X0168809Y0022667D01*
X0167174Y0022667D01*
X0166357Y0023485D01*
X0166357Y0026754D01*
X0167174Y0027572D01*
X0168809Y0027572D01*
X0169627Y0026754D01*
X0162783Y0027572D02*
X0162783Y0024302D01*
X0161148Y0022667D01*
X0159513Y0024302D01*
X0159513Y0027572D01*
X0157627Y0027572D02*
X0154357Y0027572D01*
X0154357Y0025119D01*
X0155992Y0025937D01*
X0156809Y0025937D01*
X0157627Y0025119D01*
X0157627Y0023485D01*
X0156809Y0022667D01*
X0155174Y0022667D01*
X0154357Y0023485D01*
X0150592Y0023415D02*
X0150592Y0025050D01*
X0149774Y0025867D01*
X0148957Y0025867D01*
X0148140Y0025050D01*
X0148140Y0024233D01*
X0148140Y0025050D02*
X0147322Y0025867D01*
X0146505Y0025867D01*
X0145688Y0025050D01*
X0145688Y0023415D01*
X0146505Y0022598D01*
X0149774Y0022598D02*
X0150592Y0023415D01*
X0148957Y0027754D02*
X0145688Y0027754D01*
X0148957Y0027754D02*
X0150592Y0029389D01*
X0148957Y0031024D01*
X0145688Y0031024D01*
X0146505Y0032911D02*
X0145688Y0033728D01*
X0145688Y0035363D01*
X0146505Y0036180D01*
X0147322Y0036180D01*
X0148140Y0035363D01*
X0148957Y0036180D01*
X0149774Y0036180D01*
X0150592Y0035363D01*
X0150592Y0033728D01*
X0149774Y0032911D01*
X0148140Y0034546D02*
X0148140Y0035363D01*
X0392409Y0029937D02*
X0392409Y0026667D01*
X0393226Y0025850D01*
X0394861Y0025850D01*
X0395679Y0026667D01*
X0395679Y0028302D01*
X0394044Y0028302D01*
X0395679Y0029937D02*
X0394861Y0030754D01*
X0393226Y0030754D01*
X0392409Y0029937D01*
X0397565Y0030754D02*
X0400835Y0025850D01*
X0400835Y0030754D01*
X0402722Y0030754D02*
X0405174Y0030754D01*
X0405991Y0029937D01*
X0405991Y0026667D01*
X0405174Y0025850D01*
X0402722Y0025850D01*
X0402722Y0030754D01*
X0397565Y0030754D02*
X0397565Y0025850D01*
X0398361Y0043350D02*
X0396726Y0043350D01*
X0395909Y0044167D01*
X0395909Y0045802D02*
X0397544Y0046619D01*
X0398361Y0046619D01*
X0399179Y0045802D01*
X0399179Y0044167D01*
X0398361Y0043350D01*
X0401065Y0044167D02*
X0401883Y0043350D01*
X0403518Y0043350D01*
X0404335Y0044167D01*
X0404335Y0044985D01*
X0403518Y0045802D01*
X0402700Y0045802D01*
X0403518Y0045802D02*
X0404335Y0046619D01*
X0404335Y0047437D01*
X0403518Y0048254D01*
X0401883Y0048254D01*
X0401065Y0047437D01*
X0399179Y0048254D02*
X0395909Y0048254D01*
X0395909Y0045802D01*
X0396726Y0053350D02*
X0395909Y0054167D01*
X0396726Y0053350D02*
X0398361Y0053350D01*
X0399179Y0054167D01*
X0399179Y0055802D01*
X0398361Y0056619D01*
X0397544Y0056619D01*
X0395909Y0055802D01*
X0395909Y0058254D01*
X0399179Y0058254D01*
X0401065Y0056619D02*
X0402700Y0058254D01*
X0402700Y0053350D01*
X0401065Y0053350D02*
X0404335Y0053350D01*
X0403518Y0063350D02*
X0404335Y0064167D01*
X0404335Y0067437D01*
X0403518Y0068254D01*
X0401883Y0068254D01*
X0401065Y0067437D01*
X0401065Y0066619D01*
X0401883Y0065802D01*
X0404335Y0065802D01*
X0403518Y0063350D02*
X0401883Y0063350D01*
X0401065Y0064167D01*
X0399179Y0065802D02*
X0395909Y0065802D01*
X0398361Y0068254D01*
X0398361Y0063350D01*
X0398361Y0073350D02*
X0398361Y0078254D01*
X0395909Y0075802D01*
X0399179Y0075802D01*
X0401065Y0074167D02*
X0401065Y0073350D01*
X0401065Y0074167D02*
X0404335Y0077437D01*
X0404335Y0078254D01*
X0401065Y0078254D01*
X0401883Y0083350D02*
X0401065Y0084167D01*
X0401883Y0083350D02*
X0403518Y0083350D01*
X0404335Y0084167D01*
X0404335Y0085802D01*
X0403518Y0086619D01*
X0402700Y0086619D01*
X0401065Y0085802D01*
X0401065Y0088254D01*
X0404335Y0088254D01*
X0399179Y0085802D02*
X0395909Y0085802D01*
X0398361Y0088254D01*
X0398361Y0083350D01*
X0398361Y0093350D02*
X0398361Y0098254D01*
X0395909Y0095802D01*
X0399179Y0095802D01*
X0401065Y0094167D02*
X0401883Y0093350D01*
X0403518Y0093350D01*
X0404335Y0094167D01*
X0404335Y0094985D01*
X0403518Y0095802D01*
X0402700Y0095802D01*
X0403518Y0095802D02*
X0404335Y0096619D01*
X0404335Y0097437D01*
X0403518Y0098254D01*
X0401883Y0098254D01*
X0401065Y0097437D01*
X0401065Y0103350D02*
X0404335Y0103350D01*
X0402700Y0103350D02*
X0402700Y0108254D01*
X0401065Y0106619D01*
X0399179Y0105802D02*
X0395909Y0105802D01*
X0398361Y0108254D01*
X0398361Y0103350D01*
X0398361Y0113350D02*
X0396726Y0113350D01*
X0395909Y0114167D01*
X0397544Y0115802D02*
X0398361Y0115802D01*
X0399179Y0114985D01*
X0399179Y0114167D01*
X0398361Y0113350D01*
X0398361Y0115802D02*
X0399179Y0116619D01*
X0399179Y0117437D01*
X0398361Y0118254D01*
X0396726Y0118254D01*
X0395909Y0117437D01*
X0401065Y0117437D02*
X0401065Y0116619D01*
X0401883Y0115802D01*
X0404335Y0115802D01*
X0404335Y0114167D02*
X0403518Y0113350D01*
X0401883Y0113350D01*
X0401065Y0114167D01*
X0404335Y0114167D02*
X0404335Y0117437D01*
X0403518Y0118254D01*
X0401883Y0118254D01*
X0401065Y0117437D01*
X0401065Y0123350D02*
X0401065Y0124167D01*
X0404335Y0127437D01*
X0404335Y0128254D01*
X0401065Y0128254D01*
X0399179Y0127437D02*
X0399179Y0126619D01*
X0398361Y0125802D01*
X0399179Y0124985D01*
X0399179Y0124167D01*
X0398361Y0123350D01*
X0396726Y0123350D01*
X0395909Y0124167D01*
X0397544Y0125802D02*
X0398361Y0125802D01*
X0399179Y0127437D02*
X0398361Y0128254D01*
X0396726Y0128254D01*
X0395909Y0127437D01*
X0396726Y0133350D02*
X0395909Y0134167D01*
X0396726Y0133350D02*
X0398361Y0133350D01*
X0399179Y0134167D01*
X0399179Y0134985D01*
X0398361Y0135802D01*
X0397544Y0135802D01*
X0398361Y0135802D02*
X0399179Y0136619D01*
X0399179Y0137437D01*
X0398361Y0138254D01*
X0396726Y0138254D01*
X0395909Y0137437D01*
X0401065Y0138254D02*
X0401065Y0135802D01*
X0402700Y0136619D01*
X0403518Y0136619D01*
X0404335Y0135802D01*
X0404335Y0134167D01*
X0403518Y0133350D01*
X0401883Y0133350D01*
X0401065Y0134167D01*
X0401065Y0138254D02*
X0404335Y0138254D01*
X0403518Y0143350D02*
X0401883Y0143350D01*
X0401065Y0144167D01*
X0399179Y0144167D02*
X0398361Y0143350D01*
X0396726Y0143350D01*
X0395909Y0144167D01*
X0397544Y0145802D02*
X0398361Y0145802D01*
X0399179Y0144985D01*
X0399179Y0144167D01*
X0398361Y0145802D02*
X0399179Y0146619D01*
X0399179Y0147437D01*
X0398361Y0148254D01*
X0396726Y0148254D01*
X0395909Y0147437D01*
X0401065Y0147437D02*
X0401883Y0148254D01*
X0403518Y0148254D01*
X0404335Y0147437D01*
X0404335Y0146619D01*
X0403518Y0145802D01*
X0404335Y0144985D01*
X0404335Y0144167D01*
X0403518Y0143350D01*
X0403518Y0145802D02*
X0402700Y0145802D01*
X0402700Y0153350D02*
X0402700Y0158254D01*
X0401065Y0156619D01*
X0399179Y0156619D02*
X0399179Y0157437D01*
X0398361Y0158254D01*
X0396726Y0158254D01*
X0395909Y0157437D01*
X0397544Y0155802D02*
X0398361Y0155802D01*
X0399179Y0154985D01*
X0399179Y0154167D01*
X0398361Y0153350D01*
X0396726Y0153350D01*
X0395909Y0154167D01*
X0398361Y0155802D02*
X0399179Y0156619D01*
X0401065Y0153350D02*
X0404335Y0153350D01*
X0285305Y0195006D02*
X0285305Y0198276D01*
D15*
X0368406Y0210634D02*
X0368990Y0210050D01*
X0370158Y0210050D01*
X0370741Y0210634D01*
X0370741Y0211801D01*
X0370158Y0212385D01*
X0369574Y0212385D01*
X0368406Y0211801D01*
X0368406Y0213553D01*
X0370741Y0213553D01*
X0372458Y0213553D02*
X0372458Y0211218D01*
X0373625Y0210050D01*
X0374793Y0211218D01*
X0374793Y0213553D01*
D16*
X0014204Y0016702D02*
X0014204Y0013633D01*
X0014204Y0015935D02*
X0017273Y0015935D01*
X0017273Y0016702D02*
X0017273Y0013633D01*
X0017273Y0016702D02*
X0015739Y0018237D01*
X0014204Y0016702D01*
X0018808Y0018237D02*
X0021877Y0018237D01*
X0020342Y0018237D02*
X0020342Y0013633D01*
X0023412Y0013633D02*
X0026481Y0018237D01*
X0023412Y0018237D02*
X0026481Y0013633D01*
X0049047Y0029300D02*
X0049047Y0033904D01*
X0051349Y0033904D01*
X0052117Y0033137D01*
X0052117Y0031602D01*
X0051349Y0030835D01*
X0049047Y0030835D01*
X0050582Y0030835D02*
X0052117Y0029300D01*
X0053651Y0029300D02*
X0056720Y0029300D01*
X0055186Y0029300D02*
X0055186Y0033904D01*
X0053651Y0032369D01*
X0058255Y0033137D02*
X0059022Y0033904D01*
X0060557Y0033904D01*
X0061324Y0033137D01*
X0061324Y0032369D01*
X0058255Y0029300D01*
X0061324Y0029300D01*
X0054898Y0041402D02*
X0054898Y0042170D01*
X0057968Y0045239D01*
X0057968Y0046006D01*
X0054898Y0046006D01*
X0053364Y0045239D02*
X0052596Y0046006D01*
X0051062Y0046006D01*
X0050295Y0045239D01*
X0050295Y0042170D01*
X0051062Y0041402D01*
X0052596Y0041402D01*
X0053364Y0042170D01*
X0057075Y0048217D02*
X0050382Y0054909D01*
X0050382Y0073807D01*
X0059437Y0073807D01*
X0066917Y0073807D02*
X0075972Y0073807D01*
X0075972Y0054909D01*
X0069280Y0048217D01*
X0066917Y0048217D01*
X0059437Y0048217D02*
X0057075Y0048217D01*
X0066917Y0049397D02*
X0067200Y0049492D01*
X0067481Y0049594D01*
X0067758Y0049703D01*
X0068034Y0049818D01*
X0068306Y0049940D01*
X0068575Y0050069D01*
X0068841Y0050204D01*
X0069103Y0050346D01*
X0069362Y0050494D01*
X0069618Y0050648D01*
X0069869Y0050809D01*
X0070117Y0050976D01*
X0070360Y0051148D01*
X0070599Y0051327D01*
X0070834Y0051511D01*
X0071064Y0051701D01*
X0071289Y0051897D01*
X0071509Y0052098D01*
X0071725Y0052304D01*
X0071935Y0052516D01*
X0072140Y0052732D01*
X0072340Y0052954D01*
X0072534Y0053181D01*
X0072723Y0053412D01*
X0072906Y0053647D01*
X0073083Y0053887D01*
X0073254Y0054132D01*
X0073419Y0054380D01*
X0073578Y0054633D01*
X0073731Y0054889D01*
X0073878Y0055149D01*
X0074018Y0055412D01*
X0074152Y0055679D01*
X0074279Y0055949D01*
X0074399Y0056222D01*
X0074513Y0056497D01*
X0074620Y0056776D01*
X0074720Y0057057D01*
X0074813Y0057340D01*
X0074900Y0057626D01*
X0074979Y0057914D01*
X0075051Y0058203D01*
X0075116Y0058494D01*
X0075174Y0058787D01*
X0075225Y0059081D01*
X0075269Y0059376D01*
X0075305Y0059672D01*
X0075334Y0059969D01*
X0075356Y0060267D01*
X0075371Y0060565D01*
X0075378Y0060863D01*
X0075378Y0061161D01*
X0075371Y0061459D01*
X0075356Y0061757D01*
X0075334Y0062055D01*
X0075305Y0062352D01*
X0075269Y0062648D01*
X0075225Y0062943D01*
X0075174Y0063237D01*
X0075116Y0063530D01*
X0075051Y0063821D01*
X0074979Y0064110D01*
X0074900Y0064398D01*
X0074813Y0064684D01*
X0074720Y0064967D01*
X0074620Y0065248D01*
X0074513Y0065527D01*
X0074399Y0065802D01*
X0074279Y0066075D01*
X0074152Y0066345D01*
X0074018Y0066612D01*
X0073878Y0066875D01*
X0073731Y0067135D01*
X0073578Y0067391D01*
X0073419Y0067644D01*
X0073254Y0067892D01*
X0073083Y0068137D01*
X0072906Y0068377D01*
X0072723Y0068612D01*
X0072534Y0068843D01*
X0072340Y0069070D01*
X0072140Y0069292D01*
X0071935Y0069508D01*
X0071725Y0069720D01*
X0071509Y0069926D01*
X0071289Y0070127D01*
X0071064Y0070323D01*
X0070834Y0070513D01*
X0070599Y0070697D01*
X0070360Y0070876D01*
X0070117Y0071048D01*
X0069869Y0071215D01*
X0069618Y0071376D01*
X0069362Y0071530D01*
X0069103Y0071678D01*
X0068841Y0071820D01*
X0068575Y0071955D01*
X0068306Y0072084D01*
X0068034Y0072206D01*
X0067758Y0072321D01*
X0067481Y0072430D01*
X0067200Y0072532D01*
X0066917Y0072627D01*
X0076028Y0074801D02*
X0076628Y0074200D01*
X0077829Y0074200D01*
X0078430Y0074801D01*
X0078430Y0075401D01*
X0077829Y0076002D01*
X0076628Y0076002D01*
X0076028Y0076602D01*
X0076028Y0077203D01*
X0076628Y0077803D01*
X0077829Y0077803D01*
X0078430Y0077203D01*
X0079711Y0077803D02*
X0079711Y0074200D01*
X0082113Y0074200D01*
X0083394Y0074200D02*
X0083394Y0077803D01*
X0085796Y0074200D01*
X0085796Y0077803D01*
X0087077Y0077203D02*
X0087077Y0076602D01*
X0087678Y0076002D01*
X0088879Y0076002D01*
X0089479Y0075401D01*
X0089479Y0074801D01*
X0088879Y0074200D01*
X0087678Y0074200D01*
X0087077Y0074801D01*
X0087077Y0077203D02*
X0087678Y0077803D01*
X0088879Y0077803D01*
X0089479Y0077203D01*
X0090760Y0077203D02*
X0090760Y0074801D01*
X0091361Y0074200D01*
X0092562Y0074200D01*
X0093162Y0074801D01*
X0093162Y0077203D01*
X0092562Y0077803D01*
X0091361Y0077803D01*
X0090760Y0077203D01*
X0094443Y0077803D02*
X0094443Y0074200D01*
X0094443Y0075401D02*
X0096245Y0075401D01*
X0096845Y0076002D01*
X0096845Y0077203D01*
X0096245Y0077803D01*
X0094443Y0077803D01*
X0095644Y0075401D02*
X0096845Y0074200D01*
X0098126Y0076002D02*
X0100528Y0076002D01*
X0101810Y0075401D02*
X0103611Y0075401D01*
X0104212Y0076002D01*
X0104212Y0077203D01*
X0103611Y0077803D01*
X0101810Y0077803D01*
X0101810Y0074200D01*
X0105493Y0074200D02*
X0106694Y0075401D01*
X0107895Y0074200D01*
X0107895Y0077803D01*
X0109176Y0077803D02*
X0110977Y0077803D01*
X0111578Y0077203D01*
X0111578Y0076002D01*
X0110977Y0075401D01*
X0109176Y0075401D01*
X0110377Y0075401D02*
X0111578Y0074200D01*
X0109176Y0074200D02*
X0109176Y0077803D01*
X0105493Y0077803D02*
X0105493Y0074200D01*
X0097755Y0083885D02*
X0095954Y0083885D01*
X0095954Y0082684D02*
X0095954Y0086287D01*
X0097755Y0086287D01*
X0098356Y0085687D01*
X0098356Y0084486D01*
X0097755Y0083885D01*
X0094673Y0084486D02*
X0092271Y0084486D01*
X0090990Y0085687D02*
X0090389Y0086287D01*
X0088588Y0086287D01*
X0088588Y0082684D01*
X0090389Y0082684D01*
X0090990Y0083285D01*
X0090990Y0085687D01*
X0087306Y0086287D02*
X0084904Y0086287D01*
X0084904Y0082684D01*
X0087306Y0082684D01*
X0086105Y0084486D02*
X0084904Y0084486D01*
X0083623Y0082684D02*
X0081221Y0082684D01*
X0081221Y0086287D01*
X0082113Y0077803D02*
X0079711Y0077803D01*
X0079711Y0076002D02*
X0080912Y0076002D01*
X0059437Y0072627D02*
X0059154Y0072532D01*
X0058873Y0072430D01*
X0058596Y0072321D01*
X0058320Y0072206D01*
X0058048Y0072084D01*
X0057779Y0071955D01*
X0057513Y0071820D01*
X0057251Y0071678D01*
X0056992Y0071530D01*
X0056736Y0071376D01*
X0056485Y0071215D01*
X0056237Y0071048D01*
X0055994Y0070876D01*
X0055755Y0070697D01*
X0055520Y0070513D01*
X0055290Y0070323D01*
X0055065Y0070127D01*
X0054845Y0069926D01*
X0054629Y0069720D01*
X0054419Y0069508D01*
X0054214Y0069292D01*
X0054014Y0069070D01*
X0053820Y0068843D01*
X0053631Y0068612D01*
X0053448Y0068377D01*
X0053271Y0068137D01*
X0053100Y0067892D01*
X0052935Y0067644D01*
X0052776Y0067391D01*
X0052623Y0067135D01*
X0052476Y0066875D01*
X0052336Y0066612D01*
X0052202Y0066345D01*
X0052075Y0066075D01*
X0051955Y0065802D01*
X0051841Y0065527D01*
X0051734Y0065248D01*
X0051634Y0064967D01*
X0051541Y0064684D01*
X0051454Y0064398D01*
X0051375Y0064110D01*
X0051303Y0063821D01*
X0051238Y0063530D01*
X0051180Y0063237D01*
X0051129Y0062943D01*
X0051085Y0062648D01*
X0051049Y0062352D01*
X0051020Y0062055D01*
X0050998Y0061757D01*
X0050983Y0061459D01*
X0050976Y0061161D01*
X0050976Y0060863D01*
X0050983Y0060565D01*
X0050998Y0060267D01*
X0051020Y0059969D01*
X0051049Y0059672D01*
X0051085Y0059376D01*
X0051129Y0059081D01*
X0051180Y0058787D01*
X0051238Y0058494D01*
X0051303Y0058203D01*
X0051375Y0057914D01*
X0051454Y0057626D01*
X0051541Y0057340D01*
X0051634Y0057057D01*
X0051734Y0056776D01*
X0051841Y0056497D01*
X0051955Y0056222D01*
X0052075Y0055949D01*
X0052202Y0055679D01*
X0052336Y0055412D01*
X0052476Y0055149D01*
X0052623Y0054889D01*
X0052776Y0054633D01*
X0052935Y0054380D01*
X0053100Y0054132D01*
X0053271Y0053887D01*
X0053448Y0053647D01*
X0053631Y0053412D01*
X0053820Y0053181D01*
X0054014Y0052954D01*
X0054214Y0052732D01*
X0054419Y0052516D01*
X0054629Y0052304D01*
X0054845Y0052098D01*
X0055065Y0051897D01*
X0055290Y0051701D01*
X0055520Y0051511D01*
X0055755Y0051327D01*
X0055994Y0051148D01*
X0056237Y0050976D01*
X0056485Y0050809D01*
X0056736Y0050648D01*
X0056992Y0050494D01*
X0057251Y0050346D01*
X0057513Y0050204D01*
X0057779Y0050069D01*
X0058048Y0049940D01*
X0058320Y0049818D01*
X0058596Y0049703D01*
X0058873Y0049594D01*
X0059154Y0049492D01*
X0059437Y0049397D01*
X0079309Y0040585D02*
X0080710Y0039184D01*
X0080710Y0041053D01*
X0082111Y0040585D02*
X0079309Y0040585D01*
X0087307Y0031659D02*
X0089609Y0029357D01*
X0089609Y0032427D01*
X0091911Y0031659D02*
X0087307Y0031659D01*
X0088074Y0027823D02*
X0087307Y0027055D01*
X0087307Y0025521D01*
X0088074Y0024754D01*
X0091144Y0024754D01*
X0091911Y0025521D01*
X0091911Y0027055D01*
X0091144Y0027823D01*
X0091911Y0023219D02*
X0091911Y0021684D01*
X0091911Y0022452D02*
X0087307Y0022452D01*
X0087307Y0023219D02*
X0087307Y0021684D01*
X0106309Y0019025D02*
X0109111Y0019025D01*
X0109111Y0018091D02*
X0109111Y0019960D01*
X0107243Y0018091D02*
X0106309Y0019025D01*
X0106813Y0026603D02*
X0106346Y0027070D01*
X0106346Y0028004D01*
X0106813Y0028471D01*
X0107280Y0028471D01*
X0109148Y0026603D01*
X0109148Y0028471D01*
X0108644Y0035703D02*
X0109111Y0036170D01*
X0109111Y0037104D01*
X0108644Y0037571D01*
X0108177Y0037571D01*
X0107710Y0037104D01*
X0107710Y0036637D01*
X0107710Y0037104D02*
X0107243Y0037571D01*
X0106776Y0037571D01*
X0106309Y0037104D01*
X0106309Y0036170D01*
X0106776Y0035703D01*
X0158214Y0030677D02*
X0176014Y0030677D01*
X0184323Y0032751D02*
X0186625Y0032751D01*
X0187392Y0033518D01*
X0187392Y0036588D01*
X0186625Y0037355D01*
X0184323Y0037355D01*
X0184323Y0032751D01*
X0188927Y0032751D02*
X0191996Y0035820D01*
X0191996Y0036588D01*
X0191229Y0037355D01*
X0189694Y0037355D01*
X0188927Y0036588D01*
X0188390Y0040322D02*
X0188390Y0043925D01*
X0189671Y0043325D02*
X0189671Y0042724D01*
X0190272Y0042124D01*
X0191473Y0042124D01*
X0192073Y0041523D01*
X0192073Y0040923D01*
X0191473Y0040322D01*
X0190272Y0040322D01*
X0189671Y0040923D01*
X0188390Y0040322D02*
X0185988Y0043925D01*
X0185988Y0040322D01*
X0184707Y0040322D02*
X0182305Y0040322D01*
X0182305Y0043925D01*
X0184707Y0043925D01*
X0183506Y0042124D02*
X0182305Y0042124D01*
X0181024Y0041523D02*
X0181024Y0040923D01*
X0180423Y0040322D01*
X0179222Y0040322D01*
X0178622Y0040923D01*
X0179222Y0042124D02*
X0180423Y0042124D01*
X0181024Y0041523D01*
X0181024Y0043325D02*
X0180423Y0043925D01*
X0179222Y0043925D01*
X0178622Y0043325D01*
X0178622Y0042724D01*
X0179222Y0042124D01*
X0176014Y0045677D02*
X0158214Y0045677D01*
X0188927Y0032751D02*
X0191996Y0032751D01*
X0193955Y0040322D02*
X0193354Y0040923D01*
X0193354Y0043325D01*
X0193955Y0043925D01*
X0195156Y0043925D01*
X0195757Y0043325D01*
X0195757Y0040923D01*
X0195156Y0040322D01*
X0193955Y0040322D01*
X0197038Y0040322D02*
X0197038Y0043925D01*
X0198839Y0043925D01*
X0199440Y0043325D01*
X0199440Y0042124D01*
X0198839Y0041523D01*
X0197038Y0041523D01*
X0198239Y0041523D02*
X0199440Y0040322D01*
X0200721Y0042124D02*
X0203123Y0042124D01*
X0204404Y0043925D02*
X0205605Y0043925D01*
X0205004Y0043925D02*
X0205004Y0040322D01*
X0204404Y0040322D02*
X0205605Y0040322D01*
X0206859Y0040923D02*
X0206859Y0043325D01*
X0207460Y0043925D01*
X0208661Y0043925D01*
X0209261Y0043325D01*
X0209261Y0040923D01*
X0208661Y0040322D01*
X0207460Y0040322D01*
X0206859Y0040923D01*
X0192073Y0043325D02*
X0191473Y0043925D01*
X0190272Y0043925D01*
X0189671Y0043325D01*
X0241606Y0045247D02*
X0243140Y0045247D01*
X0242373Y0045247D02*
X0242373Y0049851D01*
X0241606Y0049851D02*
X0243140Y0049851D01*
X0244675Y0049084D02*
X0244675Y0046015D01*
X0245442Y0045247D01*
X0246977Y0045247D01*
X0247744Y0046015D01*
X0249279Y0046015D02*
X0250046Y0045247D01*
X0251581Y0045247D01*
X0252348Y0046015D01*
X0252348Y0046782D01*
X0251581Y0047549D01*
X0250813Y0047549D01*
X0251581Y0047549D02*
X0252348Y0048317D01*
X0252348Y0049084D01*
X0251581Y0049851D01*
X0250046Y0049851D01*
X0249279Y0049084D01*
X0247744Y0049084D02*
X0246977Y0049851D01*
X0245442Y0049851D01*
X0244675Y0049084D01*
X0273244Y0049735D02*
X0275546Y0049735D01*
X0276313Y0050502D01*
X0276313Y0052037D01*
X0275546Y0052804D01*
X0273244Y0052804D01*
X0273244Y0048200D01*
X0274779Y0049735D02*
X0276313Y0048200D01*
X0277848Y0048967D02*
X0278615Y0048200D01*
X0280150Y0048200D01*
X0280917Y0048967D01*
X0280917Y0052037D01*
X0280150Y0052804D01*
X0278615Y0052804D01*
X0277848Y0052037D01*
X0277848Y0051269D01*
X0278615Y0050502D01*
X0280917Y0050502D01*
X0295547Y0058800D02*
X0295547Y0063404D01*
X0297849Y0063404D01*
X0298617Y0062637D01*
X0298617Y0061102D01*
X0297849Y0060335D01*
X0295547Y0060335D01*
X0297082Y0060335D02*
X0298617Y0058800D01*
X0300151Y0058800D02*
X0303220Y0058800D01*
X0301686Y0058800D02*
X0301686Y0063404D01*
X0300151Y0061869D01*
X0304755Y0061102D02*
X0304755Y0063404D01*
X0307824Y0063404D01*
X0307057Y0061869D02*
X0307824Y0061102D01*
X0307824Y0059567D01*
X0307057Y0058800D01*
X0305522Y0058800D01*
X0304755Y0059567D01*
X0304755Y0061102D02*
X0306290Y0061869D01*
X0307057Y0061869D01*
X0308159Y0076200D02*
X0308159Y0080804D01*
X0310461Y0080804D01*
X0311228Y0080037D01*
X0311228Y0078502D01*
X0310461Y0077735D01*
X0308159Y0077735D01*
X0309694Y0077735D02*
X0311228Y0076200D01*
X0312763Y0076200D02*
X0315832Y0076200D01*
X0314298Y0076200D02*
X0314298Y0080804D01*
X0312763Y0079269D01*
X0317367Y0080037D02*
X0318134Y0080804D01*
X0319669Y0080804D01*
X0320436Y0080037D01*
X0320436Y0079269D01*
X0319669Y0078502D01*
X0320436Y0077735D01*
X0320436Y0076967D01*
X0319669Y0076200D01*
X0318134Y0076200D01*
X0317367Y0076967D01*
X0318902Y0078502D02*
X0319669Y0078502D01*
X0319269Y0084800D02*
X0319269Y0089404D01*
X0316967Y0087102D01*
X0320036Y0087102D01*
X0315432Y0084800D02*
X0312363Y0084800D01*
X0313898Y0084800D02*
X0313898Y0089404D01*
X0312363Y0087869D01*
X0310828Y0087102D02*
X0310061Y0086335D01*
X0307759Y0086335D01*
X0309294Y0086335D02*
X0310828Y0084800D01*
X0310828Y0087102D02*
X0310828Y0088637D01*
X0310061Y0089404D01*
X0307759Y0089404D01*
X0307759Y0084800D01*
X0325644Y0084049D02*
X0327379Y0085784D01*
X0329114Y0084049D01*
X0329114Y0089253D01*
X0330800Y0089253D02*
X0332535Y0089253D01*
X0331668Y0089253D02*
X0331668Y0084049D01*
X0332535Y0084049D02*
X0330800Y0084049D01*
X0334238Y0084049D02*
X0334238Y0089253D01*
X0337708Y0089253D01*
X0339394Y0089253D02*
X0341129Y0089253D01*
X0340262Y0089253D02*
X0340262Y0084049D01*
X0341129Y0084049D02*
X0339394Y0084049D01*
X0335973Y0086651D02*
X0334238Y0086651D01*
X0325644Y0089253D02*
X0325644Y0084049D01*
X0285440Y0081328D02*
X0285440Y0080561D01*
X0284673Y0079793D01*
X0283138Y0079793D01*
X0282371Y0080561D01*
X0282371Y0081328D01*
X0283138Y0082095D01*
X0284673Y0082095D01*
X0285440Y0081328D01*
X0284673Y0079793D02*
X0285440Y0079026D01*
X0285440Y0078259D01*
X0284673Y0077491D01*
X0283138Y0077491D01*
X0282371Y0078259D01*
X0282371Y0079026D01*
X0283138Y0079793D01*
X0280836Y0079793D02*
X0280069Y0079026D01*
X0277767Y0079026D01*
X0279302Y0079026D02*
X0280836Y0077491D01*
X0280836Y0079793D02*
X0280836Y0081328D01*
X0280069Y0082095D01*
X0277767Y0082095D01*
X0277767Y0077491D01*
X0251254Y0109398D02*
X0244561Y0102705D01*
X0225664Y0102705D01*
X0225664Y0111760D01*
X0225664Y0119240D02*
X0225664Y0128295D01*
X0244561Y0128295D01*
X0251254Y0121602D01*
X0251254Y0119240D01*
X0251254Y0111760D02*
X0251254Y0109398D01*
X0250074Y0119240D02*
X0249979Y0119523D01*
X0249877Y0119804D01*
X0249768Y0120081D01*
X0249653Y0120357D01*
X0249531Y0120629D01*
X0249402Y0120898D01*
X0249267Y0121164D01*
X0249125Y0121426D01*
X0248977Y0121685D01*
X0248823Y0121941D01*
X0248662Y0122192D01*
X0248495Y0122440D01*
X0248323Y0122683D01*
X0248144Y0122922D01*
X0247960Y0123157D01*
X0247770Y0123387D01*
X0247574Y0123612D01*
X0247373Y0123832D01*
X0247167Y0124048D01*
X0246955Y0124258D01*
X0246739Y0124463D01*
X0246517Y0124663D01*
X0246290Y0124857D01*
X0246059Y0125046D01*
X0245824Y0125229D01*
X0245584Y0125406D01*
X0245339Y0125577D01*
X0245091Y0125742D01*
X0244838Y0125901D01*
X0244582Y0126054D01*
X0244322Y0126201D01*
X0244059Y0126341D01*
X0243792Y0126475D01*
X0243522Y0126602D01*
X0243249Y0126722D01*
X0242974Y0126836D01*
X0242695Y0126943D01*
X0242414Y0127043D01*
X0242131Y0127136D01*
X0241845Y0127223D01*
X0241557Y0127302D01*
X0241268Y0127374D01*
X0240977Y0127439D01*
X0240684Y0127497D01*
X0240390Y0127548D01*
X0240095Y0127592D01*
X0239799Y0127628D01*
X0239502Y0127657D01*
X0239204Y0127679D01*
X0238906Y0127694D01*
X0238608Y0127701D01*
X0238310Y0127701D01*
X0238012Y0127694D01*
X0237714Y0127679D01*
X0237416Y0127657D01*
X0237119Y0127628D01*
X0236823Y0127592D01*
X0236528Y0127548D01*
X0236234Y0127497D01*
X0235941Y0127439D01*
X0235650Y0127374D01*
X0235361Y0127302D01*
X0235073Y0127223D01*
X0234787Y0127136D01*
X0234504Y0127043D01*
X0234223Y0126943D01*
X0233944Y0126836D01*
X0233669Y0126722D01*
X0233396Y0126602D01*
X0233126Y0126475D01*
X0232859Y0126341D01*
X0232596Y0126201D01*
X0232336Y0126054D01*
X0232080Y0125901D01*
X0231827Y0125742D01*
X0231579Y0125577D01*
X0231334Y0125406D01*
X0231094Y0125229D01*
X0230859Y0125046D01*
X0230628Y0124857D01*
X0230401Y0124663D01*
X0230179Y0124463D01*
X0229963Y0124258D01*
X0229751Y0124048D01*
X0229545Y0123832D01*
X0229344Y0123612D01*
X0229148Y0123387D01*
X0228958Y0123157D01*
X0228774Y0122922D01*
X0228595Y0122683D01*
X0228423Y0122440D01*
X0228256Y0122192D01*
X0228095Y0121941D01*
X0227941Y0121685D01*
X0227793Y0121426D01*
X0227651Y0121164D01*
X0227516Y0120898D01*
X0227387Y0120629D01*
X0227265Y0120357D01*
X0227150Y0120081D01*
X0227041Y0119804D01*
X0226939Y0119523D01*
X0226844Y0119240D01*
X0226844Y0111760D02*
X0226939Y0111477D01*
X0227041Y0111196D01*
X0227150Y0110919D01*
X0227265Y0110643D01*
X0227387Y0110371D01*
X0227516Y0110102D01*
X0227651Y0109836D01*
X0227793Y0109574D01*
X0227941Y0109315D01*
X0228095Y0109059D01*
X0228256Y0108808D01*
X0228423Y0108560D01*
X0228595Y0108317D01*
X0228774Y0108078D01*
X0228958Y0107843D01*
X0229148Y0107613D01*
X0229344Y0107388D01*
X0229545Y0107168D01*
X0229751Y0106952D01*
X0229963Y0106742D01*
X0230179Y0106537D01*
X0230401Y0106337D01*
X0230628Y0106143D01*
X0230859Y0105954D01*
X0231094Y0105771D01*
X0231334Y0105594D01*
X0231579Y0105423D01*
X0231827Y0105258D01*
X0232080Y0105099D01*
X0232336Y0104946D01*
X0232596Y0104799D01*
X0232859Y0104659D01*
X0233126Y0104525D01*
X0233396Y0104398D01*
X0233669Y0104278D01*
X0233944Y0104164D01*
X0234223Y0104057D01*
X0234504Y0103957D01*
X0234787Y0103864D01*
X0235073Y0103777D01*
X0235361Y0103698D01*
X0235650Y0103626D01*
X0235941Y0103561D01*
X0236234Y0103503D01*
X0236528Y0103452D01*
X0236823Y0103408D01*
X0237119Y0103372D01*
X0237416Y0103343D01*
X0237714Y0103321D01*
X0238012Y0103306D01*
X0238310Y0103299D01*
X0238608Y0103299D01*
X0238906Y0103306D01*
X0239204Y0103321D01*
X0239502Y0103343D01*
X0239799Y0103372D01*
X0240095Y0103408D01*
X0240390Y0103452D01*
X0240684Y0103503D01*
X0240977Y0103561D01*
X0241268Y0103626D01*
X0241557Y0103698D01*
X0241845Y0103777D01*
X0242131Y0103864D01*
X0242414Y0103957D01*
X0242695Y0104057D01*
X0242974Y0104164D01*
X0243249Y0104278D01*
X0243522Y0104398D01*
X0243792Y0104525D01*
X0244059Y0104659D01*
X0244322Y0104799D01*
X0244582Y0104946D01*
X0244838Y0105099D01*
X0245091Y0105258D01*
X0245339Y0105423D01*
X0245584Y0105594D01*
X0245824Y0105771D01*
X0246059Y0105954D01*
X0246290Y0106143D01*
X0246517Y0106337D01*
X0246739Y0106537D01*
X0246955Y0106742D01*
X0247167Y0106952D01*
X0247373Y0107168D01*
X0247574Y0107388D01*
X0247770Y0107613D01*
X0247960Y0107843D01*
X0248144Y0108078D01*
X0248323Y0108317D01*
X0248495Y0108560D01*
X0248662Y0108808D01*
X0248823Y0109059D01*
X0248977Y0109315D01*
X0249125Y0109574D01*
X0249267Y0109836D01*
X0249402Y0110102D01*
X0249531Y0110371D01*
X0249653Y0110643D01*
X0249768Y0110919D01*
X0249877Y0111196D01*
X0249979Y0111477D01*
X0250074Y0111760D01*
X0231314Y0140400D02*
X0231314Y0143202D01*
X0229913Y0141801D01*
X0231781Y0141801D01*
X0238082Y0148400D02*
X0239617Y0148400D01*
X0238849Y0148400D02*
X0238849Y0153004D01*
X0238082Y0153004D02*
X0239617Y0153004D01*
X0241151Y0152237D02*
X0241918Y0153004D01*
X0243453Y0153004D01*
X0244220Y0152237D01*
X0245755Y0153004D02*
X0245755Y0150702D01*
X0247290Y0151469D01*
X0248057Y0151469D01*
X0248824Y0150702D01*
X0248824Y0149167D01*
X0248057Y0148400D01*
X0246522Y0148400D01*
X0245755Y0149167D01*
X0244220Y0149167D02*
X0243453Y0148400D01*
X0241918Y0148400D01*
X0241151Y0149167D01*
X0241151Y0152237D01*
X0245755Y0153004D02*
X0248824Y0153004D01*
X0254226Y0147804D02*
X0253459Y0147037D01*
X0253459Y0143967D01*
X0254226Y0143200D01*
X0255761Y0143200D01*
X0256528Y0143967D01*
X0258063Y0143967D02*
X0258830Y0143200D01*
X0260365Y0143200D01*
X0261132Y0143967D01*
X0261132Y0145502D01*
X0260365Y0146269D01*
X0259598Y0146269D01*
X0258063Y0145502D01*
X0258063Y0147804D01*
X0261132Y0147804D01*
X0256528Y0147037D02*
X0255761Y0147804D01*
X0254226Y0147804D01*
X0261059Y0161800D02*
X0261059Y0166404D01*
X0263361Y0166404D01*
X0264128Y0165637D01*
X0264128Y0164102D01*
X0263361Y0163335D01*
X0261059Y0163335D01*
X0262594Y0163335D02*
X0264128Y0161800D01*
X0265663Y0161800D02*
X0268732Y0161800D01*
X0267198Y0161800D02*
X0267198Y0166404D01*
X0265663Y0164869D01*
X0270267Y0164869D02*
X0271802Y0166404D01*
X0271802Y0161800D01*
X0273336Y0161800D02*
X0270267Y0161800D01*
X0252874Y0167400D02*
X0251005Y0167400D01*
X0251940Y0167400D02*
X0251940Y0170202D01*
X0251005Y0169268D01*
X0244362Y0169305D02*
X0244362Y0169772D01*
X0243895Y0170239D01*
X0242961Y0170239D01*
X0242494Y0169772D01*
X0244362Y0169305D02*
X0242494Y0167437D01*
X0244362Y0167437D01*
X0235262Y0167867D02*
X0234795Y0167400D01*
X0233861Y0167400D01*
X0233394Y0167867D01*
X0234328Y0168801D02*
X0234795Y0168801D01*
X0235262Y0168334D01*
X0235262Y0167867D01*
X0234795Y0168801D02*
X0235262Y0169268D01*
X0235262Y0169735D01*
X0234795Y0170202D01*
X0233861Y0170202D01*
X0233394Y0169735D01*
X0217191Y0161697D02*
X0212587Y0161697D01*
X0214889Y0159395D01*
X0214889Y0162465D01*
X0214889Y0157861D02*
X0213355Y0157861D01*
X0212587Y0157093D01*
X0212587Y0154791D01*
X0217191Y0154791D01*
X0215657Y0154791D02*
X0215657Y0157093D01*
X0214889Y0157861D01*
X0215657Y0156326D02*
X0217191Y0157861D01*
X0197638Y0157467D02*
X0196103Y0155932D01*
X0196103Y0156700D02*
X0196103Y0154398D01*
X0197638Y0154398D02*
X0193034Y0154398D01*
X0193034Y0156700D01*
X0193801Y0157467D01*
X0195336Y0157467D01*
X0196103Y0156700D01*
X0197638Y0159002D02*
X0194569Y0162071D01*
X0193801Y0162071D01*
X0193034Y0161304D01*
X0193034Y0159769D01*
X0193801Y0159002D01*
X0197638Y0159002D02*
X0197638Y0162071D01*
X0185355Y0150271D02*
X0183821Y0150271D01*
X0183054Y0149504D01*
X0181519Y0149504D02*
X0180752Y0150271D01*
X0179217Y0150271D01*
X0178450Y0149504D01*
X0178450Y0146434D01*
X0179217Y0145667D01*
X0180752Y0145667D01*
X0181519Y0146434D01*
X0183054Y0145667D02*
X0186123Y0148736D01*
X0186123Y0149504D01*
X0185355Y0150271D01*
X0186123Y0145667D02*
X0183054Y0145667D01*
X0176915Y0145667D02*
X0175380Y0145667D01*
X0176148Y0145667D02*
X0176148Y0150271D01*
X0176915Y0150271D02*
X0175380Y0150271D01*
X0165661Y0156072D02*
X0161057Y0156072D01*
X0161057Y0158374D01*
X0161824Y0159142D01*
X0163359Y0159142D01*
X0164126Y0158374D01*
X0164126Y0156072D01*
X0164126Y0157607D02*
X0165661Y0159142D01*
X0164893Y0160676D02*
X0165661Y0161444D01*
X0165661Y0162978D01*
X0164893Y0163746D01*
X0164126Y0163746D01*
X0163359Y0162978D01*
X0163359Y0162211D01*
X0163359Y0162978D02*
X0162591Y0163746D01*
X0161824Y0163746D01*
X0161057Y0162978D01*
X0161057Y0161444D01*
X0161824Y0160676D01*
X0146888Y0160283D02*
X0146888Y0163352D01*
X0146888Y0161817D02*
X0142284Y0161817D01*
X0143819Y0160283D01*
X0143052Y0158748D02*
X0144586Y0158748D01*
X0145354Y0157981D01*
X0145354Y0155679D01*
X0146888Y0155679D02*
X0142284Y0155679D01*
X0142284Y0157981D01*
X0143052Y0158748D01*
X0145354Y0157213D02*
X0146888Y0158748D01*
X0134496Y0149465D02*
X0134496Y0144861D01*
X0132961Y0144861D02*
X0136031Y0144861D01*
X0132961Y0147931D02*
X0134496Y0149465D01*
X0131427Y0148698D02*
X0130659Y0149465D01*
X0129125Y0149465D01*
X0128357Y0148698D01*
X0128357Y0145629D01*
X0129125Y0144861D01*
X0130659Y0144861D01*
X0131427Y0145629D01*
X0126823Y0144861D02*
X0125288Y0144861D01*
X0126055Y0144861D02*
X0126055Y0149465D01*
X0125288Y0149465D02*
X0126823Y0149465D01*
X0118041Y0140293D02*
X0118041Y0139092D01*
X0117440Y0138492D01*
X0115639Y0138492D01*
X0115639Y0137291D02*
X0115639Y0140894D01*
X0117440Y0140894D01*
X0118041Y0140293D01*
X0114358Y0139092D02*
X0111956Y0139092D01*
X0110675Y0139092D02*
X0108273Y0139092D01*
X0106991Y0137891D02*
X0106991Y0140894D01*
X0108273Y0140894D02*
X0108273Y0137291D01*
X0106991Y0137891D02*
X0106391Y0137291D01*
X0105190Y0137291D01*
X0104589Y0137891D01*
X0104589Y0140894D01*
X0110675Y0140894D02*
X0110675Y0137291D01*
X0081501Y0136273D02*
X0078432Y0139343D01*
X0077664Y0139343D01*
X0076897Y0138575D01*
X0076897Y0137041D01*
X0077664Y0136273D01*
X0077664Y0134739D02*
X0076897Y0133971D01*
X0076897Y0132437D01*
X0077664Y0131669D01*
X0080733Y0131669D01*
X0081501Y0132437D01*
X0081501Y0133971D01*
X0080733Y0134739D01*
X0081501Y0136273D02*
X0081501Y0139343D01*
X0075303Y0134516D02*
X0075303Y0115618D01*
X0066248Y0115618D01*
X0058768Y0115618D02*
X0049713Y0115618D01*
X0049713Y0134516D01*
X0056406Y0141209D01*
X0058768Y0141209D01*
X0066248Y0141209D02*
X0068610Y0141209D01*
X0075303Y0134516D01*
X0058768Y0140028D02*
X0058485Y0139933D01*
X0058204Y0139831D01*
X0057927Y0139722D01*
X0057651Y0139607D01*
X0057379Y0139485D01*
X0057110Y0139356D01*
X0056844Y0139221D01*
X0056582Y0139079D01*
X0056323Y0138931D01*
X0056067Y0138777D01*
X0055816Y0138616D01*
X0055568Y0138449D01*
X0055325Y0138277D01*
X0055086Y0138098D01*
X0054851Y0137914D01*
X0054621Y0137724D01*
X0054396Y0137528D01*
X0054176Y0137327D01*
X0053960Y0137121D01*
X0053750Y0136909D01*
X0053545Y0136693D01*
X0053345Y0136471D01*
X0053151Y0136244D01*
X0052962Y0136013D01*
X0052779Y0135778D01*
X0052602Y0135538D01*
X0052431Y0135293D01*
X0052266Y0135045D01*
X0052107Y0134792D01*
X0051954Y0134536D01*
X0051807Y0134276D01*
X0051667Y0134013D01*
X0051533Y0133746D01*
X0051406Y0133476D01*
X0051286Y0133203D01*
X0051172Y0132928D01*
X0051065Y0132649D01*
X0050965Y0132368D01*
X0050872Y0132085D01*
X0050785Y0131799D01*
X0050706Y0131511D01*
X0050634Y0131222D01*
X0050569Y0130931D01*
X0050511Y0130638D01*
X0050460Y0130344D01*
X0050416Y0130049D01*
X0050380Y0129753D01*
X0050351Y0129456D01*
X0050329Y0129158D01*
X0050314Y0128860D01*
X0050307Y0128562D01*
X0050307Y0128264D01*
X0050314Y0127966D01*
X0050329Y0127668D01*
X0050351Y0127370D01*
X0050380Y0127073D01*
X0050416Y0126777D01*
X0050460Y0126482D01*
X0050511Y0126188D01*
X0050569Y0125895D01*
X0050634Y0125604D01*
X0050706Y0125315D01*
X0050785Y0125027D01*
X0050872Y0124741D01*
X0050965Y0124458D01*
X0051065Y0124177D01*
X0051172Y0123898D01*
X0051286Y0123623D01*
X0051406Y0123350D01*
X0051533Y0123080D01*
X0051667Y0122813D01*
X0051807Y0122550D01*
X0051954Y0122290D01*
X0052107Y0122034D01*
X0052266Y0121781D01*
X0052431Y0121533D01*
X0052602Y0121288D01*
X0052779Y0121048D01*
X0052962Y0120813D01*
X0053151Y0120582D01*
X0053345Y0120355D01*
X0053545Y0120133D01*
X0053750Y0119917D01*
X0053960Y0119705D01*
X0054176Y0119499D01*
X0054396Y0119298D01*
X0054621Y0119102D01*
X0054851Y0118912D01*
X0055086Y0118728D01*
X0055325Y0118549D01*
X0055568Y0118377D01*
X0055816Y0118210D01*
X0056067Y0118049D01*
X0056323Y0117895D01*
X0056582Y0117747D01*
X0056844Y0117605D01*
X0057110Y0117470D01*
X0057379Y0117341D01*
X0057651Y0117219D01*
X0057927Y0117104D01*
X0058204Y0116995D01*
X0058485Y0116893D01*
X0058768Y0116798D01*
X0066248Y0116798D02*
X0066531Y0116893D01*
X0066812Y0116995D01*
X0067089Y0117104D01*
X0067365Y0117219D01*
X0067637Y0117341D01*
X0067906Y0117470D01*
X0068172Y0117605D01*
X0068434Y0117747D01*
X0068693Y0117895D01*
X0068949Y0118049D01*
X0069200Y0118210D01*
X0069448Y0118377D01*
X0069691Y0118549D01*
X0069930Y0118728D01*
X0070165Y0118912D01*
X0070395Y0119102D01*
X0070620Y0119298D01*
X0070840Y0119499D01*
X0071056Y0119705D01*
X0071266Y0119917D01*
X0071471Y0120133D01*
X0071671Y0120355D01*
X0071865Y0120582D01*
X0072054Y0120813D01*
X0072237Y0121048D01*
X0072414Y0121288D01*
X0072585Y0121533D01*
X0072750Y0121781D01*
X0072909Y0122034D01*
X0073062Y0122290D01*
X0073209Y0122550D01*
X0073349Y0122813D01*
X0073483Y0123080D01*
X0073610Y0123350D01*
X0073730Y0123623D01*
X0073844Y0123898D01*
X0073951Y0124177D01*
X0074051Y0124458D01*
X0074144Y0124741D01*
X0074231Y0125027D01*
X0074310Y0125315D01*
X0074382Y0125604D01*
X0074447Y0125895D01*
X0074505Y0126188D01*
X0074556Y0126482D01*
X0074600Y0126777D01*
X0074636Y0127073D01*
X0074665Y0127370D01*
X0074687Y0127668D01*
X0074702Y0127966D01*
X0074709Y0128264D01*
X0074709Y0128562D01*
X0074702Y0128860D01*
X0074687Y0129158D01*
X0074665Y0129456D01*
X0074636Y0129753D01*
X0074600Y0130049D01*
X0074556Y0130344D01*
X0074505Y0130638D01*
X0074447Y0130931D01*
X0074382Y0131222D01*
X0074310Y0131511D01*
X0074231Y0131799D01*
X0074144Y0132085D01*
X0074051Y0132368D01*
X0073951Y0132649D01*
X0073844Y0132928D01*
X0073730Y0133203D01*
X0073610Y0133476D01*
X0073483Y0133746D01*
X0073349Y0134013D01*
X0073209Y0134276D01*
X0073062Y0134536D01*
X0072909Y0134792D01*
X0072750Y0135045D01*
X0072585Y0135293D01*
X0072414Y0135538D01*
X0072237Y0135778D01*
X0072054Y0136013D01*
X0071865Y0136244D01*
X0071671Y0136471D01*
X0071471Y0136693D01*
X0071266Y0136909D01*
X0071056Y0137121D01*
X0070840Y0137327D01*
X0070620Y0137528D01*
X0070395Y0137724D01*
X0070165Y0137914D01*
X0069930Y0138098D01*
X0069691Y0138277D01*
X0069448Y0138449D01*
X0069200Y0138616D01*
X0068949Y0138777D01*
X0068693Y0138931D01*
X0068434Y0139079D01*
X0068172Y0139221D01*
X0067906Y0139356D01*
X0067637Y0139485D01*
X0067365Y0139607D01*
X0067089Y0139722D01*
X0066812Y0139831D01*
X0066531Y0139933D01*
X0066248Y0140028D01*
X0065520Y0165891D02*
X0065520Y0183691D01*
X0062351Y0183300D02*
X0062351Y0186369D01*
X0062351Y0184835D02*
X0057747Y0184835D01*
X0059282Y0183300D01*
X0058515Y0181765D02*
X0057747Y0180998D01*
X0057747Y0178696D01*
X0062351Y0178696D01*
X0062351Y0180998D01*
X0061584Y0181765D01*
X0058515Y0181765D01*
X0080520Y0183691D02*
X0080520Y0165891D01*
X0081881Y0174598D02*
X0081881Y0179202D01*
X0084183Y0179202D01*
X0084950Y0178434D01*
X0084950Y0176900D01*
X0084183Y0176132D01*
X0081881Y0176132D01*
X0086485Y0175365D02*
X0086485Y0178434D01*
X0087252Y0179202D01*
X0088787Y0179202D01*
X0089554Y0178434D01*
X0089554Y0175365D01*
X0088787Y0174598D01*
X0087252Y0174598D01*
X0086485Y0175365D01*
X0091089Y0174598D02*
X0091089Y0179202D01*
X0094158Y0179202D02*
X0094158Y0174598D01*
X0092624Y0176132D01*
X0091089Y0174598D01*
X0095693Y0174598D02*
X0098762Y0174598D01*
X0100297Y0174598D02*
X0100297Y0179202D01*
X0102599Y0179202D01*
X0103366Y0178434D01*
X0103366Y0176900D01*
X0102599Y0176132D01*
X0100297Y0176132D01*
X0101831Y0176132D02*
X0103366Y0174598D01*
X0098762Y0179202D02*
X0095693Y0179202D01*
X0095693Y0174598D01*
X0095693Y0176900D02*
X0097228Y0176900D01*
X0116133Y0174991D02*
X0117668Y0174991D01*
X0116900Y0174991D02*
X0116900Y0179595D01*
X0116133Y0179595D02*
X0117668Y0179595D01*
X0119202Y0178828D02*
X0119202Y0175759D01*
X0119970Y0174991D01*
X0121504Y0174991D01*
X0122272Y0175759D01*
X0122272Y0178828D01*
X0121504Y0179595D01*
X0119970Y0179595D01*
X0119202Y0178828D01*
X0117559Y0114319D02*
X0118159Y0113718D01*
X0118159Y0112517D01*
X0117559Y0111917D01*
X0115757Y0111917D01*
X0115757Y0110716D02*
X0115757Y0114319D01*
X0117559Y0114319D01*
X0114476Y0112517D02*
X0112074Y0112517D01*
X0110793Y0112517D02*
X0108391Y0112517D01*
X0108391Y0110716D02*
X0108391Y0114319D01*
X0110793Y0114319D02*
X0110793Y0110716D01*
X0107110Y0110716D02*
X0104708Y0110716D01*
X0104708Y0114319D01*
X0264460Y0177688D02*
X0264460Y0182292D01*
X0266762Y0182292D01*
X0267529Y0181525D01*
X0267529Y0179990D01*
X0266762Y0179223D01*
X0264460Y0179223D01*
X0265994Y0179223D02*
X0267529Y0177688D01*
X0269064Y0177688D02*
X0272133Y0177688D01*
X0270598Y0177688D02*
X0270598Y0182292D01*
X0269064Y0180757D01*
X0273668Y0181525D02*
X0273668Y0178455D01*
X0276737Y0181525D01*
X0276737Y0178455D01*
X0275970Y0177688D01*
X0274435Y0177688D01*
X0273668Y0178455D01*
X0273668Y0181525D02*
X0274435Y0182292D01*
X0275970Y0182292D01*
X0276737Y0181525D01*
X0269064Y0187294D02*
X0269064Y0188062D01*
X0272133Y0191131D01*
X0272133Y0191898D01*
X0269064Y0191898D01*
X0267529Y0191131D02*
X0267529Y0189596D01*
X0266762Y0188829D01*
X0264460Y0188829D01*
X0265994Y0188829D02*
X0267529Y0187294D01*
X0264460Y0187294D02*
X0264460Y0191898D01*
X0266762Y0191898D01*
X0267529Y0191131D01*
X0300511Y0146841D02*
X0300511Y0141636D01*
X0303981Y0141636D01*
X0305667Y0142504D02*
X0306535Y0141636D01*
X0308270Y0141636D01*
X0309137Y0142504D01*
X0309137Y0143371D01*
X0308270Y0144238D01*
X0306535Y0144238D01*
X0305667Y0145106D01*
X0305667Y0145973D01*
X0306535Y0146841D01*
X0308270Y0146841D01*
X0309137Y0145973D01*
X0310824Y0146841D02*
X0313426Y0146841D01*
X0314293Y0145973D01*
X0314293Y0144238D01*
X0313426Y0143371D01*
X0310824Y0143371D01*
X0310824Y0141636D02*
X0310824Y0146841D01*
X0303981Y0146841D02*
X0300511Y0146841D01*
X0300511Y0144238D02*
X0302246Y0144238D01*
X0321137Y0144238D02*
X0324606Y0144238D01*
X0331449Y0145106D02*
X0333184Y0146841D01*
X0333184Y0141636D01*
X0331449Y0141636D02*
X0334919Y0141636D01*
X0336606Y0141636D02*
X0340075Y0145106D01*
X0340075Y0145973D01*
X0339208Y0146841D01*
X0337473Y0146841D01*
X0336606Y0145973D01*
X0336606Y0141636D02*
X0340075Y0141636D01*
D17*
X0277713Y0121569D02*
X0277012Y0121569D01*
X0274210Y0124372D01*
X0273509Y0124372D01*
X0273509Y0121569D01*
X0274210Y0119768D02*
X0277012Y0116965D01*
X0277713Y0117666D01*
X0277713Y0119067D01*
X0277012Y0119768D01*
X0274210Y0119768D01*
X0273509Y0119067D01*
X0273509Y0117666D01*
X0274210Y0116965D01*
X0277012Y0116965D01*
X0277012Y0115164D02*
X0277713Y0114463D01*
X0277713Y0113062D01*
X0277012Y0112361D01*
X0274210Y0115164D01*
X0277012Y0115164D01*
X0274210Y0115164D02*
X0273509Y0114463D01*
X0273509Y0113062D01*
X0274210Y0112361D01*
X0277012Y0112361D01*
X0270213Y0112361D02*
X0270213Y0114463D01*
X0269512Y0115164D01*
X0268811Y0114463D01*
X0268811Y0113062D01*
X0268111Y0112361D01*
X0267410Y0113062D01*
X0267410Y0115164D01*
X0268111Y0116965D02*
X0267410Y0117666D01*
X0267410Y0119067D01*
X0268111Y0119768D01*
X0270213Y0119768D01*
X0270213Y0121569D02*
X0270213Y0122970D01*
X0270213Y0122270D02*
X0267410Y0122270D01*
X0267410Y0121569D01*
X0266009Y0122270D02*
X0265308Y0122270D01*
X0262713Y0123871D02*
X0262713Y0125272D01*
X0262713Y0124572D02*
X0259910Y0124572D01*
X0259910Y0123871D01*
X0258509Y0124572D02*
X0257808Y0124572D01*
X0259910Y0122136D02*
X0259910Y0121436D01*
X0261311Y0120035D01*
X0259910Y0120035D02*
X0262713Y0120035D01*
X0262713Y0118367D02*
X0262713Y0116965D01*
X0262713Y0117666D02*
X0259910Y0117666D01*
X0259910Y0116965D01*
X0258509Y0117666D02*
X0257808Y0117666D01*
X0258509Y0115164D02*
X0262713Y0115164D01*
X0259910Y0113763D02*
X0258509Y0115164D01*
X0259910Y0113763D02*
X0258509Y0112361D01*
X0262713Y0112361D01*
X0266009Y0116965D02*
X0270213Y0116965D01*
X0269512Y0124639D02*
X0268111Y0124639D01*
X0267410Y0125339D01*
X0267410Y0126740D01*
X0268111Y0127441D01*
X0268811Y0127441D01*
X0268811Y0124639D01*
X0269512Y0124639D02*
X0270213Y0125339D01*
X0270213Y0126740D01*
X0270213Y0129242D02*
X0270213Y0130644D01*
X0270213Y0129943D02*
X0266009Y0129943D01*
X0266009Y0129242D01*
X0262713Y0129743D02*
X0262713Y0127641D01*
X0262012Y0126941D01*
X0261311Y0127641D01*
X0261311Y0129743D01*
X0260611Y0129743D02*
X0262713Y0129743D01*
X0262713Y0131544D02*
X0259910Y0131544D01*
X0259910Y0132245D01*
X0260611Y0132946D01*
X0259910Y0133646D01*
X0260611Y0134347D01*
X0262713Y0134347D01*
X0262713Y0132946D02*
X0260611Y0132946D01*
X0266009Y0135114D02*
X0270213Y0135114D01*
X0270213Y0133012D01*
X0269512Y0132312D01*
X0268111Y0132312D01*
X0267410Y0133012D01*
X0267410Y0135114D01*
X0260611Y0129743D02*
X0259910Y0129042D01*
X0259910Y0127641D01*
X0253059Y0146400D02*
X0227259Y0146400D01*
X0227259Y0160400D01*
X0253059Y0160400D01*
X0253059Y0146400D01*
X0219464Y0148002D02*
X0219462Y0111902D01*
X0220656Y0099821D02*
X0256756Y0099823D01*
X0256756Y0051020D01*
X0220656Y0051021D01*
X0170382Y0038177D02*
X0166354Y0042114D01*
X0166354Y0034240D01*
X0170382Y0038177D01*
X0099311Y0044384D02*
X0099311Y0018584D01*
X0085311Y0018584D01*
X0085311Y0044384D01*
X0099311Y0044384D01*
X0120806Y0112002D02*
X0120805Y0148102D01*
X0169608Y0148102D01*
X0169606Y0112002D01*
X0170662Y0111902D02*
X0170661Y0148002D01*
X0219464Y0148002D01*
X0076957Y0175551D02*
X0069083Y0175551D01*
X0073020Y0171524D01*
X0076957Y0175551D01*
D18*
X0059152Y0175084D02*
X0054648Y0175084D01*
X0056149Y0173582D01*
X0054648Y0171981D02*
X0054648Y0168978D01*
X0059152Y0168978D01*
X0056900Y0168978D02*
X0056900Y0170480D01*
X0059152Y0173582D02*
X0059152Y0176585D01*
X0392505Y0193939D02*
X0392505Y0195441D01*
X0392505Y0194690D02*
X0396258Y0194690D01*
X0397009Y0193939D01*
X0397009Y0193189D01*
X0396258Y0192438D01*
X0395508Y0197042D02*
X0395508Y0199294D01*
X0394757Y0200045D01*
X0393256Y0200045D01*
X0392505Y0199294D01*
X0392505Y0197042D01*
X0397009Y0197042D01*
X0396258Y0201646D02*
X0397009Y0202397D01*
X0397009Y0203898D01*
X0396258Y0204649D01*
X0394757Y0204649D01*
X0394006Y0203898D01*
X0394006Y0203147D01*
X0394757Y0201646D01*
X0392505Y0201646D01*
X0392505Y0204649D01*
D19*
X0061272Y0182535D02*
X0053272Y0182535D01*
X0057272Y0178035D02*
X0057272Y0166035D01*
X0056272Y0169035D02*
X0058272Y0169035D01*
X0058272Y0175035D01*
X0056272Y0175035D01*
X0056272Y0169035D01*
X0053272Y0161535D02*
X0061272Y0161535D01*
D20*
X0057272Y0157335D03*
X0057272Y0186735D03*
D21*
X0058421Y0127826D02*
X0058421Y0125357D01*
X0058421Y0126591D02*
X0054718Y0126591D01*
X0055952Y0125357D01*
X0055335Y0124142D02*
X0054718Y0123525D01*
X0054718Y0122291D01*
X0055335Y0121674D01*
X0057804Y0121674D01*
X0058421Y0122291D01*
X0058421Y0123525D01*
X0057804Y0124142D01*
X0067878Y0066837D02*
X0067261Y0066220D01*
X0067261Y0064986D01*
X0067878Y0064368D01*
X0067878Y0063154D02*
X0067261Y0062537D01*
X0067261Y0061302D01*
X0067878Y0060685D01*
X0070347Y0060685D01*
X0070964Y0061302D01*
X0070964Y0062537D01*
X0070347Y0063154D01*
X0070964Y0064368D02*
X0068495Y0066837D01*
X0067878Y0066837D01*
X0070964Y0066837D02*
X0070964Y0064368D01*
X0069113Y0059471D02*
X0069730Y0058854D01*
X0069730Y0057002D01*
X0070964Y0057002D02*
X0067261Y0057002D01*
X0067261Y0058854D01*
X0067878Y0059471D01*
X0069113Y0059471D01*
X0231719Y0119587D02*
X0231719Y0123290D01*
X0233571Y0123290D01*
X0234188Y0122673D01*
X0234188Y0121439D01*
X0233571Y0120821D01*
X0231719Y0120821D01*
X0235402Y0120204D02*
X0235402Y0122673D01*
X0236020Y0123290D01*
X0237254Y0123290D01*
X0237871Y0122673D01*
X0239086Y0122056D02*
X0240320Y0123290D01*
X0240320Y0119587D01*
X0239086Y0119587D02*
X0241554Y0119587D01*
X0237871Y0120204D02*
X0237254Y0119587D01*
X0236020Y0119587D01*
X0235402Y0120204D01*
X0318209Y0074053D02*
X0318209Y0072118D01*
X0318693Y0071634D01*
X0319660Y0071634D01*
X0320144Y0072118D01*
X0321156Y0073085D02*
X0323091Y0073085D01*
X0322607Y0071634D02*
X0322607Y0074537D01*
X0321156Y0073085D01*
X0320144Y0074053D02*
X0319660Y0074537D01*
X0318693Y0074537D01*
X0318209Y0074053D01*
X0330276Y0071131D02*
X0330276Y0068229D01*
X0330276Y0069196D02*
X0331727Y0069196D01*
X0332211Y0069680D01*
X0332211Y0070647D01*
X0331727Y0071131D01*
X0330276Y0071131D01*
X0331243Y0069196D02*
X0332211Y0068229D01*
X0333223Y0068712D02*
X0333706Y0068229D01*
X0334674Y0068229D01*
X0335157Y0068712D01*
X0335157Y0069196D01*
X0334674Y0069680D01*
X0333223Y0069680D01*
X0333223Y0068712D01*
X0333223Y0069680D02*
X0334190Y0070647D01*
X0335157Y0071131D01*
X0337343Y0072118D02*
X0337827Y0071634D01*
X0338794Y0071634D01*
X0339278Y0072118D01*
X0340289Y0072118D02*
X0340773Y0071634D01*
X0341741Y0071634D01*
X0342224Y0072118D01*
X0342224Y0072602D01*
X0341741Y0073085D01*
X0341257Y0073085D01*
X0341741Y0073085D02*
X0342224Y0073569D01*
X0342224Y0074053D01*
X0341741Y0074537D01*
X0340773Y0074537D01*
X0340289Y0074053D01*
X0339278Y0074053D02*
X0338794Y0074537D01*
X0337827Y0074537D01*
X0337343Y0074053D01*
X0337343Y0072118D01*
X0349213Y0071131D02*
X0349213Y0068229D01*
X0349213Y0069196D02*
X0350664Y0069196D01*
X0351148Y0069680D01*
X0351148Y0070647D01*
X0350664Y0071131D01*
X0349213Y0071131D01*
X0350180Y0069196D02*
X0351148Y0068229D01*
X0352160Y0068712D02*
X0352643Y0068229D01*
X0353611Y0068229D01*
X0354094Y0068712D01*
X0354094Y0069680D01*
X0353611Y0070164D01*
X0353127Y0070164D01*
X0352160Y0069680D01*
X0352160Y0071131D01*
X0354094Y0071131D01*
D22*
X0195062Y0149902D03*
X0145206Y0150002D03*
D23*
X0258656Y0075421D03*
D24*
X0296768Y0162302D02*
X0322358Y0162302D01*
X0313697Y0169783D02*
X0308972Y0169783D01*
X0308972Y0183956D01*
X0304248Y0183956D01*
X0304248Y0169783D01*
X0300311Y0169783D01*
X0300311Y0184350D01*
X0296768Y0184350D01*
X0296768Y0165058D01*
X0296768Y0164665D02*
X0296768Y0162302D01*
X0313697Y0169783D02*
X0313697Y0183956D01*
X0318028Y0183956D01*
X0318028Y0170176D01*
X0322358Y0170176D01*
X0322358Y0183956D01*
X0338106Y0183956D01*
M02*
