%
M48
M72
T01C0.01600
T02C0.01969
T03C0.02362
T04C0.02756
T05C0.03200
T06C0.03346
T07C0.03600
T08C0.03740
T09C0.03937
T10C0.05512
T11C0.11811
T12C0.12598
%
T01
X63059Y60500
X99459Y89200
X148059Y50500
X143059Y30500
X138059Y30500
X168059Y30500
X198059Y35500
X213059Y35500
X213059Y30500
X228059Y25500
X248059Y30500
X258059Y25500
X294240Y30461
X335264Y50657
X316957Y56209
X315343Y70618
X333098Y69634
X348020Y72075
X349673Y78650
X329240Y96406
X312980Y91524
X323138Y120579
X312859Y145300
X342467Y195530
X112039Y168982
X198059Y15500
T02
X263759Y56300
X297059Y49400
X297259Y103800
X339259Y103100
X277259Y147900
X253159Y124500
X319959Y150000
X301259Y183000
X246159Y179300
X176059Y155100
X144759Y155500
X72659Y192900
X65659Y148000
X164659Y91900
X71359Y24400
T03
X388925Y25776
T04
X343224Y98917
X343224Y106791
X343224Y114665
X343224Y122539
X343224Y130413
X343224Y138287
X343224Y146161
X343224Y154035
X288106Y154035
X288106Y146161
X288106Y138287
X288106Y130413
X288106Y122539
X288106Y114665
X288106Y106791
X288106Y98917
T05
X57272Y152035
X57272Y192035
T06
X82059Y205500
X92059Y205500
X102059Y205500
X112059Y205500
X122059Y205500
X132059Y205500
X142059Y205500
X152059Y205500
X162059Y205500
X172059Y205500
X188059Y205500
X198059Y205500
X208059Y205500
X218059Y205500
X228059Y205500
X238059Y205500
X248059Y205500
X258059Y205500
X278059Y205500
X288059Y205500
X298059Y205500
X308059Y205500
X318059Y205500
X328059Y205500
X338059Y205500
X348059Y205500
X348059Y15500
X338059Y15500
X328059Y15500
X318059Y15500
X308059Y15500
X298059Y15500
X278059Y15500
X268059Y15500
X258059Y15500
X248059Y15500
X238059Y15500
X228059Y15500
X218059Y15500
X208059Y15500
X188059Y15500
X178059Y15500
X168059Y15500
X158059Y15500
X148059Y15500
X138059Y15500
X128059Y15500
X118059Y15500
X358059Y15500
X368059Y15500
T07
X169459Y82000
X162559Y82100
X164602Y100300
X170802Y100400
X127459Y100400
X121359Y100400
X85359Y83200
X89459Y78700
X116059Y40300
X122659Y40300
X142559Y40300
X148859Y40400
X230859Y177700
X226159Y182700
X138559Y182600
X132059Y182600
T08
X378059Y185500
X388059Y185500
X388059Y175500
X378059Y175500
X378059Y165500
X388059Y165500
X388059Y155500
X378059Y155500
X378059Y145500
X388059Y145500
X388059Y135500
X378059Y135500
X378059Y125500
X388059Y125500
X388059Y115500
X378059Y115500
X378059Y105500
X388059Y105500
X388059Y95500
X378059Y95500
X378059Y85500
X388059Y85500
X388059Y75500
X378059Y75500
X378059Y65500
X388059Y65500
X388059Y55500
X378059Y55500
X378059Y45500
X388059Y45500
X388059Y35500
X378059Y35500
X378059Y195500
X388059Y195500
X388059Y205500
X378059Y205500
T09
X114122Y156091
X104122Y156091
X94122Y156091
X84122Y156091
X84240Y129516
X94240Y129516
X104240Y129516
X114240Y129516
X94437Y101484
X84437Y101484
X84859Y59100
X94859Y59100
X115343Y59122
X125343Y59122
X135343Y59122
X145343Y59122
X155343Y59122
X165343Y59122
X175343Y59122
X185343Y59122
X195343Y59122
X205343Y59122
T10
X41327Y52350
X19673Y52350
X19673Y35815
X41327Y35815
X41327Y68886
X19673Y68886
X19673Y85421
X41327Y85421
X41327Y101957
X19673Y101957
X19673Y118492
X41327Y118492
X41327Y135028
X19673Y135028
X19673Y151563
X41327Y151563
X41327Y168098
X19673Y168098
X19673Y184634
X41327Y184634
T11
X39516Y17311
X39516Y203138
T12
X68059Y205500
X268059Y145500
X363059Y205500
X268059Y35500
X388059Y15500
X63059Y15500
M30
