G75*
%MOIN*%
%OFA0B0*%
%FSLAX25Y25*%
%IPPOS*%
%LPD*%
%AMOC8*
5,1,8,0,0,1.08239X$1,22.5*
%
%ADD10C,0.12998*%
%ADD11C,0.06000*%
%ADD12OC8,0.07000*%
%ADD13R,0.08668X0.08668*%
%ADD14C,0.12211*%
%ADD15C,0.06337*%
%ADD16C,0.07400*%
%ADD17C,0.05156*%
%ADD18OC8,0.06000*%
D10*
X0063059Y0015500D03*
X0268059Y0035500D03*
X0388059Y0015500D03*
X0268059Y0145500D03*
X0363059Y0205500D03*
X0068059Y0205500D03*
D11*
X0082059Y0203820D02*
X0082059Y0207180D01*
X0092059Y0207180D02*
X0092059Y0203820D01*
X0102059Y0203820D02*
X0102059Y0207180D01*
X0112059Y0207180D02*
X0112059Y0203820D01*
X0122059Y0203820D02*
X0122059Y0207180D01*
X0132059Y0207180D02*
X0132059Y0203820D01*
X0142059Y0203820D02*
X0142059Y0207180D01*
X0152059Y0207180D02*
X0152059Y0203820D01*
X0162059Y0203820D02*
X0162059Y0207180D01*
X0172059Y0207180D02*
X0172059Y0203820D01*
X0188059Y0203820D02*
X0188059Y0207180D01*
X0198059Y0207180D02*
X0198059Y0203820D01*
X0208059Y0203820D02*
X0208059Y0207180D01*
X0218059Y0207180D02*
X0218059Y0203820D01*
X0228059Y0203820D02*
X0228059Y0207180D01*
X0238059Y0207180D02*
X0238059Y0203820D01*
X0248059Y0203820D02*
X0248059Y0207180D01*
X0258059Y0207180D02*
X0258059Y0203820D01*
X0278059Y0203820D02*
X0278059Y0207180D01*
X0288059Y0207180D02*
X0288059Y0203820D01*
X0298059Y0203820D02*
X0298059Y0207180D01*
X0308059Y0207180D02*
X0308059Y0203820D01*
X0318059Y0203820D02*
X0318059Y0207180D01*
X0328059Y0207180D02*
X0328059Y0203820D01*
X0338059Y0203820D02*
X0338059Y0207180D01*
X0348059Y0207180D02*
X0348059Y0203820D01*
X0348059Y0017180D02*
X0348059Y0013820D01*
X0338059Y0013820D02*
X0338059Y0017180D01*
X0328059Y0017180D02*
X0328059Y0013820D01*
X0318059Y0013820D02*
X0318059Y0017180D01*
X0308059Y0017180D02*
X0308059Y0013820D01*
X0298059Y0013820D02*
X0298059Y0017180D01*
X0278059Y0017180D02*
X0278059Y0013820D01*
X0268059Y0013820D02*
X0268059Y0017180D01*
X0258059Y0017180D02*
X0258059Y0013820D01*
X0248059Y0013820D02*
X0248059Y0017180D01*
X0238059Y0017180D02*
X0238059Y0013820D01*
X0228059Y0013820D02*
X0228059Y0017180D01*
X0218059Y0017180D02*
X0218059Y0013820D01*
X0208059Y0013820D02*
X0208059Y0017180D01*
X0188059Y0017180D02*
X0188059Y0013820D01*
X0178059Y0013820D02*
X0178059Y0017180D01*
X0168059Y0017180D02*
X0168059Y0013820D01*
X0158059Y0013820D02*
X0158059Y0017180D01*
X0148059Y0017180D02*
X0148059Y0013820D01*
X0138059Y0013820D02*
X0138059Y0017180D01*
X0128059Y0017180D02*
X0128059Y0013820D01*
X0118059Y0013820D02*
X0118059Y0017180D01*
X0358059Y0017180D02*
X0358059Y0013820D01*
X0368059Y0013820D02*
X0368059Y0017180D01*
D12*
X0378059Y0035500D03*
X0388059Y0035500D03*
X0388059Y0045500D03*
X0378059Y0045500D03*
X0378059Y0055500D03*
X0388059Y0055500D03*
X0388059Y0065500D03*
X0378059Y0065500D03*
X0378059Y0075500D03*
X0388059Y0075500D03*
X0388059Y0085500D03*
X0378059Y0085500D03*
X0378059Y0095500D03*
X0388059Y0095500D03*
X0388059Y0105500D03*
X0378059Y0105500D03*
X0378059Y0115500D03*
X0388059Y0115500D03*
X0388059Y0125500D03*
X0378059Y0125500D03*
X0378059Y0135500D03*
X0388059Y0135500D03*
X0388059Y0145500D03*
X0378059Y0145500D03*
X0378059Y0155500D03*
X0388059Y0155500D03*
X0388059Y0165500D03*
X0378059Y0165500D03*
X0378059Y0175500D03*
X0388059Y0175500D03*
X0388059Y0185500D03*
X0378059Y0185500D03*
X0378059Y0195500D03*
X0388059Y0195500D03*
X0388059Y0205500D03*
X0378059Y0205500D03*
D13*
X0041327Y0184634D03*
X0019673Y0184634D03*
X0019673Y0168098D03*
X0041327Y0168098D03*
X0041327Y0151563D03*
X0019673Y0151563D03*
X0019673Y0135028D03*
X0041327Y0135028D03*
X0041327Y0118492D03*
X0019673Y0118492D03*
X0019673Y0101957D03*
X0041327Y0101957D03*
X0041327Y0085421D03*
X0019673Y0085421D03*
X0019673Y0068886D03*
X0041327Y0068886D03*
X0041327Y0052350D03*
X0019673Y0052350D03*
X0019673Y0035815D03*
X0041327Y0035815D03*
D14*
X0039516Y0017311D03*
X0039516Y0203138D03*
D15*
X0084122Y0157872D02*
X0084122Y0154309D01*
X0094122Y0154309D02*
X0094122Y0157872D01*
X0104122Y0157872D02*
X0104122Y0154309D01*
X0114122Y0154309D02*
X0114122Y0157872D01*
X0114240Y0131297D02*
X0114240Y0127735D01*
X0104240Y0127735D02*
X0104240Y0131297D01*
X0094240Y0131297D02*
X0094240Y0127735D01*
X0084240Y0127735D02*
X0084240Y0131297D01*
X0084437Y0103265D02*
X0084437Y0099703D01*
X0094437Y0099703D02*
X0094437Y0103265D01*
X0094859Y0060881D02*
X0094859Y0057319D01*
X0084859Y0057319D02*
X0084859Y0060881D01*
X0115343Y0060903D02*
X0115343Y0057341D01*
X0125343Y0057341D02*
X0125343Y0060903D01*
X0135343Y0060903D02*
X0135343Y0057341D01*
X0145343Y0057341D02*
X0145343Y0060903D01*
X0155343Y0060903D02*
X0155343Y0057341D01*
X0165343Y0057341D02*
X0165343Y0060903D01*
X0175343Y0060903D02*
X0175343Y0057341D01*
X0185343Y0057341D02*
X0185343Y0060903D01*
X0195343Y0060903D02*
X0195343Y0057341D01*
X0205343Y0057341D02*
X0205343Y0060903D01*
D16*
X0059372Y0152035D02*
X0055172Y0152035D01*
X0055172Y0192035D02*
X0059372Y0192035D01*
D17*
X0283350Y0154035D02*
X0288106Y0154035D01*
X0288106Y0146161D02*
X0283350Y0146161D01*
X0283350Y0138287D02*
X0288106Y0138287D01*
X0288106Y0130413D02*
X0283350Y0130413D01*
X0283350Y0122539D02*
X0288106Y0122539D01*
X0288106Y0114665D02*
X0283350Y0114665D01*
X0283350Y0106791D02*
X0288106Y0106791D01*
X0288106Y0098917D02*
X0283350Y0098917D01*
X0343224Y0098917D02*
X0347980Y0098917D01*
X0347980Y0106791D02*
X0343224Y0106791D01*
X0343224Y0114665D02*
X0347980Y0114665D01*
X0347980Y0122539D02*
X0343224Y0122539D01*
X0343224Y0130413D02*
X0347980Y0130413D01*
X0347980Y0138287D02*
X0343224Y0138287D01*
X0343224Y0146161D02*
X0347980Y0146161D01*
X0347980Y0154035D02*
X0343224Y0154035D01*
D18*
X0230859Y0177700D03*
X0226159Y0182700D03*
X0138559Y0182600D03*
X0132059Y0182600D03*
X0127459Y0100400D03*
X0121359Y0100400D03*
X0085359Y0083200D03*
X0089459Y0078700D03*
X0116059Y0040300D03*
X0122659Y0040300D03*
X0142559Y0040300D03*
X0148859Y0040400D03*
X0162559Y0082100D03*
X0169459Y0082000D03*
X0170802Y0100400D03*
X0164602Y0100300D03*
M02*
